#N canvas 0 66 3440 1340 16;
#N canvas 653 112 965 1290 arrays 0;
#N canvas 1502 405 601 532 comment 0;
#X obj 101 101 cnv 23 398 298 empty empty empty 20 12 0 16 #e0e0e0 #404040 0;
#X text 151 122 Back propagation \; dZ^[l] = dA^[l] x g^[l]'(Z^[l]) \; dW^[l] = 1/m x dZ^[l]A^[l-1]T \; db^[l] = 1/m x sum(dZ^[l]) \; dA^[l-1] = W^[l]T . dZ^[l] \; layer shapes \; L (1 \, 2) \; L-1 (2 \, 2) \; L-2 (2 \, 2) \; input (n_x \, m) = (2 \, 4);
#X coords 0 -1 1 1 400 300 2 100 100;
#X restore 38 12 pd comment;
#X obj 32 380 array define \$0_X 4;
#X obj 32 420 array define \$0_Y 4;
#X text 204 380 // used for both the input values;
#X obj 32 490 array define \$0_aL 4;
#X obj 32 530 array define \$0_zL 4;
#X obj 32 570 array define \$0_wL 2;
#X obj 32 610 array define \$0_bL 1;
#X text 31 465 // output layer L;
#X obj 272 490 array define \$0_daL 4;
#X obj 272 530 array define \$0_dzL 4;
#X obj 272 570 array define \$0_dwL 2;
#X obj 272 610 array define \$0_dbL 1;
#X obj 485 359 array define \$0_aL-1_1 4;
#X obj 485 399 array define \$0_zL-1_1 4;
#X obj 485 439 array define \$0_wL-1_1 2;
#X obj 485 479 array define \$0_bL-1_1 1;
#X obj 725 359 array define \$0_daL-1_1 4;
#X obj 725 399 array define \$0_dzL-1_1 4;
#X obj 725 439 array define \$0_dwL-1_1 2;
#X obj 725 479 array define \$0_dbL-1_1 1;
#X obj 485 529 array define \$0_aL-1_2 4;
#X obj 485 569 array define \$0_zL-1_2 4;
#X obj 485 609 array define \$0_wL-1_2 2;
#X obj 485 649 array define \$0_bL-1_2 1;
#X obj 725 529 array define \$0_daL-1_2 4;
#X obj 725 569 array define \$0_dzL-1_2 4;
#X obj 725 609 array define \$0_dwL-1_2 2;
#X obj 725 649 array define \$0_dbL-1_2 1;
#X text 490 332 // layer L-1;
#X text 51 722 // layer L-2;
#X obj 46 749 array define \$0_aL-2_1 4;
#X obj 45 789 array define \$0_zL-2_1 4;
#X obj 45 829 array define \$0_wL-2_1 2;
#X obj 45 869 array define \$0_bL-2_1 1;
#X obj 285 749 array define \$0_daL-2_1 4;
#X obj 285 789 array define \$0_dzL-2_1 4;
#X obj 285 829 array define \$0_dwL-2_1 2;
#X obj 285 869 array define \$0_dbL-2_1 1;
#X obj 45 919 array define \$0_aL-2_2 4;
#X obj 285 919 array define \$0_daL-2_2 4;
#X obj 45 959 array define \$0_zL-2_2 4;
#X obj 285 959 array define \$0_dzL-2_2 4;
#X obj 45 999 array define \$0_wL-2_2 2;
#X obj 285 999 array define \$0_dwL-2_2 2;
#X obj 45 1039 array define \$0_bL-2_2 1;
#X obj 285 1039 array define \$0_dbL-2_2 1;
#X restore 76 112 pd arrays;
#N canvas 545 340 2007 958 initialize_arrays 0;
#X obj 39 20 loadbang;
#X obj 126 20 inlet bang;
#X obj 880 873 array set;
#N canvas 2604 927 427 257 array_args 0;
#X obj 81 24 inlet message;
#N canvas 1444 479 291 176 ns_symbol 0;
#X obj 71 46 r \$0_ns;
#X obj 29 45 d_0;
#X obj 29 15 inlet raw_message;
#X obj 29 83 outlet ns_message;
#X connect 0 0 1 1;
#X connect 1 0 3 0;
#X connect 2 0 1 0;
#X restore 81 80 pd ns_symbol;
#X obj 81 164 outlet values;
#X obj 222 163 outlet name;
#X obj 81 52 list split 1, f 34;
#X obj 81 136 list store;
#X obj 81 108 t b s, f 18;
#X connect 0 0 4 0;
#X connect 1 0 6 0;
#X connect 4 0 1 0;
#X connect 4 1 5 1;
#X connect 5 0 2 0;
#X connect 6 0 5 0;
#X connect 6 1 3 0;
#X restore 39 115 pd array_args;
#N canvas 2612 999 427 257 array_args 0;
#X obj 81 24 inlet message;
#N canvas 1444 479 291 176 ns_symbol 0;
#X obj 71 46 r \$0_ns;
#X obj 29 45 d_0;
#X obj 29 15 inlet raw_message;
#X obj 29 83 outlet ns_message;
#X connect 0 0 1 1;
#X connect 1 0 3 0;
#X connect 2 0 1 0;
#X restore 81 80 pd ns_symbol;
#X obj 81 164 outlet values;
#X obj 222 163 outlet name;
#X obj 81 52 list split 1, f 34;
#X obj 81 136 list store;
#X obj 81 108 t b s, f 18;
#X connect 0 0 4 0;
#X connect 1 0 6 0;
#X connect 4 0 1 0;
#X connect 4 1 5 1;
#X connect 5 0 2 0;
#X connect 6 0 5 0;
#X connect 6 1 3 0;
#X restore 206 196 pd array_args;
#N canvas 2608 963 427 257 array_args 0;
#X obj 81 24 inlet message;
#N canvas 1444 479 291 176 ns_symbol 0;
#X obj 71 46 r \$0_ns;
#X obj 29 45 d_0;
#X obj 29 15 inlet raw_message;
#X obj 29 83 outlet ns_message;
#X connect 0 0 1 1;
#X connect 1 0 3 0;
#X connect 2 0 1 0;
#X restore 81 80 pd ns_symbol;
#X obj 81 164 outlet values;
#X obj 222 163 outlet name;
#X obj 81 52 list split 1, f 34;
#X obj 81 136 list store;
#X obj 81 108 t b s, f 18;
#X connect 0 0 4 0;
#X connect 1 0 6 0;
#X connect 4 0 1 0;
#X connect 4 1 5 1;
#X connect 5 0 2 0;
#X connect 6 0 5 0;
#X connect 6 1 3 0;
#X restore 374 118 pd array_args;
#N canvas 2608 963 427 257 array_args 0;
#X obj 81 24 inlet message;
#N canvas 1444 479 291 176 ns_symbol 0;
#X obj 71 46 r \$0_ns;
#X obj 29 45 d_0;
#X obj 29 15 inlet raw_message;
#X obj 29 83 outlet ns_message;
#X connect 0 0 1 1;
#X connect 1 0 3 0;
#X connect 2 0 1 0;
#X restore 81 80 pd ns_symbol;
#X obj 81 164 outlet values;
#X obj 222 163 outlet name;
#X obj 81 52 list split 1, f 34;
#X obj 81 136 list store;
#X obj 81 108 t b s, f 18;
#X connect 0 0 4 0;
#X connect 1 0 6 0;
#X connect 4 0 1 0;
#X connect 4 1 5 1;
#X connect 5 0 2 0;
#X connect 6 0 5 0;
#X connect 6 1 3 0;
#X restore 542 120 pd array_args;
#N canvas 2608 963 427 257 array_args 0;
#X obj 81 24 inlet message;
#N canvas 1444 479 291 176 ns_symbol 0;
#X obj 71 46 r \$0_ns;
#X obj 29 45 d_0;
#X obj 29 15 inlet raw_message;
#X obj 29 83 outlet ns_message;
#X connect 0 0 1 1;
#X connect 1 0 3 0;
#X connect 2 0 1 0;
#X restore 81 80 pd ns_symbol;
#X obj 81 164 outlet values;
#X obj 222 163 outlet name;
#X obj 81 52 list split 1, f 34;
#X obj 81 136 list store;
#X obj 81 108 t b s, f 18;
#X connect 0 0 4 0;
#X connect 1 0 6 0;
#X connect 4 0 1 0;
#X connect 4 1 5 1;
#X connect 5 0 2 0;
#X connect 6 0 5 0;
#X connect 6 1 3 0;
#X restore 709 119 pd array_args;
#N canvas 2608 963 427 257 array_args 0;
#X obj 81 24 inlet message;
#N canvas 1444 479 291 176 ns_symbol 0;
#X obj 71 46 r \$0_ns;
#X obj 29 45 d_0;
#X obj 29 15 inlet raw_message;
#X obj 29 83 outlet ns_message;
#X connect 0 0 1 1;
#X connect 1 0 3 0;
#X connect 2 0 1 0;
#X restore 81 80 pd ns_symbol;
#X obj 81 164 outlet values;
#X obj 222 163 outlet name;
#X obj 81 52 list split 1, f 34;
#X obj 81 136 list store;
#X obj 81 108 t b s, f 18;
#X connect 0 0 4 0;
#X connect 1 0 6 0;
#X connect 4 0 1 0;
#X connect 4 1 5 1;
#X connect 5 0 2 0;
#X connect 6 0 5 0;
#X connect 6 1 3 0;
#X restore 877 119 pd array_args;
#X msg 542 91 bL 0.01;
#X msg 877 90 bL-1_1 0.02;
#N canvas 2608 963 427 257 array_args 0;
#X obj 81 24 inlet message;
#N canvas 1444 479 291 176 ns_symbol 0;
#X obj 71 46 r \$0_ns;
#X obj 29 45 d_0;
#X obj 29 15 inlet raw_message;
#X obj 29 83 outlet ns_message;
#X connect 0 0 1 1;
#X connect 1 0 3 0;
#X connect 2 0 1 0;
#X restore 81 80 pd ns_symbol;
#X obj 81 164 outlet values;
#X obj 222 163 outlet name;
#X obj 81 52 list split 1, f 34;
#X obj 81 136 list store;
#X obj 81 108 t b s, f 18;
#X connect 0 0 4 0;
#X connect 1 0 6 0;
#X connect 4 0 1 0;
#X connect 4 1 5 1;
#X connect 5 0 2 0;
#X connect 6 0 5 0;
#X connect 6 1 3 0;
#X restore 1045 119 pd array_args;
#N canvas 2608 963 427 257 array_args 0;
#X obj 81 24 inlet message;
#N canvas 1444 479 291 176 ns_symbol 0;
#X obj 71 46 r \$0_ns;
#X obj 29 45 d_0;
#X obj 29 15 inlet raw_message;
#X obj 29 83 outlet ns_message;
#X connect 0 0 1 1;
#X connect 1 0 3 0;
#X connect 2 0 1 0;
#X restore 81 80 pd ns_symbol;
#X obj 81 164 outlet values;
#X obj 222 163 outlet name;
#X obj 81 52 list split 1, f 34;
#X obj 81 136 list store;
#X obj 81 108 t b s, f 18;
#X connect 0 0 4 0;
#X connect 1 0 6 0;
#X connect 4 0 1 0;
#X connect 4 1 5 1;
#X connect 5 0 2 0;
#X connect 6 0 5 0;
#X connect 6 1 3 0;
#X restore 1213 119 pd array_args;
#N canvas 2608 963 427 257 array_args 0;
#X obj 81 24 inlet message;
#N canvas 1444 479 291 176 ns_symbol 0;
#X obj 71 46 r \$0_ns;
#X obj 29 45 d_0;
#X obj 29 15 inlet raw_message;
#X obj 29 83 outlet ns_message;
#X connect 0 0 1 1;
#X connect 1 0 3 0;
#X connect 2 0 1 0;
#X restore 81 80 pd ns_symbol;
#X obj 81 164 outlet values;
#X obj 222 163 outlet name;
#X obj 81 52 list split 1, f 34;
#X obj 81 136 list store;
#X obj 81 108 t b s, f 18;
#X connect 0 0 4 0;
#X connect 1 0 6 0;
#X connect 4 0 1 0;
#X connect 4 1 5 1;
#X connect 5 0 2 0;
#X connect 6 0 5 0;
#X connect 6 1 3 0;
#X restore 1380 119 pd array_args;
#N canvas 2608 963 427 257 array_args 0;
#X obj 81 24 inlet message;
#N canvas 1444 479 291 176 ns_symbol 0;
#X obj 71 46 r \$0_ns;
#X obj 29 45 d_0;
#X obj 29 15 inlet raw_message;
#X obj 29 83 outlet ns_message;
#X connect 0 0 1 1;
#X connect 1 0 3 0;
#X connect 2 0 1 0;
#X restore 81 80 pd ns_symbol;
#X obj 81 164 outlet values;
#X obj 222 163 outlet name;
#X obj 81 52 list split 1, f 34;
#X obj 81 136 list store;
#X obj 81 108 t b s, f 18;
#X connect 0 0 4 0;
#X connect 1 0 6 0;
#X connect 4 0 1 0;
#X connect 4 1 5 1;
#X connect 5 0 2 0;
#X connect 6 0 5 0;
#X connect 6 1 3 0;
#X restore 1548 119 pd array_args;
#N canvas 2608 963 427 257 array_args 0;
#X obj 81 24 inlet message;
#N canvas 1444 479 291 176 ns_symbol 0;
#X obj 71 46 r \$0_ns;
#X obj 29 45 d_0;
#X obj 29 15 inlet raw_message;
#X obj 29 83 outlet ns_message;
#X connect 0 0 1 1;
#X connect 1 0 3 0;
#X connect 2 0 1 0;
#X restore 81 80 pd ns_symbol;
#X obj 81 164 outlet values;
#X obj 222 163 outlet name;
#X obj 81 52 list split 1, f 34;
#X obj 81 136 list store;
#X obj 81 108 t b s, f 18;
#X connect 0 0 4 0;
#X connect 1 0 6 0;
#X connect 4 0 1 0;
#X connect 4 1 5 1;
#X connect 5 0 2 0;
#X connect 6 0 5 0;
#X connect 6 1 3 0;
#X restore 1716 119 pd array_args;
#N canvas 2608 963 427 257 array_args 0;
#X obj 81 24 inlet message;
#N canvas 1444 479 291 176 ns_symbol 0;
#X obj 71 46 r \$0_ns;
#X obj 29 45 d_0;
#X obj 29 15 inlet raw_message;
#X obj 29 83 outlet ns_message;
#X connect 0 0 1 1;
#X connect 1 0 3 0;
#X connect 2 0 1 0;
#X restore 81 80 pd ns_symbol;
#X obj 81 164 outlet values;
#X obj 222 163 outlet name;
#X obj 81 52 list split 1, f 34;
#X obj 81 136 list store;
#X obj 81 108 t b s, f 18;
#X connect 0 0 4 0;
#X connect 1 0 6 0;
#X connect 4 0 1 0;
#X connect 4 1 5 1;
#X connect 5 0 2 0;
#X connect 6 0 5 0;
#X connect 6 1 3 0;
#X restore 1884 119 pd array_args;
#X msg 1548 90 bL-2_1 0.03;
#X msg 1213 90 bL-1_2 -0.02;
#X obj 39 58 t b b b b b b b b b b b b, f 231;
#X msg 374 89 wL 0.1 0.05;
#X msg 709 90 wL-1_1 0.2 0.1;
#X msg 1045 90 wL-1_2 0.1 0.05;
#X msg 1380 90 wL-2_1 0.3 0.15;
#X msg 1716 90 wL-2_2 0.125 0.075;
#X msg 1884 90 bL-1_2 -0.0125;
#X msg 39 86 X -0.75 -0.25 0.25 0.75;
#X msg 206 167 Y -0.25 -0.15 -0.15 0.5;
#X connect 0 0 19 0;
#X connect 1 0 19 0;
#X connect 3 0 2 0;
#X connect 3 1 2 2;
#X connect 4 0 2 0;
#X connect 4 1 2 2;
#X connect 5 0 2 0;
#X connect 5 1 2 2;
#X connect 6 0 2 0;
#X connect 6 1 2 2;
#X connect 7 0 2 0;
#X connect 7 1 2 2;
#X connect 8 0 2 0;
#X connect 8 1 2 2;
#X connect 9 0 6 0;
#X connect 10 0 8 0;
#X connect 11 0 2 0;
#X connect 11 1 2 2;
#X connect 12 0 2 0;
#X connect 12 1 2 2;
#X connect 13 0 2 0;
#X connect 13 1 2 2;
#X connect 14 0 2 0;
#X connect 14 1 2 2;
#X connect 15 0 2 0;
#X connect 15 1 2 2;
#X connect 16 0 2 0;
#X connect 16 1 2 2;
#X connect 17 0 14 0;
#X connect 18 0 12 0;
#X connect 19 0 26 0;
#X connect 19 1 27 0;
#X connect 19 2 20 0;
#X connect 19 3 9 0;
#X connect 19 4 21 0;
#X connect 19 5 10 0;
#X connect 19 6 22 0;
#X connect 19 7 18 0;
#X connect 19 8 23 0;
#X connect 19 9 17 0;
#X connect 19 10 24 0;
#X connect 19 11 25 0;
#X connect 20 0 5 0;
#X connect 21 0 7 0;
#X connect 22 0 11 0;
#X connect 23 0 13 0;
#X connect 24 0 15 0;
#X connect 25 0 16 0;
#X connect 26 0 3 0;
#X connect 27 0 4 0;
#X restore -12 140 pd initialize_arrays;
#X msg 69 11 bang;
#X obj -12 11 loadbang;
#X obj -12 44 f \$0;
#X obj -12 72 s \$0_ns;
#X msg -12 108 bang;
#X obj 477 118 nn.array_cycle X;
#X obj 602 85 r \$0_ns;
#X obj 903 119 nn.array_read X;
#X obj 1020 86 r \$0_ns;
#X msg 539 85 bang;
#X obj 477 151 f;
#X obj 903 86 f;
#X obj 486 246 nn.neuron_2 wL-2_1 bL-2_1 aL-2_1 zL-2_1 tanh;
#X obj 835 213 r \$0_ns;
#X obj 1252 213 r \$0_ns;
#X obj 903 246 nn.neuron_2 wL-2_2 bL-2_2 aL-2_2 zL-2_2 tanh;
#X obj 835 403 r \$0_ns;
#X obj 1252 403 r \$0_ns;
#X obj 486 436 nn.neuron_2 wL-1_1 bL-1_1 aL-1_1 zL-1_1 tanh;
#X obj 903 436 nn.neuron_2 wL-1_2 bL-1_2 aL-1_2 zL-1_2 tanh;
#X obj 997 533 r \$0_ns;
#X obj 776 566 nn.neuron_2 wL bL aL zL tanh;
#X obj 602 151 t f f;
#X obj 1020 152 t f f;
#X obj 660 279 t f f;
#X obj 1077 279 t f f;
#X obj 903 279 f;
#X obj 486 213 f;
#X obj 486 294 f;
#X obj 903 375 f;
#X obj 903 474 f;
#X obj 486 390 f;
#N canvas 1502 405 601 532 comment 0;
#X obj 101 101 cnv 23 398 298 empty empty empty 20 12 0 16 #e0e0e0 #404040 0;
#X text 151 122 Back propagation \; dZ^[l] = dA^[l] x g^[l]'(Z^[l]) \; dW^[l] = 1/m x dZ^[l]A^[l-1]T \; db^[l] = 1/m x sum(dZ^[l]) \; dA^[l-1] = W^[l]T . dZ^[l] \; layer shapes \; L (1 \, 2) \; L-1 (2 \, 2) \; L-2 (2 \, 2) \; input (n_x \, m) = (2 \, 4);
#X coords 0 -1 1 1 400 300 2 100 100;
#X restore -29 322 pd comment;
#X obj 481 571 nn.dz_mse aL Y dzL;
#X obj 481 614 nn.dw_1x2 dzL aL-1_1 aL-1_2 dwL;
#X obj 481 657 nn.db_1x1 dzL dbL;
#N canvas 1905 183 814 518 da_test_arrays 0;
#N canvas 2604 927 427 257 array_args 0;
#X obj 81 24 inlet message;
#N canvas 1444 479 291 176 ns_symbol 0;
#X obj 71 46 r \$0_ns;
#X obj 29 45 d_0;
#X obj 29 15 inlet raw_message;
#X obj 29 83 outlet ns_message;
#X connect 0 0 1 1;
#X connect 1 0 3 0;
#X connect 2 0 1 0;
#X restore 81 80 pd ns_symbol;
#X obj 81 164 outlet values;
#X obj 222 163 outlet name;
#X obj 81 52 list split 1, f 34;
#X obj 81 136 list store;
#X obj 81 108 t b s, f 18;
#X connect 0 0 4 0;
#X connect 1 0 6 0;
#X connect 4 0 1 0;
#X connect 4 1 5 1;
#X connect 5 0 2 0;
#X connect 6 0 5 0;
#X connect 6 1 3 0;
#X restore 87 328 pd array_args;
#X obj 69 48 array define \$0_w_1 2;
#X obj 67 134 array define \$0_dz_1 4;
#X obj 538 46 array define \$0_da_prev_1 4;
#X obj 538 96 array define \$0_da_prev_2 4;
#X obj 84 373 array set;
#X msg 53 220 w_1 3 4;
#X obj 68 89 array define \$0_w_2 2;
#X obj 67 171 array define \$0_dz_2 4;
#X msg 77 257 w_2 5 6;
#X msg 213 267 dz_2 3 4 5 6;
#X obj 542 152 array define \$0_dw 2;
#X msg 352 211 a_prev_1 3 4 5 6;
#X msg 353 249 a_prev_2 4 5 6 7;
#X obj 315 55 array define \$0_a_prev_1 4;
#X obj 312 91 array define \$0_a_prev_2 4;
#X msg 194 221 dz_1 5 4 3 2;
#X connect 0 0 5 0;
#X connect 0 1 5 2;
#X connect 6 0 0 0;
#X connect 9 0 0 0;
#X connect 10 0 0 0;
#X connect 12 0 0 0;
#X connect 13 0 0 0;
#X connect 16 0 0 0;
#X restore -12 172 pd da_test_arrays;
#X obj 481 700 nn.da_1x2 wL dzL daL-1_1 daL-1_2;
#X obj 481 743 nn.dz_for_g daL-1_1 zL-1_1 aL-1_1 dzL-1_1 tanh;
#X obj 481 786 nn.dz_for_g daL-1_2 zL-1_2 aL-1_2 dzL-1_2 tanh;
#X obj 481 829 nn.dw_1x2 dzL-1_1 aL-2_1 aL-2_2 dwL-1_1;
#X obj 481 872 nn.dw_1x2 dzL-1_2 aL-2_1 aL-2_2 dwL-1_2;
#X obj 481 915 nn.db_1x1 dzL-1_1 dbL-1_1;
#X obj 481 958 nn.db_1x1 dzL-1_2 dbL-1_2;
#N canvas 543 114 770 970 bits_and_bobs 0;
#N canvas 1444 479 291 176 ns_symbol 0;
#X obj 71 46 r \$0_ns;
#X obj 29 45 d_0;
#X obj 29 15 inlet raw_message;
#X obj 29 83 outlet ns_message;
#X connect 0 0 1 1;
#X connect 1 0 3 0;
#X connect 2 0 1 0;
#X restore 111 94 pd ns_symbol;
#X obj 42 127 array get;
#X obj 42 155 print;
#X obj 74 59 t b a;
#X msg 75 30 dwL;
#X obj 313 153 array set;
#N canvas 2608 963 427 257 array_args 0;
#X obj 81 24 inlet message;
#N canvas 1444 479 291 176 ns_symbol 0;
#X obj 71 46 r \$0_ns;
#X obj 29 45 d_0;
#X obj 29 15 inlet raw_message;
#X obj 29 83 outlet ns_message;
#X connect 0 0 1 1;
#X connect 1 0 3 0;
#X connect 2 0 1 0;
#X restore 81 80 pd ns_symbol;
#X obj 81 164 outlet values;
#X obj 222 163 outlet name;
#X obj 81 52 list split 1, f 34;
#X obj 81 136 list store;
#X obj 81 108 t b s, f 18;
#X connect 0 0 4 0;
#X connect 1 0 6 0;
#X connect 4 0 1 0;
#X connect 4 1 5 1;
#X connect 5 0 2 0;
#X connect 6 0 5 0;
#X connect 6 1 3 0;
#X restore 305 86 pd array_args;
#X msg 303 44 aL-1_2 4 5 6 7;
#X obj 23 253 nn.da_2x2 w_1 w_2 dz_1 dz_2 da_prev_1 da_prev_2;
#X obj 396 216 r \$0_ns;
#X msg 22 211 bang;
#X obj 38 350 nn.dw_1x2 dz_1 a_prev_1 a_prev_2 dw;
#X obj 315 307 r \$0_ns;
#X msg 38 310 bang;
#N canvas 2024 414 787 635 notes_dw 0;
#X obj 102 102 cnv 23 596 396 empty empty empty 20 12 0 16 #e0e0e0 #404040 0;
#X text 127 117 dW^[l] = 1/m x dZ^[l] . A^[l-1]T \; wL shape (1 \, 2) \; dZ^[l] shape (1 \, m) \; aL-1_1 shape (1 \, m) \; aL-1_2 shape (1 \, m) \; \; The first column of dwL: \; 1/m x dzL x aL-1_1 \; The second column of dwL: \; 1/m x dzL x aL-1_2 \; \; The nn.dw_1x1 funtion simplifies the process by calculating a single column of dw \; \; The nn.dw_1x2 function does both calculations in one pass;
#X coords 0 -1 1 1 600 400 1 100 100;
#X restore 10 398 pd notes_dw;
#X connect 0 0 1 2;
#X connect 1 0 2 0;
#X connect 3 0 1 0;
#X connect 3 1 0 0;
#X connect 4 0 3 0;
#X connect 6 0 5 0;
#X connect 6 1 5 2;
#X connect 7 0 6 0;
#X connect 9 0 8 1;
#X connect 10 0 8 0;
#X connect 12 0 11 1;
#X connect 13 0 11 0;
#X restore -12 206 pd bits_and_bobs;
#X obj 481 1001 nn.da_2x2 wL-1_1 wL-1_2 dzL-1_1 dzL-1_2 daL-2_1 daL-2_2;
#X obj 481 1044 nn.dz_for_g daL-2_1 zL-2_1 aL-2_1 dzL-2_1 tanh;
#X obj 481 1087 nn.dz_for_g daL-2_2 zL-2_2 aL-2_2 dzL-2_2 tanh;
#X obj 481 1130 nn.dw_1x2 dzL-2_1 X X dwL-2_1;
#X obj 481 1173 nn.dw_1x2 dzL-2_2 X X dwL-2_2;
#X obj 481 1216 nn.db_1x1 dzL-2_1 dbL-2_1;
#X obj 481 1259 nn.db_1x1 dzL-2_2 dbL-2_2;
#X obj 1231 885 r \$0_ns;
#X obj 252 115 nbx 5 21 0 2 0 1 \$0_alpha empty learning\ rate 0 -12 0 16 #fcfcfc #000000 #000000 0.4 256;
#X obj 1288 632 nn.update bL-2_1 dbL-2_1;
#X obj 1288 660 nn.update bL-2_2 dbL-2_2;
#X obj 1288 688 nn.update wL-1_1 dwL-1_1;
#X obj 1288 716 nn.update wL-1_2 dwL-1_2;
#X obj 1288 744 nn.update wL dwL;
#X obj 1288 772 nn.update bL dbL;
#X obj 1658 407 r \$0_alpha;
#X obj 1676 443 r \$0_ns;
#N canvas 847 316 450 565 iterator 0;
#X obj 44 31 inlet toggle;
#X obj 44 157 f;
#X obj 44 185 t f f;
#X obj 291 31 inlet batch_size;
#X obj 98 185 + 1;
#X obj 44 263 mod;
#X obj 44 291 t f f;
#X obj 81 324 sel;
#X msg 206 384 0;
#X obj 81 352 t b b, f 16;
#X obj 81 380 s \$0_m_0;
#X obj 44 437 s \$0_m_i;
#X obj 44 87 t b b;
#X obj 81 115 s \$0_m_b;
#X obj 44 59 metro 25;
#X connect 0 0 14 0;
#X connect 1 0 2 0;
#X connect 2 0 5 0;
#X connect 2 1 4 0;
#X connect 3 0 5 1;
#X connect 4 0 1 1;
#X connect 5 0 6 0;
#X connect 6 0 11 0;
#X connect 6 1 7 0;
#X connect 7 0 9 0;
#X connect 8 0 1 1;
#X connect 9 0 10 0;
#X connect 9 1 8 0;
#X connect 12 0 1 0;
#X connect 12 1 13 0;
#X connect 14 0 12 0;
#X restore 252 59 pd iterator;
#X obj 252 31 tgl 23 0 empty empty empty 0 -12 0 16 #fcfcfc #000000 #000000 0 1;
#X obj 477 57 r \$0_m_b;
#X obj 481 541 r \$0_m_0;
#X obj 1288 604 nn.update wL-2_2 dwL-2_2;
#X obj 1288 572 nn.update wL-2_1 dwL-2_1;
#X msg 337 30 4;
#X floatatom 1083 515 5 0 0 0 - - - 0;
#X connect 2 0 4 0;
#X connect 3 0 4 0;
#X connect 4 0 5 0;
#X connect 6 0 1 0;
#X connect 7 0 12 0;
#X connect 7 1 24 0;
#X connect 8 0 7 2;
#X connect 9 0 17 0;
#X connect 9 1 25 0;
#X connect 10 0 9 1;
#X connect 11 0 7 1;
#X connect 12 0 13 0;
#X connect 13 0 9 0;
#X connect 14 0 30 0;
#X connect 14 1 26 0;
#X connect 15 0 14 3;
#X connect 16 0 17 3;
#X connect 17 0 28 0;
#X connect 17 1 27 0;
#X connect 18 0 20 3;
#X connect 19 0 21 3;
#X connect 20 0 23 0;
#X connect 20 1 23 1;
#X connect 21 0 32 0;
#X connect 21 1 23 2;
#X connect 21 1 71 0;
#X connect 22 0 23 3;
#X connect 24 0 14 1;
#X connect 24 1 17 1;
#X connect 25 0 14 2;
#X connect 25 1 17 2;
#X connect 26 0 20 1;
#X connect 26 1 21 1;
#X connect 27 0 20 2;
#X connect 27 1 21 2;
#X connect 28 0 29 0;
#X connect 29 0 14 0;
#X connect 30 0 31 0;
#X connect 31 0 21 0;
#X connect 32 0 33 0;
#X connect 33 0 20 0;
#X connect 35 0 36 0;
#X connect 36 0 37 0;
#X connect 37 0 39 0;
#X connect 39 0 40 0;
#X connect 40 0 41 0;
#X connect 41 0 42 0;
#X connect 42 0 43 0;
#X connect 43 0 44 0;
#X connect 44 0 45 0;
#X connect 45 0 47 0;
#X connect 47 0 48 0;
#X connect 48 0 49 0;
#X connect 49 0 50 0;
#X connect 50 0 51 0;
#X connect 51 0 52 0;
#X connect 52 0 53 0;
#X connect 53 0 69 0;
#X connect 54 0 35 1;
#X connect 54 0 53 1;
#X connect 54 0 52 1;
#X connect 54 0 51 1;
#X connect 54 0 50 1;
#X connect 54 0 49 1;
#X connect 54 0 48 1;
#X connect 54 0 47 1;
#X connect 54 0 45 1;
#X connect 54 0 44 1;
#X connect 54 0 43 1;
#X connect 54 0 42 1;
#X connect 54 0 41 1;
#X connect 54 0 40 1;
#X connect 54 0 39 1;
#X connect 54 0 37 1;
#X connect 54 0 36 1;
#X connect 56 0 57 0;
#X connect 57 0 58 0;
#X connect 58 0 59 0;
#X connect 59 0 60 0;
#X connect 60 0 61 0;
#X connect 62 0 61 1;
#X connect 62 0 60 1;
#X connect 62 0 59 1;
#X connect 62 0 58 1;
#X connect 62 0 57 1;
#X connect 62 0 56 1;
#X connect 62 0 68 1;
#X connect 62 0 69 1;
#X connect 63 0 59 2;
#X connect 63 0 58 2;
#X connect 63 0 57 2;
#X connect 63 0 56 2;
#X connect 63 0 60 2;
#X connect 63 0 61 2;
#X connect 63 0 68 2;
#X connect 63 0 69 2;
#X connect 65 0 64 0;
#X connect 66 0 7 0;
#X connect 67 0 35 0;
#X connect 68 0 56 0;
#X connect 69 0 68 0;
#X connect 70 0 64 1;
