#N canvas 2792 89 623 1058 16;
#X obj 33 93 f \$0;
#X obj 33 49 bng 23 250 50 0 empty empty empty 0 -12 0 16 #fcfcfc #000000 #000000;
#X obj 33 123 s \$0_ns;
#X obj 274 615 r \$0_ns;
#X obj 225 66 array define \$0_a 4;
#X obj 225 105 array define \$0_b 4;
#X obj 225 153 array define \$0_c 4;
#X obj 153 274 array set \$0_a;
#X obj 154 353 array set \$0_b;
#X msg 73 203 1 2 3 4;
#X msg 64 313 4 5 6 7;
#X obj 89 615 bng 23 250 50 0 empty empty empty 0 -12 0 16 #fcfcfc #000000 #000000;
#X obj 87 797 bng 23 250 50 0 empty empty empty 0 -12 0 16 #fcfcfc #000000 #000000;
#X obj 87 840 array get \$0_c;
#X obj 107 669 nn.add_arrays a b c;
#X listbox 86 911 47 0 0 0 - - - 0;
#X connect 0 0 2 0;
#X connect 1 0 0 0;
#X connect 3 0 14 1;
#X connect 9 0 7 0;
#X connect 10 0 8 0;
#X connect 11 0 14 0;
#X connect 12 0 13 0;
#X connect 13 0 15 0;
