#N canvas 440 273 1265 1016 16;
#X obj 33 18 array define foo 4;
#X obj 379 104 array set foo;
#X msg 353 48 1 2 3 4;
#X obj 172 461 array get foo;
#X obj 131 421 bng 23 250 50 0 empty empty empty 0 -12 0 16 #fcfcfc #000000 #000000;
#X obj 171 522 unpack f f f f;
#X floatatom 134 561 5 0 0 0 - - - 0;
#X floatatom 201 570 5 0 0 0 - - - 0;
#X floatatom 278 567 5 0 0 0 - - - 0;
#X floatatom 365 570 5 0 0 0 - - - 0;
#X obj 75 630 print first;
#X obj 371 642 print last;
#X obj 33 60 array define a 3;
#X obj 31 96 array define b 3;
#X obj 29 131 array define c 3;
#X obj 24 165 array define d 3;
#X obj 38 206 array define result 3;
#X obj 606 101 array set a;
#X msg 580 45 5 6 7;
#X obj 737 111 array set b;
#X msg 711 55 8 9 10;
#X obj 854 107 array set c;
#X obj 997 105 array set d;
#X msg 828 51 11 12 13;
#X msg 971 49 14 15 16;
#X msg 506 232 symbol foo;
#X msg 621 233 symbol a;
#X msg 707 230 symbol b;
#X msg 807 230 symbol c;
#X msg 903 233 symbol d;
#X msg 1006 238 symbol result;
#X obj 415 250 bng 23 250 50 0 empty empty empty 0 -12 0 16 #fcfcfc #000000 #000000;
#X obj 598 476 array get result;
#X obj 545 436 bng 23 250 50 0 empty empty empty 0 -12 0 16 #fcfcfc #000000 #000000;
#X obj 597 527 print result;
#X obj 795 651 nn.da_4x4;
#X obj 465 309 nn.da_4x4, f 35;
#X connect 2 0 1 0;
#X connect 3 0 5 0;
#X connect 4 0 3 0;
#X connect 5 0 6 0;
#X connect 5 1 7 0;
#X connect 5 2 8 0;
#X connect 5 3 9 0;
#X connect 6 0 10 0;
#X connect 9 0 11 0;
#X connect 18 0 17 0;
#X connect 20 0 19 0;
#X connect 23 0 21 0;
#X connect 24 0 22 0;
#X connect 25 0 36 1;
#X connect 26 0 36 2;
#X connect 27 0 36 3;
#X connect 28 0 36 4;
#X connect 29 0 36 5;
#X connect 30 0 36 6;
#X connect 31 0 36 0;
#X connect 32 0 34 0;
#X connect 33 0 32 0;
