#N canvas 4 70 802 1562 16;
#N canvas 130 112 965 1290 arrays 0;
#N canvas 1502 405 601 532 comment 0;
#X obj 101 101 cnv 23 398 298 empty empty empty 20 12 0 16 #e0e0e0 #404040 0;
#X text 151 122 Back propagation \; dZ^[l] = dA^[l] x g^[l]'(Z^[l]) \; dW^[l] = 1/m x dZ^[l]A^[l-1]T \; db^[l] = 1/m x sum(dZ^[l]) \; dA^[l-1] = W^[l]T . dZ^[l] \; layer shapes \; L (1 \, 2) \; L-1 (2 \, 2) \; L-2 (2 \, 2) \; input (n_x \, m) = (2 \, 4);
#X coords 0 -1 1 1 400 300 2 100 100;
#X restore 38 12 pd comment;
#X obj 32 380 array define \$0_X 4;
#X obj 32 420 array define \$0_Y 4;
#X text 204 380 // used for both the input values;
#X obj 32 490 array define \$0_aL 4;
#X obj 32 530 array define \$0_zL 4;
#X obj 32 570 array define \$0_wL 2;
#X obj 32 610 array define \$0_bL 1;
#X text 31 465 // output layer L;
#X obj 272 490 array define \$0_daL 4;
#X obj 272 530 array define \$0_dzL 4;
#X obj 272 570 array define \$0_dwL 2;
#X obj 272 610 array define \$0_dbL 1;
#X obj 485 359 array define \$0_aL-1_1 4;
#X obj 485 399 array define \$0_zL-1_1 4;
#X obj 485 439 array define \$0_wL-1_1 2;
#X obj 485 479 array define \$0_bL-1_1 1;
#X obj 725 359 array define \$0_daL-1_1 4;
#X obj 725 399 array define \$0_dzL-1_1 4;
#X obj 725 439 array define \$0_dwL-1_1 2;
#X obj 725 479 array define \$0_dbL-1_1 1;
#X obj 485 529 array define \$0_aL-1_2 4;
#X obj 485 569 array define \$0_zL-1_2 4;
#X obj 485 609 array define \$0_wL-1_2 2;
#X obj 485 649 array define \$0_bL-1_2 1;
#X obj 725 529 array define \$0_daL-1_2 4;
#X obj 725 569 array define \$0_dzL-1_2 4;
#X obj 725 609 array define \$0_dwL-1_2 2;
#X obj 725 649 array define \$0_dbL-1_2 1;
#X text 490 332 // layer L-1;
#X text 51 722 // layer L-2;
#X obj 46 749 array define \$0_aL-2_1 4;
#X obj 45 789 array define \$0_zL-2_1 4;
#X obj 45 829 array define \$0_wL-2_1 2;
#X obj 45 869 array define \$0_bL-2_1 1;
#X obj 285 749 array define \$0_daL-2_1 4;
#X obj 285 789 array define \$0_dzL-2_1 4;
#X obj 285 829 array define \$0_dwL-2_1 2;
#X obj 285 869 array define \$0_dbL-2_1 1;
#X obj 45 919 array define \$0_aL-2_2 4;
#X obj 285 919 array define \$0_daL-2_2 4;
#X obj 45 959 array define \$0_zL-2_2 4;
#X obj 285 959 array define \$0_dzL-2_2 4;
#X obj 45 999 array define \$0_wL-2_2 2;
#X obj 285 999 array define \$0_dwL-2_2 2;
#X obj 45 1039 array define \$0_bL-2_2 1;
#X obj 285 1039 array define \$0_dbL-2_2 1;
#X restore 106 112 pd arrays;
#N canvas 541 304 2007 958 initialize_arrays 0;
#X obj 39 20 loadbang;
#X obj 126 20 inlet bang;
#X obj 880 873 array set;
#N canvas 2604 927 427 257 array_args 0;
#X obj 81 24 inlet message;
#N canvas 1444 479 291 176 ns_symbol 0;
#X obj 71 46 r \$0_ns;
#X obj 29 45 d_0;
#X obj 29 15 inlet raw_message;
#X obj 29 83 outlet ns_message;
#X connect 0 0 1 1;
#X connect 1 0 3 0;
#X connect 2 0 1 0;
#X restore 81 80 pd ns_symbol;
#X obj 81 164 outlet values;
#X obj 222 163 outlet name;
#X obj 81 52 list split 1, f 34;
#X obj 81 136 list store;
#X obj 81 108 t b s, f 18;
#X connect 0 0 4 0;
#X connect 1 0 6 0;
#X connect 4 0 1 0;
#X connect 4 1 5 1;
#X connect 5 0 2 0;
#X connect 6 0 5 0;
#X connect 6 1 3 0;
#X restore 39 115 pd array_args;
#X msg 39 86 X 1 2 3 4;
#N canvas 2612 999 427 257 array_args 0;
#X obj 81 24 inlet message;
#N canvas 1444 479 291 176 ns_symbol 0;
#X obj 71 46 r \$0_ns;
#X obj 29 45 d_0;
#X obj 29 15 inlet raw_message;
#X obj 29 83 outlet ns_message;
#X connect 0 0 1 1;
#X connect 1 0 3 0;
#X connect 2 0 1 0;
#X restore 81 80 pd ns_symbol;
#X obj 81 164 outlet values;
#X obj 222 163 outlet name;
#X obj 81 52 list split 1, f 34;
#X obj 81 136 list store;
#X obj 81 108 t b s, f 18;
#X connect 0 0 4 0;
#X connect 1 0 6 0;
#X connect 4 0 1 0;
#X connect 4 1 5 1;
#X connect 5 0 2 0;
#X connect 6 0 5 0;
#X connect 6 1 3 0;
#X restore 206 116 pd array_args;
#N canvas 2608 963 427 257 array_args 0;
#X obj 81 24 inlet message;
#N canvas 1444 479 291 176 ns_symbol 0;
#X obj 71 46 r \$0_ns;
#X obj 29 45 d_0;
#X obj 29 15 inlet raw_message;
#X obj 29 83 outlet ns_message;
#X connect 0 0 1 1;
#X connect 1 0 3 0;
#X connect 2 0 1 0;
#X restore 81 80 pd ns_symbol;
#X obj 81 164 outlet values;
#X obj 222 163 outlet name;
#X obj 81 52 list split 1, f 34;
#X obj 81 136 list store;
#X obj 81 108 t b s, f 18;
#X connect 0 0 4 0;
#X connect 1 0 6 0;
#X connect 4 0 1 0;
#X connect 4 1 5 1;
#X connect 5 0 2 0;
#X connect 6 0 5 0;
#X connect 6 1 3 0;
#X restore 374 118 pd array_args;
#N canvas 2608 963 427 257 array_args 0;
#X obj 81 24 inlet message;
#N canvas 1444 479 291 176 ns_symbol 0;
#X obj 71 46 r \$0_ns;
#X obj 29 45 d_0;
#X obj 29 15 inlet raw_message;
#X obj 29 83 outlet ns_message;
#X connect 0 0 1 1;
#X connect 1 0 3 0;
#X connect 2 0 1 0;
#X restore 81 80 pd ns_symbol;
#X obj 81 164 outlet values;
#X obj 222 163 outlet name;
#X obj 81 52 list split 1, f 34;
#X obj 81 136 list store;
#X obj 81 108 t b s, f 18;
#X connect 0 0 4 0;
#X connect 1 0 6 0;
#X connect 4 0 1 0;
#X connect 4 1 5 1;
#X connect 5 0 2 0;
#X connect 6 0 5 0;
#X connect 6 1 3 0;
#X restore 542 120 pd array_args;
#N canvas 2608 963 427 257 array_args 0;
#X obj 81 24 inlet message;
#N canvas 1444 479 291 176 ns_symbol 0;
#X obj 71 46 r \$0_ns;
#X obj 29 45 d_0;
#X obj 29 15 inlet raw_message;
#X obj 29 83 outlet ns_message;
#X connect 0 0 1 1;
#X connect 1 0 3 0;
#X connect 2 0 1 0;
#X restore 81 80 pd ns_symbol;
#X obj 81 164 outlet values;
#X obj 222 163 outlet name;
#X obj 81 52 list split 1, f 34;
#X obj 81 136 list store;
#X obj 81 108 t b s, f 18;
#X connect 0 0 4 0;
#X connect 1 0 6 0;
#X connect 4 0 1 0;
#X connect 4 1 5 1;
#X connect 5 0 2 0;
#X connect 6 0 5 0;
#X connect 6 1 3 0;
#X restore 709 119 pd array_args;
#N canvas 2608 963 427 257 array_args 0;
#X obj 81 24 inlet message;
#N canvas 1444 479 291 176 ns_symbol 0;
#X obj 71 46 r \$0_ns;
#X obj 29 45 d_0;
#X obj 29 15 inlet raw_message;
#X obj 29 83 outlet ns_message;
#X connect 0 0 1 1;
#X connect 1 0 3 0;
#X connect 2 0 1 0;
#X restore 81 80 pd ns_symbol;
#X obj 81 164 outlet values;
#X obj 222 163 outlet name;
#X obj 81 52 list split 1, f 34;
#X obj 81 136 list store;
#X obj 81 108 t b s, f 18;
#X connect 0 0 4 0;
#X connect 1 0 6 0;
#X connect 4 0 1 0;
#X connect 4 1 5 1;
#X connect 5 0 2 0;
#X connect 6 0 5 0;
#X connect 6 1 3 0;
#X restore 877 119 pd array_args;
#X msg 542 91 bL 0.01;
#X msg 877 90 bL-1_1 0.02;
#N canvas 2608 963 427 257 array_args 0;
#X obj 81 24 inlet message;
#N canvas 1444 479 291 176 ns_symbol 0;
#X obj 71 46 r \$0_ns;
#X obj 29 45 d_0;
#X obj 29 15 inlet raw_message;
#X obj 29 83 outlet ns_message;
#X connect 0 0 1 1;
#X connect 1 0 3 0;
#X connect 2 0 1 0;
#X restore 81 80 pd ns_symbol;
#X obj 81 164 outlet values;
#X obj 222 163 outlet name;
#X obj 81 52 list split 1, f 34;
#X obj 81 136 list store;
#X obj 81 108 t b s, f 18;
#X connect 0 0 4 0;
#X connect 1 0 6 0;
#X connect 4 0 1 0;
#X connect 4 1 5 1;
#X connect 5 0 2 0;
#X connect 6 0 5 0;
#X connect 6 1 3 0;
#X restore 1045 119 pd array_args;
#N canvas 2608 963 427 257 array_args 0;
#X obj 81 24 inlet message;
#N canvas 1444 479 291 176 ns_symbol 0;
#X obj 71 46 r \$0_ns;
#X obj 29 45 d_0;
#X obj 29 15 inlet raw_message;
#X obj 29 83 outlet ns_message;
#X connect 0 0 1 1;
#X connect 1 0 3 0;
#X connect 2 0 1 0;
#X restore 81 80 pd ns_symbol;
#X obj 81 164 outlet values;
#X obj 222 163 outlet name;
#X obj 81 52 list split 1, f 34;
#X obj 81 136 list store;
#X obj 81 108 t b s, f 18;
#X connect 0 0 4 0;
#X connect 1 0 6 0;
#X connect 4 0 1 0;
#X connect 4 1 5 1;
#X connect 5 0 2 0;
#X connect 6 0 5 0;
#X connect 6 1 3 0;
#X restore 1213 119 pd array_args;
#N canvas 2608 963 427 257 array_args 0;
#X obj 81 24 inlet message;
#N canvas 1444 479 291 176 ns_symbol 0;
#X obj 71 46 r \$0_ns;
#X obj 29 45 d_0;
#X obj 29 15 inlet raw_message;
#X obj 29 83 outlet ns_message;
#X connect 0 0 1 1;
#X connect 1 0 3 0;
#X connect 2 0 1 0;
#X restore 81 80 pd ns_symbol;
#X obj 81 164 outlet values;
#X obj 222 163 outlet name;
#X obj 81 52 list split 1, f 34;
#X obj 81 136 list store;
#X obj 81 108 t b s, f 18;
#X connect 0 0 4 0;
#X connect 1 0 6 0;
#X connect 4 0 1 0;
#X connect 4 1 5 1;
#X connect 5 0 2 0;
#X connect 6 0 5 0;
#X connect 6 1 3 0;
#X restore 1380 119 pd array_args;
#N canvas 2608 963 427 257 array_args 0;
#X obj 81 24 inlet message;
#N canvas 1444 479 291 176 ns_symbol 0;
#X obj 71 46 r \$0_ns;
#X obj 29 45 d_0;
#X obj 29 15 inlet raw_message;
#X obj 29 83 outlet ns_message;
#X connect 0 0 1 1;
#X connect 1 0 3 0;
#X connect 2 0 1 0;
#X restore 81 80 pd ns_symbol;
#X obj 81 164 outlet values;
#X obj 222 163 outlet name;
#X obj 81 52 list split 1, f 34;
#X obj 81 136 list store;
#X obj 81 108 t b s, f 18;
#X connect 0 0 4 0;
#X connect 1 0 6 0;
#X connect 4 0 1 0;
#X connect 4 1 5 1;
#X connect 5 0 2 0;
#X connect 6 0 5 0;
#X connect 6 1 3 0;
#X restore 1548 119 pd array_args;
#N canvas 2608 963 427 257 array_args 0;
#X obj 81 24 inlet message;
#N canvas 1444 479 291 176 ns_symbol 0;
#X obj 71 46 r \$0_ns;
#X obj 29 45 d_0;
#X obj 29 15 inlet raw_message;
#X obj 29 83 outlet ns_message;
#X connect 0 0 1 1;
#X connect 1 0 3 0;
#X connect 2 0 1 0;
#X restore 81 80 pd ns_symbol;
#X obj 81 164 outlet values;
#X obj 222 163 outlet name;
#X obj 81 52 list split 1, f 34;
#X obj 81 136 list store;
#X obj 81 108 t b s, f 18;
#X connect 0 0 4 0;
#X connect 1 0 6 0;
#X connect 4 0 1 0;
#X connect 4 1 5 1;
#X connect 5 0 2 0;
#X connect 6 0 5 0;
#X connect 6 1 3 0;
#X restore 1716 119 pd array_args;
#N canvas 2608 963 427 257 array_args 0;
#X obj 81 24 inlet message;
#N canvas 1444 479 291 176 ns_symbol 0;
#X obj 71 46 r \$0_ns;
#X obj 29 45 d_0;
#X obj 29 15 inlet raw_message;
#X obj 29 83 outlet ns_message;
#X connect 0 0 1 1;
#X connect 1 0 3 0;
#X connect 2 0 1 0;
#X restore 81 80 pd ns_symbol;
#X obj 81 164 outlet values;
#X obj 222 163 outlet name;
#X obj 81 52 list split 1, f 34;
#X obj 81 136 list store;
#X obj 81 108 t b s, f 18;
#X connect 0 0 4 0;
#X connect 1 0 6 0;
#X connect 4 0 1 0;
#X connect 4 1 5 1;
#X connect 5 0 2 0;
#X connect 6 0 5 0;
#X connect 6 1 3 0;
#X restore 1884 119 pd array_args;
#X msg 1548 90 bL-2_1 0.03;
#X msg 206 87 Y 4 3 2 1;
#X msg 1213 90 bL-1_2 -0.02;
#X obj 39 58 t b b b b b b b b b b b b, f 231;
#X msg 374 89 wL 0.1 0.05;
#X msg 709 90 wL-1_1 0.2 0.1;
#X msg 1045 90 wL-1_2 0.1 0.05;
#X msg 1380 90 wL-2_1 0.3 0.15;
#X msg 1716 90 wL-2_2 0.125 0.075;
#X msg 1884 90 bL-1_2 -0.0125;
#X connect 0 0 21 0;
#X connect 1 0 21 0;
#X connect 3 0 2 0;
#X connect 3 1 2 2;
#X connect 4 0 3 0;
#X connect 5 0 2 0;
#X connect 5 1 2 2;
#X connect 6 0 2 0;
#X connect 6 1 2 2;
#X connect 7 0 2 0;
#X connect 7 1 2 2;
#X connect 8 0 2 0;
#X connect 8 1 2 2;
#X connect 9 0 2 0;
#X connect 9 1 2 2;
#X connect 10 0 7 0;
#X connect 11 0 9 0;
#X connect 12 0 2 0;
#X connect 12 1 2 2;
#X connect 13 0 2 0;
#X connect 13 1 2 2;
#X connect 14 0 2 0;
#X connect 14 1 2 2;
#X connect 15 0 2 0;
#X connect 15 1 2 2;
#X connect 16 0 2 0;
#X connect 16 1 2 2;
#X connect 17 0 2 0;
#X connect 17 1 2 2;
#X connect 18 0 15 0;
#X connect 19 0 5 0;
#X connect 20 0 13 0;
#X connect 21 0 4 0;
#X connect 21 1 19 0;
#X connect 21 2 22 0;
#X connect 21 3 10 0;
#X connect 21 4 23 0;
#X connect 21 5 11 0;
#X connect 21 6 24 0;
#X connect 21 7 20 0;
#X connect 21 8 25 0;
#X connect 21 9 18 0;
#X connect 21 10 26 0;
#X connect 21 11 27 0;
#X connect 22 0 6 0;
#X connect 23 0 8 0;
#X connect 24 0 12 0;
#X connect 25 0 14 0;
#X connect 26 0 16 0;
#X connect 27 0 17 0;
#X restore 18 140 pd initialize_arrays;
#X msg 99 11 bang;
#X obj 18 11 loadbang;
#X obj 18 44 f \$0;
#X obj 18 72 s \$0_ns;
#X msg 18 108 bang;
#X obj 477 118 nn.array_cycle X;
#X obj 602 85 r \$0_ns;
#X obj 903 119 nn.array_read X;
#X obj 1020 86 r \$0_ns;
#X msg 440 5 bang;
#X msg 539 85 bang;
#X obj 477 151 f;
#X obj 903 86 f;
#X obj 486 246 nn.neuron_2 wL-2_1 bL-2_1 aL-2_1 zL-2_1 tanh;
#X obj 835 213 r \$0_ns;
#X obj 1252 213 r \$0_ns;
#X obj 903 246 nn.neuron_2 wL-2_2 bL-2_2 aL-2_2 zL-2_2 tanh;
#X obj 835 403 r \$0_ns;
#X obj 1252 403 r \$0_ns;
#X obj 486 436 nn.neuron_2 wL-1_1 bL-1_1 aL-1_1 zL-1_1 tanh;
#X obj 903 436 nn.neuron_2 wL-1_2 bL-1_2 aL-1_2 zL-1_2 tanh;
#X obj 997 533 r \$0_ns;
#X obj 776 566 nn.neuron_2 wL bL aL zL tanh;
#X obj 602 151 t f f;
#X obj 1020 152 t f f;
#X obj 660 279 t f f;
#X obj 1077 279 t f f;
#X obj 903 279 f;
#X obj 486 213 f;
#X obj 486 294 f;
#X obj 903 375 f;
#X obj 903 474 f;
#X obj 486 390 f;
#N canvas 1502 405 601 532 comment 0;
#X obj 101 101 cnv 23 398 298 empty empty empty 20 12 0 16 #e0e0e0 #404040 0;
#X text 151 122 Back propagation \; dZ^[l] = dA^[l] x g^[l]'(Z^[l]) \; dW^[l] = 1/m x dZ^[l]A^[l-1]T \; db^[l] = 1/m x sum(dZ^[l]) \; dA^[l-1] = W^[l]T . dZ^[l] \; layer shapes \; L (1 \, 2) \; L-1 (2 \, 2) \; L-2 (2 \, 2) \; input (n_x \, m) = (2 \, 4);
#X coords 0 -1 1 1 400 300 2 100 100;
#X restore 12 175 pd comment;
#X text 629 781 // dz outer layer;
#X obj 440 33 t b b;
#X obj 440 781 nn.dz_mse aL Y dzL;
#X obj 581 751 r \$0_ns;
#N canvas 1444 479 291 176 ns_symbol 0;
#X obj 71 46 r \$0_ns;
#X obj 29 45 d_0;
#X obj 29 15 inlet raw_message;
#X obj 29 83 outlet ns_message;
#X connect 0 0 1 1;
#X connect 1 0 3 0;
#X connect 2 0 1 0;
#X restore 149 604 pd ns_symbol;
#X obj 80 637 array get;
#X obj 80 665 print;
#X obj 112 569 t b a;
#N canvas 2024 414 787 635 notes_dw 0;
#X obj 102 102 cnv 23 596 396 empty empty empty 20 12 0 16 #e0e0e0 #404040 0;
#X text 127 117 dW^[l] = 1/m x dZ^[l] . A^[l-1]T \; wL shape (1 \, 2) \; dZ^[l] shape (1 \, m) \; aL-1_1 shape (1 \, m) \; aL-1_2 shape (1 \, m) \; \; The first column of dwL: \; 1/m x dzL x aL-1_1 \; The second column of dwL: \; 1/m x dzL x aL-1_2 \; \; The nn.dw_1x1 funtion simplifies the process by calculating a single column of dw \; \; The nn.dw_1x2 function does both calculations in one pass;
#X coords 0 -1 1 1 600 400 1 100 100;
#X restore 1495 30 pd notes_dw;
#X obj 685 826 r \$0_ns;
#N canvas 1444 479 291 176 ns_symbol 0;
#X obj 71 46 r \$0_ns;
#X obj 29 45 d_0;
#X obj 29 15 inlet raw_message;
#X obj 29 83 outlet ns_message;
#X connect 0 0 1 1;
#X connect 1 0 3 0;
#X connect 2 0 1 0;
#X restore 119 785 pd ns_symbol;
#X msg 82 722 dzL;
#X obj 82 750 t b a;
#X obj 61 830 list store;
#X obj 54 891 print;
#X obj 440 859 nn.dw_1x2 dzL aL-1_1 aL-1_2 dwL;
#X obj 46 1080 array set;
#N canvas 2608 963 427 257 array_args 0;
#X obj 81 24 inlet message;
#N canvas 1444 479 291 176 ns_symbol 0;
#X obj 71 46 r \$0_ns;
#X obj 29 45 d_0;
#X obj 29 15 inlet raw_message;
#X obj 29 83 outlet ns_message;
#X connect 0 0 1 1;
#X connect 1 0 3 0;
#X connect 2 0 1 0;
#X restore 81 80 pd ns_symbol;
#X obj 81 164 outlet values;
#X obj 222 163 outlet name;
#X obj 81 52 list split 1, f 34;
#X obj 81 136 list store;
#X obj 81 108 t b s, f 18;
#X connect 0 0 4 0;
#X connect 1 0 6 0;
#X connect 4 0 1 0;
#X connect 4 1 5 1;
#X connect 5 0 2 0;
#X connect 6 0 5 0;
#X connect 6 1 3 0;
#X restore 38 1013 pd array_args;
#X msg 36 971 aL-1_2 4 5 6 7;
#X msg 440 742 bang;
#X msg 113 540 dwL;
#X text 713 858 // an improvement over 1x1;
#X obj 440 938 nn.db_1x1 dzL dbL;
#X obj 573 896 r \$0_ns;
#X obj 703 965 r \$0_ns;
#N canvas 491 264 814 518 da_test_arrays 0;
#N canvas 2604 927 427 257 array_args 0;
#X obj 81 24 inlet message;
#N canvas 1444 479 291 176 ns_symbol 0;
#X obj 71 46 r \$0_ns;
#X obj 29 45 d_0;
#X obj 29 15 inlet raw_message;
#X obj 29 83 outlet ns_message;
#X connect 0 0 1 1;
#X connect 1 0 3 0;
#X connect 2 0 1 0;
#X restore 81 80 pd ns_symbol;
#X obj 81 164 outlet values;
#X obj 222 163 outlet name;
#X obj 81 52 list split 1, f 34;
#X obj 81 136 list store;
#X obj 81 108 t b s, f 18;
#X connect 0 0 4 0;
#X connect 1 0 6 0;
#X connect 4 0 1 0;
#X connect 4 1 5 1;
#X connect 5 0 2 0;
#X connect 6 0 5 0;
#X connect 6 1 3 0;
#X restore 87 328 pd array_args;
#X obj 69 48 array define \$0_w_1 2;
#X obj 67 134 array define \$0_dz_1 4;
#X obj 326 46 array define \$0_da_prev_1 4;
#X obj 326 96 array define \$0_da_prev_2 4;
#X obj 84 373 array set;
#X msg 53 220 w_1 3 4;
#X msg 194 221 dz_1 2 3 4 5;
#X obj 68 89 array define \$0_w_2 2;
#X obj 67 171 array define \$0_dz_2 4;
#X msg 77 257 w_2 5 6;
#X msg 213 267 dz_2 3 4 5 6;
#X connect 0 0 5 0;
#X connect 0 1 5 2;
#X connect 6 0 0 0;
#X connect 7 0 0 0;
#X connect 10 0 0 0;
#X connect 11 0 0 0;
#X restore 227 107 pd da_test_arrays;
#X obj 403 1007 nn.da_1x2 w_1 dz_1 da_prev_1 da_prev_2;
#X msg 355 965 bang;
#X obj 138 1241 array get;
#N canvas 1444 479 291 176 ns_symbol 0;
#X obj 71 46 r \$0_ns;
#X obj 29 45 d_0;
#X obj 29 15 inlet raw_message;
#X obj 29 83 outlet ns_message;
#X connect 0 0 1 1;
#X connect 1 0 3 0;
#X connect 2 0 1 0;
#X restore 229 1199 pd ns_symbol;
#X obj 138 1269 print;
#X obj 109 1185 bng 23 250 50 0 empty empty empty 0 -12 0 16 #fcfcfc #000000 #000000;
#X msg 231 1160 da_prev_2;
#X text 428 1072 // nn.da_2x2 is a work in progress;
#N canvas 1484 765 543 343 array_slice 0;
#X obj 67 81 inlet index;
#X obj 218 84 inlet s_w_1;
#X obj 367 86 inlet s_w_2;
#X obj 186 210 array get;
#X obj 335 210 array get;
#X obj 218 112 t b s;
#X msg 218 140 1;
#X obj 367 114 t b s;
#X msg 367 142 1;
#X obj 67 109 t f f;
#X obj 335 258 outlet w_2;
#X obj 186 258 outlet w_1;
#X connect 0 0 9 0;
#X connect 1 0 5 0;
#X connect 2 0 7 0;
#X connect 3 0 11 0;
#X connect 4 0 10 0;
#X connect 5 0 6 0;
#X connect 5 1 3 2;
#X connect 6 0 3 1;
#X connect 7 0 8 0;
#X connect 7 1 4 2;
#X connect 8 0 4 1;
#X connect 9 0 3 0;
#X connect 9 1 4 0;
#X restore 1208 742 pd array_slice;
#X f 45;
#N canvas 1444 479 291 176 ns_symbol 0;
#X obj 71 46 r \$0_ns;
#X obj 29 45 d_0;
#X obj 29 15 inlet raw_message;
#X obj 29 83 outlet ns_message;
#X connect 0 0 1 1;
#X connect 1 0 3 0;
#X connect 2 0 1 0;
#X restore 1384 692 pd ns_symbol;
#N canvas 1444 479 291 176 ns_symbol 0;
#X obj 71 46 r \$0_ns;
#X obj 29 45 d_0;
#X obj 29 15 inlet raw_message;
#X obj 29 83 outlet ns_message;
#X connect 0 0 1 1;
#X connect 1 0 3 0;
#X connect 2 0 1 0;
#X restore 1562 693 pd ns_symbol;
#X obj 1565 784 print r;
#X obj 1208 770 print l;
#X msg 1388 651 w_1;
#X msg 1562 651 w_2;
#X msg 1151 689 1;
#X obj 920 1066 nn.da_2x2 w_1 w_2 dz_1 dz_2 da_prev_1 da_prev_2;
#X obj 1293 1029 r \$0_ns;
#X msg 919 1024 bang;
#N canvas 1444 479 291 176 ns_symbol 0;
#X obj 71 46 r \$0_ns;
#X obj 29 45 d_0;
#X obj 29 15 inlet raw_message;
#X obj 29 83 outlet ns_message;
#X connect 0 0 1 1;
#X connect 1 0 3 0;
#X connect 2 0 1 0;
#X restore 1595 950 pd ns_symbol;
#X obj 1499 1017 array get;
#X obj 1459 951 bng 23 250 50 0 empty empty empty 0 -12 0 16 #fcfcfc #000000 #000000;
#X obj 1494 1072 print;
#X msg 1599 909 da_prev_2;
#X connect 2 0 4 0;
#X connect 3 0 4 0;
#X connect 4 0 5 0;
#X connect 6 0 1 0;
#X connect 7 0 13 0;
#X connect 7 1 25 0;
#X connect 8 0 7 2;
#X connect 9 0 18 0;
#X connect 9 1 26 0;
#X connect 10 0 9 1;
#X connect 11 0 37 0;
#X connect 12 0 7 1;
#X connect 13 0 14 0;
#X connect 14 0 9 0;
#X connect 15 0 31 0;
#X connect 15 1 27 0;
#X connect 16 0 15 3;
#X connect 17 0 18 3;
#X connect 18 0 29 0;
#X connect 18 1 28 0;
#X connect 19 0 21 3;
#X connect 20 0 22 3;
#X connect 21 0 24 0;
#X connect 21 1 24 1;
#X connect 22 0 33 0;
#X connect 22 1 24 2;
#X connect 23 0 24 3;
#X connect 25 0 15 1;
#X connect 25 1 18 1;
#X connect 26 0 15 2;
#X connect 26 1 18 2;
#X connect 27 0 21 1;
#X connect 27 1 22 1;
#X connect 28 0 21 2;
#X connect 28 1 22 2;
#X connect 29 0 30 0;
#X connect 30 0 15 0;
#X connect 31 0 32 0;
#X connect 32 0 22 0;
#X connect 33 0 34 0;
#X connect 34 0 21 0;
#X connect 37 1 7 0;
#X connect 38 0 51 0;
#X connect 39 0 38 1;
#X connect 40 0 41 2;
#X connect 41 0 42 0;
#X connect 43 0 41 0;
#X connect 43 1 40 0;
#X connect 45 0 51 1;
#X connect 46 0 49 1;
#X connect 47 0 48 0;
#X connect 48 0 49 0;
#X connect 48 1 46 0;
#X connect 49 0 50 0;
#X connect 51 0 58 0;
#X connect 53 0 52 0;
#X connect 53 1 52 2;
#X connect 54 0 53 0;
#X connect 55 0 38 0;
#X connect 56 0 43 0;
#X connect 59 0 58 1;
#X connect 60 0 62 1;
#X connect 63 0 62 0;
#X connect 64 0 66 0;
#X connect 65 0 64 2;
#X connect 67 0 64 0;
#X connect 68 0 65 0;
#X connect 70 0 74 0;
#X connect 70 1 73 0;
#X connect 71 0 70 1;
#X connect 72 0 70 2;
#X connect 75 0 71 0;
#X connect 76 0 72 0;
#X connect 77 0 70 0;
#X connect 79 0 78 1;
#X connect 80 0 78 0;
#X connect 81 0 82 2;
#X connect 82 0 84 0;
#X connect 83 0 82 0;
#X connect 85 0 81 0;
