#N canvas 4 70 1712 1332 16;
#N canvas 2046 405 811 637 arrays 0;
#X obj 89 93 array define -k \$0_wL 3;
#A 0 6 2 3;
#X obj 91 139 array define -k \$0_bL 1;
#A 0 0.5;
#X obj 88 186 array define -k \$0_aL 4;
#A 0 1 1 1 1;
#X obj 91 228 array define -k \$0_zL 4;
#A 0 18.5 26.5 34.5 42.5;
#X obj 88 290 array define -k \$0_X_0 4;
#A 0 2 3 4 5;
#X obj 88 319 array define -k \$0_X_1 4;
#A 0 3 4 5 6;
#X obj 88 339 array define -k \$0_X_2 4;
#A 0 4 5 6 7;
#X restore 21 117 pd arrays;
#N canvas 1906 826 228 137 ns_symbol_safe 0;
#X obj 99 46 r \$0_ns;
#X obj 29 15 inlet raw_message;
#X obj 29 73 outlet ns_message;
#X obj 29 45 d0_safe;
#X connect 0 0 3 1;
#X connect 1 0 3 0;
#X connect 3 0 2 0;
#X restore 88 818 pd ns_symbol_safe;
#X obj 88 846 t b s;
#X obj 56 885 array get;
#X obj 56 913 print array;
#X msg 23 17 bang;
#X obj 23 45 f \$0;
#X obj 23 73 s \$0_ns;
#N canvas 429 455 986 658 initialize_arrays 0;
#N canvas 1758 400 427 257 array_args_safe 0;
#X obj 81 24 inlet message;
#N canvas 1448 515 223 141 ns_symbol 0;
#X obj 99 46 r \$0_ns;
#X obj 29 15 inlet raw_message;
#X obj 29 73 outlet ns_message;
#X obj 29 45 d0_safe;
#X connect 0 0 3 1;
#X connect 1 0 3 0;
#X connect 3 0 2 0;
#X restore 81 80 pd ns_symbol;
#X obj 81 164 outlet values;
#X obj 222 163 outlet name;
#X obj 81 52 list split 1, f 34;
#X obj 81 136 list store;
#X obj 81 108 t b s, f 18;
#X connect 0 0 4 0;
#X connect 1 0 6 0;
#X connect 4 0 1 0;
#X connect 4 1 5 1;
#X connect 5 0 2 0;
#X connect 6 0 5 0;
#X connect 6 1 3 0;
#X restore 106 477 pd array_args_safe;
#X obj 104 518 array set;
#X msg 230 329 bL 0.5;
#X msg 437 296 X_0 2 3 4 5;
#X msg 437 325 X_1 3 4 5 6;
#X msg 437 356 X_2 4 5 6 7;
#X msg 228 291 wL 6 2 3;
#X connect 0 0 1 0;
#X connect 0 1 1 2;
#X connect 2 0 0 0;
#X connect 3 0 0 0;
#X connect 4 0 0 0;
#X connect 5 0 0 0;
#X connect 6 0 0 0;
#X restore 22 154 pd initialize_arrays;
#X obj 575 388 r \$0_ns;
#X floatatom 345 472 5 0 0 0 - - - 0;
#X floatatom 579 474 14 0 0 0 - - - 0;
#X msg 88 786 aL;
#X msg 139 786 zL;
#X msg 37 724 wL;
#X obj 489 963 expr $f1 * $f2 + $f3 * $f4 + $f5 * $f6 + $f7;
#X obj 497 880 unpack f f f, f 30;
#X obj 583 828 unpack f f f, f 30;
#X msg 583 774 0.1 0.2 0.3;
#X msg 498 738 0.2 -0.03 0.01;
#X msg 845 911 0.5;
#X floatatom 489 1017 5 0 0 0 - - - 0;
#X obj 488 1093 expr 1 / (1 + exp(-1 * $f1));
#X floatatom 488 1147 5 0 0 0 - - - 0;
#X obj 785 1093 tanh;
#X floatatom 785 1147 5 0 0 0 - - - 0;
#X obj 890 1093 expr if($f1 > 0 \, $f1 \, 0);
#X floatatom 890 1147 5 0 0 0 - - - 0;
#X obj 88 289 nn.array_cycle X_0;
#X msg 88 192 4;
#X obj 88 250 until;
#X obj 229 256 r \$0_ns;
#X obj 371 295 nn.array_read X_1;
#X obj 572 296 nn.array_read X_2;
#X obj 505 256 r \$0_ns;
#X obj 705 256 r \$0_ns;
#X obj 88 327 f;
#X obj 371 256 f;
#X obj 371 343 f;
#X obj 572 256 f;
#X obj 88 220 t f b, f 10;
#X obj 114 424 nn.neuron_3 wL bL aL zL sigmoid, f 58;
#X obj 981 301 nn.array_cycle X_0;
#X msg 981 204 4;
#X obj 981 262 until;
#X obj 1122 268 r \$0_ns;
#X obj 1264 301 nn.array_read X_1;
#X obj 1398 262 r \$0_ns;
#X obj 981 339 f;
#X obj 1264 262 f;
#X obj 1264 349 f;
#X obj 981 232 t f b, f 10;
#X obj 1254 408 r \$0_ns;
#X obj 1057 441 nn.neuron_2 wL bL aL zL tanh;
#X obj 1035 623 nn.neuron_1;
#X connect 1 0 2 0;
#X connect 2 0 3 0;
#X connect 2 1 3 2;
#X connect 3 0 4 0;
#X connect 5 0 6 0;
#X connect 6 0 7 0;
#X connect 9 0 41 4;
#X connect 12 0 1 0;
#X connect 13 0 1 0;
#X connect 14 0 1 0;
#X connect 15 0 21 0;
#X connect 16 0 15 0;
#X connect 16 1 15 2;
#X connect 16 2 15 4;
#X connect 17 0 15 1;
#X connect 17 1 15 3;
#X connect 17 2 15 5;
#X connect 18 0 17 0;
#X connect 19 0 16 0;
#X connect 20 0 15 6;
#X connect 21 0 22 0;
#X connect 21 0 24 0;
#X connect 21 0 26 0;
#X connect 22 0 23 0;
#X connect 24 0 25 0;
#X connect 26 0 27 0;
#X connect 28 0 36 0;
#X connect 28 1 41 1;
#X connect 29 0 40 0;
#X connect 30 0 28 0;
#X connect 31 0 28 2;
#X connect 32 0 38 0;
#X connect 32 1 41 2;
#X connect 33 0 41 0;
#X connect 33 1 41 3;
#X connect 34 0 32 1;
#X connect 35 0 33 1;
#X connect 36 0 37 0;
#X connect 37 0 32 0;
#X connect 38 0 39 0;
#X connect 39 0 33 0;
#X connect 40 0 30 0;
#X connect 40 1 28 1;
#X connect 41 1 10 0;
#X connect 41 2 11 0;
#X connect 42 0 48 0;
#X connect 42 1 53 1;
#X connect 43 0 51 0;
#X connect 44 0 42 0;
#X connect 45 0 42 2;
#X connect 46 0 50 0;
#X connect 46 1 53 2;
#X connect 47 0 46 1;
#X connect 48 0 49 0;
#X connect 49 0 46 0;
#X connect 50 0 53 0;
#X connect 51 0 44 0;
#X connect 51 1 42 1;
#X connect 52 0 53 3;
