#N canvas 853 140 917 1188 16;
#X msg 81 77 1 2 3 4 5 6 7 8 9;
#X obj 81 141 list length;
#X obj 81 169 until;
#X obj 81 199 list store;
#X obj 81 106 t l l;
#X msg 471 77 1 2 3 4 5 6 7 8 9;
#X obj 471 141 list length;
#X obj 471 169 until;
#X obj 559 250 list store;
#X obj 471 106 t l l;
#X obj 559 278 list split 1;
#X obj 471 197 t b b;
#X obj 81 227 t l l;
#X obj 118 256 list length;
#X obj 118 285 - 1;
#X obj 41 318 list split;
#X msg 181 437 1 2 3 4 5 6 7 8 9;
#X obj 181 501 list length;
#X obj 181 564 until;
#X obj 266 645 list store;
#X obj 266 673 list split 1;
#X obj 235 754 list store;
#X obj 181 592 t b b;
#X obj 368 831 f;
#X obj 413 856 + 1;
#X obj 181 466 t l l b, f 41;
#X msg 506 503 0;
#X obj 292 831 * 2;
#X obj 266 791 t b f b;
#X obj 292 1001 list prepend;
#X obj 292 1029 t l l;
#X obj 368 1084 list store;
#X obj 181 529 t f f, f 51;
#X obj 368 881 sel;
#X obj 368 937 t b b;
#X obj 586 559 - 1;
#X obj 368 1112 print times_two;
#X obj 80 362 print last_to_first;
#X obj 528 359 list store;
#X obj 559 316 print first_to_last;
#X connect 0 0 4 0;
#X connect 1 0 2 0;
#X connect 2 0 3 0;
#X connect 3 0 12 0;
#X connect 4 0 1 0;
#X connect 4 1 3 1;
#X connect 5 0 9 0;
#X connect 6 0 7 0;
#X connect 7 0 11 0;
#X connect 8 0 10 0;
#X connect 9 0 6 0;
#X connect 9 1 8 1;
#X connect 10 0 39 0;
#X connect 10 1 38 1;
#X connect 11 0 38 0;
#X connect 11 1 8 0;
#X connect 12 0 15 0;
#X connect 12 1 13 0;
#X connect 13 0 14 0;
#X connect 14 0 15 1;
#X connect 15 0 3 1;
#X connect 15 1 37 0;
#X connect 16 0 25 0;
#X connect 17 0 32 0;
#X connect 18 0 22 0;
#X connect 19 0 20 0;
#X connect 20 0 28 0;
#X connect 20 1 21 1;
#X connect 21 0 19 1;
#X connect 22 0 21 0;
#X connect 22 1 19 0;
#X connect 23 0 24 0;
#X connect 23 0 33 0;
#X connect 24 0 23 1;
#X connect 25 0 17 0;
#X connect 25 1 19 1;
#X connect 25 2 26 0;
#X connect 26 0 23 1;
#X connect 27 0 29 0;
#X connect 28 1 27 0;
#X connect 28 2 23 0;
#X connect 29 0 30 0;
#X connect 30 0 29 1;
#X connect 30 1 31 1;
#X connect 31 0 36 0;
#X connect 32 0 18 0;
#X connect 32 1 35 0;
#X connect 33 0 34 0;
#X connect 34 0 31 0;
#X connect 34 1 29 1;
#X connect 35 0 33 1;
#X connect 38 0 8 1;
