#N canvas 4 70 1313 1332 16;
#X obj 1 -1 cnv 23 425 1320 empty empty empty 4 12 0 16 #f9e2af #4c4f69 0;
#N canvas 495 350 539 897 arrays 1;
#X obj 35 82 array define \$0_a_l_1 16;
#X obj 35 112 array define \$0_z_l_1 16;
#X obj 35 172 array define \$0_b_l_1 1;
#X obj 35 142 array define \$0_w_l_1 2;
#X obj 315 82 array define \$0_da_l_1 16;
#X obj 315 112 array define \$0_dz_l_1 16;
#X obj 315 142 array define \$0_dw_l_1 2;
#X obj 315 172 array define \$0_db_l_1 1;
#X obj 35 232 array define \$0_a_l-1_1 16;
#X obj 35 262 array define \$0_z_l-1_1 16;
#X obj 315 232 array define \$0_da_l-1_1 16;
#X obj 315 262 array define \$0_dz_l-1_1 16;
#X obj 35 292 array define \$0_w_l-1_1 2;
#X obj 35 322 array define \$0_b_l-1_1 1;
#X obj 315 292 array define \$0_dw_l-1_1 2;
#X obj 315 322 array define \$0_db_l-1_1 1;
#X obj 35 362 array define \$0_a_l-1_2 16;
#X obj 35 392 array define \$0_z_l-1_2 16;
#X obj 35 422 array define \$0_w_l-1_2 2;
#X obj 35 452 array define \$0_b_l-1_2 1;
#X obj 315 362 array define \$0_da_l-1_2 16;
#X obj 315 392 array define \$0_dz_l-1_2 16;
#X obj 315 422 array define \$0_dw_l-1_2 2;
#X obj 315 452 array define \$0_db_l-1_2 1;
#X obj 35 531 array define \$0_a_l-2_1 16;
#X obj 35 562 array define \$0_z_l-2_1 16;
#X obj 35 622 array define \$0_b_l-2_1 1;
#X obj 315 532 array define \$0_da_l-2_1 16;
#X obj 315 562 array define \$0_dz_l-2_1 16;
#X obj 315 622 array define \$0_db_l-2_1 1;
#X obj 35 661 array define \$0_a_l-2_2 16;
#X obj 35 692 array define \$0_z_l-2_2 16;
#X obj 35 722 array define \$0_w_l-2_2 1;
#X obj 35 752 array define \$0_b_l-2_2 1;
#X obj 315 662 array define \$0_da_l-2_2 16;
#X obj 315 692 array define \$0_dz_l-2_2 16;
#X obj 316 722 array define \$0_dw_l-2_2 1;
#X obj 315 752 array define \$0_db_l-2_2 1;
#X obj 35 592 array define \$0_w_l-2_1 1;
#X obj 315 592 array define \$0_dw_l-2_1 1;
#X obj 555 532 array define \$0_da_l-2_1_tmp_1 16;
#X obj 555 568 array define \$0_da_l-2_1_tmp_2 16;
#X obj 553 665 array define \$0_da_l-2_2_tmp_1 16;
#X obj 553 701 array define \$0_da_l-2_2_tmp_2 16;
#X coords 0 897 1 896 85 30 0;
#X restore 242 262 pd arrays;
#X obj 8 36 bng 40 250 50 0 empty empty init 0 -12 0 16 #89b4fa #f9e2af #4c4f69;
#X obj 79 37 tgl 40 0 empty empty run 0 -12 0 16 #a6e3a1 #313244 #5c5f77 0 1;
#N canvas 4 698 450 300 bin_bang 0;
#X obj 21 17 inlet start_stop;
#X obj 21 115 metro;
#X obj 21 143 s \$0_bin_bang;
#X obj 163 17 inlet tempo;
#X msg 163 50 tempo \$1 samp;
#X connect 0 0 1 0;
#X connect 1 0 2 0;
#X connect 3 0 4 0;
#X connect 4 0 1 0;
#X restore 79 86 pd bin_bang;
#X obj 137 21 r \$0_init;
#N canvas 162 751 337 212 init 0;
#X obj 26 21 inlet init;
#X obj 26 49 t b b;
#X obj 26 127 s \$0_init;
#X obj 112 127 f \$0;
#X obj 112 155 s \$0_ns;
#X obj 230 21 loadbang;
#X obj 230 49 s \$0_lb;
#X connect 0 0 1 0;
#X connect 1 0 2 0;
#X connect 1 1 3 0;
#X connect 3 0 4 0;
#X connect 5 0 6 0;
#X restore 8 86 pd init;
#X obj 220 49 s \$0_m;
#X obj 221 82 r \$0_m;
#X obj 221 138 sel 0;
#X obj 8 119 r \$0_init;
#X obj 101 156 s \$0_alpha;
#X obj 221 167 s \$0_m_0;
#X obj 223 109 mod 16;
#N canvas 776 890 450 300 iterator_16 0;
#X obj 25 25 r \$0_bin_bang;
#X obj 25 73 f;
#X obj 71 71 + 1;
#X obj 25 172 outlet;
#X obj 25 125 mod 16;
#X connect 0 0 1 0;
#X connect 1 0 2 0;
#X connect 1 0 4 0;
#X connect 2 0 1 1;
#X connect 4 0 3 0;
#X restore 220 21 pd iterator_16;
#X msg 328 49 2;
#X msg 328 79 4;
#X msg 330 134 8;
#X msg 329 173 16;
#X msg 328 106 6;
#X msg 254 220 5;
#X msg 315 219 32;
#X obj 187 781 cnv 23 218 493 empty empty empty 20 12 0 16 #b4befe #404040 0;
#N canvas 0 50 450 250 (subpatch) 0;
#X array \$0_X 16 float 3;
#A 0 0.17144 -0.0285507 -0.0571209 0.0285896 0.214296 0.457142 0.699989 0.814269 0.914265 -0.371393 -0.485674 -0.428533 -0.342823 -0.314252 -0.67138 -0.971367;
#X coords 0 1 16 -1 200 140 1 0 0;
#X restore 195 804 graph;
#N canvas 0 50 450 250 (subpatch) 0;
#X array \$0_Y 16 float 3;
#A 0 -0.571448 -0.271441 -0.142867 0.0857162 0.300007 0.385723 0.557156 0.657158 -0.471439 -0.428581 -0.657158 -0.500011 -0.314293 -0.0857162 -0.728588 0.957143;
#X coords 0 1 16 -1 200 140 1 0 0;
#X restore 195 966 graph;
#N canvas 0 50 450 250 (subpatch) 0;
#X array \$0_Y_hat 16 float 3;
#A 0 -0.125056 -0.129219 -0.130057 -0.1278 -0.12413 -0.1229 -0.122814 -0.122922 -0.123057 -0.143015 -0.14114 -0.144065 -0.141996 -0.140639 -0.0478351 0.457841;
#X coords 0 1 16 -1 200 140 1 0 0;
#X restore 195 1126 graph;
#X obj 432 1 cnv 23 900 100 empty empty input 4 12 0 16 #babbf1 #4c4f69 0;
#X obj 432 102 cnv 23 900 130 empty empty layer\ L\ minus\ 2 4 12 0 16 #8caaee #4c4f69 0;
#X obj 432 233 cnv 23 900 150 empty empty layer\ L\ minus\ 1 4 12 0 16 #85c1dc #4c4f69 0;
#X obj 1062 191 t f f, f 6;
#X obj 627 191 t f f, f 6;
#N canvas 857 363 450 300 ns 0;
#X obj 123 73 f \$0;
#X obj 123 39 loadbang;
#X obj 52 40 r \$0_ns;
#X obj 123 101 outlet;
#X connect 0 0 3 0;
#X connect 1 0 0 0;
#X connect 2 0 0 0;
#X restore 818 281 pd ns;
#X obj 437 312 nn.neuron_2 w_l-1_1 b_l-1_1 a_l-1_1 z_l-1_1 tanh;
#N canvas 857 363 450 300 ns 0;
#X obj 123 73 f \$0;
#X obj 123 39 loadbang;
#X obj 52 40 r \$0_ns;
#X obj 123 101 outlet;
#X connect 0 0 3 0;
#X connect 1 0 0 0;
#X connect 2 0 0 0;
#X restore 1258 278 pd ns;
#X obj 877 312 nn.neuron_2 w_l-1_2 b_l-1_2 a_l-1_2 z_l-1_2 tanh;
#X obj 437 158 nn.neuron_1 w_l-2_1 b_l-2_1 a_l-2_1 z_l-2_1 tanh;
#N canvas 857 363 450 300 ns 0;
#X obj 123 73 f \$0;
#X obj 123 39 loadbang;
#X obj 52 40 r \$0_ns;
#X obj 123 101 outlet;
#X connect 0 0 3 0;
#X connect 1 0 0 0;
#X connect 2 0 0 0;
#X restore 818 118 pd ns;
#N canvas 857 363 450 300 ns 0;
#X obj 123 73 f \$0;
#X obj 123 39 loadbang;
#X obj 52 40 r \$0_ns;
#X obj 123 101 outlet;
#X connect 0 0 3 0;
#X connect 1 0 0 0;
#X connect 2 0 0 0;
#X restore 1253 120 pd ns;
#X obj 872 158 nn.neuron_1 w_l-2_2 b_l-2_2 a_l-2_2 z_l-2_2 tanh;
#N canvas 857 363 450 300 ns 0;
#X obj 123 73 f \$0;
#X obj 123 39 loadbang;
#X obj 52 40 r \$0_ns;
#X obj 123 101 outlet;
#X connect 0 0 3 0;
#X connect 1 0 0 0;
#X connect 2 0 0 0;
#X restore 561 28 pd ns;
#X obj 872 62 nn.input_node X;
#N canvas 857 363 450 300 ns 0;
#X obj 123 73 f \$0;
#X obj 123 39 loadbang;
#X obj 52 40 r \$0_ns;
#X obj 123 101 outlet;
#X connect 0 0 3 0;
#X connect 1 0 0 0;
#X connect 2 0 0 0;
#X restore 989 28 pd ns;
#X obj 877 240 t f;
#X obj 432 384 cnv 23 900 110 empty empty layer\ L 4 12 0 16 #99d1db #4c4f69 0;
#N canvas 857 363 450 300 ns 0;
#X obj 123 73 f \$0;
#X obj 123 39 loadbang;
#X obj 52 40 r \$0_ns;
#X obj 123 101 outlet;
#X connect 0 0 3 0;
#X connect 1 0 0 0;
#X connect 2 0 0 0;
#X restore 1006 401 pd ns;
#X obj 15 361 nn.rand_array;
#N canvas 1442 595 517 458 ns_message 0;
#X obj 282 16 bng 23 250 50 0 empty \$0_init empty 0 -12 0 16 #fcfcfc #000000 #000000;
#X obj 327 294 f;
#X obj 282 44 t b b, f 6;
#X obj 101 151 cnv 23 178 26 empty empty empty 20 12 0 16 #a6e3a1 #000000 0;
#X symbolatom 101 153 22 0 0 0 - - - 0;
#X msg 55 314 symbol w_l_1;
#X msg 101 258 set symbol \$1;
#X obj 101 187 t s s b, f 13;
#X obj 306 328 d_0;
#X obj 306 361 outlet;
#X obj 55 16 loadbang;
#X obj 55 44 f \$0;
#X obj 55 112 t b f, f 37;
#X obj 145 15 inlet;
#X connect 0 0 2 0;
#X connect 1 0 8 1;
#X connect 2 0 4 0;
#X connect 2 1 1 0;
#X connect 4 0 7 0;
#X connect 5 0 4 0;
#X connect 6 0 5 0;
#X connect 7 0 6 0;
#X connect 7 1 8 0;
#X connect 7 2 1 0;
#X connect 8 0 9 0;
#X connect 10 0 11 0;
#X connect 11 0 12 0;
#X connect 12 0 5 0;
#X connect 12 1 1 1;
#X connect 13 0 4 0;
#X coords 0 -1 1 1 180 28 2 100 150;
#X restore 15 320 pd ns_message;
#X obj 14 432 nn.rand_array;
#N canvas 1442 595 517 458 ns_message 0;
#X obj 282 16 bng 23 250 50 0 empty \$0_init empty 0 -12 0 16 #fcfcfc #000000 #000000;
#X obj 327 294 f;
#X obj 282 44 t b b, f 6;
#X obj 101 151 cnv 23 178 26 empty empty empty 20 12 0 16 #a6e3a1 #000000 0;
#X symbolatom 101 153 22 0 0 0 - - - 0;
#X msg 55 314 symbol b_l_1;
#X msg 101 258 set symbol \$1;
#X obj 101 187 t s s b, f 13;
#X obj 306 328 d_0;
#X obj 306 361 outlet;
#X obj 55 16 loadbang;
#X obj 55 44 f \$0;
#X obj 55 112 t b f, f 37;
#X obj 145 15 inlet;
#X connect 0 0 2 0;
#X connect 1 0 8 1;
#X connect 2 0 4 0;
#X connect 2 1 1 0;
#X connect 4 0 7 0;
#X connect 5 0 4 0;
#X connect 6 0 5 0;
#X connect 7 0 6 0;
#X connect 7 1 8 0;
#X connect 7 2 1 0;
#X connect 8 0 9 0;
#X connect 10 0 11 0;
#X connect 11 0 12 0;
#X connect 12 0 5 0;
#X connect 12 1 1 1;
#X connect 13 0 4 0;
#X coords 0 -1 1 1 180 28 2 100 150;
#X restore 14 391 pd ns_message;
#X obj 14 521 nn.rand_array;
#N canvas 1442 595 517 458 ns_message 0;
#X obj 282 16 bng 23 250 50 0 empty \$0_init empty 0 -12 0 16 #fcfcfc #000000 #000000;
#X obj 327 294 f;
#X obj 282 44 t b b, f 6;
#X obj 101 151 cnv 23 178 26 empty empty empty 20 12 0 16 #a6e3a1 #000000 0;
#X symbolatom 101 153 22 0 0 0 - - - 0;
#X msg 55 314 symbol w_l-1_1;
#X msg 101 258 set symbol \$1;
#X obj 101 187 t s s b, f 13;
#X obj 306 328 d_0;
#X obj 306 361 outlet;
#X obj 55 16 loadbang;
#X obj 55 44 f \$0;
#X obj 55 112 t b f, f 37;
#X obj 145 15 inlet;
#X connect 0 0 2 0;
#X connect 1 0 8 1;
#X connect 2 0 4 0;
#X connect 2 1 1 0;
#X connect 4 0 7 0;
#X connect 5 0 4 0;
#X connect 6 0 5 0;
#X connect 7 0 6 0;
#X connect 7 1 8 0;
#X connect 7 2 1 0;
#X connect 8 0 9 0;
#X connect 10 0 11 0;
#X connect 11 0 12 0;
#X connect 12 0 5 0;
#X connect 12 1 1 1;
#X connect 13 0 4 0;
#X coords 0 -1 1 1 180 28 2 100 150;
#X restore 14 480 pd ns_message;
#X obj 13 592 nn.rand_array;
#N canvas 1442 595 517 458 ns_message 0;
#X obj 282 16 bng 23 250 50 0 empty \$0_init empty 0 -12 0 16 #fcfcfc #000000 #000000;
#X obj 327 294 f;
#X obj 282 44 t b b, f 6;
#X obj 101 151 cnv 23 178 26 empty empty empty 20 12 0 16 #a6e3a1 #000000 0;
#X symbolatom 101 153 22 0 0 0 - - - 0;
#X msg 55 314 symbol w_l-1_2;
#X msg 101 258 set symbol \$1;
#X obj 101 187 t s s b, f 13;
#X obj 306 328 d_0;
#X obj 306 361 outlet;
#X obj 55 16 loadbang;
#X obj 55 44 f \$0;
#X obj 55 112 t b f, f 37;
#X obj 145 15 inlet;
#X connect 0 0 2 0;
#X connect 1 0 8 1;
#X connect 2 0 4 0;
#X connect 2 1 1 0;
#X connect 4 0 7 0;
#X connect 5 0 4 0;
#X connect 6 0 5 0;
#X connect 7 0 6 0;
#X connect 7 1 8 0;
#X connect 7 2 1 0;
#X connect 8 0 9 0;
#X connect 10 0 11 0;
#X connect 11 0 12 0;
#X connect 12 0 5 0;
#X connect 12 1 1 1;
#X connect 13 0 4 0;
#X coords 0 -1 1 1 180 28 2 100 150;
#X restore 13 551 pd ns_message;
#X obj 214 521 nn.rand_array;
#N canvas 1442 595 517 458 ns_message 0;
#X obj 282 16 bng 23 250 50 0 empty \$0_init empty 0 -12 0 16 #fcfcfc #000000 #000000;
#X obj 327 294 f;
#X obj 282 44 t b b, f 6;
#X obj 101 151 cnv 23 178 26 empty empty empty 20 12 0 16 #a6e3a1 #000000 0;
#X symbolatom 101 153 22 0 0 0 - - - 0;
#X msg 55 314 symbol b_l-1_1;
#X msg 101 258 set symbol \$1;
#X obj 101 187 t s s b, f 13;
#X obj 306 328 d_0;
#X obj 306 361 outlet;
#X obj 55 16 loadbang;
#X obj 55 44 f \$0;
#X obj 55 112 t b f, f 37;
#X obj 145 15 inlet;
#X connect 0 0 2 0;
#X connect 1 0 8 1;
#X connect 2 0 4 0;
#X connect 2 1 1 0;
#X connect 4 0 7 0;
#X connect 5 0 4 0;
#X connect 6 0 5 0;
#X connect 7 0 6 0;
#X connect 7 1 8 0;
#X connect 7 2 1 0;
#X connect 8 0 9 0;
#X connect 10 0 11 0;
#X connect 11 0 12 0;
#X connect 12 0 5 0;
#X connect 12 1 1 1;
#X connect 13 0 4 0;
#X coords 0 -1 1 1 180 28 2 100 150;
#X restore 214 480 pd ns_message;
#X obj 213 592 nn.rand_array;
#N canvas 1442 595 517 458 ns_message 0;
#X obj 282 16 bng 23 250 50 0 empty \$0_init empty 0 -12 0 16 #fcfcfc #000000 #000000;
#X obj 327 294 f;
#X obj 282 44 t b b, f 6;
#X obj 101 151 cnv 23 178 26 empty empty empty 20 12 0 16 #a6e3a1 #000000 0;
#X symbolatom 101 153 22 0 0 0 - - - 0;
#X msg 55 314 symbol b_l-1_2;
#X msg 101 258 set symbol \$1;
#X obj 101 187 t s s b, f 13;
#X obj 306 328 d_0;
#X obj 306 361 outlet;
#X obj 55 16 loadbang;
#X obj 55 44 f \$0;
#X obj 55 112 t b f, f 37;
#X obj 145 15 inlet;
#X connect 0 0 2 0;
#X connect 1 0 8 1;
#X connect 2 0 4 0;
#X connect 2 1 1 0;
#X connect 4 0 7 0;
#X connect 5 0 4 0;
#X connect 6 0 5 0;
#X connect 7 0 6 0;
#X connect 7 1 8 0;
#X connect 7 2 1 0;
#X connect 8 0 9 0;
#X connect 10 0 11 0;
#X connect 11 0 12 0;
#X connect 12 0 5 0;
#X connect 12 1 1 1;
#X connect 13 0 4 0;
#X coords 0 -1 1 1 180 28 2 100 150;
#X restore 213 551 pd ns_message;
#X obj 14 681 nn.rand_array;
#N canvas 1442 595 517 458 ns_message 0;
#X obj 282 16 bng 23 250 50 0 empty \$0_init empty 0 -12 0 16 #fcfcfc #000000 #000000;
#X obj 327 294 f;
#X obj 282 44 t b b, f 6;
#X obj 101 151 cnv 23 178 26 empty empty empty 20 12 0 16 #a6e3a1 #000000 0;
#X symbolatom 101 153 22 0 0 0 - - - 0;
#X msg 55 314 symbol w_l-2_1;
#X msg 101 258 set symbol \$1;
#X obj 101 187 t s s b, f 13;
#X obj 306 328 d_0;
#X obj 306 361 outlet;
#X obj 55 16 loadbang;
#X obj 55 44 f \$0;
#X obj 55 112 t b f, f 37;
#X obj 145 15 inlet;
#X connect 0 0 2 0;
#X connect 1 0 8 1;
#X connect 2 0 4 0;
#X connect 2 1 1 0;
#X connect 4 0 7 0;
#X connect 5 0 4 0;
#X connect 6 0 5 0;
#X connect 7 0 6 0;
#X connect 7 1 8 0;
#X connect 7 2 1 0;
#X connect 8 0 9 0;
#X connect 10 0 11 0;
#X connect 11 0 12 0;
#X connect 12 0 5 0;
#X connect 12 1 1 1;
#X connect 13 0 4 0;
#X coords 0 -1 1 1 180 28 2 100 150;
#X restore 14 640 pd ns_message;
#X obj 13 752 nn.rand_array;
#N canvas 1442 595 517 458 ns_message 0;
#X obj 282 16 bng 23 250 50 0 empty \$0_init empty 0 -12 0 16 #fcfcfc #000000 #000000;
#X obj 327 294 f;
#X obj 282 44 t b b, f 6;
#X obj 101 151 cnv 23 178 26 empty empty empty 20 12 0 16 #a6e3a1 #000000 0;
#X symbolatom 101 153 22 0 0 0 - - - 0;
#X msg 55 314 symbol w_l-2_2;
#X msg 101 258 set symbol \$1;
#X obj 101 187 t s s b, f 13;
#X obj 306 328 d_0;
#X obj 306 361 outlet;
#X obj 55 16 loadbang;
#X obj 55 44 f \$0;
#X obj 55 112 t b f, f 37;
#X obj 145 15 inlet;
#X connect 0 0 2 0;
#X connect 1 0 8 1;
#X connect 2 0 4 0;
#X connect 2 1 1 0;
#X connect 4 0 7 0;
#X connect 5 0 4 0;
#X connect 6 0 5 0;
#X connect 7 0 6 0;
#X connect 7 1 8 0;
#X connect 7 2 1 0;
#X connect 8 0 9 0;
#X connect 10 0 11 0;
#X connect 11 0 12 0;
#X connect 12 0 5 0;
#X connect 12 1 1 1;
#X connect 13 0 4 0;
#X coords 0 -1 1 1 180 28 2 100 150;
#X restore 13 711 pd ns_message;
#X obj 214 681 nn.rand_array;
#N canvas 1442 595 517 458 ns_message 0;
#X obj 282 16 bng 23 250 50 0 empty \$0_init empty 0 -12 0 16 #fcfcfc #000000 #000000;
#X obj 327 294 f;
#X obj 282 44 t b b, f 6;
#X obj 101 151 cnv 23 178 26 empty empty empty 20 12 0 16 #a6e3a1 #000000 0;
#X symbolatom 101 153 22 0 0 0 - - - 0;
#X msg 55 314 symbol b_l-2_1;
#X msg 101 258 set symbol \$1;
#X obj 101 187 t s s b, f 13;
#X obj 306 328 d_0;
#X obj 306 361 outlet;
#X obj 55 16 loadbang;
#X obj 55 44 f \$0;
#X obj 55 112 t b f, f 37;
#X obj 145 15 inlet;
#X connect 0 0 2 0;
#X connect 1 0 8 1;
#X connect 2 0 4 0;
#X connect 2 1 1 0;
#X connect 4 0 7 0;
#X connect 5 0 4 0;
#X connect 6 0 5 0;
#X connect 7 0 6 0;
#X connect 7 1 8 0;
#X connect 7 2 1 0;
#X connect 8 0 9 0;
#X connect 10 0 11 0;
#X connect 11 0 12 0;
#X connect 12 0 5 0;
#X connect 12 1 1 1;
#X connect 13 0 4 0;
#X coords 0 -1 1 1 180 28 2 100 150;
#X restore 214 640 pd ns_message;
#X obj 213 752 nn.rand_array;
#N canvas 1442 595 517 458 ns_message 0;
#X obj 282 16 bng 23 250 50 0 empty \$0_init empty 0 -12 0 16 #fcfcfc #000000 #000000;
#X obj 327 294 f;
#X obj 282 44 t b b, f 6;
#X obj 101 151 cnv 23 178 26 empty empty empty 20 12 0 16 #a6e3a1 #000000 0;
#X symbolatom 101 153 22 0 0 0 - - - 0;
#X msg 55 314 symbol b_l-2_2;
#X msg 101 258 set symbol \$1;
#X obj 101 187 t s s b, f 13;
#X obj 306 328 d_0;
#X obj 306 361 outlet;
#X obj 55 16 loadbang;
#X obj 55 44 f \$0;
#X obj 55 112 t b f, f 37;
#X obj 145 15 inlet;
#X connect 0 0 2 0;
#X connect 1 0 8 1;
#X connect 2 0 4 0;
#X connect 2 1 1 0;
#X connect 4 0 7 0;
#X connect 5 0 4 0;
#X connect 6 0 5 0;
#X connect 7 0 6 0;
#X connect 7 1 8 0;
#X connect 7 2 1 0;
#X connect 8 0 9 0;
#X connect 10 0 11 0;
#X connect 11 0 12 0;
#X connect 12 0 5 0;
#X connect 12 1 1 1;
#X connect 13 0 4 0;
#X coords 0 -1 1 1 180 28 2 100 150;
#X restore 213 711 pd ns_message;
#X obj 689 435 nn.neuron_2 w_l_1 b_l_1 Y_hat z_l_1 tanh;
#X obj 432 495 cnv 23 900 530 empty empty backprop\ layer\ L 4 12 0 16 #e5c890 #4c4f69 0;
#X obj 459 535 r \$0_m_0;
#X obj 459 643 nn.dz_mse Y_hat Y dz_l_1, f 32;
#N canvas 857 363 450 300 ns 0;
#X obj 123 73 f \$0;
#X obj 123 39 loadbang;
#X obj 52 40 r \$0_ns;
#X obj 123 101 outlet;
#X connect 0 0 3 0;
#X connect 1 0 0 0;
#X connect 2 0 0 0;
#X restore 712 609 pd ns;
#X obj 459 703 nn.dw_1x1 dz_l_1 a_l-1_1 dw_l_1 0, f 36;
#N canvas 857 363 450 300 ns 0;
#X obj 123 73 f \$0;
#X obj 123 39 loadbang;
#X obj 52 40 r \$0_ns;
#X obj 123 101 outlet;
#X connect 0 0 3 0;
#X connect 1 0 0 0;
#X connect 2 0 0 0;
#X restore 744 670 pd ns;
#N canvas 857 363 450 300 ns 0;
#X obj 123 73 f \$0;
#X obj 123 39 loadbang;
#X obj 52 40 r \$0_ns;
#X obj 123 101 outlet;
#X connect 0 0 3 0;
#X connect 1 0 0 0;
#X connect 2 0 0 0;
#X restore 720 739 pd ns;
#X obj 459 773 nn.dw_1x1 dz_l_1 a_l-1_2 dw_l_1 1;
#X text 464 562 // MSE loss: dZ = dA x g'(Z) \; dL/dA = (A - Y) \; g'(Z) = 1 \; dZ = (A - Y) x 1 = (A - Y);
#X obj 459 832 nn.db_1x1 dz_l_1 db_l_1, f 37;
#X text 467 808 // db^[l] = 1/m x sum(dZ^[l]);
#X text 466 675 // dW^[l] = 1/m x dZ^[l]A^[l-1]T \;;
#N canvas 857 363 450 300 ns 0;
#X obj 123 73 f \$0;
#X obj 123 39 loadbang;
#X obj 52 40 r \$0_ns;
#X obj 123 101 outlet;
#X connect 0 0 3 0;
#X connect 1 0 0 0;
#X connect 2 0 0 0;
#X restore 752 800 pd ns;
#X obj 459 905 nn.da_row w_l_1 dz_l_1 da_l-1_1 0, f 34;
#N canvas 857 363 450 300 ns 0;
#X obj 123 73 f \$0;
#X obj 123 39 loadbang;
#X obj 52 40 r \$0_ns;
#X obj 123 101 outlet;
#X connect 0 0 3 0;
#X connect 1 0 0 0;
#X connect 2 0 0 0;
#X restore 728 869 pd ns;
#X text 464 880 // dA^[l-1] = W^[l]dZ^[l];
#N canvas 857 363 450 300 ns 0;
#X obj 123 73 f \$0;
#X obj 123 39 loadbang;
#X obj 52 40 r \$0_ns;
#X obj 123 101 outlet;
#X connect 0 0 3 0;
#X connect 1 0 0 0;
#X connect 2 0 0 0;
#X restore 728 939 pd ns;
#X obj 459 974 nn.da_row w_l_1 dz_l_1 da_l-1_2 1, f 34;
#X obj 432 1026 cnv 23 900 300 empty empty backprop\ layer\ L\ -\ 1 4 12 0 16 #ef9f76 #4c4f69 0;
#X text 471 1047 // dZ^[l] = dA^[l] x g^[l]'(Z^[l]);
#N canvas 857 363 450 300 ns 0;
#X obj 123 73 f \$0;
#X obj 123 39 loadbang;
#X obj 52 40 r \$0_ns;
#X obj 123 101 outlet;
#X connect 0 0 3 0;
#X connect 1 0 0 0;
#X connect 2 0 0 0;
#X restore 856 1113 pd ns;
#N canvas 857 363 450 300 ns 0;
#X obj 123 73 f \$0;
#X obj 123 39 loadbang;
#X obj 52 40 r \$0_ns;
#X obj 123 101 outlet;
#X connect 0 0 3 0;
#X connect 1 0 0 0;
#X connect 2 0 0 0;
#X restore 856 1039 pd ns;
#N canvas 857 363 450 300 ns 0;
#X obj 123 73 f \$0;
#X obj 123 39 loadbang;
#X obj 52 40 r \$0_ns;
#X obj 123 101 outlet;
#X connect 0 0 3 0;
#X connect 1 0 0 0;
#X connect 2 0 0 0;
#X restore 752 1180 pd ns;
#X text 466 1185 // dW^[l] = 1/m x dZ^[l]A^[l-1]T \;;
#X obj 459 1213 nn.dw_1x1 dz_l-1_1 a_l-2_1 dw_l-1_1 0;
#N canvas 857 363 450 300 ns 0;
#X obj 123 73 f \$0;
#X obj 123 39 loadbang;
#X obj 52 40 r \$0_ns;
#X obj 123 101 outlet;
#X connect 0 0 3 0;
#X connect 1 0 0 0;
#X connect 2 0 0 0;
#X restore 752 1250 pd ns;
#X obj 459 1283 nn.dw_1x1 dz_l-1_1 a_l-2_2 dw_l-1_1 1;
#X obj 1332 5 cnv 23 900 527 empty empty backprop\ layer\ L\ -\ 1 4 12 0 16 #ef9f76 #4c4f69 0;
#N canvas 857 363 450 300 ns 0;
#X obj 123 73 f \$0;
#X obj 123 39 loadbang;
#X obj 52 40 r \$0_ns;
#X obj 123 101 outlet;
#X connect 0 0 3 0;
#X connect 1 0 0 0;
#X connect 2 0 0 0;
#X restore 1638 32 pd ns;
#N canvas 857 363 450 300 ns 0;
#X obj 123 73 f \$0;
#X obj 123 39 loadbang;
#X obj 52 40 r \$0_ns;
#X obj 123 101 outlet;
#X connect 0 0 3 0;
#X connect 1 0 0 0;
#X connect 2 0 0 0;
#X restore 1638 102 pd ns;
#X obj 1345 65 nn.dw_1x1 dz_l-1_2 a_l-2_1 dw_l-1_2 0;
#X obj 1345 135 nn.dw_1x1 dz_l-1_2 a_l-2_2 dw_l-1_2 1;
#X text 1353 178 // db^[l] = 1/m x sum(dZ^[l]);
#N canvas 857 363 450 300 ns 0;
#X obj 123 73 f \$0;
#X obj 123 39 loadbang;
#X obj 52 40 r \$0_ns;
#X obj 123 101 outlet;
#X connect 0 0 3 0;
#X connect 1 0 0 0;
#X connect 2 0 0 0;
#X restore 1638 170 pd ns;
#X obj 1345 202 nn.db_1x1 dz_l-1_1 db_l-1_1, f 37;
#N canvas 857 363 450 300 ns 0;
#X obj 123 73 f \$0;
#X obj 123 39 loadbang;
#X obj 52 40 r \$0_ns;
#X obj 123 101 outlet;
#X connect 0 0 3 0;
#X connect 1 0 0 0;
#X connect 2 0 0 0;
#X restore 1638 231 pd ns;
#X obj 1345 263 nn.db_1x1 dz_l-1_2 db_l-1_2, f 37;
#N canvas 857 363 450 300 ns 0;
#X obj 123 73 f \$0;
#X obj 123 39 loadbang;
#X obj 52 40 r \$0_ns;
#X obj 123 101 outlet;
#X connect 0 0 3 0;
#X connect 1 0 0 0;
#X connect 2 0 0 0;
#X restore 1686 289 pd ns;
#X text 1350 300 // dA^[l-1] = W^[l]dZ^[l];
#X obj 1332 532 cnv 23 900 450 empty empty backprop\ layer\ L\ -\ 2 4 12 0 16 #f4b8e4 #4c4f69 0;
#X text 1357 567 // dZ^[l] = dA^[l] x g^[l]'(Z^[l]);
#N canvas 857 363 450 300 ns 0;
#X obj 123 73 f \$0;
#X obj 123 39 loadbang;
#X obj 52 40 r \$0_ns;
#X obj 123 101 outlet;
#X connect 0 0 3 0;
#X connect 1 0 0 0;
#X connect 2 0 0 0;
#X restore 1742 633 pd ns;
#N canvas 857 363 450 300 ns 0;
#X obj 123 73 f \$0;
#X obj 123 39 loadbang;
#X obj 52 40 r \$0_ns;
#X obj 123 101 outlet;
#X connect 0 0 3 0;
#X connect 1 0 0 0;
#X connect 2 0 0 0;
#X restore 1742 559 pd ns;
#N canvas 857 363 450 300 ns 0;
#X obj 123 73 f \$0;
#X obj 123 39 loadbang;
#X obj 52 40 r \$0_ns;
#X obj 123 101 outlet;
#X connect 0 0 3 0;
#X connect 1 0 0 0;
#X connect 2 0 0 0;
#X restore 1638 707 pd ns;
#X text 1352 712 // dW^[l] = 1/m x dZ^[l]A^[l-1]T \;;
#N canvas 857 363 450 300 ns 0;
#X obj 123 73 f \$0;
#X obj 123 39 loadbang;
#X obj 52 40 r \$0_ns;
#X obj 123 101 outlet;
#X connect 0 0 3 0;
#X connect 1 0 0 0;
#X connect 2 0 0 0;
#X restore 1638 777 pd ns;
#X obj 1345 740 nn.dw_1x1 dz_l-2_1 X dw_l-2_1 0, f 37;
#X obj 1345 810 nn.dw_1x1 dz_l-2_2 X dw_l-2_2 0, f 37;
#X text 1353 848 // db^[l] = 1/m x sum(dZ^[l]);
#N canvas 857 363 450 300 ns 0;
#X obj 123 73 f \$0;
#X obj 123 39 loadbang;
#X obj 52 40 r \$0_ns;
#X obj 123 101 outlet;
#X connect 0 0 3 0;
#X connect 1 0 0 0;
#X connect 2 0 0 0;
#X restore 1638 840 pd ns;
#N canvas 857 363 450 300 ns 0;
#X obj 123 73 f \$0;
#X obj 123 39 loadbang;
#X obj 52 40 r \$0_ns;
#X obj 123 101 outlet;
#X connect 0 0 3 0;
#X connect 1 0 0 0;
#X connect 2 0 0 0;
#X restore 1638 901 pd ns;
#X obj 1345 872 nn.db_1x1 dz_l-2_1 db_l-2_1, f 37;
#X obj 1345 933 nn.db_1x1 dz_l-2_2 db_l-2_2, f 37;
#X obj 1333 983 cnv 23 900 350 empty empty update\ params 4 12 0 16 #eebebe #4c4f69 0;
#X obj 1345 1082 nn.update w_l-2_1 dw_l-2_1;
#N canvas 857 363 450 300 ns 0;
#X obj 123 73 f \$0;
#X obj 123 39 loadbang;
#X obj 52 40 r \$0_ns;
#X obj 123 101 outlet;
#X connect 0 0 3 0;
#X connect 1 0 0 0;
#X connect 2 0 0 0;
#X restore 1550 1046 pd ns;
#X obj 1447 1045 r \$0_alpha;
#N canvas 857 363 450 300 ns 0;
#X obj 123 73 f \$0;
#X obj 123 39 loadbang;
#X obj 52 40 r \$0_ns;
#X obj 123 101 outlet;
#X connect 0 0 3 0;
#X connect 1 0 0 0;
#X connect 2 0 0 0;
#X restore 1550 1116 pd ns;
#X obj 1447 1115 r \$0_alpha;
#X obj 1345 1152 nn.update b_l-2_1 db_l-2_1;
#N canvas 857 363 450 300 ns 0;
#X obj 123 73 f \$0;
#X obj 123 39 loadbang;
#X obj 52 40 r \$0_ns;
#X obj 123 101 outlet;
#X connect 0 0 3 0;
#X connect 1 0 0 0;
#X connect 2 0 0 0;
#X restore 1550 1186 pd ns;
#X obj 1447 1185 r \$0_alpha;
#N canvas 857 363 450 300 ns 0;
#X obj 123 73 f \$0;
#X obj 123 39 loadbang;
#X obj 52 40 r \$0_ns;
#X obj 123 101 outlet;
#X connect 0 0 3 0;
#X connect 1 0 0 0;
#X connect 2 0 0 0;
#X restore 1550 1256 pd ns;
#X obj 1447 1255 r \$0_alpha;
#X obj 1345 1222 nn.update w_l-2_2 dw_l-2_2;
#X obj 1345 1292 nn.update b_l-2_2 db_l-2_2;
#N canvas 857 363 450 300 ns 0;
#X obj 123 73 f \$0;
#X obj 123 39 loadbang;
#X obj 52 40 r \$0_ns;
#X obj 123 101 outlet;
#X connect 0 0 3 0;
#X connect 1 0 0 0;
#X connect 2 0 0 0;
#X restore 1820 1046 pd ns;
#X obj 1717 1045 r \$0_alpha;
#N canvas 857 363 450 300 ns 0;
#X obj 123 73 f \$0;
#X obj 123 39 loadbang;
#X obj 52 40 r \$0_ns;
#X obj 123 101 outlet;
#X connect 0 0 3 0;
#X connect 1 0 0 0;
#X connect 2 0 0 0;
#X restore 1820 1116 pd ns;
#X obj 1717 1115 r \$0_alpha;
#N canvas 857 363 450 300 ns 0;
#X obj 123 73 f \$0;
#X obj 123 39 loadbang;
#X obj 52 40 r \$0_ns;
#X obj 123 101 outlet;
#X connect 0 0 3 0;
#X connect 1 0 0 0;
#X connect 2 0 0 0;
#X restore 1820 1186 pd ns;
#X obj 1717 1185 r \$0_alpha;
#N canvas 857 363 450 300 ns 0;
#X obj 123 73 f \$0;
#X obj 123 39 loadbang;
#X obj 52 40 r \$0_ns;
#X obj 123 101 outlet;
#X connect 0 0 3 0;
#X connect 1 0 0 0;
#X connect 2 0 0 0;
#X restore 1820 1256 pd ns;
#X obj 1717 1255 r \$0_alpha;
#X obj 1615 1082 nn.update w_l-1_1 dw_l-1_1;
#X obj 1615 1152 nn.update b_l-1_1 db_l-1_1;
#X obj 1615 1222 nn.update w_l-1_2 dw_l-1_2;
#X obj 1615 1292 nn.update b_l-1_2 db_l-1_2;
#N canvas 857 363 450 300 ns 0;
#X obj 123 73 f \$0;
#X obj 123 39 loadbang;
#X obj 52 40 r \$0_ns;
#X obj 123 101 outlet;
#X connect 0 0 3 0;
#X connect 1 0 0 0;
#X connect 2 0 0 0;
#X restore 2100 1046 pd ns;
#X obj 1997 1045 r \$0_alpha;
#N canvas 857 363 450 300 ns 0;
#X obj 123 73 f \$0;
#X obj 123 39 loadbang;
#X obj 52 40 r \$0_ns;
#X obj 123 101 outlet;
#X connect 0 0 3 0;
#X connect 1 0 0 0;
#X connect 2 0 0 0;
#X restore 2100 1116 pd ns;
#X obj 1997 1115 r \$0_alpha;
#X obj 1895 1082 nn.update w_l_1 dw_l_1;
#X obj 1895 1152 nn.update b_l_1 db_l_1;
#N canvas 1676 355 1180 862 synth 0;
#X obj 508 52 inlet;
#X obj 169 793 lop~ 5;
#X obj 87 854 dac~;
#X obj 81 348 +~;
#X obj 160 343 *~;
#X obj 337 52 inlet;
#X obj 82 460 osc~ 220;
#X obj 86 791 *~;
#X obj 82 251 sig~ 110;
#X obj 156 423 *~ 0.5;
#X obj 157 459 osc~ 220;
#X obj 82 518 +~;
#X obj 239 423 *~ 2;
#X obj 238 460 osc~ 220;
#X obj 81 584 *~ 0.25;
#X obj 328 460 osc~ 220;
#X obj 329 423 *~ 2.5;
#X obj 85 719 bob~;
#X obj 162 297 +~ 0.5;
#X obj 162 249 r \$0_prediction_L;
#X obj 492 264 r \$0_prediction_L-1_1;
#X obj 913 256 r \$0_prediction_L-1_2;
#X obj 492 442 *;
#X obj 492 471 +;
#X obj 566 438 nbx 5 21 0 1000 0 1 empty empty empty 0 -12 0 16 #fcfcfc #000000 #000000 269.99 256;
#X obj 559 466 nbx 5 21 0 1000 0 1 empty empty empty 0 -12 0 16 #fcfcfc #000000 #000000 849.771 256;
#X floatatom 151 716 5 0 0 0 - - - 0;
#N canvas 857 363 450 300 ns 0;
#X obj 123 73 f \$0;
#X obj 123 39 loadbang;
#X obj 52 40 r \$0_ns;
#X obj 123 101 outlet;
#X connect 0 0 3 0;
#X connect 1 0 0 0;
#X connect 2 0 0 0;
#X restore 903 72 pd ns;
#X obj 691 26 r \$0_bin_bang;
#X floatatom 869 121 5 0 0 0 - - - 0;
#X obj 490 521 lop~ 5;
#X obj 700 75 nn.array_cycle a_l-1_1;
#X connect 0 0 1 0;
#X connect 1 0 7 1;
#X connect 3 0 6 0;
#X connect 3 0 9 0;
#X connect 3 0 12 0;
#X connect 3 0 16 0;
#X connect 4 0 3 1;
#X connect 5 0 4 1;
#X connect 6 0 11 0;
#X connect 7 0 2 0;
#X connect 7 0 2 1;
#X connect 8 0 3 0;
#X connect 9 0 10 0;
#X connect 10 0 11 0;
#X connect 11 0 14 0;
#X connect 12 0 13 0;
#X connect 13 0 11 0;
#X connect 14 0 17 0;
#X connect 15 0 11 0;
#X connect 16 0 15 0;
#X connect 17 0 7 0;
#X connect 18 0 4 0;
#X connect 19 0 18 0;
#X connect 22 0 23 0;
#X connect 23 0 30 0;
#X connect 24 0 22 1;
#X connect 25 0 23 1;
#X connect 26 0 17 2;
#X connect 27 0 31 2;
#X connect 28 0 31 0;
#X connect 29 0 22 0;
#X connect 30 0 17 1;
#X connect 31 1 29 0;
#X restore 2430 951 pd synth;
#X obj 2546 909 vsl 23 196 0 1 0 0 empty empty empty 0 -9 0 16 #fcfcfc #000000 #000000 0 1;
#X obj 2459 909 nbx 5 21 -1e+37 1e+37 0 1 empty empty empty 0 -12 0 16 #fcfcfc #000000 #000000 406 256;
#X obj 2369 910 nbx 5 21 -1e+37 1e+37 0 1 empty empty empty 0 -12 0 16 #fcfcfc #000000 #000000 0.6 256;
#N canvas 299 336 1612 695 reset_arrays 0;
#N canvas 1442 595 517 458 ns_message 0;
#X obj 282 16 bng 23 250 50 0 empty \$0_init empty 0 -12 0 16 #fcfcfc #000000 #000000;
#X obj 327 294 f;
#X obj 282 44 t b b, f 6;
#X obj 101 151 cnv 23 178 26 empty empty empty 20 12 0 16 #a6e3a1 #000000 0;
#X symbolatom 101 153 22 0 0 0 - - - 0;
#X msg 55 314 symbol dw_l_1;
#X msg 101 258 set symbol \$1;
#X obj 101 187 t s s b, f 13;
#X obj 306 328 d_0;
#X obj 306 361 outlet;
#X obj 55 16 loadbang;
#X obj 55 44 f \$0;
#X obj 55 112 t b f, f 37;
#X obj 145 15 inlet;
#X connect 0 0 2 0;
#X connect 1 0 8 1;
#X connect 2 0 4 0;
#X connect 2 1 1 0;
#X connect 4 0 7 0;
#X connect 5 0 4 0;
#X connect 6 0 5 0;
#X connect 7 0 6 0;
#X connect 7 1 8 0;
#X connect 7 2 1 0;
#X connect 8 0 9 0;
#X connect 10 0 11 0;
#X connect 11 0 12 0;
#X connect 12 0 5 0;
#X connect 12 1 1 1;
#X connect 13 0 4 0;
#X coords 0 -1 1 1 180 28 2 100 150;
#X restore 224 195 pd ns_message;
#X msg 203 588 \; \$1 const 0;
#N canvas 1442 595 517 458 ns_message 0;
#X obj 282 16 bng 23 250 50 0 empty \$0_init empty 0 -12 0 16 #fcfcfc #000000 #000000;
#X obj 327 294 f;
#X obj 282 44 t b b, f 6;
#X obj 101 151 cnv 23 178 26 empty empty empty 20 12 0 16 #a6e3a1 #000000 0;
#X symbolatom 101 153 22 0 0 0 - - - 0;
#X msg 55 314 symbol db_l_1;
#X msg 101 258 set symbol \$1;
#X obj 101 187 t s s b, f 13;
#X obj 306 328 d_0;
#X obj 306 361 outlet;
#X obj 55 16 loadbang;
#X obj 55 44 f \$0;
#X obj 55 112 t b f, f 37;
#X obj 145 15 inlet;
#X connect 0 0 2 0;
#X connect 1 0 8 1;
#X connect 2 0 4 0;
#X connect 2 1 1 0;
#X connect 4 0 7 0;
#X connect 5 0 4 0;
#X connect 6 0 5 0;
#X connect 7 0 6 0;
#X connect 7 1 8 0;
#X connect 7 2 1 0;
#X connect 8 0 9 0;
#X connect 10 0 11 0;
#X connect 11 0 12 0;
#X connect 12 0 5 0;
#X connect 12 1 1 1;
#X connect 13 0 4 0;
#X coords 0 -1 1 1 180 28 2 100 150;
#X restore 244 265 pd ns_message;
#N canvas 1442 595 517 458 ns_message 0;
#X obj 282 16 bng 23 250 50 0 empty \$0_init empty 0 -12 0 16 #fcfcfc #000000 #000000;
#X obj 327 294 f;
#X obj 282 44 t b b, f 6;
#X obj 101 151 cnv 23 178 26 empty empty empty 20 12 0 16 #a6e3a1 #000000 0;
#X symbolatom 101 153 22 0 0 0 - - - 0;
#X msg 55 314 symbol da_l_1;
#X msg 101 258 set symbol \$1;
#X obj 101 187 t s s b, f 13;
#X obj 306 328 d_0;
#X obj 306 361 outlet;
#X obj 55 16 loadbang;
#X obj 55 44 f \$0;
#X obj 55 112 t b f, f 37;
#X obj 145 15 inlet;
#X connect 0 0 2 0;
#X connect 1 0 8 1;
#X connect 2 0 4 0;
#X connect 2 1 1 0;
#X connect 4 0 7 0;
#X connect 5 0 4 0;
#X connect 6 0 5 0;
#X connect 7 0 6 0;
#X connect 7 1 8 0;
#X connect 7 2 1 0;
#X connect 8 0 9 0;
#X connect 10 0 11 0;
#X connect 11 0 12 0;
#X connect 12 0 5 0;
#X connect 12 1 1 1;
#X connect 13 0 4 0;
#X coords 0 -1 1 1 180 28 2 100 150;
#X restore 263 335 pd ns_message;
#N canvas 1442 595 517 458 ns_message 0;
#X obj 282 16 bng 23 250 50 0 empty \$0_init empty 0 -12 0 16 #fcfcfc #000000 #000000;
#X obj 327 294 f;
#X obj 282 44 t b b, f 6;
#X obj 101 151 cnv 23 178 26 empty empty empty 20 12 0 16 #a6e3a1 #000000 0;
#X symbolatom 101 153 22 0 0 0 - - - 0;
#X msg 55 314 symbol dz_l_1;
#X msg 101 258 set symbol \$1;
#X obj 101 187 t s s b, f 13;
#X obj 306 328 d_0;
#X obj 306 361 outlet;
#X obj 55 16 loadbang;
#X obj 55 44 f \$0;
#X obj 55 112 t b f, f 37;
#X obj 145 15 inlet;
#X connect 0 0 2 0;
#X connect 1 0 8 1;
#X connect 2 0 4 0;
#X connect 2 1 1 0;
#X connect 4 0 7 0;
#X connect 5 0 4 0;
#X connect 6 0 5 0;
#X connect 7 0 6 0;
#X connect 7 1 8 0;
#X connect 7 2 1 0;
#X connect 8 0 9 0;
#X connect 10 0 11 0;
#X connect 11 0 12 0;
#X connect 12 0 5 0;
#X connect 12 1 1 1;
#X connect 13 0 4 0;
#X coords 0 -1 1 1 180 28 2 100 150;
#X restore 283 405 pd ns_message;
#N canvas 1442 595 517 458 ns_message 0;
#X obj 282 16 bng 23 250 50 0 empty \$0_init empty 0 -12 0 16 #fcfcfc #000000 #000000;
#X obj 327 294 f;
#X obj 282 44 t b b, f 6;
#X obj 101 151 cnv 23 178 26 empty empty empty 20 12 0 16 #a6e3a1 #000000 0;
#X symbolatom 101 153 22 0 0 0 - - - 0;
#X msg 55 314 symbol Y_hat;
#X msg 101 258 set symbol \$1;
#X obj 101 187 t s s b, f 13;
#X obj 306 328 d_0;
#X obj 306 361 outlet;
#X obj 55 16 loadbang;
#X obj 55 44 f \$0;
#X obj 55 112 t b f, f 37;
#X obj 145 15 inlet;
#X connect 0 0 2 0;
#X connect 1 0 8 1;
#X connect 2 0 4 0;
#X connect 2 1 1 0;
#X connect 4 0 7 0;
#X connect 5 0 4 0;
#X connect 6 0 5 0;
#X connect 7 0 6 0;
#X connect 7 1 8 0;
#X connect 7 2 1 0;
#X connect 8 0 9 0;
#X connect 10 0 11 0;
#X connect 11 0 12 0;
#X connect 12 0 5 0;
#X connect 12 1 1 1;
#X connect 13 0 4 0;
#X coords 0 -1 1 1 180 28 2 100 150;
#X restore 203 56 pd ns_message;
#X obj 203 91 spigot;
#X obj 264 90 tgl 23 0 empty empty empty 0 -12 0 16 #40a02b #000000 #000000 0 1;
#X obj 224 234 spigot;
#X obj 284 233 tgl 23 0 empty empty empty 0 -12 0 16 #40a02b #000000 #000000 0 1;
#X obj 244 304 spigot;
#X obj 304 303 tgl 23 0 empty empty empty 0 -12 0 16 #40a02b #000000 #000000 0 1;
#X obj 263 374 spigot;
#X obj 323 373 tgl 23 0 empty empty empty 0 -12 0 16 #40a02b #000000 #000000 0 1;
#X obj 283 444 spigot;
#X obj 343 443 tgl 23 0 empty empty empty 0 -12 0 16 #40a02b #000000 #000000 0 1;
#N canvas 1442 595 517 458 ns_message 0;
#X obj 282 16 bng 23 250 50 0 empty \$0_init empty 0 -12 0 16 #fcfcfc #000000 #000000;
#X obj 327 294 f;
#X obj 282 44 t b b, f 6;
#X obj 101 151 cnv 23 178 26 empty empty empty 20 12 0 16 #a6e3a1 #000000 0;
#X symbolatom 101 153 22 0 0 0 - - - 0;
#X msg 55 314 symbol dw_l-1_1;
#X msg 101 258 set symbol \$1;
#X obj 101 187 t s s b, f 13;
#X obj 306 328 d_0;
#X obj 306 361 outlet;
#X obj 55 16 loadbang;
#X obj 55 44 f \$0;
#X obj 55 112 t b f, f 37;
#X obj 145 15 inlet;
#X connect 0 0 2 0;
#X connect 1 0 8 1;
#X connect 2 0 4 0;
#X connect 2 1 1 0;
#X connect 4 0 7 0;
#X connect 5 0 4 0;
#X connect 6 0 5 0;
#X connect 7 0 6 0;
#X connect 7 1 8 0;
#X connect 7 2 1 0;
#X connect 8 0 9 0;
#X connect 10 0 11 0;
#X connect 11 0 12 0;
#X connect 12 0 5 0;
#X connect 12 1 1 1;
#X connect 13 0 4 0;
#X coords 0 -1 1 1 180 28 2 100 150;
#X restore 444 190 pd ns_message;
#N canvas 1442 595 517 458 ns_message 0;
#X obj 282 16 bng 23 250 50 0 empty \$0_init empty 0 -12 0 16 #fcfcfc #000000 #000000;
#X obj 327 294 f;
#X obj 282 44 t b b, f 6;
#X obj 101 151 cnv 23 178 26 empty empty empty 20 12 0 16 #a6e3a1 #000000 0;
#X symbolatom 101 153 22 0 0 0 - - - 0;
#X msg 55 314 symbol db_l-1_1;
#X msg 101 258 set symbol \$1;
#X obj 101 187 t s s b, f 13;
#X obj 306 328 d_0;
#X obj 306 361 outlet;
#X obj 55 16 loadbang;
#X obj 55 44 f \$0;
#X obj 55 112 t b f, f 37;
#X obj 145 15 inlet;
#X connect 0 0 2 0;
#X connect 1 0 8 1;
#X connect 2 0 4 0;
#X connect 2 1 1 0;
#X connect 4 0 7 0;
#X connect 5 0 4 0;
#X connect 6 0 5 0;
#X connect 7 0 6 0;
#X connect 7 1 8 0;
#X connect 7 2 1 0;
#X connect 8 0 9 0;
#X connect 10 0 11 0;
#X connect 11 0 12 0;
#X connect 12 0 5 0;
#X connect 12 1 1 1;
#X connect 13 0 4 0;
#X coords 0 -1 1 1 180 28 2 100 150;
#X restore 464 260 pd ns_message;
#N canvas 1442 595 517 458 ns_message 0;
#X obj 282 16 bng 23 250 50 0 empty \$0_init empty 0 -12 0 16 #fcfcfc #000000 #000000;
#X obj 327 294 f;
#X obj 282 44 t b b, f 6;
#X obj 101 151 cnv 23 178 26 empty empty empty 20 12 0 16 #a6e3a1 #000000 0;
#X symbolatom 101 153 22 0 0 0 - - - 0;
#X msg 55 314 symbol da_l-1_1;
#X msg 101 258 set symbol \$1;
#X obj 101 187 t s s b, f 13;
#X obj 306 328 d_0;
#X obj 306 361 outlet;
#X obj 55 16 loadbang;
#X obj 55 44 f \$0;
#X obj 55 112 t b f, f 37;
#X obj 145 15 inlet;
#X connect 0 0 2 0;
#X connect 1 0 8 1;
#X connect 2 0 4 0;
#X connect 2 1 1 0;
#X connect 4 0 7 0;
#X connect 5 0 4 0;
#X connect 6 0 5 0;
#X connect 7 0 6 0;
#X connect 7 1 8 0;
#X connect 7 2 1 0;
#X connect 8 0 9 0;
#X connect 10 0 11 0;
#X connect 11 0 12 0;
#X connect 12 0 5 0;
#X connect 12 1 1 1;
#X connect 13 0 4 0;
#X coords 0 -1 1 1 180 28 2 100 150;
#X restore 483 330 pd ns_message;
#N canvas 1442 595 517 458 ns_message 0;
#X obj 282 16 bng 23 250 50 0 empty \$0_init empty 0 -12 0 16 #fcfcfc #000000 #000000;
#X obj 327 294 f;
#X obj 282 44 t b b, f 6;
#X obj 101 151 cnv 23 178 26 empty empty empty 20 12 0 16 #a6e3a1 #000000 0;
#X symbolatom 101 153 22 0 0 0 - - - 0;
#X msg 55 314 symbol dz_l-1_1;
#X msg 101 258 set symbol \$1;
#X obj 101 187 t s s b, f 13;
#X obj 306 328 d_0;
#X obj 306 361 outlet;
#X obj 55 16 loadbang;
#X obj 55 44 f \$0;
#X obj 55 112 t b f, f 37;
#X obj 145 15 inlet;
#X connect 0 0 2 0;
#X connect 1 0 8 1;
#X connect 2 0 4 0;
#X connect 2 1 1 0;
#X connect 4 0 7 0;
#X connect 5 0 4 0;
#X connect 6 0 5 0;
#X connect 7 0 6 0;
#X connect 7 1 8 0;
#X connect 7 2 1 0;
#X connect 8 0 9 0;
#X connect 10 0 11 0;
#X connect 11 0 12 0;
#X connect 12 0 5 0;
#X connect 12 1 1 1;
#X connect 13 0 4 0;
#X coords 0 -1 1 1 180 28 2 100 150;
#X restore 503 400 pd ns_message;
#N canvas 1442 595 517 458 ns_message 0;
#X obj 282 16 bng 23 250 50 0 empty \$0_init empty 0 -12 0 16 #fcfcfc #000000 #000000;
#X obj 327 294 f;
#X obj 282 44 t b b, f 6;
#X obj 101 151 cnv 23 178 26 empty empty empty 20 12 0 16 #a6e3a1 #000000 0;
#X symbolatom 101 153 22 0 0 0 - - - 0;
#X msg 55 314 symbol a_l-1_1;
#X msg 101 258 set symbol \$1;
#X obj 101 187 t s s b, f 13;
#X obj 306 328 d_0;
#X obj 306 361 outlet;
#X obj 55 16 loadbang;
#X obj 55 44 f \$0;
#X obj 55 112 t b f, f 37;
#X obj 145 15 inlet;
#X connect 0 0 2 0;
#X connect 1 0 8 1;
#X connect 2 0 4 0;
#X connect 2 1 1 0;
#X connect 4 0 7 0;
#X connect 5 0 4 0;
#X connect 6 0 5 0;
#X connect 7 0 6 0;
#X connect 7 1 8 0;
#X connect 7 2 1 0;
#X connect 8 0 9 0;
#X connect 10 0 11 0;
#X connect 11 0 12 0;
#X connect 12 0 5 0;
#X connect 12 1 1 1;
#X connect 13 0 4 0;
#X coords 0 -1 1 1 180 28 2 100 150;
#X restore 423 56 pd ns_message;
#X obj 423 91 spigot;
#X obj 484 90 tgl 23 0 empty empty empty 0 -12 0 16 #40a02b #000000 #000000 0 1;
#X obj 444 229 spigot;
#X obj 504 228 tgl 23 0 empty empty empty 0 -12 0 16 #40a02b #000000 #000000 0 1;
#X obj 464 299 spigot;
#X obj 524 298 tgl 23 0 empty empty empty 0 -12 0 16 #40a02b #000000 #000000 0 1;
#X obj 483 369 spigot;
#X obj 543 368 tgl 23 0 empty empty empty 0 -12 0 16 #40a02b #000000 #000000 0 1;
#X obj 503 439 spigot;
#X obj 563 438 tgl 23 0 empty empty empty 0 -12 0 16 #40a02b #000000 #000000 0 1;
#N canvas 1442 595 517 458 ns_message 0;
#X obj 282 16 bng 23 250 50 0 empty \$0_init empty 0 -12 0 16 #fcfcfc #000000 #000000;
#X obj 327 294 f;
#X obj 282 44 t b b, f 6;
#X obj 101 151 cnv 23 178 26 empty empty empty 20 12 0 16 #a6e3a1 #000000 0;
#X symbolatom 101 153 22 0 0 0 - - - 0;
#X msg 55 314 symbol z_l-1_1;
#X msg 101 258 set symbol \$1;
#X obj 101 187 t s s b, f 13;
#X obj 306 328 d_0;
#X obj 306 361 outlet;
#X obj 55 16 loadbang;
#X obj 55 44 f \$0;
#X obj 55 112 t b f, f 37;
#X obj 145 15 inlet;
#X connect 0 0 2 0;
#X connect 1 0 8 1;
#X connect 2 0 4 0;
#X connect 2 1 1 0;
#X connect 4 0 7 0;
#X connect 5 0 4 0;
#X connect 6 0 5 0;
#X connect 7 0 6 0;
#X connect 7 1 8 0;
#X connect 7 2 1 0;
#X connect 8 0 9 0;
#X connect 10 0 11 0;
#X connect 11 0 12 0;
#X connect 12 0 5 0;
#X connect 12 1 1 1;
#X connect 13 0 4 0;
#X coords 0 -1 1 1 180 28 2 100 150;
#X restore 433 125 pd ns_message;
#X obj 433 160 spigot;
#X obj 494 159 tgl 23 0 empty empty empty 0 -12 0 16 #40a02b #000000 #000000 0 1;
#N canvas 1442 595 517 458 ns_message 0;
#X obj 282 16 bng 23 250 50 0 empty \$0_init empty 0 -12 0 16 #fcfcfc #000000 #000000;
#X obj 327 294 f;
#X obj 282 44 t b b, f 6;
#X obj 101 151 cnv 23 178 26 empty empty empty 20 12 0 16 #a6e3a1 #000000 0;
#X symbolatom 101 153 22 0 0 0 - - - 0;
#X msg 55 314 symbol z_l_1;
#X msg 101 258 set symbol \$1;
#X obj 101 187 t s s b, f 13;
#X obj 306 328 d_0;
#X obj 306 361 outlet;
#X obj 55 16 loadbang;
#X obj 55 44 f \$0;
#X obj 55 112 t b f, f 37;
#X obj 145 15 inlet;
#X connect 0 0 2 0;
#X connect 1 0 8 1;
#X connect 2 0 4 0;
#X connect 2 1 1 0;
#X connect 4 0 7 0;
#X connect 5 0 4 0;
#X connect 6 0 5 0;
#X connect 7 0 6 0;
#X connect 7 1 8 0;
#X connect 7 2 1 0;
#X connect 8 0 9 0;
#X connect 10 0 11 0;
#X connect 11 0 12 0;
#X connect 12 0 5 0;
#X connect 12 1 1 1;
#X connect 13 0 4 0;
#X coords 0 -1 1 1 180 28 2 100 150;
#X restore 213 125 pd ns_message;
#X obj 213 160 spigot;
#X obj 274 159 tgl 23 0 empty empty empty 0 -12 0 16 #40a02b #000000 #000000 0 1;
#N canvas 1442 595 517 458 ns_message 0;
#X obj 282 16 bng 23 250 50 0 empty \$0_init empty 0 -12 0 16 #fcfcfc #000000 #000000;
#X obj 327 294 f;
#X obj 282 44 t b b, f 6;
#X obj 101 151 cnv 23 178 26 empty empty empty 20 12 0 16 #a6e3a1 #000000 0;
#X symbolatom 101 153 22 0 0 0 - - - 0;
#X msg 55 314 symbol dw_l-1_2;
#X msg 101 258 set symbol \$1;
#X obj 101 187 t s s b, f 13;
#X obj 306 328 d_0;
#X obj 306 361 outlet;
#X obj 55 16 loadbang;
#X obj 55 44 f \$0;
#X obj 55 112 t b f, f 37;
#X obj 145 15 inlet;
#X connect 0 0 2 0;
#X connect 1 0 8 1;
#X connect 2 0 4 0;
#X connect 2 1 1 0;
#X connect 4 0 7 0;
#X connect 5 0 4 0;
#X connect 6 0 5 0;
#X connect 7 0 6 0;
#X connect 7 1 8 0;
#X connect 7 2 1 0;
#X connect 8 0 9 0;
#X connect 10 0 11 0;
#X connect 11 0 12 0;
#X connect 12 0 5 0;
#X connect 12 1 1 1;
#X connect 13 0 4 0;
#X coords 0 -1 1 1 180 28 2 100 150;
#X restore 719 190 pd ns_message;
#N canvas 1442 595 517 458 ns_message 0;
#X obj 282 16 bng 23 250 50 0 empty \$0_init empty 0 -12 0 16 #fcfcfc #000000 #000000;
#X obj 327 294 f;
#X obj 282 44 t b b, f 6;
#X obj 101 151 cnv 23 178 26 empty empty empty 20 12 0 16 #a6e3a1 #000000 0;
#X symbolatom 101 153 22 0 0 0 - - - 0;
#X msg 55 314 symbol db_l-1_2;
#X msg 101 258 set symbol \$1;
#X obj 101 187 t s s b, f 13;
#X obj 306 328 d_0;
#X obj 306 361 outlet;
#X obj 55 16 loadbang;
#X obj 55 44 f \$0;
#X obj 55 112 t b f, f 37;
#X obj 145 15 inlet;
#X connect 0 0 2 0;
#X connect 1 0 8 1;
#X connect 2 0 4 0;
#X connect 2 1 1 0;
#X connect 4 0 7 0;
#X connect 5 0 4 0;
#X connect 6 0 5 0;
#X connect 7 0 6 0;
#X connect 7 1 8 0;
#X connect 7 2 1 0;
#X connect 8 0 9 0;
#X connect 10 0 11 0;
#X connect 11 0 12 0;
#X connect 12 0 5 0;
#X connect 12 1 1 1;
#X connect 13 0 4 0;
#X coords 0 -1 1 1 180 28 2 100 150;
#X restore 739 260 pd ns_message;
#N canvas 1442 595 517 458 ns_message 0;
#X obj 282 16 bng 23 250 50 0 empty \$0_init empty 0 -12 0 16 #fcfcfc #000000 #000000;
#X obj 327 294 f;
#X obj 282 44 t b b, f 6;
#X obj 101 151 cnv 23 178 26 empty empty empty 20 12 0 16 #a6e3a1 #000000 0;
#X symbolatom 101 153 22 0 0 0 - - - 0;
#X msg 55 314 symbol da_l-2_2;
#X msg 101 258 set symbol \$1;
#X obj 101 187 t s s b, f 13;
#X obj 306 328 d_0;
#X obj 306 361 outlet;
#X obj 55 16 loadbang;
#X obj 55 44 f \$0;
#X obj 55 112 t b f, f 37;
#X obj 145 15 inlet;
#X connect 0 0 2 0;
#X connect 1 0 8 1;
#X connect 2 0 4 0;
#X connect 2 1 1 0;
#X connect 4 0 7 0;
#X connect 5 0 4 0;
#X connect 6 0 5 0;
#X connect 7 0 6 0;
#X connect 7 1 8 0;
#X connect 7 2 1 0;
#X connect 8 0 9 0;
#X connect 10 0 11 0;
#X connect 11 0 12 0;
#X connect 12 0 5 0;
#X connect 12 1 1 1;
#X connect 13 0 4 0;
#X coords 0 -1 1 1 180 28 2 100 150;
#X restore 758 330 pd ns_message;
#N canvas 1442 595 517 458 ns_message 0;
#X obj 282 16 bng 23 250 50 0 empty \$0_init empty 0 -12 0 16 #fcfcfc #000000 #000000;
#X obj 327 294 f;
#X obj 282 44 t b b, f 6;
#X obj 101 151 cnv 23 178 26 empty empty empty 20 12 0 16 #a6e3a1 #000000 0;
#X symbolatom 101 153 22 0 0 0 - - - 0;
#X msg 55 314 symbol db_l-1_2;
#X msg 101 258 set symbol \$1;
#X obj 101 187 t s s b, f 13;
#X obj 306 328 d_0;
#X obj 306 361 outlet;
#X obj 55 16 loadbang;
#X obj 55 44 f \$0;
#X obj 55 112 t b f, f 37;
#X obj 145 15 inlet;
#X connect 0 0 2 0;
#X connect 1 0 8 1;
#X connect 2 0 4 0;
#X connect 2 1 1 0;
#X connect 4 0 7 0;
#X connect 5 0 4 0;
#X connect 6 0 5 0;
#X connect 7 0 6 0;
#X connect 7 1 8 0;
#X connect 7 2 1 0;
#X connect 8 0 9 0;
#X connect 10 0 11 0;
#X connect 11 0 12 0;
#X connect 12 0 5 0;
#X connect 12 1 1 1;
#X connect 13 0 4 0;
#X coords 0 -1 1 1 180 28 2 100 150;
#X restore 778 400 pd ns_message;
#N canvas 1442 595 517 458 ns_message 0;
#X obj 282 16 bng 23 250 50 0 empty \$0_init empty 0 -12 0 16 #fcfcfc #000000 #000000;
#X obj 327 294 f;
#X obj 282 44 t b b, f 6;
#X obj 101 151 cnv 23 178 26 empty empty empty 20 12 0 16 #a6e3a1 #000000 0;
#X symbolatom 101 153 22 0 0 0 - - - 0;
#X msg 55 314 symbol a_l-1_2;
#X msg 101 258 set symbol \$1;
#X obj 101 187 t s s b, f 13;
#X obj 306 328 d_0;
#X obj 306 361 outlet;
#X obj 55 16 loadbang;
#X obj 55 44 f \$0;
#X obj 55 112 t b f, f 37;
#X obj 145 15 inlet;
#X connect 0 0 2 0;
#X connect 1 0 8 1;
#X connect 2 0 4 0;
#X connect 2 1 1 0;
#X connect 4 0 7 0;
#X connect 5 0 4 0;
#X connect 6 0 5 0;
#X connect 7 0 6 0;
#X connect 7 1 8 0;
#X connect 7 2 1 0;
#X connect 8 0 9 0;
#X connect 10 0 11 0;
#X connect 11 0 12 0;
#X connect 12 0 5 0;
#X connect 12 1 1 1;
#X connect 13 0 4 0;
#X coords 0 -1 1 1 180 28 2 100 150;
#X restore 698 56 pd ns_message;
#X obj 698 91 spigot;
#X obj 759 90 tgl 23 0 empty empty empty 0 -12 0 16 #40a02b #000000 #000000 0 1;
#X obj 719 229 spigot;
#X obj 779 228 tgl 23 0 empty empty empty 0 -12 0 16 #40a02b #000000 #000000 0 1;
#X obj 739 299 spigot;
#X obj 799 298 tgl 23 0 empty empty empty 0 -12 0 16 #40a02b #000000 #000000 0 1;
#X obj 758 369 spigot;
#X obj 818 368 tgl 23 0 empty empty empty 0 -12 0 16 #40a02b #000000 #000000 0 1;
#X obj 778 439 spigot;
#X obj 838 438 tgl 23 0 empty empty empty 0 -12 0 16 #40a02b #000000 #000000 0 1;
#N canvas 1442 595 517 458 ns_message 0;
#X obj 282 16 bng 23 250 50 0 empty \$0_init empty 0 -12 0 16 #fcfcfc #000000 #000000;
#X obj 327 294 f;
#X obj 282 44 t b b, f 6;
#X obj 101 151 cnv 23 178 26 empty empty empty 20 12 0 16 #a6e3a1 #000000 0;
#X symbolatom 101 153 22 0 0 0 - - - 0;
#X msg 55 314 symbol z_l-1_2;
#X msg 101 258 set symbol \$1;
#X obj 101 187 t s s b, f 13;
#X obj 306 328 d_0;
#X obj 306 361 outlet;
#X obj 55 16 loadbang;
#X obj 55 44 f \$0;
#X obj 55 112 t b f, f 37;
#X obj 145 15 inlet;
#X connect 0 0 2 0;
#X connect 1 0 8 1;
#X connect 2 0 4 0;
#X connect 2 1 1 0;
#X connect 4 0 7 0;
#X connect 5 0 4 0;
#X connect 6 0 5 0;
#X connect 7 0 6 0;
#X connect 7 1 8 0;
#X connect 7 2 1 0;
#X connect 8 0 9 0;
#X connect 10 0 11 0;
#X connect 11 0 12 0;
#X connect 12 0 5 0;
#X connect 12 1 1 1;
#X connect 13 0 4 0;
#X coords 0 -1 1 1 180 28 2 100 150;
#X restore 708 125 pd ns_message;
#X obj 708 160 spigot;
#X obj 769 159 tgl 23 0 empty empty empty 0 -12 0 16 #40a02b #000000 #000000 0 1;
#N canvas 1442 595 517 458 ns_message 0;
#X obj 282 16 bng 23 250 50 0 empty \$0_init empty 0 -12 0 16 #fcfcfc #000000 #000000;
#X obj 327 294 f;
#X obj 282 44 t b b, f 6;
#X obj 101 151 cnv 23 178 26 empty empty empty 20 12 0 16 #a6e3a1 #000000 0;
#X symbolatom 101 153 22 0 0 0 - - - 0;
#X msg 55 314 symbol dw_l-2_1;
#X msg 101 258 set symbol \$1;
#X obj 101 187 t s s b, f 13;
#X obj 306 328 d_0;
#X obj 306 361 outlet;
#X obj 55 16 loadbang;
#X obj 55 44 f \$0;
#X obj 55 112 t b f, f 37;
#X obj 145 15 inlet;
#X connect 0 0 2 0;
#X connect 1 0 8 1;
#X connect 2 0 4 0;
#X connect 2 1 1 0;
#X connect 4 0 7 0;
#X connect 5 0 4 0;
#X connect 6 0 5 0;
#X connect 7 0 6 0;
#X connect 7 1 8 0;
#X connect 7 2 1 0;
#X connect 8 0 9 0;
#X connect 10 0 11 0;
#X connect 11 0 12 0;
#X connect 12 0 5 0;
#X connect 12 1 1 1;
#X connect 13 0 4 0;
#X coords 0 -1 1 1 180 28 2 100 150;
#X restore 1029 198 pd ns_message;
#N canvas 1442 595 517 458 ns_message 0;
#X obj 282 16 bng 23 250 50 0 empty \$0_init empty 0 -12 0 16 #fcfcfc #000000 #000000;
#X obj 327 294 f;
#X obj 282 44 t b b, f 6;
#X obj 101 151 cnv 23 178 26 empty empty empty 20 12 0 16 #a6e3a1 #000000 0;
#X symbolatom 101 153 22 0 0 0 - - - 0;
#X msg 55 314 symbol db_l-2_1;
#X msg 101 258 set symbol \$1;
#X obj 101 187 t s s b, f 13;
#X obj 306 328 d_0;
#X obj 306 361 outlet;
#X obj 55 16 loadbang;
#X obj 55 44 f \$0;
#X obj 55 112 t b f, f 37;
#X obj 145 15 inlet;
#X connect 0 0 2 0;
#X connect 1 0 8 1;
#X connect 2 0 4 0;
#X connect 2 1 1 0;
#X connect 4 0 7 0;
#X connect 5 0 4 0;
#X connect 6 0 5 0;
#X connect 7 0 6 0;
#X connect 7 1 8 0;
#X connect 7 2 1 0;
#X connect 8 0 9 0;
#X connect 10 0 11 0;
#X connect 11 0 12 0;
#X connect 12 0 5 0;
#X connect 12 1 1 1;
#X connect 13 0 4 0;
#X coords 0 -1 1 1 180 28 2 100 150;
#X restore 1049 268 pd ns_message;
#N canvas 1442 595 517 458 ns_message 0;
#X obj 282 16 bng 23 250 50 0 empty \$0_init empty 0 -12 0 16 #fcfcfc #000000 #000000;
#X obj 327 294 f;
#X obj 282 44 t b b, f 6;
#X obj 101 151 cnv 23 178 26 empty empty empty 20 12 0 16 #a6e3a1 #000000 0;
#X symbolatom 101 153 22 0 0 0 - - - 0;
#X msg 55 314 symbol da_l-2_1;
#X msg 101 258 set symbol \$1;
#X obj 101 187 t s s b, f 13;
#X obj 306 328 d_0;
#X obj 306 361 outlet;
#X obj 55 16 loadbang;
#X obj 55 44 f \$0;
#X obj 55 112 t b f, f 37;
#X obj 145 15 inlet;
#X connect 0 0 2 0;
#X connect 1 0 8 1;
#X connect 2 0 4 0;
#X connect 2 1 1 0;
#X connect 4 0 7 0;
#X connect 5 0 4 0;
#X connect 6 0 5 0;
#X connect 7 0 6 0;
#X connect 7 1 8 0;
#X connect 7 2 1 0;
#X connect 8 0 9 0;
#X connect 10 0 11 0;
#X connect 11 0 12 0;
#X connect 12 0 5 0;
#X connect 12 1 1 1;
#X connect 13 0 4 0;
#X coords 0 -1 1 1 180 28 2 100 150;
#X restore 1068 338 pd ns_message;
#N canvas 1442 595 517 458 ns_message 0;
#X obj 282 16 bng 23 250 50 0 empty \$0_init empty 0 -12 0 16 #fcfcfc #000000 #000000;
#X obj 327 294 f;
#X obj 282 44 t b b, f 6;
#X obj 101 151 cnv 23 178 26 empty empty empty 20 12 0 16 #a6e3a1 #000000 0;
#X symbolatom 101 153 22 0 0 0 - - - 0;
#X msg 55 314 symbol dz_l-2_1;
#X msg 101 258 set symbol \$1;
#X obj 101 187 t s s b, f 13;
#X obj 306 328 d_0;
#X obj 306 361 outlet;
#X obj 55 16 loadbang;
#X obj 55 44 f \$0;
#X obj 55 112 t b f, f 37;
#X obj 145 15 inlet;
#X connect 0 0 2 0;
#X connect 1 0 8 1;
#X connect 2 0 4 0;
#X connect 2 1 1 0;
#X connect 4 0 7 0;
#X connect 5 0 4 0;
#X connect 6 0 5 0;
#X connect 7 0 6 0;
#X connect 7 1 8 0;
#X connect 7 2 1 0;
#X connect 8 0 9 0;
#X connect 10 0 11 0;
#X connect 11 0 12 0;
#X connect 12 0 5 0;
#X connect 12 1 1 1;
#X connect 13 0 4 0;
#X coords 0 -1 1 1 180 28 2 100 150;
#X restore 1088 408 pd ns_message;
#N canvas 1442 595 517 458 ns_message 0;
#X obj 282 16 bng 23 250 50 0 empty \$0_init empty 0 -12 0 16 #fcfcfc #000000 #000000;
#X obj 327 294 f;
#X obj 282 44 t b b, f 6;
#X obj 101 151 cnv 23 178 26 empty empty empty 20 12 0 16 #a6e3a1 #000000 0;
#X symbolatom 101 153 22 0 0 0 - - - 0;
#X msg 55 314 symbol a_l-2_1;
#X msg 101 258 set symbol \$1;
#X obj 101 187 t s s b, f 13;
#X obj 306 328 d_0;
#X obj 306 361 outlet;
#X obj 55 16 loadbang;
#X obj 55 44 f \$0;
#X obj 55 112 t b f, f 37;
#X obj 145 15 inlet;
#X connect 0 0 2 0;
#X connect 1 0 8 1;
#X connect 2 0 4 0;
#X connect 2 1 1 0;
#X connect 4 0 7 0;
#X connect 5 0 4 0;
#X connect 6 0 5 0;
#X connect 7 0 6 0;
#X connect 7 1 8 0;
#X connect 7 2 1 0;
#X connect 8 0 9 0;
#X connect 10 0 11 0;
#X connect 11 0 12 0;
#X connect 12 0 5 0;
#X connect 12 1 1 1;
#X connect 13 0 4 0;
#X coords 0 -1 1 1 180 28 2 100 150;
#X restore 1008 64 pd ns_message;
#X obj 1008 99 spigot;
#X obj 1069 98 tgl 23 0 empty empty empty 0 -12 0 16 #40a02b #000000 #000000 0 1;
#X obj 1029 237 spigot;
#X obj 1089 236 tgl 23 0 empty empty empty 0 -12 0 16 #40a02b #000000 #000000 0 1;
#X obj 1049 307 spigot;
#X obj 1109 306 tgl 23 0 empty empty empty 0 -12 0 16 #40a02b #000000 #000000 0 1;
#X obj 1068 377 spigot;
#X obj 1128 376 tgl 23 0 empty empty empty 0 -12 0 16 #40a02b #000000 #000000 0 1;
#X obj 1088 447 spigot;
#X obj 1148 446 tgl 23 0 empty empty empty 0 -12 0 16 #40a02b #000000 #000000 0 1;
#N canvas 1442 595 517 458 ns_message 0;
#X obj 282 16 bng 23 250 50 0 empty \$0_init empty 0 -12 0 16 #fcfcfc #000000 #000000;
#X obj 327 294 f;
#X obj 282 44 t b b, f 6;
#X obj 101 151 cnv 23 178 26 empty empty empty 20 12 0 16 #a6e3a1 #000000 0;
#X symbolatom 101 153 22 0 0 0 - - - 0;
#X msg 55 314 symbol z_l-2_1;
#X msg 101 258 set symbol \$1;
#X obj 101 187 t s s b, f 13;
#X obj 306 328 d_0;
#X obj 306 361 outlet;
#X obj 55 16 loadbang;
#X obj 55 44 f \$0;
#X obj 55 112 t b f, f 37;
#X obj 145 15 inlet;
#X connect 0 0 2 0;
#X connect 1 0 8 1;
#X connect 2 0 4 0;
#X connect 2 1 1 0;
#X connect 4 0 7 0;
#X connect 5 0 4 0;
#X connect 6 0 5 0;
#X connect 7 0 6 0;
#X connect 7 1 8 0;
#X connect 7 2 1 0;
#X connect 8 0 9 0;
#X connect 10 0 11 0;
#X connect 11 0 12 0;
#X connect 12 0 5 0;
#X connect 12 1 1 1;
#X connect 13 0 4 0;
#X coords 0 -1 1 1 180 28 2 100 150;
#X restore 1018 133 pd ns_message;
#X obj 1018 168 spigot;
#X obj 1079 167 tgl 23 0 empty empty empty 0 -12 0 16 #40a02b #000000 #000000 0 1;
#N canvas 1442 595 517 458 ns_message 0;
#X obj 282 16 bng 23 250 50 0 empty \$0_init empty 0 -12 0 16 #fcfcfc #000000 #000000;
#X obj 327 294 f;
#X obj 282 44 t b b, f 6;
#X obj 101 151 cnv 23 178 26 empty empty empty 20 12 0 16 #a6e3a1 #000000 0;
#X symbolatom 101 153 22 0 0 0 - - - 0;
#X msg 55 314 symbol dw_l-2_2;
#X msg 101 258 set symbol \$1;
#X obj 101 187 t s s b, f 13;
#X obj 306 328 d_0;
#X obj 306 361 outlet;
#X obj 55 16 loadbang;
#X obj 55 44 f \$0;
#X obj 55 112 t b f, f 37;
#X obj 145 15 inlet;
#X connect 0 0 2 0;
#X connect 1 0 8 1;
#X connect 2 0 4 0;
#X connect 2 1 1 0;
#X connect 4 0 7 0;
#X connect 5 0 4 0;
#X connect 6 0 5 0;
#X connect 7 0 6 0;
#X connect 7 1 8 0;
#X connect 7 2 1 0;
#X connect 8 0 9 0;
#X connect 10 0 11 0;
#X connect 11 0 12 0;
#X connect 12 0 5 0;
#X connect 12 1 1 1;
#X connect 13 0 4 0;
#X coords 0 -1 1 1 180 28 2 100 150;
#X restore 1299 198 pd ns_message;
#N canvas 1442 595 517 458 ns_message 0;
#X obj 282 16 bng 23 250 50 0 empty \$0_init empty 0 -12 0 16 #fcfcfc #000000 #000000;
#X obj 327 294 f;
#X obj 282 44 t b b, f 6;
#X obj 101 151 cnv 23 178 26 empty empty empty 20 12 0 16 #a6e3a1 #000000 0;
#X symbolatom 101 153 22 0 0 0 - - - 0;
#X msg 55 314 symbol db_l-2_2;
#X msg 101 258 set symbol \$1;
#X obj 101 187 t s s b, f 13;
#X obj 306 328 d_0;
#X obj 306 361 outlet;
#X obj 55 16 loadbang;
#X obj 55 44 f \$0;
#X obj 55 112 t b f, f 37;
#X obj 145 15 inlet;
#X connect 0 0 2 0;
#X connect 1 0 8 1;
#X connect 2 0 4 0;
#X connect 2 1 1 0;
#X connect 4 0 7 0;
#X connect 5 0 4 0;
#X connect 6 0 5 0;
#X connect 7 0 6 0;
#X connect 7 1 8 0;
#X connect 7 2 1 0;
#X connect 8 0 9 0;
#X connect 10 0 11 0;
#X connect 11 0 12 0;
#X connect 12 0 5 0;
#X connect 12 1 1 1;
#X connect 13 0 4 0;
#X coords 0 -1 1 1 180 28 2 100 150;
#X restore 1319 268 pd ns_message;
#N canvas 1442 595 517 458 ns_message 0;
#X obj 282 16 bng 23 250 50 0 empty \$0_init empty 0 -12 0 16 #fcfcfc #000000 #000000;
#X obj 327 294 f;
#X obj 282 44 t b b, f 6;
#X obj 101 151 cnv 23 178 26 empty empty empty 20 12 0 16 #a6e3a1 #000000 0;
#X symbolatom 101 153 22 0 0 0 - - - 0;
#X msg 55 314 symbol da_l-2_2;
#X msg 101 258 set symbol \$1;
#X obj 101 187 t s s b, f 13;
#X obj 306 328 d_0;
#X obj 306 361 outlet;
#X obj 55 16 loadbang;
#X obj 55 44 f \$0;
#X obj 55 112 t b f, f 37;
#X obj 145 15 inlet;
#X connect 0 0 2 0;
#X connect 1 0 8 1;
#X connect 2 0 4 0;
#X connect 2 1 1 0;
#X connect 4 0 7 0;
#X connect 5 0 4 0;
#X connect 6 0 5 0;
#X connect 7 0 6 0;
#X connect 7 1 8 0;
#X connect 7 2 1 0;
#X connect 8 0 9 0;
#X connect 10 0 11 0;
#X connect 11 0 12 0;
#X connect 12 0 5 0;
#X connect 12 1 1 1;
#X connect 13 0 4 0;
#X coords 0 -1 1 1 180 28 2 100 150;
#X restore 1338 338 pd ns_message;
#N canvas 1442 595 517 458 ns_message 0;
#X obj 282 16 bng 23 250 50 0 empty \$0_init empty 0 -12 0 16 #fcfcfc #000000 #000000;
#X obj 327 294 f;
#X obj 282 44 t b b, f 6;
#X obj 101 151 cnv 23 178 26 empty empty empty 20 12 0 16 #a6e3a1 #000000 0;
#X symbolatom 101 153 22 0 0 0 - - - 0;
#X msg 55 314 symbol dz_l-2_2;
#X msg 101 258 set symbol \$1;
#X obj 101 187 t s s b, f 13;
#X obj 306 328 d_0;
#X obj 306 361 outlet;
#X obj 55 16 loadbang;
#X obj 55 44 f \$0;
#X obj 55 112 t b f, f 37;
#X obj 145 15 inlet;
#X connect 0 0 2 0;
#X connect 1 0 8 1;
#X connect 2 0 4 0;
#X connect 2 1 1 0;
#X connect 4 0 7 0;
#X connect 5 0 4 0;
#X connect 6 0 5 0;
#X connect 7 0 6 0;
#X connect 7 1 8 0;
#X connect 7 2 1 0;
#X connect 8 0 9 0;
#X connect 10 0 11 0;
#X connect 11 0 12 0;
#X connect 12 0 5 0;
#X connect 12 1 1 1;
#X connect 13 0 4 0;
#X coords 0 -1 1 1 180 28 2 100 150;
#X restore 1358 408 pd ns_message;
#N canvas 1442 595 517 458 ns_message 0;
#X obj 282 16 bng 23 250 50 0 empty \$0_init empty 0 -12 0 16 #fcfcfc #000000 #000000;
#X obj 327 294 f;
#X obj 282 44 t b b, f 6;
#X obj 101 151 cnv 23 178 26 empty empty empty 20 12 0 16 #a6e3a1 #000000 0;
#X symbolatom 101 153 22 0 0 0 - - - 0;
#X msg 55 314 symbol a_l-2_2;
#X msg 101 258 set symbol \$1;
#X obj 101 187 t s s b, f 13;
#X obj 306 328 d_0;
#X obj 306 361 outlet;
#X obj 55 16 loadbang;
#X obj 55 44 f \$0;
#X obj 55 112 t b f, f 37;
#X obj 145 15 inlet;
#X connect 0 0 2 0;
#X connect 1 0 8 1;
#X connect 2 0 4 0;
#X connect 2 1 1 0;
#X connect 4 0 7 0;
#X connect 5 0 4 0;
#X connect 6 0 5 0;
#X connect 7 0 6 0;
#X connect 7 1 8 0;
#X connect 7 2 1 0;
#X connect 8 0 9 0;
#X connect 10 0 11 0;
#X connect 11 0 12 0;
#X connect 12 0 5 0;
#X connect 12 1 1 1;
#X connect 13 0 4 0;
#X coords 0 -1 1 1 180 28 2 100 150;
#X restore 1278 64 pd ns_message;
#X obj 1278 99 spigot;
#X obj 1339 98 tgl 23 0 empty empty empty 0 -12 0 16 #40a02b #000000 #000000 0 1;
#X obj 1299 237 spigot;
#X obj 1359 236 tgl 23 0 empty empty empty 0 -12 0 16 #40a02b #000000 #000000 0 1;
#X obj 1319 307 spigot;
#X obj 1379 306 tgl 23 0 empty empty empty 0 -12 0 16 #40a02b #000000 #000000 0 1;
#X obj 1338 377 spigot;
#X obj 1398 376 tgl 23 0 empty empty empty 0 -12 0 16 #40a02b #000000 #000000 0 1;
#X obj 1358 447 spigot;
#X obj 1418 446 tgl 23 0 empty empty empty 0 -12 0 16 #40a02b #000000 #000000 0 1;
#N canvas 1442 595 517 458 ns_message 0;
#X obj 282 16 bng 23 250 50 0 empty \$0_init empty 0 -12 0 16 #fcfcfc #000000 #000000;
#X obj 327 294 f;
#X obj 282 44 t b b, f 6;
#X obj 101 151 cnv 23 178 26 empty empty empty 20 12 0 16 #a6e3a1 #000000 0;
#X symbolatom 101 153 22 0 0 0 - - - 0;
#X msg 55 314 symbol z_l-2_2;
#X msg 101 258 set symbol \$1;
#X obj 101 187 t s s b, f 13;
#X obj 306 328 d_0;
#X obj 306 361 outlet;
#X obj 55 16 loadbang;
#X obj 55 44 f \$0;
#X obj 55 112 t b f, f 37;
#X obj 145 15 inlet;
#X connect 0 0 2 0;
#X connect 1 0 8 1;
#X connect 2 0 4 0;
#X connect 2 1 1 0;
#X connect 4 0 7 0;
#X connect 5 0 4 0;
#X connect 6 0 5 0;
#X connect 7 0 6 0;
#X connect 7 1 8 0;
#X connect 7 2 1 0;
#X connect 8 0 9 0;
#X connect 10 0 11 0;
#X connect 11 0 12 0;
#X connect 12 0 5 0;
#X connect 12 1 1 1;
#X connect 13 0 4 0;
#X coords 0 -1 1 1 180 28 2 100 150;
#X restore 1288 133 pd ns_message;
#X obj 1288 168 spigot;
#X obj 1349 167 tgl 23 0 empty empty empty 0 -12 0 16 #40a02b #000000 #000000 0 1;
#X connect 0 0 8 0;
#X connect 2 0 10 0;
#X connect 3 0 12 0;
#X connect 4 0 14 0;
#X connect 5 0 6 0;
#X connect 6 0 1 0;
#X connect 7 0 6 1;
#X connect 8 0 1 0;
#X connect 9 0 8 1;
#X connect 10 0 1 0;
#X connect 11 0 10 1;
#X connect 12 0 1 0;
#X connect 13 0 12 1;
#X connect 14 0 1 0;
#X connect 15 0 14 1;
#X connect 16 0 23 0;
#X connect 17 0 25 0;
#X connect 18 0 27 0;
#X connect 19 0 29 0;
#X connect 20 0 21 0;
#X connect 21 0 1 0;
#X connect 22 0 21 1;
#X connect 23 0 1 0;
#X connect 24 0 23 1;
#X connect 25 0 1 0;
#X connect 26 0 25 1;
#X connect 27 0 1 0;
#X connect 28 0 27 1;
#X connect 29 0 1 0;
#X connect 30 0 29 1;
#X connect 31 0 32 0;
#X connect 32 0 1 0;
#X connect 33 0 32 1;
#X connect 34 0 35 0;
#X connect 35 0 1 0;
#X connect 36 0 35 1;
#X connect 37 0 44 0;
#X connect 38 0 46 0;
#X connect 39 0 48 0;
#X connect 40 0 50 0;
#X connect 41 0 42 0;
#X connect 42 0 1 0;
#X connect 43 0 42 1;
#X connect 44 0 1 0;
#X connect 45 0 44 1;
#X connect 46 0 1 0;
#X connect 47 0 46 1;
#X connect 48 0 1 0;
#X connect 49 0 48 1;
#X connect 50 0 1 0;
#X connect 51 0 50 1;
#X connect 52 0 53 0;
#X connect 53 0 1 0;
#X connect 54 0 53 1;
#X connect 55 0 62 0;
#X connect 56 0 64 0;
#X connect 57 0 66 0;
#X connect 58 0 68 0;
#X connect 59 0 60 0;
#X connect 60 0 1 0;
#X connect 61 0 60 1;
#X connect 62 0 1 0;
#X connect 63 0 62 1;
#X connect 64 0 1 0;
#X connect 65 0 64 1;
#X connect 66 0 1 0;
#X connect 67 0 66 1;
#X connect 68 0 1 0;
#X connect 69 0 68 1;
#X connect 70 0 71 0;
#X connect 71 0 1 0;
#X connect 72 0 71 1;
#X connect 73 0 80 0;
#X connect 74 0 82 0;
#X connect 75 0 84 0;
#X connect 76 0 86 0;
#X connect 77 0 78 0;
#X connect 78 0 1 0;
#X connect 79 0 78 1;
#X connect 80 0 1 0;
#X connect 81 0 80 1;
#X connect 82 0 1 0;
#X connect 83 0 82 1;
#X connect 84 0 1 0;
#X connect 85 0 84 1;
#X connect 86 0 1 0;
#X connect 87 0 86 1;
#X connect 88 0 89 0;
#X connect 89 0 1 0;
#X connect 90 0 89 1;
#X restore 240 294 pd reset_arrays;
#N canvas 475 167 1355 659 generate_data 0;
#X msg 66 50 16;
#X obj 91 178 until;
#X obj 132 240 + 1;
#N canvas 1442 595 517 458 ns_message 0;
#X obj 282 16 bng 23 250 50 0 empty \$0_init empty 0 -12 0 16 #fcfcfc #000000 #000000;
#X obj 327 294 f;
#X obj 282 44 t b b, f 6;
#X obj 101 151 cnv 23 178 26 empty empty empty 20 12 0 16 #a6e3a1 #000000 0;
#X symbolatom 101 153 22 0 0 0 - - - 0;
#X msg 55 314 symbol Y;
#X msg 101 258 set symbol \$1;
#X obj 101 187 t s s b, f 13;
#X obj 306 328 d_0;
#X obj 306 361 outlet;
#X obj 55 16 loadbang;
#X obj 55 44 f \$0;
#X obj 55 112 t b f, f 37;
#X obj 145 15 inlet;
#X connect 0 0 2 0;
#X connect 1 0 8 1;
#X connect 2 0 4 0;
#X connect 2 1 1 0;
#X connect 4 0 7 0;
#X connect 5 0 4 0;
#X connect 6 0 5 0;
#X connect 7 0 6 0;
#X connect 7 1 8 0;
#X connect 7 2 1 0;
#X connect 8 0 9 0;
#X connect 10 0 11 0;
#X connect 11 0 12 0;
#X connect 12 0 5 0;
#X connect 12 1 1 1;
#X connect 13 0 4 0;
#X coords 0 -1 1 1 180 28 2 100 150;
#X restore 201 540 pd ns_message;
#X obj 675 92 * 22.5;
#N canvas 1442 595 517 458 ns_message 0;
#X obj 282 16 bng 23 250 50 0 empty \$0_init empty 0 -12 0 16 #fcfcfc #000000 #000000;
#X obj 327 294 f;
#X obj 282 44 t b b, f 6;
#X obj 101 151 cnv 23 178 26 empty empty empty 20 12 0 16 #a6e3a1 #000000 0;
#X symbolatom 101 153 22 0 0 0 - - - 0;
#X msg 55 314 symbol X;
#X msg 101 258 set symbol \$1;
#X obj 101 187 t s s b, f 13;
#X obj 306 328 d_0;
#X obj 306 361 outlet;
#X obj 55 16 loadbang;
#X obj 55 44 f \$0;
#X obj 55 112 t b f, f 37;
#X obj 145 15 inlet;
#X connect 0 0 2 0;
#X connect 1 0 8 1;
#X connect 2 0 4 0;
#X connect 2 1 1 0;
#X connect 4 0 7 0;
#X connect 5 0 4 0;
#X connect 6 0 5 0;
#X connect 7 0 6 0;
#X connect 7 1 8 0;
#X connect 7 2 1 0;
#X connect 8 0 9 0;
#X connect 10 0 11 0;
#X connect 11 0 12 0;
#X connect 12 0 5 0;
#X connect 12 1 1 1;
#X connect 13 0 4 0;
#X coords 0 -1 1 1 180 28 2 100 150;
#X restore 644 502 pd ns_message;
#X obj 132 358 t f f f f, f 48;
#X obj 132 584 array set;
#X obj 391 537 array set, f 32;
#X msg 162 176 0;
#X obj 91 144 f;
#X obj 66 78 t f b f b;
#X obj 89 226 f;
#X obj 2 333 - 1;
#X floatatom 720 47 5 0 0 0 - - - 0;
#X floatatom 644 216 5 0 0 0 - - - 0;
#X obj 644 243 * 22.5;
#X floatatom 644 271 5 0 0 0 - - - 0;
#X obj 247 208 expr if($f1 > 7 \, 0.5 \, -0.5);
#X obj 675 128 cos;
#X obj 277 93 expr if($f1 > 7 \, -0.5 \, 0.5);
#X obj 129 455 expr sin($f1 * $f2);
#X obj 519 333 expr if($f1 > 7 \, -0.5 \, 0.5);
#X obj 35 -5 inlet;
#X obj 391 418 expr cos($f1 * $f2);
#X obj 521 382 nbx 5 21 -1e+37 1e+37 0 1 empty empty empty 0 -12 0 16 #fcfcfc #000000 #000000 141.55 256;
#X obj 281 418 nbx 5 21 -1e+37 1e+37 0 1 empty empty empty 0 -12 0 16 #fcfcfc #000000 #000000 37.2502 256;
#X obj 289 248 r \$0_bin_bang;
#X obj 171 307 mod 16;
#X obj 390 463 * 0.9;
#X obj 390 491 - 0.05;
#X floatatom 1167 233 5 0 15 0 - - - 0;
#X obj 802 276 expr if($f1 < $f2 \, 0.3 \, if($f1 < 11 \, 1 \, 0.5));
#X obj 855 407 expr cos($f1) * 3;
#X obj 475 463 expr if($f1 < 5 \, -0.5 \, if($f1 < 11 \, 0.1 \, -0.8));
#X connect 0 0 11 0;
#X connect 1 0 12 0;
#X connect 2 0 12 1;
#X connect 3 0 7 2;
#X connect 4 0 19 0;
#X connect 5 0 8 2;
#X connect 6 0 32 0;
#X connect 6 2 34 0;
#X connect 9 0 12 1;
#X connect 10 0 1 0;
#X connect 11 1 10 0;
#X connect 11 2 10 1;
#X connect 11 3 9 0;
#X connect 12 0 2 0;
#X connect 12 0 28 0;
#X connect 14 0 4 1;
#X connect 15 0 16 0;
#X connect 16 0 17 0;
#X connect 23 0 0 0;
#X connect 24 0 29 0;
#X connect 25 0 24 1;
#X connect 26 0 21 1;
#X connect 27 0 10 0;
#X connect 28 0 6 0;
#X connect 29 0 30 0;
#X connect 31 0 32 1;
#X restore 13 277 pd generate_data;
#X obj 13 247 bng 23 250 50 0 empty empty empty 0 -12 0 16 #fcfcfc #000000 #000000;
#X obj 2788 1074 print;
#X obj 2767 967 bng 23 250 50 0 empty empty empty 0 -12 0 16 #fcfcfc #000000 #000000;
#X obj 459 1075 nn.dz_for_g da_l-1_1 z_l-1_1 a_l-1_1 dz_l-1_1 tanh;
#X obj 459 1145 nn.dz_for_g da_l-1_2 z_l-1_2 a_l-1_2 dz_l-1_2 tanh;
#X obj 1345 595 nn.dz_for_g da_l-2_1 z_l-2_1 a_l-2_1 dz_l-2_1 tanh;
#X obj 1345 665 nn.dz_for_g da_l-2_2 z_l-2_2 a_l-2_2 dz_l-2_2 tanh;
#X obj 2790 1030 array get \$0_dw_l_1;
#X obj 2972 1068 print;
#X obj 2951 961 bng 23 250 50 0 empty empty empty 0 -12 0 16 #fcfcfc #000000 #000000;
#X obj 2974 1024 array get \$0_db_l_1;
#X obj 2317 602 tabwrite~ \$0_X;
#X obj 2382 531 metro 100;
#X obj 2385 494 tgl 23 0 empty empty empty 0 -12 0 16 #fcfcfc #000000 #000000 0 1;
#X obj 2498 418 osc~ 0.1;
#X obj 2497 582 tabwrite~ \$0_Y;
#X floatatom 2495 368 5 0 0 0 - - - 0;
#X floatatom 2333 388 5 0 0 0 - - - 0;
#X obj 2319 437 phasor~ 0.1;
#X obj 2562 511 metro;
#X obj 2533 474 tgl 23 0 empty empty empty 0 -12 0 16 #fcfcfc #000000 #000000 0 1;
#X msg 2581 460 tempo 3200 samp;
#X obj 436 62 nn.input_cycle X;
#X obj 436 29 r \$0_bin_bang;
#X obj 847 471 s \$0_prediction_L;
#X obj 627 355 s \$0_prediction_L-1_1;
#X obj 1067 355 s \$0_prediction_L-1_2;
#X obj 1345 325 nn.da_row w_l-1_1 dz_l-1_1 da_l-2_1_tmp_1 0;
#N canvas 857 363 450 300 ns 0;
#X obj 123 73 f \$0;
#X obj 123 39 loadbang;
#X obj 52 40 r \$0_ns;
#X obj 123 101 outlet;
#X connect 0 0 3 0;
#X connect 1 0 0 0;
#X connect 2 0 0 0;
#X restore 1686 359 pd ns;
#X obj 1345 395 nn.da_row w_l-1_2 dz_l-1_2 da_l-2_1_tmp_2 0;
#X obj 1345 443 nn.arrays_add da_l-2_1_tmp_1 da_l-2_1_tmp_2 da_l-2_1;
#N canvas 857 363 450 300 ns 0;
#X obj 123 73 f \$0;
#X obj 123 39 loadbang;
#X obj 52 40 r \$0_ns;
#X obj 123 101 outlet;
#X connect 0 0 3 0;
#X connect 1 0 0 0;
#X connect 2 0 0 0;
#X restore 1758 405 pd ns;
#N canvas 857 363 450 300 ns 0;
#X obj 123 73 f \$0;
#X obj 123 39 loadbang;
#X obj 52 40 r \$0_ns;
#X obj 123 101 outlet;
#X connect 0 0 3 0;
#X connect 1 0 0 0;
#X connect 2 0 0 0;
#X restore 2106 189 pd ns;
#N canvas 857 363 450 300 ns 0;
#X obj 123 73 f \$0;
#X obj 123 39 loadbang;
#X obj 52 40 r \$0_ns;
#X obj 123 101 outlet;
#X connect 0 0 3 0;
#X connect 1 0 0 0;
#X connect 2 0 0 0;
#X restore 2106 259 pd ns;
#N canvas 857 363 450 300 ns 0;
#X obj 123 73 f \$0;
#X obj 123 39 loadbang;
#X obj 52 40 r \$0_ns;
#X obj 123 101 outlet;
#X connect 0 0 3 0;
#X connect 1 0 0 0;
#X connect 2 0 0 0;
#X restore 2178 305 pd ns;
#X obj 1765 225 nn.da_row w_l-1_1 dz_l-1_1 da_l-2_2_tmp_1 1;
#X obj 1765 295 nn.da_row w_l-1_2 dz_l-1_2 da_l-2_1_tmp_2 1;
#X obj 1765 343 nn.arrays_add da_l-2_2_tmp_1 da_l-2_2_tmp_2 da_l-2_2;
#X msg 141 360 1;
#X msg 141 431 1;
#X msg 340 752 10;
#X msg 340 680 10;
#X msg 139 591 10;
#X msg 140 520 10;
#X msg 139 751 1;
#X msg 140 680 1;
#X msg 137 54 6400;
#X msg 340 590 10;
#X msg 342 519 10;
#X msg 101 118 0.36;
#X connect 2 0 6 0;
#X connect 3 0 4 0;
#X connect 5 0 202 0;
#X connect 8 0 13 0;
#X connect 9 0 12 0;
#X connect 10 0 205 0;
#X connect 13 0 9 0;
#X connect 14 0 7 0;
#X connect 15 0 13 1;
#X connect 16 0 13 1;
#X connect 17 0 13 1;
#X connect 18 0 13 1;
#X connect 19 0 13 1;
#X connect 20 0 13 1;
#X connect 21 0 13 1;
#X connect 29 0 32 2;
#X connect 29 1 34 2;
#X connect 30 0 32 1;
#X connect 30 1 34 1;
#X connect 31 0 32 3;
#X connect 32 0 42 0;
#X connect 32 1 65 1;
#X connect 32 1 181 0;
#X connect 33 0 34 3;
#X connect 34 0 65 0;
#X connect 34 1 65 2;
#X connect 34 1 182 0;
#X connect 35 0 40 0;
#X connect 35 1 30 0;
#X connect 36 0 35 2;
#X connect 37 0 38 2;
#X connect 38 0 32 0;
#X connect 38 1 29 0;
#X connect 39 0 178 2;
#X connect 40 0 38 0;
#X connect 40 1 38 1;
#X connect 41 0 40 1;
#X connect 42 0 34 0;
#X connect 44 0 65 3;
#X connect 46 0 45 0;
#X connect 48 0 47 0;
#X connect 50 0 49 0;
#X connect 52 0 51 0;
#X connect 54 0 53 0;
#X connect 56 0 55 0;
#X connect 58 0 57 0;
#X connect 60 0 59 0;
#X connect 62 0 61 0;
#X connect 64 0 63 0;
#X connect 65 1 180 0;
#X connect 67 0 68 0;
#X connect 68 0 70 0;
#X connect 69 0 68 1;
#X connect 70 0 73 0;
#X connect 71 0 70 1;
#X connect 72 0 73 1;
#X connect 73 0 75 0;
#X connect 75 0 79 0;
#X connect 78 0 75 1;
#X connect 79 0 83 0;
#X connect 80 0 79 1;
#X connect 82 0 83 1;
#X connect 83 0 159 0;
#X connect 86 0 160 1;
#X connect 87 0 159 1;
#X connect 88 0 90 1;
#X connect 90 0 92 0;
#X connect 91 0 92 1;
#X connect 92 0 96 0;
#X connect 94 0 96 1;
#X connect 95 0 97 1;
#X connect 96 0 97 0;
#X connect 97 0 100 0;
#X connect 99 0 100 1;
#X connect 100 0 102 0;
#X connect 101 0 102 1;
#X connect 102 0 183 0;
#X connect 103 0 183 1;
#X connect 107 0 162 1;
#X connect 108 0 161 1;
#X connect 109 0 112 1;
#X connect 111 0 113 1;
#X connect 112 0 113 0;
#X connect 113 0 117 0;
#X connect 115 0 117 1;
#X connect 116 0 118 1;
#X connect 117 0 118 0;
#X connect 118 0 120 0;
#X connect 120 0 125 0;
#X connect 121 0 120 2;
#X connect 122 0 120 1;
#X connect 123 0 125 2;
#X connect 124 0 125 1;
#X connect 125 0 130 0;
#X connect 126 0 130 2;
#X connect 127 0 130 1;
#X connect 128 0 131 2;
#X connect 129 0 131 1;
#X connect 130 0 131 0;
#X connect 131 0 140 0;
#X connect 132 0 140 2;
#X connect 133 0 140 1;
#X connect 134 0 141 2;
#X connect 135 0 141 1;
#X connect 136 0 142 2;
#X connect 137 0 142 1;
#X connect 138 0 143 2;
#X connect 139 0 143 1;
#X connect 140 0 141 0;
#X connect 141 0 142 0;
#X connect 142 0 143 0;
#X connect 143 0 148 0;
#X connect 144 0 148 2;
#X connect 145 0 148 1;
#X connect 146 0 149 2;
#X connect 147 0 149 1;
#X connect 148 0 149 0;
#X connect 151 0 150 1;
#X connect 152 0 150 0;
#X connect 156 0 155 0;
#X connect 158 0 163 0;
#X connect 159 0 160 0;
#X connect 160 0 90 0;
#X connect 161 0 162 0;
#X connect 162 0 112 0;
#X connect 163 0 157 0;
#X connect 165 0 166 0;
#X connect 166 0 164 0;
#X connect 169 0 168 0;
#X connect 170 0 171 0;
#X connect 172 0 170 0;
#X connect 173 0 174 0;
#X connect 175 0 171 0;
#X connect 176 0 175 0;
#X connect 177 0 175 0;
#X connect 178 0 35 0;
#X connect 178 1 35 1;
#X connect 179 0 178 0;
#X connect 183 0 185 0;
#X connect 184 0 185 1;
#X connect 185 0 186 0;
#X connect 186 0 191 0;
#X connect 187 0 186 1;
#X connect 188 0 191 1;
#X connect 189 0 192 1;
#X connect 190 0 193 1;
#X connect 191 0 192 0;
#X connect 192 0 193 0;
#X connect 193 0 161 0;
#X connect 194 0 45 1;
#X connect 195 0 47 1;
#X connect 196 0 63 1;
#X connect 197 0 61 1;
#X connect 198 0 51 1;
#X connect 199 0 49 1;
#X connect 200 0 59 1;
#X connect 201 0 57 1;
#X connect 202 0 4 1;
#X connect 203 0 55 1;
#X connect 204 0 53 1;
#X connect 205 0 11 0;
