#N canvas 4 70 1712 1332 16;
#X obj 6 5 cnv 23 400 1326 empty empty config 6 12 0 16 #eff1f5 #4c4f69 0;
#X obj 12 55 bng 40 250 50 0 empty empty init 0 -12 0 16 #89b4fa #f9e2af #4c4f69;
#X obj 83 56 tgl 40 0 empty empty run 0 -12 0 16 #a6e3a1 #f9e2af #5c5f77 0 1;
#N canvas 170 485 450 300 bin_bang 0;
#X obj 21 17 inlet start_stop;
#X obj 21 115 metro;
#X obj 21 143 s \$0_bin_bang;
#X obj 163 17 inlet tempo;
#X msg 163 50 tempo \$1 samp;
#X connect 0 0 1 0;
#X connect 1 0 2 0;
#X connect 3 0 4 0;
#X connect 4 0 1 0;
#X restore 83 104 pd bin_bang;
#X msg 141 72 64;
#X obj 141 39 r \$0_init;
#N canvas 146 607 337 212 init 0;
#X obj 26 21 inlet init;
#X obj 26 49 t b b;
#X obj 26 127 s \$0_init;
#X obj 112 127 f \$0;
#X obj 112 155 s \$0_ns;
#X obj 230 21 loadbang;
#X obj 230 49 s \$0_lb;
#X connect 0 0 1 0;
#X connect 1 0 2 0;
#X connect 1 1 3 0;
#X connect 3 0 4 0;
#X connect 5 0 6 0;
#X restore 12 104 pd init;
#N canvas 4 70 1712 1332 ns_message 0;
#X obj 328 5 bng 23 250 50 0 empty \$0_init empty 0 -12 0 16 #fcfcfc #000000 #000000;
#X obj 437 311 f;
#X obj 328 38 t b b, f 14;
#X obj 101 101 cnv 23 222 26 empty empty empty 20 12 0 16 #a6e3a1 #000000 0;
#X symbolatom 102 103 18 0 0 0 - - - 0;
#X obj 251 103 nbx 4 22 -1e+37 1e+37 0 0 empty empty empty 0 -12 0 16 #cba6f7 #000000 #000000 0 256;
#X msg 10 224 symbol foo_bar;
#X msg 10 188 set symbol \$1;
#X obj 102 145 t s s b, f 13;
#X obj 416 345 d_0;
#X obj 416 378 outlet;
#X obj 251 69 r \$0_ns;
#X obj 458 277 r \$0_ns;
#X obj 126 222 loadbang;
#X connect 0 0 2 0;
#X connect 1 0 9 1;
#X connect 2 0 4 0;
#X connect 2 1 1 0;
#X connect 4 0 8 0;
#X connect 6 0 4 0;
#X connect 7 0 6 0;
#X connect 8 0 7 0;
#X connect 8 1 9 0;
#X connect 8 2 1 0;
#X connect 9 0 10 0;
#X connect 11 0 5 0;
#X connect 12 0 1 1;
#X connect 13 0 6 0;
#X coords 0 -1 1 1 224 28 2 100 100;
#X restore 125 214 pd ns_message;
#X obj 411 5 cnv 23 3022 1326 empty empty model 6 12 0 16 #eff1f5 #4c4f69 0;
#N canvas 409 106 1083 944 arrays 0;
#X text 6 69 // lvl_1 (2 units \, 2 features);
#X obj 9 98 array define \$0_lvl_1_Z1 128;
#X obj 248 98 array define \$0_lvl_1_dZ1 128;
#X obj 9 131 array define \$0_lvl_1_A1 128;
#X obj 248 131 array define \$0_lvl_1_dA1 128;
#X text 484 112 // hmmm;
#X obj 9 159 array define \$0_lvl_1_W1 2;
#X obj 248 159 array define \$0_lvl_1_dW1 2;
#X obj 9 192 array define \$0_lvl_1_b1 1;
#X obj 248 192 array define \$0_lvl_1_db1 1;
#X text 484 250 // hmmm;
#X obj 9 236 array define \$0_lvl_1_Z2 128;
#X obj 9 269 array define \$0_lvl_1_A2 128;
#X obj 9 297 array define \$0_lvl_1_W2 2;
#X obj 9 329 array define \$0_lvl_1_b2 1;
#X obj 248 236 array define \$0_lvl_1_dZ2 128;
#X obj 248 269 array define \$0_lvl_1_dA2 128;
#X obj 248 297 array define \$0_lvl_1_dW2 2;
#X obj 248 330 array define \$0_lvl_1_db2 1;
#X text 12 364 // lvl_2 (4 units \, 2 features);
#X obj 9 391 array define \$0_lvl_2_Z1 128;
#X obj 248 391 array define \$0_lvl_2_dZ1 128;
#X obj 9 424 array define \$0_lvl_2_A1 128;
#X obj 248 424 array define \$0_lvl_2_dA1 128;
#X obj 9 452 array define \$0_lvl_2_W1 2;
#X obj 248 452 array define \$0_lvl_2_dW1 2;
#X obj 9 485 array define \$0_lvl_2_b1 1;
#X obj 248 485 array define \$0_lvl_2_db1 1;
#X obj 9 529 array define \$0_lvl_2_Z2 128;
#X obj 248 529 array define \$0_lvl_2_dZ2 128;
#X obj 9 562 array define \$0_lvl_2_A2 128;
#X obj 248 562 array define \$0_lvl_2_dA2 128;
#X obj 9 590 array define \$0_lvl_2_W2 2;
#X obj 248 590 array define \$0_lvl_2_dW2 2;
#X obj 9 622 array define \$0_lvl_2_b2 1;
#X obj 248 623 array define \$0_lvl_2_db2 1;
#X obj 9 665 array define \$0_lvl_2_Z3 128;
#X obj 248 665 array define \$0_lvl_2_dZ3 128;
#X obj 9 698 array define \$0_lvl_2_A3 128;
#X obj 248 698 array define \$0_lvl_2_dA3 128;
#X obj 9 726 array define \$0_lvl_2_W3 2;
#X obj 248 726 array define \$0_lvl_2_dW3 2;
#X obj 9 759 array define \$0_lvl_2_b3 1;
#X obj 248 759 array define \$0_lvl_2_db3 1;
#X obj 9 803 array define \$0_lvl_2_Z4 128;
#X obj 248 803 array define \$0_lvl_2_dZ4 128;
#X obj 9 836 array define \$0_lvl_2_A4 128;
#X obj 248 836 array define \$0_lvl_2_dA4 128;
#X obj 9 864 array define \$0_lvl_2_W4 2;
#X obj 248 864 array define \$0_lvl_2_dW4 2;
#X obj 9 896 array define \$0_lvl_2_b4 1;
#X obj 248 897 array define \$0_lvl_2_db4 1;
#X text 560 70 // lvl_3 (1 unit \, 4 features);
#X obj 559 98 array define \$0_lvl_3_Z1 128;
#X obj 798 98 array define \$0_lvl_3_dZ1 128;
#X obj 559 131 array define \$0_lvl_3_A1 128;
#X obj 798 131 array define \$0_lvl_3_dA1 128;
#X obj 559 159 array define \$0_lvl_3_W1 4;
#X obj 798 159 array define \$0_lvl_3_dW1 4;
#X obj 559 191 array define \$0_lvl_3_b1 1;
#X obj 799 192 array define \$0_lvl_3_db1 1;
#X text 12 8 // data: X_sig and Y defined in main patch: shape (1 \, 128);
#X obj 10 38 array define \$0_X_samp 128;
#X restore 11 153 pd arrays;
#N canvas 613 435 901 717 write_data 0;
#X obj 101 101 cnv 23 218 488 empty empty empty 20 12 0 16 #89dceb #404040 0;
#N canvas 0 50 450 250 (subpatch) 0;
#X array \$0_X_sig 128 float 2;
#X coords 0 1 128 -1 200 140 1;
#X restore 109 281 graph;
#N canvas 0 50 450 250 (subpatch) 0;
#X array \$0_Y 128 float 2;
#X coords 0 1 128 -1 200 140 1;
#X restore 109 441 graph;
#X coords 0 -1 1 1 220 490 2 100 100;
#X restore 35 424 pd write_data;
#X connect 1 0 6 0;
#X connect 2 0 3 0;
#X connect 4 0 3 1;
#X connect 5 0 4 0;
