#N canvas 0 66 3440 1340 16;
#X obj 1 -1 cnv 23 425 1320 empty empty empty 4 12 0 16 #f9e2af #4c4f69 0;
#N canvas 2021 20 945 897 arrays 0;
#X obj 35 82 array define \$0_a_l_1 16;
#X obj 35 112 array define \$0_z_l_1 16;
#X obj 35 172 array define \$0_b_l_1 1;
#X obj 35 142 array define \$0_w_l_1 2;
#X obj 315 82 array define \$0_da_l_1 16;
#X obj 315 112 array define \$0_dz_l_1 16;
#X obj 315 142 array define \$0_dw_l_1 2;
#X obj 315 172 array define \$0_db_l_1 1;
#X obj 35 232 array define \$0_a_l-1_1 16;
#X obj 35 262 array define \$0_z_l-1_1 16;
#X obj 315 232 array define \$0_da_l-1_1 16;
#X obj 315 262 array define \$0_dz_l-1_1 16;
#X obj 35 292 array define \$0_w_l-1_1 2;
#X obj 35 322 array define \$0_b_l-1_1 1;
#X obj 315 292 array define \$0_dw_l-1_1 2;
#X obj 315 322 array define \$0_db_l-1_1 1;
#X obj 35 362 array define \$0_a_l-1_2 16;
#X obj 35 392 array define \$0_z_l-1_2 16;
#X obj 35 422 array define \$0_w_l-1_2 2;
#X obj 35 452 array define \$0_b_l-1_2 1;
#X obj 315 362 array define \$0_da_l-1_2 16;
#X obj 315 392 array define \$0_dz_l-1_2 16;
#X obj 315 422 array define \$0_dw_l-1_2 2;
#X obj 315 452 array define \$0_db_l-1_2 1;
#X obj 35 531 array define \$0_a_l-2_1 16;
#X obj 35 562 array define \$0_z_l-2_1 16;
#X obj 35 622 array define \$0_b_l-2_1 1;
#X obj 315 532 array define \$0_da_l-2_1 16;
#X obj 315 562 array define \$0_dz_l-2_1 16;
#X obj 315 622 array define \$0_db_l-2_1 1;
#X obj 35 661 array define \$0_a_l-2_2 16;
#X obj 35 692 array define \$0_z_l-2_2 16;
#X obj 35 722 array define \$0_w_l-2_2 1;
#X obj 35 752 array define \$0_b_l-2_2 1;
#X obj 315 662 array define \$0_da_l-2_2 16;
#X obj 315 692 array define \$0_dz_l-2_2 16;
#X obj 316 722 array define \$0_dw_l-2_2 1;
#X obj 315 752 array define \$0_db_l-2_2 1;
#X obj 35 592 array define \$0_w_l-2_1 1;
#X obj 315 592 array define \$0_dw_l-2_1 1;
#X coords 0 897 1 896 85 30 0;
#X restore 242 262 pd arrays;
#X obj 8 36 bng 40 250 50 0 empty empty init 0 -12 0 16 #89b4fa #f9e2af #4c4f69;
#X obj 79 37 tgl 40 0 empty empty run 0 -12 0 16 #a6e3a1 #313244 #5c5f77 0 1;
#N canvas 174 521 450 300 bin_bang 0;
#X obj 21 17 inlet start_stop;
#X obj 21 115 metro;
#X obj 21 143 s \$0_bin_bang;
#X obj 163 17 inlet tempo;
#X msg 163 50 tempo \$1 samp;
#X connect 0 0 1 0;
#X connect 1 0 2 0;
#X connect 3 0 4 0;
#X connect 4 0 1 0;
#X restore 79 86 pd bin_bang;
#X msg 137 54 64;
#X obj 137 21 r \$0_init;
#N canvas 162 751 337 212 init 0;
#X obj 26 21 inlet init;
#X obj 26 49 t b b;
#X obj 26 127 s \$0_init;
#X obj 112 127 f \$0;
#X obj 112 155 s \$0_ns;
#X obj 230 21 loadbang;
#X obj 230 49 s \$0_lb;
#X connect 0 0 1 0;
#X connect 1 0 2 0;
#X connect 1 1 3 0;
#X connect 3 0 4 0;
#X connect 5 0 6 0;
#X restore 8 86 pd init;
#X obj 220 49 s \$0_m;
#X obj 221 82 r \$0_m;
#X obj 221 138 sel 0;
#X obj 8 119 r \$0_init;
#X obj 100 174 s \$0_alpha;
#X obj 221 167 s \$0_m_0;
#X obj 223 109 mod 16;
#N canvas 776 890 450 300 iterator_16 0;
#X obj 25 25 r \$0_bin_bang;
#X obj 25 73 f;
#X obj 71 71 + 1;
#X obj 25 172 outlet;
#X obj 25 125 mod 16;
#X connect 0 0 1 0;
#X connect 1 0 2 0;
#X connect 1 0 4 0;
#X connect 2 0 1 1;
#X connect 4 0 3 0;
#X restore 220 21 pd iterator_16;
#X msg 328 49 2;
#X msg 328 79 4;
#X msg 330 134 8;
#X msg 329 173 16;
#X msg 328 106 6;
#X msg 254 220 5;
#X msg 315 219 32;
#X obj 187 781 cnv 23 218 493 empty empty empty 20 12 0 16 #b4befe #404040 0;
#N canvas 0 50 450 250 (subpatch) 0;
#X array \$0_X 16 float 3;
#A 0 0 -0.611682 -0.967808 -0.91959 -0.487175 0.148779 0.722574 0.994483 0.850904 0.351823 -0.294247 -0.817383 -0.999021 -0.763276 -0.20864 0.433165;
#X coords 0 1 16 -1 200 140 1 0 0;
#X restore 195 805 graph;
#N canvas 0 50 450 250 (subpatch) 0;
#X array \$0_Y 16 float 3;
#A 0 0.5 0.5 0.5 0.5 0.5 0.5 0.5 0.5 -0.5 -0.5 -0.5 -0.5 -0.5 -0.5 -0.5 -0.5;
#X coords 0 1 16 -1 200 140 1 0 0;
#X restore 195 966 graph;
#N canvas 0 50 450 250 (subpatch) 0;
#X array \$0_Y_hat 16 float 3;
#A 0 0.00363295 -0.00837975 -0.0157976 -0.014776 -0.00585794 0.00640852 0.0165559 0.0210528 0.0187033 0.0101009 -0.00202664 -0.0126274 -0.0164608 -0.0115002 -0.000356823 0.0115483;
#X coords 0 1 16 -1 200 140 1 0 0;
#X restore 195 1126 graph;
#X obj 432 1 cnv 23 900 100 empty empty input 4 12 0 16 #babbf1 #4c4f69 0;
#X obj 436 29 r \$0_m;
#X obj 432 102 cnv 23 900 130 empty empty layer\ L\ minus\ 2 4 12 0 16 #8caaee #4c4f69 0;
#X obj 432 233 cnv 23 900 150 empty empty layer\ L\ minus\ 1 4 12 0 16 #85c1dc #4c4f69 0;
#X obj 1062 191 t f f, f 6;
#X obj 627 191 t f f, f 6;
#N canvas 857 363 450 300 ns 0;
#X obj 123 73 f \$0;
#X obj 123 39 loadbang;
#X obj 52 40 r \$0_ns;
#X obj 123 101 outlet;
#X connect 0 0 3 0;
#X connect 1 0 0 0;
#X connect 2 0 0 0;
#X restore 818 281 pd ns;
#X obj 437 312 nn.neuron_2 w_l-1_1 b_l-1_1 a_l-1_1 z_l-1_1 tanh;
#N canvas 857 363 450 300 ns 0;
#X obj 123 73 f \$0;
#X obj 123 39 loadbang;
#X obj 52 40 r \$0_ns;
#X obj 123 101 outlet;
#X connect 0 0 3 0;
#X connect 1 0 0 0;
#X connect 2 0 0 0;
#X restore 1258 278 pd ns;
#X obj 877 312 nn.neuron_2 w_l-1_2 b_l-1_2 a_l-1_2 z_l-1_2 tanh;
#X obj 437 158 nn.neuron_1 w_l-2_1 b_l-2_1 a_l-2_1 z_l-2_1 tanh;
#N canvas 857 363 450 300 ns 0;
#X obj 123 73 f \$0;
#X obj 123 39 loadbang;
#X obj 52 40 r \$0_ns;
#X obj 123 101 outlet;
#X connect 0 0 3 0;
#X connect 1 0 0 0;
#X connect 2 0 0 0;
#X restore 818 118 pd ns;
#N canvas 857 363 450 300 ns 0;
#X obj 123 73 f \$0;
#X obj 123 39 loadbang;
#X obj 52 40 r \$0_ns;
#X obj 123 101 outlet;
#X connect 0 0 3 0;
#X connect 1 0 0 0;
#X connect 2 0 0 0;
#X restore 1253 120 pd ns;
#X obj 872 158 nn.neuron_1 w_l-2_2 b_l-2_2 a_l-2_2 z_l-2_2 tanh;
#X obj 436 62 nn.input_node X;
#N canvas 857 363 450 300 ns 0;
#X obj 123 73 f \$0;
#X obj 123 39 loadbang;
#X obj 52 40 r \$0_ns;
#X obj 123 101 outlet;
#X connect 0 0 3 0;
#X connect 1 0 0 0;
#X connect 2 0 0 0;
#X restore 553 28 pd ns;
#X obj 872 62 nn.input_node X;
#N canvas 857 363 450 300 ns 0;
#X obj 123 73 f \$0;
#X obj 123 39 loadbang;
#X obj 52 40 r \$0_ns;
#X obj 123 101 outlet;
#X connect 0 0 3 0;
#X connect 1 0 0 0;
#X connect 2 0 0 0;
#X restore 989 28 pd ns;
#X obj 877 240 t f;
#X obj 432 384 cnv 23 900 110 empty empty layer\ L 4 12 0 16 #99d1db #4c4f69 0;
#N canvas 857 363 450 300 ns 0;
#X obj 123 73 f \$0;
#X obj 123 39 loadbang;
#X obj 52 40 r \$0_ns;
#X obj 123 101 outlet;
#X connect 0 0 3 0;
#X connect 1 0 0 0;
#X connect 2 0 0 0;
#X restore 1006 401 pd ns;
#X obj 15 361 nn.rand_array;
#N canvas 1442 595 517 458 ns_message 0;
#X obj 282 16 bng 23 250 50 0 empty \$0_init empty 0 -12 0 16 #fcfcfc #000000 #000000;
#X obj 327 294 f;
#X obj 282 44 t b b, f 6;
#X obj 101 151 cnv 23 178 26 empty empty empty 20 12 0 16 #a6e3a1 #000000 0;
#X symbolatom 101 153 22 0 0 0 - - - 0;
#X msg 55 314 symbol w_l_1;
#X msg 101 258 set symbol \$1;
#X obj 101 187 t s s b, f 13;
#X obj 306 328 d_0;
#X obj 306 361 outlet;
#X obj 55 16 loadbang;
#X obj 55 44 f \$0;
#X obj 55 112 t b f, f 37;
#X obj 145 15 inlet;
#X connect 0 0 2 0;
#X connect 1 0 8 1;
#X connect 2 0 4 0;
#X connect 2 1 1 0;
#X connect 4 0 7 0;
#X connect 5 0 4 0;
#X connect 6 0 5 0;
#X connect 7 0 6 0;
#X connect 7 1 8 0;
#X connect 7 2 1 0;
#X connect 8 0 9 0;
#X connect 10 0 11 0;
#X connect 11 0 12 0;
#X connect 12 0 5 0;
#X connect 12 1 1 1;
#X connect 13 0 4 0;
#X coords 0 -1 1 1 180 28 2 100 150;
#X restore 15 320 pd ns_message;
#X msg 141 360 1;
#X obj 14 432 nn.rand_array;
#N canvas 1442 595 517 458 ns_message 0;
#X obj 282 16 bng 23 250 50 0 empty \$0_init empty 0 -12 0 16 #fcfcfc #000000 #000000;
#X obj 327 294 f;
#X obj 282 44 t b b, f 6;
#X obj 101 151 cnv 23 178 26 empty empty empty 20 12 0 16 #a6e3a1 #000000 0;
#X symbolatom 101 153 22 0 0 0 - - - 0;
#X msg 55 314 symbol b_l_1;
#X msg 101 258 set symbol \$1;
#X obj 101 187 t s s b, f 13;
#X obj 306 328 d_0;
#X obj 306 361 outlet;
#X obj 55 16 loadbang;
#X obj 55 44 f \$0;
#X obj 55 112 t b f, f 37;
#X obj 145 15 inlet;
#X connect 0 0 2 0;
#X connect 1 0 8 1;
#X connect 2 0 4 0;
#X connect 2 1 1 0;
#X connect 4 0 7 0;
#X connect 5 0 4 0;
#X connect 6 0 5 0;
#X connect 7 0 6 0;
#X connect 7 1 8 0;
#X connect 7 2 1 0;
#X connect 8 0 9 0;
#X connect 10 0 11 0;
#X connect 11 0 12 0;
#X connect 12 0 5 0;
#X connect 12 1 1 1;
#X connect 13 0 4 0;
#X coords 0 -1 1 1 180 28 2 100 150;
#X restore 14 391 pd ns_message;
#X msg 140 431 1;
#X obj 14 521 nn.rand_array;
#N canvas 1442 595 517 458 ns_message 0;
#X obj 282 16 bng 23 250 50 0 empty \$0_init empty 0 -12 0 16 #fcfcfc #000000 #000000;
#X obj 327 294 f;
#X obj 282 44 t b b, f 6;
#X obj 101 151 cnv 23 178 26 empty empty empty 20 12 0 16 #a6e3a1 #000000 0;
#X symbolatom 101 153 22 0 0 0 - - - 0;
#X msg 55 314 symbol w_l-1_1;
#X msg 101 258 set symbol \$1;
#X obj 101 187 t s s b, f 13;
#X obj 306 328 d_0;
#X obj 306 361 outlet;
#X obj 55 16 loadbang;
#X obj 55 44 f \$0;
#X obj 55 112 t b f, f 37;
#X obj 145 15 inlet;
#X connect 0 0 2 0;
#X connect 1 0 8 1;
#X connect 2 0 4 0;
#X connect 2 1 1 0;
#X connect 4 0 7 0;
#X connect 5 0 4 0;
#X connect 6 0 5 0;
#X connect 7 0 6 0;
#X connect 7 1 8 0;
#X connect 7 2 1 0;
#X connect 8 0 9 0;
#X connect 10 0 11 0;
#X connect 11 0 12 0;
#X connect 12 0 5 0;
#X connect 12 1 1 1;
#X connect 13 0 4 0;
#X coords 0 -1 1 1 180 28 2 100 150;
#X restore 14 480 pd ns_message;
#X msg 140 520 1;
#X obj 13 592 nn.rand_array;
#N canvas 1442 595 517 458 ns_message 0;
#X obj 282 16 bng 23 250 50 0 empty \$0_init empty 0 -12 0 16 #fcfcfc #000000 #000000;
#X obj 327 294 f;
#X obj 282 44 t b b, f 6;
#X obj 101 151 cnv 23 178 26 empty empty empty 20 12 0 16 #a6e3a1 #000000 0;
#X symbolatom 101 153 22 0 0 0 - - - 0;
#X msg 55 314 symbol w_l-1_2;
#X msg 101 258 set symbol \$1;
#X obj 101 187 t s s b, f 13;
#X obj 306 328 d_0;
#X obj 306 361 outlet;
#X obj 55 16 loadbang;
#X obj 55 44 f \$0;
#X obj 55 112 t b f, f 37;
#X obj 145 15 inlet;
#X connect 0 0 2 0;
#X connect 1 0 8 1;
#X connect 2 0 4 0;
#X connect 2 1 1 0;
#X connect 4 0 7 0;
#X connect 5 0 4 0;
#X connect 6 0 5 0;
#X connect 7 0 6 0;
#X connect 7 1 8 0;
#X connect 7 2 1 0;
#X connect 8 0 9 0;
#X connect 10 0 11 0;
#X connect 11 0 12 0;
#X connect 12 0 5 0;
#X connect 12 1 1 1;
#X connect 13 0 4 0;
#X coords 0 -1 1 1 180 28 2 100 150;
#X restore 13 551 pd ns_message;
#X msg 139 591 1;
#X obj 214 521 nn.rand_array;
#N canvas 1442 595 517 458 ns_message 0;
#X obj 282 16 bng 23 250 50 0 empty \$0_init empty 0 -12 0 16 #fcfcfc #000000 #000000;
#X obj 327 294 f;
#X obj 282 44 t b b, f 6;
#X obj 101 151 cnv 23 178 26 empty empty empty 20 12 0 16 #a6e3a1 #000000 0;
#X symbolatom 101 153 22 0 0 0 - - - 0;
#X msg 55 314 symbol b_l-1_1;
#X msg 101 258 set symbol \$1;
#X obj 101 187 t s s b, f 13;
#X obj 306 328 d_0;
#X obj 306 361 outlet;
#X obj 55 16 loadbang;
#X obj 55 44 f \$0;
#X obj 55 112 t b f, f 37;
#X obj 145 15 inlet;
#X connect 0 0 2 0;
#X connect 1 0 8 1;
#X connect 2 0 4 0;
#X connect 2 1 1 0;
#X connect 4 0 7 0;
#X connect 5 0 4 0;
#X connect 6 0 5 0;
#X connect 7 0 6 0;
#X connect 7 1 8 0;
#X connect 7 2 1 0;
#X connect 8 0 9 0;
#X connect 10 0 11 0;
#X connect 11 0 12 0;
#X connect 12 0 5 0;
#X connect 12 1 1 1;
#X connect 13 0 4 0;
#X coords 0 -1 1 1 180 28 2 100 150;
#X restore 214 480 pd ns_message;
#X msg 340 520 1;
#X obj 213 592 nn.rand_array;
#N canvas 1442 595 517 458 ns_message 0;
#X obj 282 16 bng 23 250 50 0 empty \$0_init empty 0 -12 0 16 #fcfcfc #000000 #000000;
#X obj 327 294 f;
#X obj 282 44 t b b, f 6;
#X obj 101 151 cnv 23 178 26 empty empty empty 20 12 0 16 #a6e3a1 #000000 0;
#X symbolatom 101 153 22 0 0 0 - - - 0;
#X msg 55 314 symbol b_l-1_2;
#X msg 101 258 set symbol \$1;
#X obj 101 187 t s s b, f 13;
#X obj 306 328 d_0;
#X obj 306 361 outlet;
#X obj 55 16 loadbang;
#X obj 55 44 f \$0;
#X obj 55 112 t b f, f 37;
#X obj 145 15 inlet;
#X connect 0 0 2 0;
#X connect 1 0 8 1;
#X connect 2 0 4 0;
#X connect 2 1 1 0;
#X connect 4 0 7 0;
#X connect 5 0 4 0;
#X connect 6 0 5 0;
#X connect 7 0 6 0;
#X connect 7 1 8 0;
#X connect 7 2 1 0;
#X connect 8 0 9 0;
#X connect 10 0 11 0;
#X connect 11 0 12 0;
#X connect 12 0 5 0;
#X connect 12 1 1 1;
#X connect 13 0 4 0;
#X coords 0 -1 1 1 180 28 2 100 150;
#X restore 213 551 pd ns_message;
#X msg 339 591 1;
#X obj 14 681 nn.rand_array;
#N canvas 1442 595 517 458 ns_message 0;
#X obj 282 16 bng 23 250 50 0 empty \$0_init empty 0 -12 0 16 #fcfcfc #000000 #000000;
#X obj 327 294 f;
#X obj 282 44 t b b, f 6;
#X obj 101 151 cnv 23 178 26 empty empty empty 20 12 0 16 #a6e3a1 #000000 0;
#X symbolatom 101 153 22 0 0 0 - - - 0;
#X msg 55 314 symbol w_l-2_1;
#X msg 101 258 set symbol \$1;
#X obj 101 187 t s s b, f 13;
#X obj 306 328 d_0;
#X obj 306 361 outlet;
#X obj 55 16 loadbang;
#X obj 55 44 f \$0;
#X obj 55 112 t b f, f 37;
#X obj 145 15 inlet;
#X connect 0 0 2 0;
#X connect 1 0 8 1;
#X connect 2 0 4 0;
#X connect 2 1 1 0;
#X connect 4 0 7 0;
#X connect 5 0 4 0;
#X connect 6 0 5 0;
#X connect 7 0 6 0;
#X connect 7 1 8 0;
#X connect 7 2 1 0;
#X connect 8 0 9 0;
#X connect 10 0 11 0;
#X connect 11 0 12 0;
#X connect 12 0 5 0;
#X connect 12 1 1 1;
#X connect 13 0 4 0;
#X coords 0 -1 1 1 180 28 2 100 150;
#X restore 14 640 pd ns_message;
#X msg 140 680 1;
#X obj 13 752 nn.rand_array;
#N canvas 1442 595 517 458 ns_message 0;
#X obj 282 16 bng 23 250 50 0 empty \$0_init empty 0 -12 0 16 #fcfcfc #000000 #000000;
#X obj 327 294 f;
#X obj 282 44 t b b, f 6;
#X obj 101 151 cnv 23 178 26 empty empty empty 20 12 0 16 #a6e3a1 #000000 0;
#X symbolatom 101 153 22 0 0 0 - - - 0;
#X msg 55 314 symbol w_l-2_2;
#X msg 101 258 set symbol \$1;
#X obj 101 187 t s s b, f 13;
#X obj 306 328 d_0;
#X obj 306 361 outlet;
#X obj 55 16 loadbang;
#X obj 55 44 f \$0;
#X obj 55 112 t b f, f 37;
#X obj 145 15 inlet;
#X connect 0 0 2 0;
#X connect 1 0 8 1;
#X connect 2 0 4 0;
#X connect 2 1 1 0;
#X connect 4 0 7 0;
#X connect 5 0 4 0;
#X connect 6 0 5 0;
#X connect 7 0 6 0;
#X connect 7 1 8 0;
#X connect 7 2 1 0;
#X connect 8 0 9 0;
#X connect 10 0 11 0;
#X connect 11 0 12 0;
#X connect 12 0 5 0;
#X connect 12 1 1 1;
#X connect 13 0 4 0;
#X coords 0 -1 1 1 180 28 2 100 150;
#X restore 13 711 pd ns_message;
#X msg 139 751 1;
#X obj 214 681 nn.rand_array;
#N canvas 1442 595 517 458 ns_message 0;
#X obj 282 16 bng 23 250 50 0 empty \$0_init empty 0 -12 0 16 #fcfcfc #000000 #000000;
#X obj 327 294 f;
#X obj 282 44 t b b, f 6;
#X obj 101 151 cnv 23 178 26 empty empty empty 20 12 0 16 #a6e3a1 #000000 0;
#X symbolatom 101 153 22 0 0 0 - - - 0;
#X msg 55 314 symbol b_l-2_1;
#X msg 101 258 set symbol \$1;
#X obj 101 187 t s s b, f 13;
#X obj 306 328 d_0;
#X obj 306 361 outlet;
#X obj 55 16 loadbang;
#X obj 55 44 f \$0;
#X obj 55 112 t b f, f 37;
#X obj 145 15 inlet;
#X connect 0 0 2 0;
#X connect 1 0 8 1;
#X connect 2 0 4 0;
#X connect 2 1 1 0;
#X connect 4 0 7 0;
#X connect 5 0 4 0;
#X connect 6 0 5 0;
#X connect 7 0 6 0;
#X connect 7 1 8 0;
#X connect 7 2 1 0;
#X connect 8 0 9 0;
#X connect 10 0 11 0;
#X connect 11 0 12 0;
#X connect 12 0 5 0;
#X connect 12 1 1 1;
#X connect 13 0 4 0;
#X coords 0 -1 1 1 180 28 2 100 150;
#X restore 214 640 pd ns_message;
#X msg 340 680 1;
#X obj 213 752 nn.rand_array;
#N canvas 1442 595 517 458 ns_message 0;
#X obj 282 16 bng 23 250 50 0 empty \$0_init empty 0 -12 0 16 #fcfcfc #000000 #000000;
#X obj 327 294 f;
#X obj 282 44 t b b, f 6;
#X obj 101 151 cnv 23 178 26 empty empty empty 20 12 0 16 #a6e3a1 #000000 0;
#X symbolatom 101 153 22 0 0 0 - - - 0;
#X msg 55 314 symbol b_l-2_2;
#X msg 101 258 set symbol \$1;
#X obj 101 187 t s s b, f 13;
#X obj 306 328 d_0;
#X obj 306 361 outlet;
#X obj 55 16 loadbang;
#X obj 55 44 f \$0;
#X obj 55 112 t b f, f 37;
#X obj 145 15 inlet;
#X connect 0 0 2 0;
#X connect 1 0 8 1;
#X connect 2 0 4 0;
#X connect 2 1 1 0;
#X connect 4 0 7 0;
#X connect 5 0 4 0;
#X connect 6 0 5 0;
#X connect 7 0 6 0;
#X connect 7 1 8 0;
#X connect 7 2 1 0;
#X connect 8 0 9 0;
#X connect 10 0 11 0;
#X connect 11 0 12 0;
#X connect 12 0 5 0;
#X connect 12 1 1 1;
#X connect 13 0 4 0;
#X coords 0 -1 1 1 180 28 2 100 150;
#X restore 213 711 pd ns_message;
#X msg 339 751 1;
#X obj 689 435 nn.neuron_2 w_l_1 b_l_1 Y_hat z_l_1 tanh;
#X obj 432 495 cnv 23 900 530 empty empty backprop\ layer\ L 4 12 0 16 #e5c890 #4c4f69 0;
#X obj 459 535 r \$0_m_0;
#X obj 459 643 nn.dz_mse Y_hat Y dz_l_1, f 32;
#N canvas 857 363 450 300 ns 0;
#X obj 123 73 f \$0;
#X obj 123 39 loadbang;
#X obj 52 40 r \$0_ns;
#X obj 123 101 outlet;
#X connect 0 0 3 0;
#X connect 1 0 0 0;
#X connect 2 0 0 0;
#X restore 712 609 pd ns;
#X obj 459 703 nn.dw_1x1 dz_l_1 a_l-1_1 dw_l_1 0, f 36;
#N canvas 857 363 450 300 ns 0;
#X obj 123 73 f \$0;
#X obj 123 39 loadbang;
#X obj 52 40 r \$0_ns;
#X obj 123 101 outlet;
#X connect 0 0 3 0;
#X connect 1 0 0 0;
#X connect 2 0 0 0;
#X restore 744 670 pd ns;
#N canvas 857 363 450 300 ns 0;
#X obj 123 73 f \$0;
#X obj 123 39 loadbang;
#X obj 52 40 r \$0_ns;
#X obj 123 101 outlet;
#X connect 0 0 3 0;
#X connect 1 0 0 0;
#X connect 2 0 0 0;
#X restore 720 739 pd ns;
#X obj 459 773 nn.dw_1x1 dz_l_1 a_l-1_2 dw_l_1 1;
#X text 464 562 // MSE loss: dZ = dA x g'(Z) \; dL/dA = (A - Y) \; g'(Z) = 1 \; dZ = (A - Y) x 1 = (A - Y);
#X obj 459 832 nn.db_1x1 dz_l_1 db_l_1, f 37;
#X text 467 808 // db^[l] = 1/m x sum(dZ^[l]);
#X text 466 675 // dW^[l] = 1/m x dZ^[l]A^[l-1]T \;;
#N canvas 857 363 450 300 ns 0;
#X obj 123 73 f \$0;
#X obj 123 39 loadbang;
#X obj 52 40 r \$0_ns;
#X obj 123 101 outlet;
#X connect 0 0 3 0;
#X connect 1 0 0 0;
#X connect 2 0 0 0;
#X restore 752 800 pd ns;
#X obj 459 905 nn.da_row w_l_1 dz_l_1 da_l-1_1 0, f 34;
#N canvas 857 363 450 300 ns 0;
#X obj 123 73 f \$0;
#X obj 123 39 loadbang;
#X obj 52 40 r \$0_ns;
#X obj 123 101 outlet;
#X connect 0 0 3 0;
#X connect 1 0 0 0;
#X connect 2 0 0 0;
#X restore 728 869 pd ns;
#X text 464 880 // dA^[l-1] = W^[l]dZ^[l];
#N canvas 857 363 450 300 ns 0;
#X obj 123 73 f \$0;
#X obj 123 39 loadbang;
#X obj 52 40 r \$0_ns;
#X obj 123 101 outlet;
#X connect 0 0 3 0;
#X connect 1 0 0 0;
#X connect 2 0 0 0;
#X restore 728 939 pd ns;
#X obj 459 974 nn.da_row w_l_1 dz_l_1 da_l-1_2 1, f 34;
#X obj 432 1026 cnv 23 900 300 empty empty backprop\ layer\ L\ -\ 1 4 12 0 16 #ef9f76 #4c4f69 0;
#X obj 459 1075 nn.dz_for_g da_l-1_1 z_l-1_1 a_l-1_1 da_l-1_1 tanh;
#X text 471 1047 // dZ^[l] = dA^[l] x g^[l]'(Z^[l]);
#X obj 459 1145 nn.dz_for_g da_l-1_2 z_l-1_2 a_l-1_2 da_l-1_2 tanh;
#N canvas 857 363 450 300 ns 0;
#X obj 123 73 f \$0;
#X obj 123 39 loadbang;
#X obj 52 40 r \$0_ns;
#X obj 123 101 outlet;
#X connect 0 0 3 0;
#X connect 1 0 0 0;
#X connect 2 0 0 0;
#X restore 856 1113 pd ns;
#N canvas 857 363 450 300 ns 0;
#X obj 123 73 f \$0;
#X obj 123 39 loadbang;
#X obj 52 40 r \$0_ns;
#X obj 123 101 outlet;
#X connect 0 0 3 0;
#X connect 1 0 0 0;
#X connect 2 0 0 0;
#X restore 856 1039 pd ns;
#N canvas 857 363 450 300 ns 0;
#X obj 123 73 f \$0;
#X obj 123 39 loadbang;
#X obj 52 40 r \$0_ns;
#X obj 123 101 outlet;
#X connect 0 0 3 0;
#X connect 1 0 0 0;
#X connect 2 0 0 0;
#X restore 752 1180 pd ns;
#X text 466 1185 // dW^[l] = 1/m x dZ^[l]A^[l-1]T \;;
#X obj 459 1213 nn.dw_1x1 dz_l-1_1 a_l-2_1 dw_l-1_1 0;
#N canvas 857 363 450 300 ns 0;
#X obj 123 73 f \$0;
#X obj 123 39 loadbang;
#X obj 52 40 r \$0_ns;
#X obj 123 101 outlet;
#X connect 0 0 3 0;
#X connect 1 0 0 0;
#X connect 2 0 0 0;
#X restore 752 1250 pd ns;
#X obj 459 1283 nn.dw_1x1 dz_l-1_1 a_l-2_2 dw_l-1_1 1;
#X obj 1332 1 cnv 23 900 430 empty empty backprop\ layer\ L\ -\ 1 4 12 0 16 #ef9f76 #4c4f69 0;
#N canvas 857 363 450 300 ns 0;
#X obj 123 73 f \$0;
#X obj 123 39 loadbang;
#X obj 52 40 r \$0_ns;
#X obj 123 101 outlet;
#X connect 0 0 3 0;
#X connect 1 0 0 0;
#X connect 2 0 0 0;
#X restore 1638 32 pd ns;
#N canvas 857 363 450 300 ns 0;
#X obj 123 73 f \$0;
#X obj 123 39 loadbang;
#X obj 52 40 r \$0_ns;
#X obj 123 101 outlet;
#X connect 0 0 3 0;
#X connect 1 0 0 0;
#X connect 2 0 0 0;
#X restore 1638 102 pd ns;
#X obj 1345 65 nn.dw_1x1 dz_l-1_2 a_l-2_1 dw_l-1_2 0;
#X obj 1345 135 nn.dw_1x1 dz_l-1_2 a_l-2_2 dw_l-1_2 1;
#X text 1353 178 // db^[l] = 1/m x sum(dZ^[l]);
#N canvas 857 363 450 300 ns 0;
#X obj 123 73 f \$0;
#X obj 123 39 loadbang;
#X obj 52 40 r \$0_ns;
#X obj 123 101 outlet;
#X connect 0 0 3 0;
#X connect 1 0 0 0;
#X connect 2 0 0 0;
#X restore 1638 170 pd ns;
#X obj 1345 202 nn.db_1x1 dz_l-1_1 db_l-1_1, f 37;
#N canvas 857 363 450 300 ns 0;
#X obj 123 73 f \$0;
#X obj 123 39 loadbang;
#X obj 52 40 r \$0_ns;
#X obj 123 101 outlet;
#X connect 0 0 3 0;
#X connect 1 0 0 0;
#X connect 2 0 0 0;
#X restore 1638 231 pd ns;
#X obj 1345 263 nn.db_1x1 dz_l-1_2 db_l-1_2, f 37;
#N canvas 857 363 450 300 ns 0;
#X obj 123 73 f \$0;
#X obj 123 39 loadbang;
#X obj 52 40 r \$0_ns;
#X obj 123 101 outlet;
#X connect 0 0 3 0;
#X connect 1 0 0 0;
#X connect 2 0 0 0;
#X restore 1638 289 pd ns;
#X text 1350 300 // dA^[l-1] = W^[l]dZ^[l];
#N canvas 857 363 450 300 ns 0;
#X obj 123 73 f \$0;
#X obj 123 39 loadbang;
#X obj 52 40 r \$0_ns;
#X obj 123 101 outlet;
#X connect 0 0 3 0;
#X connect 1 0 0 0;
#X connect 2 0 0 0;
#X restore 1638 359 pd ns;
#X obj 1345 325 nn.da_row w_l-1_1 dz_l-1_1 da_l-2_1 0;
#X obj 1345 394 nn.da_row w_l-1_2 dz_l-1_2 da_l-2_2 1;
#X obj 1332 432 cnv 23 900 450 empty empty backprop\ layer\ L\ -\ 2 4 12 0 16 #f4b8e4 #4c4f69 0;
#X text 1357 467 // dZ^[l] = dA^[l] x g^[l]'(Z^[l]);
#N canvas 857 363 450 300 ns 0;
#X obj 123 73 f \$0;
#X obj 123 39 loadbang;
#X obj 52 40 r \$0_ns;
#X obj 123 101 outlet;
#X connect 0 0 3 0;
#X connect 1 0 0 0;
#X connect 2 0 0 0;
#X restore 1742 533 pd ns;
#N canvas 857 363 450 300 ns 0;
#X obj 123 73 f \$0;
#X obj 123 39 loadbang;
#X obj 52 40 r \$0_ns;
#X obj 123 101 outlet;
#X connect 0 0 3 0;
#X connect 1 0 0 0;
#X connect 2 0 0 0;
#X restore 1742 459 pd ns;
#X obj 1345 495 nn.dz_for_g da_l-2_1 z_l-2_1 a_l-2_1 da_l-2_1 tanh;
#X obj 1345 565 nn.dz_for_g da_l-2_2 z_l-2_2 a_l-2_2 da_l-2_2 tanh;
#N canvas 857 363 450 300 ns 0;
#X obj 123 73 f \$0;
#X obj 123 39 loadbang;
#X obj 52 40 r \$0_ns;
#X obj 123 101 outlet;
#X connect 0 0 3 0;
#X connect 1 0 0 0;
#X connect 2 0 0 0;
#X restore 1638 607 pd ns;
#X text 1352 612 // dW^[l] = 1/m x dZ^[l]A^[l-1]T \;;
#N canvas 857 363 450 300 ns 0;
#X obj 123 73 f \$0;
#X obj 123 39 loadbang;
#X obj 52 40 r \$0_ns;
#X obj 123 101 outlet;
#X connect 0 0 3 0;
#X connect 1 0 0 0;
#X connect 2 0 0 0;
#X restore 1638 677 pd ns;
#X obj 1345 640 nn.dw_1x1 dz_l-2_1 X dw_l-2_1 0, f 37;
#X obj 1345 710 nn.dw_1x1 dz_l-2_2 X dw_l-2_2 0, f 37;
#X text 1353 748 // db^[l] = 1/m x sum(dZ^[l]);
#N canvas 857 363 450 300 ns 0;
#X obj 123 73 f \$0;
#X obj 123 39 loadbang;
#X obj 52 40 r \$0_ns;
#X obj 123 101 outlet;
#X connect 0 0 3 0;
#X connect 1 0 0 0;
#X connect 2 0 0 0;
#X restore 1638 740 pd ns;
#N canvas 857 363 450 300 ns 0;
#X obj 123 73 f \$0;
#X obj 123 39 loadbang;
#X obj 52 40 r \$0_ns;
#X obj 123 101 outlet;
#X connect 0 0 3 0;
#X connect 1 0 0 0;
#X connect 2 0 0 0;
#X restore 1638 801 pd ns;
#X obj 1345 772 nn.db_1x1 dz_l-2_1 db_l-2_1, f 37;
#X obj 1345 833 nn.db_1x1 dz_l-2_2 db_l-2_2, f 37;
#X obj 1333 883 cnv 23 900 450 empty empty update\ params 4 12 0 16 #eebebe #4c4f69 0;
#X obj 1345 952 nn.update w_l-2_1 dw_l-2_1;
#N canvas 857 363 450 300 ns 0;
#X obj 123 73 f \$0;
#X obj 123 39 loadbang;
#X obj 52 40 r \$0_ns;
#X obj 123 101 outlet;
#X connect 0 0 3 0;
#X connect 1 0 0 0;
#X connect 2 0 0 0;
#X restore 1550 916 pd ns;
#X obj 1447 915 r \$0_alpha;
#N canvas 857 363 450 300 ns 0;
#X obj 123 73 f \$0;
#X obj 123 39 loadbang;
#X obj 52 40 r \$0_ns;
#X obj 123 101 outlet;
#X connect 0 0 3 0;
#X connect 1 0 0 0;
#X connect 2 0 0 0;
#X restore 1550 986 pd ns;
#X obj 1447 985 r \$0_alpha;
#X obj 1345 1022 nn.update b_l-2_1 db_l-2_1;
#N canvas 857 363 450 300 ns 0;
#X obj 123 73 f \$0;
#X obj 123 39 loadbang;
#X obj 52 40 r \$0_ns;
#X obj 123 101 outlet;
#X connect 0 0 3 0;
#X connect 1 0 0 0;
#X connect 2 0 0 0;
#X restore 1550 1056 pd ns;
#X obj 1447 1055 r \$0_alpha;
#N canvas 857 363 450 300 ns 0;
#X obj 123 73 f \$0;
#X obj 123 39 loadbang;
#X obj 52 40 r \$0_ns;
#X obj 123 101 outlet;
#X connect 0 0 3 0;
#X connect 1 0 0 0;
#X connect 2 0 0 0;
#X restore 1550 1126 pd ns;
#X obj 1447 1125 r \$0_alpha;
#X obj 1345 1092 nn.update w_l-2_2 dw_l-2_2;
#X obj 1345 1162 nn.update b_l-2_2 db_l-2_2;
#N canvas 857 363 450 300 ns 0;
#X obj 123 73 f \$0;
#X obj 123 39 loadbang;
#X obj 52 40 r \$0_ns;
#X obj 123 101 outlet;
#X connect 0 0 3 0;
#X connect 1 0 0 0;
#X connect 2 0 0 0;
#X restore 1820 916 pd ns;
#X obj 1717 915 r \$0_alpha;
#N canvas 857 363 450 300 ns 0;
#X obj 123 73 f \$0;
#X obj 123 39 loadbang;
#X obj 52 40 r \$0_ns;
#X obj 123 101 outlet;
#X connect 0 0 3 0;
#X connect 1 0 0 0;
#X connect 2 0 0 0;
#X restore 1820 986 pd ns;
#X obj 1717 985 r \$0_alpha;
#N canvas 857 363 450 300 ns 0;
#X obj 123 73 f \$0;
#X obj 123 39 loadbang;
#X obj 52 40 r \$0_ns;
#X obj 123 101 outlet;
#X connect 0 0 3 0;
#X connect 1 0 0 0;
#X connect 2 0 0 0;
#X restore 1820 1056 pd ns;
#X obj 1717 1055 r \$0_alpha;
#N canvas 857 363 450 300 ns 0;
#X obj 123 73 f \$0;
#X obj 123 39 loadbang;
#X obj 52 40 r \$0_ns;
#X obj 123 101 outlet;
#X connect 0 0 3 0;
#X connect 1 0 0 0;
#X connect 2 0 0 0;
#X restore 1820 1126 pd ns;
#X obj 1717 1125 r \$0_alpha;
#X obj 1615 952 nn.update w_l-1_1 dw_l-1_1;
#X obj 1615 1022 nn.update b_l-1_1 db_l-1_1;
#X obj 1615 1092 nn.update w_l-1_2 dw_l-1_2;
#X obj 1615 1162 nn.update b_l-1_2 db_l-1_2;
#N canvas 857 363 450 300 ns 0;
#X obj 123 73 f \$0;
#X obj 123 39 loadbang;
#X obj 52 40 r \$0_ns;
#X obj 123 101 outlet;
#X connect 0 0 3 0;
#X connect 1 0 0 0;
#X connect 2 0 0 0;
#X restore 2100 916 pd ns;
#X obj 1997 915 r \$0_alpha;
#N canvas 857 363 450 300 ns 0;
#X obj 123 73 f \$0;
#X obj 123 39 loadbang;
#X obj 52 40 r \$0_ns;
#X obj 123 101 outlet;
#X connect 0 0 3 0;
#X connect 1 0 0 0;
#X connect 2 0 0 0;
#X restore 2100 986 pd ns;
#X obj 1997 985 r \$0_alpha;
#X obj 1895 952 nn.update w_l_1 dw_l_1;
#X obj 1895 1022 nn.update b_l_1 db_l_1;
#N canvas 179 171 1028 961 synth 0;
#X obj 508 52 inlet;
#X obj 169 793 lop~ 5;
#X obj 162 117 phasor~;
#X obj 162 52 inlet;
#X obj 87 854 dac~;
#X obj 81 348 +~;
#X obj 160 343 *~;
#X obj 337 52 inlet;
#X obj 82 460 osc~ 220;
#X obj 86 791 *~;
#X obj 161 250 tabread~ \$0_Y_hat;
#X obj 162 176 *~ 16;
#X obj 83 251 sig~ 110;
#X obj 156 423 *~ 0.5;
#X obj 157 459 osc~ 220;
#X obj 82 518 +~;
#X obj 239 423 *~ 2;
#X obj 238 460 osc~ 220;
#X obj 81 584 *~ 0.25;
#X obj 328 460 osc~ 220;
#X obj 329 423 *~ 2.5;
#X obj 553 379 *~;
#X obj 606 379 nbx 5 21 0 1000 0 1 empty empty empty 0 -12 0 16 #fcfcfc #000000 #000000 60 256;
#X obj 85 719 bob~;
#X obj 551 307 +~ 1;
#X obj 529 251 tabread~ \$0_a_l-1_1;
#X obj 162 297 +~ 0.5;
#X obj 771 358 *~;
#X obj 824 358 nbx 5 21 0 1000 0 1 empty empty empty 0 -12 0 16 #fcfcfc #000000 #000000 1.02 256;
#X obj 769 300 +~ 1;
#X obj 771 250 tabread~ \$0_da_l-1_1;
#X obj 551 345 lop~ 5;
#X obj 550 509 +~ 440;
#X floatatom 636 511 5 0 0 0 - - - 0;
#X obj 102 678 nbx 5 21 0 1000 0 1 empty empty empty 0 -12 0 16 #fcfcfc #000000 #000000 785 256;
#X connect 0 0 1 0;
#X connect 1 0 9 1;
#X connect 2 0 11 0;
#X connect 3 0 2 0;
#X connect 5 0 8 0;
#X connect 5 0 13 0;
#X connect 5 0 16 0;
#X connect 5 0 20 0;
#X connect 6 0 5 1;
#X connect 7 0 6 1;
#X connect 8 0 15 0;
#X connect 9 0 4 0;
#X connect 9 0 4 1;
#X connect 10 0 26 0;
#X connect 11 0 10 0;
#X connect 11 0 25 0;
#X connect 11 0 30 0;
#X connect 12 0 5 0;
#X connect 13 0 14 0;
#X connect 14 0 15 0;
#X connect 15 0 18 0;
#X connect 16 0 17 0;
#X connect 17 0 15 0;
#X connect 18 0 23 0;
#X connect 19 0 15 0;
#X connect 20 0 19 0;
#X connect 21 0 32 0;
#X connect 22 0 21 1;
#X connect 23 0 9 0;
#X connect 24 0 31 0;
#X connect 25 0 24 0;
#X connect 26 0 6 0;
#X connect 28 0 27 1;
#X connect 29 0 27 0;
#X connect 30 0 29 0;
#X connect 31 0 21 0;
#X connect 33 0 32 1;
#X connect 34 0 23 1;
#X restore 1981 1135 pd synth;
#X obj 2097 1093 vsl 23 196 0.01 1 1 0 empty empty empty 0 -9 0 16 #fcfcfc #000000 #000000 0 1;
#X obj 2010 1093 nbx 5 21 -1e+37 1e+37 0 1 empty empty empty 0 -12 0 16 #fcfcfc #000000 #000000 800 256;
#X obj 1920 1094 nbx 5 21 -1e+37 1e+37 0 1 empty empty empty 0 -12 0 16 #fcfcfc #000000 #000000 0.6 256;
#N canvas 295 300 1612 695 reset_arrays 0;
#N canvas 1442 595 517 458 ns_message 0;
#X obj 282 16 bng 23 250 50 0 empty \$0_init empty 0 -12 0 16 #fcfcfc #000000 #000000;
#X obj 327 294 f;
#X obj 282 44 t b b, f 6;
#X obj 101 151 cnv 23 178 26 empty empty empty 20 12 0 16 #a6e3a1 #000000 0;
#X symbolatom 101 153 22 0 0 0 - - - 0;
#X msg 55 314 symbol dw_l_1;
#X msg 101 258 set symbol \$1;
#X obj 101 187 t s s b, f 13;
#X obj 306 328 d_0;
#X obj 306 361 outlet;
#X obj 55 16 loadbang;
#X obj 55 44 f \$0;
#X obj 55 112 t b f, f 37;
#X obj 145 15 inlet;
#X connect 0 0 2 0;
#X connect 1 0 8 1;
#X connect 2 0 4 0;
#X connect 2 1 1 0;
#X connect 4 0 7 0;
#X connect 5 0 4 0;
#X connect 6 0 5 0;
#X connect 7 0 6 0;
#X connect 7 1 8 0;
#X connect 7 2 1 0;
#X connect 8 0 9 0;
#X connect 10 0 11 0;
#X connect 11 0 12 0;
#X connect 12 0 5 0;
#X connect 12 1 1 1;
#X connect 13 0 4 0;
#X coords 0 -1 1 1 180 28 2 100 150;
#X restore 224 195 pd ns_message;
#X msg 203 588 \; \$1 const 0;
#N canvas 1442 595 517 458 ns_message 0;
#X obj 282 16 bng 23 250 50 0 empty \$0_init empty 0 -12 0 16 #fcfcfc #000000 #000000;
#X obj 327 294 f;
#X obj 282 44 t b b, f 6;
#X obj 101 151 cnv 23 178 26 empty empty empty 20 12 0 16 #a6e3a1 #000000 0;
#X symbolatom 101 153 22 0 0 0 - - - 0;
#X msg 55 314 symbol db_l_1;
#X msg 101 258 set symbol \$1;
#X obj 101 187 t s s b, f 13;
#X obj 306 328 d_0;
#X obj 306 361 outlet;
#X obj 55 16 loadbang;
#X obj 55 44 f \$0;
#X obj 55 112 t b f, f 37;
#X obj 145 15 inlet;
#X connect 0 0 2 0;
#X connect 1 0 8 1;
#X connect 2 0 4 0;
#X connect 2 1 1 0;
#X connect 4 0 7 0;
#X connect 5 0 4 0;
#X connect 6 0 5 0;
#X connect 7 0 6 0;
#X connect 7 1 8 0;
#X connect 7 2 1 0;
#X connect 8 0 9 0;
#X connect 10 0 11 0;
#X connect 11 0 12 0;
#X connect 12 0 5 0;
#X connect 12 1 1 1;
#X connect 13 0 4 0;
#X coords 0 -1 1 1 180 28 2 100 150;
#X restore 244 265 pd ns_message;
#N canvas 1442 595 517 458 ns_message 0;
#X obj 282 16 bng 23 250 50 0 empty \$0_init empty 0 -12 0 16 #fcfcfc #000000 #000000;
#X obj 327 294 f;
#X obj 282 44 t b b, f 6;
#X obj 101 151 cnv 23 178 26 empty empty empty 20 12 0 16 #a6e3a1 #000000 0;
#X symbolatom 101 153 22 0 0 0 - - - 0;
#X msg 55 314 symbol da_l_1;
#X msg 101 258 set symbol \$1;
#X obj 101 187 t s s b, f 13;
#X obj 306 328 d_0;
#X obj 306 361 outlet;
#X obj 55 16 loadbang;
#X obj 55 44 f \$0;
#X obj 55 112 t b f, f 37;
#X obj 145 15 inlet;
#X connect 0 0 2 0;
#X connect 1 0 8 1;
#X connect 2 0 4 0;
#X connect 2 1 1 0;
#X connect 4 0 7 0;
#X connect 5 0 4 0;
#X connect 6 0 5 0;
#X connect 7 0 6 0;
#X connect 7 1 8 0;
#X connect 7 2 1 0;
#X connect 8 0 9 0;
#X connect 10 0 11 0;
#X connect 11 0 12 0;
#X connect 12 0 5 0;
#X connect 12 1 1 1;
#X connect 13 0 4 0;
#X coords 0 -1 1 1 180 28 2 100 150;
#X restore 263 335 pd ns_message;
#N canvas 1442 595 517 458 ns_message 0;
#X obj 282 16 bng 23 250 50 0 empty \$0_init empty 0 -12 0 16 #fcfcfc #000000 #000000;
#X obj 327 294 f;
#X obj 282 44 t b b, f 6;
#X obj 101 151 cnv 23 178 26 empty empty empty 20 12 0 16 #a6e3a1 #000000 0;
#X symbolatom 101 153 22 0 0 0 - - - 0;
#X msg 55 314 symbol dz_l_1;
#X msg 101 258 set symbol \$1;
#X obj 101 187 t s s b, f 13;
#X obj 306 328 d_0;
#X obj 306 361 outlet;
#X obj 55 16 loadbang;
#X obj 55 44 f \$0;
#X obj 55 112 t b f, f 37;
#X obj 145 15 inlet;
#X connect 0 0 2 0;
#X connect 1 0 8 1;
#X connect 2 0 4 0;
#X connect 2 1 1 0;
#X connect 4 0 7 0;
#X connect 5 0 4 0;
#X connect 6 0 5 0;
#X connect 7 0 6 0;
#X connect 7 1 8 0;
#X connect 7 2 1 0;
#X connect 8 0 9 0;
#X connect 10 0 11 0;
#X connect 11 0 12 0;
#X connect 12 0 5 0;
#X connect 12 1 1 1;
#X connect 13 0 4 0;
#X coords 0 -1 1 1 180 28 2 100 150;
#X restore 283 405 pd ns_message;
#N canvas 1442 595 517 458 ns_message 0;
#X obj 282 16 bng 23 250 50 0 empty \$0_init empty 0 -12 0 16 #fcfcfc #000000 #000000;
#X obj 327 294 f;
#X obj 282 44 t b b, f 6;
#X obj 101 151 cnv 23 178 26 empty empty empty 20 12 0 16 #a6e3a1 #000000 0;
#X symbolatom 101 153 22 0 0 0 - - - 0;
#X msg 55 314 symbol Y_hat;
#X msg 101 258 set symbol \$1;
#X obj 101 187 t s s b, f 13;
#X obj 306 328 d_0;
#X obj 306 361 outlet;
#X obj 55 16 loadbang;
#X obj 55 44 f \$0;
#X obj 55 112 t b f, f 37;
#X obj 145 15 inlet;
#X connect 0 0 2 0;
#X connect 1 0 8 1;
#X connect 2 0 4 0;
#X connect 2 1 1 0;
#X connect 4 0 7 0;
#X connect 5 0 4 0;
#X connect 6 0 5 0;
#X connect 7 0 6 0;
#X connect 7 1 8 0;
#X connect 7 2 1 0;
#X connect 8 0 9 0;
#X connect 10 0 11 0;
#X connect 11 0 12 0;
#X connect 12 0 5 0;
#X connect 12 1 1 1;
#X connect 13 0 4 0;
#X coords 0 -1 1 1 180 28 2 100 150;
#X restore 203 56 pd ns_message;
#X obj 203 91 spigot;
#X obj 264 90 tgl 23 0 empty empty empty 0 -12 0 16 #40a02b #000000 #000000 0 1;
#X obj 224 234 spigot;
#X obj 284 233 tgl 23 0 empty empty empty 0 -12 0 16 #40a02b #000000 #000000 0 1;
#X obj 244 304 spigot;
#X obj 304 303 tgl 23 0 empty empty empty 0 -12 0 16 #40a02b #000000 #000000 0 1;
#X obj 263 374 spigot;
#X obj 323 373 tgl 23 0 empty empty empty 0 -12 0 16 #40a02b #000000 #000000 0 1;
#X obj 283 444 spigot;
#X obj 343 443 tgl 23 0 empty empty empty 0 -12 0 16 #40a02b #000000 #000000 0 1;
#N canvas 1442 595 517 458 ns_message 0;
#X obj 282 16 bng 23 250 50 0 empty \$0_init empty 0 -12 0 16 #fcfcfc #000000 #000000;
#X obj 327 294 f;
#X obj 282 44 t b b, f 6;
#X obj 101 151 cnv 23 178 26 empty empty empty 20 12 0 16 #a6e3a1 #000000 0;
#X symbolatom 101 153 22 0 0 0 - - - 0;
#X msg 55 314 symbol dw_l-1_1;
#X msg 101 258 set symbol \$1;
#X obj 101 187 t s s b, f 13;
#X obj 306 328 d_0;
#X obj 306 361 outlet;
#X obj 55 16 loadbang;
#X obj 55 44 f \$0;
#X obj 55 112 t b f, f 37;
#X obj 145 15 inlet;
#X connect 0 0 2 0;
#X connect 1 0 8 1;
#X connect 2 0 4 0;
#X connect 2 1 1 0;
#X connect 4 0 7 0;
#X connect 5 0 4 0;
#X connect 6 0 5 0;
#X connect 7 0 6 0;
#X connect 7 1 8 0;
#X connect 7 2 1 0;
#X connect 8 0 9 0;
#X connect 10 0 11 0;
#X connect 11 0 12 0;
#X connect 12 0 5 0;
#X connect 12 1 1 1;
#X connect 13 0 4 0;
#X coords 0 -1 1 1 180 28 2 100 150;
#X restore 444 190 pd ns_message;
#N canvas 1442 595 517 458 ns_message 0;
#X obj 282 16 bng 23 250 50 0 empty \$0_init empty 0 -12 0 16 #fcfcfc #000000 #000000;
#X obj 327 294 f;
#X obj 282 44 t b b, f 6;
#X obj 101 151 cnv 23 178 26 empty empty empty 20 12 0 16 #a6e3a1 #000000 0;
#X symbolatom 101 153 22 0 0 0 - - - 0;
#X msg 55 314 symbol db_l-1_1;
#X msg 101 258 set symbol \$1;
#X obj 101 187 t s s b, f 13;
#X obj 306 328 d_0;
#X obj 306 361 outlet;
#X obj 55 16 loadbang;
#X obj 55 44 f \$0;
#X obj 55 112 t b f, f 37;
#X obj 145 15 inlet;
#X connect 0 0 2 0;
#X connect 1 0 8 1;
#X connect 2 0 4 0;
#X connect 2 1 1 0;
#X connect 4 0 7 0;
#X connect 5 0 4 0;
#X connect 6 0 5 0;
#X connect 7 0 6 0;
#X connect 7 1 8 0;
#X connect 7 2 1 0;
#X connect 8 0 9 0;
#X connect 10 0 11 0;
#X connect 11 0 12 0;
#X connect 12 0 5 0;
#X connect 12 1 1 1;
#X connect 13 0 4 0;
#X coords 0 -1 1 1 180 28 2 100 150;
#X restore 464 260 pd ns_message;
#N canvas 1442 595 517 458 ns_message 0;
#X obj 282 16 bng 23 250 50 0 empty \$0_init empty 0 -12 0 16 #fcfcfc #000000 #000000;
#X obj 327 294 f;
#X obj 282 44 t b b, f 6;
#X obj 101 151 cnv 23 178 26 empty empty empty 20 12 0 16 #a6e3a1 #000000 0;
#X symbolatom 101 153 22 0 0 0 - - - 0;
#X msg 55 314 symbol da_l-1_1;
#X msg 101 258 set symbol \$1;
#X obj 101 187 t s s b, f 13;
#X obj 306 328 d_0;
#X obj 306 361 outlet;
#X obj 55 16 loadbang;
#X obj 55 44 f \$0;
#X obj 55 112 t b f, f 37;
#X obj 145 15 inlet;
#X connect 0 0 2 0;
#X connect 1 0 8 1;
#X connect 2 0 4 0;
#X connect 2 1 1 0;
#X connect 4 0 7 0;
#X connect 5 0 4 0;
#X connect 6 0 5 0;
#X connect 7 0 6 0;
#X connect 7 1 8 0;
#X connect 7 2 1 0;
#X connect 8 0 9 0;
#X connect 10 0 11 0;
#X connect 11 0 12 0;
#X connect 12 0 5 0;
#X connect 12 1 1 1;
#X connect 13 0 4 0;
#X coords 0 -1 1 1 180 28 2 100 150;
#X restore 483 330 pd ns_message;
#N canvas 1442 595 517 458 ns_message 0;
#X obj 282 16 bng 23 250 50 0 empty \$0_init empty 0 -12 0 16 #fcfcfc #000000 #000000;
#X obj 327 294 f;
#X obj 282 44 t b b, f 6;
#X obj 101 151 cnv 23 178 26 empty empty empty 20 12 0 16 #a6e3a1 #000000 0;
#X symbolatom 101 153 22 0 0 0 - - - 0;
#X msg 55 314 symbol dz_l-1_1;
#X msg 101 258 set symbol \$1;
#X obj 101 187 t s s b, f 13;
#X obj 306 328 d_0;
#X obj 306 361 outlet;
#X obj 55 16 loadbang;
#X obj 55 44 f \$0;
#X obj 55 112 t b f, f 37;
#X obj 145 15 inlet;
#X connect 0 0 2 0;
#X connect 1 0 8 1;
#X connect 2 0 4 0;
#X connect 2 1 1 0;
#X connect 4 0 7 0;
#X connect 5 0 4 0;
#X connect 6 0 5 0;
#X connect 7 0 6 0;
#X connect 7 1 8 0;
#X connect 7 2 1 0;
#X connect 8 0 9 0;
#X connect 10 0 11 0;
#X connect 11 0 12 0;
#X connect 12 0 5 0;
#X connect 12 1 1 1;
#X connect 13 0 4 0;
#X coords 0 -1 1 1 180 28 2 100 150;
#X restore 503 400 pd ns_message;
#N canvas 1442 595 517 458 ns_message 0;
#X obj 282 16 bng 23 250 50 0 empty \$0_init empty 0 -12 0 16 #fcfcfc #000000 #000000;
#X obj 327 294 f;
#X obj 282 44 t b b, f 6;
#X obj 101 151 cnv 23 178 26 empty empty empty 20 12 0 16 #a6e3a1 #000000 0;
#X symbolatom 101 153 22 0 0 0 - - - 0;
#X msg 55 314 symbol a_l-1_1;
#X msg 101 258 set symbol \$1;
#X obj 101 187 t s s b, f 13;
#X obj 306 328 d_0;
#X obj 306 361 outlet;
#X obj 55 16 loadbang;
#X obj 55 44 f \$0;
#X obj 55 112 t b f, f 37;
#X obj 145 15 inlet;
#X connect 0 0 2 0;
#X connect 1 0 8 1;
#X connect 2 0 4 0;
#X connect 2 1 1 0;
#X connect 4 0 7 0;
#X connect 5 0 4 0;
#X connect 6 0 5 0;
#X connect 7 0 6 0;
#X connect 7 1 8 0;
#X connect 7 2 1 0;
#X connect 8 0 9 0;
#X connect 10 0 11 0;
#X connect 11 0 12 0;
#X connect 12 0 5 0;
#X connect 12 1 1 1;
#X connect 13 0 4 0;
#X coords 0 -1 1 1 180 28 2 100 150;
#X restore 423 56 pd ns_message;
#X obj 423 91 spigot;
#X obj 484 90 tgl 23 0 empty empty empty 0 -12 0 16 #40a02b #000000 #000000 0 1;
#X obj 444 229 spigot;
#X obj 504 228 tgl 23 0 empty empty empty 0 -12 0 16 #40a02b #000000 #000000 0 1;
#X obj 464 299 spigot;
#X obj 524 298 tgl 23 0 empty empty empty 0 -12 0 16 #40a02b #000000 #000000 0 1;
#X obj 483 369 spigot;
#X obj 543 368 tgl 23 0 empty empty empty 0 -12 0 16 #40a02b #000000 #000000 0 1;
#X obj 503 439 spigot;
#X obj 563 438 tgl 23 0 empty empty empty 0 -12 0 16 #40a02b #000000 #000000 0 1;
#N canvas 1442 595 517 458 ns_message 0;
#X obj 282 16 bng 23 250 50 0 empty \$0_init empty 0 -12 0 16 #fcfcfc #000000 #000000;
#X obj 327 294 f;
#X obj 282 44 t b b, f 6;
#X obj 101 151 cnv 23 178 26 empty empty empty 20 12 0 16 #a6e3a1 #000000 0;
#X symbolatom 101 153 22 0 0 0 - - - 0;
#X msg 55 314 symbol z_l-1_1;
#X msg 101 258 set symbol \$1;
#X obj 101 187 t s s b, f 13;
#X obj 306 328 d_0;
#X obj 306 361 outlet;
#X obj 55 16 loadbang;
#X obj 55 44 f \$0;
#X obj 55 112 t b f, f 37;
#X obj 145 15 inlet;
#X connect 0 0 2 0;
#X connect 1 0 8 1;
#X connect 2 0 4 0;
#X connect 2 1 1 0;
#X connect 4 0 7 0;
#X connect 5 0 4 0;
#X connect 6 0 5 0;
#X connect 7 0 6 0;
#X connect 7 1 8 0;
#X connect 7 2 1 0;
#X connect 8 0 9 0;
#X connect 10 0 11 0;
#X connect 11 0 12 0;
#X connect 12 0 5 0;
#X connect 12 1 1 1;
#X connect 13 0 4 0;
#X coords 0 -1 1 1 180 28 2 100 150;
#X restore 433 125 pd ns_message;
#X obj 433 160 spigot;
#X obj 494 159 tgl 23 0 empty empty empty 0 -12 0 16 #40a02b #000000 #000000 0 1;
#N canvas 1442 595 517 458 ns_message 0;
#X obj 282 16 bng 23 250 50 0 empty \$0_init empty 0 -12 0 16 #fcfcfc #000000 #000000;
#X obj 327 294 f;
#X obj 282 44 t b b, f 6;
#X obj 101 151 cnv 23 178 26 empty empty empty 20 12 0 16 #a6e3a1 #000000 0;
#X symbolatom 101 153 22 0 0 0 - - - 0;
#X msg 55 314 symbol z_l_1;
#X msg 101 258 set symbol \$1;
#X obj 101 187 t s s b, f 13;
#X obj 306 328 d_0;
#X obj 306 361 outlet;
#X obj 55 16 loadbang;
#X obj 55 44 f \$0;
#X obj 55 112 t b f, f 37;
#X obj 145 15 inlet;
#X connect 0 0 2 0;
#X connect 1 0 8 1;
#X connect 2 0 4 0;
#X connect 2 1 1 0;
#X connect 4 0 7 0;
#X connect 5 0 4 0;
#X connect 6 0 5 0;
#X connect 7 0 6 0;
#X connect 7 1 8 0;
#X connect 7 2 1 0;
#X connect 8 0 9 0;
#X connect 10 0 11 0;
#X connect 11 0 12 0;
#X connect 12 0 5 0;
#X connect 12 1 1 1;
#X connect 13 0 4 0;
#X coords 0 -1 1 1 180 28 2 100 150;
#X restore 213 125 pd ns_message;
#X obj 213 160 spigot;
#X obj 274 159 tgl 23 0 empty empty empty 0 -12 0 16 #40a02b #000000 #000000 0 1;
#N canvas 1442 595 517 458 ns_message 0;
#X obj 282 16 bng 23 250 50 0 empty \$0_init empty 0 -12 0 16 #fcfcfc #000000 #000000;
#X obj 327 294 f;
#X obj 282 44 t b b, f 6;
#X obj 101 151 cnv 23 178 26 empty empty empty 20 12 0 16 #a6e3a1 #000000 0;
#X symbolatom 101 153 22 0 0 0 - - - 0;
#X msg 55 314 symbol dw_l-1_2;
#X msg 101 258 set symbol \$1;
#X obj 101 187 t s s b, f 13;
#X obj 306 328 d_0;
#X obj 306 361 outlet;
#X obj 55 16 loadbang;
#X obj 55 44 f \$0;
#X obj 55 112 t b f, f 37;
#X obj 145 15 inlet;
#X connect 0 0 2 0;
#X connect 1 0 8 1;
#X connect 2 0 4 0;
#X connect 2 1 1 0;
#X connect 4 0 7 0;
#X connect 5 0 4 0;
#X connect 6 0 5 0;
#X connect 7 0 6 0;
#X connect 7 1 8 0;
#X connect 7 2 1 0;
#X connect 8 0 9 0;
#X connect 10 0 11 0;
#X connect 11 0 12 0;
#X connect 12 0 5 0;
#X connect 12 1 1 1;
#X connect 13 0 4 0;
#X coords 0 -1 1 1 180 28 2 100 150;
#X restore 719 190 pd ns_message;
#N canvas 1442 595 517 458 ns_message 0;
#X obj 282 16 bng 23 250 50 0 empty \$0_init empty 0 -12 0 16 #fcfcfc #000000 #000000;
#X obj 327 294 f;
#X obj 282 44 t b b, f 6;
#X obj 101 151 cnv 23 178 26 empty empty empty 20 12 0 16 #a6e3a1 #000000 0;
#X symbolatom 101 153 22 0 0 0 - - - 0;
#X msg 55 314 symbol db_l-1_2;
#X msg 101 258 set symbol \$1;
#X obj 101 187 t s s b, f 13;
#X obj 306 328 d_0;
#X obj 306 361 outlet;
#X obj 55 16 loadbang;
#X obj 55 44 f \$0;
#X obj 55 112 t b f, f 37;
#X obj 145 15 inlet;
#X connect 0 0 2 0;
#X connect 1 0 8 1;
#X connect 2 0 4 0;
#X connect 2 1 1 0;
#X connect 4 0 7 0;
#X connect 5 0 4 0;
#X connect 6 0 5 0;
#X connect 7 0 6 0;
#X connect 7 1 8 0;
#X connect 7 2 1 0;
#X connect 8 0 9 0;
#X connect 10 0 11 0;
#X connect 11 0 12 0;
#X connect 12 0 5 0;
#X connect 12 1 1 1;
#X connect 13 0 4 0;
#X coords 0 -1 1 1 180 28 2 100 150;
#X restore 739 260 pd ns_message;
#N canvas 1442 595 517 458 ns_message 0;
#X obj 282 16 bng 23 250 50 0 empty \$0_init empty 0 -12 0 16 #fcfcfc #000000 #000000;
#X obj 327 294 f;
#X obj 282 44 t b b, f 6;
#X obj 101 151 cnv 23 178 26 empty empty empty 20 12 0 16 #a6e3a1 #000000 0;
#X symbolatom 101 153 22 0 0 0 - - - 0;
#X msg 55 314 symbol da_l-2_2;
#X msg 101 258 set symbol \$1;
#X obj 101 187 t s s b, f 13;
#X obj 306 328 d_0;
#X obj 306 361 outlet;
#X obj 55 16 loadbang;
#X obj 55 44 f \$0;
#X obj 55 112 t b f, f 37;
#X obj 145 15 inlet;
#X connect 0 0 2 0;
#X connect 1 0 8 1;
#X connect 2 0 4 0;
#X connect 2 1 1 0;
#X connect 4 0 7 0;
#X connect 5 0 4 0;
#X connect 6 0 5 0;
#X connect 7 0 6 0;
#X connect 7 1 8 0;
#X connect 7 2 1 0;
#X connect 8 0 9 0;
#X connect 10 0 11 0;
#X connect 11 0 12 0;
#X connect 12 0 5 0;
#X connect 12 1 1 1;
#X connect 13 0 4 0;
#X coords 0 -1 1 1 180 28 2 100 150;
#X restore 758 330 pd ns_message;
#N canvas 1442 595 517 458 ns_message 0;
#X obj 282 16 bng 23 250 50 0 empty \$0_init empty 0 -12 0 16 #fcfcfc #000000 #000000;
#X obj 327 294 f;
#X obj 282 44 t b b, f 6;
#X obj 101 151 cnv 23 178 26 empty empty empty 20 12 0 16 #a6e3a1 #000000 0;
#X symbolatom 101 153 22 0 0 0 - - - 0;
#X msg 55 314 symbol db_l-1_2;
#X msg 101 258 set symbol \$1;
#X obj 101 187 t s s b, f 13;
#X obj 306 328 d_0;
#X obj 306 361 outlet;
#X obj 55 16 loadbang;
#X obj 55 44 f \$0;
#X obj 55 112 t b f, f 37;
#X obj 145 15 inlet;
#X connect 0 0 2 0;
#X connect 1 0 8 1;
#X connect 2 0 4 0;
#X connect 2 1 1 0;
#X connect 4 0 7 0;
#X connect 5 0 4 0;
#X connect 6 0 5 0;
#X connect 7 0 6 0;
#X connect 7 1 8 0;
#X connect 7 2 1 0;
#X connect 8 0 9 0;
#X connect 10 0 11 0;
#X connect 11 0 12 0;
#X connect 12 0 5 0;
#X connect 12 1 1 1;
#X connect 13 0 4 0;
#X coords 0 -1 1 1 180 28 2 100 150;
#X restore 778 400 pd ns_message;
#N canvas 1442 595 517 458 ns_message 0;
#X obj 282 16 bng 23 250 50 0 empty \$0_init empty 0 -12 0 16 #fcfcfc #000000 #000000;
#X obj 327 294 f;
#X obj 282 44 t b b, f 6;
#X obj 101 151 cnv 23 178 26 empty empty empty 20 12 0 16 #a6e3a1 #000000 0;
#X symbolatom 101 153 22 0 0 0 - - - 0;
#X msg 55 314 symbol a_l-1_2;
#X msg 101 258 set symbol \$1;
#X obj 101 187 t s s b, f 13;
#X obj 306 328 d_0;
#X obj 306 361 outlet;
#X obj 55 16 loadbang;
#X obj 55 44 f \$0;
#X obj 55 112 t b f, f 37;
#X obj 145 15 inlet;
#X connect 0 0 2 0;
#X connect 1 0 8 1;
#X connect 2 0 4 0;
#X connect 2 1 1 0;
#X connect 4 0 7 0;
#X connect 5 0 4 0;
#X connect 6 0 5 0;
#X connect 7 0 6 0;
#X connect 7 1 8 0;
#X connect 7 2 1 0;
#X connect 8 0 9 0;
#X connect 10 0 11 0;
#X connect 11 0 12 0;
#X connect 12 0 5 0;
#X connect 12 1 1 1;
#X connect 13 0 4 0;
#X coords 0 -1 1 1 180 28 2 100 150;
#X restore 698 56 pd ns_message;
#X obj 698 91 spigot;
#X obj 759 90 tgl 23 0 empty empty empty 0 -12 0 16 #40a02b #000000 #000000 0 1;
#X obj 719 229 spigot;
#X obj 779 228 tgl 23 0 empty empty empty 0 -12 0 16 #40a02b #000000 #000000 0 1;
#X obj 739 299 spigot;
#X obj 799 298 tgl 23 0 empty empty empty 0 -12 0 16 #40a02b #000000 #000000 0 1;
#X obj 758 369 spigot;
#X obj 818 368 tgl 23 0 empty empty empty 0 -12 0 16 #40a02b #000000 #000000 0 1;
#X obj 778 439 spigot;
#X obj 838 438 tgl 23 0 empty empty empty 0 -12 0 16 #40a02b #000000 #000000 0 1;
#N canvas 1442 595 517 458 ns_message 0;
#X obj 282 16 bng 23 250 50 0 empty \$0_init empty 0 -12 0 16 #fcfcfc #000000 #000000;
#X obj 327 294 f;
#X obj 282 44 t b b, f 6;
#X obj 101 151 cnv 23 178 26 empty empty empty 20 12 0 16 #a6e3a1 #000000 0;
#X symbolatom 101 153 22 0 0 0 - - - 0;
#X msg 55 314 symbol z_l-1_2;
#X msg 101 258 set symbol \$1;
#X obj 101 187 t s s b, f 13;
#X obj 306 328 d_0;
#X obj 306 361 outlet;
#X obj 55 16 loadbang;
#X obj 55 44 f \$0;
#X obj 55 112 t b f, f 37;
#X obj 145 15 inlet;
#X connect 0 0 2 0;
#X connect 1 0 8 1;
#X connect 2 0 4 0;
#X connect 2 1 1 0;
#X connect 4 0 7 0;
#X connect 5 0 4 0;
#X connect 6 0 5 0;
#X connect 7 0 6 0;
#X connect 7 1 8 0;
#X connect 7 2 1 0;
#X connect 8 0 9 0;
#X connect 10 0 11 0;
#X connect 11 0 12 0;
#X connect 12 0 5 0;
#X connect 12 1 1 1;
#X connect 13 0 4 0;
#X coords 0 -1 1 1 180 28 2 100 150;
#X restore 708 125 pd ns_message;
#X obj 708 160 spigot;
#X obj 769 159 tgl 23 0 empty empty empty 0 -12 0 16 #40a02b #000000 #000000 0 1;
#N canvas 1442 595 517 458 ns_message 0;
#X obj 282 16 bng 23 250 50 0 empty \$0_init empty 0 -12 0 16 #fcfcfc #000000 #000000;
#X obj 327 294 f;
#X obj 282 44 t b b, f 6;
#X obj 101 151 cnv 23 178 26 empty empty empty 20 12 0 16 #a6e3a1 #000000 0;
#X symbolatom 101 153 22 0 0 0 - - - 0;
#X msg 55 314 symbol dw_l-2_1;
#X msg 101 258 set symbol \$1;
#X obj 101 187 t s s b, f 13;
#X obj 306 328 d_0;
#X obj 306 361 outlet;
#X obj 55 16 loadbang;
#X obj 55 44 f \$0;
#X obj 55 112 t b f, f 37;
#X obj 145 15 inlet;
#X connect 0 0 2 0;
#X connect 1 0 8 1;
#X connect 2 0 4 0;
#X connect 2 1 1 0;
#X connect 4 0 7 0;
#X connect 5 0 4 0;
#X connect 6 0 5 0;
#X connect 7 0 6 0;
#X connect 7 1 8 0;
#X connect 7 2 1 0;
#X connect 8 0 9 0;
#X connect 10 0 11 0;
#X connect 11 0 12 0;
#X connect 12 0 5 0;
#X connect 12 1 1 1;
#X connect 13 0 4 0;
#X coords 0 -1 1 1 180 28 2 100 150;
#X restore 1029 198 pd ns_message;
#N canvas 1442 595 517 458 ns_message 0;
#X obj 282 16 bng 23 250 50 0 empty \$0_init empty 0 -12 0 16 #fcfcfc #000000 #000000;
#X obj 327 294 f;
#X obj 282 44 t b b, f 6;
#X obj 101 151 cnv 23 178 26 empty empty empty 20 12 0 16 #a6e3a1 #000000 0;
#X symbolatom 101 153 22 0 0 0 - - - 0;
#X msg 55 314 symbol db_l-2_1;
#X msg 101 258 set symbol \$1;
#X obj 101 187 t s s b, f 13;
#X obj 306 328 d_0;
#X obj 306 361 outlet;
#X obj 55 16 loadbang;
#X obj 55 44 f \$0;
#X obj 55 112 t b f, f 37;
#X obj 145 15 inlet;
#X connect 0 0 2 0;
#X connect 1 0 8 1;
#X connect 2 0 4 0;
#X connect 2 1 1 0;
#X connect 4 0 7 0;
#X connect 5 0 4 0;
#X connect 6 0 5 0;
#X connect 7 0 6 0;
#X connect 7 1 8 0;
#X connect 7 2 1 0;
#X connect 8 0 9 0;
#X connect 10 0 11 0;
#X connect 11 0 12 0;
#X connect 12 0 5 0;
#X connect 12 1 1 1;
#X connect 13 0 4 0;
#X coords 0 -1 1 1 180 28 2 100 150;
#X restore 1049 268 pd ns_message;
#N canvas 1442 595 517 458 ns_message 0;
#X obj 282 16 bng 23 250 50 0 empty \$0_init empty 0 -12 0 16 #fcfcfc #000000 #000000;
#X obj 327 294 f;
#X obj 282 44 t b b, f 6;
#X obj 101 151 cnv 23 178 26 empty empty empty 20 12 0 16 #a6e3a1 #000000 0;
#X symbolatom 101 153 22 0 0 0 - - - 0;
#X msg 55 314 symbol da_l-2_1;
#X msg 101 258 set symbol \$1;
#X obj 101 187 t s s b, f 13;
#X obj 306 328 d_0;
#X obj 306 361 outlet;
#X obj 55 16 loadbang;
#X obj 55 44 f \$0;
#X obj 55 112 t b f, f 37;
#X obj 145 15 inlet;
#X connect 0 0 2 0;
#X connect 1 0 8 1;
#X connect 2 0 4 0;
#X connect 2 1 1 0;
#X connect 4 0 7 0;
#X connect 5 0 4 0;
#X connect 6 0 5 0;
#X connect 7 0 6 0;
#X connect 7 1 8 0;
#X connect 7 2 1 0;
#X connect 8 0 9 0;
#X connect 10 0 11 0;
#X connect 11 0 12 0;
#X connect 12 0 5 0;
#X connect 12 1 1 1;
#X connect 13 0 4 0;
#X coords 0 -1 1 1 180 28 2 100 150;
#X restore 1068 338 pd ns_message;
#N canvas 1442 595 517 458 ns_message 0;
#X obj 282 16 bng 23 250 50 0 empty \$0_init empty 0 -12 0 16 #fcfcfc #000000 #000000;
#X obj 327 294 f;
#X obj 282 44 t b b, f 6;
#X obj 101 151 cnv 23 178 26 empty empty empty 20 12 0 16 #a6e3a1 #000000 0;
#X symbolatom 101 153 22 0 0 0 - - - 0;
#X msg 55 314 symbol dz_l-2_1;
#X msg 101 258 set symbol \$1;
#X obj 101 187 t s s b, f 13;
#X obj 306 328 d_0;
#X obj 306 361 outlet;
#X obj 55 16 loadbang;
#X obj 55 44 f \$0;
#X obj 55 112 t b f, f 37;
#X obj 145 15 inlet;
#X connect 0 0 2 0;
#X connect 1 0 8 1;
#X connect 2 0 4 0;
#X connect 2 1 1 0;
#X connect 4 0 7 0;
#X connect 5 0 4 0;
#X connect 6 0 5 0;
#X connect 7 0 6 0;
#X connect 7 1 8 0;
#X connect 7 2 1 0;
#X connect 8 0 9 0;
#X connect 10 0 11 0;
#X connect 11 0 12 0;
#X connect 12 0 5 0;
#X connect 12 1 1 1;
#X connect 13 0 4 0;
#X coords 0 -1 1 1 180 28 2 100 150;
#X restore 1088 408 pd ns_message;
#N canvas 1442 595 517 458 ns_message 0;
#X obj 282 16 bng 23 250 50 0 empty \$0_init empty 0 -12 0 16 #fcfcfc #000000 #000000;
#X obj 327 294 f;
#X obj 282 44 t b b, f 6;
#X obj 101 151 cnv 23 178 26 empty empty empty 20 12 0 16 #a6e3a1 #000000 0;
#X symbolatom 101 153 22 0 0 0 - - - 0;
#X msg 55 314 symbol a_l-2_1;
#X msg 101 258 set symbol \$1;
#X obj 101 187 t s s b, f 13;
#X obj 306 328 d_0;
#X obj 306 361 outlet;
#X obj 55 16 loadbang;
#X obj 55 44 f \$0;
#X obj 55 112 t b f, f 37;
#X obj 145 15 inlet;
#X connect 0 0 2 0;
#X connect 1 0 8 1;
#X connect 2 0 4 0;
#X connect 2 1 1 0;
#X connect 4 0 7 0;
#X connect 5 0 4 0;
#X connect 6 0 5 0;
#X connect 7 0 6 0;
#X connect 7 1 8 0;
#X connect 7 2 1 0;
#X connect 8 0 9 0;
#X connect 10 0 11 0;
#X connect 11 0 12 0;
#X connect 12 0 5 0;
#X connect 12 1 1 1;
#X connect 13 0 4 0;
#X coords 0 -1 1 1 180 28 2 100 150;
#X restore 1008 64 pd ns_message;
#X obj 1008 99 spigot;
#X obj 1069 98 tgl 23 0 empty empty empty 0 -12 0 16 #40a02b #000000 #000000 0 1;
#X obj 1029 237 spigot;
#X obj 1089 236 tgl 23 0 empty empty empty 0 -12 0 16 #40a02b #000000 #000000 0 1;
#X obj 1049 307 spigot;
#X obj 1109 306 tgl 23 0 empty empty empty 0 -12 0 16 #40a02b #000000 #000000 0 1;
#X obj 1068 377 spigot;
#X obj 1128 376 tgl 23 0 empty empty empty 0 -12 0 16 #40a02b #000000 #000000 0 1;
#X obj 1088 447 spigot;
#X obj 1148 446 tgl 23 0 empty empty empty 0 -12 0 16 #40a02b #000000 #000000 0 1;
#N canvas 1442 595 517 458 ns_message 0;
#X obj 282 16 bng 23 250 50 0 empty \$0_init empty 0 -12 0 16 #fcfcfc #000000 #000000;
#X obj 327 294 f;
#X obj 282 44 t b b, f 6;
#X obj 101 151 cnv 23 178 26 empty empty empty 20 12 0 16 #a6e3a1 #000000 0;
#X symbolatom 101 153 22 0 0 0 - - - 0;
#X msg 55 314 symbol z_l-2_1;
#X msg 101 258 set symbol \$1;
#X obj 101 187 t s s b, f 13;
#X obj 306 328 d_0;
#X obj 306 361 outlet;
#X obj 55 16 loadbang;
#X obj 55 44 f \$0;
#X obj 55 112 t b f, f 37;
#X obj 145 15 inlet;
#X connect 0 0 2 0;
#X connect 1 0 8 1;
#X connect 2 0 4 0;
#X connect 2 1 1 0;
#X connect 4 0 7 0;
#X connect 5 0 4 0;
#X connect 6 0 5 0;
#X connect 7 0 6 0;
#X connect 7 1 8 0;
#X connect 7 2 1 0;
#X connect 8 0 9 0;
#X connect 10 0 11 0;
#X connect 11 0 12 0;
#X connect 12 0 5 0;
#X connect 12 1 1 1;
#X connect 13 0 4 0;
#X coords 0 -1 1 1 180 28 2 100 150;
#X restore 1018 133 pd ns_message;
#X obj 1018 168 spigot;
#X obj 1079 167 tgl 23 0 empty empty empty 0 -12 0 16 #40a02b #000000 #000000 0 1;
#N canvas 1442 595 517 458 ns_message 0;
#X obj 282 16 bng 23 250 50 0 empty \$0_init empty 0 -12 0 16 #fcfcfc #000000 #000000;
#X obj 327 294 f;
#X obj 282 44 t b b, f 6;
#X obj 101 151 cnv 23 178 26 empty empty empty 20 12 0 16 #a6e3a1 #000000 0;
#X symbolatom 101 153 22 0 0 0 - - - 0;
#X msg 55 314 symbol dw_l-2_2;
#X msg 101 258 set symbol \$1;
#X obj 101 187 t s s b, f 13;
#X obj 306 328 d_0;
#X obj 306 361 outlet;
#X obj 55 16 loadbang;
#X obj 55 44 f \$0;
#X obj 55 112 t b f, f 37;
#X obj 145 15 inlet;
#X connect 0 0 2 0;
#X connect 1 0 8 1;
#X connect 2 0 4 0;
#X connect 2 1 1 0;
#X connect 4 0 7 0;
#X connect 5 0 4 0;
#X connect 6 0 5 0;
#X connect 7 0 6 0;
#X connect 7 1 8 0;
#X connect 7 2 1 0;
#X connect 8 0 9 0;
#X connect 10 0 11 0;
#X connect 11 0 12 0;
#X connect 12 0 5 0;
#X connect 12 1 1 1;
#X connect 13 0 4 0;
#X coords 0 -1 1 1 180 28 2 100 150;
#X restore 1299 198 pd ns_message;
#N canvas 1442 595 517 458 ns_message 0;
#X obj 282 16 bng 23 250 50 0 empty \$0_init empty 0 -12 0 16 #fcfcfc #000000 #000000;
#X obj 327 294 f;
#X obj 282 44 t b b, f 6;
#X obj 101 151 cnv 23 178 26 empty empty empty 20 12 0 16 #a6e3a1 #000000 0;
#X symbolatom 101 153 22 0 0 0 - - - 0;
#X msg 55 314 symbol db_l-2_2;
#X msg 101 258 set symbol \$1;
#X obj 101 187 t s s b, f 13;
#X obj 306 328 d_0;
#X obj 306 361 outlet;
#X obj 55 16 loadbang;
#X obj 55 44 f \$0;
#X obj 55 112 t b f, f 37;
#X obj 145 15 inlet;
#X connect 0 0 2 0;
#X connect 1 0 8 1;
#X connect 2 0 4 0;
#X connect 2 1 1 0;
#X connect 4 0 7 0;
#X connect 5 0 4 0;
#X connect 6 0 5 0;
#X connect 7 0 6 0;
#X connect 7 1 8 0;
#X connect 7 2 1 0;
#X connect 8 0 9 0;
#X connect 10 0 11 0;
#X connect 11 0 12 0;
#X connect 12 0 5 0;
#X connect 12 1 1 1;
#X connect 13 0 4 0;
#X coords 0 -1 1 1 180 28 2 100 150;
#X restore 1319 268 pd ns_message;
#N canvas 1442 595 517 458 ns_message 0;
#X obj 282 16 bng 23 250 50 0 empty \$0_init empty 0 -12 0 16 #fcfcfc #000000 #000000;
#X obj 327 294 f;
#X obj 282 44 t b b, f 6;
#X obj 101 151 cnv 23 178 26 empty empty empty 20 12 0 16 #a6e3a1 #000000 0;
#X symbolatom 101 153 22 0 0 0 - - - 0;
#X msg 55 314 symbol da_l-2_2;
#X msg 101 258 set symbol \$1;
#X obj 101 187 t s s b, f 13;
#X obj 306 328 d_0;
#X obj 306 361 outlet;
#X obj 55 16 loadbang;
#X obj 55 44 f \$0;
#X obj 55 112 t b f, f 37;
#X obj 145 15 inlet;
#X connect 0 0 2 0;
#X connect 1 0 8 1;
#X connect 2 0 4 0;
#X connect 2 1 1 0;
#X connect 4 0 7 0;
#X connect 5 0 4 0;
#X connect 6 0 5 0;
#X connect 7 0 6 0;
#X connect 7 1 8 0;
#X connect 7 2 1 0;
#X connect 8 0 9 0;
#X connect 10 0 11 0;
#X connect 11 0 12 0;
#X connect 12 0 5 0;
#X connect 12 1 1 1;
#X connect 13 0 4 0;
#X coords 0 -1 1 1 180 28 2 100 150;
#X restore 1338 338 pd ns_message;
#N canvas 1442 595 517 458 ns_message 0;
#X obj 282 16 bng 23 250 50 0 empty \$0_init empty 0 -12 0 16 #fcfcfc #000000 #000000;
#X obj 327 294 f;
#X obj 282 44 t b b, f 6;
#X obj 101 151 cnv 23 178 26 empty empty empty 20 12 0 16 #a6e3a1 #000000 0;
#X symbolatom 101 153 22 0 0 0 - - - 0;
#X msg 55 314 symbol dz_l-2_2;
#X msg 101 258 set symbol \$1;
#X obj 101 187 t s s b, f 13;
#X obj 306 328 d_0;
#X obj 306 361 outlet;
#X obj 55 16 loadbang;
#X obj 55 44 f \$0;
#X obj 55 112 t b f, f 37;
#X obj 145 15 inlet;
#X connect 0 0 2 0;
#X connect 1 0 8 1;
#X connect 2 0 4 0;
#X connect 2 1 1 0;
#X connect 4 0 7 0;
#X connect 5 0 4 0;
#X connect 6 0 5 0;
#X connect 7 0 6 0;
#X connect 7 1 8 0;
#X connect 7 2 1 0;
#X connect 8 0 9 0;
#X connect 10 0 11 0;
#X connect 11 0 12 0;
#X connect 12 0 5 0;
#X connect 12 1 1 1;
#X connect 13 0 4 0;
#X coords 0 -1 1 1 180 28 2 100 150;
#X restore 1358 408 pd ns_message;
#N canvas 1442 595 517 458 ns_message 0;
#X obj 282 16 bng 23 250 50 0 empty \$0_init empty 0 -12 0 16 #fcfcfc #000000 #000000;
#X obj 327 294 f;
#X obj 282 44 t b b, f 6;
#X obj 101 151 cnv 23 178 26 empty empty empty 20 12 0 16 #a6e3a1 #000000 0;
#X symbolatom 101 153 22 0 0 0 - - - 0;
#X msg 55 314 symbol a_l-2_2;
#X msg 101 258 set symbol \$1;
#X obj 101 187 t s s b, f 13;
#X obj 306 328 d_0;
#X obj 306 361 outlet;
#X obj 55 16 loadbang;
#X obj 55 44 f \$0;
#X obj 55 112 t b f, f 37;
#X obj 145 15 inlet;
#X connect 0 0 2 0;
#X connect 1 0 8 1;
#X connect 2 0 4 0;
#X connect 2 1 1 0;
#X connect 4 0 7 0;
#X connect 5 0 4 0;
#X connect 6 0 5 0;
#X connect 7 0 6 0;
#X connect 7 1 8 0;
#X connect 7 2 1 0;
#X connect 8 0 9 0;
#X connect 10 0 11 0;
#X connect 11 0 12 0;
#X connect 12 0 5 0;
#X connect 12 1 1 1;
#X connect 13 0 4 0;
#X coords 0 -1 1 1 180 28 2 100 150;
#X restore 1278 64 pd ns_message;
#X obj 1278 99 spigot;
#X obj 1339 98 tgl 23 0 empty empty empty 0 -12 0 16 #40a02b #000000 #000000 0 1;
#X obj 1299 237 spigot;
#X obj 1359 236 tgl 23 0 empty empty empty 0 -12 0 16 #40a02b #000000 #000000 0 1;
#X obj 1319 307 spigot;
#X obj 1379 306 tgl 23 0 empty empty empty 0 -12 0 16 #40a02b #000000 #000000 0 1;
#X obj 1338 377 spigot;
#X obj 1398 376 tgl 23 0 empty empty empty 0 -12 0 16 #40a02b #000000 #000000 0 1;
#X obj 1358 447 spigot;
#X obj 1418 446 tgl 23 0 empty empty empty 0 -12 0 16 #40a02b #000000 #000000 0 1;
#N canvas 1442 595 517 458 ns_message 0;
#X obj 282 16 bng 23 250 50 0 empty \$0_init empty 0 -12 0 16 #fcfcfc #000000 #000000;
#X obj 327 294 f;
#X obj 282 44 t b b, f 6;
#X obj 101 151 cnv 23 178 26 empty empty empty 20 12 0 16 #a6e3a1 #000000 0;
#X symbolatom 101 153 22 0 0 0 - - - 0;
#X msg 55 314 symbol z_l-2_2;
#X msg 101 258 set symbol \$1;
#X obj 101 187 t s s b, f 13;
#X obj 306 328 d_0;
#X obj 306 361 outlet;
#X obj 55 16 loadbang;
#X obj 55 44 f \$0;
#X obj 55 112 t b f, f 37;
#X obj 145 15 inlet;
#X connect 0 0 2 0;
#X connect 1 0 8 1;
#X connect 2 0 4 0;
#X connect 2 1 1 0;
#X connect 4 0 7 0;
#X connect 5 0 4 0;
#X connect 6 0 5 0;
#X connect 7 0 6 0;
#X connect 7 1 8 0;
#X connect 7 2 1 0;
#X connect 8 0 9 0;
#X connect 10 0 11 0;
#X connect 11 0 12 0;
#X connect 12 0 5 0;
#X connect 12 1 1 1;
#X connect 13 0 4 0;
#X coords 0 -1 1 1 180 28 2 100 150;
#X restore 1288 133 pd ns_message;
#X obj 1288 168 spigot;
#X obj 1349 167 tgl 23 0 empty empty empty 0 -12 0 16 #40a02b #000000 #000000 0 1;
#X connect 0 0 8 0;
#X connect 2 0 10 0;
#X connect 3 0 12 0;
#X connect 4 0 14 0;
#X connect 5 0 6 0;
#X connect 6 0 1 0;
#X connect 7 0 6 1;
#X connect 8 0 1 0;
#X connect 9 0 8 1;
#X connect 10 0 1 0;
#X connect 11 0 10 1;
#X connect 12 0 1 0;
#X connect 13 0 12 1;
#X connect 14 0 1 0;
#X connect 15 0 14 1;
#X connect 16 0 23 0;
#X connect 17 0 25 0;
#X connect 18 0 27 0;
#X connect 19 0 29 0;
#X connect 20 0 21 0;
#X connect 21 0 1 0;
#X connect 22 0 21 1;
#X connect 23 0 1 0;
#X connect 24 0 23 1;
#X connect 25 0 1 0;
#X connect 26 0 25 1;
#X connect 27 0 1 0;
#X connect 28 0 27 1;
#X connect 29 0 1 0;
#X connect 30 0 29 1;
#X connect 31 0 32 0;
#X connect 32 0 1 0;
#X connect 33 0 32 1;
#X connect 34 0 35 0;
#X connect 35 0 1 0;
#X connect 36 0 35 1;
#X connect 37 0 44 0;
#X connect 38 0 46 0;
#X connect 39 0 48 0;
#X connect 40 0 50 0;
#X connect 41 0 42 0;
#X connect 42 0 1 0;
#X connect 43 0 42 1;
#X connect 44 0 1 0;
#X connect 45 0 44 1;
#X connect 46 0 1 0;
#X connect 47 0 46 1;
#X connect 48 0 1 0;
#X connect 49 0 48 1;
#X connect 50 0 1 0;
#X connect 51 0 50 1;
#X connect 52 0 53 0;
#X connect 53 0 1 0;
#X connect 54 0 53 1;
#X connect 55 0 62 0;
#X connect 56 0 64 0;
#X connect 57 0 66 0;
#X connect 58 0 68 0;
#X connect 59 0 60 0;
#X connect 60 0 1 0;
#X connect 61 0 60 1;
#X connect 62 0 1 0;
#X connect 63 0 62 1;
#X connect 64 0 1 0;
#X connect 65 0 64 1;
#X connect 66 0 1 0;
#X connect 67 0 66 1;
#X connect 68 0 1 0;
#X connect 69 0 68 1;
#X connect 70 0 71 0;
#X connect 71 0 1 0;
#X connect 72 0 71 1;
#X connect 73 0 80 0;
#X connect 74 0 82 0;
#X connect 75 0 84 0;
#X connect 76 0 86 0;
#X connect 77 0 78 0;
#X connect 78 0 1 0;
#X connect 79 0 78 1;
#X connect 80 0 1 0;
#X connect 81 0 80 1;
#X connect 82 0 1 0;
#X connect 83 0 82 1;
#X connect 84 0 1 0;
#X connect 85 0 84 1;
#X connect 86 0 1 0;
#X connect 87 0 86 1;
#X connect 88 0 89 0;
#X connect 89 0 1 0;
#X connect 90 0 89 1;
#X restore 240 294 pd reset_arrays;
#N canvas 2462 616 861 659 generate_data 1;
#X msg 64 70 16;
#X obj 89 198 until;
#X obj 132 240 + 1;
#N canvas 1442 595 517 458 ns_message 0;
#X obj 282 16 bng 23 250 50 0 empty \$0_init empty 0 -12 0 16 #fcfcfc #000000 #000000;
#X obj 327 294 f;
#X obj 282 44 t b b, f 6;
#X obj 101 151 cnv 23 178 26 empty empty empty 20 12 0 16 #a6e3a1 #000000 0;
#X symbolatom 101 153 22 0 0 0 - - - 0;
#X msg 55 314 symbol Y;
#X msg 101 258 set symbol \$1;
#X obj 101 187 t s s b, f 13;
#X obj 306 328 d_0;
#X obj 306 361 outlet;
#X obj 55 16 loadbang;
#X obj 55 44 f \$0;
#X obj 55 112 t b f, f 37;
#X obj 145 15 inlet;
#X connect 0 0 2 0;
#X connect 1 0 8 1;
#X connect 2 0 4 0;
#X connect 2 1 1 0;
#X connect 4 0 7 0;
#X connect 5 0 4 0;
#X connect 6 0 5 0;
#X connect 7 0 6 0;
#X connect 7 1 8 0;
#X connect 7 2 1 0;
#X connect 8 0 9 0;
#X connect 10 0 11 0;
#X connect 11 0 12 0;
#X connect 12 0 5 0;
#X connect 12 1 1 1;
#X connect 13 0 4 0;
#X coords 0 -1 1 1 180 28 2 100 150;
#X restore 201 540 pd ns_message;
#X obj 675 92 * 22.5;
#N canvas 1442 595 517 458 ns_message 0;
#X obj 282 16 bng 23 250 50 0 empty \$0_init empty 0 -12 0 16 #fcfcfc #000000 #000000;
#X obj 327 294 f;
#X obj 282 44 t b b, f 6;
#X obj 101 151 cnv 23 178 26 empty empty empty 20 12 0 16 #a6e3a1 #000000 0;
#X symbolatom 101 153 22 0 0 0 - - - 0;
#X msg 55 314 symbol X;
#X msg 101 258 set symbol \$1;
#X obj 101 187 t s s b, f 13;
#X obj 306 328 d_0;
#X obj 306 361 outlet;
#X obj 55 16 loadbang;
#X obj 55 44 f \$0;
#X obj 55 112 t b f, f 37;
#X obj 145 15 inlet;
#X connect 0 0 2 0;
#X connect 1 0 8 1;
#X connect 2 0 4 0;
#X connect 2 1 1 0;
#X connect 4 0 7 0;
#X connect 5 0 4 0;
#X connect 6 0 5 0;
#X connect 7 0 6 0;
#X connect 7 1 8 0;
#X connect 7 2 1 0;
#X connect 8 0 9 0;
#X connect 10 0 11 0;
#X connect 11 0 12 0;
#X connect 12 0 5 0;
#X connect 12 1 1 1;
#X connect 13 0 4 0;
#X coords 0 -1 1 1 180 28 2 100 150;
#X restore 640 432 pd ns_message;
#X obj 132 358 t f f f f, f 48;
#X obj 132 584 array set;
#X obj 387 467 array set, f 32;
#X msg 160 196 0;
#X obj 89 164 f;
#X obj 64 98 t f b f b;
#X obj 89 226 f;
#X obj 132 268 - 1;
#X floatatom 720 47 5 0 0 0 - - - 0;
#X floatatom 644 216 5 0 0 0 - - - 0;
#X obj 644 243 * 22.5;
#X floatatom 644 271 5 0 0 0 - - - 0;
#X obj 209 220 expr if($f1 > 7 \, 0.5 \, -0.5);
#X obj 675 128 cos;
#X obj 277 93 expr if($f1 > 7 \, -0.5 \, 0.5);
#X obj 280 40 expr if($f1 < 5 \, -0.5 \, if($f1 < 11 \, 1 \, 0.5));
#X obj 277 143 expr if($f1 < 5 \, 0.5 \, if($f1 < 11 \, 0 \, -0.5));
#X obj 395 414 expr sin($f1 * $f2);
#X obj 114 455 expr if($f1 > 7 \, -0.5 \, 0.5);
#X obj 33 15 inlet;
#X obj 370 302 expr cos($f1 * $f2);
#X obj 500 266 nbx 5 21 -1e+37 1e+37 0 1 empty empty empty 0 -12 0 16 #fcfcfc #000000 #000000 90 256;
#X obj 547 377 nbx 5 21 -1e+37 1e+37 0 1 empty empty empty 0 -12 0 16 #fcfcfc #000000 #000000 5.625 256;
#X connect 0 0 11 0;
#X connect 1 0 12 0;
#X connect 2 0 12 1;
#X connect 2 0 13 0;
#X connect 3 0 7 2;
#X connect 4 0 19 0;
#X connect 5 0 8 2;
#X connect 6 0 24 0;
#X connect 6 1 7 1;
#X connect 6 2 23 0;
#X connect 6 3 8 1;
#X connect 9 0 12 1;
#X connect 10 0 1 0;
#X connect 11 1 10 0;
#X connect 11 2 10 1;
#X connect 11 3 9 0;
#X connect 12 0 2 0;
#X connect 13 0 6 0;
#X connect 14 0 4 1;
#X connect 15 0 16 0;
#X connect 16 0 17 0;
#X connect 23 0 8 0;
#X connect 24 0 7 0;
#X connect 25 0 0 0;
#X connect 27 0 26 1;
#X connect 28 0 23 1;
#X restore 13 277 pd generate_data;
#X obj 13 247 bng 23 250 50 0 empty empty empty 0 -12 0 16 #fcfcfc #000000 #000000;
#X msg 101 119 0.4;
#X connect 2 0 7 0;
#X connect 3 0 4 0;
#X connect 5 0 4 1;
#X connect 6 0 5 0;
#X connect 9 0 14 0;
#X connect 10 0 13 0;
#X connect 11 0 177 0;
#X connect 14 0 10 0;
#X connect 15 0 8 0;
#X connect 16 0 14 1;
#X connect 17 0 14 1;
#X connect 18 0 14 1;
#X connect 19 0 14 1;
#X connect 20 0 14 1;
#X connect 21 0 14 1;
#X connect 22 0 14 1;
#X connect 28 0 41 0;
#X connect 31 0 34 2;
#X connect 31 1 36 2;
#X connect 32 0 34 1;
#X connect 32 1 36 1;
#X connect 33 0 34 3;
#X connect 34 0 45 0;
#X connect 34 1 78 1;
#X connect 35 0 36 3;
#X connect 36 0 78 0;
#X connect 36 1 78 2;
#X connect 37 0 43 0;
#X connect 37 1 32 0;
#X connect 38 0 37 2;
#X connect 39 0 40 2;
#X connect 40 0 34 0;
#X connect 40 1 31 0;
#X connect 41 0 37 0;
#X connect 41 1 37 1;
#X connect 42 0 41 1;
#X connect 43 0 40 0;
#X connect 43 1 40 1;
#X connect 44 0 43 1;
#X connect 45 0 36 0;
#X connect 47 0 78 3;
#X connect 49 0 48 0;
#X connect 50 0 48 1;
#X connect 52 0 51 0;
#X connect 53 0 51 1;
#X connect 55 0 54 0;
#X connect 56 0 54 1;
#X connect 58 0 57 0;
#X connect 59 0 57 1;
#X connect 61 0 60 0;
#X connect 62 0 60 1;
#X connect 64 0 63 0;
#X connect 65 0 63 1;
#X connect 67 0 66 0;
#X connect 68 0 66 1;
#X connect 70 0 69 0;
#X connect 71 0 69 1;
#X connect 73 0 72 0;
#X connect 74 0 72 1;
#X connect 76 0 75 0;
#X connect 77 0 75 1;
#X connect 80 0 81 0;
#X connect 81 0 83 0;
#X connect 82 0 81 1;
#X connect 83 0 86 0;
#X connect 84 0 83 1;
#X connect 85 0 86 1;
#X connect 86 0 88 0;
#X connect 88 0 92 0;
#X connect 91 0 88 1;
#X connect 92 0 96 0;
#X connect 93 0 92 1;
#X connect 95 0 96 1;
#X connect 96 0 98 0;
#X connect 98 0 100 0;
#X connect 100 0 105 0;
#X connect 101 0 100 1;
#X connect 102 0 98 1;
#X connect 103 0 105 1;
#X connect 105 0 107 0;
#X connect 106 0 107 1;
#X connect 107 0 111 0;
#X connect 109 0 111 1;
#X connect 110 0 112 1;
#X connect 111 0 112 0;
#X connect 112 0 115 0;
#X connect 114 0 115 1;
#X connect 115 0 117 0;
#X connect 116 0 117 1;
#X connect 117 0 121 0;
#X connect 118 0 121 1;
#X connect 120 0 122 1;
#X connect 121 0 122 0;
#X connect 122 0 127 0;
#X connect 125 0 128 1;
#X connect 126 0 127 1;
#X connect 127 0 128 0;
#X connect 128 0 132 0;
#X connect 129 0 132 1;
#X connect 131 0 133 1;
#X connect 132 0 133 0;
#X connect 133 0 137 0;
#X connect 135 0 137 1;
#X connect 136 0 138 1;
#X connect 137 0 138 0;
#X connect 138 0 140 0;
#X connect 140 0 145 0;
#X connect 141 0 140 2;
#X connect 142 0 140 1;
#X connect 143 0 145 2;
#X connect 144 0 145 1;
#X connect 145 0 150 0;
#X connect 146 0 150 2;
#X connect 147 0 150 1;
#X connect 148 0 151 2;
#X connect 149 0 151 1;
#X connect 150 0 151 0;
#X connect 151 0 160 0;
#X connect 152 0 160 2;
#X connect 153 0 160 1;
#X connect 154 0 161 2;
#X connect 155 0 161 1;
#X connect 156 0 162 2;
#X connect 157 0 162 1;
#X connect 158 0 163 2;
#X connect 159 0 163 1;
#X connect 160 0 161 0;
#X connect 161 0 162 0;
#X connect 162 0 163 0;
#X connect 163 0 168 0;
#X connect 164 0 168 2;
#X connect 165 0 168 1;
#X connect 166 0 169 2;
#X connect 167 0 169 1;
#X connect 168 0 169 0;
#X connect 171 0 170 2;
#X connect 172 0 170 1;
#X connect 173 0 170 0;
#X connect 176 0 175 0;
#X connect 177 0 12 0;
