#N canvas 0 66 3440 1340 16;
#X obj 78 54 f \$0;
#X obj 78 82 s \$0_ns;
#X msg 78 26 bang;
#X obj 26 28 bng 40 250 50 0 \$0_init empty init 0 -12 0 16 #fcfcfc #000000 #000000;
#N canvas 4 58 943 1344 arrays 1;
#X text 617 119 // aL is \$0_y_hat;
#X obj 641 176 array define -k \$0_wL 2;
#A 0 0.859562 -1.40702;
#X obj 641 205 array define -k \$0_bL 1;
#A 0 -0.188107;
#X obj 1181 176 array define -k \$0_dwL 2;
#A 0 -2.67339e-08 1.51756e-08;
#X obj 1181 205 array define -k \$0_dbL 1;
#A 0 -1.76951e-08;
#X obj 641 316 array define -k \$0_wL-1_0 3;
#A 0 -0.8477 0.085693 0.105019;
#X obj 641 345 array define -k \$0_bL-1_0 1;
#A 0 -0.247414;
#X obj 1181 316 array define -k \$0_dwL-1_0 3;
#A 0 2.9337e-08 1.17249e-08 1.53873e-08;
#X obj 1181 345 array define -k \$0_dbL-1_0 1;
#A 0 -2.10171e-08;
#X obj 641 446 array define -k \$0_wL-1_1 3;
#A 0 1.30873 -0.639651 -0.792687;
#X obj 641 475 array define -k \$0_bL-1_1 1;
#A 0 0.393061;
#X obj 1181 446 array define -k \$0_dwL-1_1 3;
#A 0 -4.61692e-08 -2.38084e-08 -2.95731e-08;
#X obj 1181 475 array define -k \$0_dbL-1_1 1;
#A 0 5.05599e-08;
#X obj 641 586 array define -k \$0_wL-2_0 3;
#A 0 -1.12855 -0.781672 1.04623;
#X obj 641 615 array define -k \$0_bL-2_0 1;
#A 0 0.739523;
#X obj 1181 586 array define -k \$0_dwL-2_0 3;
#A 0 3.56419e-08 -1.88746e-08 -3.51767e-08;
#X obj 1181 615 array define -k \$0_dbL-2_0 1;
#A 0 2.81547e-08;
#X obj 641 716 array define -k \$0_wL-2_1 3;
#A 0 -0.295924 0.520942 -0.415648;
#X obj 1181 716 array define -k \$0_dwL-2_1 3;
#A 0 -3.19595e-08 1.46109e-08 3.08444e-08;
#X obj 641 745 array define -k \$0_bL-2_1 1;
#A 0 -0.369049;
#X obj 1181 745 array define -k \$0_dbL-2_1 1;
#A 0 -2.73314e-08;
#X obj 641 846 array define -k \$0_wL-2_2 3;
#A 0 0.0276974 0.816702 -0.120827;
#X obj 641 875 array define -k \$0_bL-2_2 1;
#A 0 -0.410997;
#X obj 1181 846 array define -k \$0_dwL-2_2 3;
#A 0 -3.54879e-08 1.65147e-08 3.4055e-08;
#X obj 1181 875 array define -k \$0_dbL-2_2 1;
#A 0 -2.94714e-08;
#X msg 360 468 const 0;
#X msg 943 458 const 0;
#X obj 53 16 inlet;
#X obj 53 44 t b b, f 113;
#X text 237 568 // tmp fix;
#X obj 636 976 array define -k \$0_wL-3_0 3;
#A 0 1.21391 0.128316 0.32221;
#X obj 636 1005 array define -k \$0_bL-3_0 1;
#A 0 -0.584372;
#X obj 636 1106 array define -k \$0_wL-3_1 3;
#A 0 0.555747 -0.277549 -1.28407;
#X obj 636 1236 array define -k \$0_wL-3_2 3;
#A 0 -1.40497 0.087601 -0.481067;
#X obj 636 1265 array define -k \$0_bL-3_2 1;
#A 0 0.486691;
#X obj 1181 975 array define -k \$0_dwL-3_0 3;
#A 0 1.54362e-09 -5.34519e-09 -5.58823e-09;
#X obj 1181 1005 array define -k \$0_dbL-3_0 1;
#A 0 6.17849e-09;
#X obj 1181 1106 array define -k \$0_dwL-3_1 3;
#A 0 -1.13896e-07 -1.18331e-07 -2.77836e-08;
#X obj 1181 1236 array define -k \$0_dwL-3_2 3;
#A 0 4.60898e-12 2.52574e-09 7.73586e-09;
#X obj 1181 1265 array define -k \$0_dbL-3_2 1;
#A 0 -6.93394e-09;
#X obj 1181 1135 array define -k \$0_dbL-3_1 1;
#A 0 -5.19891e-08;
#X obj 636 1135 array define -k \$0_bL-3_1 1;
#A 0 -0.527693;
#X obj 621 146 array define -k \$0_zL 16;
#A 0 -0.5 -0.5 -0.5 -0.5 -0.5 0.1 0.0999992 0.1 0.0999999 0.1 0.1 -0.8 -0.8 -0.8 -0.8 -0.8;
#X obj 1181 117 array define -k \$0_daL 16;
#A 0 5.96046e-08 0 0 -5.96046e-08 -5.96046e-08 1.56462e-07 -9.46224e-07 1.56462e-07 -5.21541e-08 -2.23517e-08 1.2666e-07 5.96046e-08 5.96046e-08 1.19209e-07 -5.96046e-08 1.78814e-07;
#X obj 1181 146 array define -k \$0_dzL 16;
#A 0 5.96046e-08 0 0 -5.96046e-08 -5.96046e-08 1.56462e-07 -9.46224e-07 1.56462e-07 -5.21541e-08 -2.23517e-08 1.2666e-07 5.96046e-08 5.96046e-08 1.19209e-07 -5.96046e-08 1.78814e-07;
#X obj 621 257 array define -k \$0_aL-1_0 16;
#A 0 -0.362851 -0.362851 -0.362851 -0.362851 -0.362851 0.33518 0.335179 0.33518 0.335179 0.33518 0.33518 -0.711866 -0.711866 -0.711866 -0.711866 -0.711866;
#X obj 621 286 array define -k \$0_zL-1_0 16;
#A 0 -0.380165 -0.380165 -0.380165 -0.380165 -0.380165 0.348652 0.348651 0.348652 0.348652 0.348652 0.348652 -0.890956 -0.890956 -0.890956 -0.890957 -0.890956;
#X obj 621 387 array define -k \$0_aL-1_1 16;
#A 0 0.866801 0.853039 0.872609 0.838279 0.876321 -0.175173 -0.0429142 -0.166103 -0.485411 -0.621222 -0.531682 0.916935 0.916879 0.929935 0.902948 0.939151;
#X obj 621 416 array define -k \$0_zL-1_1 16;
#A 0 1.32007 1.26721 1.34391 1.21536 1.35969 -0.176999 -0.0429406 -0.167656 -0.530039 -0.726993 -0.592487 1.56943 1.56908 1.65791 1.48796 1.73081;
#X obj 621 527 array define -k \$0_aL-2_0 16;
#A 0 0.0139772 0.024446 0.00925365 0.0347066 0.00612883 -0.772322 -0.798824 -0.774169 -0.702667 -0.663721 -0.690322 0.723002 0.723071 0.705509 0.739111 0.691097;
#X obj 621 556 array define -k \$0_zL-2_0 16;
#A 0 0.0139781 0.0244509 0.00925392 0.0347205 0.00612891 -1.02606 -1.09535 -1.03065 -0.872549 -0.799435 -0.848571 0.913906 0.914051 0.878185 0.948516 0.850052;
#X obj 621 657 array define -k \$0_aL-2_1 16;
#A 0 -0.539397 -0.480544 -0.567086 -0.428364 -0.584791 -0.258732 -0.375969 -0.267027 -0.0514288 0.126267 0.00251454 -0.170434 -0.170126 -0.248118 -0.0989664 -0.311827;
#X obj 621 686 array define -k \$0_zL-2_1 16;
#A 0 -0.603305 -0.523691 -0.643217 -0.457891 -0.669714 -0.264749 -0.395357 -0.27366 -0.0514742 0.126944 0.00251454 -0.172114 -0.171797 -0.253407 -0.0992914 -0.322568;
#X obj 621 787 array define -k \$0_aL-2_2 16;
#A 0 -0.711114 -0.674634 -0.726648 -0.634389 -0.737425 -0.34718 -0.465451 -0.355322 0.0459113 0.215286 0.101545 -0.152818 -0.152511 -0.230629 -0.0811091 -0.294977;
#X obj 621 816 array define -k \$0_zL-2_2 16;
#A 0 -0.889435 -0.819199 -0.921589 -0.748727 -0.944811 -0.362234 -0.504247 -0.371522 0.0459436 0.218708 0.101896 -0.154024 -0.15371 -0.234854 -0.0812876 -0.304009;
#X obj 616 917 array define -k \$0_aL-3_0 16;
#A 0 0.50334 0.415058 0.548569 0.346309 0.577829 0.772793 0.933298 0.783839 0.561605 0.344712 0.496519 -0.260238 -0.260628 -0.161045 -0.350292 -0.0779618;
#X obj 616 946 array define -k \$0_zL-3_0 16;
#A 0 0.55377 0.441707 0.616332 0.361243 0.659197 1.02723 1.68338 1.05525 0.635175 0.35943 0.544676 -0.266364 -0.266782 -0.16246 -0.365776 -0.0781203;
#X obj 616 1047 array define -k \$0_aL-3_1 16;
#A 0 -0.702848 -0.616971 -0.741472 -0.52804 -0.769802 -0.104379 -0.288213 -0.116334 0.452084 0.670889 0.523724 0.344703 0.345103 0.241769 0.43761 0.153836;
#X obj 616 1076 array define -k \$0_zL-3_1 16;
#A 0 -0.872907 -0.720099 -0.953741 -0.587423 -1.01984 -0.10476 -0.296617 -0.116863 0.487316 0.812359 0.581457 0.35942 0.359874 0.246652 0.469271 0.155067;
#X obj 616 1177 array define -k \$0_aL-3_2 16;
#A 0 -0.675661 -0.696718 -0.660246 -0.694618 -0.652837 -0.931949 -0.9624 -0.933359 -0.597279 -0.597879 -0.591042 0.143502 0.143518 0.139451 0.148857 0.136485;
#X obj 616 1206 array define -k \$0_zL-3_2 16;
#A 0 -0.821087 -0.860893 -0.793249 -0.856824 -0.780227 -1.67302 -1.97745 -1.68384 -0.688906 -0.689839 -0.679266 0.144499 0.144516 0.140366 0.149971 0.137342;
#X obj 1181 257 array define -k \$0_daL-1_0 16;
#A 0 5.12339e-08 0 0 -5.12339e-08 -5.12339e-08 1.34489e-07 -8.13338e-07 1.34489e-07 -4.48296e-08 -1.92127e-08 1.08872e-07 5.12339e-08 5.12339e-08 1.02468e-07 -5.12339e-08 1.53702e-07;
#X obj 1181 286 array define -k \$0_dzL-1_0 16;
#A 0 4.44884e-08 0 0 -4.44884e-08 -4.44884e-08 1.1938e-07 -7.21964e-07 1.1938e-07 -3.97932e-08 -1.70542e-08 9.66407e-08 2.5271e-08 2.5271e-08 5.05419e-08 -2.5271e-08 7.58129e-08;
#X obj 1181 387 array define -k \$0_daL-1_1 16;
#A 0 -8.38652e-08 -0 -0 8.38652e-08 8.38652e-08 -2.20146e-07 1.33136e-06 -2.20146e-07 7.3382e-08 3.14494e-08 -1.78214e-07 -8.38652e-08 -8.38652e-08 -1.6773e-07 8.38652e-08 -2.51596e-07;
#X obj 1181 416 array define -k \$0_dzL-1_1 16;
#A 0 -2.08536e-08 -0 -0 2.49321e-08 1.94618e-08 -2.13391e-07 1.32891e-06 -2.14072e-07 5.60915e-08 1.93126e-08 -1.27835e-07 -1.33538e-08 -1.33624e-08 -2.26807e-08 1.54886e-08 -2.96871e-08;
#X obj 1181 527 array define -k \$0_daL-2_0 16;
#A 0 -6.50045e-08 -0 -0 7.03422e-08 6.31831e-08 -3.80469e-07 2.35119e-06 -3.81361e-07 1.07141e-07 3.97319e-08 -2.49224e-07 -3.88988e-08 -3.891e-08 -7.25274e-08 4.16927e-08 -1.03119e-07;
#X obj 1181 556 array define -k \$0_dzL-2_0 16;
#A 0 -6.49918e-08 -0 -0 7.02575e-08 6.31808e-08 -1.53526e-07 8.5085e-07 -1.52797e-07 5.42413e-08 2.2229e-08 -1.30458e-07 -1.85652e-08 -1.85666e-08 -3.64274e-08 1.89166e-08 -5.38679e-08;
#X obj 1181 657 array define -k \$0_daL-2_1 16;
#A 0 1.71513e-08 0 0 -1.97602e-08 -1.62611e-08 1.46726e-07 -9.11904e-07 1.47161e-07 -3.9289e-08 -1.38147e-08 9.00512e-08 1.07073e-08 1.07128e-08 1.88388e-08 -1.20729e-08 2.5486e-08;
#X obj 1181 686 array define -k \$0_dzL-2_1 16;
#A 0 1.21612e-08 0 0 -1.61343e-08 -1.07001e-08 1.36903e-07 -7.83004e-07 1.36668e-07 -3.9185e-08 -1.35945e-08 9.00506e-08 1.03963e-08 1.04028e-08 1.7679e-08 -1.19546e-08 2.30078e-08;
#X obj 1181 787 array define -k \$0_daL-2_2 16;
#A 0 2.12025e-08 0 0 -2.44355e-08 -2.00993e-08 1.81689e-07 -1.12923e-06 1.82229e-07 -4.8642e-08 -1.70998e-08 1.11482e-07 1.32393e-08 1.32461e-08 2.32866e-08 -1.49316e-08 3.14943e-08;
#X obj 1182 816 array define -k \$0_dzL-2_2 16;
#A 0 1.04807e-08 0 0 -1.46014e-08 -9.16938e-09 1.5979e-07 -8.84587e-07 1.59222e-07 -4.85395e-08 -1.63073e-08 1.10333e-07 1.29302e-08 1.2938e-08 2.20479e-08 -1.48333e-08 2.8754e-08;
#X obj 1181 917 array define -k \$0_daL-3_0 16;
#A 0 7.00383e-08 0 0 -7.49193e-08 -6.83904e-08 1.37176e-07 -7.53021e-07 1.36406e-07 -5.09629e-08 -2.15153e-08 1.23636e-07 1.82334e-08 1.82334e-08 3.64893e-08 -1.82216e-08 5.47806e-08;
#X obj 1181 946 array define -k \$0_dzL-3_0 16;
#A 0 5.2294e-08 0 0 -6.59342e-08 -4.55558e-08 5.52531e-08 -9.71054e-08 5.25978e-08 -3.48892e-08 -1.89587e-08 9.31562e-08 1.69986e-08 1.69948e-08 3.55429e-08 -1.59857e-08 5.44477e-08;
#X obj 1181 1047 array define -k \$0_daL-3_1 16;
#A 0 6.56972e-08 0 0 -7.52483e-08 -6.24494e-08 3.21826e-07 -1.79543e-06 3.2067e-07 -1.02454e-07 -3.77759e-08 2.38995e-07 3.04878e-08 3.04988e-08 5.56906e-08 -3.31287e-08 7.75762e-08;
#X obj 1181 1076 array define -k \$0_dzL-3_1 16;
#A 0 3.32431e-08 0 0 -5.42671e-08 -2.54422e-08 3.1832e-07 -1.64629e-06 3.16331e-07 -8.15148e-08 -2.07732e-08 1.73442e-07 2.68652e-08 2.68665e-08 5.24354e-08 -2.67844e-08 7.57403e-08;
#X obj 1181 1177 array define -k \$0_daL-3_2 16;
#A 0 -7.43173e-08 -0 -0 8.19757e-08 7.16568e-08 -2.36834e-07 1.32252e-06 -2.35905e-07 7.89008e-08 3.08774e-08 -1.87249e-07 -2.53069e-08 -2.53121e-08 -4.81236e-08 2.65523e-08 -6.93955e-08;
#X obj 1181 1206 array define -k \$0_dzL-3_2 16;
#A 0 -4.03902e-08 -0 -0 4.24229e-08 4.1117e-08 -3.11366e-08 9.75848e-08 -3.03943e-08 5.07536e-08 1.984e-08 -1.21837e-07 -2.47857e-08 -2.47907e-08 -4.71877e-08 2.59639e-08 -6.81028e-08;
#X obj 32 569 array define -k \$0_dX_0 16;
#A 0 1.38702e-07 0 0 -1.698e-07 -1.27208e-07 2.87723e-07 -1.1699e-06 2.82352e-07 -1.58961e-07 -6.24335e-08 3.8065e-07 7.03882e-08 7.03913e-08 1.38584e-07 -7.07691e-08 2.03869e-07;
#X obj 32 610 array define -k \$0_dX_1 16;
#A 0 -6.05464e-09 0 0 1.03177e-08 4.81779e-09 -8.39872e-08 4.53014e-07 -8.37107e-08 2.25936e-08 5.07089e-09 -4.68583e-08 -7.44649e-09 -7.44774e-09 -1.41264e-08 7.65723e-09 -2.0001e-08;
#X obj 31 649 array define -k \$0_dX_2 16;
#A 0 -6.40644e-09 0 0 2.80299e-08 -1.789e-09 -3.75964e-07 2.03572e-06 -3.74622e-07 6.90132e-08 1.10212e-08 -1.34084e-07 -1.70962e-08 -1.70966e-08 -3.3178e-08 1.6752e-08 -4.69503e-08;
#X connect 25 0 42 0;
#X connect 25 0 45 0;
#X connect 25 0 46 0;
#X connect 25 0 47 0;
#X connect 25 0 48 0;
#X connect 25 0 49 0;
#X connect 25 0 50 0;
#X connect 25 0 51 0;
#X connect 25 0 52 0;
#X connect 25 0 53 0;
#X connect 25 0 54 0;
#X connect 25 0 55 0;
#X connect 25 0 56 0;
#X connect 25 0 57 0;
#X connect 25 0 58 0;
#X connect 25 0 59 0;
#X connect 25 0 60 0;
#X connect 25 0 77 0;
#X connect 25 0 78 0;
#X connect 25 0 79 0;
#X connect 26 0 24 0;
#X connect 26 0 23 0;
#X connect 26 0 20 0;
#X connect 26 0 18 0;
#X connect 26 0 16 0;
#X connect 26 0 15 0;
#X connect 26 0 12 0;
#X connect 26 0 11 0;
#X connect 26 0 8 0;
#X connect 26 0 7 0;
#X connect 26 0 4 0;
#X connect 26 0 3 0;
#X connect 26 0 40 0;
#X connect 26 0 39 0;
#X connect 26 0 38 0;
#X connect 26 0 37 0;
#X connect 26 0 36 0;
#X connect 26 0 35 0;
#X connect 26 0 43 0;
#X connect 26 0 44 0;
#X connect 26 0 61 0;
#X connect 26 0 62 0;
#X connect 26 0 63 0;
#X connect 26 0 64 0;
#X connect 26 0 65 0;
#X connect 26 0 66 0;
#X connect 26 0 67 0;
#X connect 26 0 68 0;
#X connect 26 0 69 0;
#X connect 26 0 70 0;
#X connect 26 0 71 0;
#X connect 26 0 72 0;
#X connect 26 0 73 0;
#X connect 26 0 74 0;
#X connect 26 0 75 0;
#X connect 26 0 76 0;
#X connect 27 0 28 0;
#X connect 28 0 25 0;
#X connect 28 1 26 0;
#X restore 24 204 pd arrays;
#X msg 24 176 bang;
#N canvas 1121 420 675 664 iterator 0;
#X obj 44 31 inlet toggle;
#X obj 44 157 f;
#X obj 44 215 t f f;
#X obj 291 31 inlet batch_size;
#X obj 98 215 + 1;
#X obj 44 263 mod;
#X obj 44 291 t f f;
#X obj 81 324 sel;
#X msg 287 290 0;
#X obj 81 352 t b b, f 16;
#X obj 81 380 s \$0_m_0;
#X obj 44 437 s \$0_m_i;
#X obj 44 87 t b b;
#X obj 81 115 s \$0_m_b;
#X obj 291 59 t f f;
#X obj 328 105 - 1;
#X obj 44 59 metro 25, f 17;
#X obj 177 31 inlet rate;
#X connect 0 0 16 0;
#X connect 1 0 2 0;
#X connect 2 0 5 0;
#X connect 2 1 4 0;
#X connect 3 0 14 0;
#X connect 4 0 1 1;
#X connect 5 0 6 0;
#X connect 6 0 11 0;
#X connect 6 1 7 0;
#X connect 7 0 9 0;
#X connect 8 0 1 1;
#X connect 9 0 10 0;
#X connect 9 1 8 0;
#X connect 12 0 1 0;
#X connect 12 1 13 0;
#X connect 14 0 5 1;
#X connect 14 1 15 0;
#X connect 15 0 7 1;
#X connect 16 0 12 0;
#X connect 17 0 16 1;
#X restore 175 51 pd iterator;
#X f 23;
#X obj 175 23 tgl 23 0 empty empty empty 0 -12 0 16 #fcfcfc #000000 #000000 0 1;
#X obj 265 25 nbx 5 21 -1e+37 1e+37 0 1 empty empty ms 0 -12 0 16 #fcfcfc #000000 #000000 25 256;
#X obj 356 25 nbx 5 21 -1e+37 1e+37 0 1 \$0_batch_size empty batch\ size 0 -12 0 16 #fcfcfc #000000 #000000 16 256;
#N canvas 4 70 800 981 initialize_params 0;
#X obj 209 106 nn.initialize_params wL 1;
#X obj 209 136 nn.initialize_params bL 1;
#X obj 209 249 nn.initialize_params wL-1_1 1;
#X obj 209 279 nn.initialize_params bL-1_1 1;
#X obj 209 439 nn.initialize_params wL-2_1 1;
#X obj 209 469 nn.initialize_params bL-2_1 1;
#X obj 209 509 nn.initialize_params wL-2_2 1;
#X obj 209 539 nn.initialize_params bL-2_2 1;
#X obj 38 34 inlet bang;
#X obj 546 17 r \$0_ns;
#X obj 208 187 nn.initialize_params wL-1_0 1;
#X obj 209 216 nn.initialize_params bL-1_0 1;
#X obj 209 369 nn.initialize_params wL-2_0 1;
#X obj 209 399 nn.initialize_params bL-2_0 1;
#X obj 209 599 nn.initialize_params wL-3_0 1;
#X obj 209 629 nn.initialize_params bL-3_0 1;
#X obj 209 669 nn.initialize_params wL-3_1 1;
#X obj 209 699 nn.initialize_params bL-3_1 1;
#X obj 209 739 nn.initialize_params wL-3_2 1;
#X obj 209 769 nn.initialize_params bL-3_2 1;
#X connect 8 0 0 0;
#X connect 8 0 13 0;
#X connect 8 0 12 0;
#X connect 8 0 11 0;
#X connect 8 0 10 0;
#X connect 8 0 7 0;
#X connect 8 0 6 0;
#X connect 8 0 5 0;
#X connect 8 0 4 0;
#X connect 8 0 3 0;
#X connect 8 0 2 0;
#X connect 8 0 1 0;
#X connect 8 0 14 0;
#X connect 8 0 19 0;
#X connect 8 0 18 0;
#X connect 8 0 17 0;
#X connect 8 0 16 0;
#X connect 8 0 15 0;
#X connect 9 0 0 1;
#X connect 9 0 13 1;
#X connect 9 0 12 1;
#X connect 9 0 11 1;
#X connect 9 0 10 1;
#X connect 9 0 7 1;
#X connect 9 0 6 1;
#X connect 9 0 5 1;
#X connect 9 0 4 1;
#X connect 9 0 3 1;
#X connect 9 0 2 1;
#X connect 9 0 1 1;
#X connect 9 0 14 1;
#X connect 9 0 19 1;
#X connect 9 0 18 1;
#X connect 9 0 17 1;
#X connect 9 0 16 1;
#X connect 9 0 15 1;
#X restore 112 203 pd initialize_params;
#X msg 112 176 bang;
#X obj 588 56 r \$0_m_b;
#X msg 650 112 bang;
#X obj 650 84 r \$0_init;
#X obj 588 143 nn.array_cycle X;
#X obj 713 115 r \$0_ns;
#X obj 956 115 r \$0_ns;
#X obj 1156 115 r \$0_ns;
#X obj 588 171 f;
#X obj 823 107 f;
#X obj 823 171 f;
#X obj 1023 52 f;
#X obj 1527 216 r \$0_ns;
#X obj 713 176 t f f f;
#X obj 956 176 t f f f;
#X obj 1156 177 t f f f;
#X obj 1023 176 f;
#X obj 438 472 f;
#X obj 808 407 f;
#X obj 808 472 f;
#X obj 1178 410 f;
#X obj 1178 472 f;
#X obj 1467 856 r \$0_ns;
#X obj 515 1072 f;
#X obj 1118 956 f;
#X obj 1074 1076 r \$0_ns;
#X obj 906 1138 r \$0_batch_size;
#X obj 906 1166 - 1;
#X obj 869 1223 f;
#X obj 869 1251 t f f;
#X obj 926 1252 + 1;
#X msg 929 1220 0;
#X obj 929 1193 r \$0_init;
#X obj 869 1295 s \$0_batch_count;
#X obj 1679 32 r \$0_batch_count;
#X obj 1679 60 t f b, f 22;
#X obj 1679 128 spigot;
#X obj 1724 100 tgl 23 0 empty empty empty 0 -12 0 16 #fcfcfc #000000 #000000 0 1;
#X obj 1679 156 print batch_number;
#X obj 1903 111 nn.dz_mse y_hat Y daL;
#X obj 2752 80 nn.bp_3x3 dzL-2_0 dzL-2_1 dzL-2_2 daL-2_0 daL-2_1 daL-2_2 zL-2_0 zL-2_1 zL-2_2 aL-2_0 aL-2_1 aL-2_2 dwL-2_0 dwL-2_1 dwL-2_2 X X X dbL-2_0 dbL-2_1 dbL-2_2 dX_0 dX_1 dX_2 wL-2_0 wL-2_1 wL-2_2 tanh;
#X obj 1903 788 nn.update wL-2_0 dwL-2_0;
#X obj 1903 818 nn.update wL-2_1 dwL-2_1;
#X obj 1903 876 nn.update bL-2_0 dbL-2_0;
#X obj 1903 904 nn.update bL-2_1 dbL-2_1;
#X obj 1903 932 nn.update bL-2_2 dbL-2_2;
#X obj 1903 848 nn.update wL-2_2 dwL-2_2;
#X obj 1903 970 nn.update wL-1_0 dwL-1_0;
#X obj 1903 998 nn.update wL-1_1 dwL-1_1;
#X obj 1903 1054 nn.update bL-1_1 dbL-1_1;
#X obj 1903 1026 nn.update bL-1_0 dbL-1_0;
#X obj 1903 1092 nn.update wL dwL;
#X obj 1903 1120 nn.update bL dbL;
#X obj 2471 32 r \$0_ns;
#X obj 311 106 nbx 5 21 0 1 0 1 empty \$0_init learning\ rate 0 -12 0 16 #fcfcfc #000000 #000000 0.3 256;
#X obj 311 132 s \$0_alpha;
#X obj 1903 171 nn.bp_1x2 dzL daL zL y_hat dwL aL-1_0 aL-1_1 dbL daL-1_0 daL-1_1 wL linear;
#N canvas 368 196 2042 1206 synth 0;
#X obj 388 327 nbx 5 21 -1e+37 1e+37 0 1 empty empty empty 0 -12 0 16 #fcfcfc #000000 #000000 507.692 256;
#X obj 266 669 *~;
#X obj 604 75 lop~ 5;
#X obj 660 1042 dac~;
#X obj 546 617 rev1~, f 11;
#X obj 588 584 nbx 5 21 0 160 0 1 empty empty empty 0 -12 0 16 #fcfcfc #000000 #000000 60 256;
#X obj 655 615 bng 23 250 50 0 empty empty empty 0 -12 0 16 #fcfcfc #000000 #000000;
#X obj 663 936 +~;
#X obj 696 885 *~;
#X obj 669 699 nbx 5 21 0 1 0 1 empty empty empty 0 -12 0 16 #fcfcfc #000000 #000000 0.3 256;
#X obj 506 855 *~;
#X obj 669 761 expr 1 - $f1;
#X obj 669 725 t f f, f 17;
#X obj 77 38 f;
#X obj 77 66 t f f;
#X obj 135 66 + 1;
#X obj 77 104 mod 4;
#X obj 77 132 sel 0;
#X obj 77 10 r \$0_m_b;
#X msg 290 320 1;
#X floatatom 127 105 5 0 0 0 - - - 0;
#X obj 77 350 array get \$0_Y;
#X msg 131 317 1;
#X obj 220 353 array get \$0_y_hat;
#N canvas 8 122 1762 1184 triangle 0;
#X obj 231 51 inlet freq;
#X obj 231 104 t f f f f f f f, f 144;
#X obj 231 237 * 1;
#X obj 231 265 osc~;
#X obj 231 293 *~, f 6;
#X obj 252 149 nbx 4 21 0 20 0 1 empty \$0_h_bang harmonic 0 -12 0 16 #fcfcfc #000000 #000000 1 256;
#X obj 252 175 t f f;
#X obj 289 203 expr if ($f1 > 0 \, 1 / ($f1 * $f1) \, 0);
#X obj 422 337 * 1;
#X obj 422 365 osc~;
#X obj 422 393 *~, f 6;
#X obj 443 249 nbx 4 21 0 20 0 1 empty \$0_h_bang harmonic 0 -12 0 16 #fcfcfc #000000 #000000 3 256;
#X obj 443 275 t f f;
#X obj 480 303 expr if ($f1 > 0 \, 1 / ($f1 * $f1) \, 0);
#X obj 614 437 * 1;
#X obj 614 465 osc~;
#X obj 614 493 *~, f 6;
#X obj 635 349 nbx 4 21 0 20 0 1 empty \$0_h_bang harmonic 0 -12 0 16 #fcfcfc #000000 #000000 5 256;
#X obj 635 375 t f f;
#X obj 672 403 expr if ($f1 > 0 \, 1 / ($f1 * $f1) \, 0);
#X obj 805 537 * 1;
#X obj 805 565 osc~;
#X obj 805 593 *~, f 6;
#X obj 826 449 nbx 4 21 0 20 0 1 empty \$0_h_bang harmonic 0 -12 0 16 #fcfcfc #000000 #000000 7 256;
#X obj 826 475 t f f;
#X obj 863 503 expr if ($f1 > 0 \, 1 / ($f1 * $f1) \, 0);
#X obj 997 637 * 1;
#X obj 997 665 osc~;
#X obj 997 693 *~, f 6;
#X obj 1018 549 nbx 4 21 0 20 0 1 empty \$0_h_bang harmonic 0 -12 0 16 #fcfcfc #000000 #000000 9 256;
#X obj 1018 575 t f f;
#X obj 1055 603 expr if ($f1 > 0 \, 1 / ($f1 * $f1) \, 0);
#X obj 1188 737 * 1;
#X obj 1188 765 osc~;
#X obj 1188 793 *~, f 6;
#X obj 1209 649 nbx 4 21 0 20 0 1 empty \$0_h_bang harmonic 0 -12 0 16 #fcfcfc #000000 #000000 11 256;
#X obj 1209 675 t f f;
#X obj 1246 703 expr if ($f1 > 0 \, 1 / ($f1 * $f1) \, 0);
#X obj 1380 837 * 1;
#X obj 1380 865 osc~;
#X obj 1380 893 *~, f 6;
#X obj 1401 749 nbx 4 21 0 20 0 1 empty \$0_h_bang harmonic 0 -12 0 16 #fcfcfc #000000 #000000 13 256;
#X obj 1401 775 t f f;
#X obj 1438 803 expr if ($f1 > 0 \, 1 / ($f1 * $f1) \, 0);
#X obj 34 21 r \$0_init;
#X obj 34 49 s \$0_h_bang;
#X obj 615 968 *~ 1;
#X obj 616 1072 outlet~;
#X connect 0 0 1 0;
#X connect 1 0 2 0;
#X connect 1 1 8 0;
#X connect 1 2 14 0;
#X connect 1 3 20 0;
#X connect 1 4 26 0;
#X connect 1 5 32 0;
#X connect 1 6 38 0;
#X connect 2 0 3 0;
#X connect 3 0 4 0;
#X connect 4 0 46 0;
#X connect 5 0 6 0;
#X connect 6 0 2 1;
#X connect 6 1 7 0;
#X connect 7 0 4 1;
#X connect 8 0 9 0;
#X connect 9 0 10 0;
#X connect 10 0 46 0;
#X connect 11 0 12 0;
#X connect 12 0 8 1;
#X connect 12 1 13 0;
#X connect 13 0 10 1;
#X connect 14 0 15 0;
#X connect 15 0 16 0;
#X connect 16 0 46 0;
#X connect 17 0 18 0;
#X connect 18 0 14 1;
#X connect 18 1 19 0;
#X connect 19 0 16 1;
#X connect 20 0 21 0;
#X connect 21 0 22 0;
#X connect 22 0 46 0;
#X connect 23 0 24 0;
#X connect 24 0 20 1;
#X connect 24 1 25 0;
#X connect 25 0 22 1;
#X connect 26 0 27 0;
#X connect 27 0 28 0;
#X connect 28 0 46 0;
#X connect 29 0 30 0;
#X connect 30 0 26 1;
#X connect 30 1 31 0;
#X connect 31 0 28 1;
#X connect 32 0 33 0;
#X connect 33 0 34 0;
#X connect 34 0 46 0;
#X connect 35 0 36 0;
#X connect 36 0 32 1;
#X connect 36 1 37 0;
#X connect 37 0 34 1;
#X connect 38 0 39 0;
#X connect 39 0 40 0;
#X connect 40 0 46 0;
#X connect 41 0 42 0;
#X connect 42 0 38 1;
#X connect 42 1 43 0;
#X connect 43 0 40 1;
#X connect 44 0 45 0;
#X connect 46 0 47 0;
#X restore 220 595 pd triangle;
#X obj 77 160 f;
#X obj 77 188 t f f;
#X obj 135 189 + 1;
#X obj 77 216 mod 4;
#N canvas 1037 671 475 293 normalize 0;
#X obj 33 15 inlet denormalized;
#X obj 280 45 inlet scale;
#X obj 33 149 * 1;
#X obj 33 242 outlet;
#X obj 33 65 + 1;
#X obj 280 73 t f f;
#X obj 32 105 * 0.5;
#X obj 33 182 + 110;
#X connect 0 0 4 0;
#X connect 1 0 5 0;
#X connect 2 0 7 0;
#X connect 4 0 6 0;
#X connect 5 0 2 1;
#X connect 6 0 2 0;
#X connect 7 0 3 0;
#X restore 220 455 pd normalize;
#N canvas 234 722 475 293 normalize 0;
#X obj 33 45 inlet denormalized;
#X obj 280 45 inlet scale;
#X obj 33 149 * 1;
#X obj 33 212 outlet;
#X obj 33 115 + 1;
#X obj 33 177 + 110;
#X floatatom 101 178 5 0 0 0 - - - 0;
#X connect 0 0 4 0;
#X connect 1 0 2 1;
#X connect 2 0 5 0;
#X connect 4 0 2 0;
#X connect 5 0 3 0;
#X connect 6 0 5 1;
#X restore 77 455 pd normalize;
#X obj 388 353 t f f, f 7;
#N canvas 8 122 424 270 quantize 0;
#X obj 84 63 ftom;
#X obj 84 94 int;
#X obj 84 150 mtof;
#X obj 84 121 expr if($f1 % 2 == 0 \, $f1 \, $f1 - 1);
#X obj 84 27 inlet;
#X obj 84 178 outlet;
#X connect 0 0 1 0;
#X connect 1 0 3 0;
#X connect 2 0 5 0;
#X connect 3 0 2 0;
#X connect 4 0 0 0;
#X restore 257 519 pd quantize;
#X obj 77 483 t f f;
#X obj 220 483 t f f;
#N canvas 8 122 424 270 quantize 0;
#X obj 84 63 ftom;
#X obj 84 94 int;
#X obj 84 150 mtof;
#X obj 84 121 expr if($f1 % 2 == 0 \, $f1 \, $f1 - 1);
#X obj 84 27 inlet;
#X obj 84 178 outlet;
#X connect 0 0 1 0;
#X connect 1 0 3 0;
#X connect 2 0 5 0;
#X connect 3 0 2 0;
#X connect 4 0 0 0;
#X restore 114 519 pd quantize;
#N canvas 8 122 1762 1184 triangle 0;
#X obj 231 51 inlet freq;
#X obj 231 104 t f f f f f f f, f 144;
#X obj 231 237 * 1;
#X obj 231 265 osc~;
#X obj 231 293 *~, f 6;
#X obj 252 149 nbx 4 21 0 20 0 1 empty \$0_h_bang harmonic 0 -12 0 16 #fcfcfc #000000 #000000 1 256;
#X obj 252 175 t f f;
#X obj 289 203 expr if ($f1 > 0 \, 1 / ($f1 * $f1) \, 0);
#X obj 422 337 * 1;
#X obj 422 365 osc~;
#X obj 422 393 *~, f 6;
#X obj 443 249 nbx 4 21 0 20 0 1 empty \$0_h_bang harmonic 0 -12 0 16 #fcfcfc #000000 #000000 3 256;
#X obj 443 275 t f f;
#X obj 480 303 expr if ($f1 > 0 \, 1 / ($f1 * $f1) \, 0);
#X obj 614 437 * 1;
#X obj 614 465 osc~;
#X obj 614 493 *~, f 6;
#X obj 635 349 nbx 4 21 0 20 0 1 empty \$0_h_bang harmonic 0 -12 0 16 #fcfcfc #000000 #000000 5 256;
#X obj 635 375 t f f;
#X obj 672 403 expr if ($f1 > 0 \, 1 / ($f1 * $f1) \, 0);
#X obj 805 537 * 1;
#X obj 805 565 osc~;
#X obj 805 593 *~, f 6;
#X obj 826 449 nbx 4 21 0 20 0 1 empty \$0_h_bang harmonic 0 -12 0 16 #fcfcfc #000000 #000000 7 256;
#X obj 826 475 t f f;
#X obj 863 503 expr if ($f1 > 0 \, 1 / ($f1 * $f1) \, 0);
#X obj 997 637 * 1;
#X obj 997 665 osc~;
#X obj 997 693 *~, f 6;
#X obj 1018 549 nbx 4 21 0 20 0 1 empty \$0_h_bang harmonic 0 -12 0 16 #fcfcfc #000000 #000000 9 256;
#X obj 1018 575 t f f;
#X obj 1055 603 expr if ($f1 > 0 \, 1 / ($f1 * $f1) \, 0);
#X obj 1188 737 * 1;
#X obj 1188 765 osc~;
#X obj 1188 793 *~, f 6;
#X obj 1209 649 nbx 4 21 0 20 0 1 empty \$0_h_bang harmonic 0 -12 0 16 #fcfcfc #000000 #000000 11 256;
#X obj 1209 675 t f f;
#X obj 1246 703 expr if ($f1 > 0 \, 1 / ($f1 * $f1) \, 0);
#X obj 1380 837 * 1;
#X obj 1380 865 osc~;
#X obj 1380 893 *~, f 6;
#X obj 1401 749 nbx 4 21 0 20 0 1 empty \$0_h_bang harmonic 0 -12 0 16 #fcfcfc #000000 #000000 13 256;
#X obj 1401 775 t f f;
#X obj 1438 803 expr if ($f1 > 0 \, 1 / ($f1 * $f1) \, 0);
#X obj 34 21 r \$0_init;
#X obj 34 49 s \$0_h_bang;
#X obj 615 968 *~ 1;
#X obj 616 1072 outlet~;
#X connect 0 0 1 0;
#X connect 1 0 2 0;
#X connect 1 1 8 0;
#X connect 1 2 14 0;
#X connect 1 3 20 0;
#X connect 1 4 26 0;
#X connect 1 5 32 0;
#X connect 1 6 38 0;
#X connect 2 0 3 0;
#X connect 3 0 4 0;
#X connect 4 0 46 0;
#X connect 5 0 6 0;
#X connect 6 0 2 1;
#X connect 6 1 7 0;
#X connect 7 0 4 1;
#X connect 8 0 9 0;
#X connect 9 0 10 0;
#X connect 10 0 46 0;
#X connect 11 0 12 0;
#X connect 12 0 8 1;
#X connect 12 1 13 0;
#X connect 13 0 10 1;
#X connect 14 0 15 0;
#X connect 15 0 16 0;
#X connect 16 0 46 0;
#X connect 17 0 18 0;
#X connect 18 0 14 1;
#X connect 18 1 19 0;
#X connect 19 0 16 1;
#X connect 20 0 21 0;
#X connect 21 0 22 0;
#X connect 22 0 46 0;
#X connect 23 0 24 0;
#X connect 24 0 20 1;
#X connect 24 1 25 0;
#X connect 25 0 22 1;
#X connect 26 0 27 0;
#X connect 27 0 28 0;
#X connect 28 0 46 0;
#X connect 29 0 30 0;
#X connect 30 0 26 1;
#X connect 30 1 31 0;
#X connect 31 0 28 1;
#X connect 32 0 33 0;
#X connect 33 0 34 0;
#X connect 34 0 46 0;
#X connect 35 0 36 0;
#X connect 36 0 32 1;
#X connect 36 1 37 0;
#X connect 37 0 34 1;
#X connect 38 0 39 0;
#X connect 39 0 40 0;
#X connect 40 0 46 0;
#X connect 41 0 42 0;
#X connect 42 0 38 1;
#X connect 42 1 43 0;
#X connect 43 0 40 1;
#X connect 44 0 45 0;
#X connect 46 0 47 0;
#X restore 77 595 pd triangle;
#X obj 686 660 r \$0_init;
#X obj 604 9 inlet amp_Y;
#X obj 744 75 lop~ 5;
#X obj 744 9 inlet amp_y_hat;
#X obj 116 669 *~;
#X obj 192 728 +~;
#X obj 388 15 inlet norm_range;
#X floatatom 140 218 5 0 0 0 - - - 0;
#X obj 243 160 r \$0_m_i;
#X obj 491 353 array get \$0_aL-2_1;
#X obj 77 264 t f f f;
#X msg 565 320 1;
#X obj 242 233 r \$0_init;
#X obj 664 983 bob~;
#X obj 491 381 t f f, f 45;
#X obj 847 488 lop~ 10;
#X obj 734 981 nbx 5 21 0 4 0 1 empty empty empty 0 -12 0 16 #fcfcfc #000000 #000000 0.850003 256;
#X obj 894 554 nbx 5 21 -1e+37 1e+37 0 1 empty empty empty 0 -12 0 16 #fcfcfc #000000 #000000 740 256;
#X obj 894 524 nbx 5 21 -1e+37 1e+37 0 1 empty empty empty 0 -12 0 16 #fcfcfc #000000 #000000 383.39 256;
#X obj 848 525 *~;
#X obj 848 553 +~;
#X obj 848 414 + 1;
#X obj 847 454 * 0.5;
#X msg 1145 288 1;
#X obj 1071 349 t f f, f 45;
#X obj 242 261 t b b b b b, f 55;
#X obj 1071 321 array get \$0_X;
#N canvas 1626 613 475 293 normalize 0;
#X obj 33 45 inlet denormalized;
#X obj 280 45 inlet scale;
#X obj 33 149 * 1;
#X obj 33 212 outlet;
#X obj 32 83 + 1;
#X obj 33 177 + 110;
#X obj 32 111 * 0.5;
#X connect 0 0 4 0;
#X connect 1 0 2 1;
#X connect 2 0 5 0;
#X connect 4 0 6 0;
#X connect 5 0 3 0;
#X connect 6 0 2 0;
#X restore 1428 566 pd normalize;
#X obj 1428 594 t f f;
#N canvas 12 158 424 270 quantize 0;
#X obj 84 63 ftom;
#X obj 84 94 int;
#X obj 84 150 mtof;
#X obj 84 121 expr if($f1 % 2 == 0 \, $f1 \, $f1 - 1);
#X obj 84 27 inlet;
#X obj 84 178 outlet;
#X connect 0 0 1 0;
#X connect 1 0 3 0;
#X connect 2 0 5 0;
#X connect 3 0 2 0;
#X connect 4 0 0 0;
#X restore 1465 630 pd quantize;
#N canvas 12 158 1762 1184 triangle 0;
#X obj 231 51 inlet freq;
#X obj 231 104 t f f f f f f f, f 144;
#X obj 231 237 * 1;
#X obj 231 265 osc~;
#X obj 231 293 *~, f 6;
#X obj 252 149 nbx 4 21 0 20 0 1 empty \$0_h_bang harmonic 0 -12 0 16 #fcfcfc #000000 #000000 1 256;
#X obj 252 175 t f f;
#X obj 289 203 expr if ($f1 > 0 \, 1 / ($f1 * $f1) \, 0);
#X obj 422 337 * 1;
#X obj 422 365 osc~;
#X obj 422 393 *~, f 6;
#X obj 443 249 nbx 4 21 0 20 0 1 empty \$0_h_bang harmonic 0 -12 0 16 #fcfcfc #000000 #000000 3 256;
#X obj 443 275 t f f;
#X obj 480 303 expr if ($f1 > 0 \, 1 / ($f1 * $f1) \, 0);
#X obj 614 437 * 1;
#X obj 614 465 osc~;
#X obj 614 493 *~, f 6;
#X obj 635 349 nbx 4 21 0 20 0 1 empty \$0_h_bang harmonic 0 -12 0 16 #fcfcfc #000000 #000000 5 256;
#X obj 635 375 t f f;
#X obj 672 403 expr if ($f1 > 0 \, 1 / ($f1 * $f1) \, 0);
#X obj 805 537 * 1;
#X obj 805 565 osc~;
#X obj 805 593 *~, f 6;
#X obj 826 449 nbx 4 21 0 20 0 1 empty \$0_h_bang harmonic 0 -12 0 16 #fcfcfc #000000 #000000 7 256;
#X obj 826 475 t f f;
#X obj 863 503 expr if ($f1 > 0 \, 1 / ($f1 * $f1) \, 0);
#X obj 997 637 * 1;
#X obj 997 665 osc~;
#X obj 997 693 *~, f 6;
#X obj 1018 549 nbx 4 21 0 20 0 1 empty \$0_h_bang harmonic 0 -12 0 16 #fcfcfc #000000 #000000 9 256;
#X obj 1018 575 t f f;
#X obj 1055 603 expr if ($f1 > 0 \, 1 / ($f1 * $f1) \, 0);
#X obj 1188 737 * 1;
#X obj 1188 765 osc~;
#X obj 1188 793 *~, f 6;
#X obj 1209 649 nbx 4 21 0 20 0 1 empty \$0_h_bang harmonic 0 -12 0 16 #fcfcfc #000000 #000000 11 256;
#X obj 1209 675 t f f;
#X obj 1246 703 expr if ($f1 > 0 \, 1 / ($f1 * $f1) \, 0);
#X obj 1380 837 * 1;
#X obj 1380 865 osc~;
#X obj 1380 893 *~, f 6;
#X obj 1401 749 nbx 4 21 0 20 0 1 empty \$0_h_bang harmonic 0 -12 0 16 #fcfcfc #000000 #000000 13 256;
#X obj 1401 775 t f f;
#X obj 1438 803 expr if ($f1 > 0 \, 1 / ($f1 * $f1) \, 0);
#X obj 34 21 r \$0_init;
#X obj 34 49 s \$0_h_bang;
#X obj 615 968 *~ 1;
#X obj 616 1072 outlet~;
#X connect 0 0 1 0;
#X connect 1 0 2 0;
#X connect 1 1 8 0;
#X connect 1 2 14 0;
#X connect 1 3 20 0;
#X connect 1 4 26 0;
#X connect 1 5 32 0;
#X connect 1 6 38 0;
#X connect 2 0 3 0;
#X connect 3 0 4 0;
#X connect 4 0 46 0;
#X connect 5 0 6 0;
#X connect 6 0 2 1;
#X connect 6 1 7 0;
#X connect 7 0 4 1;
#X connect 8 0 9 0;
#X connect 9 0 10 0;
#X connect 10 0 46 0;
#X connect 11 0 12 0;
#X connect 12 0 8 1;
#X connect 12 1 13 0;
#X connect 13 0 10 1;
#X connect 14 0 15 0;
#X connect 15 0 16 0;
#X connect 16 0 46 0;
#X connect 17 0 18 0;
#X connect 18 0 14 1;
#X connect 18 1 19 0;
#X connect 19 0 16 1;
#X connect 20 0 21 0;
#X connect 21 0 22 0;
#X connect 22 0 46 0;
#X connect 23 0 24 0;
#X connect 24 0 20 1;
#X connect 24 1 25 0;
#X connect 25 0 22 1;
#X connect 26 0 27 0;
#X connect 27 0 28 0;
#X connect 28 0 46 0;
#X connect 29 0 30 0;
#X connect 30 0 26 1;
#X connect 30 1 31 0;
#X connect 31 0 28 1;
#X connect 32 0 33 0;
#X connect 33 0 34 0;
#X connect 34 0 46 0;
#X connect 35 0 36 0;
#X connect 36 0 32 1;
#X connect 36 1 37 0;
#X connect 37 0 34 1;
#X connect 38 0 39 0;
#X connect 39 0 40 0;
#X connect 40 0 46 0;
#X connect 41 0 42 0;
#X connect 42 0 38 1;
#X connect 42 1 43 0;
#X connect 43 0 40 1;
#X connect 44 0 45 0;
#X connect 46 0 47 0;
#X restore 1428 706 pd triangle;
#X obj 1467 780 *~;
#X floatatom 1514 777 5 0 0 0 - - - 0;
#X connect 0 0 31 0;
#X connect 1 0 42 0;
#X connect 2 0 41 1;
#X connect 4 0 8 0;
#X connect 5 0 4 1;
#X connect 6 0 4 2;
#X connect 7 0 50 0;
#X connect 8 0 7 1;
#X connect 9 0 12 0;
#X connect 10 0 7 0;
#X connect 11 0 10 1;
#X connect 12 0 11 0;
#X connect 12 1 8 1;
#X connect 13 0 14 0;
#X connect 14 0 16 0;
#X connect 14 1 15 0;
#X connect 15 0 13 1;
#X connect 16 0 17 0;
#X connect 17 0 25 0;
#X connect 18 0 13 0;
#X connect 19 0 23 1;
#X connect 20 0 16 1;
#X connect 21 0 30 0;
#X connect 22 0 21 1;
#X connect 23 0 29 0;
#X connect 24 0 1 0;
#X connect 25 0 26 0;
#X connect 26 0 28 0;
#X connect 26 1 27 0;
#X connect 27 0 25 1;
#X connect 28 0 47 0;
#X connect 29 0 34 0;
#X connect 30 0 33 0;
#X connect 31 0 30 1;
#X connect 31 1 29 1;
#X connect 31 1 64 1;
#X connect 32 0 24 0;
#X connect 33 1 35 0;
#X connect 34 1 32 0;
#X connect 35 0 36 0;
#X connect 36 0 41 0;
#X connect 37 0 9 0;
#X connect 38 0 2 0;
#X connect 39 0 1 1;
#X connect 40 0 39 0;
#X connect 41 0 42 0;
#X connect 42 0 4 0;
#X connect 42 0 10 0;
#X connect 43 0 0 0;
#X connect 44 0 28 1;
#X connect 46 0 51 0;
#X connect 47 0 21 0;
#X connect 47 1 23 0;
#X connect 47 2 46 0;
#X connect 47 2 63 0;
#X connect 48 0 46 1;
#X connect 49 0 62 0;
#X connect 50 0 3 0;
#X connect 50 0 3 1;
#X connect 51 1 58 0;
#X connect 52 0 56 0;
#X connect 53 0 50 2;
#X connect 54 0 57 1;
#X connect 55 0 56 1;
#X connect 56 0 57 0;
#X connect 57 0 50 1;
#X connect 58 0 59 0;
#X connect 59 0 52 0;
#X connect 60 0 63 1;
#X connect 61 1 64 0;
#X connect 62 0 22 0;
#X connect 62 1 19 0;
#X connect 62 2 0 0;
#X connect 62 3 48 0;
#X connect 62 4 60 0;
#X connect 63 0 61 0;
#X connect 64 0 65 0;
#X connect 65 1 66 0;
#X connect 66 0 67 0;
#X connect 67 0 68 0;
#X connect 68 0 42 0;
#X connect 69 0 68 1;
#X restore 34 518 pd synth;
#X f 27;
#X obj 140 313 vsl 23 196 0 1 0 0 empty empty amp\ Y 0 -9 0 16 #fcfcfc #000000 #000000 0 1;
#N canvas 1015 723 1357 679 generate_data 0;
#X obj 56 472 array set;
#X obj 1045 251 expr if($f1 > 7 \, -0.5 \, 0.5);
#X obj 133 23 inlet;
#X obj 253 339 nbx 5 21 -1e+37 1e+37 0 1 empty empty empty 0 -12 0 16 #fcfcfc #000000 #000000 -3.64 256;
#X obj 20 280 expr if($f1 < $f2 \, 0.3 \, if($f1 < 11 \, 1 \, 0.5));
#X obj 674 71 expr cos($f1) * 3;
#X obj 348 386 expr if($f1 < 5 \, -0.5 \, if($f1 < 11 \, 0.1 \, -0.8));
#X obj 56 88 r \$0_m_i;
#N canvas 1444 479 291 176 ns_symbol 0;
#X obj 71 46 r \$0_ns;
#X obj 29 45 d_0;
#X obj 29 15 inlet raw_message;
#X obj 29 83 outlet ns_message;
#X connect 0 0 1 1;
#X connect 1 0 3 0;
#X connect 2 0 1 0;
#X restore 125 438 pd ns_symbol;
#X msg 125 403 X;
#X obj 387 484 array set;
#N canvas 1444 479 291 176 ns_symbol 0;
#X obj 71 46 r \$0_ns;
#X obj 29 45 d_0;
#X obj 29 15 inlet raw_message;
#X obj 29 83 outlet ns_message;
#X connect 0 0 1 1;
#X connect 1 0 3 0;
#X connect 2 0 1 0;
#X restore 456 450 pd ns_symbol;
#X msg 456 415 Y;
#X obj 584 332 nbx 5 21 -1e+37 1e+37 0 1 empty empty empty 0 -12 0 16 #fcfcfc #000000 #000000 -0.54857 256;
#X obj 56 142 spigot, f 10;
#X obj 253 23 inlet;
#X obj 584 23 inlet;
#X obj 56 365 expr sin(($f1 + 1) * $f2);
#X obj 376 326 expr sin(($f1 + 1) * $f2);
#X obj 175 402 r \$0_init;
#X obj 497 415 r \$0_init;
#X obj 253 57 t f f f;
#X obj 730 459 array set;
#N canvas 1444 479 291 176 ns_symbol 0;
#X obj 71 46 r \$0_ns;
#X obj 29 45 d_0;
#X obj 29 15 inlet raw_message;
#X obj 29 83 outlet ns_message;
#X connect 0 0 1 1;
#X connect 1 0 3 0;
#X connect 2 0 1 0;
#X restore 799 425 pd ns_symbol;
#X obj 730 352 expr sin(($f1 + 1) * $f2);
#X obj 849 389 r \$0_init;
#X msg 799 390 X_1;
#X obj 1015 470 array set;
#N canvas 1444 479 291 176 ns_symbol 0;
#X obj 71 46 r \$0_ns;
#X obj 29 45 d_0;
#X obj 29 15 inlet raw_message;
#X obj 29 83 outlet ns_message;
#X connect 0 0 1 1;
#X connect 1 0 3 0;
#X connect 2 0 1 0;
#X restore 1084 436 pd ns_symbol;
#X obj 1015 363 expr sin(($f1 + 1) * $f2);
#X obj 1134 400 r \$0_init;
#X msg 1084 401 X_2;
#X obj 56 214 t f f f f f f f f, f 117;
#X obj 925 314 + 0.247;
#X obj 1205 317 + 0.783;
#X connect 1 0 27 0;
#X connect 2 0 14 1;
#X connect 3 0 17 1;
#X connect 4 0 0 0;
#X connect 6 0 10 0;
#X connect 7 0 14 0;
#X connect 8 0 0 2;
#X connect 9 0 8 0;
#X connect 11 0 10 2;
#X connect 12 0 11 0;
#X connect 13 0 18 1;
#X connect 14 0 32 0;
#X connect 15 0 21 0;
#X connect 16 0 13 0;
#X connect 19 0 9 0;
#X connect 20 0 12 0;
#X connect 21 0 3 0;
#X connect 21 1 33 0;
#X connect 23 0 22 2;
#X connect 24 0 22 0;
#X connect 25 0 26 0;
#X connect 26 0 23 0;
#X connect 28 0 27 2;
#X connect 30 0 31 0;
#X connect 31 0 28 0;
#X connect 32 0 17 0;
#X connect 32 0 4 0;
#X connect 32 1 0 1;
#X connect 32 2 18 0;
#X connect 32 2 6 0;
#X connect 32 3 10 1;
#X connect 32 4 24 0;
#X connect 32 5 22 1;
#X connect 32 6 29 0;
#X connect 32 6 1 0;
#X connect 32 7 27 1;
#X connect 33 0 24 1;
#X connect 34 0 29 1;
#X restore 23 797 pd generate_data;
#X f 18;
#X obj 23 764 tgl 23 0 empty empty empty 0 -12 0 16 #fcfcfc #000000 #000000 0 1;
#X obj 93 590 vsl 23 196 0 90 0 0 empty empty X 0 -9 0 16 #fcfcfc #000000 #000000 0 1;
#X obj 184 582 vsl 23 196 0 90 0 0 empty empty Y 0 -9 0 16 #fcfcfc #000000 #000000 0 1;
#X floatatom 213 759 10 0 0 0 - - - 0;
#X floatatom 119 768 5 0 0 0 - - - 0;
#X floatatom 213 583 5 0 0 0 - - - 0;
#X floatatom 120 592 5 0 0 0 - - - 0;
#X obj 34 314 vsl 23 196 0 1000 0 0 empty empty range 0 -9 0 16 #fcfcfc #000000 #000000 0 1;
#X msg 303 242 \; \$1_y_hat const 0;
#X obj 303 209 f \$0;
#X msg 303 180 bang;
#X obj 247 313 vsl 23 196 0 1 0 0 empty empty amp\ y_hat 0 -9 0 16 #fcfcfc #000000 #000000 0 1;
#X obj 1903 598 nn.update wL-3_0 dwL-3_0;
#X obj 1903 628 nn.update wL-3_1 dwL-3_1;
#X obj 1903 658 nn.update wL-3_2 dwL-3_2;
#X obj 1903 686 nn.update bL-3_0 dbL-3_0;
#X obj 1903 714 nn.update bL-3_1 dbL-3_1;
#X obj 1903 742 nn.update bL-3_2 dbL-3_2;
#X obj 1517 516 r \$0_ns;
#X obj 428 772 f;
#X obj 798 707 f;
#X obj 798 772 f;
#X obj 1168 710 f;
#X obj 1168 772 f;
#X obj 602 778 t f f;
#X obj 972 778 t f f;
#X obj 1342 778 t f f;
#X obj 612 478 t f f f;
#X obj 982 478 t f f f;
#X obj 1352 478 t f f f;
#X obj 2308 558 r \$0_ns;
#X obj 2204 541 r \$0_alpha;
#X obj 823 143 nn.array_read X_1;
#X obj 1023 143 nn.array_read X_2;
#N canvas 2809 696 516 582 scopes 0;
#N canvas 0 50 450 250 (subpatch) 0;
#X array \$0_X 16 float 3;
#A 0 0.764546 0.74073 0.777796 0.722761 0.785757 1.3141 1.68177 1.32867 1.05593 0.971162 1.02398 0.404455 0.404316 0.439063 0.371479 0.46709;
#X coords 0 1 16 -1 200 140 1;
#X restore 42 36 graph;
#N canvas 0 50 450 250 (subpatch) 0;
#X array \$0_Y 16 float 3;
#A 0 -0.5 -0.5 -0.5 -0.5 -0.5 0.1 0.1 0.1 0.1 0.1 0.1 -0.8 -0.8 -0.8 -0.8 -0.8;
#X coords 0 1 16 -1 200 140 1 0 0;
#X restore 281 35 graph;
#N canvas 0 50 450 250 (subpatch) 0;
#X array \$0_y_hat 16 float 3;
#A 0 -0.5 -0.5 -0.5 -0.5 -0.5 0.1 0.0999992 0.1 0.0999999 0.1 0.1 -0.8 -0.8 -0.8 -0.8 -0.8;
#X coords 0 1 16 -1 200 140 1 0 0;
#X restore 282 202 graph;
#N canvas 0 50 450 250 (subpatch) 0;
#X array \$0_X_1 16 float 3;
#A 0 0.286566 -0.420561 0.701517 -0.810076 0.965778 -1.03498 0.847016 -0.945156 0.770137 -0.584152 0.367314 -0.115273 -0.117248 0.375082 -0.579196 0.774389;
#X coords 0 1 16 -1 200 140 1;
#X restore 39 198 graph;
#N canvas 0 50 450 250 (subpatch) 0;
#X array \$0_X_2 16 float 3;
#A 0 0.537799 0.561332 0.516794 0.534424 0.514598 0.463081 0.364834 0.459398 -0.499917 -0.497014 -0.499991 -0.490895 -0.490883 -0.494085 -0.490441 -0.49694;
#X coords 0 1 16 -1 200 140 1;
#X restore 39 368 graph;
#X restore 369 928 pd scopes;
#X obj 39 935 r \$0_batch_count;
#X obj 39 963 f;
#X obj 39 991 t f f;
#X obj 100 994 + 1;
#X obj 39 1019 t f f;
#X obj 39 1075 sin;
#X obj 39 1103 * 8;
#X obj 39 1131 s \$0_batch_angle;
#X obj 231 707 r \$0_batch_angle;
#X floatatom 89 1102 5 0 0 0 - - - 0;
#X obj 439 444 nn.neuron_3 wL-3_0 bL-3_0 aL-3_0 zL-3_0 tanh;
#X obj 808 444 nn.neuron_3 wL-3_1 bL-3_1 aL-3_1 zL-3_1 tanh;
#X obj 1178 444 nn.neuron_3 wL-3_2 bL-3_2 aL-3_2 zL-3_2 tanh;
#X obj 428 744 nn.neuron_3 wL-2_0 bL-2_0 aL-2_0 zL-2_0 tanh;
#X obj 798 744 nn.neuron_3 wL-2_1 bL-2_1 aL-2_1 zL-2_1 tanh;
#X obj 1168 743 nn.neuron_3 wL-2_2 bL-2_2 aL-2_2 zL-2_2 tanh;
#X obj 515 994 nn.neuron_3 wL-1_0 bL-1_0 aL-1_0 zL-1_0 tanh;
#X obj 1118 994 nn.neuron_3 wL-1_1 bL-1_1 aL-1_1 zL-1_1 tanh;
#X obj 869 1104 nn.neuron_1 wL bL y_hat zL linear;
#X obj 1903 258 nn.bp_2x3 dzL-1_0 dzL-1_1 daL-1_0 daL-1_1 zL-1_0 zL-1_1 aL-1_0 aL-1_1 dwL-1_0 dwL-1_1 aL-2_0 aL-2_1 aL-2_2 dbL-1_0 dbL-1_1 daL-2_0 daL-2_1 daL-2_2 wL-1_0 wL-1_1 tanh;
#X obj 1903 334 nn.bp_3x3 dzL-2_0 dzL-2_1 dzL-2_2 daL-2_0 daL-2_1 daL-2_2 zL-2_0 zL-2_1 zL-2_2 aL-2_0 aL-2_1 aL-2_2 dwL-2_0 dwL-2_1 dwL-2_2 aL-3_0 aL-3_1 aL-3_2 dbL-2_0 dbL-2_1 dbL-2_2 daL-3_0 daL-3_1 daL-3_2 wL-2_0 wL-2_1 wL-2_2 tanh;
#X obj 1903 450 nn.bp_3x3 dzL-3_0 dzL-3_1 dzL-3_2 daL-3_0 daL-3_1 daL-3_2 zL-3_0 zL-3_1 zL-3_2 aL-3_0 aL-3_1 aL-3_2 dwL-3_0 dwL-3_1 dwL-3_2 X X_1 X_2 dbL-3_0 dbL-3_1 dbL-3_2 dX_0 dX_1 dX_2 wL-3_0 wL-3_1 wL-3_2 tanh;
#X obj 1903 1238 nn.update X_1 dX_1;
#X obj 1903 1269 nn.update X_2 dX_1;
#X obj 1903 1167 spigot;
#X obj 1960 1150 tgl 23 0 empty empty empty 0 -12 0 16 #fcfcfc #000000 #000000 0 1;
#X obj 1902 1209 nn.update X dX_0;
#X obj 869 1194 sel 15;
#X obj 1298 1155 array get \$0_wL-2_0;
#X obj 1298 1183 print;
#X msg 1295 1119 bang;
#X text 198 797 // NOTE: disconnected from X;
#X obj 39 1047 * 0.036;
#X connect 0 0 1 0;
#X connect 2 0 0 0;
#X connect 5 0 4 0;
#X connect 7 0 6 0;
#X connect 8 0 6 1;
#X connect 9 0 6 2;
#X connect 11 0 10 0;
#X connect 12 0 15 0;
#X connect 13 0 15 1;
#X connect 14 0 13 0;
#X connect 15 0 19 0;
#X connect 15 1 24 0;
#X connect 16 0 15 2;
#X connect 17 0 103 1;
#X connect 18 0 104 1;
#X connect 19 0 20 0;
#X connect 20 0 103 0;
#X connect 21 0 22 0;
#X connect 22 0 104 0;
#X connect 23 0 116 4;
#X connect 23 0 117 4;
#X connect 23 0 118 4;
#X connect 24 0 116 1;
#X connect 24 1 117 1;
#X connect 24 2 118 1;
#X connect 25 0 116 2;
#X connect 25 1 117 2;
#X connect 25 2 118 2;
#X connect 26 0 116 3;
#X connect 26 1 117 3;
#X connect 26 2 118 3;
#X connect 27 0 116 0;
#X connect 28 0 29 0;
#X connect 29 0 117 0;
#X connect 30 0 31 0;
#X connect 31 0 118 0;
#X connect 32 0 119 0;
#X connect 33 0 122 4;
#X connect 33 0 123 4;
#X connect 34 0 35 0;
#X connect 35 0 123 0;
#X connect 36 0 124 2;
#X connect 37 0 38 0;
#X connect 38 0 133 1;
#X connect 39 0 40 0;
#X connect 40 0 44 0;
#X connect 40 1 41 0;
#X connect 41 0 39 1;
#X connect 42 0 39 1;
#X connect 43 0 42 0;
#X connect 45 0 46 0;
#X connect 46 0 47 0;
#X connect 46 1 50 0;
#X connect 47 0 49 0;
#X connect 48 0 47 1;
#X connect 50 0 67 0;
#X connect 52 0 53 0;
#X connect 53 0 57 0;
#X connect 54 0 55 0;
#X connect 55 0 56 0;
#X connect 56 0 58 0;
#X connect 57 0 54 0;
#X connect 58 0 59 0;
#X connect 59 0 61 0;
#X connect 60 0 62 0;
#X connect 61 0 60 0;
#X connect 62 0 63 0;
#X connect 63 0 130 0;
#X connect 64 0 50 1;
#X connect 64 0 67 1;
#X connect 64 0 125 1;
#X connect 64 0 126 1;
#X connect 64 0 127 1;
#X connect 65 0 66 0;
#X connect 67 0 125 0;
#X connect 69 0 68 1;
#X connect 71 0 70 0;
#X connect 72 0 70 1;
#X connect 72 0 75 0;
#X connect 73 0 74 0;
#X connect 73 0 70 2;
#X connect 76 0 73 0;
#X connect 77 0 72 0;
#X connect 78 0 68 0;
#X connect 80 0 79 0;
#X connect 81 0 80 0;
#X connect 82 0 68 2;
#X connect 83 0 84 0;
#X connect 84 0 85 0;
#X connect 85 0 86 0;
#X connect 86 0 87 0;
#X connect 87 0 88 0;
#X connect 88 0 52 0;
#X connect 89 0 119 4;
#X connect 89 0 120 4;
#X connect 89 0 121 4;
#X connect 90 0 91 0;
#X connect 91 0 120 0;
#X connect 92 0 93 0;
#X connect 93 0 121 0;
#X connect 94 0 122 0;
#X connect 95 0 122 1;
#X connect 95 1 123 1;
#X connect 96 0 122 2;
#X connect 96 1 123 2;
#X connect 97 0 122 3;
#X connect 97 1 123 3;
#X connect 98 0 119 1;
#X connect 98 1 120 1;
#X connect 98 2 121 1;
#X connect 99 0 119 2;
#X connect 99 1 120 2;
#X connect 99 2 121 2;
#X connect 100 0 119 3;
#X connect 100 1 120 3;
#X connect 100 2 121 3;
#X connect 101 0 83 2;
#X connect 101 0 88 2;
#X connect 101 0 87 2;
#X connect 101 0 86 2;
#X connect 101 0 85 2;
#X connect 101 0 84 2;
#X connect 101 0 63 2;
#X connect 101 0 62 2;
#X connect 101 0 61 2;
#X connect 101 0 60 2;
#X connect 101 0 59 2;
#X connect 101 0 58 2;
#X connect 101 0 57 2;
#X connect 101 0 56 2;
#X connect 101 0 55 2;
#X connect 101 0 54 2;
#X connect 101 0 53 2;
#X connect 101 0 52 2;
#X connect 101 0 129 2;
#X connect 101 0 128 2;
#X connect 101 0 132 2;
#X connect 102 0 83 1;
#X connect 102 0 88 1;
#X connect 102 0 87 1;
#X connect 102 0 86 1;
#X connect 102 0 85 1;
#X connect 102 0 84 1;
#X connect 102 0 63 1;
#X connect 102 0 62 1;
#X connect 102 0 61 1;
#X connect 102 0 60 1;
#X connect 102 0 59 1;
#X connect 102 0 58 1;
#X connect 102 0 57 1;
#X connect 102 0 56 1;
#X connect 102 0 55 1;
#X connect 102 0 54 1;
#X connect 102 0 53 1;
#X connect 102 0 52 1;
#X connect 102 0 129 1;
#X connect 102 0 128 1;
#X connect 102 0 132 1;
#X connect 103 0 21 0;
#X connect 103 1 25 0;
#X connect 104 0 27 0;
#X connect 104 1 26 0;
#X connect 106 0 107 0;
#X connect 107 0 108 0;
#X connect 108 0 110 0;
#X connect 108 1 109 0;
#X connect 109 0 107 1;
#X connect 110 0 138 0;
#X connect 111 0 112 0;
#X connect 112 0 113 0;
#X connect 114 0 70 2;
#X connect 115 0 112 1;
#X connect 116 0 28 0;
#X connect 116 1 98 0;
#X connect 117 0 30 0;
#X connect 117 1 99 0;
#X connect 118 0 32 0;
#X connect 118 1 100 0;
#X connect 119 0 90 0;
#X connect 119 1 95 0;
#X connect 120 0 92 0;
#X connect 120 1 96 0;
#X connect 121 0 94 0;
#X connect 121 1 97 0;
#X connect 122 0 34 0;
#X connect 122 1 124 1;
#X connect 123 0 124 0;
#X connect 124 0 133 0;
#X connect 125 0 126 0;
#X connect 126 0 127 0;
#X connect 127 0 83 0;
#X connect 128 0 129 0;
#X connect 130 0 132 0;
#X connect 131 0 130 1;
#X connect 132 0 128 0;
#X connect 133 0 39 0;
#X connect 134 0 135 0;
#X connect 136 0 134 0;
#X connect 138 0 111 0;
