#N canvas 8 70 2796 1332 16;
#N canvas 852 142 1038 1240 arrays 0;
#N canvas 1502 405 601 532 comment 0;
#X obj 101 101 cnv 23 398 298 empty empty empty 20 12 0 16 #e0e0e0 #404040 0;
#X text 151 122 Back propagation \; dZ^[l] = dA^[l] x g^[l]'(Z^[l]) \; dW^[l] = 1/m x dZ^[l]A^[l-1]T \; db^[l] = 1/m x sum(dZ^[l]) \; dA^[l-1] = W^[l]T . dZ^[l] \; layer shapes \; L (1 \, 2) \; L-1 (2 \, 2) \; L-2 (2 \, 2) \; input (n_x \, m) = (2 \, 4);
#X coords 0 -1 1 1 400 300 2 100 100;
#X restore 38 12 pd comment;
#X obj 32 570 array define \$0_wL 2;
#X obj 32 610 array define \$0_bL 1;
#X text 31 465 // output layer L;
#X obj 272 570 array define \$0_dwL 2;
#X obj 272 610 array define \$0_dbL 1;
#X obj 535 439 array define \$0_wL-1_1 2;
#X obj 535 479 array define \$0_bL-1_1 1;
#X obj 775 439 array define \$0_dwL-1_1 2;
#X obj 775 479 array define \$0_dbL-1_1 1;
#X obj 535 609 array define \$0_wL-1_2 2;
#X obj 535 649 array define \$0_bL-1_2 1;
#X obj 775 609 array define \$0_dwL-1_2 2;
#X obj 775 649 array define \$0_dbL-1_2 1;
#X text 540 332 // layer L-1;
#X text 51 722 // layer L-2;
#X obj 45 829 array define \$0_wL-2_1 2;
#X obj 45 869 array define \$0_bL-2_1 1;
#X obj 285 829 array define \$0_dwL-2_1 2;
#X obj 285 869 array define \$0_dbL-2_1 1;
#X obj 45 999 array define \$0_wL-2_2 2;
#X obj 285 999 array define \$0_dwL-2_2 2;
#X obj 45 1039 array define \$0_bL-2_2 1;
#X obj 285 1039 array define \$0_dbL-2_2 1;
#X text 507 96 // \$0_X \, \$0_Y \, and \$0_aL defined in main patch;
#X text 48 369 // \$0_X \; \$0_Y;
#X text 35 497 // \$0_aL;
#X text 541 722 // layer L-3;
#X obj 535 829 array define \$0_wL-3_1 2;
#X obj 535 869 array define \$0_bL-3_1 1;
#X obj 535 999 array define \$0_wL-3_2 2;
#X obj 535 1039 array define \$0_bL-3_2 1;
#X obj 775 829 array define \$0_dwL-3_1 2;
#X obj 775 869 array define \$0_dbL-3_1 1;
#X obj 775 999 array define \$0_dwL-3_2 2;
#X obj 775 1039 array define \$0_dbL-3_2 1;
#X obj 32 530 array define \$0_zL 8;
#X obj 272 489 array define \$0_daL 8;
#X obj 272 530 array define \$0_dzL 8;
#X obj 535 359 array define \$0_aL-1_1 8;
#X obj 535 399 array define \$0_zL-1_1 8;
#X obj 775 359 array define \$0_daL-1_1 8;
#X obj 775 399 array define \$0_dzL-1_1 8;
#X obj 536 529 array define \$0_aL-1_2 8;
#X obj 775 529 array define \$0_daL-1_2 8;
#X obj 535 569 array define \$0_zL-1_2 8;
#X obj 775 569 array define \$0_dzL-1_2 8;
#X obj 46 749 array define \$0_aL-2_1 8;
#X obj 45 789 array define \$0_zL-2_1 8;
#X obj 45 919 array define \$0_aL-2_2 8;
#X obj 45 959 array define \$0_zL-2_2 8;
#X obj 285 749 array define \$0_daL-2_1 8;
#X obj 285 789 array define \$0_dzL-2_1 8;
#X obj 285 919 array define \$0_daL-2_2 8;
#X obj 285 959 array define \$0_dzL-2_2 8;
#X obj 537 749 array define \$0_aL-3_1 8;
#X obj 535 789 array define \$0_zL-3_1 8;
#X obj 535 919 array define \$0_aL-3_2 8;
#X obj 535 959 array define \$0_zL-3_2 8;
#X obj 775 749 array define \$0_daL-3_1 8;
#X obj 775 789 array define \$0_dzL-3_1 8;
#X obj 775 919 array define \$0_daL-3_2 8;
#X obj 775 959 array define \$0_dzL-3_2 8;
#X restore 299 153 pd arrays;
#N canvas 831 335 2007 958 initialize_arrays 0;
#X obj 126 20 inlet bang;
#X obj 880 873 array set;
#N canvas 2604 927 427 257 array_args 0;
#X obj 81 24 inlet message;
#N canvas 1444 479 291 176 ns_symbol 0;
#X obj 71 46 r \$0_ns;
#X obj 29 45 d_0;
#X obj 29 15 inlet raw_message;
#X obj 29 83 outlet ns_message;
#X connect 0 0 1 1;
#X connect 1 0 3 0;
#X connect 2 0 1 0;
#X restore 81 80 pd ns_symbol;
#X obj 81 164 outlet values;
#X obj 222 163 outlet name;
#X obj 81 52 list split 1, f 34;
#X obj 81 136 list store;
#X obj 81 108 t b s, f 18;
#X connect 0 0 4 0;
#X connect 1 0 6 0;
#X connect 4 0 1 0;
#X connect 4 1 5 1;
#X connect 5 0 2 0;
#X connect 6 0 5 0;
#X connect 6 1 3 0;
#X restore 39 115 pd array_args;
#N canvas 2612 999 427 257 array_args 0;
#X obj 81 24 inlet message;
#N canvas 1444 479 291 176 ns_symbol 0;
#X obj 71 46 r \$0_ns;
#X obj 29 45 d_0;
#X obj 29 15 inlet raw_message;
#X obj 29 83 outlet ns_message;
#X connect 0 0 1 1;
#X connect 1 0 3 0;
#X connect 2 0 1 0;
#X restore 81 80 pd ns_symbol;
#X obj 81 164 outlet values;
#X obj 222 163 outlet name;
#X obj 81 52 list split 1, f 34;
#X obj 81 136 list store;
#X obj 81 108 t b s, f 18;
#X connect 0 0 4 0;
#X connect 1 0 6 0;
#X connect 4 0 1 0;
#X connect 4 1 5 1;
#X connect 5 0 2 0;
#X connect 6 0 5 0;
#X connect 6 1 3 0;
#X restore 206 196 pd array_args;
#N canvas 2608 963 427 257 array_args 0;
#X obj 81 24 inlet message;
#N canvas 1444 479 291 176 ns_symbol 0;
#X obj 71 46 r \$0_ns;
#X obj 29 45 d_0;
#X obj 29 15 inlet raw_message;
#X obj 29 83 outlet ns_message;
#X connect 0 0 1 1;
#X connect 1 0 3 0;
#X connect 2 0 1 0;
#X restore 81 80 pd ns_symbol;
#X obj 81 164 outlet values;
#X obj 222 163 outlet name;
#X obj 81 52 list split 1, f 34;
#X obj 81 136 list store;
#X obj 81 108 t b s, f 18;
#X connect 0 0 4 0;
#X connect 1 0 6 0;
#X connect 4 0 1 0;
#X connect 4 1 5 1;
#X connect 5 0 2 0;
#X connect 6 0 5 0;
#X connect 6 1 3 0;
#X restore 374 118 pd array_args;
#N canvas 2608 963 427 257 array_args 0;
#X obj 81 24 inlet message;
#N canvas 1444 479 291 176 ns_symbol 0;
#X obj 71 46 r \$0_ns;
#X obj 29 45 d_0;
#X obj 29 15 inlet raw_message;
#X obj 29 83 outlet ns_message;
#X connect 0 0 1 1;
#X connect 1 0 3 0;
#X connect 2 0 1 0;
#X restore 81 80 pd ns_symbol;
#X obj 81 164 outlet values;
#X obj 222 163 outlet name;
#X obj 81 52 list split 1, f 34;
#X obj 81 136 list store;
#X obj 81 108 t b s, f 18;
#X connect 0 0 4 0;
#X connect 1 0 6 0;
#X connect 4 0 1 0;
#X connect 4 1 5 1;
#X connect 5 0 2 0;
#X connect 6 0 5 0;
#X connect 6 1 3 0;
#X restore 542 120 pd array_args;
#N canvas 2608 963 427 257 array_args 0;
#X obj 81 24 inlet message;
#N canvas 1444 479 291 176 ns_symbol 0;
#X obj 71 46 r \$0_ns;
#X obj 29 45 d_0;
#X obj 29 15 inlet raw_message;
#X obj 29 83 outlet ns_message;
#X connect 0 0 1 1;
#X connect 1 0 3 0;
#X connect 2 0 1 0;
#X restore 81 80 pd ns_symbol;
#X obj 81 164 outlet values;
#X obj 222 163 outlet name;
#X obj 81 52 list split 1, f 34;
#X obj 81 136 list store;
#X obj 81 108 t b s, f 18;
#X connect 0 0 4 0;
#X connect 1 0 6 0;
#X connect 4 0 1 0;
#X connect 4 1 5 1;
#X connect 5 0 2 0;
#X connect 6 0 5 0;
#X connect 6 1 3 0;
#X restore 709 119 pd array_args;
#N canvas 2608 963 427 257 array_args 0;
#X obj 81 24 inlet message;
#N canvas 1444 479 291 176 ns_symbol 0;
#X obj 71 46 r \$0_ns;
#X obj 29 45 d_0;
#X obj 29 15 inlet raw_message;
#X obj 29 83 outlet ns_message;
#X connect 0 0 1 1;
#X connect 1 0 3 0;
#X connect 2 0 1 0;
#X restore 81 80 pd ns_symbol;
#X obj 81 164 outlet values;
#X obj 222 163 outlet name;
#X obj 81 52 list split 1, f 34;
#X obj 81 136 list store;
#X obj 81 108 t b s, f 18;
#X connect 0 0 4 0;
#X connect 1 0 6 0;
#X connect 4 0 1 0;
#X connect 4 1 5 1;
#X connect 5 0 2 0;
#X connect 6 0 5 0;
#X connect 6 1 3 0;
#X restore 877 119 pd array_args;
#X msg 542 91 bL 0.01;
#X msg 877 90 bL-1_1 0.02;
#N canvas 2608 963 427 257 array_args 0;
#X obj 81 24 inlet message;
#N canvas 1444 479 291 176 ns_symbol 0;
#X obj 71 46 r \$0_ns;
#X obj 29 45 d_0;
#X obj 29 15 inlet raw_message;
#X obj 29 83 outlet ns_message;
#X connect 0 0 1 1;
#X connect 1 0 3 0;
#X connect 2 0 1 0;
#X restore 81 80 pd ns_symbol;
#X obj 81 164 outlet values;
#X obj 222 163 outlet name;
#X obj 81 52 list split 1, f 34;
#X obj 81 136 list store;
#X obj 81 108 t b s, f 18;
#X connect 0 0 4 0;
#X connect 1 0 6 0;
#X connect 4 0 1 0;
#X connect 4 1 5 1;
#X connect 5 0 2 0;
#X connect 6 0 5 0;
#X connect 6 1 3 0;
#X restore 1045 119 pd array_args;
#N canvas 2608 963 427 257 array_args 0;
#X obj 81 24 inlet message;
#N canvas 1444 479 291 176 ns_symbol 0;
#X obj 71 46 r \$0_ns;
#X obj 29 45 d_0;
#X obj 29 15 inlet raw_message;
#X obj 29 83 outlet ns_message;
#X connect 0 0 1 1;
#X connect 1 0 3 0;
#X connect 2 0 1 0;
#X restore 81 80 pd ns_symbol;
#X obj 81 164 outlet values;
#X obj 222 163 outlet name;
#X obj 81 52 list split 1, f 34;
#X obj 81 136 list store;
#X obj 81 108 t b s, f 18;
#X connect 0 0 4 0;
#X connect 1 0 6 0;
#X connect 4 0 1 0;
#X connect 4 1 5 1;
#X connect 5 0 2 0;
#X connect 6 0 5 0;
#X connect 6 1 3 0;
#X restore 1213 119 pd array_args;
#N canvas 2608 963 427 257 array_args 0;
#X obj 81 24 inlet message;
#N canvas 1444 479 291 176 ns_symbol 0;
#X obj 71 46 r \$0_ns;
#X obj 29 45 d_0;
#X obj 29 15 inlet raw_message;
#X obj 29 83 outlet ns_message;
#X connect 0 0 1 1;
#X connect 1 0 3 0;
#X connect 2 0 1 0;
#X restore 81 80 pd ns_symbol;
#X obj 81 164 outlet values;
#X obj 222 163 outlet name;
#X obj 81 52 list split 1, f 34;
#X obj 81 136 list store;
#X obj 81 108 t b s, f 18;
#X connect 0 0 4 0;
#X connect 1 0 6 0;
#X connect 4 0 1 0;
#X connect 4 1 5 1;
#X connect 5 0 2 0;
#X connect 6 0 5 0;
#X connect 6 1 3 0;
#X restore 1380 119 pd array_args;
#N canvas 2608 963 427 257 array_args 0;
#X obj 81 24 inlet message;
#N canvas 1444 479 291 176 ns_symbol 0;
#X obj 71 46 r \$0_ns;
#X obj 29 45 d_0;
#X obj 29 15 inlet raw_message;
#X obj 29 83 outlet ns_message;
#X connect 0 0 1 1;
#X connect 1 0 3 0;
#X connect 2 0 1 0;
#X restore 81 80 pd ns_symbol;
#X obj 81 164 outlet values;
#X obj 222 163 outlet name;
#X obj 81 52 list split 1, f 34;
#X obj 81 136 list store;
#X obj 81 108 t b s, f 18;
#X connect 0 0 4 0;
#X connect 1 0 6 0;
#X connect 4 0 1 0;
#X connect 4 1 5 1;
#X connect 5 0 2 0;
#X connect 6 0 5 0;
#X connect 6 1 3 0;
#X restore 1548 119 pd array_args;
#N canvas 2608 963 427 257 array_args 0;
#X obj 81 24 inlet message;
#N canvas 1444 479 291 176 ns_symbol 0;
#X obj 71 46 r \$0_ns;
#X obj 29 45 d_0;
#X obj 29 15 inlet raw_message;
#X obj 29 83 outlet ns_message;
#X connect 0 0 1 1;
#X connect 1 0 3 0;
#X connect 2 0 1 0;
#X restore 81 80 pd ns_symbol;
#X obj 81 164 outlet values;
#X obj 222 163 outlet name;
#X obj 81 52 list split 1, f 34;
#X obj 81 136 list store;
#X obj 81 108 t b s, f 18;
#X connect 0 0 4 0;
#X connect 1 0 6 0;
#X connect 4 0 1 0;
#X connect 4 1 5 1;
#X connect 5 0 2 0;
#X connect 6 0 5 0;
#X connect 6 1 3 0;
#X restore 1716 119 pd array_args;
#N canvas 2608 963 427 257 array_args 0;
#X obj 81 24 inlet message;
#N canvas 1444 479 291 176 ns_symbol 0;
#X obj 71 46 r \$0_ns;
#X obj 29 45 d_0;
#X obj 29 15 inlet raw_message;
#X obj 29 83 outlet ns_message;
#X connect 0 0 1 1;
#X connect 1 0 3 0;
#X connect 2 0 1 0;
#X restore 81 80 pd ns_symbol;
#X obj 81 164 outlet values;
#X obj 222 163 outlet name;
#X obj 81 52 list split 1, f 34;
#X obj 81 136 list store;
#X obj 81 108 t b s, f 18;
#X connect 0 0 4 0;
#X connect 1 0 6 0;
#X connect 4 0 1 0;
#X connect 4 1 5 1;
#X connect 5 0 2 0;
#X connect 6 0 5 0;
#X connect 6 1 3 0;
#X restore 1884 119 pd array_args;
#X msg 1548 90 bL-2_1 0.03;
#X msg 1213 90 bL-1_2 -0.02;
#X obj 39 58 t b b b b b b b b b b b b, f 231;
#X msg 374 89 wL 0.1 0.05;
#X msg 709 90 wL-1_1 0.2 0.1;
#X msg 1045 90 wL-1_2 0.1 0.05;
#X msg 1380 90 wL-2_1 0.3 0.15;
#X msg 1716 90 wL-2_2 0.125 0.075;
#X msg 1884 90 bL-1_2 -0.0125;
#X msg 39 86 X -0.75 -0.25 0.25 0.75;
#X msg 206 167 Y -0.25 -0.15 -0.15 0.5;
#X connect 0 0 18 0;
#X connect 2 0 1 0;
#X connect 2 1 1 2;
#X connect 3 0 1 0;
#X connect 3 1 1 2;
#X connect 4 0 1 0;
#X connect 4 1 1 2;
#X connect 5 0 1 0;
#X connect 5 1 1 2;
#X connect 6 0 1 0;
#X connect 6 1 1 2;
#X connect 7 0 1 0;
#X connect 7 1 1 2;
#X connect 8 0 5 0;
#X connect 9 0 7 0;
#X connect 10 0 1 0;
#X connect 10 1 1 2;
#X connect 11 0 1 0;
#X connect 11 1 1 2;
#X connect 12 0 1 0;
#X connect 12 1 1 2;
#X connect 13 0 1 0;
#X connect 13 1 1 2;
#X connect 14 0 1 0;
#X connect 14 1 1 2;
#X connect 15 0 1 0;
#X connect 15 1 1 2;
#X connect 16 0 13 0;
#X connect 17 0 11 0;
#X connect 18 0 25 0;
#X connect 18 1 26 0;
#X connect 18 2 19 0;
#X connect 18 3 8 0;
#X connect 18 4 20 0;
#X connect 18 5 9 0;
#X connect 18 6 21 0;
#X connect 18 7 17 0;
#X connect 18 8 22 0;
#X connect 18 9 16 0;
#X connect 18 10 23 0;
#X connect 18 11 24 0;
#X connect 19 0 4 0;
#X connect 20 0 6 0;
#X connect 21 0 10 0;
#X connect 22 0 12 0;
#X connect 23 0 14 0;
#X connect 24 0 15 0;
#X connect 25 0 2 0;
#X connect 26 0 3 0;
#X restore 38 269 pd initialize_arrays;
#X msg 119 11 bang;
#X obj 38 11 loadbang;
#X obj 38 44 f \$0;
#X obj 38 72 s \$0_ns;
#X obj 762 76 nn.array_cycle X;
#X obj 887 43 r \$0_ns;
#X obj 1188 77 nn.array_read X;
#X obj 1305 44 r \$0_ns;
#X msg 824 43 bang;
#X obj 762 109 f;
#X obj 1188 44 f;
#X obj 1120 481 r \$0_ns;
#X obj 1537 481 r \$0_ns;
#X obj 1120 671 r \$0_ns;
#X obj 1537 671 r \$0_ns;
#X obj 1282 801 r \$0_ns;
#X obj 887 109 t f f;
#X obj 1305 110 t f f;
#X obj 945 547 t f f;
#X obj 1362 547 t f f;
#X obj 1188 547 f;
#X obj 771 481 f;
#X obj 771 562 f;
#X obj 1188 643 f;
#X obj 1188 742 f;
#X obj 771 658 f;
#X obj 1728 39 nn.dz_mse aL Y dzL;
#X obj 1728 72 nn.dw_1x2 dzL aL-1_1 aL-1_2 dwL;
#X obj 1728 105 nn.db_1x1 dzL dbL;
#N canvas 1909 219 814 518 da_test_arrays 0;
#N canvas 2604 927 427 257 array_args 0;
#X obj 81 24 inlet message;
#N canvas 1444 479 291 176 ns_symbol 0;
#X obj 71 46 r \$0_ns;
#X obj 29 45 d_0;
#X obj 29 15 inlet raw_message;
#X obj 29 83 outlet ns_message;
#X connect 0 0 1 1;
#X connect 1 0 3 0;
#X connect 2 0 1 0;
#X restore 81 80 pd ns_symbol;
#X obj 81 164 outlet values;
#X obj 222 163 outlet name;
#X obj 81 52 list split 1, f 34;
#X obj 81 136 list store;
#X obj 81 108 t b s, f 18;
#X connect 0 0 4 0;
#X connect 1 0 6 0;
#X connect 4 0 1 0;
#X connect 4 1 5 1;
#X connect 5 0 2 0;
#X connect 6 0 5 0;
#X connect 6 1 3 0;
#X restore 87 328 pd array_args;
#X obj 69 48 array define \$0_w_1 2;
#X obj 67 134 array define \$0_dz_1 4;
#X obj 538 46 array define \$0_da_prev_1 4;
#X obj 538 96 array define \$0_da_prev_2 4;
#X obj 84 373 array set;
#X msg 53 220 w_1 3 4;
#X obj 68 89 array define \$0_w_2 2;
#X obj 67 171 array define \$0_dz_2 4;
#X msg 77 257 w_2 5 6;
#X msg 213 267 dz_2 3 4 5 6;
#X obj 542 152 array define \$0_dw 2;
#X msg 352 211 a_prev_1 3 4 5 6;
#X msg 353 249 a_prev_2 4 5 6 7;
#X obj 315 55 array define \$0_a_prev_1 4;
#X obj 312 91 array define \$0_a_prev_2 4;
#X msg 194 221 dz_1 5 4 3 2;
#X connect 0 0 5 0;
#X connect 0 1 5 2;
#X connect 6 0 0 0;
#X connect 9 0 0 0;
#X connect 10 0 0 0;
#X connect 12 0 0 0;
#X connect 13 0 0 0;
#X connect 16 0 0 0;
#X restore 38 202 pd da_test_arrays;
#X obj 1728 138 nn.da_1x2 wL dzL daL-1_1 daL-1_2;
#X obj 1728 237 nn.dw_1x2 dzL-1_1 aL-2_1 aL-2_2 dwL-1_1;
#X obj 1728 270 nn.dw_1x2 dzL-1_2 aL-2_1 aL-2_2 dwL-1_2;
#X obj 1728 303 nn.db_1x1 dzL-1_1 dbL-1_1;
#X obj 1728 336 nn.db_1x1 dzL-1_2 dbL-1_2;
#N canvas 396 201 770 970 bits_and_bobs 0;
#N canvas 1444 479 291 176 ns_symbol 0;
#X obj 71 46 r \$0_ns;
#X obj 29 45 d_0;
#X obj 29 15 inlet raw_message;
#X obj 29 83 outlet ns_message;
#X connect 0 0 1 1;
#X connect 1 0 3 0;
#X connect 2 0 1 0;
#X restore 111 94 pd ns_symbol;
#X obj 42 127 array get;
#X obj 42 155 print;
#X obj 74 59 t b a;
#X msg 75 30 dwL;
#X obj 313 153 array set;
#N canvas 2608 963 427 257 array_args 0;
#X obj 81 24 inlet message;
#N canvas 1444 479 291 176 ns_symbol 0;
#X obj 71 46 r \$0_ns;
#X obj 29 45 d_0;
#X obj 29 15 inlet raw_message;
#X obj 29 83 outlet ns_message;
#X connect 0 0 1 1;
#X connect 1 0 3 0;
#X connect 2 0 1 0;
#X restore 81 80 pd ns_symbol;
#X obj 81 164 outlet values;
#X obj 222 163 outlet name;
#X obj 81 52 list split 1, f 34;
#X obj 81 136 list store;
#X obj 81 108 t b s, f 18;
#X connect 0 0 4 0;
#X connect 1 0 6 0;
#X connect 4 0 1 0;
#X connect 4 1 5 1;
#X connect 5 0 2 0;
#X connect 6 0 5 0;
#X connect 6 1 3 0;
#X restore 305 86 pd array_args;
#X msg 303 44 aL-1_2 4 5 6 7;
#X obj 23 253 nn.da_2x2 w_1 w_2 dz_1 dz_2 da_prev_1 da_prev_2;
#X obj 396 216 r \$0_ns;
#X msg 22 211 bang;
#X obj 38 350 nn.dw_1x2 dz_1 a_prev_1 a_prev_2 dw;
#X obj 315 307 r \$0_ns;
#X msg 38 310 bang;
#N canvas 2024 414 787 635 notes_dw 0;
#X obj 102 102 cnv 23 596 396 empty empty empty 20 12 0 16 #e0e0e0 #404040 0;
#X text 127 117 dW^[l] = 1/m x dZ^[l] . A^[l-1]T \; wL shape (1 \, 2) \; dZ^[l] shape (1 \, m) \; aL-1_1 shape (1 \, m) \; aL-1_2 shape (1 \, m) \; \; The first column of dwL: \; 1/m x dzL x aL-1_1 \; The second column of dwL: \; 1/m x dzL x aL-1_2 \; \; The nn.dw_1x1 funtion simplifies the process by calculating a single column of dw \; \; The nn.dw_1x2 function does both calculations in one pass;
#X coords 0 -1 1 1 600 400 1 100 100;
#X restore 10 398 pd notes_dw;
#X connect 0 0 1 2;
#X connect 1 0 2 0;
#X connect 3 0 1 0;
#X connect 3 1 0 0;
#X connect 4 0 3 0;
#X connect 6 0 5 0;
#X connect 6 1 5 2;
#X connect 7 0 6 0;
#X connect 9 0 8 1;
#X connect 10 0 8 0;
#X connect 12 0 11 1;
#X connect 13 0 11 0;
#X restore 38 236 pd bits_and_bobs;
#X obj 1728 369 nn.da_2x2 wL-1_1 wL-1_2 dzL-1_1 dzL-1_2 daL-2_1 daL-2_2;
#X obj 1728 534 nn.db_1x1 dzL-2_1 dbL-2_1;
#X obj 1728 567 nn.db_1x1 dzL-2_2 dbL-2_2;
#X obj 2349 122 r \$0_ns;
#X obj 302 115 nbx 5 21 0 2 0 1 \$0_alpha empty learning\ rate 0 -12 0 16 #fcfcfc #000000 #000000 0.779487 256;
#X obj 1728 1173 nn.update bL-2_1 dbL-2_1;
#X obj 1728 1201 nn.update bL-2_2 dbL-2_2;
#X obj 1728 1229 nn.update wL-1_1 dwL-1_1;
#X obj 1728 1257 nn.update wL-1_2 dwL-1_2;
#X obj 1728 1285 nn.update wL dwL;
#X obj 1728 1313 nn.update bL dbL;
#X obj 2229 927 r \$0_alpha;
#N canvas 1764 414 450 565 iterator 1;
#X obj 44 31 inlet toggle;
#X obj 44 157 f;
#X obj 44 215 t f f;
#X obj 291 31 inlet batch_size;
#X obj 98 215 + 1;
#X obj 44 263 mod;
#X obj 44 291 t f f;
#X obj 81 324 sel;
#X msg 287 290 0;
#X obj 81 352 t b b, f 16;
#X obj 81 380 s \$0_m_0;
#X obj 44 437 s \$0_m_i;
#X obj 44 87 t b b;
#X obj 81 115 s \$0_m_b;
#X obj 291 59 t f f;
#X obj 328 105 - 1;
#X obj 44 59 metro 150;
#X connect 0 0 16 0;
#X connect 1 0 2 0;
#X connect 2 0 5 0;
#X connect 2 1 4 0;
#X connect 3 0 14 0;
#X connect 4 0 1 1;
#X connect 5 0 6 0;
#X connect 6 0 11 0;
#X connect 6 1 7 0;
#X connect 7 0 9 0;
#X connect 8 0 1 1;
#X connect 9 0 10 0;
#X connect 9 1 8 0;
#X connect 12 0 1 0;
#X connect 12 1 13 0;
#X connect 14 0 5 1;
#X connect 14 1 15 0;
#X connect 15 0 7 1;
#X connect 16 0 12 0;
#X restore 302 59 pd iterator;
#X obj 302 31 tgl 23 0 empty empty empty 0 -12 0 16 #fcfcfc #000000 #000000 0 1;
#X obj 762 15 r \$0_m_b;
#X obj 1728 9 r \$0_m_0;
#X obj 1728 1145 nn.update wL-2_2 dwL-2_2;
#X obj 1728 1113 nn.update wL-2_1 dwL-2_1;
#N canvas 1444 479 291 176 ns_symbol 0;
#X obj 71 46 r \$0_ns;
#X obj 29 45 d_0;
#X obj 29 15 inlet raw_message;
#X obj 29 83 outlet ns_message;
#X connect 0 0 1 1;
#X connect 1 0 3 0;
#X connect 2 0 1 0;
#X restore 141 1218 pd ns_symbol;
#X obj 72 1251 array get;
#X obj 72 1279 print;
#X obj 104 1183 t b a;
#X msg 105 1154 wL;
#X msg 167 1153 wL-1_1;
#N canvas 733 609 791 594 initialize_params 0;
#X obj 647 30 r \$0_ns;
#X obj 60 33 inlet bang;
#X obj 209 106 nn.initialize_params wL 10;
#X obj 209 136 nn.initialize_params bL 10;
#X obj 209 179 nn.initialize_params wL-1_1 10;
#X obj 209 209 nn.initialize_params bL-1_1 10;
#X obj 209 239 nn.initialize_params wL-1_2 10;
#X obj 210 268 nn.initialize_params bL-1_2 10;
#X obj 209 309 nn.initialize_params wL-2_1 10;
#X obj 209 339 nn.initialize_params bL-2_1 10;
#X obj 209 369 nn.initialize_params wL-2_2 10;
#X obj 209 399 nn.initialize_params bL-2_2 10;
#X obj 209 439 nn.initialize_params wL-3_1 10;
#X obj 209 469 nn.initialize_params bL-3_1 10;
#X obj 209 499 nn.initialize_params wL-3_2 10;
#X obj 209 529 nn.initialize_params bL-3_2 10;
#X connect 0 0 2 1;
#X connect 0 0 3 1;
#X connect 0 0 4 1;
#X connect 0 0 5 1;
#X connect 0 0 6 1;
#X connect 0 0 7 1;
#X connect 0 0 8 1;
#X connect 0 0 9 1;
#X connect 0 0 10 1;
#X connect 0 0 11 1;
#X connect 0 0 12 1;
#X connect 0 0 13 1;
#X connect 0 0 14 1;
#X connect 0 0 15 1;
#X connect 1 0 2 0;
#X connect 1 0 3 0;
#X connect 1 0 4 0;
#X connect 1 0 5 0;
#X connect 1 0 6 0;
#X connect 1 0 7 0;
#X connect 1 0 8 0;
#X connect 1 0 9 0;
#X connect 1 0 10 0;
#X connect 1 0 11 0;
#X connect 1 0 12 0;
#X connect 1 0 13 0;
#X connect 1 0 14 0;
#X connect 1 0 15 0;
#X restore 42 164 pd initialize_params;
#X msg 42 136 bang;
#N canvas 0 50 450 250 (subpatch) 0;
#X array \$0_X 8 float 3;
#A 0 0.557143 0.471427 0.371437 0.628586 -0.242869 -0.242875 -0.200017 0.932085;
#X coords 0 1 8 -1 200 140 1;
#X restore 50 651 graph;
#N canvas 0 50 450 250 (subpatch) 0;
#X array \$0_Y 8 float 3;
#A 0 -0.485735 0.399999 0.500017 0.571439 0.485722 -1.40667e-05 0.114305 0.785749;
#X coords 0 1 8 -1 200 140 1;
#X restore 52 821 graph;
#N canvas 0 50 450 250 (subpatch) 0;
#X array \$0_aL 8 float 3;
#A 0 0.296435 0.296435 0.296435 0.296435 0.296435 0.296435 0.296435 0.296435;
#X coords 0 1 8 -1 200 140 1;
#X restore 49 988 graph;
#N canvas 254 256 1437 1146 reset 0;
#X msg 47 569 \; \$1 const 0;
#N canvas 1444 479 291 176 ns_symbol 0;
#X obj 71 46 r \$0_ns;
#X obj 29 45 d_0;
#X obj 29 15 inlet raw_message;
#X obj 29 83 outlet ns_message;
#X connect 0 0 1 1;
#X connect 1 0 3 0;
#X connect 2 0 1 0;
#X restore 392 398 pd ns_symbol;
#X msg 372 365 zL;
#N canvas 1444 479 291 176 ns_symbol 0;
#X obj 71 46 r \$0_ns;
#X obj 29 45 d_0;
#X obj 29 15 inlet raw_message;
#X obj 29 83 outlet ns_message;
#X connect 0 0 1 1;
#X connect 1 0 3 0;
#X connect 2 0 1 0;
#X restore 392 328 pd ns_symbol;
#X msg 372 295 aL;
#N canvas 1444 479 291 176 ns_symbol 0;
#X obj 71 46 r \$0_ns;
#X obj 29 45 d_0;
#X obj 29 15 inlet raw_message;
#X obj 29 83 outlet ns_message;
#X connect 0 0 1 1;
#X connect 1 0 3 0;
#X connect 2 0 1 0;
#X restore 392 538 pd ns_symbol;
#N canvas 1444 479 291 176 ns_symbol 0;
#X obj 71 46 r \$0_ns;
#X obj 29 45 d_0;
#X obj 29 15 inlet raw_message;
#X obj 29 83 outlet ns_message;
#X connect 0 0 1 1;
#X connect 1 0 3 0;
#X connect 2 0 1 0;
#X restore 392 468 pd ns_symbol;
#X msg 372 435 daL;
#X msg 372 505 dzL;
#N canvas 1444 479 291 176 ns_symbol 0;
#X obj 71 46 r \$0_ns;
#X obj 29 45 d_0;
#X obj 29 15 inlet raw_message;
#X obj 29 83 outlet ns_message;
#X connect 0 0 1 1;
#X connect 1 0 3 0;
#X connect 2 0 1 0;
#X restore 392 678 pd ns_symbol;
#N canvas 1444 479 291 176 ns_symbol 0;
#X obj 71 46 r \$0_ns;
#X obj 29 45 d_0;
#X obj 29 15 inlet raw_message;
#X obj 29 83 outlet ns_message;
#X connect 0 0 1 1;
#X connect 1 0 3 0;
#X connect 2 0 1 0;
#X restore 392 608 pd ns_symbol;
#X msg 372 575 dwL;
#X msg 372 645 dbL;
#N canvas 1444 479 291 176 ns_symbol 0;
#X obj 71 46 r \$0_ns;
#X obj 29 45 d_0;
#X obj 29 15 inlet raw_message;
#X obj 29 83 outlet ns_message;
#X connect 0 0 1 1;
#X connect 1 0 3 0;
#X connect 2 0 1 0;
#X restore 672 238 pd ns_symbol;
#N canvas 1444 479 291 176 ns_symbol 0;
#X obj 71 46 r \$0_ns;
#X obj 29 45 d_0;
#X obj 29 15 inlet raw_message;
#X obj 29 83 outlet ns_message;
#X connect 0 0 1 1;
#X connect 1 0 3 0;
#X connect 2 0 1 0;
#X restore 672 168 pd ns_symbol;
#N canvas 1444 479 291 176 ns_symbol 0;
#X obj 71 46 r \$0_ns;
#X obj 29 45 d_0;
#X obj 29 15 inlet raw_message;
#X obj 29 83 outlet ns_message;
#X connect 0 0 1 1;
#X connect 1 0 3 0;
#X connect 2 0 1 0;
#X restore 672 378 pd ns_symbol;
#N canvas 1444 479 291 176 ns_symbol 0;
#X obj 71 46 r \$0_ns;
#X obj 29 45 d_0;
#X obj 29 15 inlet raw_message;
#X obj 29 83 outlet ns_message;
#X connect 0 0 1 1;
#X connect 1 0 3 0;
#X connect 2 0 1 0;
#X restore 672 308 pd ns_symbol;
#N canvas 1444 479 291 176 ns_symbol 0;
#X obj 71 46 r \$0_ns;
#X obj 29 45 d_0;
#X obj 29 15 inlet raw_message;
#X obj 29 83 outlet ns_message;
#X connect 0 0 1 1;
#X connect 1 0 3 0;
#X connect 2 0 1 0;
#X restore 672 518 pd ns_symbol;
#N canvas 1444 479 291 176 ns_symbol 0;
#X obj 71 46 r \$0_ns;
#X obj 29 45 d_0;
#X obj 29 15 inlet raw_message;
#X obj 29 83 outlet ns_message;
#X connect 0 0 1 1;
#X connect 1 0 3 0;
#X connect 2 0 1 0;
#X restore 672 448 pd ns_symbol;
#X msg 652 135 aL-1_1;
#X msg 652 205 zL-1_1;
#X msg 652 275 daL-1_1;
#X msg 652 345 dzL-1_1;
#X msg 652 415 dwL-1_1;
#X msg 652 485 dbL-1_1;
#N canvas 1444 479 291 176 ns_symbol 0;
#X obj 71 46 r \$0_ns;
#X obj 29 45 d_0;
#X obj 29 15 inlet raw_message;
#X obj 29 83 outlet ns_message;
#X connect 0 0 1 1;
#X connect 1 0 3 0;
#X connect 2 0 1 0;
#X restore 672 658 pd ns_symbol;
#N canvas 1444 479 291 176 ns_symbol 0;
#X obj 71 46 r \$0_ns;
#X obj 29 45 d_0;
#X obj 29 15 inlet raw_message;
#X obj 29 83 outlet ns_message;
#X connect 0 0 1 1;
#X connect 1 0 3 0;
#X connect 2 0 1 0;
#X restore 672 588 pd ns_symbol;
#N canvas 1444 479 291 176 ns_symbol 0;
#X obj 71 46 r \$0_ns;
#X obj 29 45 d_0;
#X obj 29 15 inlet raw_message;
#X obj 29 83 outlet ns_message;
#X connect 0 0 1 1;
#X connect 1 0 3 0;
#X connect 2 0 1 0;
#X restore 672 798 pd ns_symbol;
#N canvas 1444 479 291 176 ns_symbol 0;
#X obj 71 46 r \$0_ns;
#X obj 29 45 d_0;
#X obj 29 15 inlet raw_message;
#X obj 29 83 outlet ns_message;
#X connect 0 0 1 1;
#X connect 1 0 3 0;
#X connect 2 0 1 0;
#X restore 672 728 pd ns_symbol;
#N canvas 1444 479 291 176 ns_symbol 0;
#X obj 71 46 r \$0_ns;
#X obj 29 45 d_0;
#X obj 29 15 inlet raw_message;
#X obj 29 83 outlet ns_message;
#X connect 0 0 1 1;
#X connect 1 0 3 0;
#X connect 2 0 1 0;
#X restore 672 938 pd ns_symbol;
#N canvas 1444 479 291 176 ns_symbol 0;
#X obj 71 46 r \$0_ns;
#X obj 29 45 d_0;
#X obj 29 15 inlet raw_message;
#X obj 29 83 outlet ns_message;
#X connect 0 0 1 1;
#X connect 1 0 3 0;
#X connect 2 0 1 0;
#X restore 672 868 pd ns_symbol;
#X msg 652 555 aL-1_2;
#X msg 652 625 zL-1_2;
#X msg 652 695 daL-1_2;
#X msg 652 765 dzL-1_2;
#X msg 652 835 dwL-1_2;
#X msg 652 905 dbL-1_2;
#N canvas 1444 479 291 176 ns_symbol 0;
#X obj 71 46 r \$0_ns;
#X obj 29 45 d_0;
#X obj 29 15 inlet raw_message;
#X obj 29 83 outlet ns_message;
#X connect 0 0 1 1;
#X connect 1 0 3 0;
#X connect 2 0 1 0;
#X restore 912 238 pd ns_symbol;
#N canvas 1444 479 291 176 ns_symbol 0;
#X obj 71 46 r \$0_ns;
#X obj 29 45 d_0;
#X obj 29 15 inlet raw_message;
#X obj 29 83 outlet ns_message;
#X connect 0 0 1 1;
#X connect 1 0 3 0;
#X connect 2 0 1 0;
#X restore 912 168 pd ns_symbol;
#N canvas 1444 479 291 176 ns_symbol 0;
#X obj 71 46 r \$0_ns;
#X obj 29 45 d_0;
#X obj 29 15 inlet raw_message;
#X obj 29 83 outlet ns_message;
#X connect 0 0 1 1;
#X connect 1 0 3 0;
#X connect 2 0 1 0;
#X restore 912 378 pd ns_symbol;
#N canvas 1444 479 291 176 ns_symbol 0;
#X obj 71 46 r \$0_ns;
#X obj 29 45 d_0;
#X obj 29 15 inlet raw_message;
#X obj 29 83 outlet ns_message;
#X connect 0 0 1 1;
#X connect 1 0 3 0;
#X connect 2 0 1 0;
#X restore 912 308 pd ns_symbol;
#N canvas 1444 479 291 176 ns_symbol 0;
#X obj 71 46 r \$0_ns;
#X obj 29 45 d_0;
#X obj 29 15 inlet raw_message;
#X obj 29 83 outlet ns_message;
#X connect 0 0 1 1;
#X connect 1 0 3 0;
#X connect 2 0 1 0;
#X restore 912 518 pd ns_symbol;
#N canvas 1444 479 291 176 ns_symbol 0;
#X obj 71 46 r \$0_ns;
#X obj 29 45 d_0;
#X obj 29 15 inlet raw_message;
#X obj 29 83 outlet ns_message;
#X connect 0 0 1 1;
#X connect 1 0 3 0;
#X connect 2 0 1 0;
#X restore 912 448 pd ns_symbol;
#N canvas 1444 479 291 176 ns_symbol 0;
#X obj 71 46 r \$0_ns;
#X obj 29 45 d_0;
#X obj 29 15 inlet raw_message;
#X obj 29 83 outlet ns_message;
#X connect 0 0 1 1;
#X connect 1 0 3 0;
#X connect 2 0 1 0;
#X restore 912 658 pd ns_symbol;
#N canvas 1444 479 291 176 ns_symbol 0;
#X obj 71 46 r \$0_ns;
#X obj 29 45 d_0;
#X obj 29 15 inlet raw_message;
#X obj 29 83 outlet ns_message;
#X connect 0 0 1 1;
#X connect 1 0 3 0;
#X connect 2 0 1 0;
#X restore 912 588 pd ns_symbol;
#N canvas 1444 479 291 176 ns_symbol 0;
#X obj 71 46 r \$0_ns;
#X obj 29 45 d_0;
#X obj 29 15 inlet raw_message;
#X obj 29 83 outlet ns_message;
#X connect 0 0 1 1;
#X connect 1 0 3 0;
#X connect 2 0 1 0;
#X restore 912 798 pd ns_symbol;
#N canvas 1444 479 291 176 ns_symbol 0;
#X obj 71 46 r \$0_ns;
#X obj 29 45 d_0;
#X obj 29 15 inlet raw_message;
#X obj 29 83 outlet ns_message;
#X connect 0 0 1 1;
#X connect 1 0 3 0;
#X connect 2 0 1 0;
#X restore 912 728 pd ns_symbol;
#N canvas 1444 479 291 176 ns_symbol 0;
#X obj 71 46 r \$0_ns;
#X obj 29 45 d_0;
#X obj 29 15 inlet raw_message;
#X obj 29 83 outlet ns_message;
#X connect 0 0 1 1;
#X connect 1 0 3 0;
#X connect 2 0 1 0;
#X restore 912 938 pd ns_symbol;
#N canvas 1444 479 291 176 ns_symbol 0;
#X obj 71 46 r \$0_ns;
#X obj 29 45 d_0;
#X obj 29 15 inlet raw_message;
#X obj 29 83 outlet ns_message;
#X connect 0 0 1 1;
#X connect 1 0 3 0;
#X connect 2 0 1 0;
#X restore 912 868 pd ns_symbol;
#X msg 892 135 aL-2_1;
#X msg 893 204 zL-2_1;
#X msg 892 275 daL-2_1;
#X msg 892 345 dzL-2_1;
#X msg 892 415 dwL-2_1;
#X msg 892 485 dbL-2_1;
#X msg 892 555 aL-2_2;
#X msg 892 625 zL-2_2;
#X msg 892 695 daL-2_2;
#X msg 892 765 dzL-2_2;
#X msg 892 835 dwL-2_2;
#X msg 892 905 dbL-2_2;
#X obj 66 40 inlet bang;
#N canvas 1444 479 291 176 ns_symbol 0;
#X obj 71 46 r \$0_ns;
#X obj 29 45 d_0;
#X obj 29 15 inlet raw_message;
#X obj 29 83 outlet ns_message;
#X connect 0 0 1 1;
#X connect 1 0 3 0;
#X connect 2 0 1 0;
#X restore 1112 238 pd ns_symbol;
#N canvas 1444 479 291 176 ns_symbol 0;
#X obj 71 46 r \$0_ns;
#X obj 29 45 d_0;
#X obj 29 15 inlet raw_message;
#X obj 29 83 outlet ns_message;
#X connect 0 0 1 1;
#X connect 1 0 3 0;
#X connect 2 0 1 0;
#X restore 1112 168 pd ns_symbol;
#N canvas 1444 479 291 176 ns_symbol 0;
#X obj 71 46 r \$0_ns;
#X obj 29 45 d_0;
#X obj 29 15 inlet raw_message;
#X obj 29 83 outlet ns_message;
#X connect 0 0 1 1;
#X connect 1 0 3 0;
#X connect 2 0 1 0;
#X restore 1112 378 pd ns_symbol;
#N canvas 1444 479 291 176 ns_symbol 0;
#X obj 71 46 r \$0_ns;
#X obj 29 45 d_0;
#X obj 29 15 inlet raw_message;
#X obj 29 83 outlet ns_message;
#X connect 0 0 1 1;
#X connect 1 0 3 0;
#X connect 2 0 1 0;
#X restore 1112 308 pd ns_symbol;
#N canvas 1444 479 291 176 ns_symbol 0;
#X obj 71 46 r \$0_ns;
#X obj 29 45 d_0;
#X obj 29 15 inlet raw_message;
#X obj 29 83 outlet ns_message;
#X connect 0 0 1 1;
#X connect 1 0 3 0;
#X connect 2 0 1 0;
#X restore 1112 518 pd ns_symbol;
#N canvas 1444 479 291 176 ns_symbol 0;
#X obj 71 46 r \$0_ns;
#X obj 29 45 d_0;
#X obj 29 15 inlet raw_message;
#X obj 29 83 outlet ns_message;
#X connect 0 0 1 1;
#X connect 1 0 3 0;
#X connect 2 0 1 0;
#X restore 1112 448 pd ns_symbol;
#N canvas 1444 479 291 176 ns_symbol 0;
#X obj 71 46 r \$0_ns;
#X obj 29 45 d_0;
#X obj 29 15 inlet raw_message;
#X obj 29 83 outlet ns_message;
#X connect 0 0 1 1;
#X connect 1 0 3 0;
#X connect 2 0 1 0;
#X restore 1112 658 pd ns_symbol;
#N canvas 1444 479 291 176 ns_symbol 0;
#X obj 71 46 r \$0_ns;
#X obj 29 45 d_0;
#X obj 29 15 inlet raw_message;
#X obj 29 83 outlet ns_message;
#X connect 0 0 1 1;
#X connect 1 0 3 0;
#X connect 2 0 1 0;
#X restore 1112 588 pd ns_symbol;
#N canvas 1444 479 291 176 ns_symbol 0;
#X obj 71 46 r \$0_ns;
#X obj 29 45 d_0;
#X obj 29 15 inlet raw_message;
#X obj 29 83 outlet ns_message;
#X connect 0 0 1 1;
#X connect 1 0 3 0;
#X connect 2 0 1 0;
#X restore 1112 798 pd ns_symbol;
#N canvas 1444 479 291 176 ns_symbol 0;
#X obj 71 46 r \$0_ns;
#X obj 29 45 d_0;
#X obj 29 15 inlet raw_message;
#X obj 29 83 outlet ns_message;
#X connect 0 0 1 1;
#X connect 1 0 3 0;
#X connect 2 0 1 0;
#X restore 1112 728 pd ns_symbol;
#N canvas 1444 479 291 176 ns_symbol 0;
#X obj 71 46 r \$0_ns;
#X obj 29 45 d_0;
#X obj 29 15 inlet raw_message;
#X obj 29 83 outlet ns_message;
#X connect 0 0 1 1;
#X connect 1 0 3 0;
#X connect 2 0 1 0;
#X restore 1112 938 pd ns_symbol;
#N canvas 1444 479 291 176 ns_symbol 0;
#X obj 71 46 r \$0_ns;
#X obj 29 45 d_0;
#X obj 29 15 inlet raw_message;
#X obj 29 83 outlet ns_message;
#X connect 0 0 1 1;
#X connect 1 0 3 0;
#X connect 2 0 1 0;
#X restore 1112 868 pd ns_symbol;
#X msg 1092 135 aL-3_1;
#X msg 1093 204 zL-3_1;
#X msg 1092 275 daL-3_1;
#X msg 1092 345 dzL-3_1;
#X msg 1092 415 dwL-3_1;
#X msg 1092 485 dbL-3_1;
#X msg 1092 555 aL-3_2;
#X msg 1092 625 zL-3_2;
#X msg 1092 695 daL-3_2;
#X msg 1092 765 dzL-3_2;
#X msg 1092 835 dwL-3_2;
#X msg 1092 905 dbL-3_2;
#X connect 1 0 0 0;
#X connect 2 0 1 0;
#X connect 3 0 0 0;
#X connect 4 0 3 0;
#X connect 5 0 0 0;
#X connect 6 0 0 0;
#X connect 7 0 6 0;
#X connect 8 0 5 0;
#X connect 9 0 0 0;
#X connect 10 0 0 0;
#X connect 11 0 10 0;
#X connect 12 0 9 0;
#X connect 13 0 0 0;
#X connect 14 0 0 0;
#X connect 15 0 0 0;
#X connect 16 0 0 0;
#X connect 17 0 0 0;
#X connect 18 0 0 0;
#X connect 19 0 14 0;
#X connect 20 0 13 0;
#X connect 21 0 16 0;
#X connect 22 0 15 0;
#X connect 23 0 18 0;
#X connect 24 0 17 0;
#X connect 25 0 0 0;
#X connect 26 0 0 0;
#X connect 27 0 0 0;
#X connect 28 0 0 0;
#X connect 29 0 0 0;
#X connect 30 0 0 0;
#X connect 31 0 26 0;
#X connect 32 0 25 0;
#X connect 33 0 28 0;
#X connect 34 0 27 0;
#X connect 35 0 30 0;
#X connect 36 0 29 0;
#X connect 37 0 0 0;
#X connect 38 0 0 0;
#X connect 39 0 0 0;
#X connect 40 0 0 0;
#X connect 41 0 0 0;
#X connect 42 0 0 0;
#X connect 43 0 0 0;
#X connect 44 0 0 0;
#X connect 45 0 0 0;
#X connect 46 0 0 0;
#X connect 47 0 0 0;
#X connect 48 0 0 0;
#X connect 49 0 38 0;
#X connect 50 0 37 0;
#X connect 51 0 40 0;
#X connect 52 0 39 0;
#X connect 53 0 42 0;
#X connect 54 0 41 0;
#X connect 55 0 44 0;
#X connect 56 0 43 0;
#X connect 57 0 46 0;
#X connect 58 0 45 0;
#X connect 59 0 48 0;
#X connect 60 0 47 0;
#X connect 61 0 19 0;
#X connect 61 0 36 0;
#X connect 61 0 35 0;
#X connect 61 0 34 0;
#X connect 61 0 33 0;
#X connect 61 0 32 0;
#X connect 61 0 31 0;
#X connect 61 0 24 0;
#X connect 61 0 23 0;
#X connect 61 0 22 0;
#X connect 61 0 21 0;
#X connect 61 0 20 0;
#X connect 61 0 4 0;
#X connect 61 0 12 0;
#X connect 61 0 11 0;
#X connect 61 0 8 0;
#X connect 61 0 7 0;
#X connect 61 0 2 0;
#X connect 61 0 49 0;
#X connect 61 0 60 0;
#X connect 61 0 59 0;
#X connect 61 0 58 0;
#X connect 61 0 57 0;
#X connect 61 0 56 0;
#X connect 61 0 55 0;
#X connect 61 0 54 0;
#X connect 61 0 53 0;
#X connect 61 0 52 0;
#X connect 61 0 51 0;
#X connect 61 0 50 0;
#X connect 61 0 74 0;
#X connect 61 0 85 0;
#X connect 61 0 84 0;
#X connect 61 0 83 0;
#X connect 61 0 82 0;
#X connect 61 0 81 0;
#X connect 61 0 80 0;
#X connect 61 0 79 0;
#X connect 61 0 78 0;
#X connect 61 0 77 0;
#X connect 61 0 76 0;
#X connect 61 0 75 0;
#X connect 62 0 0 0;
#X connect 63 0 0 0;
#X connect 64 0 0 0;
#X connect 65 0 0 0;
#X connect 66 0 0 0;
#X connect 67 0 0 0;
#X connect 68 0 0 0;
#X connect 69 0 0 0;
#X connect 70 0 0 0;
#X connect 71 0 0 0;
#X connect 72 0 0 0;
#X connect 73 0 0 0;
#X connect 74 0 63 0;
#X connect 75 0 62 0;
#X connect 76 0 65 0;
#X connect 77 0 64 0;
#X connect 78 0 67 0;
#X connect 79 0 66 0;
#X connect 80 0 69 0;
#X connect 81 0 68 0;
#X connect 82 0 71 0;
#X connect 83 0 70 0;
#X connect 84 0 73 0;
#X connect 85 0 72 0;
#X restore 298 222 pd reset;
#X msg 298 193 bang;
#N canvas 381 106 1916 1296 synth 0;
#X obj 173 10 r \$0_y_hat;
#X obj 173 38 + 1;
#X obj 173 66 * 0.5;
#X obj 173 112 * 1;
#X obj 215 114 nbx 5 21 -1e+37 1e+37 0 1 empty empty empty 0 -12 0 16 #fcfcfc #000000 #000000 333.333 256;
#X obj 321 234 t f f f f f f f, f 144;
#X obj 321 367 * 1;
#X obj 321 395 osc~;
#X obj 321 423 *~, f 6;
#X obj 342 279 nbx 4 21 0 20 0 1 empty \$0_h_bang harmonic 0 -12 0 16 #fcfcfc #000000 #000000 1 256;
#X obj 342 305 t f f;
#X msg 36 18 bang;
#X obj 36 46 s \$0_h_bang;
#X obj 379 333 expr if ($f1 > 0 \, 1 / ($f1 * $f1) \, 0);
#X obj 512 467 * 1;
#X obj 512 495 osc~;
#X obj 512 523 *~, f 6;
#X obj 533 379 nbx 4 21 0 20 0 1 empty \$0_h_bang harmonic 0 -12 0 16 #fcfcfc #000000 #000000 3 256;
#X obj 533 405 t f f;
#X obj 570 433 expr if ($f1 > 0 \, 1 / ($f1 * $f1) \, 0);
#X obj 704 567 * 1;
#X obj 704 595 osc~;
#X obj 704 623 *~, f 6;
#X obj 725 479 nbx 4 21 0 20 0 1 empty \$0_h_bang harmonic 0 -12 0 16 #fcfcfc #000000 #000000 5 256;
#X obj 725 505 t f f;
#X obj 762 533 expr if ($f1 > 0 \, 1 / ($f1 * $f1) \, 0);
#X obj 895 667 * 1;
#X obj 895 695 osc~;
#X obj 895 723 *~, f 6;
#X obj 916 579 nbx 4 21 0 20 0 1 empty \$0_h_bang harmonic 0 -12 0 16 #fcfcfc #000000 #000000 7 256;
#X obj 916 605 t f f;
#X obj 953 633 expr if ($f1 > 0 \, 1 / ($f1 * $f1) \, 0);
#X obj 342 87 r \$0_h_bang;
#X obj 1087 767 * 1;
#X obj 1087 795 osc~;
#X obj 1087 823 *~, f 6;
#X obj 1108 679 nbx 4 21 0 20 0 1 empty \$0_h_bang harmonic 0 -12 0 16 #fcfcfc #000000 #000000 9 256;
#X obj 1108 705 t f f;
#X obj 1145 733 expr if ($f1 > 0 \, 1 / ($f1 * $f1) \, 0);
#X obj 1278 867 * 1;
#X obj 1278 895 osc~;
#X obj 1278 923 *~, f 6;
#X obj 1299 779 nbx 4 21 0 20 0 1 empty \$0_h_bang harmonic 0 -12 0 16 #fcfcfc #000000 #000000 11 256;
#X obj 1299 805 t f f;
#X obj 1336 833 expr if ($f1 > 0 \, 1 / ($f1 * $f1) \, 0);
#X obj 1470 967 * 1;
#X obj 1470 995 osc~;
#X obj 1470 1023 *~, f 6;
#X obj 1491 879 nbx 4 21 0 20 0 1 empty \$0_h_bang harmonic 0 -12 0 16 #fcfcfc #000000 #000000 13 256;
#X obj 1491 905 t f f;
#X obj 1528 933 expr if ($f1 > 0 \, 1 / ($f1 * $f1) \, 0);
#X obj 703 1050 *~;
#X obj 644 9 inlet amplitude;
#X obj 644 47 f;
#X obj 644 75 lop~ 5;
#X obj 703 1248 dac~;
#X obj 321 184 +;
#X obj 343 116 f 110;
#X obj 743 1112 rev1~, f 11;
#X obj 785 1079 nbx 5 21 0 160 0 1 empty empty empty 0 -12 0 16 #fcfcfc #000000 #000000 80 256;
#X obj 852 1110 bng 23 250 50 0 empty empty empty 0 -12 0 16 #fcfcfc #000000 #000000;
#X obj 710 1211 +~;
#X obj 743 1160 *~;
#X obj 530 985 nbx 5 21 0 1 0 1 empty empty empty 0 -12 0 16 #fcfcfc #000000 #000000 0.2 256;
#X obj 643 1160 *~;
#X obj 530 1070 expr 1 - $f1;
#X obj 530 1011 t f f;
#X obj 974 18 inlet scale;
#X connect 0 0 1 0;
#X connect 1 0 2 0;
#X connect 2 0 3 0;
#X connect 3 0 56 0;
#X connect 4 0 3 1;
#X connect 5 0 6 0;
#X connect 5 1 14 0;
#X connect 5 2 20 0;
#X connect 5 3 26 0;
#X connect 5 4 33 0;
#X connect 5 5 39 0;
#X connect 5 6 45 0;
#X connect 6 0 7 0;
#X connect 7 0 8 0;
#X connect 8 0 51 0;
#X connect 9 0 10 0;
#X connect 10 0 6 1;
#X connect 10 1 13 0;
#X connect 11 0 12 0;
#X connect 13 0 8 1;
#X connect 14 0 15 0;
#X connect 15 0 16 0;
#X connect 16 0 51 0;
#X connect 17 0 18 0;
#X connect 18 0 14 1;
#X connect 18 1 19 0;
#X connect 19 0 16 1;
#X connect 20 0 21 0;
#X connect 21 0 22 0;
#X connect 22 0 51 0;
#X connect 23 0 24 0;
#X connect 24 0 20 1;
#X connect 24 1 25 0;
#X connect 25 0 22 1;
#X connect 26 0 27 0;
#X connect 27 0 28 0;
#X connect 28 0 51 0;
#X connect 29 0 30 0;
#X connect 30 0 26 1;
#X connect 30 1 31 0;
#X connect 31 0 28 1;
#X connect 32 0 57 0;
#X connect 33 0 34 0;
#X connect 34 0 35 0;
#X connect 35 0 51 0;
#X connect 36 0 37 0;
#X connect 37 0 33 1;
#X connect 37 1 38 0;
#X connect 38 0 35 1;
#X connect 39 0 40 0;
#X connect 40 0 41 0;
#X connect 41 0 51 0;
#X connect 42 0 43 0;
#X connect 43 0 39 1;
#X connect 43 1 44 0;
#X connect 44 0 41 1;
#X connect 45 0 46 0;
#X connect 46 0 47 0;
#X connect 47 0 51 0;
#X connect 48 0 49 0;
#X connect 49 0 45 1;
#X connect 49 1 50 0;
#X connect 50 0 47 1;
#X connect 51 0 58 0;
#X connect 51 0 64 0;
#X connect 52 0 53 0;
#X connect 53 0 54 0;
#X connect 54 0 51 1;
#X connect 56 0 5 0;
#X connect 57 0 56 1;
#X connect 58 0 62 0;
#X connect 59 0 58 1;
#X connect 60 0 58 2;
#X connect 61 0 55 0;
#X connect 61 0 55 1;
#X connect 62 0 61 1;
#X connect 63 0 66 0;
#X connect 64 0 61 0;
#X connect 65 0 64 1;
#X connect 66 0 65 0;
#X connect 66 1 62 1;
#X connect 67 0 4 0;
#X restore 50 563 pd synth;
#X obj 1133 984 s \$0_y_hat;
#X obj 50 356 vsl 23 196 0 1 0 0 empty empty empty 0 -9 0 16 #fcfcfc #000000 #000000 0 1;
#N canvas 1755 274 1149 697 generate_data 0;
#X obj 176 472 array set;
#X obj 176 365 expr sin($f1 * $f2);
#X obj 753 13 expr if($f1 > 7 \, -0.5 \, 0.5);
#X obj 253 23 inlet;
#X obj 325 339 nbx 5 21 -1e+37 1e+37 0 1 empty empty empty 0 -12 0 16 #fcfcfc #000000 #000000 51.2308 256;
#X obj 753 145 expr if($f1 < $f2 \, 0.3 \, if($f1 < 11 \, 1 \, 0.5));
#X obj 753 57 expr cos($f1) * 3;
#X obj 753 101 expr if($f1 < 5 \, -0.5 \, if($f1 < 11 \, 0.1 \, -0.8));
#X obj 176 88 r \$0_m_i;
#N canvas 1444 479 291 176 ns_symbol 0;
#X obj 71 46 r \$0_ns;
#X obj 29 45 d_0;
#X obj 29 15 inlet raw_message;
#X obj 29 83 outlet ns_message;
#X connect 0 0 1 1;
#X connect 1 0 3 0;
#X connect 2 0 1 0;
#X restore 245 438 pd ns_symbol;
#X msg 245 403 X;
#X obj 507 484 array set;
#N canvas 1444 479 291 176 ns_symbol 0;
#X obj 71 46 r \$0_ns;
#X obj 29 45 d_0;
#X obj 29 15 inlet raw_message;
#X obj 29 83 outlet ns_message;
#X connect 0 0 1 1;
#X connect 1 0 3 0;
#X connect 2 0 1 0;
#X restore 576 450 pd ns_symbol;
#X msg 576 415 Y;
#X obj 656 332 nbx 5 21 -1e+37 1e+37 0 1 empty empty empty 0 -12 0 16 #fcfcfc #000000 #000000 49.8462 256;
#X obj 176 214 t f f f f, f 46;
#X obj 210 142 spigot, f 10;
#X obj 325 23 inlet;
#X obj 656 23 inlet;
#X obj 507 358 expr sin($f1 * $f2);
#X connect 1 0 0 0;
#X connect 3 0 16 1;
#X connect 4 0 1 1;
#X connect 8 0 15 0;
#X connect 9 0 0 2;
#X connect 10 0 9 0;
#X connect 12 0 11 2;
#X connect 13 0 12 0;
#X connect 14 0 19 1;
#X connect 15 0 1 0;
#X connect 15 1 0 1;
#X connect 15 2 19 0;
#X connect 15 3 11 1;
#X connect 17 0 4 0;
#X connect 18 0 14 0;
#X connect 19 0 11 0;
#X restore 137 566 pd generate_data;
#X f 18;
#X obj 137 533 tgl 23 0 empty empty empty 0 -12 0 16 #fcfcfc #000000 #000000 0 1;
#X obj 207 359 vsl 23 196 0 90 0 0 empty empty X 0 -9 0 16 #fcfcfc #000000 #000000 0 1;
#X obj 278 361 vsl 23 196 0 90 0 0 empty empty Y 0 -9 0 16 #fcfcfc #000000 #000000 0 1;
#X floatatom 307 538 10 0 0 0 - - - 0;
#X floatatom 233 537 5 0 0 0 - - - 0;
#X floatatom 307 362 5 0 0 0 - - - 0;
#X floatatom 234 361 5 0 0 0 - - - 0;
#X obj 1120 246 r \$0_ns;
#X obj 1537 246 r \$0_ns;
#X obj 945 312 t f f;
#X obj 1362 312 t f f;
#X obj 1188 312 f;
#X obj 771 246 f;
#X obj 771 327 f;
#X obj 1188 464 f;
#X obj 1728 605 nn.da_2x2 wL-2_1 wL-2_2 dzL-2_1 dzL-2_2 daL-3_1 daL-3_2;
#X obj 1728 734 nn.dw_1x2 dzL-3_1 X X dwL-3_1;
#X obj 1728 777 nn.dw_1x2 dzL-3_2 X X dwL-3_2;
#X obj 1728 820 nn.db_1x1 dzL-3_1 dbL-3_1;
#X obj 1728 863 nn.db_1x1 dzL-3_2 dbL-3_2;
#X obj 1728 468 nn.dw_1x2 dzL-2_1 aL-3_1 aL-3_2 dwL-2_1;
#X obj 1728 501 nn.dw_1x2 dzL-2_2 aL-3_1 aL-3_2 dwL-2_2;
#X obj 1728 933 nn.update wL-3_1 dwL-3_1;
#X obj 1728 965 nn.update wL-3_2 dwL-3_2;
#X obj 1728 993 nn.update bL-3_1 dbL-3_1;
#X obj 1728 1020 nn.update bL-3_2 dbL-3_2;
#X msg 387 30 16;
#X obj 111 357 vsl 23 196 0 1000 0 0 empty empty y_hat 0 -9 0 16 #fcfcfc #000000 #000000 0 1;
#X obj 1061 834 nn.neuron_2 wL bL aL zL;
#X obj 488 31 vsl 23 196 0 1 0 0 empty empty empty 0 -9 0 16 #fcfcfc #000000 #000000 0 1;
#X obj 771 279 nn.neuron_2 wL-3_1 bL-3_1 aL-3_1 zL-3_1 tanh;
#X obj 1188 279 nn.neuron_2 wL-3_2 bL-3_2 aL-3_2 zL-3_2 tanh;
#X obj 771 514 nn.neuron_2 wL-2_1 bL-2_1 aL-2_1 zL-2_1 tanh;
#X obj 1188 514 nn.neuron_2 wL-2_2 bL-2_2 aL-2_2 zL-2_2 tanh;
#X obj 771 704 nn.neuron_2 wL-1_1 bL-1_1 aL-1_1 zL-1_1 tanh;
#X obj 1188 704 nn.neuron_2 wL-1_2 bL-1_2 aL-1_2 zL-1_2 tanh;
#X obj 1728 171 nn.dz_for_g daL-1_1 zL-1_1 aL-1_1 dzL-1_1 tanh;
#X obj 1728 204 nn.dz_for_g daL-1_2 zL-1_2 aL-1_2 dzL-1_2 tanh;
#X obj 1729 402 nn.dz_for_g daL-2_1 zL-2_1 aL-2_1 dzL-2_1 tanh;
#X obj 1728 435 nn.dz_for_g daL-2_2 zL-2_2 aL-2_2 dzL-2_2 tanh;
#X obj 1726 646 nn.dz_for_g daL-3_1 zL-3_1 aL-3_1 dzL-3_1 tanh;
#X obj 1726 689 nn.dz_for_g daL-3_2 zL-3_2 aL-3_2 dzL-3_2 tanh;
#X connect 2 0 4 0;
#X connect 3 0 4 0;
#X connect 4 0 5 0;
#X connect 6 0 11 0;
#X connect 6 1 18 0;
#X connect 7 0 6 2;
#X connect 8 0 104 0;
#X connect 8 1 19 0;
#X connect 9 0 8 1;
#X connect 10 0 6 1;
#X connect 11 0 12 0;
#X connect 12 0 8 0;
#X connect 13 0 105 3;
#X connect 14 0 106 3;
#X connect 15 0 107 3;
#X connect 16 0 108 3;
#X connect 17 0 101 3;
#X connect 18 0 103 1;
#X connect 18 1 104 1;
#X connect 19 0 103 2;
#X connect 19 1 104 2;
#X connect 20 0 107 1;
#X connect 20 1 108 1;
#X connect 21 0 107 2;
#X connect 21 1 108 2;
#X connect 22 0 23 0;
#X connect 23 0 105 0;
#X connect 24 0 25 0;
#X connect 25 0 108 0;
#X connect 26 0 27 0;
#X connect 27 0 107 0;
#X connect 28 0 29 0;
#X connect 29 0 30 0;
#X connect 30 0 32 0;
#X connect 32 0 109 0;
#X connect 33 0 34 0;
#X connect 34 0 35 0;
#X connect 35 0 36 0;
#X connect 36 0 38 0;
#X connect 38 0 111 0;
#X connect 39 0 40 0;
#X connect 40 0 88 0;
#X connect 41 0 28 1;
#X connect 41 0 40 1;
#X connect 41 0 39 1;
#X connect 41 0 38 1;
#X connect 41 0 36 1;
#X connect 41 0 35 1;
#X connect 41 0 34 1;
#X connect 41 0 33 1;
#X connect 41 0 32 1;
#X connect 41 0 30 1;
#X connect 41 0 29 1;
#X connect 41 0 55 2;
#X connect 41 0 54 2;
#X connect 41 0 48 2;
#X connect 41 0 47 2;
#X connect 41 0 46 2;
#X connect 41 0 45 2;
#X connect 41 0 44 2;
#X connect 41 0 43 2;
#X connect 41 0 93 1;
#X connect 41 0 94 1;
#X connect 41 0 88 1;
#X connect 41 0 92 1;
#X connect 41 0 91 1;
#X connect 41 0 90 1;
#X connect 41 0 89 1;
#X connect 41 0 95 2;
#X connect 41 0 96 2;
#X connect 41 0 97 2;
#X connect 41 0 98 2;
#X connect 41 0 109 1;
#X connect 41 0 110 1;
#X connect 41 0 111 1;
#X connect 41 0 112 1;
#X connect 41 0 113 1;
#X connect 41 0 114 1;
#X connect 43 0 44 0;
#X connect 44 0 45 0;
#X connect 45 0 46 0;
#X connect 46 0 47 0;
#X connect 47 0 48 0;
#X connect 49 0 48 1;
#X connect 49 0 47 1;
#X connect 49 0 46 1;
#X connect 49 0 45 1;
#X connect 49 0 44 1;
#X connect 49 0 43 1;
#X connect 49 0 54 1;
#X connect 49 0 55 1;
#X connect 49 0 95 1;
#X connect 49 0 96 1;
#X connect 49 0 97 1;
#X connect 49 0 98 1;
#X connect 51 0 50 0;
#X connect 52 0 6 0;
#X connect 53 0 28 0;
#X connect 54 0 43 0;
#X connect 55 0 54 0;
#X connect 56 0 57 2;
#X connect 57 0 58 0;
#X connect 59 0 57 0;
#X connect 59 1 56 0;
#X connect 60 0 59 0;
#X connect 61 0 59 0;
#X connect 63 0 62 0;
#X connect 68 0 67 0;
#X connect 71 0 69 0;
#X connect 73 0 72 0;
#X connect 74 0 72 1;
#X connect 74 0 77 0;
#X connect 75 0 72 2;
#X connect 75 0 76 0;
#X connect 78 0 75 0;
#X connect 79 0 74 0;
#X connect 80 0 103 3;
#X connect 81 0 104 3;
#X connect 82 0 105 1;
#X connect 82 1 106 1;
#X connect 83 0 105 2;
#X connect 83 1 106 2;
#X connect 84 0 85 0;
#X connect 85 0 103 0;
#X connect 86 0 87 0;
#X connect 87 0 106 0;
#X connect 88 0 113 0;
#X connect 89 0 90 0;
#X connect 90 0 91 0;
#X connect 91 0 92 0;
#X connect 92 0 95 0;
#X connect 93 0 94 0;
#X connect 94 0 39 0;
#X connect 95 0 96 0;
#X connect 96 0 97 0;
#X connect 97 0 98 0;
#X connect 98 0 55 0;
#X connect 99 0 50 1;
#X connect 100 0 69 1;
#X connect 101 1 70 0;
#X connect 102 0 42 0;
#X connect 103 0 86 0;
#X connect 103 1 82 0;
#X connect 104 0 84 0;
#X connect 104 1 83 0;
#X connect 105 0 24 0;
#X connect 105 1 20 0;
#X connect 106 0 22 0;
#X connect 106 1 21 0;
#X connect 107 0 101 0;
#X connect 107 1 101 1;
#X connect 108 0 26 0;
#X connect 108 1 101 2;
#X connect 109 0 110 0;
#X connect 110 0 33 0;
#X connect 111 0 112 0;
#X connect 112 0 93 0;
#X connect 113 0 114 0;
#X connect 114 0 89 0;
