#N canvas 146 168 1520 994 16;
#X obj 1 -1 cnv 23 425 980 empty empty empty 4 12 0 16 #f9e2af #4c4f69 0;
#X obj 8 36 bng 40 250 50 0 empty empty init 0 -12 0 16 #89b4fa #f9e2af #4c4f69;
#X obj 79 37 tgl 40 0 empty empty run 0 -12 0 16 #a6e3a1 #313244 #5c5f77 0 1;
#N canvas 174 521 450 300 bin_bang 0;
#X obj 21 17 inlet start_stop;
#X obj 21 115 metro;
#X obj 21 143 s \$0_bin_bang;
#X obj 163 17 inlet tempo;
#X msg 163 50 tempo \$1 samp;
#X connect 0 0 1 0;
#X connect 1 0 2 0;
#X connect 3 0 4 0;
#X connect 4 0 1 0;
#X restore 79 86 pd bin_bang;
#X msg 137 54 64;
#X obj 137 21 r \$0_init;
#N canvas 158 715 337 212 init 0;
#X obj 26 21 inlet init;
#X obj 26 49 t b b;
#X obj 26 127 s \$0_init;
#X obj 112 127 f \$0;
#X obj 112 155 s \$0_ns;
#X obj 230 21 loadbang;
#X obj 230 49 s \$0_lb;
#X connect 0 0 1 0;
#X connect 1 0 2 0;
#X connect 1 1 3 0;
#X connect 3 0 4 0;
#X connect 5 0 6 0;
#X restore 8 86 pd init;
#X obj 220 49 s \$0_m;
#X obj 221 82 r \$0_m;
#X obj 221 138 sel 0;
#X obj 8 119 r \$0_init;
#X obj 97 149 s \$0_alpha;
#X obj 221 167 s \$0_m_0;
#X obj 431 -1 cnv 23 540 140 empty empty input\ layer 4 12 0 16 #f5e0dc #4c4f69 0;
#X obj 436 29 r \$0_m;
#X obj 436 97 nn.input;
#N canvas 1442 595 517 458 ns_message 0;
#X obj 282 16 bng 23 250 50 0 empty \$0_init empty 0 -12 0 16 #fcfcfc #000000 #000000;
#X obj 327 294 f;
#X obj 282 44 t b b, f 6;
#X obj 101 151 cnv 23 178 26 empty empty empty 20 12 0 16 #a6e3a1 #000000 0;
#X symbolatom 101 153 22 0 0 0 - - - 0;
#X msg 55 314 symbol X;
#X msg 101 258 set symbol \$1;
#X obj 101 187 t s s b, f 13;
#X obj 306 328 d_0;
#X obj 306 361 outlet;
#X obj 55 16 loadbang;
#X obj 55 44 f \$0;
#X obj 55 112 t b f, f 37;
#X obj 145 15 inlet;
#X connect 0 0 2 0;
#X connect 1 0 8 1;
#X connect 2 0 4 0;
#X connect 2 1 1 0;
#X connect 4 0 7 0;
#X connect 5 0 4 0;
#X connect 6 0 5 0;
#X connect 7 0 6 0;
#X connect 7 1 8 0;
#X connect 7 2 1 0;
#X connect 8 0 9 0;
#X connect 10 0 11 0;
#X connect 11 0 12 0;
#X connect 12 0 5 0;
#X connect 12 1 1 1;
#X connect 13 0 4 0;
#X coords 0 -1 1 1 180 28 2 100 150;
#X restore 497 57 pd ns_message;
#X obj 431 140 cnv 23 540 220 empty empty layer\ l 4 12 0 16 #f2cdcd #4c4f69 0;
#N canvas 2813 653 602 302 arrays 0;
#X obj 21 69 array define \$0_z_l1 16;
#X obj 21 119 array define \$0_w_l1 1;
#X obj 21 149 array define \$0_b_l1 1;
#X obj 250 39 array define \$0_da_l1 16;
#X obj 250 69 array define \$0_dz_l1 16;
#X obj 250 119 array define \$0_dw_l1 1;
#X obj 250 149 array define \$0_db_l1 1;
#X text 28 37 // a_l1 is Y_hat;
#X restore 12 218 pd arrays;
#N canvas 1442 595 517 458 ns_message 0;
#X obj 282 16 bng 23 250 50 0 empty \$0_init empty 0 -12 0 16 #fcfcfc #000000 #000000;
#X obj 327 294 f;
#X obj 282 44 t b b, f 6;
#X obj 101 151 cnv 23 178 26 empty empty empty 20 12 0 16 #a6e3a1 #000000 0;
#X symbolatom 101 153 22 0 0 0 - - - 0;
#X msg 55 314 symbol w_l1;
#X msg 101 258 set symbol \$1;
#X obj 101 187 t s s b, f 13;
#X obj 306 328 d_0;
#X obj 306 361 outlet;
#X obj 55 16 loadbang;
#X obj 55 44 f \$0;
#X obj 55 112 t b f, f 37;
#X obj 145 15 inlet;
#X connect 0 0 2 0;
#X connect 1 0 8 1;
#X connect 2 0 4 0;
#X connect 2 1 1 0;
#X connect 4 0 7 0;
#X connect 5 0 4 0;
#X connect 6 0 5 0;
#X connect 7 0 6 0;
#X connect 7 1 8 0;
#X connect 7 2 1 0;
#X connect 8 0 9 0;
#X connect 10 0 11 0;
#X connect 11 0 12 0;
#X connect 12 0 5 0;
#X connect 12 1 1 1;
#X connect 13 0 4 0;
#X coords 0 -1 1 1 180 28 2 100 150;
#X restore 559 159 pd ns_message;
#N canvas 1442 595 517 458 ns_message 0;
#X obj 282 16 bng 23 250 50 0 empty \$0_init empty 0 -12 0 16 #fcfcfc #000000 #000000;
#X obj 327 294 f;
#X obj 282 44 t b b, f 6;
#X obj 101 151 cnv 23 178 26 empty empty empty 20 12 0 16 #a6e3a1 #000000 0;
#X symbolatom 101 153 22 0 0 0 - - - 0;
#X msg 55 314 symbol b_l1;
#X msg 101 258 set symbol \$1;
#X obj 101 187 t s s b, f 13;
#X obj 306 328 d_0;
#X obj 306 361 outlet;
#X obj 55 16 loadbang;
#X obj 55 44 f \$0;
#X obj 55 112 t b f, f 37;
#X obj 145 15 inlet;
#X connect 0 0 2 0;
#X connect 1 0 8 1;
#X connect 2 0 4 0;
#X connect 2 1 1 0;
#X connect 4 0 7 0;
#X connect 5 0 4 0;
#X connect 6 0 5 0;
#X connect 7 0 6 0;
#X connect 7 1 8 0;
#X connect 7 2 1 0;
#X connect 8 0 9 0;
#X connect 10 0 11 0;
#X connect 11 0 12 0;
#X connect 12 0 5 0;
#X connect 12 1 1 1;
#X connect 13 0 4 0;
#X coords 0 -1 1 1 180 28 2 100 150;
#X restore 621 196 pd ns_message;
#N canvas 1442 595 517 458 ns_message 0;
#X obj 282 16 bng 23 250 50 0 empty \$0_init empty 0 -12 0 16 #fcfcfc #000000 #000000;
#X obj 327 294 f;
#X obj 282 44 t b b, f 6;
#X obj 101 151 cnv 23 178 26 empty empty empty 20 12 0 16 #a6e3a1 #000000 0;
#X symbolatom 101 153 22 0 0 0 - - - 0;
#X msg 55 314 symbol Y_hat;
#X msg 101 258 set symbol \$1;
#X obj 101 187 t s s b, f 13;
#X obj 306 328 d_0;
#X obj 306 361 outlet;
#X obj 55 16 loadbang;
#X obj 55 44 f \$0;
#X obj 55 112 t b f, f 37;
#X obj 145 15 inlet;
#X connect 0 0 2 0;
#X connect 1 0 8 1;
#X connect 2 0 4 0;
#X connect 2 1 1 0;
#X connect 4 0 7 0;
#X connect 5 0 4 0;
#X connect 6 0 5 0;
#X connect 7 0 6 0;
#X connect 7 1 8 0;
#X connect 7 2 1 0;
#X connect 8 0 9 0;
#X connect 10 0 11 0;
#X connect 11 0 12 0;
#X connect 12 0 5 0;
#X connect 12 1 1 1;
#X connect 13 0 4 0;
#X coords 0 -1 1 1 180 28 2 100 150;
#X restore 683 234 pd ns_message;
#N canvas 1442 595 517 458 ns_message 0;
#X obj 282 16 bng 23 250 50 0 empty \$0_init empty 0 -12 0 16 #fcfcfc #000000 #000000;
#X obj 327 294 f;
#X obj 282 44 t b b, f 6;
#X obj 101 151 cnv 23 178 26 empty empty empty 20 12 0 16 #a6e3a1 #000000 0;
#X symbolatom 101 153 22 0 0 0 - - - 0;
#X msg 55 314 symbol z_l1;
#X msg 101 258 set symbol \$1;
#X obj 101 187 t s s b, f 13;
#X obj 306 328 d_0;
#X obj 306 361 outlet;
#X obj 55 16 loadbang;
#X obj 55 44 f \$0;
#X obj 55 112 t b f, f 37;
#X obj 145 15 inlet;
#X connect 0 0 2 0;
#X connect 1 0 8 1;
#X connect 2 0 4 0;
#X connect 2 1 1 0;
#X connect 4 0 7 0;
#X connect 5 0 4 0;
#X connect 6 0 5 0;
#X connect 7 0 6 0;
#X connect 7 1 8 0;
#X connect 7 2 1 0;
#X connect 8 0 9 0;
#X connect 10 0 11 0;
#X connect 11 0 12 0;
#X connect 12 0 5 0;
#X connect 12 1 1 1;
#X connect 13 0 4 0;
#X coords 0 -1 1 1 180 28 2 100 150;
#X restore 745 274 pd ns_message;
#X obj 436 315 nn.unit_1 linear, f 39;
#X obj 11 300 nn.rand_array;
#N canvas 1442 595 517 458 ns_message 0;
#X obj 282 16 bng 23 250 50 0 empty \$0_init empty 0 -12 0 16 #fcfcfc #000000 #000000;
#X obj 327 294 f;
#X obj 282 44 t b b, f 6;
#X obj 101 151 cnv 23 178 26 empty empty empty 20 12 0 16 #a6e3a1 #000000 0;
#X symbolatom 101 153 22 0 0 0 - - - 0;
#X msg 55 314 symbol w_l1;
#X msg 101 258 set symbol \$1;
#X obj 101 187 t s s b, f 13;
#X obj 306 328 d_0;
#X obj 306 361 outlet;
#X obj 55 16 loadbang;
#X obj 55 44 f \$0;
#X obj 55 112 t b f, f 37;
#X obj 145 15 inlet;
#X connect 0 0 2 0;
#X connect 1 0 8 1;
#X connect 2 0 4 0;
#X connect 2 1 1 0;
#X connect 4 0 7 0;
#X connect 5 0 4 0;
#X connect 6 0 5 0;
#X connect 7 0 6 0;
#X connect 7 1 8 0;
#X connect 7 2 1 0;
#X connect 8 0 9 0;
#X connect 10 0 11 0;
#X connect 11 0 12 0;
#X connect 12 0 5 0;
#X connect 12 1 1 1;
#X connect 13 0 4 0;
#X coords 0 -1 1 1 180 28 2 100 150;
#X restore 11 259 pd ns_message;
#X obj 211 300 nn.rand_array;
#N canvas 1442 595 517 458 ns_message 0;
#X obj 282 16 bng 23 250 50 0 empty \$0_init empty 0 -12 0 16 #fcfcfc #000000 #000000;
#X obj 327 294 f;
#X obj 282 44 t b b, f 6;
#X obj 101 151 cnv 23 178 26 empty empty empty 20 12 0 16 #a6e3a1 #000000 0;
#X symbolatom 101 153 22 0 0 0 - - - 0;
#X msg 55 314 symbol b_l1;
#X msg 101 258 set symbol \$1;
#X obj 101 187 t s s b, f 13;
#X obj 306 328 d_0;
#X obj 306 361 outlet;
#X obj 55 16 loadbang;
#X obj 55 44 f \$0;
#X obj 55 112 t b f, f 37;
#X obj 145 15 inlet;
#X connect 0 0 2 0;
#X connect 1 0 8 1;
#X connect 2 0 4 0;
#X connect 2 1 1 0;
#X connect 4 0 7 0;
#X connect 5 0 4 0;
#X connect 6 0 5 0;
#X connect 7 0 6 0;
#X connect 7 1 8 0;
#X connect 7 2 1 0;
#X connect 8 0 9 0;
#X connect 10 0 11 0;
#X connect 11 0 12 0;
#X connect 12 0 5 0;
#X connect 12 1 1 1;
#X connect 13 0 4 0;
#X coords 0 -1 1 1 180 28 2 100 150;
#X restore 211 259 pd ns_message;
#X obj 223 109 mod 16;
#N canvas 776 890 450 300 iterator_16 0;
#X obj 25 25 r \$0_bin_bang;
#X obj 25 73 f;
#X obj 71 71 + 1;
#X obj 25 172 outlet;
#X obj 25 125 mod 16;
#X connect 0 0 1 0;
#X connect 1 0 2 0;
#X connect 1 0 4 0;
#X connect 2 0 1 1;
#X connect 4 0 3 0;
#X restore 220 21 pd iterator_16;
#X obj 431 361 cnv 23 540 620 empty empty backprop\ layer\ l 4 12 0 16 #f38ba8 #4c4f69 0;
#X text 436 390 // MSE Loss: L = 1/2(A - Y)^2 \; dL/dA = (A - Y) \; g'(Z) = 1 \; Therefore: dZ = dA x g'(Z) = (A - Y) x 1 = (A - Y);
#X obj 436 586 nn.dZ_outer_mse, f 39;
#N canvas 1442 595 517 458 ns_message 0;
#X obj 282 16 bng 23 250 50 0 empty \$0_init empty 0 -12 0 16 #fcfcfc #000000 #000000;
#X obj 327 294 f;
#X obj 282 44 t b b, f 6;
#X obj 101 151 cnv 23 178 26 empty empty empty 20 12 0 16 #a6e3a1 #000000 0;
#X symbolatom 101 153 22 0 0 0 - - - 0;
#X msg 55 314 symbol dz_l1;
#X msg 101 258 set symbol \$1;
#X obj 101 187 t s s b, f 13;
#X obj 306 328 d_0;
#X obj 306 361 outlet;
#X obj 55 16 loadbang;
#X obj 55 44 f \$0;
#X obj 55 112 t b f, f 37;
#X obj 145 15 inlet;
#X connect 0 0 2 0;
#X connect 1 0 8 1;
#X connect 2 0 4 0;
#X connect 2 1 1 0;
#X connect 4 0 7 0;
#X connect 5 0 4 0;
#X connect 6 0 5 0;
#X connect 7 0 6 0;
#X connect 7 1 8 0;
#X connect 7 2 1 0;
#X connect 8 0 9 0;
#X connect 10 0 11 0;
#X connect 11 0 12 0;
#X connect 12 0 5 0;
#X connect 12 1 1 1;
#X connect 13 0 4 0;
#X coords 0 -1 1 1 180 28 2 100 150;
#X restore 745 545 pd ns_message;
#N canvas 1442 595 517 458 ns_message 0;
#X obj 282 16 bng 23 250 50 0 empty \$0_init empty 0 -12 0 16 #fcfcfc #000000 #000000;
#X obj 327 294 f;
#X obj 282 44 t b b, f 6;
#X obj 101 151 cnv 23 178 26 empty empty empty 20 12 0 16 #a6e3a1 #000000 0;
#X symbolatom 101 153 22 0 0 0 - - - 0;
#X msg 55 314 symbol Y;
#X msg 101 258 set symbol \$1;
#X obj 101 187 t s s b, f 13;
#X obj 306 328 d_0;
#X obj 306 361 outlet;
#X obj 55 16 loadbang;
#X obj 55 44 f \$0;
#X obj 55 112 t b f, f 37;
#X obj 145 15 inlet;
#X connect 0 0 2 0;
#X connect 1 0 8 1;
#X connect 2 0 4 0;
#X connect 2 1 1 0;
#X connect 4 0 7 0;
#X connect 5 0 4 0;
#X connect 6 0 5 0;
#X connect 7 0 6 0;
#X connect 7 1 8 0;
#X connect 7 2 1 0;
#X connect 8 0 9 0;
#X connect 10 0 11 0;
#X connect 11 0 12 0;
#X connect 12 0 5 0;
#X connect 12 1 1 1;
#X connect 13 0 4 0;
#X coords 0 -1 1 1 180 28 2 100 150;
#X restore 642 506 pd ns_message;
#N canvas 1442 595 517 458 ns_message 0;
#X obj 282 16 bng 23 250 50 0 empty \$0_init empty 0 -12 0 16 #fcfcfc #000000 #000000;
#X obj 327 294 f;
#X obj 282 44 t b b, f 6;
#X obj 101 151 cnv 23 178 26 empty empty empty 20 12 0 16 #a6e3a1 #000000 0;
#X symbolatom 101 153 22 0 0 0 - - - 0;
#X msg 55 314 symbol Y_hat;
#X msg 101 258 set symbol \$1;
#X obj 101 187 t s s b, f 13;
#X obj 306 328 d_0;
#X obj 306 361 outlet;
#X obj 55 16 loadbang;
#X obj 55 44 f \$0;
#X obj 55 112 t b f, f 37;
#X obj 145 15 inlet;
#X connect 0 0 2 0;
#X connect 1 0 8 1;
#X connect 2 0 4 0;
#X connect 2 1 1 0;
#X connect 4 0 7 0;
#X connect 5 0 4 0;
#X connect 6 0 5 0;
#X connect 7 0 6 0;
#X connect 7 1 8 0;
#X connect 7 2 1 0;
#X connect 8 0 9 0;
#X connect 10 0 11 0;
#X connect 11 0 12 0;
#X connect 12 0 5 0;
#X connect 12 1 1 1;
#X connect 13 0 4 0;
#X coords 0 -1 1 1 180 28 2 100 150;
#X restore 539 467 pd ns_message;
#X obj 436 434 r \$0_m_0;
#X obj 436 792 nn.dw 0, f 39;
#N canvas 1442 595 517 458 ns_message 0;
#X obj 282 16 bng 23 250 50 0 empty \$0_init empty 0 -12 0 16 #fcfcfc #000000 #000000;
#X obj 327 294 f;
#X obj 282 44 t b b, f 6;
#X obj 101 151 cnv 23 178 26 empty empty empty 20 12 0 16 #a6e3a1 #000000 0;
#X symbolatom 101 153 22 0 0 0 - - - 0;
#X msg 55 314 symbol dz_l1;
#X msg 101 258 set symbol \$1;
#X obj 101 187 t s s b, f 13;
#X obj 306 328 d_0;
#X obj 306 361 outlet;
#X obj 55 16 loadbang;
#X obj 55 44 f \$0;
#X obj 55 112 t b f, f 37;
#X obj 145 15 inlet;
#X connect 0 0 2 0;
#X connect 1 0 8 1;
#X connect 2 0 4 0;
#X connect 2 1 1 0;
#X connect 4 0 7 0;
#X connect 5 0 4 0;
#X connect 6 0 5 0;
#X connect 7 0 6 0;
#X connect 7 1 8 0;
#X connect 7 2 1 0;
#X connect 8 0 9 0;
#X connect 10 0 11 0;
#X connect 11 0 12 0;
#X connect 12 0 5 0;
#X connect 12 1 1 1;
#X connect 13 0 4 0;
#X coords 0 -1 1 1 180 28 2 100 150;
#X restore 539 671 pd ns_message;
#N canvas 1442 595 517 458 ns_message 0;
#X obj 282 16 bng 23 250 50 0 empty \$0_init empty 0 -12 0 16 #fcfcfc #000000 #000000;
#X obj 327 294 f;
#X obj 282 44 t b b, f 6;
#X obj 101 151 cnv 23 178 26 empty empty empty 20 12 0 16 #a6e3a1 #000000 0;
#X symbolatom 101 153 22 0 0 0 - - - 0;
#X msg 55 314 symbol X;
#X msg 101 258 set symbol \$1;
#X obj 101 187 t s s b, f 13;
#X obj 306 328 d_0;
#X obj 306 361 outlet;
#X obj 55 16 loadbang;
#X obj 55 44 f \$0;
#X obj 55 112 t b f, f 37;
#X obj 145 15 inlet;
#X connect 0 0 2 0;
#X connect 1 0 8 1;
#X connect 2 0 4 0;
#X connect 2 1 1 0;
#X connect 4 0 7 0;
#X connect 5 0 4 0;
#X connect 6 0 5 0;
#X connect 7 0 6 0;
#X connect 7 1 8 0;
#X connect 7 2 1 0;
#X connect 8 0 9 0;
#X connect 10 0 11 0;
#X connect 11 0 12 0;
#X connect 12 0 5 0;
#X connect 12 1 1 1;
#X connect 13 0 4 0;
#X coords 0 -1 1 1 180 28 2 100 150;
#X restore 642 711 pd ns_message;
#N canvas 1442 595 517 458 ns_message 0;
#X obj 282 16 bng 23 250 50 0 empty \$0_init empty 0 -12 0 16 #fcfcfc #000000 #000000;
#X obj 327 294 f;
#X obj 282 44 t b b, f 6;
#X obj 101 151 cnv 23 178 26 empty empty empty 20 12 0 16 #a6e3a1 #000000 0;
#X symbolatom 101 153 22 0 0 0 - - - 0;
#X msg 55 314 symbol dw_l1;
#X msg 101 258 set symbol \$1;
#X obj 101 187 t s s b, f 13;
#X obj 306 328 d_0;
#X obj 306 361 outlet;
#X obj 55 16 loadbang;
#X obj 55 44 f \$0;
#X obj 55 112 t b f, f 37;
#X obj 145 15 inlet;
#X connect 0 0 2 0;
#X connect 1 0 8 1;
#X connect 2 0 4 0;
#X connect 2 1 1 0;
#X connect 4 0 7 0;
#X connect 5 0 4 0;
#X connect 6 0 5 0;
#X connect 7 0 6 0;
#X connect 7 1 8 0;
#X connect 7 2 1 0;
#X connect 8 0 9 0;
#X connect 10 0 11 0;
#X connect 11 0 12 0;
#X connect 12 0 5 0;
#X connect 12 1 1 1;
#X connect 13 0 4 0;
#X coords 0 -1 1 1 180 28 2 100 150;
#X restore 745 751 pd ns_message;
#X text 443 620 // dW^[l] = 1/m dZ^[l] . A^[l-1]T \; nn.dw calculates the derivative of one feature for one node;
#X obj 436 940 nn.db, f 39;
#X text 449 826 // db^[l] = 1/m sum(dZ^[l]);
#N canvas 1442 595 517 458 ns_message 0;
#X obj 282 16 bng 23 250 50 0 empty \$0_init empty 0 -12 0 16 #fcfcfc #000000 #000000;
#X obj 327 294 f;
#X obj 282 44 t b b, f 6;
#X obj 101 151 cnv 23 178 26 empty empty empty 20 12 0 16 #a6e3a1 #000000 0;
#X symbolatom 101 153 22 0 0 0 - - - 0;
#X msg 55 314 symbol dz_l1;
#X msg 101 258 set symbol \$1;
#X obj 101 187 t s s b, f 13;
#X obj 306 328 d_0;
#X obj 306 361 outlet;
#X obj 55 16 loadbang;
#X obj 55 44 f \$0;
#X obj 55 112 t b f, f 37;
#X obj 145 15 inlet;
#X connect 0 0 2 0;
#X connect 1 0 8 1;
#X connect 2 0 4 0;
#X connect 2 1 1 0;
#X connect 4 0 7 0;
#X connect 5 0 4 0;
#X connect 6 0 5 0;
#X connect 7 0 6 0;
#X connect 7 1 8 0;
#X connect 7 2 1 0;
#X connect 8 0 9 0;
#X connect 10 0 11 0;
#X connect 11 0 12 0;
#X connect 12 0 5 0;
#X connect 12 1 1 1;
#X connect 13 0 4 0;
#X coords 0 -1 1 1 180 28 2 100 150;
#X restore 590 858 pd ns_message;
#N canvas 1442 595 517 458 ns_message 0;
#X obj 282 16 bng 23 250 50 0 empty \$0_init empty 0 -12 0 16 #fcfcfc #000000 #000000;
#X obj 327 294 f;
#X obj 282 44 t b b, f 6;
#X obj 101 151 cnv 23 178 26 empty empty empty 20 12 0 16 #a6e3a1 #000000 0;
#X symbolatom 101 153 22 0 0 0 - - - 0;
#X msg 55 314 symbol db_l1;
#X msg 101 258 set symbol \$1;
#X obj 101 187 t s s b, f 13;
#X obj 306 328 d_0;
#X obj 306 361 outlet;
#X obj 55 16 loadbang;
#X obj 55 44 f \$0;
#X obj 55 112 t b f, f 37;
#X obj 145 15 inlet;
#X connect 0 0 2 0;
#X connect 1 0 8 1;
#X connect 2 0 4 0;
#X connect 2 1 1 0;
#X connect 4 0 7 0;
#X connect 5 0 4 0;
#X connect 6 0 5 0;
#X connect 7 0 6 0;
#X connect 7 1 8 0;
#X connect 7 2 1 0;
#X connect 8 0 9 0;
#X connect 10 0 11 0;
#X connect 11 0 12 0;
#X connect 12 0 5 0;
#X connect 12 1 1 1;
#X connect 13 0 4 0;
#X coords 0 -1 1 1 180 28 2 100 150;
#X restore 745 898 pd ns_message;
#X obj 976 -2 cnv 23 540 360 empty empty update 4 12 0 16 #94e2d5 #4c4f69 0;
#X obj 983 171 nn.update_params, f 40;
#X obj 1300 138 r \$0_alpha;
#X obj 983 30 r \$0_m_0;
#N canvas 1442 595 517 458 ns_message 0;
#X obj 282 16 bng 23 250 50 0 empty \$0_init empty 0 -12 0 16 #fcfcfc #000000 #000000;
#X obj 327 294 f;
#X obj 282 44 t b b, f 6;
#X obj 101 151 cnv 23 178 26 empty empty empty 20 12 0 16 #a6e3a1 #000000 0;
#X symbolatom 101 153 22 0 0 0 - - - 0;
#X msg 55 314 symbol w_l1;
#X msg 101 258 set symbol \$1;
#X obj 101 187 t s s b, f 13;
#X obj 306 328 d_0;
#X obj 306 361 outlet;
#X obj 55 16 loadbang;
#X obj 55 44 f \$0;
#X obj 55 112 t b f, f 37;
#X obj 145 15 inlet;
#X connect 0 0 2 0;
#X connect 1 0 8 1;
#X connect 2 0 4 0;
#X connect 2 1 1 0;
#X connect 4 0 7 0;
#X connect 5 0 4 0;
#X connect 6 0 5 0;
#X connect 7 0 6 0;
#X connect 7 1 8 0;
#X connect 7 2 1 0;
#X connect 8 0 9 0;
#X connect 10 0 11 0;
#X connect 11 0 12 0;
#X connect 12 0 5 0;
#X connect 12 1 1 1;
#X connect 13 0 4 0;
#X coords 0 -1 1 1 180 28 2 100 150;
#X restore 1088 55 pd ns_message;
#N canvas 1442 595 517 458 ns_message 0;
#X obj 282 16 bng 23 250 50 0 empty \$0_init empty 0 -12 0 16 #fcfcfc #000000 #000000;
#X obj 327 294 f;
#X obj 282 44 t b b, f 6;
#X obj 101 151 cnv 23 178 26 empty empty empty 20 12 0 16 #a6e3a1 #000000 0;
#X symbolatom 101 153 22 0 0 0 - - - 0;
#X msg 55 314 symbol dw_l1;
#X msg 101 258 set symbol \$1;
#X obj 101 187 t s s b, f 13;
#X obj 306 328 d_0;
#X obj 306 361 outlet;
#X obj 55 16 loadbang;
#X obj 55 44 f \$0;
#X obj 55 112 t b f, f 37;
#X obj 145 15 inlet;
#X connect 0 0 2 0;
#X connect 1 0 8 1;
#X connect 2 0 4 0;
#X connect 2 1 1 0;
#X connect 4 0 7 0;
#X connect 5 0 4 0;
#X connect 6 0 5 0;
#X connect 7 0 6 0;
#X connect 7 1 8 0;
#X connect 7 2 1 0;
#X connect 8 0 9 0;
#X connect 10 0 11 0;
#X connect 11 0 12 0;
#X connect 12 0 5 0;
#X connect 12 1 1 1;
#X connect 13 0 4 0;
#X coords 0 -1 1 1 180 28 2 100 150;
#X restore 1194 97 pd ns_message;
#X obj 983 321 nn.update_params, f 40;
#X obj 1300 288 r \$0_alpha;
#N canvas 1442 595 517 458 ns_message 0;
#X obj 282 16 bng 23 250 50 0 empty \$0_init empty 0 -12 0 16 #fcfcfc #000000 #000000;
#X obj 327 294 f;
#X obj 282 44 t b b, f 6;
#X obj 101 151 cnv 23 178 26 empty empty empty 20 12 0 16 #a6e3a1 #000000 0;
#X symbolatom 101 153 22 0 0 0 - - - 0;
#X msg 55 314 symbol b_l1;
#X msg 101 258 set symbol \$1;
#X obj 101 187 t s s b, f 13;
#X obj 306 328 d_0;
#X obj 306 361 outlet;
#X obj 55 16 loadbang;
#X obj 55 44 f \$0;
#X obj 55 112 t b f, f 37;
#X obj 145 15 inlet;
#X connect 0 0 2 0;
#X connect 1 0 8 1;
#X connect 2 0 4 0;
#X connect 2 1 1 0;
#X connect 4 0 7 0;
#X connect 5 0 4 0;
#X connect 6 0 5 0;
#X connect 7 0 6 0;
#X connect 7 1 8 0;
#X connect 7 2 1 0;
#X connect 8 0 9 0;
#X connect 10 0 11 0;
#X connect 11 0 12 0;
#X connect 12 0 5 0;
#X connect 12 1 1 1;
#X connect 13 0 4 0;
#X coords 0 -1 1 1 180 28 2 100 150;
#X restore 1088 205 pd ns_message;
#N canvas 1442 595 517 458 ns_message 0;
#X obj 282 16 bng 23 250 50 0 empty \$0_init empty 0 -12 0 16 #fcfcfc #000000 #000000;
#X obj 327 294 f;
#X obj 282 44 t b b, f 6;
#X obj 101 151 cnv 23 178 26 empty empty empty 20 12 0 16 #a6e3a1 #000000 0;
#X symbolatom 101 153 22 0 0 0 - - - 0;
#X msg 55 314 symbol db_l1;
#X msg 101 258 set symbol \$1;
#X obj 101 187 t s s b, f 13;
#X obj 306 328 d_0;
#X obj 306 361 outlet;
#X obj 55 16 loadbang;
#X obj 55 44 f \$0;
#X obj 55 112 t b f, f 37;
#X obj 145 15 inlet;
#X connect 0 0 2 0;
#X connect 1 0 8 1;
#X connect 2 0 4 0;
#X connect 2 1 1 0;
#X connect 4 0 7 0;
#X connect 5 0 4 0;
#X connect 6 0 5 0;
#X connect 7 0 6 0;
#X connect 7 1 8 0;
#X connect 7 2 1 0;
#X connect 8 0 9 0;
#X connect 10 0 11 0;
#X connect 11 0 12 0;
#X connect 12 0 5 0;
#X connect 12 1 1 1;
#X connect 13 0 4 0;
#X coords 0 -1 1 1 180 28 2 100 150;
#X restore 1194 247 pd ns_message;
#X obj 977 361 cnv 23 540 620 empty empty empty 4 12 0 16 #89dceb #4c4f69 0;
#N canvas 1442 595 517 458 ns_message 0;
#X obj 282 16 bng 23 250 50 0 empty \$0_init empty 0 -12 0 16 #fcfcfc #000000 #000000;
#X obj 327 294 f;
#X obj 282 44 t b b, f 6;
#X obj 101 151 cnv 23 178 26 empty empty empty 20 12 0 16 #a6e3a1 #000000 0;
#X symbolatom 101 153 22 0 0 0 - - - 0;
#X msg 55 314 symbol dw_l1;
#X msg 101 258 set symbol \$1;
#X obj 101 187 t s s b, f 13;
#X obj 306 328 d_0;
#X obj 306 361 outlet;
#X obj 55 16 loadbang;
#X obj 55 44 f \$0;
#X obj 55 112 t b f, f 37;
#X obj 145 15 inlet;
#X connect 0 0 2 0;
#X connect 1 0 8 1;
#X connect 2 0 4 0;
#X connect 2 1 1 0;
#X connect 4 0 7 0;
#X connect 5 0 4 0;
#X connect 6 0 5 0;
#X connect 7 0 6 0;
#X connect 7 1 8 0;
#X connect 7 2 1 0;
#X connect 8 0 9 0;
#X connect 10 0 11 0;
#X connect 11 0 12 0;
#X connect 12 0 5 0;
#X connect 12 1 1 1;
#X connect 13 0 4 0;
#X coords 0 -1 1 1 180 28 2 100 150;
#X restore 1019 462 pd ns_message;
#X msg 998 754 \; \$1 const 0;
#N canvas 1442 595 517 458 ns_message 0;
#X obj 282 16 bng 23 250 50 0 empty \$0_init empty 0 -12 0 16 #fcfcfc #000000 #000000;
#X obj 327 294 f;
#X obj 282 44 t b b, f 6;
#X obj 101 151 cnv 23 178 26 empty empty empty 20 12 0 16 #a6e3a1 #000000 0;
#X symbolatom 101 153 22 0 0 0 - - - 0;
#X msg 55 314 symbol db_l1;
#X msg 101 258 set symbol \$1;
#X obj 101 187 t s s b, f 13;
#X obj 306 328 d_0;
#X obj 306 361 outlet;
#X obj 55 16 loadbang;
#X obj 55 44 f \$0;
#X obj 55 112 t b f, f 37;
#X obj 145 15 inlet;
#X connect 0 0 2 0;
#X connect 1 0 8 1;
#X connect 2 0 4 0;
#X connect 2 1 1 0;
#X connect 4 0 7 0;
#X connect 5 0 4 0;
#X connect 6 0 5 0;
#X connect 7 0 6 0;
#X connect 7 1 8 0;
#X connect 7 2 1 0;
#X connect 8 0 9 0;
#X connect 10 0 11 0;
#X connect 11 0 12 0;
#X connect 12 0 5 0;
#X connect 12 1 1 1;
#X connect 13 0 4 0;
#X coords 0 -1 1 1 180 28 2 100 150;
#X restore 1039 532 pd ns_message;
#N canvas 1442 595 517 458 ns_message 0;
#X obj 282 16 bng 23 250 50 0 empty \$0_init empty 0 -12 0 16 #fcfcfc #000000 #000000;
#X obj 327 294 f;
#X obj 282 44 t b b, f 6;
#X obj 101 151 cnv 23 178 26 empty empty empty 20 12 0 16 #a6e3a1 #000000 0;
#X symbolatom 101 153 22 0 0 0 - - - 0;
#X msg 55 314 symbol da_l1;
#X msg 101 258 set symbol \$1;
#X obj 101 187 t s s b, f 13;
#X obj 306 328 d_0;
#X obj 306 361 outlet;
#X obj 55 16 loadbang;
#X obj 55 44 f \$0;
#X obj 55 112 t b f, f 37;
#X obj 145 15 inlet;
#X connect 0 0 2 0;
#X connect 1 0 8 1;
#X connect 2 0 4 0;
#X connect 2 1 1 0;
#X connect 4 0 7 0;
#X connect 5 0 4 0;
#X connect 6 0 5 0;
#X connect 7 0 6 0;
#X connect 7 1 8 0;
#X connect 7 2 1 0;
#X connect 8 0 9 0;
#X connect 10 0 11 0;
#X connect 11 0 12 0;
#X connect 12 0 5 0;
#X connect 12 1 1 1;
#X connect 13 0 4 0;
#X coords 0 -1 1 1 180 28 2 100 150;
#X restore 1058 602 pd ns_message;
#N canvas 1442 595 517 458 ns_message 0;
#X obj 282 16 bng 23 250 50 0 empty \$0_init empty 0 -12 0 16 #fcfcfc #000000 #000000;
#X obj 327 294 f;
#X obj 282 44 t b b, f 6;
#X obj 101 151 cnv 23 178 26 empty empty empty 20 12 0 16 #a6e3a1 #000000 0;
#X symbolatom 101 153 22 0 0 0 - - - 0;
#X msg 55 314 symbol db_l1;
#X msg 101 258 set symbol \$1;
#X obj 101 187 t s s b, f 13;
#X obj 306 328 d_0;
#X obj 306 361 outlet;
#X obj 55 16 loadbang;
#X obj 55 44 f \$0;
#X obj 55 112 t b f, f 37;
#X obj 145 15 inlet;
#X connect 0 0 2 0;
#X connect 1 0 8 1;
#X connect 2 0 4 0;
#X connect 2 1 1 0;
#X connect 4 0 7 0;
#X connect 5 0 4 0;
#X connect 6 0 5 0;
#X connect 7 0 6 0;
#X connect 7 1 8 0;
#X connect 7 2 1 0;
#X connect 8 0 9 0;
#X connect 10 0 11 0;
#X connect 11 0 12 0;
#X connect 12 0 5 0;
#X connect 12 1 1 1;
#X connect 13 0 4 0;
#X coords 0 -1 1 1 180 28 2 100 150;
#X restore 1078 672 pd ns_message;
#N canvas 1442 595 517 458 ns_message 0;
#X obj 282 16 bng 23 250 50 0 empty \$0_init empty 0 -12 0 16 #fcfcfc #000000 #000000;
#X obj 327 294 f;
#X obj 282 44 t b b, f 6;
#X obj 101 151 cnv 23 178 26 empty empty empty 20 12 0 16 #a6e3a1 #000000 0;
#X symbolatom 101 153 22 0 0 0 - - - 0;
#X msg 55 314 symbol Y_hat;
#X msg 101 258 set symbol \$1;
#X obj 101 187 t s s b, f 13;
#X obj 306 328 d_0;
#X obj 306 361 outlet;
#X obj 55 16 loadbang;
#X obj 55 44 f \$0;
#X obj 55 112 t b f, f 37;
#X obj 145 15 inlet;
#X connect 0 0 2 0;
#X connect 1 0 8 1;
#X connect 2 0 4 0;
#X connect 2 1 1 0;
#X connect 4 0 7 0;
#X connect 5 0 4 0;
#X connect 6 0 5 0;
#X connect 7 0 6 0;
#X connect 7 1 8 0;
#X connect 7 2 1 0;
#X connect 8 0 9 0;
#X connect 10 0 11 0;
#X connect 11 0 12 0;
#X connect 12 0 5 0;
#X connect 12 1 1 1;
#X connect 13 0 4 0;
#X coords 0 -1 1 1 180 28 2 100 150;
#X restore 998 398 pd ns_message;
#N canvas 1817 238 743 779 synth 0;
#X obj 507 14 inlet;
#X obj 164 542 lop~ 5;
#X obj 161 79 phasor~;
#X obj 161 14 inlet;
#X obj 82 603 dac~;
#X obj 80 310 +~;
#X obj 80 212 sig~ 220;
#X obj 159 305 *~;
#X obj 336 14 inlet;
#X obj 81 512 osc~ 220;
#X obj 81 540 *~;
#X obj 160 212 tabread~ \$0_Y_hat;
#X obj 161 138 *~ 16;
#X connect 0 0 1 0;
#X connect 1 0 10 1;
#X connect 2 0 12 0;
#X connect 3 0 2 0;
#X connect 5 0 9 0;
#X connect 6 0 5 0;
#X connect 7 0 5 1;
#X connect 8 0 7 1;
#X connect 9 0 10 0;
#X connect 10 0 4 0;
#X connect 10 0 4 1;
#X connect 11 0 7 0;
#X connect 12 0 11 0;
#X restore 1312 765 pd synth;
#X obj 1458 713 vsl 23 196 0.01 1 1 0 empty empty empty 0 -9 0 16 #fcfcfc #000000 #000000 0 1;
#X obj 1341 723 nbx 5 21 -1e+37 1e+37 0 1 empty empty empty 0 -12 0 16 #fcfcfc #000000 #000000 796 256;
#X obj 1244 722 nbx 5 21 -1e+37 1e+37 0 1 empty empty empty 0 -12 0 16 #fcfcfc #000000 #000000 0.52 256;
#X obj 49 398 cnv 23 218 493 empty empty empty 20 12 0 16 #b4befe #404040 0;
#N canvas 0 50 450 250 (subpatch) 0;
#X array \$0_X 16 float 3;
#A 0 0.714297 0.971429 -0.242848 0.0428618 0.557142 0.714276 0.414279 -0.142857 0.657133 0.185709 -0.0428467 0.0857234 -0.328563 0.328573 0.11429 -0.128565;
#X coords 0 1 16 -1 200 140 1 0 0;
#X restore 58 421 graph;
#N canvas 0 50 450 250 (subpatch) 0;
#X array \$0_Y 16 float 3;
#A 0 0.671434 0.428576 -9.47714e-06 -0.14287 -0.942873 -0.257158 -0.242872 -0.200014 0.114279 0.457144 -0.0714452 -0.41431 -1.08575 -0.814326 0.04999 0.514293;
#X coords 0 1 16 -1 200 140 1 0 0;
#X restore 58 581 graph;
#N canvas 0 50 450 250 (subpatch) 0;
#X array \$0_Y_hat 16 float 3;
#A 0 0.029428 0.111604 -0.276462 -0.185153 -0.020796 0.0294221 -0.066453 -0.244506 0.0111597 -0.139501 -0.212544 -0.171455 -0.303855 -0.0938436 -0.162325 -0.239938;
#X coords 0 1 16 -1 200 140 1 0 0;
#X restore 58 741 graph;
#X msg 328 49 2;
#X msg 328 79 4;
#X msg 330 134 8;
#X msg 329 173 16;
#X obj 998 433 spigot;
#X obj 1059 432 tgl 23 0 empty empty empty 0 -12 0 16 #40a02b #000000 #000000 0 1;
#X obj 1019 501 spigot;
#X obj 1079 500 tgl 23 0 empty empty empty 0 -12 0 16 #40a02b #000000 #000000 0 1;
#X obj 1039 571 spigot;
#X obj 1099 570 tgl 23 0 empty empty empty 0 -12 0 16 #40a02b #000000 #000000 0 1;
#X obj 1058 641 spigot;
#X obj 1118 640 tgl 23 0 empty empty empty 0 -12 0 16 #40a02b #000000 #000000 0 1;
#X obj 1078 711 spigot;
#X obj 1138 710 tgl 23 0 empty empty empty 0 -12 0 16 #40a02b #000000 #000000 0 1;
#X msg 328 106 6;
#X msg 337 305 10;
#X msg 136 299 1;
#X msg 100 119 0.01;
#X connect 1 0 6 0;
#X connect 2 0 3 0;
#X connect 4 0 3 1;
#X connect 5 0 4 0;
#X connect 8 0 28 0;
#X connect 9 0 12 0;
#X connect 10 0 88 0;
#X connect 14 0 15 0;
#X connect 15 0 23 0;
#X connect 15 1 23 1;
#X connect 16 0 15 1;
#X connect 19 0 23 2;
#X connect 20 0 23 3;
#X connect 21 0 23 4;
#X connect 22 0 23 5;
#X connect 25 0 24 0;
#X connect 27 0 26 0;
#X connect 28 0 9 0;
#X connect 29 0 7 0;
#X connect 32 0 37 0;
#X connect 33 0 32 3;
#X connect 34 0 32 2;
#X connect 35 0 32 1;
#X connect 36 0 32 0;
#X connect 37 0 42 0;
#X connect 38 0 37 1;
#X connect 39 0 37 2;
#X connect 40 0 37 3;
#X connect 44 0 42 1;
#X connect 45 0 42 2;
#X connect 47 0 52 0;
#X connect 48 0 47 3;
#X connect 49 0 47 0;
#X connect 50 0 47 1;
#X connect 51 0 47 2;
#X connect 53 0 52 3;
#X connect 54 0 52 1;
#X connect 55 0 52 2;
#X connect 57 0 77 0;
#X connect 59 0 79 0;
#X connect 60 0 81 0;
#X connect 61 0 83 0;
#X connect 62 0 75 0;
#X connect 64 0 63 2;
#X connect 65 0 63 1;
#X connect 66 0 63 0;
#X connect 71 0 28 1;
#X connect 72 0 28 1;
#X connect 73 0 28 1;
#X connect 74 0 28 1;
#X connect 75 0 58 0;
#X connect 76 0 75 1;
#X connect 77 0 58 0;
#X connect 78 0 77 1;
#X connect 79 0 58 0;
#X connect 80 0 79 1;
#X connect 81 0 58 0;
#X connect 82 0 81 1;
#X connect 83 0 58 0;
#X connect 84 0 83 1;
#X connect 85 0 28 1;
#X connect 86 0 26 1;
#X connect 87 0 24 1;
#X connect 88 0 11 0;
