#N canvas 0 66 3440 1340 16;
#X obj 7 3 cnv 23 482 1326 empty empty initialize 6 12 0 16 #eff1f5 #4c4f69 0;
#X obj 12 55 bng 40 250 50 0 empty empty init 0 -12 0 16 #89b4fa #f9e2af #4c4f69;
#X obj 83 56 tgl 40 0 empty empty run 0 -12 0 16 #a6e3a1 #313244 #5c5f77 0 1;
#N canvas 174 521 450 300 bin_bang 0;
#X obj 21 17 inlet start_stop;
#X obj 21 115 metro;
#X obj 21 143 s \$0_bin_bang;
#X obj 163 17 inlet tempo;
#X msg 163 50 tempo \$1 samp;
#X connect 0 0 1 0;
#X connect 1 0 2 0;
#X connect 3 0 4 0;
#X connect 4 0 1 0;
#X restore 83 104 pd bin_bang;
#X msg 141 72 64;
#X obj 141 39 r \$0_init;
#N canvas 150 643 337 212 init 0;
#X obj 26 21 inlet init;
#X obj 26 49 t b b;
#X obj 26 127 s \$0_init;
#X obj 112 127 f \$0;
#X obj 112 155 s \$0_ns;
#X obj 230 21 loadbang;
#X obj 230 49 s \$0_lb;
#X connect 0 0 1 0;
#X connect 1 0 2 0;
#X connect 1 1 3 0;
#X connect 3 0 4 0;
#X connect 5 0 6 0;
#X restore 12 104 pd init;
#X obj 495 5 cnv 23 3022 1326 empty empty forward\ propagation 6 12 0 16 #eff1f5 #4c4f69 0;
#X obj 5 217 cnv 23 482 1100 empty empty config 6 12 0 16 #ccd0da #4c4f69 0;
#N canvas 4 70 1712 1332 ns_message 0;
#X obj 328 5 bng 23 250 50 0 empty \$0_init empty 0 -12 0 16 #fcfcfc #000000 #000000;
#X obj 437 311 f;
#X obj 328 38 t b b, f 14;
#X obj 101 101 cnv 23 222 26 empty empty empty 20 12 0 16 #a6e3a1 #000000 0;
#X symbolatom 102 103 18 0 0 0 - - - 0;
#X obj 251 103 nbx 4 22 -1e+37 1e+37 0 0 empty empty empty 0 -12 0 16 #cba6f7 #000000 #000000 0 256;
#X msg 10 224 symbol lvl_1_W1;
#X msg 10 188 set symbol \$1;
#X obj 102 145 t s s b, f 13;
#X obj 416 345 d_0;
#X obj 416 378 outlet;
#X obj 251 69 r \$0_ns;
#X obj 458 277 r \$0_ns;
#X obj 126 222 loadbang;
#X connect 0 0 2 0;
#X connect 1 0 9 1;
#X connect 2 0 4 0;
#X connect 2 1 1 0;
#X connect 4 0 8 0;
#X connect 6 0 4 0;
#X connect 7 0 6 0;
#X connect 8 0 7 0;
#X connect 8 1 9 0;
#X connect 8 2 1 0;
#X connect 9 0 10 0;
#X connect 11 0 5 0;
#X connect 12 0 1 1;
#X connect 13 0 6 0;
#X coords 0 -1 1 1 224 28 2 100 100;
#X restore 11 253 pd ns_message;
#X obj 11 290 nn.rand_array;
#N canvas 1836 347 1083 944 arrays 1;
#X text 6 69 // lvl_1 (2 units \, 2 features);
#X obj 9 98 array define \$0_lvl_1_Z1 128;
#X obj 248 98 array define \$0_lvl_1_dZ1 128;
#X obj 9 131 array define \$0_lvl_1_A1 128;
#X obj 248 131 array define \$0_lvl_1_dA1 128;
#X text 484 112 // hmmm;
#X obj 9 159 array define \$0_lvl_1_W1 2;
#X obj 248 159 array define \$0_lvl_1_dW1 2;
#X obj 9 192 array define \$0_lvl_1_b1 1;
#X obj 248 192 array define \$0_lvl_1_db1 1;
#X text 484 250 // hmmm;
#X obj 9 236 array define \$0_lvl_1_Z2 128;
#X obj 9 269 array define \$0_lvl_1_A2 128;
#X obj 9 297 array define \$0_lvl_1_W2 2;
#X obj 9 329 array define \$0_lvl_1_b2 1;
#X obj 248 236 array define \$0_lvl_1_dZ2 128;
#X obj 248 269 array define \$0_lvl_1_dA2 128;
#X obj 248 297 array define \$0_lvl_1_dW2 2;
#X obj 248 330 array define \$0_lvl_1_db2 1;
#X text 12 364 // lvl_2 (4 units \, 2 features);
#X obj 9 391 array define \$0_lvl_2_Z1 128;
#X obj 248 391 array define \$0_lvl_2_dZ1 128;
#X obj 9 424 array define \$0_lvl_2_A1 128;
#X obj 248 424 array define \$0_lvl_2_dA1 128;
#X obj 9 452 array define \$0_lvl_2_W1 2;
#X obj 248 452 array define \$0_lvl_2_dW1 2;
#X obj 9 485 array define \$0_lvl_2_b1 1;
#X obj 248 485 array define \$0_lvl_2_db1 1;
#X obj 9 529 array define \$0_lvl_2_Z2 128;
#X obj 248 529 array define \$0_lvl_2_dZ2 128;
#X obj 9 562 array define \$0_lvl_2_A2 128;
#X obj 248 562 array define \$0_lvl_2_dA2 128;
#X obj 9 590 array define \$0_lvl_2_W2 2;
#X obj 248 590 array define \$0_lvl_2_dW2 2;
#X obj 9 622 array define \$0_lvl_2_b2 1;
#X obj 248 623 array define \$0_lvl_2_db2 1;
#X obj 9 665 array define \$0_lvl_2_Z3 128;
#X obj 248 665 array define \$0_lvl_2_dZ3 128;
#X obj 9 698 array define \$0_lvl_2_A3 128;
#X obj 248 698 array define \$0_lvl_2_dA3 128;
#X obj 9 726 array define \$0_lvl_2_W3 2;
#X obj 248 726 array define \$0_lvl_2_dW3 2;
#X obj 9 759 array define \$0_lvl_2_b3 1;
#X obj 248 759 array define \$0_lvl_2_db3 1;
#X obj 9 803 array define \$0_lvl_2_Z4 128;
#X obj 248 803 array define \$0_lvl_2_dZ4 128;
#X obj 9 836 array define \$0_lvl_2_A4 128;
#X obj 248 836 array define \$0_lvl_2_dA4 128;
#X obj 9 864 array define \$0_lvl_2_W4 2;
#X obj 248 864 array define \$0_lvl_2_dW4 2;
#X obj 9 896 array define \$0_lvl_2_b4 1;
#X obj 248 897 array define \$0_lvl_2_db4 1;
#X text 560 70 // lvl_3 (1 unit \, 4 features);
#X obj 559 98 array define \$0_lvl_3_Z1 128;
#X obj 798 98 array define \$0_lvl_3_dZ1 128;
#X obj 798 131 array define \$0_lvl_3_dA1 128;
#X obj 559 159 array define \$0_lvl_3_W1 4;
#X obj 798 159 array define \$0_lvl_3_dW1 4;
#X obj 559 191 array define \$0_lvl_3_b1 1;
#X obj 799 192 array define \$0_lvl_3_db1 1;
#X text 12 8 // data: X_sig and Y defined in main patch: shape (1 \, 128);
#X obj 10 38 array define \$0_X_samp 128;
#X text 541 129 // \$0_lvl_3_A1 defined in main;
#X restore 397 223 pd arrays;
#N canvas 4 70 1712 1332 ns_message 0;
#X obj 328 5 bng 23 250 50 0 empty \$0_init empty 0 -12 0 16 #fcfcfc #000000 #000000;
#X obj 437 311 f;
#X obj 328 38 t b b, f 14;
#X obj 101 101 cnv 23 222 26 empty empty empty 20 12 0 16 #a6e3a1 #000000 0;
#X symbolatom 102 103 18 0 0 0 - - - 0;
#X obj 251 103 nbx 4 22 -1e+37 1e+37 0 0 empty empty empty 0 -12 0 16 #cba6f7 #000000 #000000 0 256;
#X msg 10 224 symbol lvl_1_W2;
#X msg 10 188 set symbol \$1;
#X obj 102 145 t s s b, f 13;
#X obj 416 345 d_0;
#X obj 416 378 outlet;
#X obj 251 69 r \$0_ns;
#X obj 458 277 r \$0_ns;
#X obj 126 222 loadbang;
#X connect 0 0 2 0;
#X connect 1 0 9 1;
#X connect 2 0 4 0;
#X connect 2 1 1 0;
#X connect 4 0 8 0;
#X connect 6 0 4 0;
#X connect 7 0 6 0;
#X connect 8 0 7 0;
#X connect 8 1 9 0;
#X connect 8 2 1 0;
#X connect 9 0 10 0;
#X connect 11 0 5 0;
#X connect 12 0 1 1;
#X connect 13 0 6 0;
#X coords 0 -1 1 1 224 28 2 100 100;
#X restore 247 253 pd ns_message;
#X obj 247 290 nn.rand_array;
#N canvas 4 70 1712 1332 ns_message 0;
#X obj 328 5 bng 23 250 50 0 empty \$0_init empty 0 -12 0 16 #fcfcfc #000000 #000000;
#X obj 437 311 f;
#X obj 328 38 t b b, f 14;
#X obj 101 101 cnv 23 222 26 empty empty empty 20 12 0 16 #a6e3a1 #000000 0;
#X symbolatom 102 103 18 0 0 0 - - - 0;
#X obj 251 103 nbx 4 22 -1e+37 1e+37 0 0 empty empty empty 0 -12 0 16 #cba6f7 #000000 #000000 0 256;
#X msg 10 224 symbol lvl_1_b1;
#X msg 10 188 set symbol \$1;
#X obj 102 145 t s s b, f 13;
#X obj 416 345 d_0;
#X obj 416 378 outlet;
#X obj 251 69 r \$0_ns;
#X obj 458 277 r \$0_ns;
#X obj 126 222 loadbang;
#X connect 0 0 2 0;
#X connect 1 0 9 1;
#X connect 2 0 4 0;
#X connect 2 1 1 0;
#X connect 4 0 8 0;
#X connect 6 0 4 0;
#X connect 7 0 6 0;
#X connect 8 0 7 0;
#X connect 8 1 9 0;
#X connect 8 2 1 0;
#X connect 9 0 10 0;
#X connect 11 0 5 0;
#X connect 12 0 1 1;
#X connect 13 0 6 0;
#X coords 0 -1 1 1 224 28 2 100 100;
#X restore 11 323 pd ns_message;
#X obj 11 360 nn.rand_array;
#N canvas 4 70 1712 1332 ns_message 0;
#X obj 328 5 bng 23 250 50 0 empty \$0_init empty 0 -12 0 16 #fcfcfc #000000 #000000;
#X obj 437 311 f;
#X obj 328 38 t b b, f 14;
#X obj 101 101 cnv 23 222 26 empty empty empty 20 12 0 16 #a6e3a1 #000000 0;
#X symbolatom 102 103 18 0 0 0 - - - 0;
#X obj 251 103 nbx 4 22 -1e+37 1e+37 0 0 empty empty empty 0 -12 0 16 #cba6f7 #000000 #000000 0 256;
#X msg 10 224 symbol lvl_1_b2;
#X msg 10 188 set symbol \$1;
#X obj 102 145 t s s b, f 13;
#X obj 416 345 d_0;
#X obj 416 378 outlet;
#X obj 251 69 r \$0_ns;
#X obj 458 277 r \$0_ns;
#X obj 126 222 loadbang;
#X connect 0 0 2 0;
#X connect 1 0 9 1;
#X connect 2 0 4 0;
#X connect 2 1 1 0;
#X connect 4 0 8 0;
#X connect 6 0 4 0;
#X connect 7 0 6 0;
#X connect 8 0 7 0;
#X connect 8 1 9 0;
#X connect 8 2 1 0;
#X connect 9 0 10 0;
#X connect 11 0 5 0;
#X connect 12 0 1 1;
#X connect 13 0 6 0;
#X coords 0 -1 1 1 224 28 2 100 100;
#X restore 247 323 pd ns_message;
#X obj 247 360 nn.rand_array;
#N canvas 4 70 1712 1332 ns_message 0;
#X obj 328 5 bng 23 250 50 0 empty \$0_init empty 0 -12 0 16 #fcfcfc #000000 #000000;
#X obj 437 311 f;
#X obj 328 38 t b b, f 14;
#X obj 101 101 cnv 23 222 26 empty empty empty 20 12 0 16 #a6e3a1 #000000 0;
#X symbolatom 102 103 18 0 0 0 - - - 0;
#X obj 251 103 nbx 4 22 -1e+37 1e+37 0 0 empty empty empty 0 -12 0 16 #cba6f7 #000000 #000000 0 256;
#X msg 10 224 symbol lvl_2_W1;
#X msg 10 188 set symbol \$1;
#X obj 102 145 t s s b, f 13;
#X obj 416 345 d_0;
#X obj 416 378 outlet;
#X obj 251 69 r \$0_ns;
#X obj 458 277 r \$0_ns;
#X obj 126 222 loadbang;
#X connect 0 0 2 0;
#X connect 1 0 9 1;
#X connect 2 0 4 0;
#X connect 2 1 1 0;
#X connect 4 0 8 0;
#X connect 6 0 4 0;
#X connect 7 0 6 0;
#X connect 8 0 7 0;
#X connect 8 1 9 0;
#X connect 8 2 1 0;
#X connect 9 0 10 0;
#X connect 11 0 5 0;
#X connect 12 0 1 1;
#X connect 13 0 6 0;
#X coords 0 -1 1 1 224 28 2 100 100;
#X restore 11 393 pd ns_message;
#X obj 11 430 nn.rand_array;
#N canvas 4 70 1712 1332 ns_message 0;
#X obj 328 5 bng 23 250 50 0 empty \$0_init empty 0 -12 0 16 #fcfcfc #000000 #000000;
#X obj 437 311 f;
#X obj 328 38 t b b, f 14;
#X obj 101 101 cnv 23 222 26 empty empty empty 20 12 0 16 #a6e3a1 #000000 0;
#X symbolatom 102 103 18 0 0 0 - - - 0;
#X obj 251 103 nbx 4 22 -1e+37 1e+37 0 0 empty empty empty 0 -12 0 16 #cba6f7 #000000 #000000 0 256;
#X msg 10 224 symbol lvl_2_W2;
#X msg 10 188 set symbol \$1;
#X obj 102 145 t s s b, f 13;
#X obj 416 345 d_0;
#X obj 416 378 outlet;
#X obj 251 69 r \$0_ns;
#X obj 458 277 r \$0_ns;
#X obj 126 222 loadbang;
#X connect 0 0 2 0;
#X connect 1 0 9 1;
#X connect 2 0 4 0;
#X connect 2 1 1 0;
#X connect 4 0 8 0;
#X connect 6 0 4 0;
#X connect 7 0 6 0;
#X connect 8 0 7 0;
#X connect 8 1 9 0;
#X connect 8 2 1 0;
#X connect 9 0 10 0;
#X connect 11 0 5 0;
#X connect 12 0 1 1;
#X connect 13 0 6 0;
#X coords 0 -1 1 1 224 28 2 100 100;
#X restore 247 393 pd ns_message;
#X obj 247 430 nn.rand_array;
#N canvas 4 70 1712 1332 ns_message 0;
#X obj 328 5 bng 23 250 50 0 empty \$0_init empty 0 -12 0 16 #fcfcfc #000000 #000000;
#X obj 437 311 f;
#X obj 328 38 t b b, f 14;
#X obj 101 101 cnv 23 222 26 empty empty empty 20 12 0 16 #a6e3a1 #000000 0;
#X symbolatom 102 103 18 0 0 0 - - - 0;
#X obj 251 103 nbx 4 22 -1e+37 1e+37 0 0 empty empty empty 0 -12 0 16 #cba6f7 #000000 #000000 0 256;
#X msg 10 224 symbol lvl_2_W3;
#X msg 10 188 set symbol \$1;
#X obj 102 145 t s s b, f 13;
#X obj 416 345 d_0;
#X obj 416 378 outlet;
#X obj 251 69 r \$0_ns;
#X obj 458 277 r \$0_ns;
#X obj 126 222 loadbang;
#X connect 0 0 2 0;
#X connect 1 0 9 1;
#X connect 2 0 4 0;
#X connect 2 1 1 0;
#X connect 4 0 8 0;
#X connect 6 0 4 0;
#X connect 7 0 6 0;
#X connect 8 0 7 0;
#X connect 8 1 9 0;
#X connect 8 2 1 0;
#X connect 9 0 10 0;
#X connect 11 0 5 0;
#X connect 12 0 1 1;
#X connect 13 0 6 0;
#X coords 0 -1 1 1 224 28 2 100 100;
#X restore 11 463 pd ns_message;
#X obj 11 500 nn.rand_array;
#N canvas 4 70 1712 1332 ns_message 0;
#X obj 328 5 bng 23 250 50 0 empty \$0_init empty 0 -12 0 16 #fcfcfc #000000 #000000;
#X obj 437 311 f;
#X obj 328 38 t b b, f 14;
#X obj 101 101 cnv 23 222 26 empty empty empty 20 12 0 16 #a6e3a1 #000000 0;
#X symbolatom 102 103 18 0 0 0 - - - 0;
#X obj 251 103 nbx 4 22 -1e+37 1e+37 0 0 empty empty empty 0 -12 0 16 #cba6f7 #000000 #000000 0 256;
#X msg 10 224 symbol lvl_2_W4;
#X msg 10 188 set symbol \$1;
#X obj 102 145 t s s b, f 13;
#X obj 416 345 d_0;
#X obj 416 378 outlet;
#X obj 251 69 r \$0_ns;
#X obj 458 277 r \$0_ns;
#X obj 126 222 loadbang;
#X connect 0 0 2 0;
#X connect 1 0 9 1;
#X connect 2 0 4 0;
#X connect 2 1 1 0;
#X connect 4 0 8 0;
#X connect 6 0 4 0;
#X connect 7 0 6 0;
#X connect 8 0 7 0;
#X connect 8 1 9 0;
#X connect 8 2 1 0;
#X connect 9 0 10 0;
#X connect 11 0 5 0;
#X connect 12 0 1 1;
#X connect 13 0 6 0;
#X coords 0 -1 1 1 224 28 2 100 100;
#X restore 247 463 pd ns_message;
#X obj 247 500 nn.rand_array;
#N canvas 4 70 1712 1332 ns_message 0;
#X obj 328 5 bng 23 250 50 0 empty \$0_init empty 0 -12 0 16 #fcfcfc #000000 #000000;
#X obj 437 311 f;
#X obj 328 38 t b b, f 14;
#X obj 101 101 cnv 23 222 26 empty empty empty 20 12 0 16 #a6e3a1 #000000 0;
#X symbolatom 102 103 18 0 0 0 - - - 0;
#X obj 251 103 nbx 4 22 -1e+37 1e+37 0 0 empty empty empty 0 -12 0 16 #cba6f7 #000000 #000000 0 256;
#X msg 10 224 symbol lvl_2_b1;
#X msg 10 188 set symbol \$1;
#X obj 102 145 t s s b, f 13;
#X obj 416 345 d_0;
#X obj 416 378 outlet;
#X obj 251 69 r \$0_ns;
#X obj 458 277 r \$0_ns;
#X obj 126 222 loadbang;
#X connect 0 0 2 0;
#X connect 1 0 9 1;
#X connect 2 0 4 0;
#X connect 2 1 1 0;
#X connect 4 0 8 0;
#X connect 6 0 4 0;
#X connect 7 0 6 0;
#X connect 8 0 7 0;
#X connect 8 1 9 0;
#X connect 8 2 1 0;
#X connect 9 0 10 0;
#X connect 11 0 5 0;
#X connect 12 0 1 1;
#X connect 13 0 6 0;
#X coords 0 -1 1 1 224 28 2 100 100;
#X restore 11 523 pd ns_message;
#X obj 11 560 nn.rand_array;
#N canvas 4 70 1712 1332 ns_message 0;
#X obj 328 5 bng 23 250 50 0 empty \$0_init empty 0 -12 0 16 #fcfcfc #000000 #000000;
#X obj 437 311 f;
#X obj 328 38 t b b, f 14;
#X obj 101 101 cnv 23 222 26 empty empty empty 20 12 0 16 #a6e3a1 #000000 0;
#X symbolatom 102 103 18 0 0 0 - - - 0;
#X obj 251 103 nbx 4 22 -1e+37 1e+37 0 0 empty empty empty 0 -12 0 16 #cba6f7 #000000 #000000 0 256;
#X msg 10 224 symbol lvl_2_b2;
#X msg 10 188 set symbol \$1;
#X obj 102 145 t s s b, f 13;
#X obj 416 345 d_0;
#X obj 416 378 outlet;
#X obj 251 69 r \$0_ns;
#X obj 458 277 r \$0_ns;
#X obj 126 222 loadbang;
#X connect 0 0 2 0;
#X connect 1 0 9 1;
#X connect 2 0 4 0;
#X connect 2 1 1 0;
#X connect 4 0 8 0;
#X connect 6 0 4 0;
#X connect 7 0 6 0;
#X connect 8 0 7 0;
#X connect 8 1 9 0;
#X connect 8 2 1 0;
#X connect 9 0 10 0;
#X connect 11 0 5 0;
#X connect 12 0 1 1;
#X connect 13 0 6 0;
#X coords 0 -1 1 1 224 28 2 100 100;
#X restore 247 523 pd ns_message;
#X obj 247 560 nn.rand_array;
#N canvas 4 70 1712 1332 ns_message 0;
#X obj 328 5 bng 23 250 50 0 empty \$0_init empty 0 -12 0 16 #fcfcfc #000000 #000000;
#X obj 437 311 f;
#X obj 328 38 t b b, f 14;
#X obj 101 101 cnv 23 222 26 empty empty empty 20 12 0 16 #a6e3a1 #000000 0;
#X symbolatom 102 103 18 0 0 0 - - - 0;
#X obj 251 103 nbx 4 22 -1e+37 1e+37 0 0 empty empty empty 0 -12 0 16 #cba6f7 #000000 #000000 0 256;
#X msg 10 224 symbol lvl_2_b3;
#X msg 10 188 set symbol \$1;
#X obj 102 145 t s s b, f 13;
#X obj 416 345 d_0;
#X obj 416 378 outlet;
#X obj 251 69 r \$0_ns;
#X obj 458 277 r \$0_ns;
#X obj 126 222 loadbang;
#X connect 0 0 2 0;
#X connect 1 0 9 1;
#X connect 2 0 4 0;
#X connect 2 1 1 0;
#X connect 4 0 8 0;
#X connect 6 0 4 0;
#X connect 7 0 6 0;
#X connect 8 0 7 0;
#X connect 8 1 9 0;
#X connect 8 2 1 0;
#X connect 9 0 10 0;
#X connect 11 0 5 0;
#X connect 12 0 1 1;
#X connect 13 0 6 0;
#X coords 0 -1 1 1 224 28 2 100 100;
#X restore 11 593 pd ns_message;
#X obj 11 630 nn.rand_array;
#N canvas 4 70 1712 1332 ns_message 0;
#X obj 328 5 bng 23 250 50 0 empty \$0_init empty 0 -12 0 16 #fcfcfc #000000 #000000;
#X obj 437 311 f;
#X obj 328 38 t b b, f 14;
#X obj 101 101 cnv 23 222 26 empty empty empty 20 12 0 16 #a6e3a1 #000000 0;
#X symbolatom 102 103 18 0 0 0 - - - 0;
#X obj 251 103 nbx 4 22 -1e+37 1e+37 0 0 empty empty empty 0 -12 0 16 #cba6f7 #000000 #000000 0 256;
#X msg 10 224 symbol lvl_2_b4;
#X msg 10 188 set symbol \$1;
#X obj 102 145 t s s b, f 13;
#X obj 416 345 d_0;
#X obj 416 378 outlet;
#X obj 251 69 r \$0_ns;
#X obj 458 277 r \$0_ns;
#X obj 126 222 loadbang;
#X connect 0 0 2 0;
#X connect 1 0 9 1;
#X connect 2 0 4 0;
#X connect 2 1 1 0;
#X connect 4 0 8 0;
#X connect 6 0 4 0;
#X connect 7 0 6 0;
#X connect 8 0 7 0;
#X connect 8 1 9 0;
#X connect 8 2 1 0;
#X connect 9 0 10 0;
#X connect 11 0 5 0;
#X connect 12 0 1 1;
#X connect 13 0 6 0;
#X coords 0 -1 1 1 224 28 2 100 100;
#X restore 247 593 pd ns_message;
#X obj 247 630 nn.rand_array;
#N canvas 4 70 1712 1332 ns_message 0;
#X obj 328 5 bng 23 250 50 0 empty \$0_init empty 0 -12 0 16 #fcfcfc #000000 #000000;
#X obj 437 311 f;
#X obj 328 38 t b b, f 14;
#X obj 101 101 cnv 23 222 26 empty empty empty 20 12 0 16 #a6e3a1 #000000 0;
#X symbolatom 102 103 18 0 0 0 - - - 0;
#X obj 251 103 nbx 4 22 -1e+37 1e+37 0 0 empty empty empty 0 -12 0 16 #cba6f7 #000000 #000000 0 256;
#X msg 10 224 symbol lvl_3_W1;
#X msg 10 188 set symbol \$1;
#X obj 102 145 t s s b, f 13;
#X obj 416 345 d_0;
#X obj 416 378 outlet;
#X obj 251 69 r \$0_ns;
#X obj 458 277 r \$0_ns;
#X obj 126 222 loadbang;
#X connect 0 0 2 0;
#X connect 1 0 9 1;
#X connect 2 0 4 0;
#X connect 2 1 1 0;
#X connect 4 0 8 0;
#X connect 6 0 4 0;
#X connect 7 0 6 0;
#X connect 8 0 7 0;
#X connect 8 1 9 0;
#X connect 8 2 1 0;
#X connect 9 0 10 0;
#X connect 11 0 5 0;
#X connect 12 0 1 1;
#X connect 13 0 6 0;
#X coords 0 -1 1 1 224 28 2 100 100;
#X restore 11 663 pd ns_message;
#X obj 11 700 nn.rand_array;
#N canvas 4 70 1712 1332 ns_message 0;
#X obj 328 5 bng 23 250 50 0 empty \$0_init empty 0 -12 0 16 #fcfcfc #000000 #000000;
#X obj 437 311 f;
#X obj 328 38 t b b, f 14;
#X obj 101 101 cnv 23 222 26 empty empty empty 20 12 0 16 #a6e3a1 #000000 0;
#X symbolatom 102 103 18 0 0 0 - - - 0;
#X obj 251 103 nbx 4 22 -1e+37 1e+37 0 0 empty empty empty 0 -12 0 16 #cba6f7 #000000 #000000 0 256;
#X msg 10 224 symbol lvl_3_b1;
#X msg 10 188 set symbol \$1;
#X obj 102 145 t s s b, f 13;
#X obj 416 345 d_0;
#X obj 416 378 outlet;
#X obj 251 69 r \$0_ns;
#X obj 458 277 r \$0_ns;
#X obj 126 222 loadbang;
#X connect 0 0 2 0;
#X connect 1 0 9 1;
#X connect 2 0 4 0;
#X connect 2 1 1 0;
#X connect 4 0 8 0;
#X connect 6 0 4 0;
#X connect 7 0 6 0;
#X connect 8 0 7 0;
#X connect 8 1 9 0;
#X connect 8 2 1 0;
#X connect 9 0 10 0;
#X connect 11 0 5 0;
#X connect 12 0 1 1;
#X connect 13 0 6 0;
#X coords 0 -1 1 1 224 28 2 100 100;
#X restore 247 663 pd ns_message;
#X obj 247 700 nn.rand_array;
#N canvas 768 818 450 300 iterator_128 0;
#X obj 25 25 r \$0_bin_bang;
#X obj 25 73 f;
#X obj 71 71 + 1;
#X obj 25 172 outlet;
#X obj 25 125 mod 128;
#X connect 0 0 1 0;
#X connect 1 0 2 0;
#X connect 1 0 4 0;
#X connect 2 0 1 1;
#X connect 4 0 3 0;
#X restore 224 39 pd iterator_128;
#X obj 224 67 s \$0_m;
#X obj 225 100 r \$0_m;
#X obj 225 128 mod 128;
#X obj 225 156 sel 0;
#X obj 225 185 s \$0_m_0;
#X obj 12 137 r \$0_init;
#X msg 101 137 0.001;
#X obj 101 167 s \$0_alpha;
#X obj 9 741 tgl 23 0 empty empty empty 0 -12 0 16 #a6e3a1 #313244 #000000 0 1;
#X obj 222 741 bng 23 250 50 0 empty empty empty 0 -12 0 16 #89b4fa #f9e2af #000000;
#X obj 495 33 cnv 23 1200 90 empty empty input\ layer 6 12 0 16 #f5e0dc #4c4f69 0;
#N canvas 4 70 1712 1332 ns_message 0;
#X obj 328 5 bng 23 250 50 0 empty \$0_init empty 0 -12 0 16 #fcfcfc #000000 #000000;
#X obj 437 311 f;
#X obj 328 38 t b b, f 14;
#X obj 101 101 cnv 23 222 26 empty empty empty 20 12 0 16 #a6e3a1 #000000 0;
#X symbolatom 102 103 18 0 0 0 - - - 0;
#X obj 251 103 nbx 4 22 -1e+37 1e+37 0 0 empty empty empty 0 -12 0 16 #cba6f7 #000000 #000000 0 256;
#X msg 10 224 symbol X_sig;
#X msg 10 188 set symbol \$1;
#X obj 102 145 t s s b, f 13;
#X obj 416 345 d_0;
#X obj 416 378 outlet;
#X obj 251 69 r \$0_ns;
#X obj 458 277 r \$0_ns;
#X obj 126 222 loadbang;
#X connect 0 0 2 0;
#X connect 1 0 9 1;
#X connect 2 0 4 0;
#X connect 2 1 1 0;
#X connect 4 0 8 0;
#X connect 6 0 4 0;
#X connect 7 0 6 0;
#X connect 8 0 7 0;
#X connect 8 1 9 0;
#X connect 8 2 1 0;
#X connect 9 0 10 0;
#X connect 11 0 5 0;
#X connect 12 0 1 1;
#X connect 13 0 6 0;
#X coords 0 -1 1 1 224 28 2 100 100;
#X restore 503 60 pd ns_message;
#N canvas 4 70 1712 1332 ns_message 0;
#X obj 328 5 bng 23 250 50 0 empty \$0_init empty 0 -12 0 16 #fcfcfc #000000 #000000;
#X obj 437 311 f;
#X obj 328 38 t b b, f 14;
#X obj 101 101 cnv 23 222 26 empty empty empty 20 12 0 16 #a6e3a1 #000000 0;
#X symbolatom 102 103 18 0 0 0 - - - 0;
#X obj 251 103 nbx 4 22 -1e+37 1e+37 0 0 empty empty empty 0 -12 0 16 #cba6f7 #000000 #000000 0 256;
#X msg 10 224 symbol X_samp;
#X msg 10 188 set symbol \$1;
#X obj 102 145 t s s b, f 13;
#X obj 416 345 d_0;
#X obj 416 378 outlet;
#X obj 251 69 r \$0_ns;
#X obj 458 277 r \$0_ns;
#X obj 126 222 loadbang;
#X connect 0 0 2 0;
#X connect 1 0 9 1;
#X connect 2 0 4 0;
#X connect 2 1 1 0;
#X connect 4 0 8 0;
#X connect 6 0 4 0;
#X connect 7 0 6 0;
#X connect 8 0 7 0;
#X connect 8 1 9 0;
#X connect 8 2 1 0;
#X connect 9 0 10 0;
#X connect 11 0 5 0;
#X connect 12 0 1 1;
#X connect 13 0 6 0;
#X coords 0 -1 1 1 224 28 2 100 100;
#X restore 748 60 pd ns_message;
#X obj 495 124 cnv 23 1200 400 empty empty layer\ 1 6 12 0 16 #f2cdcd #4c4f69 0;
#X obj 503 328 nn.unit_2 tanh, f 62;
#X obj 1020 329 nn.unit_2 tanh, f 67;
#X obj 503 160 r \$0_m;
#X obj 503 188 t f f, f 65;
#N canvas 4 70 1712 1332 ns_message 0;
#X obj 328 5 bng 23 250 50 0 empty \$0_init empty 0 -12 0 16 #fcfcfc #000000 #000000;
#X obj 437 311 f;
#X obj 328 38 t b b, f 14;
#X obj 101 101 cnv 23 222 26 empty empty empty 20 12 0 16 #a6e3a1 #000000 0;
#X symbolatom 102 103 18 0 0 0 - - - 0;
#X obj 251 103 nbx 4 22 -1e+37 1e+37 0 0 empty empty empty 0 -12 0 16 #cba6f7 #000000 #000000 0 256;
#X msg 10 224 symbol lvl_1_W1;
#X msg 10 188 set symbol \$1;
#X obj 102 145 t s s b, f 13;
#X obj 416 345 d_0;
#X obj 416 378 outlet;
#X obj 251 69 r \$0_ns;
#X obj 458 277 r \$0_ns;
#X obj 126 222 loadbang;
#X connect 0 0 2 0;
#X connect 1 0 9 1;
#X connect 2 0 4 0;
#X connect 2 1 1 0;
#X connect 4 0 8 0;
#X connect 6 0 4 0;
#X connect 7 0 6 0;
#X connect 8 0 7 0;
#X connect 8 1 9 0;
#X connect 8 2 1 0;
#X connect 9 0 10 0;
#X connect 11 0 5 0;
#X connect 12 0 1 1;
#X connect 13 0 6 0;
#X coords 0 -1 1 1 224 28 2 100 100;
#X restore 546 227 pd ns_message;
#X obj 546 264 t s s, f 44;
#N canvas 4 70 1712 1332 ns_message 0;
#X obj 328 5 bng 23 250 50 0 empty \$0_init empty 0 -12 0 16 #fcfcfc #000000 #000000;
#X obj 437 311 f;
#X obj 328 38 t b b, f 14;
#X obj 101 101 cnv 23 222 26 empty empty empty 20 12 0 16 #a6e3a1 #000000 0;
#X symbolatom 102 103 18 0 0 0 - - - 0;
#X obj 251 103 nbx 4 22 -1e+37 1e+37 0 0 empty empty empty 0 -12 0 16 #cba6f7 #000000 #000000 0 256;
#X msg 10 224 symbol lvl_1_b1;
#X msg 10 188 set symbol \$1;
#X obj 102 145 t s s b, f 13;
#X obj 416 345 d_0;
#X obj 416 378 outlet;
#X obj 251 69 r \$0_ns;
#X obj 458 277 r \$0_ns;
#X obj 126 222 loadbang;
#X connect 0 0 2 0;
#X connect 1 0 9 1;
#X connect 2 0 4 0;
#X connect 2 1 1 0;
#X connect 4 0 8 0;
#X connect 6 0 4 0;
#X connect 7 0 6 0;
#X connect 8 0 7 0;
#X connect 8 1 9 0;
#X connect 8 2 1 0;
#X connect 9 0 10 0;
#X connect 11 0 5 0;
#X connect 12 0 1 1;
#X connect 13 0 6 0;
#X coords 0 -1 1 1 224 28 2 100 100;
#X restore 786 227 pd ns_message;
#X obj 503 93 t s s;
#X obj 748 93 t s s;
#N canvas 4 70 1712 1332 ns_message 0;
#X obj 328 5 bng 23 250 50 0 empty \$0_init empty 0 -12 0 16 #fcfcfc #000000 #000000;
#X obj 437 311 f;
#X obj 328 38 t b b, f 14;
#X obj 101 101 cnv 23 222 26 empty empty empty 20 12 0 16 #a6e3a1 #000000 0;
#X symbolatom 102 103 18 0 0 0 - - - 0;
#X obj 251 103 nbx 4 22 -1e+37 1e+37 0 0 empty empty empty 0 -12 0 16 #cba6f7 #000000 #000000 0 256;
#X msg 10 224 symbol lvl_2_W2;
#X msg 10 188 set symbol \$1;
#X obj 102 145 t s s b, f 13;
#X obj 416 345 d_0;
#X obj 416 378 outlet;
#X obj 251 69 r \$0_ns;
#X obj 458 277 r \$0_ns;
#X obj 126 222 loadbang;
#X connect 0 0 2 0;
#X connect 1 0 9 1;
#X connect 2 0 4 0;
#X connect 2 1 1 0;
#X connect 4 0 8 0;
#X connect 6 0 4 0;
#X connect 7 0 6 0;
#X connect 8 0 7 0;
#X connect 8 1 9 0;
#X connect 8 2 1 0;
#X connect 9 0 10 0;
#X connect 11 0 5 0;
#X connect 12 0 1 1;
#X connect 13 0 6 0;
#X coords 0 -1 1 1 224 28 2 100 100;
#X restore 1042 227 pd ns_message;
#X obj 1042 264 t s s, f 9;
#N canvas 4 70 1712 1332 ns_message 0;
#X obj 328 5 bng 23 250 50 0 empty \$0_init empty 0 -12 0 16 #fcfcfc #000000 #000000;
#X obj 437 311 f;
#X obj 328 38 t b b, f 14;
#X obj 101 101 cnv 23 222 26 empty empty empty 20 12 0 16 #a6e3a1 #000000 0;
#X symbolatom 102 103 18 0 0 0 - - - 0;
#X obj 251 103 nbx 4 22 -1e+37 1e+37 0 0 empty empty empty 0 -12 0 16 #cba6f7 #000000 #000000 0 256;
#X msg 10 224 symbol lvl_2_b2;
#X msg 10 188 set symbol \$1;
#X obj 102 145 t s s b, f 13;
#X obj 416 345 d_0;
#X obj 416 378 outlet;
#X obj 251 69 r \$0_ns;
#X obj 458 277 r \$0_ns;
#X obj 126 222 loadbang;
#X connect 0 0 2 0;
#X connect 1 0 9 1;
#X connect 2 0 4 0;
#X connect 2 1 1 0;
#X connect 4 0 8 0;
#X connect 6 0 4 0;
#X connect 7 0 6 0;
#X connect 8 0 7 0;
#X connect 8 1 9 0;
#X connect 8 2 1 0;
#X connect 9 0 10 0;
#X connect 11 0 5 0;
#X connect 12 0 1 1;
#X connect 13 0 6 0;
#X coords 0 -1 1 1 224 28 2 100 100;
#X restore 1282 227 pd ns_message;
#X floatatom 558 832 5 0 0 0 - - - 0;
#X floatatom 1074 377 5 0 0 0 - - - 0;
#N canvas 1794 219 1110 1012 write_data 0;
#X obj 101 102 cnv 23 218 486 empty empty empty 20 12 0 16 #89dceb #404040 0;
#N canvas 0 50 450 250 (subpatch) 0;
#X array \$0_X_sig 128 float 2;
#X coords 0 1 128 -1 200 140 1;
#X restore 109 281 graph;
#N canvas 0 50 450 250 (subpatch) 0;
#X array \$0_Y 128 float 2;
#X coords 0 1 128 -1 200 140 1 0 0;
#X restore 109 441 graph;
#X obj 361 28 inlet toggle;
#N canvas 0 50 450 250 (subpatch) 0;
#X array \$0_lvl_3_A1 128 float 2;
#X coords 0 1 128 -1 200 140 1;
#X restore 109 122 graph;
#X obj 584 143 * 344.531;
#X floatatom 584 171 5 0 0 0 - - - 0;
#X obj 495 270 osc~;
#X obj 584 198 t f f;
#X obj 672 270 osc~;
#X obj 821 28 inlet bang;
#X obj 821 56 t b b b b;
#X msg 725 269 0;
#X msg 542 270 0;
#X obj 495 438 tabwrite~ \$0_Y;
#X obj 672 437 tabwrite~ \$0_X_sig;
#X obj 361 56 metro 100;
#X obj 361 84 t b b, f 16;
#X obj 584 111 nbx 5 21 -1e+37 1e+37 0 1 empty empty empty 0 -12 0 16 #fcfcfc #000000 #000000 1 256;
#X connect 3 0 16 0;
#X connect 5 0 6 0;
#X connect 6 0 8 0;
#X connect 7 0 14 0;
#X connect 8 0 7 0;
#X connect 8 1 9 0;
#X connect 9 0 15 0;
#X connect 10 0 11 0;
#X connect 11 0 14 0;
#X connect 11 1 15 0;
#X connect 11 2 13 0;
#X connect 11 3 12 0;
#X connect 12 0 9 1;
#X connect 13 0 7 1;
#X connect 16 0 17 0;
#X connect 17 0 14 0;
#X connect 17 1 15 0;
#X connect 18 0 5 0;
#X coords 0 -1 1 1 220 490 2 100 100;
#X restore 9 778 pd write_data;
#X connect 1 0 6 0;
#X connect 2 0 3 0;
#X connect 4 0 3 1;
#X connect 5 0 4 0;
#X connect 9 0 10 0;
#X connect 12 0 13 0;
#X connect 14 0 15 0;
#X connect 16 0 17 0;
#X connect 18 0 19 0;
#X connect 20 0 21 0;
#X connect 22 0 23 0;
#X connect 24 0 25 0;
#X connect 26 0 27 0;
#X connect 28 0 29 0;
#X connect 30 0 31 0;
#X connect 32 0 33 0;
#X connect 34 0 35 0;
#X connect 36 0 37 0;
#X connect 38 0 39 0;
#X connect 40 0 41 0;
#X connect 41 0 42 0;
#X connect 42 0 43 0;
#X connect 44 0 45 0;
#X connect 45 0 46 0;
#X connect 47 0 67 0;
#X connect 48 0 67 1;
#X connect 50 0 60 0;
#X connect 51 0 61 0;
#X connect 53 1 65 0;
#X connect 54 1 66 0;
#X connect 55 0 56 0;
#X connect 56 0 53 0;
#X connect 56 1 54 0;
#X connect 57 0 58 0;
#X connect 58 0 53 2;
#X connect 58 1 53 4;
#X connect 59 0 53 5;
#X connect 60 0 53 1;
#X connect 60 1 54 1;
#X connect 61 0 53 3;
#X connect 61 1 54 3;
#X connect 62 0 63 0;
#X connect 63 0 54 2;
#X connect 63 1 54 4;
#X connect 64 0 54 5;
