#N canvas 0 66 3440 1340 16;
#X obj 1 -1 cnv 23 425 1320 empty empty empty 4 12 0 16 #f9e2af #4c4f69 0;
#X obj 8 36 bng 40 250 50 0 empty empty init 0 -12 0 16 #89b4fa #f9e2af #4c4f69;
#X obj 79 37 tgl 40 0 empty empty run 0 -12 0 16 #a6e3a1 #313244 #5c5f77 0 1;
#N canvas 174 521 450 300 bin_bang 0;
#X obj 21 17 inlet start_stop;
#X obj 21 115 metro;
#X obj 21 143 s \$0_bin_bang;
#X obj 163 17 inlet tempo;
#X msg 163 50 tempo \$1 samp;
#X connect 0 0 1 0;
#X connect 1 0 2 0;
#X connect 3 0 4 0;
#X connect 4 0 1 0;
#X restore 79 86 pd bin_bang;
#X msg 137 54 64;
#X obj 137 21 r \$0_init;
#N canvas 158 715 337 212 init 0;
#X obj 26 21 inlet init;
#X obj 26 49 t b b;
#X obj 26 127 s \$0_init;
#X obj 112 127 f \$0;
#X obj 112 155 s \$0_ns;
#X obj 230 21 loadbang;
#X obj 230 49 s \$0_lb;
#X connect 0 0 1 0;
#X connect 1 0 2 0;
#X connect 1 1 3 0;
#X connect 3 0 4 0;
#X connect 5 0 6 0;
#X restore 8 86 pd init;
#X obj 220 49 s \$0_m;
#X obj 221 82 r \$0_m;
#X obj 221 138 sel 0;
#X obj 8 119 r \$0_init;
#X obj 100 174 s \$0_alpha;
#X obj 221 167 s \$0_m_0;
#X obj 431 -1 cnv 23 540 140 empty empty input\ layer 4 12 0 16 #f5e0dc #4c4f69 0;
#X obj 436 29 r \$0_m;
#X obj 436 97 nn.input;
#N canvas 1442 595 517 458 ns_message 0;
#X obj 282 16 bng 23 250 50 0 empty \$0_init empty 0 -12 0 16 #fcfcfc #000000 #000000;
#X obj 327 294 f;
#X obj 282 44 t b b, f 6;
#X obj 101 151 cnv 23 178 26 empty empty empty 20 12 0 16 #a6e3a1 #000000 0;
#X symbolatom 101 153 22 0 0 0 - - - 0;
#X msg 55 314 symbol X;
#X msg 101 258 set symbol \$1;
#X obj 101 187 t s s b, f 13;
#X obj 306 328 d_0;
#X obj 306 361 outlet;
#X obj 55 16 loadbang;
#X obj 55 44 f \$0;
#X obj 55 112 t b f, f 37;
#X obj 145 15 inlet;
#X connect 0 0 2 0;
#X connect 1 0 8 1;
#X connect 2 0 4 0;
#X connect 2 1 1 0;
#X connect 4 0 7 0;
#X connect 5 0 4 0;
#X connect 6 0 5 0;
#X connect 7 0 6 0;
#X connect 7 1 8 0;
#X connect 7 2 1 0;
#X connect 8 0 9 0;
#X connect 10 0 11 0;
#X connect 11 0 12 0;
#X connect 12 0 5 0;
#X connect 12 1 1 1;
#X connect 13 0 4 0;
#X coords 0 -1 1 1 180 28 2 100 150;
#X restore 497 57 pd ns_message;
#X obj 431 361 cnv 23 540 220 empty empty layer\ l 4 12 0 16 #f2cdcd #4c4f69 0;
#N canvas 862 183 923 743 arrays 0;
#X obj 21 69 array define \$0_z_l1 16;
#X obj 21 119 array define \$0_w_l1 1;
#X obj 21 149 array define \$0_b_l1 1;
#X obj 300 39 array define \$0_da_l1 16;
#X obj 300 69 array define \$0_dz_l1 16;
#X obj 300 119 array define \$0_dw_l1 1;
#X obj 300 149 array define \$0_db_l1 1;
#X text 28 37 // a_l1 is Y_hat;
#X obj 22 191 array define \$0_a_l-1_1 16;
#X obj 300 189 array define \$0_da_l-1_1 16;
#X obj 21 219 array define \$0_z_l-1_1 16;
#X obj 300 219 array define \$0_dz_l-1_1 16;
#X obj 21 269 array define \$0_w_l-1_1 1;
#X obj 300 269 array define \$0_dw_l-1_1 1;
#X obj 21 299 array define \$0_b_l-1_1 1;
#X obj 300 299 array define \$0_db_l-1_1 1;
#X obj 15 391 array define \$0_X_source 16;
#X restore 12 218 pd arrays;
#N canvas 1442 595 517 458 ns_message 0;
#X obj 282 16 bng 23 250 50 0 empty \$0_init empty 0 -12 0 16 #fcfcfc #000000 #000000;
#X obj 327 294 f;
#X obj 282 44 t b b, f 6;
#X obj 101 151 cnv 23 178 26 empty empty empty 20 12 0 16 #a6e3a1 #000000 0;
#X symbolatom 101 153 22 0 0 0 - - - 0;
#X msg 55 314 symbol w_l1;
#X msg 101 258 set symbol \$1;
#X obj 101 187 t s s b, f 13;
#X obj 306 328 d_0;
#X obj 306 361 outlet;
#X obj 55 16 loadbang;
#X obj 55 44 f \$0;
#X obj 55 112 t b f, f 37;
#X obj 145 15 inlet;
#X connect 0 0 2 0;
#X connect 1 0 8 1;
#X connect 2 0 4 0;
#X connect 2 1 1 0;
#X connect 4 0 7 0;
#X connect 5 0 4 0;
#X connect 6 0 5 0;
#X connect 7 0 6 0;
#X connect 7 1 8 0;
#X connect 7 2 1 0;
#X connect 8 0 9 0;
#X connect 10 0 11 0;
#X connect 11 0 12 0;
#X connect 12 0 5 0;
#X connect 12 1 1 1;
#X connect 13 0 4 0;
#X coords 0 -1 1 1 180 28 2 100 150;
#X restore 559 380 pd ns_message;
#N canvas 1442 595 517 458 ns_message 0;
#X obj 282 16 bng 23 250 50 0 empty \$0_init empty 0 -12 0 16 #fcfcfc #000000 #000000;
#X obj 327 294 f;
#X obj 282 44 t b b, f 6;
#X obj 101 151 cnv 23 178 26 empty empty empty 20 12 0 16 #a6e3a1 #000000 0;
#X symbolatom 101 153 22 0 0 0 - - - 0;
#X msg 55 314 symbol b_l1;
#X msg 101 258 set symbol \$1;
#X obj 101 187 t s s b, f 13;
#X obj 306 328 d_0;
#X obj 306 361 outlet;
#X obj 55 16 loadbang;
#X obj 55 44 f \$0;
#X obj 55 112 t b f, f 37;
#X obj 145 15 inlet;
#X connect 0 0 2 0;
#X connect 1 0 8 1;
#X connect 2 0 4 0;
#X connect 2 1 1 0;
#X connect 4 0 7 0;
#X connect 5 0 4 0;
#X connect 6 0 5 0;
#X connect 7 0 6 0;
#X connect 7 1 8 0;
#X connect 7 2 1 0;
#X connect 8 0 9 0;
#X connect 10 0 11 0;
#X connect 11 0 12 0;
#X connect 12 0 5 0;
#X connect 12 1 1 1;
#X connect 13 0 4 0;
#X coords 0 -1 1 1 180 28 2 100 150;
#X restore 621 417 pd ns_message;
#N canvas 1442 595 517 458 ns_message 0;
#X obj 282 16 bng 23 250 50 0 empty \$0_init empty 0 -12 0 16 #fcfcfc #000000 #000000;
#X obj 327 294 f;
#X obj 282 44 t b b, f 6;
#X obj 101 151 cnv 23 178 26 empty empty empty 20 12 0 16 #a6e3a1 #000000 0;
#X symbolatom 101 153 22 0 0 0 - - - 0;
#X msg 55 314 symbol Y_hat;
#X msg 101 258 set symbol \$1;
#X obj 101 187 t s s b, f 13;
#X obj 306 328 d_0;
#X obj 306 361 outlet;
#X obj 55 16 loadbang;
#X obj 55 44 f \$0;
#X obj 55 112 t b f, f 37;
#X obj 145 15 inlet;
#X connect 0 0 2 0;
#X connect 1 0 8 1;
#X connect 2 0 4 0;
#X connect 2 1 1 0;
#X connect 4 0 7 0;
#X connect 5 0 4 0;
#X connect 6 0 5 0;
#X connect 7 0 6 0;
#X connect 7 1 8 0;
#X connect 7 2 1 0;
#X connect 8 0 9 0;
#X connect 10 0 11 0;
#X connect 11 0 12 0;
#X connect 12 0 5 0;
#X connect 12 1 1 1;
#X connect 13 0 4 0;
#X coords 0 -1 1 1 180 28 2 100 150;
#X restore 683 455 pd ns_message;
#N canvas 1442 595 517 458 ns_message 0;
#X obj 282 16 bng 23 250 50 0 empty \$0_init empty 0 -12 0 16 #fcfcfc #000000 #000000;
#X obj 327 294 f;
#X obj 282 44 t b b, f 6;
#X obj 101 151 cnv 23 178 26 empty empty empty 20 12 0 16 #a6e3a1 #000000 0;
#X symbolatom 101 153 22 0 0 0 - - - 0;
#X msg 55 314 symbol z_l1;
#X msg 101 258 set symbol \$1;
#X obj 101 187 t s s b, f 13;
#X obj 306 328 d_0;
#X obj 306 361 outlet;
#X obj 55 16 loadbang;
#X obj 55 44 f \$0;
#X obj 55 112 t b f, f 37;
#X obj 145 15 inlet;
#X connect 0 0 2 0;
#X connect 1 0 8 1;
#X connect 2 0 4 0;
#X connect 2 1 1 0;
#X connect 4 0 7 0;
#X connect 5 0 4 0;
#X connect 6 0 5 0;
#X connect 7 0 6 0;
#X connect 7 1 8 0;
#X connect 7 2 1 0;
#X connect 8 0 9 0;
#X connect 10 0 11 0;
#X connect 11 0 12 0;
#X connect 12 0 5 0;
#X connect 12 1 1 1;
#X connect 13 0 4 0;
#X coords 0 -1 1 1 180 28 2 100 150;
#X restore 745 495 pd ns_message;
#X obj 436 536 nn.unit_1 linear, f 39;
#X obj 11 300 nn.rand_array;
#N canvas 1442 595 517 458 ns_message 0;
#X obj 282 16 bng 23 250 50 0 empty \$0_init empty 0 -12 0 16 #fcfcfc #000000 #000000;
#X obj 327 294 f;
#X obj 282 44 t b b, f 6;
#X obj 101 151 cnv 23 178 26 empty empty empty 20 12 0 16 #a6e3a1 #000000 0;
#X symbolatom 101 153 22 0 0 0 - - - 0;
#X msg 55 314 symbol w_l1;
#X msg 101 258 set symbol \$1;
#X obj 101 187 t s s b, f 13;
#X obj 306 328 d_0;
#X obj 306 361 outlet;
#X obj 55 16 loadbang;
#X obj 55 44 f \$0;
#X obj 55 112 t b f, f 37;
#X obj 145 15 inlet;
#X connect 0 0 2 0;
#X connect 1 0 8 1;
#X connect 2 0 4 0;
#X connect 2 1 1 0;
#X connect 4 0 7 0;
#X connect 5 0 4 0;
#X connect 6 0 5 0;
#X connect 7 0 6 0;
#X connect 7 1 8 0;
#X connect 7 2 1 0;
#X connect 8 0 9 0;
#X connect 10 0 11 0;
#X connect 11 0 12 0;
#X connect 12 0 5 0;
#X connect 12 1 1 1;
#X connect 13 0 4 0;
#X coords 0 -1 1 1 180 28 2 100 150;
#X restore 11 259 pd ns_message;
#X obj 211 300 nn.rand_array;
#N canvas 1442 595 517 458 ns_message 0;
#X obj 282 16 bng 23 250 50 0 empty \$0_init empty 0 -12 0 16 #fcfcfc #000000 #000000;
#X obj 327 294 f;
#X obj 282 44 t b b, f 6;
#X obj 101 151 cnv 23 178 26 empty empty empty 20 12 0 16 #a6e3a1 #000000 0;
#X symbolatom 101 153 22 0 0 0 - - - 0;
#X msg 55 314 symbol b_l1;
#X msg 101 258 set symbol \$1;
#X obj 101 187 t s s b, f 13;
#X obj 306 328 d_0;
#X obj 306 361 outlet;
#X obj 55 16 loadbang;
#X obj 55 44 f \$0;
#X obj 55 112 t b f, f 37;
#X obj 145 15 inlet;
#X connect 0 0 2 0;
#X connect 1 0 8 1;
#X connect 2 0 4 0;
#X connect 2 1 1 0;
#X connect 4 0 7 0;
#X connect 5 0 4 0;
#X connect 6 0 5 0;
#X connect 7 0 6 0;
#X connect 7 1 8 0;
#X connect 7 2 1 0;
#X connect 8 0 9 0;
#X connect 10 0 11 0;
#X connect 11 0 12 0;
#X connect 12 0 5 0;
#X connect 12 1 1 1;
#X connect 13 0 4 0;
#X coords 0 -1 1 1 180 28 2 100 150;
#X restore 211 259 pd ns_message;
#X obj 223 109 mod 16;
#N canvas 776 890 450 300 iterator_16 0;
#X obj 25 25 r \$0_bin_bang;
#X obj 25 73 f;
#X obj 71 71 + 1;
#X obj 25 172 outlet;
#X obj 25 125 mod 16;
#X connect 0 0 1 0;
#X connect 1 0 2 0;
#X connect 1 0 4 0;
#X connect 2 0 1 1;
#X connect 4 0 3 0;
#X restore 220 21 pd iterator_16;
#X obj 976 1 cnv 23 540 860 empty empty backprop\ layer\ l 4 12 0 16 #f38ba8 #4c4f69 0;
#X text 980 31 // MSE Loss: L = 1/2(A - Y)^2 \; dL/dA = (A - Y) \; g'(Z) = 1 \; Therefore: dZ = dA x g'(Z) = (A - Y) x 1 = (A - Y);
#X obj 981 286 nn.dZ_outer_mse, f 39;
#N canvas 1442 595 517 458 ns_message 0;
#X obj 282 16 bng 23 250 50 0 empty \$0_init empty 0 -12 0 16 #fcfcfc #000000 #000000;
#X obj 327 294 f;
#X obj 282 44 t b b, f 6;
#X obj 101 151 cnv 23 178 26 empty empty empty 20 12 0 16 #a6e3a1 #000000 0;
#X symbolatom 101 153 22 0 0 0 - - - 0;
#X msg 55 314 symbol dz_l1;
#X msg 101 258 set symbol \$1;
#X obj 101 187 t s s b, f 13;
#X obj 306 328 d_0;
#X obj 306 361 outlet;
#X obj 55 16 loadbang;
#X obj 55 44 f \$0;
#X obj 55 112 t b f, f 37;
#X obj 145 15 inlet;
#X connect 0 0 2 0;
#X connect 1 0 8 1;
#X connect 2 0 4 0;
#X connect 2 1 1 0;
#X connect 4 0 7 0;
#X connect 5 0 4 0;
#X connect 6 0 5 0;
#X connect 7 0 6 0;
#X connect 7 1 8 0;
#X connect 7 2 1 0;
#X connect 8 0 9 0;
#X connect 10 0 11 0;
#X connect 11 0 12 0;
#X connect 12 0 5 0;
#X connect 12 1 1 1;
#X connect 13 0 4 0;
#X coords 0 -1 1 1 180 28 2 100 150;
#X restore 1290 245 pd ns_message;
#N canvas 1442 595 517 458 ns_message 0;
#X obj 282 16 bng 23 250 50 0 empty \$0_init empty 0 -12 0 16 #fcfcfc #000000 #000000;
#X obj 327 294 f;
#X obj 282 44 t b b, f 6;
#X obj 101 151 cnv 23 178 26 empty empty empty 20 12 0 16 #a6e3a1 #000000 0;
#X symbolatom 101 153 22 0 0 0 - - - 0;
#X msg 55 314 symbol Y;
#X msg 101 258 set symbol \$1;
#X obj 101 187 t s s b, f 13;
#X obj 306 328 d_0;
#X obj 306 361 outlet;
#X obj 55 16 loadbang;
#X obj 55 44 f \$0;
#X obj 55 112 t b f, f 37;
#X obj 145 15 inlet;
#X connect 0 0 2 0;
#X connect 1 0 8 1;
#X connect 2 0 4 0;
#X connect 2 1 1 0;
#X connect 4 0 7 0;
#X connect 5 0 4 0;
#X connect 6 0 5 0;
#X connect 7 0 6 0;
#X connect 7 1 8 0;
#X connect 7 2 1 0;
#X connect 8 0 9 0;
#X connect 10 0 11 0;
#X connect 11 0 12 0;
#X connect 12 0 5 0;
#X connect 12 1 1 1;
#X connect 13 0 4 0;
#X coords 0 -1 1 1 180 28 2 100 150;
#X restore 1187 206 pd ns_message;
#N canvas 1442 595 517 458 ns_message 0;
#X obj 282 16 bng 23 250 50 0 empty \$0_init empty 0 -12 0 16 #fcfcfc #000000 #000000;
#X obj 327 294 f;
#X obj 282 44 t b b, f 6;
#X obj 101 151 cnv 23 178 26 empty empty empty 20 12 0 16 #a6e3a1 #000000 0;
#X symbolatom 101 153 22 0 0 0 - - - 0;
#X msg 55 314 symbol Y_hat;
#X msg 101 258 set symbol \$1;
#X obj 101 187 t s s b, f 13;
#X obj 306 328 d_0;
#X obj 306 361 outlet;
#X obj 55 16 loadbang;
#X obj 55 44 f \$0;
#X obj 55 112 t b f, f 37;
#X obj 145 15 inlet;
#X connect 0 0 2 0;
#X connect 1 0 8 1;
#X connect 2 0 4 0;
#X connect 2 1 1 0;
#X connect 4 0 7 0;
#X connect 5 0 4 0;
#X connect 6 0 5 0;
#X connect 7 0 6 0;
#X connect 7 1 8 0;
#X connect 7 2 1 0;
#X connect 8 0 9 0;
#X connect 10 0 11 0;
#X connect 11 0 12 0;
#X connect 12 0 5 0;
#X connect 12 1 1 1;
#X connect 13 0 4 0;
#X coords 0 -1 1 1 180 28 2 100 150;
#X restore 1084 167 pd ns_message;
#X obj 981 134 r \$0_m_0;
#X obj 981 492 nn.dw 0, f 39;
#N canvas 1442 595 517 458 ns_message 0;
#X obj 282 16 bng 23 250 50 0 empty \$0_init empty 0 -12 0 16 #fcfcfc #000000 #000000;
#X obj 327 294 f;
#X obj 282 44 t b b, f 6;
#X obj 101 151 cnv 23 178 26 empty empty empty 20 12 0 16 #a6e3a1 #000000 0;
#X symbolatom 101 153 22 0 0 0 - - - 0;
#X msg 55 314 symbol dz_l1;
#X msg 101 258 set symbol \$1;
#X obj 101 187 t s s b, f 13;
#X obj 306 328 d_0;
#X obj 306 361 outlet;
#X obj 55 16 loadbang;
#X obj 55 44 f \$0;
#X obj 55 112 t b f, f 37;
#X obj 145 15 inlet;
#X connect 0 0 2 0;
#X connect 1 0 8 1;
#X connect 2 0 4 0;
#X connect 2 1 1 0;
#X connect 4 0 7 0;
#X connect 5 0 4 0;
#X connect 6 0 5 0;
#X connect 7 0 6 0;
#X connect 7 1 8 0;
#X connect 7 2 1 0;
#X connect 8 0 9 0;
#X connect 10 0 11 0;
#X connect 11 0 12 0;
#X connect 12 0 5 0;
#X connect 12 1 1 1;
#X connect 13 0 4 0;
#X coords 0 -1 1 1 180 28 2 100 150;
#X restore 1084 371 pd ns_message;
#N canvas 1442 595 517 458 ns_message 0;
#X obj 282 16 bng 23 250 50 0 empty \$0_init empty 0 -12 0 16 #fcfcfc #000000 #000000;
#X obj 327 294 f;
#X obj 282 44 t b b, f 6;
#X obj 101 151 cnv 23 178 26 empty empty empty 20 12 0 16 #a6e3a1 #000000 0;
#X symbolatom 101 153 22 0 0 0 - - - 0;
#X msg 55 314 symbol a_l-1_1;
#X msg 101 258 set symbol \$1;
#X obj 101 187 t s s b, f 13;
#X obj 306 328 d_0;
#X obj 306 361 outlet;
#X obj 55 16 loadbang;
#X obj 55 44 f \$0;
#X obj 55 112 t b f, f 37;
#X obj 145 15 inlet;
#X connect 0 0 2 0;
#X connect 1 0 8 1;
#X connect 2 0 4 0;
#X connect 2 1 1 0;
#X connect 4 0 7 0;
#X connect 5 0 4 0;
#X connect 6 0 5 0;
#X connect 7 0 6 0;
#X connect 7 1 8 0;
#X connect 7 2 1 0;
#X connect 8 0 9 0;
#X connect 10 0 11 0;
#X connect 11 0 12 0;
#X connect 12 0 5 0;
#X connect 12 1 1 1;
#X connect 13 0 4 0;
#X coords 0 -1 1 1 180 28 2 100 150;
#X restore 1187 411 pd ns_message;
#N canvas 1442 595 517 458 ns_message 0;
#X obj 282 16 bng 23 250 50 0 empty \$0_init empty 0 -12 0 16 #fcfcfc #000000 #000000;
#X obj 327 294 f;
#X obj 282 44 t b b, f 6;
#X obj 101 151 cnv 23 178 26 empty empty empty 20 12 0 16 #a6e3a1 #000000 0;
#X symbolatom 101 153 22 0 0 0 - - - 0;
#X msg 55 314 symbol dw_l1;
#X msg 101 258 set symbol \$1;
#X obj 101 187 t s s b, f 13;
#X obj 306 328 d_0;
#X obj 306 361 outlet;
#X obj 55 16 loadbang;
#X obj 55 44 f \$0;
#X obj 55 112 t b f, f 37;
#X obj 145 15 inlet;
#X connect 0 0 2 0;
#X connect 1 0 8 1;
#X connect 2 0 4 0;
#X connect 2 1 1 0;
#X connect 4 0 7 0;
#X connect 5 0 4 0;
#X connect 6 0 5 0;
#X connect 7 0 6 0;
#X connect 7 1 8 0;
#X connect 7 2 1 0;
#X connect 8 0 9 0;
#X connect 10 0 11 0;
#X connect 11 0 12 0;
#X connect 12 0 5 0;
#X connect 12 1 1 1;
#X connect 13 0 4 0;
#X coords 0 -1 1 1 180 28 2 100 150;
#X restore 1290 451 pd ns_message;
#X text 988 320 // dW^[l] = 1/m dZ^[l] . A^[l-1]T \; nn.dw calculates the derivative of one feature for one node;
#X obj 981 640 nn.db, f 39;
#X text 994 526 // db^[l] = 1/m sum(dZ^[l]);
#N canvas 1442 595 517 458 ns_message 0;
#X obj 282 16 bng 23 250 50 0 empty \$0_init empty 0 -12 0 16 #fcfcfc #000000 #000000;
#X obj 327 294 f;
#X obj 282 44 t b b, f 6;
#X obj 101 151 cnv 23 178 26 empty empty empty 20 12 0 16 #a6e3a1 #000000 0;
#X symbolatom 101 153 22 0 0 0 - - - 0;
#X msg 55 314 symbol dz_l1;
#X msg 101 258 set symbol \$1;
#X obj 101 187 t s s b, f 13;
#X obj 306 328 d_0;
#X obj 306 361 outlet;
#X obj 55 16 loadbang;
#X obj 55 44 f \$0;
#X obj 55 112 t b f, f 37;
#X obj 145 15 inlet;
#X connect 0 0 2 0;
#X connect 1 0 8 1;
#X connect 2 0 4 0;
#X connect 2 1 1 0;
#X connect 4 0 7 0;
#X connect 5 0 4 0;
#X connect 6 0 5 0;
#X connect 7 0 6 0;
#X connect 7 1 8 0;
#X connect 7 2 1 0;
#X connect 8 0 9 0;
#X connect 10 0 11 0;
#X connect 11 0 12 0;
#X connect 12 0 5 0;
#X connect 12 1 1 1;
#X connect 13 0 4 0;
#X coords 0 -1 1 1 180 28 2 100 150;
#X restore 1135 558 pd ns_message;
#N canvas 1442 595 517 458 ns_message 0;
#X obj 282 16 bng 23 250 50 0 empty \$0_init empty 0 -12 0 16 #fcfcfc #000000 #000000;
#X obj 327 294 f;
#X obj 282 44 t b b, f 6;
#X obj 101 151 cnv 23 178 26 empty empty empty 20 12 0 16 #a6e3a1 #000000 0;
#X symbolatom 101 153 22 0 0 0 - - - 0;
#X msg 55 314 symbol db_l1;
#X msg 101 258 set symbol \$1;
#X obj 101 187 t s s b, f 13;
#X obj 306 328 d_0;
#X obj 306 361 outlet;
#X obj 55 16 loadbang;
#X obj 55 44 f \$0;
#X obj 55 112 t b f, f 37;
#X obj 145 15 inlet;
#X connect 0 0 2 0;
#X connect 1 0 8 1;
#X connect 2 0 4 0;
#X connect 2 1 1 0;
#X connect 4 0 7 0;
#X connect 5 0 4 0;
#X connect 6 0 5 0;
#X connect 7 0 6 0;
#X connect 7 1 8 0;
#X connect 7 2 1 0;
#X connect 8 0 9 0;
#X connect 10 0 11 0;
#X connect 11 0 12 0;
#X connect 12 0 5 0;
#X connect 12 1 1 1;
#X connect 13 0 4 0;
#X coords 0 -1 1 1 180 28 2 100 150;
#X restore 1290 598 pd ns_message;
#X obj 1521 178 cnv 23 540 660 empty empty update 4 12 0 16 #94e2d5 #4c4f69 0;
#X obj 1528 351 nn.update_params, f 40;
#X obj 1845 318 r \$0_alpha;
#X obj 1528 210 r \$0_m_0;
#N canvas 1442 595 517 458 ns_message 0;
#X obj 282 16 bng 23 250 50 0 empty \$0_init empty 0 -12 0 16 #fcfcfc #000000 #000000;
#X obj 327 294 f;
#X obj 282 44 t b b, f 6;
#X obj 101 151 cnv 23 178 26 empty empty empty 20 12 0 16 #a6e3a1 #000000 0;
#X symbolatom 101 153 22 0 0 0 - - - 0;
#X msg 55 314 symbol w_l1;
#X msg 101 258 set symbol \$1;
#X obj 101 187 t s s b, f 13;
#X obj 306 328 d_0;
#X obj 306 361 outlet;
#X obj 55 16 loadbang;
#X obj 55 44 f \$0;
#X obj 55 112 t b f, f 37;
#X obj 145 15 inlet;
#X connect 0 0 2 0;
#X connect 1 0 8 1;
#X connect 2 0 4 0;
#X connect 2 1 1 0;
#X connect 4 0 7 0;
#X connect 5 0 4 0;
#X connect 6 0 5 0;
#X connect 7 0 6 0;
#X connect 7 1 8 0;
#X connect 7 2 1 0;
#X connect 8 0 9 0;
#X connect 10 0 11 0;
#X connect 11 0 12 0;
#X connect 12 0 5 0;
#X connect 12 1 1 1;
#X connect 13 0 4 0;
#X coords 0 -1 1 1 180 28 2 100 150;
#X restore 1633 235 pd ns_message;
#N canvas 1442 595 517 458 ns_message 0;
#X obj 282 16 bng 23 250 50 0 empty \$0_init empty 0 -12 0 16 #fcfcfc #000000 #000000;
#X obj 327 294 f;
#X obj 282 44 t b b, f 6;
#X obj 101 151 cnv 23 178 26 empty empty empty 20 12 0 16 #a6e3a1 #000000 0;
#X symbolatom 101 153 22 0 0 0 - - - 0;
#X msg 55 314 symbol dw_l1;
#X msg 101 258 set symbol \$1;
#X obj 101 187 t s s b, f 13;
#X obj 306 328 d_0;
#X obj 306 361 outlet;
#X obj 55 16 loadbang;
#X obj 55 44 f \$0;
#X obj 55 112 t b f, f 37;
#X obj 145 15 inlet;
#X connect 0 0 2 0;
#X connect 1 0 8 1;
#X connect 2 0 4 0;
#X connect 2 1 1 0;
#X connect 4 0 7 0;
#X connect 5 0 4 0;
#X connect 6 0 5 0;
#X connect 7 0 6 0;
#X connect 7 1 8 0;
#X connect 7 2 1 0;
#X connect 8 0 9 0;
#X connect 10 0 11 0;
#X connect 11 0 12 0;
#X connect 12 0 5 0;
#X connect 12 1 1 1;
#X connect 13 0 4 0;
#X coords 0 -1 1 1 180 28 2 100 150;
#X restore 1739 277 pd ns_message;
#X obj 1528 501 nn.update_params, f 40;
#X obj 1845 468 r \$0_alpha;
#N canvas 1442 595 517 458 ns_message 0;
#X obj 282 16 bng 23 250 50 0 empty \$0_init empty 0 -12 0 16 #fcfcfc #000000 #000000;
#X obj 327 294 f;
#X obj 282 44 t b b, f 6;
#X obj 101 151 cnv 23 178 26 empty empty empty 20 12 0 16 #a6e3a1 #000000 0;
#X symbolatom 101 153 22 0 0 0 - - - 0;
#X msg 55 314 symbol b_l1;
#X msg 101 258 set symbol \$1;
#X obj 101 187 t s s b, f 13;
#X obj 306 328 d_0;
#X obj 306 361 outlet;
#X obj 55 16 loadbang;
#X obj 55 44 f \$0;
#X obj 55 112 t b f, f 37;
#X obj 145 15 inlet;
#X connect 0 0 2 0;
#X connect 1 0 8 1;
#X connect 2 0 4 0;
#X connect 2 1 1 0;
#X connect 4 0 7 0;
#X connect 5 0 4 0;
#X connect 6 0 5 0;
#X connect 7 0 6 0;
#X connect 7 1 8 0;
#X connect 7 2 1 0;
#X connect 8 0 9 0;
#X connect 10 0 11 0;
#X connect 11 0 12 0;
#X connect 12 0 5 0;
#X connect 12 1 1 1;
#X connect 13 0 4 0;
#X coords 0 -1 1 1 180 28 2 100 150;
#X restore 1633 385 pd ns_message;
#N canvas 1442 595 517 458 ns_message 0;
#X obj 282 16 bng 23 250 50 0 empty \$0_init empty 0 -12 0 16 #fcfcfc #000000 #000000;
#X obj 327 294 f;
#X obj 282 44 t b b, f 6;
#X obj 101 151 cnv 23 178 26 empty empty empty 20 12 0 16 #a6e3a1 #000000 0;
#X symbolatom 101 153 22 0 0 0 - - - 0;
#X msg 55 314 symbol db_l1;
#X msg 101 258 set symbol \$1;
#X obj 101 187 t s s b, f 13;
#X obj 306 328 d_0;
#X obj 306 361 outlet;
#X obj 55 16 loadbang;
#X obj 55 44 f \$0;
#X obj 55 112 t b f, f 37;
#X obj 145 15 inlet;
#X connect 0 0 2 0;
#X connect 1 0 8 1;
#X connect 2 0 4 0;
#X connect 2 1 1 0;
#X connect 4 0 7 0;
#X connect 5 0 4 0;
#X connect 6 0 5 0;
#X connect 7 0 6 0;
#X connect 7 1 8 0;
#X connect 7 2 1 0;
#X connect 8 0 9 0;
#X connect 10 0 11 0;
#X connect 11 0 12 0;
#X connect 12 0 5 0;
#X connect 12 1 1 1;
#X connect 13 0 4 0;
#X coords 0 -1 1 1 180 28 2 100 150;
#X restore 1739 427 pd ns_message;
#X obj 431 582 cnv 23 540 735 empty empty empty 4 12 0 16 #89dceb #4c4f69 0;
#N canvas 1442 595 517 458 ns_message 0;
#X obj 282 16 bng 23 250 50 0 empty \$0_init empty 0 -12 0 16 #fcfcfc #000000 #000000;
#X obj 327 294 f;
#X obj 282 44 t b b, f 6;
#X obj 101 151 cnv 23 178 26 empty empty empty 20 12 0 16 #a6e3a1 #000000 0;
#X symbolatom 101 153 22 0 0 0 - - - 0;
#X msg 55 314 symbol dw_l1;
#X msg 101 258 set symbol \$1;
#X obj 101 187 t s s b, f 13;
#X obj 306 328 d_0;
#X obj 306 361 outlet;
#X obj 55 16 loadbang;
#X obj 55 44 f \$0;
#X obj 55 112 t b f, f 37;
#X obj 145 15 inlet;
#X connect 0 0 2 0;
#X connect 1 0 8 1;
#X connect 2 0 4 0;
#X connect 2 1 1 0;
#X connect 4 0 7 0;
#X connect 5 0 4 0;
#X connect 6 0 5 0;
#X connect 7 0 6 0;
#X connect 7 1 8 0;
#X connect 7 2 1 0;
#X connect 8 0 9 0;
#X connect 10 0 11 0;
#X connect 11 0 12 0;
#X connect 12 0 5 0;
#X connect 12 1 1 1;
#X connect 13 0 4 0;
#X coords 0 -1 1 1 180 28 2 100 150;
#X restore 473 758 pd ns_message;
#X msg 452 1151 \; \$1 const 0;
#N canvas 1442 595 517 458 ns_message 0;
#X obj 282 16 bng 23 250 50 0 empty \$0_init empty 0 -12 0 16 #fcfcfc #000000 #000000;
#X obj 327 294 f;
#X obj 282 44 t b b, f 6;
#X obj 101 151 cnv 23 178 26 empty empty empty 20 12 0 16 #a6e3a1 #000000 0;
#X symbolatom 101 153 22 0 0 0 - - - 0;
#X msg 55 314 symbol db_l1;
#X msg 101 258 set symbol \$1;
#X obj 101 187 t s s b, f 13;
#X obj 306 328 d_0;
#X obj 306 361 outlet;
#X obj 55 16 loadbang;
#X obj 55 44 f \$0;
#X obj 55 112 t b f, f 37;
#X obj 145 15 inlet;
#X connect 0 0 2 0;
#X connect 1 0 8 1;
#X connect 2 0 4 0;
#X connect 2 1 1 0;
#X connect 4 0 7 0;
#X connect 5 0 4 0;
#X connect 6 0 5 0;
#X connect 7 0 6 0;
#X connect 7 1 8 0;
#X connect 7 2 1 0;
#X connect 8 0 9 0;
#X connect 10 0 11 0;
#X connect 11 0 12 0;
#X connect 12 0 5 0;
#X connect 12 1 1 1;
#X connect 13 0 4 0;
#X coords 0 -1 1 1 180 28 2 100 150;
#X restore 493 828 pd ns_message;
#N canvas 1442 595 517 458 ns_message 0;
#X obj 282 16 bng 23 250 50 0 empty \$0_init empty 0 -12 0 16 #fcfcfc #000000 #000000;
#X obj 327 294 f;
#X obj 282 44 t b b, f 6;
#X obj 101 151 cnv 23 178 26 empty empty empty 20 12 0 16 #a6e3a1 #000000 0;
#X symbolatom 101 153 22 0 0 0 - - - 0;
#X msg 55 314 symbol da_l1;
#X msg 101 258 set symbol \$1;
#X obj 101 187 t s s b, f 13;
#X obj 306 328 d_0;
#X obj 306 361 outlet;
#X obj 55 16 loadbang;
#X obj 55 44 f \$0;
#X obj 55 112 t b f, f 37;
#X obj 145 15 inlet;
#X connect 0 0 2 0;
#X connect 1 0 8 1;
#X connect 2 0 4 0;
#X connect 2 1 1 0;
#X connect 4 0 7 0;
#X connect 5 0 4 0;
#X connect 6 0 5 0;
#X connect 7 0 6 0;
#X connect 7 1 8 0;
#X connect 7 2 1 0;
#X connect 8 0 9 0;
#X connect 10 0 11 0;
#X connect 11 0 12 0;
#X connect 12 0 5 0;
#X connect 12 1 1 1;
#X connect 13 0 4 0;
#X coords 0 -1 1 1 180 28 2 100 150;
#X restore 512 898 pd ns_message;
#N canvas 1442 595 517 458 ns_message 0;
#X obj 282 16 bng 23 250 50 0 empty \$0_init empty 0 -12 0 16 #fcfcfc #000000 #000000;
#X obj 327 294 f;
#X obj 282 44 t b b, f 6;
#X obj 101 151 cnv 23 178 26 empty empty empty 20 12 0 16 #a6e3a1 #000000 0;
#X symbolatom 101 153 22 0 0 0 - - - 0;
#X msg 55 314 symbol db_l1;
#X msg 101 258 set symbol \$1;
#X obj 101 187 t s s b, f 13;
#X obj 306 328 d_0;
#X obj 306 361 outlet;
#X obj 55 16 loadbang;
#X obj 55 44 f \$0;
#X obj 55 112 t b f, f 37;
#X obj 145 15 inlet;
#X connect 0 0 2 0;
#X connect 1 0 8 1;
#X connect 2 0 4 0;
#X connect 2 1 1 0;
#X connect 4 0 7 0;
#X connect 5 0 4 0;
#X connect 6 0 5 0;
#X connect 7 0 6 0;
#X connect 7 1 8 0;
#X connect 7 2 1 0;
#X connect 8 0 9 0;
#X connect 10 0 11 0;
#X connect 11 0 12 0;
#X connect 12 0 5 0;
#X connect 12 1 1 1;
#X connect 13 0 4 0;
#X coords 0 -1 1 1 180 28 2 100 150;
#X restore 532 968 pd ns_message;
#N canvas 1442 595 517 458 ns_message 0;
#X obj 282 16 bng 23 250 50 0 empty \$0_init empty 0 -12 0 16 #fcfcfc #000000 #000000;
#X obj 327 294 f;
#X obj 282 44 t b b, f 6;
#X obj 101 151 cnv 23 178 26 empty empty empty 20 12 0 16 #a6e3a1 #000000 0;
#X symbolatom 101 153 22 0 0 0 - - - 0;
#X msg 55 314 symbol Y_hat;
#X msg 101 258 set symbol \$1;
#X obj 101 187 t s s b, f 13;
#X obj 306 328 d_0;
#X obj 306 361 outlet;
#X obj 55 16 loadbang;
#X obj 55 44 f \$0;
#X obj 55 112 t b f, f 37;
#X obj 145 15 inlet;
#X connect 0 0 2 0;
#X connect 1 0 8 1;
#X connect 2 0 4 0;
#X connect 2 1 1 0;
#X connect 4 0 7 0;
#X connect 5 0 4 0;
#X connect 6 0 5 0;
#X connect 7 0 6 0;
#X connect 7 1 8 0;
#X connect 7 2 1 0;
#X connect 8 0 9 0;
#X connect 10 0 11 0;
#X connect 11 0 12 0;
#X connect 12 0 5 0;
#X connect 12 1 1 1;
#X connect 13 0 4 0;
#X coords 0 -1 1 1 180 28 2 100 150;
#X restore 452 619 pd ns_message;
#X obj 17 491 cnv 23 218 493 empty empty empty 20 12 0 16 #b4befe #404040 0;
#N canvas 0 50 450 250 (subpatch) 0;
#X array \$0_X 16 float 3;
#A 0 0.857142 0.714281 0.585707 0.471419 0.271414 0.0999817 -0.342886 -0.714323 -0.757181 -0.851046 -0.262084 0.999748 -0.305155 -0.826608 0.774158 0.387365;
#X coords 0 1 16 -1 200 140 1 0 0;
#X restore 26 514 graph;
#N canvas 0 50 450 250 (subpatch) 0;
#X array \$0_Y 16 float 3;
#A 0 1.04286 -0.614321 -0.628607 -0.585749 0.342854 0.28571 0.12857 0.228572 0.300002 0.400005 0.571437 0.600009 0.414291 -0.842887 -0.885745 -0.942889;
#X coords 0 1 16 -1 200 140 1 0 0;
#X restore 26 674 graph;
#N canvas 0 50 450 250 (subpatch) 0;
#X array \$0_Y_hat 16 float 3;
#A 0 -0.0546624 -0.0454365 -0.0371954 -0.029973 -0.0176927 -0.0076539 0.0155405 0.0314857 0.0331134 0.0365219 0.0116318 -0.0638636 0.0137321 0.0356527 -0.0492981 -0.0247487;
#X coords 0 1 16 -1 200 140 1 0 0;
#X restore 26 834 graph;
#X msg 328 49 2;
#X msg 328 79 4;
#X msg 330 134 8;
#X msg 329 173 16;
#X obj 452 654 spigot;
#X obj 513 653 tgl 23 0 empty empty empty 0 -12 0 16 #40a02b #000000 #000000 0 1;
#X obj 473 797 spigot;
#X obj 533 796 tgl 23 0 empty empty empty 0 -12 0 16 #40a02b #000000 #000000 0 1;
#X obj 493 867 spigot;
#X obj 553 866 tgl 23 0 empty empty empty 0 -12 0 16 #40a02b #000000 #000000 0 1;
#X obj 512 937 spigot;
#X obj 572 936 tgl 23 0 empty empty empty 0 -12 0 16 #40a02b #000000 #000000 0 1;
#X obj 532 1007 spigot;
#X obj 592 1006 tgl 23 0 empty empty empty 0 -12 0 16 #40a02b #000000 #000000 0 1;
#X msg 328 106 6;
#X obj 431 140 cnv 23 540 220 empty empty layer\ l-1 4 12 0 16 #99d1db #4c4f69 0;
#N canvas 1442 595 517 458 ns_message 0;
#X obj 282 16 bng 23 250 50 0 empty \$0_init empty 0 -12 0 16 #fcfcfc #000000 #000000;
#X obj 327 294 f;
#X obj 282 44 t b b, f 6;
#X obj 101 151 cnv 23 178 26 empty empty empty 20 12 0 16 #a6e3a1 #000000 0;
#X symbolatom 101 153 22 0 0 0 - - - 0;
#X msg 55 314 symbol w_l-1_1;
#X msg 101 258 set symbol \$1;
#X obj 101 187 t s s b, f 13;
#X obj 306 328 d_0;
#X obj 306 361 outlet;
#X obj 55 16 loadbang;
#X obj 55 44 f \$0;
#X obj 55 112 t b f, f 37;
#X obj 145 15 inlet;
#X connect 0 0 2 0;
#X connect 1 0 8 1;
#X connect 2 0 4 0;
#X connect 2 1 1 0;
#X connect 4 0 7 0;
#X connect 5 0 4 0;
#X connect 6 0 5 0;
#X connect 7 0 6 0;
#X connect 7 1 8 0;
#X connect 7 2 1 0;
#X connect 8 0 9 0;
#X connect 10 0 11 0;
#X connect 11 0 12 0;
#X connect 12 0 5 0;
#X connect 12 1 1 1;
#X connect 13 0 4 0;
#X coords 0 -1 1 1 180 28 2 100 150;
#X restore 559 159 pd ns_message;
#N canvas 1442 595 517 458 ns_message 0;
#X obj 282 16 bng 23 250 50 0 empty \$0_init empty 0 -12 0 16 #fcfcfc #000000 #000000;
#X obj 327 294 f;
#X obj 282 44 t b b, f 6;
#X obj 101 151 cnv 23 178 26 empty empty empty 20 12 0 16 #a6e3a1 #000000 0;
#X symbolatom 101 153 22 0 0 0 - - - 0;
#X msg 55 314 symbol b_l-1_1;
#X msg 101 258 set symbol \$1;
#X obj 101 187 t s s b, f 13;
#X obj 306 328 d_0;
#X obj 306 361 outlet;
#X obj 55 16 loadbang;
#X obj 55 44 f \$0;
#X obj 55 112 t b f, f 37;
#X obj 145 15 inlet;
#X connect 0 0 2 0;
#X connect 1 0 8 1;
#X connect 2 0 4 0;
#X connect 2 1 1 0;
#X connect 4 0 7 0;
#X connect 5 0 4 0;
#X connect 6 0 5 0;
#X connect 7 0 6 0;
#X connect 7 1 8 0;
#X connect 7 2 1 0;
#X connect 8 0 9 0;
#X connect 10 0 11 0;
#X connect 11 0 12 0;
#X connect 12 0 5 0;
#X connect 12 1 1 1;
#X connect 13 0 4 0;
#X coords 0 -1 1 1 180 28 2 100 150;
#X restore 621 196 pd ns_message;
#N canvas 1442 595 517 458 ns_message 0;
#X obj 282 16 bng 23 250 50 0 empty \$0_init empty 0 -12 0 16 #fcfcfc #000000 #000000;
#X obj 327 294 f;
#X obj 282 44 t b b, f 6;
#X obj 101 151 cnv 23 178 26 empty empty empty 20 12 0 16 #a6e3a1 #000000 0;
#X symbolatom 101 153 22 0 0 0 - - - 0;
#X msg 55 314 symbol a_l-1_1;
#X msg 101 258 set symbol \$1;
#X obj 101 187 t s s b, f 13;
#X obj 306 328 d_0;
#X obj 306 361 outlet;
#X obj 55 16 loadbang;
#X obj 55 44 f \$0;
#X obj 55 112 t b f, f 37;
#X obj 145 15 inlet;
#X connect 0 0 2 0;
#X connect 1 0 8 1;
#X connect 2 0 4 0;
#X connect 2 1 1 0;
#X connect 4 0 7 0;
#X connect 5 0 4 0;
#X connect 6 0 5 0;
#X connect 7 0 6 0;
#X connect 7 1 8 0;
#X connect 7 2 1 0;
#X connect 8 0 9 0;
#X connect 10 0 11 0;
#X connect 11 0 12 0;
#X connect 12 0 5 0;
#X connect 12 1 1 1;
#X connect 13 0 4 0;
#X coords 0 -1 1 1 180 28 2 100 150;
#X restore 683 234 pd ns_message;
#N canvas 1442 595 517 458 ns_message 0;
#X obj 282 16 bng 23 250 50 0 empty \$0_init empty 0 -12 0 16 #fcfcfc #000000 #000000;
#X obj 327 294 f;
#X obj 282 44 t b b, f 6;
#X obj 101 151 cnv 23 178 26 empty empty empty 20 12 0 16 #a6e3a1 #000000 0;
#X symbolatom 101 153 22 0 0 0 - - - 0;
#X msg 55 314 symbol z_l-1_1;
#X msg 101 258 set symbol \$1;
#X obj 101 187 t s s b, f 13;
#X obj 306 328 d_0;
#X obj 306 361 outlet;
#X obj 55 16 loadbang;
#X obj 55 44 f \$0;
#X obj 55 112 t b f, f 37;
#X obj 145 15 inlet;
#X connect 0 0 2 0;
#X connect 1 0 8 1;
#X connect 2 0 4 0;
#X connect 2 1 1 0;
#X connect 4 0 7 0;
#X connect 5 0 4 0;
#X connect 6 0 5 0;
#X connect 7 0 6 0;
#X connect 7 1 8 0;
#X connect 7 2 1 0;
#X connect 8 0 9 0;
#X connect 10 0 11 0;
#X connect 11 0 12 0;
#X connect 12 0 5 0;
#X connect 12 1 1 1;
#X connect 13 0 4 0;
#X coords 0 -1 1 1 180 28 2 100 150;
#X restore 745 274 pd ns_message;
#X obj 436 315 nn.unit_1 tanh, f 39;
#X obj 981 818 nn.da_1x1, f 38;
#X text 993 668 // dA[l-1] = W^[l]T . dZ^[l];
#N canvas 1442 595 517 458 ns_message 0;
#X obj 282 16 bng 23 250 50 0 empty \$0_init empty 0 -12 0 16 #fcfcfc #000000 #000000;
#X obj 327 294 f;
#X obj 282 44 t b b, f 6;
#X obj 101 151 cnv 23 178 26 empty empty empty 20 12 0 16 #a6e3a1 #000000 0;
#X symbolatom 101 153 22 0 0 0 - - - 0;
#X msg 55 314 symbol w_l1;
#X msg 101 258 set symbol \$1;
#X obj 101 187 t s s b, f 13;
#X obj 306 328 d_0;
#X obj 306 361 outlet;
#X obj 55 16 loadbang;
#X obj 55 44 f \$0;
#X obj 55 112 t b f, f 37;
#X obj 145 15 inlet;
#X connect 0 0 2 0;
#X connect 1 0 8 1;
#X connect 2 0 4 0;
#X connect 2 1 1 0;
#X connect 4 0 7 0;
#X connect 5 0 4 0;
#X connect 6 0 5 0;
#X connect 7 0 6 0;
#X connect 7 1 8 0;
#X connect 7 2 1 0;
#X connect 8 0 9 0;
#X connect 10 0 11 0;
#X connect 11 0 12 0;
#X connect 12 0 5 0;
#X connect 12 1 1 1;
#X connect 13 0 4 0;
#X coords 0 -1 1 1 180 28 2 100 150;
#X restore 1081 697 pd ns_message;
#N canvas 1442 595 517 458 ns_message 0;
#X obj 282 16 bng 23 250 50 0 empty \$0_init empty 0 -12 0 16 #fcfcfc #000000 #000000;
#X obj 327 294 f;
#X obj 282 44 t b b, f 6;
#X obj 101 151 cnv 23 178 26 empty empty empty 20 12 0 16 #a6e3a1 #000000 0;
#X symbolatom 101 153 22 0 0 0 - - - 0;
#X msg 55 314 symbol dz_l1;
#X msg 101 258 set symbol \$1;
#X obj 101 187 t s s b, f 13;
#X obj 306 328 d_0;
#X obj 306 361 outlet;
#X obj 55 16 loadbang;
#X obj 55 44 f \$0;
#X obj 55 112 t b f, f 37;
#X obj 145 15 inlet;
#X connect 0 0 2 0;
#X connect 1 0 8 1;
#X connect 2 0 4 0;
#X connect 2 1 1 0;
#X connect 4 0 7 0;
#X connect 5 0 4 0;
#X connect 6 0 5 0;
#X connect 7 0 6 0;
#X connect 7 1 8 0;
#X connect 7 2 1 0;
#X connect 8 0 9 0;
#X connect 10 0 11 0;
#X connect 11 0 12 0;
#X connect 12 0 5 0;
#X connect 12 1 1 1;
#X connect 13 0 4 0;
#X coords 0 -1 1 1 180 28 2 100 150;
#X restore 1181 737 pd ns_message;
#N canvas 1442 595 517 458 ns_message 0;
#X obj 282 16 bng 23 250 50 0 empty \$0_init empty 0 -12 0 16 #fcfcfc #000000 #000000;
#X obj 327 294 f;
#X obj 282 44 t b b, f 6;
#X obj 101 151 cnv 23 178 26 empty empty empty 20 12 0 16 #a6e3a1 #000000 0;
#X symbolatom 101 153 22 0 0 0 - - - 0;
#X msg 55 314 symbol da_l-1_1;
#X msg 101 258 set symbol \$1;
#X obj 101 187 t s s b, f 13;
#X obj 306 328 d_0;
#X obj 306 361 outlet;
#X obj 55 16 loadbang;
#X obj 55 44 f \$0;
#X obj 55 112 t b f, f 37;
#X obj 145 15 inlet;
#X connect 0 0 2 0;
#X connect 1 0 8 1;
#X connect 2 0 4 0;
#X connect 2 1 1 0;
#X connect 4 0 7 0;
#X connect 5 0 4 0;
#X connect 6 0 5 0;
#X connect 7 0 6 0;
#X connect 7 1 8 0;
#X connect 7 2 1 0;
#X connect 8 0 9 0;
#X connect 10 0 11 0;
#X connect 11 0 12 0;
#X connect 12 0 5 0;
#X connect 12 1 1 1;
#X connect 13 0 4 0;
#X coords 0 -1 1 1 180 28 2 100 150;
#X restore 1282 777 pd ns_message;
#X obj 976 862 cnv 23 540 455 empty empty backprop\ layer\ l-1 4 12 0 16 #ef9f76 #4c4f69 0;
#X text 987 884 // dZ^[l] = dA^[l] x g^[l]'(Z^[l]);
#N canvas 1442 595 517 458 ns_message 0;
#X obj 282 16 bng 23 250 50 0 empty \$0_init empty 0 -12 0 16 #fcfcfc #000000 #000000;
#X obj 327 294 f;
#X obj 282 44 t b b, f 6;
#X obj 101 151 cnv 23 178 26 empty empty empty 20 12 0 16 #a6e3a1 #000000 0;
#X symbolatom 101 153 22 0 0 0 - - - 0;
#X msg 55 314 symbol dz_l-1_1;
#X msg 101 258 set symbol \$1;
#X obj 101 187 t s s b, f 13;
#X obj 306 328 d_0;
#X obj 306 361 outlet;
#X obj 55 16 loadbang;
#X obj 55 44 f \$0;
#X obj 55 112 t b f, f 37;
#X obj 145 15 inlet;
#X connect 0 0 2 0;
#X connect 1 0 8 1;
#X connect 2 0 4 0;
#X connect 2 1 1 0;
#X connect 4 0 7 0;
#X connect 5 0 4 0;
#X connect 6 0 5 0;
#X connect 7 0 6 0;
#X connect 7 1 8 0;
#X connect 7 2 1 0;
#X connect 8 0 9 0;
#X connect 10 0 11 0;
#X connect 11 0 12 0;
#X connect 12 0 5 0;
#X connect 12 1 1 1;
#X connect 13 0 4 0;
#X coords 0 -1 1 1 180 28 2 100 150;
#X restore 1282 1029 pd ns_message;
#X obj 981 1072 nn.dz tanh, f 38;
#N canvas 1442 595 517 458 ns_message 0;
#X obj 282 16 bng 23 250 50 0 empty \$0_init empty 0 -12 0 16 #fcfcfc #000000 #000000;
#X obj 327 294 f;
#X obj 282 44 t b b, f 6;
#X obj 101 151 cnv 23 178 26 empty empty empty 20 12 0 16 #a6e3a1 #000000 0;
#X symbolatom 101 153 22 0 0 0 - - - 0;
#X msg 55 314 symbol a_l-1_1;
#X msg 101 258 set symbol \$1;
#X obj 101 187 t s s b, f 13;
#X obj 306 328 d_0;
#X obj 306 361 outlet;
#X obj 55 16 loadbang;
#X obj 55 44 f \$0;
#X obj 55 112 t b f, f 37;
#X obj 145 15 inlet;
#X connect 0 0 2 0;
#X connect 1 0 8 1;
#X connect 2 0 4 0;
#X connect 2 1 1 0;
#X connect 4 0 7 0;
#X connect 5 0 4 0;
#X connect 6 0 5 0;
#X connect 7 0 6 0;
#X connect 7 1 8 0;
#X connect 7 2 1 0;
#X connect 8 0 9 0;
#X connect 10 0 11 0;
#X connect 11 0 12 0;
#X connect 12 0 5 0;
#X connect 12 1 1 1;
#X connect 13 0 4 0;
#X coords 0 -1 1 1 180 28 2 100 150;
#X restore 1206 989 pd ns_message;
#N canvas 1442 595 517 458 ns_message 0;
#X obj 282 16 bng 23 250 50 0 empty \$0_init empty 0 -12 0 16 #fcfcfc #000000 #000000;
#X obj 327 294 f;
#X obj 282 44 t b b, f 6;
#X obj 101 151 cnv 23 178 26 empty empty empty 20 12 0 16 #a6e3a1 #000000 0;
#X symbolatom 101 153 22 0 0 0 - - - 0;
#X msg 55 314 symbol z_l-1_1;
#X msg 101 258 set symbol \$1;
#X obj 101 187 t s s b, f 13;
#X obj 306 328 d_0;
#X obj 306 361 outlet;
#X obj 55 16 loadbang;
#X obj 55 44 f \$0;
#X obj 55 112 t b f, f 37;
#X obj 145 15 inlet;
#X connect 0 0 2 0;
#X connect 1 0 8 1;
#X connect 2 0 4 0;
#X connect 2 1 1 0;
#X connect 4 0 7 0;
#X connect 5 0 4 0;
#X connect 6 0 5 0;
#X connect 7 0 6 0;
#X connect 7 1 8 0;
#X connect 7 2 1 0;
#X connect 8 0 9 0;
#X connect 10 0 11 0;
#X connect 11 0 12 0;
#X connect 12 0 5 0;
#X connect 12 1 1 1;
#X connect 13 0 4 0;
#X coords 0 -1 1 1 180 28 2 100 150;
#X restore 1131 949 pd ns_message;
#N canvas 1442 595 517 458 ns_message 0;
#X obj 282 16 bng 23 250 50 0 empty \$0_init empty 0 -12 0 16 #fcfcfc #000000 #000000;
#X obj 327 294 f;
#X obj 282 44 t b b, f 6;
#X obj 101 151 cnv 23 178 26 empty empty empty 20 12 0 16 #a6e3a1 #000000 0;
#X symbolatom 101 153 22 0 0 0 - - - 0;
#X msg 55 314 symbol da_l-1_1;
#X msg 101 258 set symbol \$1;
#X obj 101 187 t s s b, f 13;
#X obj 306 328 d_0;
#X obj 306 361 outlet;
#X obj 55 16 loadbang;
#X obj 55 44 f \$0;
#X obj 55 112 t b f, f 37;
#X obj 145 15 inlet;
#X connect 0 0 2 0;
#X connect 1 0 8 1;
#X connect 2 0 4 0;
#X connect 2 1 1 0;
#X connect 4 0 7 0;
#X connect 5 0 4 0;
#X connect 6 0 5 0;
#X connect 7 0 6 0;
#X connect 7 1 8 0;
#X connect 7 2 1 0;
#X connect 8 0 9 0;
#X connect 10 0 11 0;
#X connect 11 0 12 0;
#X connect 12 0 5 0;
#X connect 12 1 1 1;
#X connect 13 0 4 0;
#X coords 0 -1 1 1 180 28 2 100 150;
#X restore 1056 910 pd ns_message;
#X obj 981 1283 nn.dw 0, f 39;
#N canvas 1442 595 517 458 ns_message 0;
#X obj 282 16 bng 23 250 50 0 empty \$0_init empty 0 -12 0 16 #fcfcfc #000000 #000000;
#X obj 327 294 f;
#X obj 282 44 t b b, f 6;
#X obj 101 151 cnv 23 178 26 empty empty empty 20 12 0 16 #a6e3a1 #000000 0;
#X symbolatom 101 153 22 0 0 0 - - - 0;
#X msg 55 314 symbol dz_l-1_1;
#X msg 101 258 set symbol \$1;
#X obj 101 187 t s s b, f 13;
#X obj 306 328 d_0;
#X obj 306 361 outlet;
#X obj 55 16 loadbang;
#X obj 55 44 f \$0;
#X obj 55 112 t b f, f 37;
#X obj 145 15 inlet;
#X connect 0 0 2 0;
#X connect 1 0 8 1;
#X connect 2 0 4 0;
#X connect 2 1 1 0;
#X connect 4 0 7 0;
#X connect 5 0 4 0;
#X connect 6 0 5 0;
#X connect 7 0 6 0;
#X connect 7 1 8 0;
#X connect 7 2 1 0;
#X connect 8 0 9 0;
#X connect 10 0 11 0;
#X connect 11 0 12 0;
#X connect 12 0 5 0;
#X connect 12 1 1 1;
#X connect 13 0 4 0;
#X coords 0 -1 1 1 180 28 2 100 150;
#X restore 1084 1162 pd ns_message;
#N canvas 1442 595 517 458 ns_message 0;
#X obj 282 16 bng 23 250 50 0 empty \$0_init empty 0 -12 0 16 #fcfcfc #000000 #000000;
#X obj 327 294 f;
#X obj 282 44 t b b, f 6;
#X obj 101 151 cnv 23 178 26 empty empty empty 20 12 0 16 #a6e3a1 #000000 0;
#X symbolatom 101 153 22 0 0 0 - - - 0;
#X msg 55 314 symbol X;
#X msg 101 258 set symbol \$1;
#X obj 101 187 t s s b, f 13;
#X obj 306 328 d_0;
#X obj 306 361 outlet;
#X obj 55 16 loadbang;
#X obj 55 44 f \$0;
#X obj 55 112 t b f, f 37;
#X obj 145 15 inlet;
#X connect 0 0 2 0;
#X connect 1 0 8 1;
#X connect 2 0 4 0;
#X connect 2 1 1 0;
#X connect 4 0 7 0;
#X connect 5 0 4 0;
#X connect 6 0 5 0;
#X connect 7 0 6 0;
#X connect 7 1 8 0;
#X connect 7 2 1 0;
#X connect 8 0 9 0;
#X connect 10 0 11 0;
#X connect 11 0 12 0;
#X connect 12 0 5 0;
#X connect 12 1 1 1;
#X connect 13 0 4 0;
#X coords 0 -1 1 1 180 28 2 100 150;
#X restore 1187 1202 pd ns_message;
#N canvas 1442 595 517 458 ns_message 0;
#X obj 282 16 bng 23 250 50 0 empty \$0_init empty 0 -12 0 16 #fcfcfc #000000 #000000;
#X obj 327 294 f;
#X obj 282 44 t b b, f 6;
#X obj 101 151 cnv 23 178 26 empty empty empty 20 12 0 16 #a6e3a1 #000000 0;
#X symbolatom 101 153 22 0 0 0 - - - 0;
#X msg 55 314 symbol dw_l-1_1;
#X msg 101 258 set symbol \$1;
#X obj 101 187 t s s b, f 13;
#X obj 306 328 d_0;
#X obj 306 361 outlet;
#X obj 55 16 loadbang;
#X obj 55 44 f \$0;
#X obj 55 112 t b f, f 37;
#X obj 145 15 inlet;
#X connect 0 0 2 0;
#X connect 1 0 8 1;
#X connect 2 0 4 0;
#X connect 2 1 1 0;
#X connect 4 0 7 0;
#X connect 5 0 4 0;
#X connect 6 0 5 0;
#X connect 7 0 6 0;
#X connect 7 1 8 0;
#X connect 7 2 1 0;
#X connect 8 0 9 0;
#X connect 10 0 11 0;
#X connect 11 0 12 0;
#X connect 12 0 5 0;
#X connect 12 1 1 1;
#X connect 13 0 4 0;
#X coords 0 -1 1 1 180 28 2 100 150;
#X restore 1290 1242 pd ns_message;
#X text 988 1111 // dW^[l] = 1/m dZ^[l] . A^[l-1]T \; nn.dw calculates the derivative of one feature for one node;
#X obj 1520 2 cnv 23 540 175 empty empty backprop\ layer\ l-1\ continued 4 12 0 16 #ef9f76 #4c4f69 0;
#X obj 1526 140 nn.db, f 39;
#X text 1539 26 // db^[l] = 1/m sum(dZ^[l]);
#N canvas 1442 595 517 458 ns_message 0;
#X obj 282 16 bng 23 250 50 0 empty \$0_init empty 0 -12 0 16 #fcfcfc #000000 #000000;
#X obj 327 294 f;
#X obj 282 44 t b b, f 6;
#X obj 101 151 cnv 23 178 26 empty empty empty 20 12 0 16 #a6e3a1 #000000 0;
#X symbolatom 101 153 22 0 0 0 - - - 0;
#X msg 55 314 symbol dz_l-1_1;
#X msg 101 258 set symbol \$1;
#X obj 101 187 t s s b, f 13;
#X obj 306 328 d_0;
#X obj 306 361 outlet;
#X obj 55 16 loadbang;
#X obj 55 44 f \$0;
#X obj 55 112 t b f, f 37;
#X obj 145 15 inlet;
#X connect 0 0 2 0;
#X connect 1 0 8 1;
#X connect 2 0 4 0;
#X connect 2 1 1 0;
#X connect 4 0 7 0;
#X connect 5 0 4 0;
#X connect 6 0 5 0;
#X connect 7 0 6 0;
#X connect 7 1 8 0;
#X connect 7 2 1 0;
#X connect 8 0 9 0;
#X connect 10 0 11 0;
#X connect 11 0 12 0;
#X connect 12 0 5 0;
#X connect 12 1 1 1;
#X connect 13 0 4 0;
#X coords 0 -1 1 1 180 28 2 100 150;
#X restore 1680 58 pd ns_message;
#N canvas 1442 595 517 458 ns_message 0;
#X obj 282 16 bng 23 250 50 0 empty \$0_init empty 0 -12 0 16 #fcfcfc #000000 #000000;
#X obj 327 294 f;
#X obj 282 44 t b b, f 6;
#X obj 101 151 cnv 23 178 26 empty empty empty 20 12 0 16 #a6e3a1 #000000 0;
#X symbolatom 101 153 22 0 0 0 - - - 0;
#X msg 55 314 symbol db_l-1_1;
#X msg 101 258 set symbol \$1;
#X obj 101 187 t s s b, f 13;
#X obj 306 328 d_0;
#X obj 306 361 outlet;
#X obj 55 16 loadbang;
#X obj 55 44 f \$0;
#X obj 55 112 t b f, f 37;
#X obj 145 15 inlet;
#X connect 0 0 2 0;
#X connect 1 0 8 1;
#X connect 2 0 4 0;
#X connect 2 1 1 0;
#X connect 4 0 7 0;
#X connect 5 0 4 0;
#X connect 6 0 5 0;
#X connect 7 0 6 0;
#X connect 7 1 8 0;
#X connect 7 2 1 0;
#X connect 8 0 9 0;
#X connect 10 0 11 0;
#X connect 11 0 12 0;
#X connect 12 0 5 0;
#X connect 12 1 1 1;
#X connect 13 0 4 0;
#X coords 0 -1 1 1 180 28 2 100 150;
#X restore 1835 98 pd ns_message;
#X obj 1528 651 nn.update_params, f 40;
#X obj 1845 618 r \$0_alpha;
#N canvas 1442 595 517 458 ns_message 0;
#X obj 282 16 bng 23 250 50 0 empty \$0_init empty 0 -12 0 16 #fcfcfc #000000 #000000;
#X obj 327 294 f;
#X obj 282 44 t b b, f 6;
#X obj 101 151 cnv 23 178 26 empty empty empty 20 12 0 16 #a6e3a1 #000000 0;
#X symbolatom 101 153 22 0 0 0 - - - 0;
#X msg 55 314 symbol w_l-1_1;
#X msg 101 258 set symbol \$1;
#X obj 101 187 t s s b, f 13;
#X obj 306 328 d_0;
#X obj 306 361 outlet;
#X obj 55 16 loadbang;
#X obj 55 44 f \$0;
#X obj 55 112 t b f, f 37;
#X obj 145 15 inlet;
#X connect 0 0 2 0;
#X connect 1 0 8 1;
#X connect 2 0 4 0;
#X connect 2 1 1 0;
#X connect 4 0 7 0;
#X connect 5 0 4 0;
#X connect 6 0 5 0;
#X connect 7 0 6 0;
#X connect 7 1 8 0;
#X connect 7 2 1 0;
#X connect 8 0 9 0;
#X connect 10 0 11 0;
#X connect 11 0 12 0;
#X connect 12 0 5 0;
#X connect 12 1 1 1;
#X connect 13 0 4 0;
#X coords 0 -1 1 1 180 28 2 100 150;
#X restore 1633 535 pd ns_message;
#N canvas 1442 595 517 458 ns_message 0;
#X obj 282 16 bng 23 250 50 0 empty \$0_init empty 0 -12 0 16 #fcfcfc #000000 #000000;
#X obj 327 294 f;
#X obj 282 44 t b b, f 6;
#X obj 101 151 cnv 23 178 26 empty empty empty 20 12 0 16 #a6e3a1 #000000 0;
#X symbolatom 101 153 22 0 0 0 - - - 0;
#X msg 55 314 symbol dw_l-1_1;
#X msg 101 258 set symbol \$1;
#X obj 101 187 t s s b, f 13;
#X obj 306 328 d_0;
#X obj 306 361 outlet;
#X obj 55 16 loadbang;
#X obj 55 44 f \$0;
#X obj 55 112 t b f, f 37;
#X obj 145 15 inlet;
#X connect 0 0 2 0;
#X connect 1 0 8 1;
#X connect 2 0 4 0;
#X connect 2 1 1 0;
#X connect 4 0 7 0;
#X connect 5 0 4 0;
#X connect 6 0 5 0;
#X connect 7 0 6 0;
#X connect 7 1 8 0;
#X connect 7 2 1 0;
#X connect 8 0 9 0;
#X connect 10 0 11 0;
#X connect 11 0 12 0;
#X connect 12 0 5 0;
#X connect 12 1 1 1;
#X connect 13 0 4 0;
#X coords 0 -1 1 1 180 28 2 100 150;
#X restore 1739 577 pd ns_message;
#X obj 1528 801 nn.update_params, f 40;
#X obj 1845 768 r \$0_alpha;
#N canvas 1442 595 517 458 ns_message 0;
#X obj 282 16 bng 23 250 50 0 empty \$0_init empty 0 -12 0 16 #fcfcfc #000000 #000000;
#X obj 327 294 f;
#X obj 282 44 t b b, f 6;
#X obj 101 151 cnv 23 178 26 empty empty empty 20 12 0 16 #a6e3a1 #000000 0;
#X symbolatom 101 153 22 0 0 0 - - - 0;
#X msg 55 314 symbol b_l-1_1;
#X msg 101 258 set symbol \$1;
#X obj 101 187 t s s b, f 13;
#X obj 306 328 d_0;
#X obj 306 361 outlet;
#X obj 55 16 loadbang;
#X obj 55 44 f \$0;
#X obj 55 112 t b f, f 37;
#X obj 145 15 inlet;
#X connect 0 0 2 0;
#X connect 1 0 8 1;
#X connect 2 0 4 0;
#X connect 2 1 1 0;
#X connect 4 0 7 0;
#X connect 5 0 4 0;
#X connect 6 0 5 0;
#X connect 7 0 6 0;
#X connect 7 1 8 0;
#X connect 7 2 1 0;
#X connect 8 0 9 0;
#X connect 10 0 11 0;
#X connect 11 0 12 0;
#X connect 12 0 5 0;
#X connect 12 1 1 1;
#X connect 13 0 4 0;
#X coords 0 -1 1 1 180 28 2 100 150;
#X restore 1633 685 pd ns_message;
#N canvas 1442 595 517 458 ns_message 0;
#X obj 282 16 bng 23 250 50 0 empty \$0_init empty 0 -12 0 16 #fcfcfc #000000 #000000;
#X obj 327 294 f;
#X obj 282 44 t b b, f 6;
#X obj 101 151 cnv 23 178 26 empty empty empty 20 12 0 16 #a6e3a1 #000000 0;
#X symbolatom 101 153 22 0 0 0 - - - 0;
#X msg 55 314 symbol db_l-1_1;
#X msg 101 258 set symbol \$1;
#X obj 101 187 t s s b, f 13;
#X obj 306 328 d_0;
#X obj 306 361 outlet;
#X obj 55 16 loadbang;
#X obj 55 44 f \$0;
#X obj 55 112 t b f, f 37;
#X obj 145 15 inlet;
#X connect 0 0 2 0;
#X connect 1 0 8 1;
#X connect 2 0 4 0;
#X connect 2 1 1 0;
#X connect 4 0 7 0;
#X connect 5 0 4 0;
#X connect 6 0 5 0;
#X connect 7 0 6 0;
#X connect 7 1 8 0;
#X connect 7 2 1 0;
#X connect 8 0 9 0;
#X connect 10 0 11 0;
#X connect 11 0 12 0;
#X connect 12 0 5 0;
#X connect 12 1 1 1;
#X connect 13 0 4 0;
#X coords 0 -1 1 1 180 28 2 100 150;
#X restore 1739 727 pd ns_message;
#N canvas 1442 595 517 458 ns_message 0;
#X obj 282 16 bng 23 250 50 0 empty \$0_init empty 0 -12 0 16 #fcfcfc #000000 #000000;
#X obj 327 294 f;
#X obj 282 44 t b b, f 6;
#X obj 101 151 cnv 23 178 26 empty empty empty 20 12 0 16 #a6e3a1 #000000 0;
#X symbolatom 101 153 22 0 0 0 - - - 0;
#X msg 55 314 symbol dw_l-1_1;
#X msg 101 258 set symbol \$1;
#X obj 101 187 t s s b, f 13;
#X obj 306 328 d_0;
#X obj 306 361 outlet;
#X obj 55 16 loadbang;
#X obj 55 44 f \$0;
#X obj 55 112 t b f, f 37;
#X obj 145 15 inlet;
#X connect 0 0 2 0;
#X connect 1 0 8 1;
#X connect 2 0 4 0;
#X connect 2 1 1 0;
#X connect 4 0 7 0;
#X connect 5 0 4 0;
#X connect 6 0 5 0;
#X connect 7 0 6 0;
#X connect 7 1 8 0;
#X connect 7 2 1 0;
#X connect 8 0 9 0;
#X connect 10 0 11 0;
#X connect 11 0 12 0;
#X connect 12 0 5 0;
#X connect 12 1 1 1;
#X connect 13 0 4 0;
#X coords 0 -1 1 1 180 28 2 100 150;
#X restore 693 753 pd ns_message;
#N canvas 1442 595 517 458 ns_message 0;
#X obj 282 16 bng 23 250 50 0 empty \$0_init empty 0 -12 0 16 #fcfcfc #000000 #000000;
#X obj 327 294 f;
#X obj 282 44 t b b, f 6;
#X obj 101 151 cnv 23 178 26 empty empty empty 20 12 0 16 #a6e3a1 #000000 0;
#X symbolatom 101 153 22 0 0 0 - - - 0;
#X msg 55 314 symbol db_l-1_1;
#X msg 101 258 set symbol \$1;
#X obj 101 187 t s s b, f 13;
#X obj 306 328 d_0;
#X obj 306 361 outlet;
#X obj 55 16 loadbang;
#X obj 55 44 f \$0;
#X obj 55 112 t b f, f 37;
#X obj 145 15 inlet;
#X connect 0 0 2 0;
#X connect 1 0 8 1;
#X connect 2 0 4 0;
#X connect 2 1 1 0;
#X connect 4 0 7 0;
#X connect 5 0 4 0;
#X connect 6 0 5 0;
#X connect 7 0 6 0;
#X connect 7 1 8 0;
#X connect 7 2 1 0;
#X connect 8 0 9 0;
#X connect 10 0 11 0;
#X connect 11 0 12 0;
#X connect 12 0 5 0;
#X connect 12 1 1 1;
#X connect 13 0 4 0;
#X coords 0 -1 1 1 180 28 2 100 150;
#X restore 713 823 pd ns_message;
#N canvas 1442 595 517 458 ns_message 0;
#X obj 282 16 bng 23 250 50 0 empty \$0_init empty 0 -12 0 16 #fcfcfc #000000 #000000;
#X obj 327 294 f;
#X obj 282 44 t b b, f 6;
#X obj 101 151 cnv 23 178 26 empty empty empty 20 12 0 16 #a6e3a1 #000000 0;
#X symbolatom 101 153 22 0 0 0 - - - 0;
#X msg 55 314 symbol da_l-1_1;
#X msg 101 258 set symbol \$1;
#X obj 101 187 t s s b, f 13;
#X obj 306 328 d_0;
#X obj 306 361 outlet;
#X obj 55 16 loadbang;
#X obj 55 44 f \$0;
#X obj 55 112 t b f, f 37;
#X obj 145 15 inlet;
#X connect 0 0 2 0;
#X connect 1 0 8 1;
#X connect 2 0 4 0;
#X connect 2 1 1 0;
#X connect 4 0 7 0;
#X connect 5 0 4 0;
#X connect 6 0 5 0;
#X connect 7 0 6 0;
#X connect 7 1 8 0;
#X connect 7 2 1 0;
#X connect 8 0 9 0;
#X connect 10 0 11 0;
#X connect 11 0 12 0;
#X connect 12 0 5 0;
#X connect 12 1 1 1;
#X connect 13 0 4 0;
#X coords 0 -1 1 1 180 28 2 100 150;
#X restore 732 893 pd ns_message;
#N canvas 1442 595 517 458 ns_message 0;
#X obj 282 16 bng 23 250 50 0 empty \$0_init empty 0 -12 0 16 #fcfcfc #000000 #000000;
#X obj 327 294 f;
#X obj 282 44 t b b, f 6;
#X obj 101 151 cnv 23 178 26 empty empty empty 20 12 0 16 #a6e3a1 #000000 0;
#X symbolatom 101 153 22 0 0 0 - - - 0;
#X msg 55 314 symbol db_l-1_1;
#X msg 101 258 set symbol \$1;
#X obj 101 187 t s s b, f 13;
#X obj 306 328 d_0;
#X obj 306 361 outlet;
#X obj 55 16 loadbang;
#X obj 55 44 f \$0;
#X obj 55 112 t b f, f 37;
#X obj 145 15 inlet;
#X connect 0 0 2 0;
#X connect 1 0 8 1;
#X connect 2 0 4 0;
#X connect 2 1 1 0;
#X connect 4 0 7 0;
#X connect 5 0 4 0;
#X connect 6 0 5 0;
#X connect 7 0 6 0;
#X connect 7 1 8 0;
#X connect 7 2 1 0;
#X connect 8 0 9 0;
#X connect 10 0 11 0;
#X connect 11 0 12 0;
#X connect 12 0 5 0;
#X connect 12 1 1 1;
#X connect 13 0 4 0;
#X coords 0 -1 1 1 180 28 2 100 150;
#X restore 752 963 pd ns_message;
#N canvas 1442 595 517 458 ns_message 0;
#X obj 282 16 bng 23 250 50 0 empty \$0_init empty 0 -12 0 16 #fcfcfc #000000 #000000;
#X obj 327 294 f;
#X obj 282 44 t b b, f 6;
#X obj 101 151 cnv 23 178 26 empty empty empty 20 12 0 16 #a6e3a1 #000000 0;
#X symbolatom 101 153 22 0 0 0 - - - 0;
#X msg 55 314 symbol a_l-1_1;
#X msg 101 258 set symbol \$1;
#X obj 101 187 t s s b, f 13;
#X obj 306 328 d_0;
#X obj 306 361 outlet;
#X obj 55 16 loadbang;
#X obj 55 44 f \$0;
#X obj 55 112 t b f, f 37;
#X obj 145 15 inlet;
#X connect 0 0 2 0;
#X connect 1 0 8 1;
#X connect 2 0 4 0;
#X connect 2 1 1 0;
#X connect 4 0 7 0;
#X connect 5 0 4 0;
#X connect 6 0 5 0;
#X connect 7 0 6 0;
#X connect 7 1 8 0;
#X connect 7 2 1 0;
#X connect 8 0 9 0;
#X connect 10 0 11 0;
#X connect 11 0 12 0;
#X connect 12 0 5 0;
#X connect 12 1 1 1;
#X connect 13 0 4 0;
#X coords 0 -1 1 1 180 28 2 100 150;
#X restore 672 619 pd ns_message;
#X obj 672 654 spigot;
#X obj 733 653 tgl 23 0 empty empty empty 0 -12 0 16 #40a02b #000000 #000000 0 1;
#X obj 693 792 spigot;
#X obj 753 791 tgl 23 0 empty empty empty 0 -12 0 16 #40a02b #000000 #000000 0 1;
#X obj 713 862 spigot;
#X obj 773 861 tgl 23 0 empty empty empty 0 -12 0 16 #40a02b #000000 #000000 0 1;
#X obj 732 932 spigot;
#X obj 792 931 tgl 23 0 empty empty empty 0 -12 0 16 #40a02b #000000 #000000 0 1;
#X obj 752 1002 spigot;
#X obj 812 1001 tgl 23 0 empty empty empty 0 -12 0 16 #40a02b #000000 #000000 0 1;
#N canvas 1442 595 517 458 ns_message 0;
#X obj 282 16 bng 23 250 50 0 empty \$0_init empty 0 -12 0 16 #fcfcfc #000000 #000000;
#X obj 327 294 f;
#X obj 282 44 t b b, f 6;
#X obj 101 151 cnv 23 178 26 empty empty empty 20 12 0 16 #a6e3a1 #000000 0;
#X symbolatom 101 153 22 0 0 0 - - - 0;
#X msg 55 314 symbol z_l-1_1;
#X msg 101 258 set symbol \$1;
#X obj 101 187 t s s b, f 13;
#X obj 306 328 d_0;
#X obj 306 361 outlet;
#X obj 55 16 loadbang;
#X obj 55 44 f \$0;
#X obj 55 112 t b f, f 37;
#X obj 145 15 inlet;
#X connect 0 0 2 0;
#X connect 1 0 8 1;
#X connect 2 0 4 0;
#X connect 2 1 1 0;
#X connect 4 0 7 0;
#X connect 5 0 4 0;
#X connect 6 0 5 0;
#X connect 7 0 6 0;
#X connect 7 1 8 0;
#X connect 7 2 1 0;
#X connect 8 0 9 0;
#X connect 10 0 11 0;
#X connect 11 0 12 0;
#X connect 12 0 5 0;
#X connect 12 1 1 1;
#X connect 13 0 4 0;
#X coords 0 -1 1 1 180 28 2 100 150;
#X restore 682 688 pd ns_message;
#X obj 682 723 spigot;
#X obj 743 722 tgl 23 0 empty empty empty 0 -12 0 16 #40a02b #000000 #000000 0 1;
#N canvas 1442 595 517 458 ns_message 0;
#X obj 282 16 bng 23 250 50 0 empty \$0_init empty 0 -12 0 16 #fcfcfc #000000 #000000;
#X obj 327 294 f;
#X obj 282 44 t b b, f 6;
#X obj 101 151 cnv 23 178 26 empty empty empty 20 12 0 16 #a6e3a1 #000000 0;
#X symbolatom 101 153 22 0 0 0 - - - 0;
#X msg 55 314 symbol z_l1;
#X msg 101 258 set symbol \$1;
#X obj 101 187 t s s b, f 13;
#X obj 306 328 d_0;
#X obj 306 361 outlet;
#X obj 55 16 loadbang;
#X obj 55 44 f \$0;
#X obj 55 112 t b f, f 37;
#X obj 145 15 inlet;
#X connect 0 0 2 0;
#X connect 1 0 8 1;
#X connect 2 0 4 0;
#X connect 2 1 1 0;
#X connect 4 0 7 0;
#X connect 5 0 4 0;
#X connect 6 0 5 0;
#X connect 7 0 6 0;
#X connect 7 1 8 0;
#X connect 7 2 1 0;
#X connect 8 0 9 0;
#X connect 10 0 11 0;
#X connect 11 0 12 0;
#X connect 12 0 5 0;
#X connect 12 1 1 1;
#X connect 13 0 4 0;
#X coords 0 -1 1 1 180 28 2 100 150;
#X restore 462 688 pd ns_message;
#X obj 462 723 spigot;
#X obj 523 722 tgl 23 0 empty empty empty 0 -12 0 16 #40a02b #000000 #000000 0 1;
#N canvas 1160 255 1681 1147 synth 0;
#X obj 718 52 inlet;
#X obj 379 793 lop~ 5;
#X obj 372 117 phasor~;
#X obj 372 52 inlet;
#X obj 297 854 dac~;
#X obj 291 348 +~;
#X obj 370 343 *~;
#X obj 547 52 inlet;
#X obj 292 460 osc~ 220;
#X obj 296 791 *~;
#X obj 371 250 tabread~ \$0_Y_hat;
#X obj 372 176 *~ 16;
#X obj 293 251 sig~ 110;
#X obj 366 423 *~ 0.5;
#X obj 367 459 osc~ 220;
#X obj 292 518 +~;
#X obj 449 423 *~ 2;
#X obj 448 460 osc~ 220;
#X obj 291 584 *~ 0.25;
#X obj 538 460 osc~ 220;
#X obj 539 423 *~ 2.5;
#X obj 763 379 *~;
#X obj 816 379 nbx 5 21 0 1000 0 1 empty empty empty 0 -12 0 16 #fcfcfc #000000 #000000 60 256;
#X obj 295 719 bob~;
#X obj 761 307 +~ 1;
#X obj 739 251 tabread~ \$0_a_l-1_1;
#X obj 372 297 +~ 0.5;
#X obj 981 358 *~;
#X obj 1034 358 nbx 5 21 0 1000 0 1 empty empty empty 0 -12 0 16 #fcfcfc #000000 #000000 1.02 256;
#X obj 979 300 +~ 1;
#X obj 981 250 tabread~ \$0_da_l-1_1;
#X obj 761 345 lop~ 5;
#X obj 760 509 +~ 440;
#X floatatom 846 511 5 0 0 0 - - - 0;
#X obj 312 678 nbx 5 21 0 1000 0 1 empty empty empty 0 -12 0 16 #fcfcfc #000000 #000000 711 256;
#X connect 0 0 1 0;
#X connect 1 0 9 1;
#X connect 2 0 11 0;
#X connect 3 0 2 0;
#X connect 5 0 8 0;
#X connect 5 0 13 0;
#X connect 5 0 16 0;
#X connect 5 0 20 0;
#X connect 6 0 5 1;
#X connect 7 0 6 1;
#X connect 8 0 15 0;
#X connect 9 0 4 0;
#X connect 9 0 4 1;
#X connect 10 0 26 0;
#X connect 11 0 10 0;
#X connect 11 0 25 0;
#X connect 11 0 30 0;
#X connect 12 0 5 0;
#X connect 13 0 14 0;
#X connect 14 0 15 0;
#X connect 15 0 18 0;
#X connect 16 0 17 0;
#X connect 17 0 15 0;
#X connect 18 0 23 0;
#X connect 19 0 15 0;
#X connect 20 0 19 0;
#X connect 21 0 32 0;
#X connect 22 0 21 1;
#X connect 23 0 9 0;
#X connect 24 0 31 0;
#X connect 25 0 24 0;
#X connect 26 0 6 0;
#X connect 27 0 23 2;
#X connect 28 0 27 1;
#X connect 29 0 27 0;
#X connect 30 0 29 0;
#X connect 31 0 21 0;
#X connect 32 0 23 1;
#X connect 33 0 32 1;
#X connect 34 0 23 1;
#X restore 1663 952 pd synth;
#X obj 1779 910 vsl 23 196 0.01 1 1 0 empty empty empty 0 -9 0 16 #fcfcfc #000000 #000000 0 1;
#X obj 1692 910 nbx 5 21 -1e+37 1e+37 0 1 empty empty empty 0 -12 0 16 #fcfcfc #000000 #000000 526 256;
#X obj 1602 911 nbx 5 21 -1e+37 1e+37 0 1 empty empty empty 0 -12 0 16 #fcfcfc #000000 #000000 0.6 256;
#X obj 11 390 nn.rand_array;
#N canvas 1442 595 517 458 ns_message 0;
#X obj 282 16 bng 23 250 50 0 empty \$0_init empty 0 -12 0 16 #fcfcfc #000000 #000000;
#X obj 327 294 f;
#X obj 282 44 t b b, f 6;
#X obj 101 151 cnv 23 178 26 empty empty empty 20 12 0 16 #a6e3a1 #000000 0;
#X symbolatom 101 153 22 0 0 0 - - - 0;
#X msg 55 314 symbol w_l-1_1;
#X msg 101 258 set symbol \$1;
#X obj 101 187 t s s b, f 13;
#X obj 306 328 d_0;
#X obj 306 361 outlet;
#X obj 55 16 loadbang;
#X obj 55 44 f \$0;
#X obj 55 112 t b f, f 37;
#X obj 145 15 inlet;
#X connect 0 0 2 0;
#X connect 1 0 8 1;
#X connect 2 0 4 0;
#X connect 2 1 1 0;
#X connect 4 0 7 0;
#X connect 5 0 4 0;
#X connect 6 0 5 0;
#X connect 7 0 6 0;
#X connect 7 1 8 0;
#X connect 7 2 1 0;
#X connect 8 0 9 0;
#X connect 10 0 11 0;
#X connect 11 0 12 0;
#X connect 12 0 5 0;
#X connect 12 1 1 1;
#X connect 13 0 4 0;
#X coords 0 -1 1 1 180 28 2 100 150;
#X restore 11 349 pd ns_message;
#X obj 211 390 nn.rand_array;
#N canvas 1442 595 517 458 ns_message 0;
#X obj 282 16 bng 23 250 50 0 empty \$0_init empty 0 -12 0 16 #fcfcfc #000000 #000000;
#X obj 327 294 f;
#X obj 282 44 t b b, f 6;
#X obj 101 151 cnv 23 178 26 empty empty empty 20 12 0 16 #a6e3a1 #000000 0;
#X symbolatom 101 153 22 0 0 0 - - - 0;
#X msg 55 314 symbol b_l-1_1;
#X msg 101 258 set symbol \$1;
#X obj 101 187 t s s b, f 13;
#X obj 306 328 d_0;
#X obj 306 361 outlet;
#X obj 55 16 loadbang;
#X obj 55 44 f \$0;
#X obj 55 112 t b f, f 37;
#X obj 145 15 inlet;
#X connect 0 0 2 0;
#X connect 1 0 8 1;
#X connect 2 0 4 0;
#X connect 2 1 1 0;
#X connect 4 0 7 0;
#X connect 5 0 4 0;
#X connect 6 0 5 0;
#X connect 7 0 6 0;
#X connect 7 1 8 0;
#X connect 7 2 1 0;
#X connect 8 0 9 0;
#X connect 10 0 11 0;
#X connect 11 0 12 0;
#X connect 12 0 5 0;
#X connect 12 1 1 1;
#X connect 13 0 4 0;
#X coords 0 -1 1 1 180 28 2 100 150;
#X restore 211 349 pd ns_message;
#X msg 2137 64 16;
#X obj 2162 192 until;
#X obj 2205 234 + 1;
#N canvas 1442 595 517 458 ns_message 0;
#X obj 282 16 bng 23 250 50 0 empty \$0_init empty 0 -12 0 16 #fcfcfc #000000 #000000;
#X obj 327 294 f;
#X obj 282 44 t b b, f 6;
#X obj 101 151 cnv 23 178 26 empty empty empty 20 12 0 16 #a6e3a1 #000000 0;
#X symbolatom 101 153 22 0 0 0 - - - 0;
#X msg 55 314 symbol Y;
#X msg 101 258 set symbol \$1;
#X obj 101 187 t s s b, f 13;
#X obj 306 328 d_0;
#X obj 306 361 outlet;
#X obj 55 16 loadbang;
#X obj 55 44 f \$0;
#X obj 55 112 t b f, f 37;
#X obj 145 15 inlet;
#X connect 0 0 2 0;
#X connect 1 0 8 1;
#X connect 2 0 4 0;
#X connect 2 1 1 0;
#X connect 4 0 7 0;
#X connect 5 0 4 0;
#X connect 6 0 5 0;
#X connect 7 0 6 0;
#X connect 7 1 8 0;
#X connect 7 2 1 0;
#X connect 8 0 9 0;
#X connect 10 0 11 0;
#X connect 11 0 12 0;
#X connect 12 0 5 0;
#X connect 12 1 1 1;
#X connect 13 0 4 0;
#X coords 0 -1 1 1 180 28 2 100 150;
#X restore 2274 454 pd ns_message;
#X obj 2205 425 * 22.5;
#N canvas 1442 595 517 458 ns_message 0;
#X obj 282 16 bng 23 250 50 0 empty \$0_init empty 0 -12 0 16 #fcfcfc #000000 #000000;
#X obj 327 294 f;
#X obj 282 44 t b b, f 6;
#X obj 101 151 cnv 23 178 26 empty empty empty 20 12 0 16 #a6e3a1 #000000 0;
#X symbolatom 101 153 22 0 0 0 - - - 0;
#X msg 55 314 symbol X;
#X msg 101 258 set symbol \$1;
#X obj 101 187 t s s b, f 13;
#X obj 306 328 d_0;
#X obj 306 361 outlet;
#X obj 55 16 loadbang;
#X obj 55 44 f \$0;
#X obj 55 112 t b f, f 37;
#X obj 145 15 inlet;
#X connect 0 0 2 0;
#X connect 1 0 8 1;
#X connect 2 0 4 0;
#X connect 2 1 1 0;
#X connect 4 0 7 0;
#X connect 5 0 4 0;
#X connect 6 0 5 0;
#X connect 7 0 6 0;
#X connect 7 1 8 0;
#X connect 7 2 1 0;
#X connect 8 0 9 0;
#X connect 10 0 11 0;
#X connect 11 0 12 0;
#X connect 12 0 5 0;
#X connect 12 1 1 1;
#X connect 13 0 4 0;
#X coords 0 -1 1 1 180 28 2 100 150;
#X restore 2625 396 pd ns_message;
#X obj 2205 352 t f f f f, f 48;
#X obj 2205 498 array set;
#X obj 2460 441 array set, f 31;
#X msg 254 220 5;
#X msg 2233 190 0;
#X obj 2162 158 f;
#X obj 2137 92 t f b f b;
#X obj 2162 220 f;
#X obj 2205 262 - 1;
#X floatatom 2609 370 5 0 0 0 - - - 0;
#X floatatom 2250 380 5 0 0 0 - - - 0;
#X floatatom 2717 210 5 0 0 0 - - - 0;
#X obj 2717 237 * 22.5;
#X floatatom 2717 265 5 0 0 0 - - - 0;
#X obj 2355 182 expr if($f1 > 7 \, 0.5 \, -0.5);
#X msg 315 219 32;
#X obj 2205 461 cos;
#X obj 2350 87 expr if($f1 > 7 \, -0.5 \, 0.5);
#X obj 2353 34 expr if($f1 < 5 \, -0.5 \, if($f1 < 11 \, 1 \, 0.5));
#X obj 2350 137 expr if($f1 < 5 \, 0.5 \, if($f1 < 11 \, 0 \, -0.5));
#X msg 136 389 1;
#X msg 337 395 1;
#X msg 137 299 1;
#X msg 339 304 1;
#X obj 2460 402 expr sin($f1 * $f2);
#X msg 100 119 0.001;
#X connect 1 0 6 0;
#X connect 2 0 3 0;
#X connect 4 0 3 1;
#X connect 5 0 4 0;
#X connect 8 0 28 0;
#X connect 9 0 12 0;
#X connect 10 0 178 0;
#X connect 14 0 15 0;
#X connect 15 0 87 0;
#X connect 15 1 87 1;
#X connect 16 0 15 1;
#X connect 19 0 23 2;
#X connect 20 0 23 3;
#X connect 21 0 23 4;
#X connect 22 0 23 5;
#X connect 25 0 24 0;
#X connect 27 0 26 0;
#X connect 28 0 9 0;
#X connect 29 0 7 0;
#X connect 32 0 37 0;
#X connect 33 0 32 3;
#X connect 34 0 32 2;
#X connect 35 0 32 1;
#X connect 36 0 32 0;
#X connect 37 0 42 0;
#X connect 38 0 37 1;
#X connect 39 0 37 2;
#X connect 40 0 37 3;
#X connect 42 0 88 0;
#X connect 44 0 42 1;
#X connect 45 0 42 2;
#X connect 47 0 52 0;
#X connect 48 0 47 3;
#X connect 49 0 47 0;
#X connect 50 0 47 1;
#X connect 51 0 47 2;
#X connect 52 0 110 0;
#X connect 53 0 52 3;
#X connect 54 0 52 1;
#X connect 55 0 52 2;
#X connect 57 0 73 0;
#X connect 59 0 75 0;
#X connect 60 0 77 0;
#X connect 61 0 79 0;
#X connect 62 0 71 0;
#X connect 67 0 28 1;
#X connect 68 0 28 1;
#X connect 69 0 28 1;
#X connect 70 0 28 1;
#X connect 71 0 58 0;
#X connect 72 0 71 1;
#X connect 73 0 58 0;
#X connect 74 0 73 1;
#X connect 75 0 58 0;
#X connect 76 0 75 1;
#X connect 77 0 58 0;
#X connect 78 0 77 1;
#X connect 79 0 58 0;
#X connect 80 0 79 1;
#X connect 81 0 28 1;
#X connect 83 0 87 2;
#X connect 84 0 87 3;
#X connect 85 0 87 4;
#X connect 86 0 87 5;
#X connect 87 0 23 0;
#X connect 87 1 23 1;
#X connect 88 0 96 0;
#X connect 90 0 88 1;
#X connect 91 0 88 2;
#X connect 92 0 88 3;
#X connect 95 0 96 4;
#X connect 96 0 100 0;
#X connect 97 0 96 3;
#X connect 98 0 96 2;
#X connect 99 0 96 1;
#X connect 100 0 106 0;
#X connect 101 0 100 1;
#X connect 102 0 100 2;
#X connect 103 0 100 3;
#X connect 108 0 106 1;
#X connect 109 0 106 2;
#X connect 110 0 114 0;
#X connect 111 0 110 3;
#X connect 112 0 110 1;
#X connect 113 0 110 2;
#X connect 115 0 114 3;
#X connect 116 0 114 1;
#X connect 117 0 114 2;
#X connect 118 0 125 0;
#X connect 119 0 127 0;
#X connect 120 0 129 0;
#X connect 121 0 131 0;
#X connect 122 0 123 0;
#X connect 123 0 58 0;
#X connect 124 0 123 1;
#X connect 125 0 58 0;
#X connect 126 0 125 1;
#X connect 127 0 58 0;
#X connect 128 0 127 1;
#X connect 129 0 58 0;
#X connect 130 0 129 1;
#X connect 131 0 58 0;
#X connect 132 0 131 1;
#X connect 133 0 134 0;
#X connect 134 0 58 0;
#X connect 135 0 134 1;
#X connect 136 0 137 0;
#X connect 137 0 58 0;
#X connect 138 0 137 1;
#X connect 140 0 139 2;
#X connect 141 0 139 1;
#X connect 142 0 139 0;
#X connect 144 0 143 0;
#X connect 146 0 145 0;
#X connect 147 0 159 0;
#X connect 148 0 160 0;
#X connect 149 0 160 1;
#X connect 149 0 161 0;
#X connect 150 0 154 2;
#X connect 151 0 169 0;
#X connect 152 0 155 2;
#X connect 153 0 151 0;
#X connect 153 1 154 1;
#X connect 153 2 177 0;
#X connect 153 3 155 1;
#X connect 156 0 28 1;
#X connect 157 0 160 1;
#X connect 158 0 148 0;
#X connect 159 1 158 0;
#X connect 159 2 158 1;
#X connect 159 3 157 0;
#X connect 160 0 149 0;
#X connect 161 0 153 0;
#X connect 162 0 177 1;
#X connect 163 0 151 1;
#X connect 164 0 165 0;
#X connect 165 0 166 0;
#X connect 168 0 28 1;
#X connect 169 0 154 0;
#X connect 173 0 143 1;
#X connect 174 0 145 1;
#X connect 175 0 24 1;
#X connect 176 0 26 1;
#X connect 177 0 155 0;
#X connect 178 0 11 0;
