#N canvas 1291 244 506 261 16;
#N canvas 4 70 1712 1332 ns_message 0;
#X obj 328 5 bng 23 250 50 0 empty \$0_init empty 0 -12 0 16 #fcfcfc #000000 #000000;
#X obj 437 311 f;
#X obj 328 38 t b b, f 14;
#X obj 101 101 cnv 23 222 26 empty empty empty 20 12 0 16 #a6e3a1 #000000 0;
#X symbolatom 102 103 18 0 0 0 - - - 0;
#X obj 251 103 nbx 4 22 -1e+37 1e+37 0 0 empty empty empty 0 -12 0 16 #cba6f7 #000000 #000000 0 256;
#X msg 10 224 symbol foo_bar;
#X msg 10 188 set symbol \$1;
#X obj 102 145 t s s b, f 13;
#X obj 416 345 d_0;
#X obj 416 378 outlet;
#X obj 251 69 r \$0_ns;
#X obj 458 277 r \$0_ns;
#X obj 126 222 loadbang;
#X connect 0 0 2 0;
#X connect 1 0 9 1;
#X connect 2 0 4 0;
#X connect 2 1 1 0;
#X connect 4 0 8 0;
#X connect 6 0 4 0;
#X connect 7 0 6 0;
#X connect 8 0 7 0;
#X connect 8 1 9 0;
#X connect 8 2 1 0;
#X connect 9 0 10 0;
#X connect 11 0 5 0;
#X connect 12 0 1 1;
#X connect 13 0 6 0;
#X coords 0 -1 1 1 224 28 2 100 100;
#X restore 57 67 pd ns_message;
