#N canvas 1704 283 511 411 16;
#N canvas 1448 515 291 176 ns_symbol 0;
#X obj 71 46 r \$0_ns;
#X obj 29 45 d_0;
#X obj 29 15 inlet raw_message;
#X obj 29 83 outlet ns_message;
#X connect 0 0 1 1;
#X connect 1 0 3 0;
#X connect 2 0 1 0;
#X restore 15 81 pd ns_symbol;
#N canvas 1643 634 427 257 array_args 0;
#X obj 81 24 inlet message;
#N canvas 1444 479 291 176 ns_symbol 0;
#X obj 71 46 r \$0_ns;
#X obj 29 45 d_0;
#X obj 29 15 inlet raw_message;
#X obj 29 83 outlet ns_message;
#X connect 0 0 1 1;
#X connect 1 0 3 0;
#X connect 2 0 1 0;
#X restore 81 80 pd ns_symbol;
#X obj 81 164 outlet values;
#X obj 222 163 outlet name;
#X obj 81 52 list split 1, f 34;
#X obj 81 136 list store;
#X obj 81 108 t b s, f 18;
#X connect 0 0 4 0;
#X connect 1 0 6 0;
#X connect 4 0 1 0;
#X connect 4 1 5 1;
#X connect 5 0 2 0;
#X connect 6 0 5 0;
#X connect 6 1 3 0;
#X restore 16 126 pd array_args;
#X text 14 4 // useful subpatches relating to the \$0 namespace;
#X text 12 52 // consider using d0_safe instead of d_0 in these subpatches;
#N canvas 1472 731 228 137 ns_symbol_safe 0;
#X obj 99 46 r \$0_ns;
#X obj 29 15 inlet raw_message;
#X obj 29 73 outlet ns_message;
#X obj 29 45 d0_safe;
#X connect 0 0 3 1;
#X connect 1 0 3 0;
#X connect 3 0 2 0;
#X restore 14 297 pd ns_symbol_safe;
#X obj 16 257 d0_safe;
#N canvas 1746 292 427 257 array_args_safe 0;
#X obj 81 24 inlet message;
#N canvas 1448 515 223 141 ns_symbol 0;
#X obj 99 46 r \$0_ns;
#X obj 29 15 inlet raw_message;
#X obj 29 73 outlet ns_message;
#X obj 29 45 d0_safe;
#X connect 0 0 3 1;
#X connect 1 0 3 0;
#X connect 3 0 2 0;
#X restore 81 80 pd ns_symbol;
#X obj 81 164 outlet values;
#X obj 222 163 outlet name;
#X obj 81 52 list split 1, f 34;
#X obj 81 136 list store;
#X obj 81 108 t b s, f 18;
#X connect 0 0 4 0;
#X connect 1 0 6 0;
#X connect 4 0 1 0;
#X connect 4 1 5 1;
#X connect 5 0 2 0;
#X connect 6 0 5 0;
#X connect 6 1 3 0;
#X restore 15 334 pd array_args_safe;
#X text 10 196 // these will display a (hopefully) helpful error message \; if \$0_ns isn't set for the object;
#X text 89 256 // they're using d0_safe;
