#N canvas 1724 70 1712 1332 16;
#X msg 23 17 bang;
#X obj 23 45 f \$0;
#X obj 23 73 s \$0_ns;
#N canvas 1754 364 427 257 array_args_safe 0;
#X obj 81 24 inlet message;
#N canvas 1448 515 223 141 ns_symbol 0;
#X obj 99 46 r \$0_ns;
#X obj 29 15 inlet raw_message;
#X obj 29 73 outlet ns_message;
#X obj 29 45 d0_safe;
#X connect 0 0 3 1;
#X connect 1 0 3 0;
#X connect 3 0 2 0;
#X restore 81 80 pd ns_symbol;
#X obj 81 164 outlet values;
#X obj 222 163 outlet name;
#X obj 81 52 list split 1, f 34;
#X obj 81 136 list store;
#X obj 81 108 t b s, f 18;
#X connect 0 0 4 0;
#X connect 1 0 6 0;
#X connect 4 0 1 0;
#X connect 4 1 5 1;
#X connect 5 0 2 0;
#X connect 6 0 5 0;
#X connect 6 1 3 0;
#X restore 17 290 pd array_args_safe;
#N canvas 1906 826 228 137 ns_symbol_safe 0;
#X obj 99 46 r \$0_ns;
#X obj 29 15 inlet raw_message;
#X obj 29 73 outlet ns_message;
#X obj 29 45 d0_safe;
#X connect 0 0 3 1;
#X connect 1 0 3 0;
#X connect 3 0 2 0;
#X restore 16 324 pd ns_symbol_safe;
#X text 19 263 // d0 subpatches;
#N canvas 977 454 487 555 arrays 0;
#X obj 63 22 array define -k \$0_Y 4;
#A 0 0.75 0.5 0.1 -0.5;
#X obj 62 58 array define -k \$0_dzL 4;
#A 0 1 2 3 4;
#X obj 62 88 array define -k \$0_daL 4;
#A 0 -0.0859632 -0.302625 -0.199668 0.791313;
#X obj 63 118 array define -k \$0_zL 4;
#A 0 0.8 0.2 -0.1 0.3;
#X obj 62 148 array define -k \$0_aL 4;
#A 0 0.664037 0.197375 -0.099668 0.291313;
#X obj 62 178 array define -k \$0_dwL 2;
#A 0 10 12.5;
#X obj 62 208 array define -k \$0_aL-1_0 4;
#A 0 2 3 4 5;
#X obj 62 238 array define -k \$0_aL-1_1 4;
#A 0 3 4 5 6;
#X obj 62 268 array define -k \$0_dbL 1;
#A 0 2.5;
#X obj 62 298 array define -k \$0_daL-1_0 4;
#A 0 0.5 1 1.5 2;
#X obj 62 328 array define -k \$0_daL-1_1 4;
#A 0 0.25 0.5 0.75 1;
#X obj 62 358 array define -k \$0_wL 2;
#A 0 0.5 0.25;
#X restore 23 134 pd arrays;
#N canvas 202 346 1525 794 initialize_arrays 0;
#N canvas 1758 400 427 257 array_args_safe 0;
#X obj 81 24 inlet message;
#N canvas 1448 515 223 141 ns_symbol 0;
#X obj 99 46 r \$0_ns;
#X obj 29 15 inlet raw_message;
#X obj 29 73 outlet ns_message;
#X obj 29 45 d0_safe;
#X connect 0 0 3 1;
#X connect 1 0 3 0;
#X connect 3 0 2 0;
#X restore 81 80 pd ns_symbol;
#X obj 81 164 outlet values;
#X obj 222 163 outlet name;
#X obj 81 52 list split 1, f 34;
#X obj 81 136 list store;
#X obj 81 108 t b s, f 18;
#X connect 0 0 4 0;
#X connect 1 0 6 0;
#X connect 4 0 1 0;
#X connect 4 1 5 1;
#X connect 5 0 2 0;
#X connect 6 0 5 0;
#X connect 6 1 3 0;
#X restore 232 390 pd array_args_safe;
#X obj 230 431 array set;
#X msg 31 29 Y 0.75 0.5 0.1 -0.5;
#X msg 207 31 zL 0.8 0.2 -0.1 0.3;
#N canvas 1906 826 228 137 ns_symbol_safe 0;
#X obj 99 46 r \$0_ns;
#X obj 29 15 inlet raw_message;
#X obj 29 73 outlet ns_message;
#X obj 29 45 d0_safe;
#X connect 0 0 3 1;
#X connect 1 0 3 0;
#X connect 3 0 2 0;
#X restore 1142 175 pd ns_symbol_safe;
#X msg 1142 142 zL;
#X obj 1203 236 array size;
#X obj 1142 320 f;
#X obj 1142 348 until;
#X obj 1142 386 f;
#X obj 1142 414 t f f;
#X obj 1200 430 + 1;
#X msg 1211 348 0;
#X obj 1182 561 array get;
#X obj 1200 670 array set, f 23;
#X msg 1387 236 aL;
#N canvas 1906 826 228 137 ns_symbol_safe 0;
#X obj 99 46 r \$0_ns;
#X obj 29 15 inlet raw_message;
#X obj 29 73 outlet ns_message;
#X obj 29 45 d0_safe;
#X connect 0 0 3 1;
#X connect 1 0 3 0;
#X connect 3 0 2 0;
#X restore 1387 271 pd ns_symbol_safe;
#X obj 1142 470 t f b f, f 19;
#X msg 1216 532 1;
#X obj 1182 596 tanh;
#X obj 1142 203 t b b s s b, f 31;
#X obj 1142 266 t b b, f 9;
#X msg 422 31 aL-1_0 0.1 0.2 0.3 0.4;
#X msg 682 31 aL-1_1 -0.1 0 0.1 0.2;
#X msg 682 237 aL-1_0 0.2 0.3 -0.4 0.7;
#X msg 682 287 aL-1_1 0.5 0.2 -0.3 0.6;
#X msg 680 380 aL-1_0 2 3 4 5;
#X msg 679 425 aL-1_1 3 4 5 6;
#X msg 681 470 dzL 1 2 3 4;
#X msg 992 31 wL 0.5 0.25;
#X connect 0 0 1 0;
#X connect 0 1 1 2;
#X connect 2 0 0 0;
#X connect 3 0 0 0;
#X connect 4 0 20 0;
#X connect 5 0 4 0;
#X connect 6 0 7 1;
#X connect 7 0 8 0;
#X connect 8 0 9 0;
#X connect 9 0 10 0;
#X connect 10 0 17 0;
#X connect 10 1 11 0;
#X connect 11 0 9 1;
#X connect 12 0 9 1;
#X connect 13 0 19 0;
#X connect 15 0 16 0;
#X connect 16 0 14 2;
#X connect 17 0 13 0;
#X connect 17 1 18 0;
#X connect 17 2 14 1;
#X connect 18 0 13 1;
#X connect 19 0 14 0;
#X connect 20 0 21 0;
#X connect 20 1 6 0;
#X connect 20 2 6 1;
#X connect 20 3 13 2;
#X connect 20 4 15 0;
#X connect 21 0 7 0;
#X connect 21 1 12 0;
#X connect 22 0 0 0;
#X connect 23 0 0 0;
#X connect 24 0 0 0;
#X connect 25 0 0 0;
#X connect 26 0 0 0;
#X connect 27 0 0 0;
#X connect 28 0 0 0;
#X connect 29 0 0 0;
#X restore 127 135 pd initialize_arrays;
#N canvas 1910 862 228 137 ns_symbol_safe 0;
#X obj 99 46 r \$0_ns;
#X obj 29 15 inlet raw_message;
#X obj 29 73 outlet ns_message;
#X obj 29 45 d0_safe;
#X connect 0 0 3 1;
#X connect 1 0 3 0;
#X connect 3 0 2 0;
#X restore 1404 86 pd ns_symbol_safe;
#X obj 1335 119 array get;
#X obj 1331 172 print;
#X obj 1367 51 t b a;
#X obj 620 77 r \$0_ns;
#X msg 407 68 bang;
#X obj 814 244 r \$0_ns;
#X msg 1350 323 \; \$1 const 0;
#N canvas 1910 862 228 137 ns_symbol_safe 0;
#X obj 99 46 r \$0_ns;
#X obj 29 15 inlet raw_message;
#X obj 29 73 outlet ns_message;
#X obj 29 45 d0_safe;
#X connect 0 0 3 1;
#X connect 1 0 3 0;
#X connect 3 0 2 0;
#X restore 1350 286 pd ns_symbol_safe;
#X msg 1350 252 dzL;
#X obj 407 105 nn.dz_mse aL Y daL, f 27;
#X obj 318 169 print done;
#X msg 396 226 bang;
#X msg 1368 22 dwL;
#X obj 393 272 nn.bp_1x2 dzL daL zL aL dwL aL-1_0 aL-1_1 dbL daL-1_0 daL-1_1 wL linear;
#N canvas 1906 826 228 137 ns_symbol_safe 0;
#X obj 99 46 r \$0_ns;
#X obj 29 15 inlet raw_message;
#X obj 29 73 outlet ns_message;
#X obj 29 45 d0_safe;
#X connect 0 0 3 1;
#X connect 1 0 3 0;
#X connect 3 0 2 0;
#X restore 138 481 pd ns_symbol_safe;
#X obj 138 509 t b s;
#X obj 106 548 array get;
#X obj 106 576 print array;
#X msg 138 449 daL-1_1;
#X connect 0 0 1 0;
#X connect 1 0 2 0;
#X connect 8 0 9 2;
#X connect 9 0 10 0;
#X connect 11 0 9 0;
#X connect 11 1 8 0;
#X connect 12 0 18 1;
#X connect 13 0 18 0;
#X connect 14 0 22 1;
#X connect 16 0 15 0;
#X connect 17 0 16 0;
#X connect 20 0 22 0;
#X connect 21 0 11 0;
#X connect 23 0 24 0;
#X connect 24 0 25 0;
#X connect 24 1 25 2;
#X connect 25 0 26 0;
#X connect 27 0 23 0;
