#N canvas 4 70 904 656 16;
#N canvas 804 656 450 300 arrays 0;
#X obj 179 141 array define -k \$0_y_hat 4;
#A 0 -0.5 -0.25 0.05 0.25;
#X obj 179 171 array define -k \$0_Y 4;
#A 0 0.75 1 0 0.1;
#X obj 38 34 inlet;
#X msg 38 62 \; const 0;
#X obj 179 201 array define -k \$0_da 4;
#A 0 -1.375 -1.25 -0.45 -0.3;
#X connect 2 0 3 0;
#X connect 3 0 0 0;
#X connect 3 0 1 0;
#X connect 3 0 4 0;
#X restore 32 171 pd arrays;
#X msg 37 34 bang;
#X obj 37 90 s \$0_ns;
#X obj 37 62 f \$0;
#N canvas 1472 731 228 137 ns_symbol_safe 0;
#X obj 99 46 r \$0_ns;
#X obj 29 15 inlet raw_message;
#X obj 29 73 outlet ns_message;
#X obj 29 45 d0_safe;
#X connect 0 0 3 1;
#X connect 1 0 3 0;
#X connect 3 0 2 0;
#X restore 32 227 pd ns_symbol_safe;
#N canvas 1750 328 427 257 array_args_safe 0;
#X obj 81 24 inlet message;
#N canvas 1448 515 223 141 ns_symbol 0;
#X obj 99 46 r \$0_ns;
#X obj 29 15 inlet raw_message;
#X obj 29 73 outlet ns_message;
#X obj 29 45 d0_safe;
#X connect 0 0 3 1;
#X connect 1 0 3 0;
#X connect 3 0 2 0;
#X restore 81 80 pd ns_symbol;
#X obj 81 164 outlet values;
#X obj 222 163 outlet name;
#X obj 81 52 list split 1, f 34;
#X obj 81 136 list store;
#X obj 81 108 t b s, f 18;
#X connect 0 0 4 0;
#X connect 1 0 6 0;
#X connect 4 0 1 0;
#X connect 4 1 5 1;
#X connect 5 0 2 0;
#X connect 6 0 5 0;
#X connect 6 1 3 0;
#X restore 259 168 pd array_args_safe;
#X msg 259 76 y_hat -0.5 -0.25 0.05 0.25;
#X msg 149 378 Y;
#X msg 209 378 y_hat;
#X msg 108 379 da;
#X msg 39 288 bang;
#X obj 39 316 t b b;
#N canvas 1472 731 228 137 ns_symbol_safe 0;
#X obj 99 46 r \$0_ns;
#X obj 29 15 inlet raw_message;
#X obj 29 73 outlet ns_message;
#X obj 29 45 d0_safe;
#X connect 0 0 3 1;
#X connect 1 0 3 0;
#X connect 3 0 2 0;
#X restore 108 417 pd ns_symbol_safe;
#X obj 39 495 array get;
#X obj 39 523 print;
#X obj 259 216 array set;
#X obj 372 355 nn.da_mse y_hat Y da;
#X obj 529 322 r \$0_ns;
#X msg 372 323 bang;
#X msg 425 320 0.5;
#X msg 474 322 0.5;
#X obj 511 215 nn.scale_input;
#X floatatom 500 177 5 0 0 0 - - - 0;
#X floatatom 513 264 5 0 0 0 - - - 0;
#X floatatom 558 176 5 0 0 0 - - - 0;
#X floatatom 627 177 5 0 0 0 - - - 0;
#X msg 279 106 Y 0.75 1 0 0.1;
#X connect 1 0 3 0;
#X connect 3 0 2 0;
#X connect 5 0 15 0;
#X connect 5 1 15 2;
#X connect 6 0 5 0;
#X connect 7 0 12 0;
#X connect 8 0 12 0;
#X connect 9 0 12 0;
#X connect 10 0 11 0;
#X connect 11 0 13 0;
#X connect 11 1 9 0;
#X connect 12 0 13 2;
#X connect 13 0 14 0;
#X connect 17 0 16 3;
#X connect 18 0 16 0;
#X connect 19 0 16 1;
#X connect 20 0 16 2;
#X connect 21 0 23 0;
#X connect 22 0 21 0;
#X connect 24 0 21 1;
#X connect 25 0 21 2;
#X connect 26 0 5 0;
