#N canvas 1708 654 1164 484 16;
#X msg 23 17 bang;
#X obj 23 45 f \$0;
#X obj 23 73 s \$0_ns;
#N canvas 1754 364 427 257 array_args_safe 0;
#X obj 81 24 inlet message;
#N canvas 1448 515 223 141 ns_symbol 0;
#X obj 99 46 r \$0_ns;
#X obj 29 15 inlet raw_message;
#X obj 29 73 outlet ns_message;
#X obj 29 45 d0_safe;
#X connect 0 0 3 1;
#X connect 1 0 3 0;
#X connect 3 0 2 0;
#X restore 81 80 pd ns_symbol;
#X obj 81 164 outlet values;
#X obj 222 163 outlet name;
#X obj 81 52 list split 1, f 34;
#X obj 81 136 list store;
#X obj 81 108 t b s, f 18;
#X connect 0 0 4 0;
#X connect 1 0 6 0;
#X connect 4 0 1 0;
#X connect 4 1 5 1;
#X connect 5 0 2 0;
#X connect 6 0 5 0;
#X connect 6 1 3 0;
#X restore 17 160 pd array_args_safe;
#N canvas 1906 826 228 137 ns_symbol_safe 0;
#X obj 99 46 r \$0_ns;
#X obj 29 15 inlet raw_message;
#X obj 29 73 outlet ns_message;
#X obj 29 45 d0_safe;
#X connect 0 0 3 1;
#X connect 1 0 3 0;
#X connect 3 0 2 0;
#X restore 16 194 pd ns_symbol_safe;
#X text 19 133 // d0 subpatches;
#X obj 658 133 route a a_prev, f 52;
#X msg 848 68 a_prev aL-2;
#X obj 581 167 list store;
#X obj 787 170 list store;
#X msg 646 65 a aL-3_1 aL-3_2;
#X obj 503 94 bng 23 250 50 0 empty empty empty 0 -12 0 16 #fcfcfc #000000 #000000;
#X obj 581 197 t l l;
#X obj 617 231 list length;
#X floatatom 618 279 5 0 0 0 - - - 0;
#X obj 179 303 nn.bp_1x2;
#X obj 275 300 r \$0_ns;
#X msg 179 248 dz dzL;
#X msg 269 236 activation relu;
#X obj 174 369 print;
#X connect 0 0 1 0;
#X connect 1 0 2 0;
#X connect 6 0 8 1;
#X connect 6 1 9 1;
#X connect 7 0 6 0;
#X connect 8 0 12 0;
#X connect 10 0 6 0;
#X connect 11 0 8 0;
#X connect 12 1 13 0;
#X connect 13 0 14 0;
#X connect 15 0 19 0;
#X connect 16 0 15 1;
#X connect 17 0 15 0;
#X connect 18 0 15 0;
