#N canvas 1735 70 1701 1332 16;
#X msg 23 17 bang;
#X obj 23 45 f \$0;
#X obj 23 73 s \$0_ns;
#N canvas 1754 364 427 257 array_args_safe 0;
#X obj 81 24 inlet message;
#N canvas 1448 515 223 141 ns_symbol 0;
#X obj 99 46 r \$0_ns;
#X obj 29 15 inlet raw_message;
#X obj 29 73 outlet ns_message;
#X obj 29 45 d0_safe;
#X connect 0 0 3 1;
#X connect 1 0 3 0;
#X connect 3 0 2 0;
#X restore 81 80 pd ns_symbol;
#X obj 81 164 outlet values;
#X obj 222 163 outlet name;
#X obj 81 52 list split 1, f 34;
#X obj 81 136 list store;
#X obj 81 108 t b s, f 18;
#X connect 0 0 4 0;
#X connect 1 0 6 0;
#X connect 4 0 1 0;
#X connect 4 1 5 1;
#X connect 5 0 2 0;
#X connect 6 0 5 0;
#X connect 6 1 3 0;
#X restore 17 290 pd array_args_safe;
#N canvas 1906 826 228 137 ns_symbol_safe 0;
#X obj 99 46 r \$0_ns;
#X obj 29 15 inlet raw_message;
#X obj 29 73 outlet ns_message;
#X obj 29 45 d0_safe;
#X connect 0 0 3 1;
#X connect 1 0 3 0;
#X connect 3 0 2 0;
#X restore 16 324 pd ns_symbol_safe;
#X text 19 263 // d0 subpatches;
#N canvas 339 389 959 919 arrays 0;
#X obj 63 22 array define -k \$0_Y 4;
#A 0 0.75 0.5 0.1 -0.5;
#X obj 62 58 array define -k \$0_dzL 4;
#A 0 1 2 3 4;
#X obj 62 88 array define -k \$0_daL 4;
#A 0 -0.0859632 -0.302625 -0.199668 0.791313;
#X obj 63 118 array define -k \$0_zL 4;
#A 0 0.8 0.2 -0.1 0.3;
#X obj 62 148 array define -k \$0_aL 4;
#A 0 0.664037 0.197375 -0.099668 0.291313;
#X obj 62 178 array define -k \$0_dwL 2;
#A 0 10 12.5;
#X obj 62 298 array define -k \$0_aL-1_0 4;
#A 0 2 3 4 5;
#X obj 62 328 array define -k \$0_aL-1_1 4;
#A 0 3 4 5 6;
#X obj 62 208 array define -k \$0_dbL 1;
#A 0 2.5;
#X obj 351 296 array define -k \$0_daL-1_0 4;
#A 0 6 7 8 9;
#X obj 351 326 array define -k \$0_daL-1_1 4;
#A 0 10 11 12 13;
#X obj 62 238 array define -k \$0_wL 2;
#A 0 0.5 0.25;
#X obj 62 388 array define -k \$0_zL-1_0 4;
#A 0 -1 0 1 2;
#X obj 62 418 array define -k \$0_zL-1_1 4;
#A 0 -2 -1 0 1;
#X obj 62 598 array define -k \$0_bL-1_0 1;
#A 0 0;
#X obj 62 628 array define -k \$0_bL-1_1 1;
#A 0 0;
#X obj 352 388 array define -k \$0_dzL-1_0 4;
#A 0 1 2 3 4;
#X obj 352 418 array define -k \$0_dzL-1_1 4;
#A 0 2 3 4 5;
#X obj 352 598 array define -k \$0_dbL-1_0 1;
#A 0 -102.5;
#X obj 352 628 array define -k \$0_dbL-1_1 1;
#A 0 -247;
#X obj 62 718 array define -k \$0_aL-2_0 4;
#A 0 2 3 4 5;
#X obj 351 716 array define -k \$0_daL-2_0 4;
#A 0 30 42 54 66;
#X obj 62 748 array define -k \$0_aL-2_1 4;
#A 0 3 4 5 6;
#X obj 351 746 array define -k \$0_daL-2_1 4;
#A 0 36 51 66 81;
#X obj 62 778 array define -k \$0_aL-2_2 4;
#A 0 4 5 6 7;
#X obj 351 776 array define -k \$0_daL-2_2 4;
#A 0 42 60 78 96;
#X obj 62 488 array define -k \$0_wL-1_0 3;
#A 0 1 2 3;
#X obj 62 518 array define -k \$0_wL-1_1 3;
#A 0 4 5 6;
#X obj 352 488 array define -k \$0_dwL-1_0 3;
#A 0 -441 -543.5 -646;
#X obj 352 518 array define -k \$0_dwL-1_1 3;
#A 0 -1020.5 -1267.5 -1514.5;
#X obj 62 358 array define -k \$0_aL-1_2 4;
#A 0 0 0 0 0;
#X obj 351 356 array define -k \$0_daL-1_2 4;
#A 0 0 0 0 0;
#X obj 62 448 array define -k \$0_zL-1_2 4;
#A 0 0 0 0 0;
#X obj 352 448 array define -k \$0_dzL-1_2 4;
#A 0 3 4 5 6;
#X obj 62 548 array define -k \$0_wL-1_2 3;
#A 0 7 8 9;
#X obj 352 548 array define -k \$0_dwL-1_2 3;
#A 0 0 0 0;
#X obj 62 658 array define -k \$0_bL-1_2 1;
#A 0 0;
#X obj 352 658 array define -k \$0_dbL-1_2 1;
#A 0 4.5;
#X restore 23 134 pd arrays;
#N canvas 249 274 1525 794 initialize_arrays 0;
#N canvas 1758 400 427 257 array_args_safe 0;
#X obj 81 24 inlet message;
#N canvas 1448 515 223 141 ns_symbol 0;
#X obj 99 46 r \$0_ns;
#X obj 29 15 inlet raw_message;
#X obj 29 73 outlet ns_message;
#X obj 29 45 d0_safe;
#X connect 0 0 3 1;
#X connect 1 0 3 0;
#X connect 3 0 2 0;
#X restore 81 80 pd ns_symbol;
#X obj 81 164 outlet values;
#X obj 222 163 outlet name;
#X obj 81 52 list split 1, f 34;
#X obj 81 136 list store;
#X obj 81 108 t b s, f 18;
#X connect 0 0 4 0;
#X connect 1 0 6 0;
#X connect 4 0 1 0;
#X connect 4 1 5 1;
#X connect 5 0 2 0;
#X connect 6 0 5 0;
#X connect 6 1 3 0;
#X restore 232 390 pd array_args_safe;
#X obj 230 431 array set;
#X msg 31 29 Y 0.75 0.5 0.1 -0.5;
#X msg 207 31 zL 0.8 0.2 -0.1 0.3;
#N canvas 1906 826 228 137 ns_symbol_safe 0;
#X obj 99 46 r \$0_ns;
#X obj 29 15 inlet raw_message;
#X obj 29 73 outlet ns_message;
#X obj 29 45 d0_safe;
#X connect 0 0 3 1;
#X connect 1 0 3 0;
#X connect 3 0 2 0;
#X restore 1142 175 pd ns_symbol_safe;
#X msg 1142 142 zL;
#X obj 1203 236 array size;
#X obj 1142 320 f;
#X obj 1142 348 until;
#X obj 1142 386 f;
#X obj 1142 414 t f f;
#X obj 1200 430 + 1;
#X msg 1211 348 0;
#X obj 1182 561 array get;
#X obj 1200 670 array set, f 23;
#X msg 1387 236 aL;
#N canvas 1906 826 228 137 ns_symbol_safe 0;
#X obj 99 46 r \$0_ns;
#X obj 29 15 inlet raw_message;
#X obj 29 73 outlet ns_message;
#X obj 29 45 d0_safe;
#X connect 0 0 3 1;
#X connect 1 0 3 0;
#X connect 3 0 2 0;
#X restore 1387 271 pd ns_symbol_safe;
#X obj 1142 470 t f b f, f 19;
#X msg 1216 532 1;
#X obj 1182 596 tanh;
#X obj 1142 203 t b b s s b, f 31;
#X obj 1142 266 t b b, f 9;
#X msg 422 31 aL-1_0 0.1 0.2 0.3 0.4;
#X msg 682 31 aL-1_1 -0.1 0 0.1 0.2;
#X msg 674 249 aL-1_0 2 3 4 5;
#X msg 673 294 aL-1_1 3 4 5 6;
#X msg 90 708 dzL 1 2 3 4;
#X msg 992 31 wL 0.5 0.25;
#X msg 78 569 daL-1_0 6 7 8 9;
#X msg 77 614 daL-1_1 10 11 12 13;
#X msg 68 501 zL-1_0 -1 0 1 2;
#X msg 64 532 zL-1_1 -2 -1 0 1;
#X msg 938 327 aL-2_0 2 3 4 5;
#X msg 939 363 aL-2_1 3 4 5 6;
#X msg 939 393 aL-2_2 4 5 6 7;
#X msg 796 445 wL-1_0 1 2 3;
#X msg 796 475 wL-1_1 4 5 6;
#X msg 940 261 dzL-1_0 2 3 4 5;
#X msg 939 291 dzL-1_1 3 4 5 6;
#X msg 798 545 dzL-1_0 1 2 3 4;
#X msg 797 575 dzL-1_1 2 3 4 5;
#X msg 798 505 wL-1_2 7 8 9;
#X msg 797 605 dzL-1_2 3 4 5 6;
#X connect 0 0 1 0;
#X connect 0 1 1 2;
#X connect 2 0 0 0;
#X connect 3 0 0 0;
#X connect 4 0 20 0;
#X connect 5 0 4 0;
#X connect 6 0 7 1;
#X connect 7 0 8 0;
#X connect 8 0 9 0;
#X connect 9 0 10 0;
#X connect 10 0 17 0;
#X connect 10 1 11 0;
#X connect 11 0 9 1;
#X connect 12 0 9 1;
#X connect 13 0 19 0;
#X connect 15 0 16 0;
#X connect 16 0 14 2;
#X connect 17 0 13 0;
#X connect 17 1 18 0;
#X connect 17 2 14 1;
#X connect 18 0 13 1;
#X connect 19 0 14 0;
#X connect 20 0 21 0;
#X connect 20 1 6 0;
#X connect 20 2 6 1;
#X connect 20 3 13 2;
#X connect 20 4 15 0;
#X connect 21 0 7 0;
#X connect 21 1 12 0;
#X connect 22 0 0 0;
#X connect 23 0 0 0;
#X connect 24 0 0 0;
#X connect 25 0 0 0;
#X connect 26 0 0 0;
#X connect 27 0 0 0;
#X connect 28 0 0 0;
#X connect 29 0 0 0;
#X connect 30 0 0 0;
#X connect 31 0 0 0;
#X connect 32 0 0 0;
#X connect 33 0 0 0;
#X connect 34 0 0 0;
#X connect 35 0 0 0;
#X connect 36 0 0 0;
#X connect 37 0 0 0;
#X connect 38 0 0 0;
#X connect 39 0 0 0;
#X connect 40 0 0 0;
#X connect 41 0 0 0;
#X connect 42 0 0 0;
#X restore 127 135 pd initialize_arrays;
#N canvas 1910 862 228 137 ns_symbol_safe 0;
#X obj 99 46 r \$0_ns;
#X obj 29 15 inlet raw_message;
#X obj 29 73 outlet ns_message;
#X obj 29 45 d0_safe;
#X connect 0 0 3 1;
#X connect 1 0 3 0;
#X connect 3 0 2 0;
#X restore 1404 86 pd ns_symbol_safe;
#X obj 1335 119 array get;
#X obj 1331 172 print;
#X obj 1367 51 t b a;
#X obj 620 77 r \$0_ns;
#X msg 407 68 bang;
#X obj 814 244 r \$0_ns;
#X msg 1350 323 \; \$1 const 0;
#N canvas 1910 862 228 137 ns_symbol_safe 0;
#X obj 99 46 r \$0_ns;
#X obj 29 15 inlet raw_message;
#X obj 29 73 outlet ns_message;
#X obj 29 45 d0_safe;
#X connect 0 0 3 1;
#X connect 1 0 3 0;
#X connect 3 0 2 0;
#X restore 1350 286 pd ns_symbol_safe;
#X msg 1350 252 dzL;
#X obj 407 105 nn.dz_mse aL Y daL, f 27;
#X obj 318 169 print done;
#X msg 393 244 bang;
#X msg 1368 22 dwL;
#X obj 393 272 nn.bp_1x2 dzL daL zL aL dwL aL-1_0 aL-1_1 dbL daL-1_0 daL-1_1 wL linear;
#N canvas 1906 826 228 137 ns_symbol_safe 0;
#X obj 99 46 r \$0_ns;
#X obj 29 15 inlet raw_message;
#X obj 29 73 outlet ns_message;
#X obj 29 45 d0_safe;
#X connect 0 0 3 1;
#X connect 1 0 3 0;
#X connect 3 0 2 0;
#X restore 138 481 pd ns_symbol_safe;
#X obj 138 509 t b s;
#X obj 106 548 array get;
#X obj 106 576 print array;
#X obj 807 437 r \$0_ns;
#X msg 338 443 bang;
#X obj 338 470 nn.bp_2x2 dzL-1_0 dzL-1_1 daL-1_0 daL-1_1 zL-1_0 zL-1_1 aL-1_0 aL-1_1 dwL-1_0 dwL-1_1 aL-2_0 aL-2_1 dbL-1_0 dbL-1_1 daL-2_0 daL-2_1 wL-1_0 wL-1_1 tanh;
#X obj 351 680 nn.bp_2x3 dzL-1_0 dzL-1_1 daL-1_0 daL-1_1 zL-1_0 zL-1_1 aL-1_0 aL-1_1 dwL-1_0 dwL-1_1 aL-2_0 aL-2_1 aL-2_2 dbL-1_0 dbL-1_1 daL-2_0 daL-2_1 daL-2_2 wL-1_0 wL-1_1 tanh;
#X obj 812 649 r \$0_ns;
#X msg 351 649 bang;
#X msg 309 846 bang;
#X obj 309 874 nn.bp_3x3 dzL-1_0 dzL-1_1 dzL-1_2 daL-1_0 daL-1_1 daL-1_2 zL-1_0 zL-1_1 zL-1_2 aL-1_0 aL-1_1 aL-1_2 dwL-1_0 dwL-1_1 dwL-1_2 aL-2_0 aL-2_1 aL-2_2 dbL-1_0 dbL-1_1 dbL-1_2 daL-2_0 daL-2_1 daL-2_2 wL-1_0 wL-1_1 wL-1_2 tanh;
#X obj 786 839 r \$0_ns;
#X msg 138 449 daL-2_2;
#X connect 0 0 1 0;
#X connect 1 0 2 0;
#X connect 8 0 9 2;
#X connect 9 0 10 0;
#X connect 11 0 9 0;
#X connect 11 1 8 0;
#X connect 12 0 18 1;
#X connect 13 0 18 0;
#X connect 14 0 22 1;
#X connect 16 0 15 0;
#X connect 17 0 16 0;
#X connect 20 0 22 0;
#X connect 21 0 11 0;
#X connect 23 0 24 0;
#X connect 24 0 25 0;
#X connect 24 1 25 2;
#X connect 25 0 26 0;
#X connect 27 0 29 1;
#X connect 28 0 29 0;
#X connect 31 0 30 1;
#X connect 32 0 30 0;
#X connect 33 0 34 0;
#X connect 35 0 34 1;
#X connect 36 0 23 0;
