#N canvas 1984 899 482 238 16;
#X obj 55 110 unset_args_value_test;
#X msg 55 54 bang;
#X obj 55 82 t b b, f 22;
#X obj 253 110 unset_args_value_test 17;
#X connect 1 0 2 0;
#X connect 2 0 0 0;
#X connect 2 1 3 0;
