#N canvas 1424 103 450 588 16;
#X obj 196 49 inlet dollar_zero;
#X obj 36 51 inlet bang;
#X obj 172 122 f;
#X obj 156 216 d_0;
#X obj 155 261 print;
#X obj 39 155 list store \$1;
#X obj 128 330 array get;
#X obj 36 79 t b b b;
#X obj 126 400 print;
#X connect 0 0 2 1;
#X connect 1 0 7 0;
#X connect 2 0 3 1;
#X connect 3 0 4 0;
#X connect 3 0 6 2;
#X connect 5 0 3 0;
#X connect 6 0 8 0;
#X connect 7 0 6 0;
#X connect 7 1 5 0;
#X connect 7 2 2 0;
