#N canvas 1552 239 1327 1091 16;
#X obj 787 69 inlet names_list;
#X obj 787 97 unpack s s;
#X msg 787 323 symbol 1003_foo;
#X msg 934 330 symbol 1003_bar;
#X obj 426 93 sel 0 1;
#X obj 479 133 print error\ out\ of\ range;
#X floatatom 406 37 5 0 0 0 - - - 0;
#X msg 787 215 set symbol \$1;
#X msg 928 211 set symbol \$1;
#X obj 700 432 array set;
#X obj 452 165 t b b;
#X obj 402 165 t b b;
#X msg 383 275 5 6 7 8;
#X msg 611 31 1003_foo 1003_bar;
#X msg 69 340 0;
#X obj 115 415 f;
#X obj 156 433 + 1;
#X obj 153 470 mod 4;
#X obj 160 508 t f f;
#X obj 69 368 t b f;
#X obj 911 763 array set;
#X msg 749 637 2 3 4 5;
#X obj 45 26 array define a 4;
#X obj 44 64 array define b 4;
#X obj 45 104 array define c 4;
#X msg 287 493 symbol a;
#X msg 407 491 symbol b;
#X msg 522 492 symbol c;
#X msg 723 735 3 4 5 6;
#X msg 994 634 symbol a;
#X msg 1114 632 symbol b;
#X obj 82 563 expr c[$i3] = $s4[$i1] * $s5[$i2];
#X obj 933 890 array get c;
#X obj 931 953 print;
#X obj 876 842 bng 23 250 50 0 empty empty empty 0 -12 0 16 #fcfcfc #000000 #000000;
#X msg 176 642 symbol a;
#X msg 296 640 symbol b;
#X msg 411 641 symbol c;
#X floatatom 68 645 5 0 0 0 - - - 0;
#X msg 216 760 symbol a;
#X floatatom 89 763 5 0 0 0 - - - 0;
#X floatatom 118 854 5 0 0 0 - - - 0;
#X obj 112 803 expr $s2[$i1] = 12;
#X obj 75 697 expr $s2[$f1] = $s3[i1] * $s4[i1];
#X floatatom 354 901 5 0 0 0 - - - 0;
#X msg 452 780 symbol a;
#X msg 572 778 symbol b;
#X floatatom 350 807 5 0 0 0 - - - 0;
#X obj 352 853 expr $s2[$i1] * $s3[$i1];
#X msg 260 926 symbol a;
#X obj 126 1030 print;
#X floatatom 106 932 5 0 0 0 - - - 0;
#X obj 143 978 expr $f1 + $s2[0];
#X connect 0 0 1 0;
#X connect 1 0 7 0;
#X connect 1 1 8 0;
#X connect 2 0 9 2;
#X connect 3 0 9 2;
#X connect 4 0 11 0;
#X connect 4 1 10 0;
#X connect 4 2 5 0;
#X connect 6 0 4 0;
#X connect 7 0 2 0;
#X connect 8 0 3 0;
#X connect 10 0 3 0;
#X connect 11 0 12 0;
#X connect 11 1 2 0;
#X connect 12 0 9 0;
#X connect 13 0 1 0;
#X connect 14 0 19 0;
#X connect 15 0 16 0;
#X connect 16 0 15 1;
#X connect 16 0 17 0;
#X connect 17 0 18 0;
#X connect 18 0 31 1;
#X connect 18 1 31 2;
#X connect 19 0 15 0;
#X connect 19 1 31 0;
#X connect 21 0 20 0;
#X connect 25 0 31 3;
#X connect 26 0 31 4;
#X connect 28 0 20 0;
#X connect 29 0 20 2;
#X connect 30 0 20 2;
#X connect 32 0 33 0;
#X connect 34 0 32 0;
#X connect 35 0 43 1;
#X connect 36 0 43 2;
#X connect 37 0 43 3;
#X connect 38 0 43 0;
#X connect 39 0 42 1;
#X connect 40 0 42 0;
#X connect 42 0 41 0;
#X connect 45 0 48 1;
#X connect 46 0 48 2;
#X connect 47 0 48 0;
#X connect 48 0 44 0;
#X connect 49 0 52 1;
#X connect 51 0 52 0;
#X connect 52 0 50 0;
