#N canvas 1690 527 807 568 16;
#X obj 450 74 inlet dollar_zero;
#X obj 429 258 f;
#X obj 156 375 list prepend;
#X obj 156 436 outlet;
#X msg 156 403 symbol \$1_\$2;
#X obj 429 286 t f f;
#X obj 466 314 == 0;
#X obj 466 342 sel 1;
#X obj 156 132 t a b a, f 12;
#X msg 466 408 dollar_zero arg not set for foobars;
#X msg 476 375 set dollar_zero arg not set for \$1;
#X obj 156 74 inlet symbol;
#X obj 156 102 symbol;
#X obj 466 436 print;
#X connect 0 0 1 1;
#X connect 1 0 5 0;
#X connect 2 0 4 0;
#X connect 4 0 3 0;
#X connect 5 0 2 1;
#X connect 5 1 6 0;
#X connect 6 0 7 0;
#X connect 7 0 9 0;
#X connect 8 0 2 0;
#X connect 8 1 1 0;
#X connect 8 2 10 0;
#X connect 9 0 13 0;
#X connect 10 0 9 0;
#X connect 11 0 12 0;
#X connect 12 0 8 0;
