#N canvas 713 422 349 425 16;
#X obj 13 136 inlet index;
#X obj 50 279 nn.read_array;
#X obj 13 214 t f f;
#X obj 13 356 outlet index;
#X obj 128 356 outlet value;
#N canvas 658 594 726 597 dollar_zero_args 0;
#X obj 96 22 inlet dollar_zero;
#X obj 147 345 d_0;
#X obj 147 171 list store \$1;
#X obj 147 373 outlet;
#X obj 96 93 t b f, f 37;
#X connect 0 0 4 0;
#X connect 1 0 3 0;
#X connect 2 0 1 0;
#X connect 4 0 2 0;
#X connect 4 1 1 1;
#X restore 151 185 pd dollar_zero_args;
#X obj 151 136 inlet dollar_zero;
#X text 6 6 // NOTE: renamed from nn.input_node \; args \; \$1: symbol input array \; inlets \; 1: float \, index 2: float \, patch \$0 value;
#X connect 0 0 2 0;
#X connect 1 0 4 0;
#X connect 2 0 3 0;
#X connect 2 1 1 0;
#X connect 5 0 1 1;
#X connect 6 0 5 0;
