#N canvas 1020 136 1179 1103 16;
#X obj 198 77 inlet bang;
#X obj 874 942 array set, f 11;
#X obj 198 991 outlet done;
#N canvas 564 506 499 409 dollar_zero_args 0;
#X obj 96 22 inlet dollar_zero;
#X obj 170 285 d_0;
#X obj 244 285 d_0;
#X obj 317 285 d_0;
#X obj 170 111 list store \$1;
#X obj 244 151 list store \$2;
#X obj 317 191 list store \$3;
#X obj 170 313 outlet;
#X obj 244 313 outlet;
#X obj 317 313 outlet;
#X obj 96 63 t b f f f, f 37;
#X obj 34 245 t b b b;
#X connect 0 0 10 0;
#X connect 1 0 7 0;
#X connect 2 0 8 0;
#X connect 3 0 9 0;
#X connect 4 0 1 0;
#X connect 5 0 2 0;
#X connect 6 0 3 0;
#X connect 10 0 11 0;
#X connect 10 1 1 1;
#X connect 10 2 2 1;
#X connect 10 3 3 1;
#X connect 11 0 4 0;
#X connect 11 1 5 0;
#X connect 11 2 6 0;
#X restore 388 107 pd dollar_zero_args;
#X f 72;
#X obj 388 77 inlet dollar_zero;
#X text 486 138 // array a;
#X text 803 140 // array b;
#X text 972 129 // array c;
#X obj 388 140 t b s b s, f 11;
#X obj 445 192 array size;
#X obj 424 265 until;
#X obj 424 383 t f f f;
#X obj 488 327 + 1;
#X obj 424 315 f;
#X msg 275 147 0;
#X obj 674 140 t b s, f 14;
#X obj 664 749 array get;
#X msg 674 179 1;
#X obj 348 749 array get;
#X msg 381 185 1;
#X obj 198 105 t b b b, f 10;
#X obj 424 237 f 1;
#X obj 520 831 +;
#X connect 0 0 20 0;
#X connect 3 0 8 0;
#X connect 3 1 15 0;
#X connect 3 2 1 2;
#X connect 4 0 3 0;
#X connect 8 0 19 0;
#X connect 8 1 18 2;
#X connect 8 2 9 0;
#X connect 8 3 9 1;
#X connect 9 0 21 1;
#X connect 10 0 13 0;
#X connect 11 0 18 0;
#X connect 11 1 16 0;
#X connect 11 2 1 1;
#X connect 12 0 13 1;
#X connect 13 0 12 0;
#X connect 13 0 11 0;
#X connect 14 0 13 1;
#X connect 15 0 17 0;
#X connect 15 1 16 2;
#X connect 16 0 22 1;
#X connect 17 0 16 1;
#X connect 18 0 22 0;
#X connect 19 0 18 1;
#X connect 20 0 2 0;
#X connect 20 1 21 0;
#X connect 20 2 14 0;
#X connect 21 0 10 0;
#X connect 22 0 1 0;
