#N canvas 423 326 999 674 16;
#X obj 227 33 inlet s_arr_1;
#X obj 422 33 inlet s_arr_2;
#X obj 612 33 inlet s_arr_3;
#X obj 797 33 inlet s_arr_4;
#X obj 217 252 t f f f f;
#X obj 334 386 array get;
#X msg 368 349 1;
#X obj 464 386 array get;
#X msg 498 349 1;
#X obj 594 386 array get;
#X msg 628 349 1;
#X obj 764 386 array get;
#X msg 798 349 1;
#X obj 422 61 t b s;
#X obj 612 61 t b s;
#X obj 797 61 t b s;
#X obj 334 530 pack f f f f;
#X obj 227 74 t b s;
#X obj 56 33 inlet index;
#X obj 334 575 outlet list;
#X connect 0 0 17 0;
#X connect 1 0 13 0;
#X connect 2 0 14 0;
#X connect 3 0 15 0;
#X connect 4 0 5 0;
#X connect 4 1 7 0;
#X connect 4 2 9 0;
#X connect 4 3 11 0;
#X connect 5 0 16 0;
#X connect 6 0 5 1;
#X connect 7 0 16 1;
#X connect 8 0 7 1;
#X connect 9 0 16 2;
#X connect 10 0 9 1;
#X connect 11 0 16 3;
#X connect 12 0 11 1;
#X connect 13 0 8 0;
#X connect 13 1 7 2;
#X connect 14 0 10 0;
#X connect 14 1 9 2;
#X connect 15 0 12 0;
#X connect 15 1 11 2;
#X connect 16 0 19 0;
#X connect 17 0 6 0;
#X connect 17 1 5 2;
#X connect 18 0 4 0;
