#N canvas 8 70 2749 1332 16;
#X obj 547 52 inlet dollar_zero;
#X obj 2534 372 select relu tanh sigmoid linear;
#X msg 2534 405 1;
#X msg 2595 405 2;
#X msg 2656 405 3;
#X msg 2715 405 4;
#X msg 2779 405 0;
#X obj 321 50 inlet bang;
#N canvas 125 190 3065 983 dollar_zero_args 0;
#X obj 75 28 inlet dollar_zero;
#X obj 102 357 list store \$1;
#X obj 230 397 list store \$2;
#X obj 359 437 list store \$3;
#X obj 487 478 list store \$4;
#X obj 102 559 outlet;
#X obj 230 559 outlet;
#X obj 359 559 outlet;
#X obj 487 559 outlet;
#X obj 102 531 d0_safe;
#X obj 230 531 d0_safe;
#X obj 359 531 d0_safe;
#X obj 487 531 d0_safe;
#X obj 616 559 outlet;
#X obj 744 559 outlet;
#X obj 872 559 outlet;
#X obj 1001 559 outlet;
#X obj 616 531 d0_safe;
#X obj 744 531 d0_safe;
#X obj 872 531 d0_safe;
#X obj 1001 531 d0_safe;
#X obj 616 357 list store \$5;
#X obj 744 397 list store \$6;
#X obj 872 437 list store \$7;
#X obj 1001 478 list store \$8;
#X obj 1129 559 outlet;
#X obj 1250 559 outlet;
#X obj 1378 559 outlet;
#X obj 1129 531 d0_safe;
#X obj 1250 531 d0_safe;
#X obj 1378 531 d0_safe;
#X obj 1129 357 list store \$9;
#X obj 1250 397 list store \$10;
#X obj 1378 437 list store \$11;
#X obj 75 230 t b b b b b b b b b b b, f 155;
#X obj 75 99 t b f, f 7;
#X connect 0 0 35 0;
#X connect 1 0 9 0;
#X connect 2 0 10 0;
#X connect 3 0 11 0;
#X connect 4 0 12 0;
#X connect 9 0 5 0;
#X connect 10 0 6 0;
#X connect 11 0 7 0;
#X connect 12 0 8 0;
#X connect 17 0 13 0;
#X connect 18 0 14 0;
#X connect 19 0 15 0;
#X connect 20 0 16 0;
#X connect 21 0 17 0;
#X connect 22 0 18 0;
#X connect 23 0 19 0;
#X connect 24 0 20 0;
#X connect 28 0 25 0;
#X connect 29 0 26 0;
#X connect 30 0 27 0;
#X connect 31 0 28 0;
#X connect 32 0 29 0;
#X connect 33 0 30 0;
#X connect 35 0 34 0;
#X restore 547 196 pd dollar_zero_args;
#X f 262;
#X obj 470 229 list store;
#X obj 679 229 list store;
#X obj 888 229 list store;
#X obj 1097 229 list store;
#X obj 1307 229 list store;
#X obj 1516 229 list store;
#X obj 1725 229 list store;
#X obj 1935 229 list store;
#X obj 2144 229 list store;
#X obj 2353 229 list store;
#X obj 2563 229 list store;
#X obj 500 852 nn.bp.dz_1, f 48;
#X text 556 229 // dz;
#X text 771 223 // da;
#X text 974 229 // z;
#X text 1187 228 // a;
#X text 1397 225 // dw;
#X text 1607 227 // a_prev_0;
#X text 1816 227 // a_prev_1;
#X text 2021 227 // db;
#X text 2228 228 // da_prev_0;
#X text 2437 230 // da_prev_1;
#X text 2649 229 // w;
#X text 2659 336 // activation;
#X obj 2666 484 s \$0_nn.bp_1x2_activation;
#X obj 881 824 r \$0_nn.bp_1x2_activation;
#X obj 321 135 t b b;
#X obj 321 930 outlet done;
#X obj 470 257 s \$0_nn.bp_1x2_dz;
#X obj 679 257 s \$0_nn.bp_1x2_da;
#X obj 888 257 s \$0_nn.bp_1x2_z;
#X obj 1097 257 s \$0_nn.bp_1x2_a;
#X obj 1307 257 s \$0_nn.bp_1x2_dw;
#X obj 1516 257 s \$0_nn.bp_1x2_a_prev_0;
#X obj 1725 285 s \$0_nn.bp_1x2_a_prev_0;
#X obj 1935 257 s \$0_nn.bp_1x2_db;
#X obj 2144 257 s \$0_nn.bp_1x2_da_prev_0;
#X obj 2353 287 s \$0_nn.bp_1x2_da_prev_1;
#X obj 2563 257 s \$0_nn.bp_1x2_w;
#X obj 576 712 r \$0_nn.bp_1x2_dz;
#X obj 652 740 r \$0_nn.bp_1x2_da;
#X obj 728 768 r \$0_nn.bp_1x2_z;
#X obj 804 796 r \$0_nn.bp_1x2_a;
#X obj 2534 342 list store \$12;
#X obj 321 107 t b b b b b b b b b b b b b, f 277;
#X text 846 14 // TODO: make a separate version for the case of MSE loss in the outer layer;
#X obj 500 997 nn.bp.dw_1x2, f 48;
#X obj 595 885 r \$0_nn.bp_1x2_dz;
#X obj 690 913 r \$0_nn.bp_1x2_a_prev_0;
#X obj 881 969 r \$0_nn.bp_1x2_dw;
#X obj 500 1086 nn.bp.db_1, f 26;
#X obj 602 1030 r \$0_nn.bp_1x2_dz;
#X obj 705 1058 r \$0_nn.bp_1x2_db;
#X obj 500 1262 nn.bp.da_1x2, f 55;
#X obj 718 1178 r \$0_nn.bp_1x2_dz;
#X obj 785 941 r \$0_nn.bp_1x2_a_prev_1;
#X obj 609 1150 r \$0_nn.bp_1x2_w;
#X obj 827 1206 r \$0_nn.bp_1x2_da_prev_0;
#X obj 937 1234 r \$0_nn.bp_1x2_da_prev_1;
#X text 536 818 // TODO: don't trigger if linear;
#X text 32 28 //layer shape (2 \, 2) \; args \; \$1: symbol dz_0 (1 \, m) \; \$2: symbol dz_1 (1 \, m) \; \$3: symbol da_0 (1 \, m) \; \$4: symbol da_1 (1 \, m) \; \$5: symbol z_0 (1 \, m) \; \$6: symbol z_1 (1 \, m) \; \$7: symbol a_0 (1 \, m) \; \$8: symbol a_1 (1 \, m) \; \$9: symbol dw_0 (1 \, 2) \; \$10: symbol dw_1 (1 \, 2) \; \$11: symbol a_prev_0 (1 \, m) \; \$12: symbo a_prev_1 (1 \, m) \; \$13: symbol db_0 (1 \, 1) \; \$14: symbol db_1 (1 \, 1) \; \$15: symbol da_prev_0 (1 \, m) \; \$16: symbol da_prev_1 (1 \, m) \; \$17: symbol w_0 (1 \, 2) \; \$18: symbol w_1 (1 \, 2) \; \$19: symbol activation \; inlets \; 1: bang \; 2: float \$0_ns \;;
#X text 761 365 // TODO: finish dollar_zero_subpatch;
#X connect 0 0 8 0;
#X connect 1 0 2 0;
#X connect 1 1 3 0;
#X connect 1 2 4 0;
#X connect 1 3 5 0;
#X connect 1 4 6 0;
#X connect 2 0 33 0;
#X connect 3 0 33 0;
#X connect 4 0 33 0;
#X connect 5 0 33 0;
#X connect 6 0 33 0;
#X connect 7 0 53 0;
#X connect 8 0 9 1;
#X connect 8 1 10 1;
#X connect 8 2 11 1;
#X connect 8 3 12 1;
#X connect 8 4 13 1;
#X connect 8 5 14 1;
#X connect 8 6 15 1;
#X connect 8 7 16 1;
#X connect 8 8 17 1;
#X connect 8 9 18 1;
#X connect 8 10 19 1;
#X connect 9 0 37 0;
#X connect 10 0 38 0;
#X connect 11 0 39 0;
#X connect 12 0 40 0;
#X connect 13 0 41 0;
#X connect 14 0 42 0;
#X connect 15 0 43 0;
#X connect 16 0 44 0;
#X connect 17 0 45 0;
#X connect 18 0 46 0;
#X connect 19 0 47 0;
#X connect 20 0 55 0;
#X connect 34 0 20 5;
#X connect 35 0 36 0;
#X connect 35 1 20 0;
#X connect 48 0 20 1;
#X connect 49 0 20 2;
#X connect 50 0 20 3;
#X connect 51 0 20 4;
#X connect 52 0 1 0;
#X connect 53 0 35 0;
#X connect 53 1 9 0;
#X connect 53 2 10 0;
#X connect 53 3 11 0;
#X connect 53 4 12 0;
#X connect 53 5 13 0;
#X connect 53 6 14 0;
#X connect 53 7 15 0;
#X connect 53 8 16 0;
#X connect 53 9 17 0;
#X connect 53 10 18 0;
#X connect 53 11 19 0;
#X connect 53 12 52 0;
#X connect 55 0 59 0;
#X connect 56 0 55 1;
#X connect 57 0 55 2;
#X connect 58 0 55 4;
#X connect 59 0 62 0;
#X connect 60 0 59 1;
#X connect 61 0 59 2;
#X connect 63 0 62 2;
#X connect 64 0 55 3;
#X connect 65 0 62 1;
#X connect 66 0 62 3;
#X connect 67 0 62 4;
