#N canvas 4 70 2663 1332 16;
#X obj 1960 10 inlet dollar_zero;
#X obj 375 72 select relu tanh sigmoid linear;
#X msg 375 105 1;
#X msg 436 105 2;
#X msg 497 105 3;
#X msg 556 105 4;
#X msg 620 105 0;
#X obj 141 10 inlet bang;
#N canvas 209 149 2758 966 dollar_zero_args 0;
#X obj 35 18 inlet dollar_zero;
#X obj 2529 366 list store \$1;
#X obj 2529 754 outlet;
#X obj 2529 422 d0_safe;
#X obj 88 74 s \$0_nn.bp_2x2_d0_f;
#X obj 2582 394 r \$0_nn.bp_2x2_d0_f;
#X obj 35 46 t b f, f 7;
#X obj 2396 754 outlet;
#X obj 2396 519 d0_safe;
#X obj 2449 492 r \$0_nn.bp_2x2_d0_f;
#X obj 2396 463 list store \$2;
#X obj 2269 754 outlet;
#X obj 2269 611 d0_safe;
#X obj 2322 583 r \$0_nn.bp_2x2_d0_f;
#X obj 2191 754 outlet;
#X obj 2191 431 d0_safe;
#X obj 2244 403 r \$0_nn.bp_2x2_d0_f;
#X obj 2269 555 list store \$3;
#X obj 2191 375 list store \$4;
#X obj 2062 772 outlet;
#X obj 2062 524 d0_safe;
#X obj 2115 496 r \$0_nn.bp_2x2_d0_f;
#X obj 1929 754 outlet;
#X obj 1929 620 d0_safe;
#X obj 1982 592 r \$0_nn.bp_2x2_d0_f;
#X obj 1802 754 outlet;
#X obj 1802 457 d0_safe;
#X obj 1855 429 r \$0_nn.bp_2x2_d0_f;
#X obj 1673 754 outlet;
#X obj 1673 550 d0_safe;
#X obj 1726 522 r \$0_nn.bp_2x2_d0_f;
#X obj 2062 468 list store \$5;
#X obj 1929 564 list store \$6;
#X obj 1802 401 list store \$7;
#X obj 1673 494 list store \$8;
#X obj 1549 754 outlet;
#X obj 1549 638 d0_safe;
#X obj 1602 610 r \$0_nn.bp_2x2_d0_f;
#X obj 1549 582 list store \$9;
#X obj 1458 754 outlet;
#X obj 1458 447 d0_safe;
#X obj 1511 419 r \$0_nn.bp_2x2_d0_f;
#X obj 1330 754 outlet;
#X obj 1330 539 d0_safe;
#X obj 1383 511 r \$0_nn.bp_2x2_d0_f;
#X obj 1203 754 outlet;
#X obj 1203 627 d0_safe;
#X obj 1256 599 r \$0_nn.bp_2x2_d0_f;
#X obj 1112 754 outlet;
#X obj 1112 449 d0_safe;
#X obj 1165 421 r \$0_nn.bp_2x2_d0_f;
#X obj 967 754 outlet;
#X obj 967 539 d0_safe;
#X obj 1020 511 r \$0_nn.bp_2x2_d0_f;
#X obj 835 754 outlet;
#X obj 835 629 d0_safe;
#X obj 888 601 r \$0_nn.bp_2x2_d0_f;
#X obj 768 754 outlet;
#X obj 768 421 d0_safe;
#X obj 821 393 r \$0_nn.bp_2x2_d0_f;
#X obj 620 754 outlet;
#X obj 620 513 d0_safe;
#X obj 673 485 r \$0_nn.bp_2x2_d0_f;
#X obj 491 754 outlet;
#X obj 491 606 d0_safe;
#X obj 544 578 r \$0_nn.bp_2x2_d0_f;
#X obj 1458 391 list store \$10;
#X obj 1330 483 list store \$11;
#X obj 1203 571 list store \$12;
#X obj 1112 393 list store \$13;
#X obj 967 483 list store \$14;
#X obj 835 573 list store \$15;
#X obj 768 365 list store \$16;
#X obj 620 457 list store \$17;
#X obj 491 550 list store \$18;
#X obj 35 111 t b b b b b b b b b b b b b b b b b b b b, f 334;
#X obj 370 754 outlet;
#X obj 370 513 d0_safe;
#X obj 423 485 r \$0_nn.bp_2x2_d0_f;
#X obj 241 754 outlet;
#X obj 241 606 d0_safe;
#X obj 294 578 r \$0_nn.bp_2x2_d0_f;
#X obj 370 457 list store \$19;
#X obj 241 550 list store \$20;
#X connect 0 0 6 0;
#X connect 1 0 3 0;
#X connect 3 0 2 0;
#X connect 5 0 3 1;
#X connect 6 0 75 0;
#X connect 6 1 4 0;
#X connect 8 0 7 0;
#X connect 9 0 8 1;
#X connect 10 0 8 0;
#X connect 12 0 11 0;
#X connect 13 0 12 1;
#X connect 15 0 14 0;
#X connect 16 0 15 1;
#X connect 17 0 12 0;
#X connect 18 0 15 0;
#X connect 20 0 19 0;
#X connect 21 0 20 1;
#X connect 23 0 22 0;
#X connect 24 0 23 1;
#X connect 26 0 25 0;
#X connect 27 0 26 1;
#X connect 29 0 28 0;
#X connect 30 0 29 1;
#X connect 31 0 20 0;
#X connect 32 0 23 0;
#X connect 33 0 26 0;
#X connect 34 0 29 0;
#X connect 36 0 35 0;
#X connect 37 0 36 1;
#X connect 38 0 36 0;
#X connect 40 0 39 0;
#X connect 41 0 40 1;
#X connect 43 0 42 0;
#X connect 44 0 43 1;
#X connect 46 0 45 0;
#X connect 47 0 46 1;
#X connect 49 0 48 0;
#X connect 50 0 49 1;
#X connect 52 0 51 0;
#X connect 53 0 52 1;
#X connect 55 0 54 0;
#X connect 56 0 55 1;
#X connect 58 0 57 0;
#X connect 59 0 58 1;
#X connect 61 0 60 0;
#X connect 62 0 61 1;
#X connect 64 0 63 0;
#X connect 65 0 64 1;
#X connect 66 0 40 0;
#X connect 67 0 43 0;
#X connect 68 0 46 0;
#X connect 69 0 49 0;
#X connect 70 0 52 0;
#X connect 71 0 55 0;
#X connect 72 0 58 0;
#X connect 73 0 61 0;
#X connect 74 0 64 0;
#X connect 75 0 83 0;
#X connect 75 1 82 0;
#X connect 75 2 74 0;
#X connect 75 3 73 0;
#X connect 75 4 72 0;
#X connect 75 5 71 0;
#X connect 75 6 70 0;
#X connect 75 7 69 0;
#X connect 75 8 68 0;
#X connect 75 9 67 0;
#X connect 75 10 66 0;
#X connect 75 11 38 0;
#X connect 75 12 34 0;
#X connect 75 13 33 0;
#X connect 75 14 32 0;
#X connect 75 15 31 0;
#X connect 75 16 18 0;
#X connect 75 17 17 0;
#X connect 75 18 10 0;
#X connect 75 19 1 0;
#X connect 77 0 76 0;
#X connect 78 0 77 1;
#X connect 80 0 79 0;
#X connect 81 0 80 1;
#X connect 82 0 77 0;
#X connect 83 0 80 0;
#X restore 1960 43 pd dollar_zero_args;
#X f 47;
#X obj 206 397 nn.bp.dz_1, f 48;
#X obj 141 1168 outlet done;
#X obj 206 1045 nn.bp.db_1, f 26;
#X obj 206 610 nn.bp.dz_1, f 48;
#X obj 206 1134 nn.bp.db_1, f 26;
#X obj 507 184 s \$0_nn.bp_2x3_activation;
#X obj 2333 76 s \$0_nn.bp_2x3_dz_0;
#X obj 2313 106 s \$0_nn.bp_2x3_dz_1;
#X obj 2293 136 s \$0_nn.bp_2x3_da_0;
#X obj 2274 166 s \$0_nn.bp_2x3_da_1;
#X obj 2254 196 s \$0_nn.bp_2x3_z_0;
#X obj 2234 226 s \$0_nn.bp_2x3_z_1;
#X obj 2215 256 s \$0_nn.bp_2x3_a_0;
#X obj 2195 286 s \$0_nn.bp_2x3_a_1;
#X obj 2175 316 s \$0_nn.bp_2x3_dw_0;
#X obj 2156 346 s \$0_nn.bp_2x3_dw_1;
#X obj 2136 376 s \$0_nn.bp_2x3_a_prev_0;
#X obj 2117 406 s \$0_nn.bp_2x3_a_prev_1;
#X obj 2077 466 s \$0_nn.bp_2x3_db_0;
#X obj 2058 496 s \$0_nn.bp_2x3_db_1;
#X obj 2038 526 s \$0_nn.bp_2x3_da_prev_0;
#X obj 2018 556 s \$0_nn.bp_2x3_da_prev_1;
#X obj 1979 616 s \$0_nn.bp_2x3_w_0;
#X obj 1960 646 s \$0_nn.bp_2x3_w_1;
#X obj 269 227 r \$0_nn.bp_2x3_da_0;
#X obj 333 257 r \$0_nn.bp_2x3_z_0;
#X obj 396 285 r \$0_nn.bp_2x3_a_0;
#X obj 460 313 r \$0_nn.bp_2x3_dz_0;
#X obj 587 369 r \$0_nn.bp_2x3_activation;
#X obj 375 42 list store \$21;
#X obj 269 441 r \$0_nn.bp_2x3_da_1;
#X obj 333 470 r \$0_nn.bp_2x3_z_1;
#X obj 396 498 r \$0_nn.bp_2x3_a_1;
#X obj 460 526 r \$0_nn.bp_2x3_dz_1;
#X obj 587 582 r \$0_nn.bp_2x3_activation;
#X obj 308 989 r \$0_nn.bp_2x3_dz_0;
#X obj 411 1017 r \$0_nn.bp_2x3_db_0;
#X obj 308 1077 r \$0_nn.bp_2x3_dz_1;
#X obj 411 1106 r \$0_nn.bp_2x3_db_1;
#X obj 2097 436 s \$0_nn.bp_2x3_a_prev_2;
#X obj 1999 586 s \$0_nn.bp_2x3_da_prev_2;
#X obj 282 643 r \$0_nn.bp_2x3_dz_0;
#X obj 358 671 r \$0_nn.bp_2x3_a_prev_0;
#X obj 434 699 r \$0_nn.bp_2x3_a_prev_1;
#X obj 510 727 r \$0_nn.bp_2x3_a_prev_2;
#X obj 206 783 nn.bp.dw_1x3, f 48;
#X obj 587 755 r \$0_nn.bp_2x3_dw_0;
#X obj 358 844 r \$0_nn.bp_2x3_a_prev_0;
#X obj 434 872 r \$0_nn.bp_2x3_a_prev_1;
#X obj 510 900 r \$0_nn.bp_2x3_a_prev_2;
#X obj 206 956 nn.bp.dw_1x3, f 48;
#X obj 282 816 r \$0_nn.bp_2x3_dz_1;
#X obj 587 928 r \$0_nn.bp_2x3_dw_1;
#X obj 869 397 nn.bp.da_2x3, f 55;
#X obj 931 192 r \$0_nn.bp_2x3_w_0;
#X obj 993 222 r \$0_nn.bp_2x3_w_1;
#X obj 1056 250 r \$0_nn.bp_2x3_dz_0;
#X obj 1118 278 r \$0_nn.bp_2x3_dz_1;
#X obj 1181 306 r \$0_nn.bp_2x3_da_prev_0;
#X obj 1243 339 r \$0_nn.bp_2x3_da_prev_1;
#X obj 1306 368 r \$0_nn.bp_2x3_da_prev_2;
#X text 1531 90 //layer shape (2 \, 3) \; args \; \$1: symbol dz_0 (1 \, m) \; \$2: symbol dz_1 (1 \, m) \; \$3: symbol da_0 (1 \, m) \; \$4: symbol da_1 (1 \, m) \; \$5: symbol z_0 (1 \, m) \; \$6: symbol z_1 (1 \, m) \; \$7: symbol a_0 (1 \, m) \; \$8: symbol a_1 (1 \, m) \; \$9: symbol dw_0 (1 \, 3) \; \$10: symbol dw_1 (1 \, 3) \; \$11: symbol a_prev_0 (1 \, m) \; \$12: symbol a_prev_1 (1 \, m) \; \$13: symbol a_prev_2 (1 \, m) \; \$14: symbol db_0 (1 \, 1) \; \$15: symbol db_1 (1 \, 1) \; \$16: symbol da_prev_0 (1 \, m) \; \$17: symbol da_prev_1 (1 \, m) \; \$18: symbol da_prev_2 (1 \, m) \; \$19: symbol w_0 (1 \, 3) \; \$20: symbol w_1 (1 \, 3) \; \$21: symbol activation \; \$22: float negative slope (for ReLU derivatives) \; inlets \; 1: bang \; 2: float \$0_ns \;;
#X obj 141 42 t b b b b, f 25;
#X obj 272 75 f \$22;
#X obj 272 184 s \$0_nn.bp_negative_slope;
#X obj 523 341 r \$0_nn.bp_negative_slope;
#X obj 523 554 r \$0_nn.bp_negative_slope;
#X connect 0 0 8 0;
#X connect 1 0 2 0;
#X connect 1 1 3 0;
#X connect 1 2 4 0;
#X connect 1 3 5 0;
#X connect 1 4 6 0;
#X connect 2 0 14 0;
#X connect 3 0 14 0;
#X connect 4 0 14 0;
#X connect 5 0 14 0;
#X connect 6 0 14 0;
#X connect 7 0 71 0;
#X connect 8 0 32 0;
#X connect 8 1 31 0;
#X connect 8 2 49 0;
#X connect 8 3 30 0;
#X connect 8 4 29 0;
#X connect 8 5 28 0;
#X connect 8 6 27 0;
#X connect 8 7 48 0;
#X connect 8 8 26 0;
#X connect 8 9 25 0;
#X connect 8 10 24 0;
#X connect 8 11 23 0;
#X connect 8 12 22 0;
#X connect 8 13 21 0;
#X connect 8 14 20 0;
#X connect 8 15 19 0;
#X connect 8 16 18 0;
#X connect 8 17 17 0;
#X connect 8 18 16 0;
#X connect 8 19 15 0;
#X connect 9 0 12 0;
#X connect 11 0 13 0;
#X connect 12 0 54 0;
#X connect 13 0 62 0;
#X connect 33 0 9 1;
#X connect 34 0 9 2;
#X connect 35 0 9 3;
#X connect 36 0 9 4;
#X connect 37 0 9 6;
#X connect 38 0 1 0;
#X connect 39 0 12 1;
#X connect 40 0 12 2;
#X connect 41 0 12 3;
#X connect 42 0 12 4;
#X connect 43 0 12 6;
#X connect 44 0 11 1;
#X connect 45 0 11 2;
#X connect 46 0 13 1;
#X connect 47 0 13 2;
#X connect 50 0 54 1;
#X connect 51 0 54 2;
#X connect 52 0 54 3;
#X connect 53 0 54 4;
#X connect 54 0 59 0;
#X connect 55 0 54 5;
#X connect 56 0 59 2;
#X connect 57 0 59 3;
#X connect 58 0 59 4;
#X connect 59 0 11 0;
#X connect 60 0 59 1;
#X connect 61 0 59 5;
#X connect 63 0 62 1;
#X connect 64 0 62 2;
#X connect 65 0 62 3;
#X connect 66 0 62 4;
#X connect 67 0 62 5;
#X connect 68 0 62 6;
#X connect 69 0 62 7;
#X connect 71 0 10 0;
#X connect 71 1 9 0;
#X connect 71 2 72 0;
#X connect 71 3 38 0;
#X connect 72 0 73 0;
#X connect 74 0 9 5;
#X connect 75 0 12 5;
