#N canvas 113 115 1689 978 16;
#X obj 46 179 inlet bang;
#X obj 160 179 inlet dz;
#X obj 693 179 inlet da;
#X obj 978 179 inlet z;
#X obj 1264 179 inlet a;
#X obj 1339 179 inlet activation_number;
#X text 25 12 // dZ^[l] = dA^[l] x g^[l]'(Z^[l]) \; activation number codes \; 1: relu \; 2: tanh \; 3: sigmoid \; 4: linear \;;
#X obj 83 392 list store;
#X obj 616 292 list store;
#X obj 901 292 list store;
#X obj 1187 292 list store;
#X obj 46 939 outlet done;
#X obj 616 337 t b b s s, f 14;
#X obj 616 375 array size;
#X obj 743 758 array get;
#X obj 595 449 f 1;
#X obj 595 477 until;
#X obj 595 515 f;
#X obj 633 526 + 1;
#X obj 743 939 array set, f 18;
#X obj 839 758 array get, f 16;
#X obj 743 870 *;
#X msg 777 722 1;
#X obj 901 338 t b s, f 9;
#X msg 901 727 1;
#X obj 1187 340 t b s, f 9;
#X obj 595 583 t f f f f, f 106;
#X obj 1053 758 array get, f 17;
#X msg 1119 728 1;
#X obj 839 800 expr if($f3 == 1 \, if($f1 >= 0 \, 1 \, 0) \, if($f3 == 2 \, 1 - pow($f2 \, 2) \, if($f3 == 3 \, $f2 * (1 - $f2) \, $f1)));
#X obj 46 207 t b b;
#X msg 648 477 0;
#X obj 46 235 t b b b b b, f 143;
#X obj 531 404 t b b, f 15;
#X connect 0 0 30 0;
#X connect 1 0 7 1;
#X connect 2 0 8 1;
#X connect 3 0 9 1;
#X connect 4 0 10 1;
#X connect 5 0 29 2;
#X connect 7 0 19 2;
#X connect 8 0 12 0;
#X connect 9 0 23 0;
#X connect 10 0 25 0;
#X connect 12 0 13 0;
#X connect 12 1 22 0;
#X connect 12 2 13 1;
#X connect 12 3 14 2;
#X connect 13 0 15 1;
#X connect 14 0 21 0;
#X connect 15 0 16 0;
#X connect 16 0 17 0;
#X connect 17 0 18 0;
#X connect 17 0 26 0;
#X connect 18 0 17 1;
#X connect 20 0 29 0;
#X connect 21 0 19 0;
#X connect 22 0 14 1;
#X connect 23 0 24 0;
#X connect 23 1 20 2;
#X connect 24 0 20 1;
#X connect 25 0 28 0;
#X connect 25 1 27 2;
#X connect 26 0 14 0;
#X connect 26 1 20 0;
#X connect 26 2 27 0;
#X connect 26 3 19 1;
#X connect 27 0 29 1;
#X connect 28 0 27 1;
#X connect 29 0 21 1;
#X connect 30 0 32 0;
#X connect 30 1 7 0;
#X connect 31 0 17 1;
#X connect 32 0 11 0;
#X connect 32 1 33 0;
#X connect 32 2 8 0;
#X connect 32 3 9 0;
#X connect 32 4 10 0;
#X connect 33 0 15 0;
#X connect 33 1 31 0;
