#N canvas 1888 189 1788 1186 16;
#X obj 166 122 inlet bang;
#X obj 1126 1061 array set, f 37;
#X obj 166 906 outlet done;
#X obj 551 916 /;
#X obj 762 704 t b s s;
#X obj 762 754 array size;
#X obj 551 823 nn.element_wise_product, f 30;
#X obj 523 596 list store;
#X obj 762 596 list store;
#N canvas 1205 508 560 588 dw_iterator 0;
#X obj 147 26 inlet init;
#X obj 263 26 inlet symbol;
#X obj 263 146 array size;
#X obj 242 221 f;
#X obj 242 249 until;
#X obj 242 307 f;
#X obj 242 335 t f f;
#X obj 309 334 + 1;
#X msg 302 248 0;
#X obj 242 443 outlet index;
#X obj 263 110 t b s;
#X obj 147 54 t b b;
#X connect 0 0 11 0;
#X connect 1 0 10 0;
#X connect 2 0 3 1;
#X connect 3 0 4 0;
#X connect 4 0 5 0;
#X connect 5 0 6 0;
#X connect 6 0 9 0;
#X connect 6 1 7 0;
#X connect 7 0 5 1;
#X connect 8 0 5 1;
#X connect 10 0 2 0;
#X connect 10 1 2 1;
#X connect 11 0 3 0;
#X connect 11 1 8 0;
#X restore 1347 192 pd dw_iterator;
#X obj 166 160 t b b, f 148;
#X msg 1440 502 0;
#X msg 1562 500 1;
#X obj 1419 150 t s s;
#X obj 1347 258 t b b b, f 12;
#X obj 1468 258 t b b b, f 12;
#X obj 1562 588 f;
#X obj 1267 596 b;
#X obj 334 122 inlet dz;
#X obj 600 122 inlet a_prev_0;
#X obj 839 122 inlet a_prev_1;
#X obj 1419 122 inlet dw;
#X text 19 12 // dW = 1/m . dZ^[l]A^[l-1]T \; Calculates dw for a single node. dw shape (1 \, 3);
#X obj 1347 220 sel 0 1 2, f 46;
#X obj 982 596 list store;
#X obj 1059 122 inlet a_prev_3;
#X obj 1590 258 t b b b, f 12;
#X msg 1683 500 2;
#X connect 0 0 10 0;
#X connect 3 0 1 0;
#X connect 4 0 5 0;
#X connect 4 1 6 2;
#X connect 4 2 5 1;
#X connect 5 0 3 1;
#X connect 6 0 3 0;
#X connect 7 0 4 0;
#X connect 8 0 4 0;
#X connect 9 0 23 0;
#X connect 10 0 2 0;
#X connect 10 1 9 0;
#X connect 11 0 16 0;
#X connect 12 0 16 0;
#X connect 13 0 1 2;
#X connect 13 1 9 1;
#X connect 14 0 17 0;
#X connect 14 1 7 0;
#X connect 14 2 11 0;
#X connect 15 0 17 0;
#X connect 15 1 8 0;
#X connect 15 2 12 0;
#X connect 16 0 1 1;
#X connect 17 0 6 0;
#X connect 18 0 6 1;
#X connect 19 0 7 1;
#X connect 20 0 8 1;
#X connect 21 0 13 0;
#X connect 23 0 14 0;
#X connect 23 1 15 0;
#X connect 23 2 26 0;
#X connect 24 0 4 0;
#X connect 25 0 24 1;
#X connect 26 0 17 0;
#X connect 26 1 24 0;
#X connect 26 2 27 0;
#X connect 27 0 16 0;
