#N canvas 4 70 2749 1332 16;
#X obj 547 52 inlet dollar_zero;
#X obj 2534 372 select relu tanh sigmoid linear;
#X msg 2534 405 1;
#X msg 2595 405 2;
#X msg 2656 405 3;
#X msg 2715 405 4;
#X msg 2779 405 0;
#X obj 321 50 inlet bang;
#N canvas 446 308 1782 732 dollar_zero_args 0;
#X obj 75 28 inlet dollar_zero;
#X obj 102 357 list store \$1;
#X obj 230 397 list store \$2;
#X obj 359 437 list store \$3;
#X obj 487 478 list store \$4;
#X obj 102 559 outlet;
#X obj 230 559 outlet;
#X obj 359 559 outlet;
#X obj 487 559 outlet;
#X obj 102 531 d0_safe;
#X obj 230 531 d0_safe;
#X obj 359 531 d0_safe;
#X obj 487 531 d0_safe;
#X obj 616 559 outlet;
#X obj 744 559 outlet;
#X obj 872 559 outlet;
#X obj 1001 559 outlet;
#X obj 616 531 d0_safe;
#X obj 744 531 d0_safe;
#X obj 872 531 d0_safe;
#X obj 1001 531 d0_safe;
#X obj 616 357 list store \$5;
#X obj 744 397 list store \$6;
#X obj 872 437 list store \$7;
#X obj 1001 478 list store \$8;
#X obj 1129 559 outlet;
#X obj 1250 559 outlet;
#X obj 1378 559 outlet;
#X obj 1129 531 d0_safe;
#X obj 1250 531 d0_safe;
#X obj 1378 531 d0_safe;
#X obj 1129 357 list store \$9;
#X obj 1250 397 list store \$10;
#X obj 1378 437 list store \$11;
#X obj 75 99 t b f f f f f f f f f f f, f 193;
#X obj 75 140 t b b b b b b b b b b b, f 155;
#X connect 0 0 34 0;
#X connect 1 0 9 0;
#X connect 2 0 10 0;
#X connect 3 0 11 0;
#X connect 4 0 12 0;
#X connect 9 0 5 0;
#X connect 10 0 6 0;
#X connect 11 0 7 0;
#X connect 12 0 8 0;
#X connect 17 0 13 0;
#X connect 18 0 14 0;
#X connect 19 0 15 0;
#X connect 20 0 16 0;
#X connect 21 0 17 0;
#X connect 22 0 18 0;
#X connect 23 0 19 0;
#X connect 24 0 20 0;
#X connect 28 0 25 0;
#X connect 29 0 26 0;
#X connect 30 0 27 0;
#X connect 31 0 28 0;
#X connect 32 0 29 0;
#X connect 33 0 30 0;
#X connect 34 0 35 0;
#X connect 34 1 9 1;
#X connect 34 2 10 1;
#X connect 34 3 11 1;
#X connect 34 4 12 1;
#X connect 34 5 17 1;
#X connect 34 6 18 1;
#X connect 34 7 19 1;
#X connect 34 8 20 1;
#X connect 34 9 28 1;
#X connect 34 10 29 1;
#X connect 34 11 30 1;
#X connect 35 0 1 0;
#X connect 35 1 2 0;
#X connect 35 2 3 0;
#X connect 35 3 4 0;
#X connect 35 4 21 0;
#X connect 35 5 22 0;
#X connect 35 6 23 0;
#X connect 35 7 24 0;
#X connect 35 8 31 0;
#X connect 35 9 32 0;
#X connect 35 10 33 0;
#X restore 547 196 pd dollar_zero_args;
#X f 262;
#X text 32 28 //layer shape (1 \, 2) \; args \; \$1: symbol dz (1 \, m) \; \$2: symbol da (1 \, m) \; \$3: symbol z (1 \, m) \; \$4: symbol a (1 \, m) \; \$5: symbol dw (1 \, 2) \; \$6: symbol a_prev_0 (1 \, m) \; \$7: symbo a_prev_1 (1 \, m) \; \$8: symbol db (1 \, 1) \; \$9: symbol da_prev_0 (1 \, m) \; \$10: symbol da_prev_1 (1 \, m) \; \$11: symbol w (1 \, 2) \; \$12: symbol activation \; inlets \; 1: bang \; 2: float \$0_ns \;;
#X obj 470 229 list store;
#X obj 679 229 list store;
#X obj 888 229 list store;
#X obj 1097 229 list store;
#X obj 1307 229 list store;
#X obj 1516 229 list store;
#X obj 1725 229 list store;
#X obj 1935 229 list store;
#X obj 2144 229 list store;
#X obj 2353 229 list store;
#X obj 2563 229 list store;
#X obj 500 442 nn.bp.dz_1, f 48;
#X text 556 229 // dz;
#X text 771 223 // da;
#X text 974 229 // z;
#X text 1187 228 // a;
#X text 1397 225 // dw;
#X text 1607 227 // a_prev_0;
#X text 1816 227 // a_prev_1;
#X text 2021 227 // db;
#X text 2228 228 // da_prev_0;
#X text 2437 230 // da_prev_1;
#X text 2649 229 // w;
#X text 2659 336 // activation;
#X obj 2666 484 s \$0_nn.bp_1x2_activation;
#X obj 881 414 r \$0_nn.bp_1x2_activation;
#X obj 321 135 t b b;
#X obj 321 930 outlet done;
#X obj 470 257 s \$0_nn.bp_1x2_dz;
#X obj 679 257 s \$0_nn.bp_1x2_da;
#X obj 888 257 s \$0_nn.bp_1x2_z;
#X obj 1097 257 s \$0_nn.bp_1x2_a;
#X obj 1307 257 s \$0_nn.bp_1x2_dw;
#X obj 1516 257 s \$0_nn.bp_1x2_a_prev_0;
#X obj 1725 285 s \$0_nn.bp_1x2_a_prev_0;
#X obj 1935 257 s \$0_nn.bp_1x2_db;
#X obj 2144 257 s \$0_nn.bp_1x2_da_prev_0;
#X obj 2353 287 s \$0_nn.bp_1x2_da_prev_1;
#X obj 2563 257 s \$0_nn.bp_1x2_w;
#X obj 576 302 r \$0_nn.bp_1x2_dz;
#X obj 652 330 r \$0_nn.bp_1x2_da;
#X obj 728 358 r \$0_nn.bp_1x2_z;
#X obj 804 386 r \$0_nn.bp_1x2_a;
#X obj 2534 342 list store \$12;
#X obj 321 107 t b b b b b b b b b b b b b, f 277;
#X text 846 14 // TODO: make a separate version for the case of MSE loss in the outer layer;
#X obj 500 587 nn.bp.dw_1x2, f 48;
#X obj 595 475 r \$0_nn.bp_1x2_dz;
#X obj 690 503 r \$0_nn.bp_1x2_a_prev_0;
#X obj 881 559 r \$0_nn.bp_1x2_dw;
#X obj 500 676 nn.bp.db_1, f 26;
#X obj 602 620 r \$0_nn.bp_1x2_dz;
#X obj 705 648 r \$0_nn.bp_1x2_db;
#X obj 500 852 nn.bp.da_1x2, f 55;
#X obj 718 768 r \$0_nn.bp_1x2_dz;
#X obj 785 531 r \$0_nn.bp_1x2_a_prev_1;
#X obj 609 740 r \$0_nn.bp_1x2_w;
#X obj 827 796 r \$0_nn.bp_1x2_da_prev_0;
#X obj 937 824 r \$0_nn.bp_1x2_da_prev_1;
#X text 536 408 // TODO: don't trigger if linear;
#X connect 0 0 8 0;
#X connect 1 0 2 0;
#X connect 1 1 3 0;
#X connect 1 2 4 0;
#X connect 1 3 5 0;
#X connect 1 4 6 0;
#X connect 2 0 34 0;
#X connect 3 0 34 0;
#X connect 4 0 34 0;
#X connect 5 0 34 0;
#X connect 6 0 34 0;
#X connect 7 0 54 0;
#X connect 8 0 10 1;
#X connect 8 1 11 1;
#X connect 8 2 12 1;
#X connect 8 3 13 1;
#X connect 8 4 14 1;
#X connect 8 5 15 1;
#X connect 8 6 16 1;
#X connect 8 7 17 1;
#X connect 8 8 18 1;
#X connect 8 9 19 1;
#X connect 8 10 20 1;
#X connect 10 0 38 0;
#X connect 11 0 39 0;
#X connect 12 0 40 0;
#X connect 13 0 41 0;
#X connect 14 0 42 0;
#X connect 15 0 43 0;
#X connect 16 0 44 0;
#X connect 17 0 45 0;
#X connect 18 0 46 0;
#X connect 19 0 47 0;
#X connect 20 0 48 0;
#X connect 21 0 56 0;
#X connect 35 0 21 5;
#X connect 36 0 37 0;
#X connect 36 1 21 0;
#X connect 49 0 21 1;
#X connect 50 0 21 2;
#X connect 51 0 21 3;
#X connect 52 0 21 4;
#X connect 53 0 1 0;
#X connect 54 0 36 0;
#X connect 54 1 10 0;
#X connect 54 2 11 0;
#X connect 54 3 12 0;
#X connect 54 4 13 0;
#X connect 54 5 14 0;
#X connect 54 6 15 0;
#X connect 54 7 16 0;
#X connect 54 8 17 0;
#X connect 54 9 18 0;
#X connect 54 10 19 0;
#X connect 54 11 20 0;
#X connect 54 12 53 0;
#X connect 56 0 60 0;
#X connect 57 0 56 1;
#X connect 58 0 56 2;
#X connect 59 0 56 4;
#X connect 60 0 63 0;
#X connect 61 0 60 1;
#X connect 62 0 60 2;
#X connect 64 0 63 2;
#X connect 65 0 56 3;
#X connect 66 0 63 1;
#X connect 67 0 63 3;
#X connect 68 0 63 4;
