#N canvas 4 271 1697 1182 16;
#X obj 59 166 inlet bang;
#N canvas 1734 699 543 343 array_slice 0;
#X obj 67 81 inlet index;
#X obj 218 84 inlet s_w_1;
#X obj 367 86 inlet s_w_2;
#X obj 186 210 array get;
#X obj 335 210 array get;
#X obj 218 112 t b s;
#X msg 218 140 1;
#X obj 367 114 t b s;
#X msg 367 142 1;
#X obj 67 109 t f f;
#X obj 335 258 outlet w_2;
#X obj 186 258 outlet w_1;
#X connect 0 0 9 0;
#X connect 1 0 5 0;
#X connect 2 0 7 0;
#X connect 3 0 11 0;
#X connect 4 0 10 0;
#X connect 5 0 6 0;
#X connect 5 1 3 2;
#X connect 6 0 3 1;
#X connect 7 0 8 0;
#X connect 7 1 4 2;
#X connect 8 0 4 1;
#X connect 9 0 3 0;
#X connect 9 1 4 0;
#X restore 372 642 pd array_slice;
#X f 23;
#X obj 351 807 *;
#X obj 460 807 *;
#X msg 780 440 1;
#X obj 746 473 array get;
#X msg 994 440 1;
#X obj 960 473 array get;
#X obj 269 330 t b b b, f 13;
#X msg 198 487 0;
#X msg 319 487 1;
#X obj 319 594 f;
#X obj 398 860 +;
#X obj 905 1089 array set;
#X obj 1039 892 list store;
#X obj 1252 892 list store;
#X obj 60 1030 outlet bang;
#X obj 960 207 t b s, f 9;
#X obj 249 194 t s s, f 27;
#N canvas 2652 754 563 442 dz_iterator 0;
#X obj 52 47 inlet trigger;
#X obj 266 75 t b s;
#X obj 266 113 array size;
#X obj 245 201 f;
#X obj 52 75 t b b, f 19;
#X obj 245 229 until;
#X obj 245 267 f;
#X obj 245 295 t f f;
#X obj 245 343 outlet;
#X obj 305 295 + 1;
#X msg 305 229 0;
#X obj 266 47 inlet s_dz_array;
#X connect 0 0 4 0;
#X connect 1 0 2 0;
#X connect 1 1 2 1;
#X connect 2 0 3 1;
#X connect 3 0 5 0;
#X connect 4 0 3 0;
#X connect 4 1 10 0;
#X connect 5 0 6 0;
#X connect 6 0 7 0;
#X connect 7 0 8 0;
#X connect 7 1 9 0;
#X connect 9 0 6 1;
#X connect 10 0 6 1;
#X connect 11 0 1 0;
#X restore 637 341 pd dz_iterator;
#X obj 746 207 t s b s, f 9;
#N canvas 847 644 555 431 w_iterator 0;
#X obj 82 47 inlet trigger;
#X obj 296 47 inlet s_w_array;
#X obj 296 75 t b s;
#X obj 296 113 array size;
#X obj 275 201 f;
#X obj 82 75 t b b, f 19;
#X obj 275 229 until;
#X obj 275 267 f;
#X obj 275 295 t f f;
#X obj 275 343 outlet;
#X obj 335 295 + 1;
#X msg 335 229 0;
#X connect 0 0 5 0;
#X connect 1 0 2 0;
#X connect 2 0 3 0;
#X connect 2 1 3 1;
#X connect 3 0 4 1;
#X connect 4 0 6 0;
#X connect 5 0 4 0;
#X connect 5 1 11 0;
#X connect 6 0 7 0;
#X connect 7 0 8 0;
#X connect 8 0 9 0;
#X connect 8 1 10 0;
#X connect 10 0 7 1;
#X connect 11 0 7 1;
#X restore 148 249 pd w_iterator;
#X obj 148 330 t b b b, f 13;
#X obj 269 432 b;
#X obj 637 374 t f f f, f 38;
#X obj 59 194 t b b, f 10;
#X obj 249 166 inlet w_0;
#X obj 553 166 inlet w_1;
#X obj 746 166 inlet dz_0;
#X obj 960 166 inlet dz_1;
#X obj 1116 166 inlet da_prev_0;
#X obj 1328 166 inlet da_prev_1;
#X text 26 15 // dA^[l-1] = W^[l]T . dZ^[l] \; Calculates 3 da_prev arrays for layers with the shape (2 \, 3) \;;
#X obj 1452 892 list store;
#X obj 1528 166 inlet da_prev_2;
#X obj 148 282 sel 0 1 2, f 46;
#X obj 391 330 t b b b, f 13;
#X msg 441 487 2;
#X connect 0 0 25 0;
#X connect 1 0 2 1;
#X connect 1 1 3 1;
#X connect 2 0 12 0;
#X connect 3 0 12 1;
#X connect 4 0 5 1;
#X connect 5 0 2 0;
#X connect 6 0 7 1;
#X connect 7 0 3 0;
#X connect 8 0 23 0;
#X connect 8 1 10 0;
#X connect 8 2 15 0;
#X connect 9 0 11 0;
#X connect 10 0 11 0;
#X connect 11 0 1 0;
#X connect 12 0 13 0;
#X connect 14 0 13 2;
#X connect 15 0 13 2;
#X connect 17 0 6 0;
#X connect 17 1 7 2;
#X connect 18 0 21 1;
#X connect 18 1 1 1;
#X connect 19 0 24 0;
#X connect 20 0 19 1;
#X connect 20 1 4 0;
#X connect 20 2 5 2;
#X connect 21 0 35 0;
#X connect 22 0 23 0;
#X connect 22 1 9 0;
#X connect 22 2 14 0;
#X connect 23 0 19 0;
#X connect 24 0 5 0;
#X connect 24 1 7 0;
#X connect 24 2 13 1;
#X connect 25 0 16 0;
#X connect 25 1 21 0;
#X connect 26 0 18 0;
#X connect 27 0 1 2;
#X connect 28 0 20 0;
#X connect 29 0 17 0;
#X connect 30 0 14 1;
#X connect 31 0 15 1;
#X connect 33 0 13 2;
#X connect 34 0 33 1;
#X connect 35 0 22 0;
#X connect 35 1 8 0;
#X connect 35 2 36 0;
#X connect 36 0 23 0;
#X connect 36 1 37 0;
#X connect 36 2 33 0;
#X connect 37 0 11 0;
