#N canvas 363 210 1351 1117 16;
#X obj 166 122 inlet bang;
#X obj 551 1061 array set, f 37;
#X obj 166 906 outlet done;
#X obj 551 916 /;
#X obj 762 704 t b s s;
#X obj 762 754 array size;
#X obj 551 823 nn.element_wise_product, f 30;
#X obj 523 596 list store;
#X obj 762 596 list store;
#N canvas 1779 696 560 588 dw_iterator 0;
#X obj 147 26 inlet init;
#X obj 263 26 inlet symbol;
#X obj 263 146 array size;
#X obj 242 221 f;
#X obj 242 249 until;
#X obj 242 307 f;
#X obj 242 335 t f f;
#X obj 309 334 + 1;
#X msg 302 248 0;
#X obj 242 443 outlet index;
#X obj 263 110 t b s;
#X obj 147 54 t b b;
#X connect 0 0 11 0;
#X connect 1 0 10 0;
#X connect 2 0 3 1;
#X connect 3 0 4 0;
#X connect 4 0 5 0;
#X connect 5 0 6 0;
#X connect 6 0 9 0;
#X connect 6 1 7 0;
#X connect 7 0 5 1;
#X connect 8 0 5 1;
#X connect 10 0 2 0;
#X connect 10 1 2 1;
#X connect 11 0 3 0;
#X connect 11 1 8 0;
#X restore 1027 192 pd dw_iterator;
#X obj 166 160 t b b, f 108;
#X obj 1027 220 sel 0 1, f 31;
#X msg 1080 502 0;
#X msg 1202 500 1;
#X obj 1099 150 t s s;
#X obj 1027 258 t b b b;
#X obj 1149 258 t b b b;
#X obj 1145 588 f;
#X obj 551 741 b;
#X obj 334 122 inlet dz;
#X obj 600 122 inlet a_prev_0;
#X obj 839 122 inlet a_prev_1;
#X obj 1099 122 inlet dw;
#X text 19 12 // dW = 1/m . dZ^[l]A^[l-1]T \; layer shape (1 \, 2);
#X connect 0 0 10 0;
#X connect 3 0 1 0;
#X connect 4 0 5 0;
#X connect 4 1 6 2;
#X connect 4 2 5 1;
#X connect 5 0 3 1;
#X connect 6 0 3 0;
#X connect 7 0 4 0;
#X connect 8 0 4 0;
#X connect 9 0 11 0;
#X connect 10 0 2 0;
#X connect 10 1 9 0;
#X connect 11 0 15 0;
#X connect 11 1 16 0;
#X connect 12 0 17 0;
#X connect 13 0 17 0;
#X connect 14 0 1 2;
#X connect 14 1 9 1;
#X connect 15 0 18 0;
#X connect 15 1 7 0;
#X connect 15 2 12 0;
#X connect 16 0 18 0;
#X connect 16 1 8 0;
#X connect 16 2 13 0;
#X connect 17 0 1 1;
#X connect 18 0 6 0;
#X connect 19 0 6 1;
#X connect 20 0 7 1;
#X connect 21 0 8 1;
#X connect 22 0 14 0;
