#N canvas 12 70 2772 1427 16;
#X text 1514 148 //layer shape (2 \, 2) \; args \; \$1: symbol dz_0 (1 \, m) \; \$2: symbol dz_1 (1 \, m) \; \$3: symbol da_0 (1 \, m) \; \$4: symbol da_1 (1 \, m) \; \$5: symbol z_0 (1 \, m) \; \$6: symbol z_1 (1 \, m) \; \$7: symbol a_0 (1 \, m) \; \$8: symbol a_1 (1 \, m) \; \$9: symbol dw_0 (1 \, 2) \; \$10: symbol dw_1 (1 \, 2) \; \$11: symbol a_prev_0 (1 \, m) \; \$12: symbo a_prev_1 (1 \, m) \; \$13: symbol db_0 (1 \, 1) \; \$14: symbol db_1 (1 \, 1) \; \$15: symbol da_prev_0 (1 \, m) \; \$16: symbol da_prev_1 (1 \, m) \; \$17: symbol w_0 (1 \, 2) \; \$18: symbol w_1 (1 \, 2) \; \$19: symbol activation \; inlets \; 1: bang \; 2: float \$0_ns \;;
#X obj 1770 140 inlet dollar_zero;
#X obj 338 105 select relu tanh sigmoid linear;
#X msg 338 138 1;
#X msg 399 138 2;
#X msg 460 138 3;
#X msg 519 138 4;
#X msg 583 138 0;
#X obj 141 10 inlet bang;
#N canvas 478 118 2108 735 dollar_zero_args 0;
#X obj 35 18 inlet dollar_zero;
#X obj 54 235 list store \$1;
#X obj 54 319 outlet;
#X obj 54 291 d0_safe;
#X obj 88 74 s \$0_nn.bp_2x2_d0_f;
#X obj 35 102 s \$0_nn.bp_2x2_d0_b;
#X obj 107 263 r \$0_nn.bp_2x2_d0_f;
#X obj 54 207 r \$0_nn.bp_2x2_d0_b;
#X obj 35 46 t b f, f 7;
#X obj 274 319 outlet;
#X obj 274 291 d0_safe;
#X obj 327 263 r \$0_nn.bp_2x2_d0_f;
#X obj 274 207 r \$0_nn.bp_2x2_d0_b;
#X obj 274 235 list store \$2;
#X obj 494 319 outlet;
#X obj 494 291 d0_safe;
#X obj 547 263 r \$0_nn.bp_2x2_d0_f;
#X obj 494 207 r \$0_nn.bp_2x2_d0_b;
#X obj 714 319 outlet;
#X obj 714 291 d0_safe;
#X obj 767 263 r \$0_nn.bp_2x2_d0_f;
#X obj 714 207 r \$0_nn.bp_2x2_d0_b;
#X obj 494 235 list store \$3;
#X obj 714 235 list store \$4;
#X obj 934 319 outlet;
#X obj 934 291 d0_safe;
#X obj 987 263 r \$0_nn.bp_2x2_d0_f;
#X obj 934 207 r \$0_nn.bp_2x2_d0_b;
#X obj 1154 319 outlet;
#X obj 1154 291 d0_safe;
#X obj 1207 263 r \$0_nn.bp_2x2_d0_f;
#X obj 1154 207 r \$0_nn.bp_2x2_d0_b;
#X obj 1374 319 outlet;
#X obj 1374 291 d0_safe;
#X obj 1427 263 r \$0_nn.bp_2x2_d0_f;
#X obj 1374 207 r \$0_nn.bp_2x2_d0_b;
#X obj 1594 319 outlet;
#X obj 1594 291 d0_safe;
#X obj 1647 263 r \$0_nn.bp_2x2_d0_f;
#X obj 1594 207 r \$0_nn.bp_2x2_d0_b;
#X obj 934 235 list store \$5;
#X obj 1154 235 list store \$6;
#X obj 1374 235 list store \$7;
#X obj 1594 235 list store \$8;
#X obj 1814 319 outlet;
#X obj 1814 291 d0_safe;
#X obj 1867 263 r \$0_nn.bp_2x2_d0_f;
#X obj 1814 207 r \$0_nn.bp_2x2_d0_b;
#X obj 1814 235 list store \$9;
#X obj 54 479 outlet;
#X obj 54 451 d0_safe;
#X obj 107 423 r \$0_nn.bp_2x2_d0_f;
#X obj 54 367 r \$0_nn.bp_2x2_d0_b;
#X obj 274 479 outlet;
#X obj 274 451 d0_safe;
#X obj 327 423 r \$0_nn.bp_2x2_d0_f;
#X obj 274 367 r \$0_nn.bp_2x2_d0_b;
#X obj 494 479 outlet;
#X obj 494 451 d0_safe;
#X obj 547 423 r \$0_nn.bp_2x2_d0_f;
#X obj 494 367 r \$0_nn.bp_2x2_d0_b;
#X obj 714 479 outlet;
#X obj 714 451 d0_safe;
#X obj 767 423 r \$0_nn.bp_2x2_d0_f;
#X obj 714 367 r \$0_nn.bp_2x2_d0_b;
#X obj 934 479 outlet;
#X obj 934 451 d0_safe;
#X obj 987 423 r \$0_nn.bp_2x2_d0_f;
#X obj 934 367 r \$0_nn.bp_2x2_d0_b;
#X obj 1154 479 outlet;
#X obj 1154 451 d0_safe;
#X obj 1207 423 r \$0_nn.bp_2x2_d0_f;
#X obj 1154 367 r \$0_nn.bp_2x2_d0_b;
#X obj 1374 479 outlet;
#X obj 1374 451 d0_safe;
#X obj 1427 423 r \$0_nn.bp_2x2_d0_f;
#X obj 1374 367 r \$0_nn.bp_2x2_d0_b;
#X obj 1594 479 outlet;
#X obj 1594 451 d0_safe;
#X obj 1647 423 r \$0_nn.bp_2x2_d0_f;
#X obj 1594 367 r \$0_nn.bp_2x2_d0_b;
#X obj 1814 479 outlet;
#X obj 1814 451 d0_safe;
#X obj 1867 423 r \$0_nn.bp_2x2_d0_f;
#X obj 1814 367 r \$0_nn.bp_2x2_d0_b;
#X obj 54 395 list store \$10;
#X obj 274 395 list store \$11;
#X obj 494 395 list store \$12;
#X obj 714 395 list store \$13;
#X obj 934 395 list store \$14;
#X obj 1154 395 list store \$15;
#X obj 1374 395 list store \$16;
#X obj 1594 395 list store \$17;
#X obj 1814 395 list store \$18;
#X connect 0 0 8 0;
#X connect 1 0 3 0;
#X connect 3 0 2 0;
#X connect 6 0 3 1;
#X connect 7 0 1 0;
#X connect 8 0 5 0;
#X connect 8 1 4 0;
#X connect 10 0 9 0;
#X connect 11 0 10 1;
#X connect 12 0 13 0;
#X connect 13 0 10 0;
#X connect 15 0 14 0;
#X connect 16 0 15 1;
#X connect 17 0 22 0;
#X connect 19 0 18 0;
#X connect 20 0 19 1;
#X connect 21 0 23 0;
#X connect 22 0 15 0;
#X connect 23 0 19 0;
#X connect 25 0 24 0;
#X connect 26 0 25 1;
#X connect 27 0 40 0;
#X connect 29 0 28 0;
#X connect 30 0 29 1;
#X connect 31 0 41 0;
#X connect 33 0 32 0;
#X connect 34 0 33 1;
#X connect 35 0 42 0;
#X connect 37 0 36 0;
#X connect 38 0 37 1;
#X connect 39 0 43 0;
#X connect 40 0 25 0;
#X connect 41 0 29 0;
#X connect 42 0 33 0;
#X connect 43 0 37 0;
#X connect 45 0 44 0;
#X connect 46 0 45 1;
#X connect 47 0 48 0;
#X connect 48 0 45 0;
#X connect 50 0 49 0;
#X connect 51 0 50 1;
#X connect 52 0 85 0;
#X connect 54 0 53 0;
#X connect 55 0 54 1;
#X connect 56 0 86 0;
#X connect 58 0 57 0;
#X connect 59 0 58 1;
#X connect 60 0 87 0;
#X connect 62 0 61 0;
#X connect 63 0 62 1;
#X connect 64 0 88 0;
#X connect 66 0 65 0;
#X connect 67 0 66 1;
#X connect 68 0 89 0;
#X connect 70 0 69 0;
#X connect 71 0 70 1;
#X connect 72 0 90 0;
#X connect 74 0 73 0;
#X connect 75 0 74 1;
#X connect 76 0 91 0;
#X connect 78 0 77 0;
#X connect 79 0 78 1;
#X connect 80 0 92 0;
#X connect 82 0 81 0;
#X connect 83 0 82 1;
#X connect 84 0 93 0;
#X connect 85 0 50 0;
#X connect 86 0 54 0;
#X connect 87 0 58 0;
#X connect 88 0 62 0;
#X connect 89 0 66 0;
#X connect 90 0 70 0;
#X connect 91 0 74 0;
#X connect 92 0 78 0;
#X connect 93 0 82 0;
#X restore 1770 173 pd dollar_zero_args;
#X f 47;
#X obj 239 390 nn.bp.dz_1, f 48;
#X obj 142 1281 outlet done;
#X obj 239 708 nn.bp.dw_1x2, f 48;
#X obj 239 947 nn.bp.db_1, f 26;
#X obj 141 42 t b b b, f 25;
#X obj 338 75 list store \$19;
#X obj 2143 206 s \$0_nn.bp_2x2_dz_0;
#X obj 2121 236 s \$0_nn.bp_2x2_dz_1;
#X obj 2099 266 s \$0_nn.bp_2x2_da_0;
#X obj 2077 296 s \$0_nn.bp_2x2_da_1;
#X obj 2055 326 s \$0_nn.bp_2x2_z_0;
#X obj 2033 356 s \$0_nn.bp_2x2_z_1;
#X obj 2011 386 s \$0_nn.bp_2x2_a_0;
#X obj 1989 416 s \$0_nn.bp_2x2_a_1;
#X obj 1967 446 s \$0_nn.bp_2x2_dw_0;
#X obj 1945 476 s \$0_nn.bp_2x2_dw_1;
#X obj 1923 506 s \$0_nn.bp_2x2_a_prev_0;
#X obj 1901 536 s \$0_nn.bp_2x2_a_prev_1;
#X obj 1879 566 s \$0_nn.bp_2x2_db_0;
#X obj 1857 596 s \$0_nn.bp_2x2_db_1;
#X obj 1835 626 s \$0_nn.bp_2x2_da_prev_0;
#X obj 1813 656 s \$0_nn.bp_2x2_da_prev_1;
#X obj 1791 686 s \$0_nn.bp_2x2_w_0;
#X obj 1770 716 s \$0_nn.bp_2x2_w_1;
#X obj 470 217 s \$0_nn.bp_2x2_activation;
#X obj 1479 697 r \$0_nn.bp_2x2_dz_0;
#X obj 1489 727 r \$0_nn.bp_2x2_dz_1;
#X obj 1499 757 r \$0_nn.bp_2x2_da_0;
#X obj 1509 787 r \$0_nn.bp_2x2_da_1;
#X obj 1520 816 r \$0_nn.bp_2x2_z_0;
#X obj 1529 847 r \$0_nn.bp_2x2_z_1;
#X obj 1539 877 r \$0_nn.bp_2x2_a_0;
#X obj 1549 907 r \$0_nn.bp_2x2_a_1;
#X obj 1560 937 r \$0_nn.bp_2x2_dw_0;
#X obj 1569 967 r \$0_nn.bp_2x2_dw_1;
#X obj 1579 997 r \$0_nn.bp_2x2_a_prev_0;
#X obj 1589 1027 r \$0_nn.bp_2x2_a_prev_1;
#X obj 1599 1057 r \$0_nn.bp_2x2_db_0;
#X obj 1609 1087 r \$0_nn.bp_2x2_db_1;
#X obj 1619 1117 r \$0_nn.bp_2x2_da_prev_0;
#X obj 1629 1147 r \$0_nn.bp_2x2_da_prev_1;
#X obj 1639 1177 r \$0_nn.bp_2x2_w_0;
#X obj 1649 1207 r \$0_nn.bp_2x2_w_1;
#X obj 620 362 r \$0_nn.bp_2x2_activation;
#X obj 315 250 r \$0_nn.bp_2x2_da_0;
#X obj 391 278 r \$0_nn.bp_2x2_z_0;
#X obj 467 306 r \$0_nn.bp_2x2_a_0;
#X obj 543 334 r \$0_nn.bp_2x2_dz_0;
#X obj 239 563 nn.bp.dz_1, f 48;
#X obj 620 535 r \$0_nn.bp_2x2_activation;
#X obj 315 423 r \$0_nn.bp_2x2_da_1;
#X obj 391 451 r \$0_nn.bp_2x2_z_1;
#X obj 467 479 r \$0_nn.bp_2x2_a_1;
#X obj 543 507 r \$0_nn.bp_2x2_dz_1;
#X obj 334 596 r \$0_nn.bp_2x2_dz_0;
#X obj 429 624 r \$0_nn.bp_2x2_a_prev_0;
#X obj 524 652 r \$0_nn.bp_2x2_a_prev_1;
#X obj 620 680 r \$0_nn.bp_2x2_dw_0;
#X obj 239 858 nn.bp.dw_1x2, f 48;
#X obj 429 774 r \$0_nn.bp_2x2_a_prev_0;
#X obj 524 802 r \$0_nn.bp_2x2_a_prev_1;
#X obj 334 746 r \$0_nn.bp_2x2_dz_1;
#X obj 620 830 r \$0_nn.bp_2x2_dw_1;
#X obj 341 891 r \$0_nn.bp_2x2_dz_0;
#X obj 444 919 r \$0_nn.bp_2x2_db_0;
#X obj 239 1036 nn.bp.db_1, f 26;
#X obj 341 980 r \$0_nn.bp_2x2_dz_1;
#X obj 444 1008 r \$0_nn.bp_2x2_db_1;
#X obj 239 1238 nn.bp.da_2x2, f 55;
#X obj 311 1069 r \$0_nn.bp_2x2_w_0;
#X obj 384 1097 r \$0_nn.bp_2x2_w_1;
#X obj 457 1125 r \$0_nn.bp_2x2_dz_0;
#X obj 530 1153 r \$0_nn.bp_2x2_dz_1;
#X obj 603 1181 r \$0_nn.bp_2x2_da_prev_0;
#X obj 676 1209 r \$0_nn.bp_2x2_da_prev_1;
#X connect 1 0 9 0;
#X connect 2 0 3 0;
#X connect 2 1 4 0;
#X connect 2 2 5 0;
#X connect 2 3 6 0;
#X connect 2 4 7 0;
#X connect 3 0 34 0;
#X connect 4 0 34 0;
#X connect 5 0 34 0;
#X connect 6 0 34 0;
#X connect 7 0 34 0;
#X connect 8 0 14 0;
#X connect 9 0 33 0;
#X connect 9 1 32 0;
#X connect 9 2 31 0;
#X connect 9 3 30 0;
#X connect 9 4 29 0;
#X connect 9 5 28 0;
#X connect 9 6 27 0;
#X connect 9 7 26 0;
#X connect 9 8 25 0;
#X connect 9 9 24 0;
#X connect 9 10 23 0;
#X connect 9 11 22 0;
#X connect 9 12 21 0;
#X connect 9 13 20 0;
#X connect 9 14 19 0;
#X connect 9 15 18 0;
#X connect 9 16 17 0;
#X connect 9 17 16 0;
#X connect 10 0 58 0;
#X connect 12 0 68 0;
#X connect 13 0 75 0;
#X connect 14 0 11 0;
#X connect 14 1 10 0;
#X connect 14 2 15 0;
#X connect 15 0 2 0;
#X connect 53 0 10 5;
#X connect 54 0 10 1;
#X connect 55 0 10 2;
#X connect 56 0 10 3;
#X connect 57 0 10 4;
#X connect 58 0 12 0;
#X connect 59 0 58 5;
#X connect 60 0 58 1;
#X connect 61 0 58 2;
#X connect 62 0 58 3;
#X connect 63 0 58 4;
#X connect 64 0 12 1;
#X connect 65 0 12 2;
#X connect 66 0 12 3;
#X connect 67 0 12 4;
#X connect 68 0 13 0;
#X connect 69 0 68 2;
#X connect 70 0 68 3;
#X connect 71 0 68 1;
#X connect 72 0 68 4;
#X connect 73 0 13 1;
#X connect 74 0 13 2;
#X connect 75 0 78 0;
#X connect 76 0 75 1;
#X connect 77 0 75 2;
#X connect 79 0 78 1;
#X connect 80 0 78 2;
#X connect 81 0 78 3;
#X connect 82 0 78 4;
#X connect 83 0 78 5;
#X connect 84 0 78 6;
