#N canvas 0 66 3440 1340 16;
#X obj 547 52 inlet dollar_zero;
#X obj 2640 257 select relu tanh sigmoid linear;
#X obj 2640 229 symbol;
#X msg 2640 290 1;
#X msg 2701 290 2;
#X msg 2762 290 3;
#X msg 2821 290 4;
#X msg 2885 290 0;
#X obj 2563 362 list store;
#X obj 321 50 inlet bang;
#N canvas 345 102 1782 732 dollar_zero_args 0;
#X obj 75 28 inlet dollar_zero;
#X obj 102 357 list store \$1;
#X obj 230 397 list store \$2;
#X obj 359 437 list store \$3;
#X obj 487 478 list store \$4;
#X obj 102 559 outlet;
#X obj 230 559 outlet;
#X obj 359 559 outlet;
#X obj 487 559 outlet;
#X obj 102 531 d0_safe;
#X obj 230 531 d0_safe;
#X obj 359 531 d0_safe;
#X obj 487 531 d0_safe;
#X obj 616 559 outlet;
#X obj 744 559 outlet;
#X obj 872 559 outlet;
#X obj 1001 559 outlet;
#X obj 616 531 d0_safe;
#X obj 744 531 d0_safe;
#X obj 872 531 d0_safe;
#X obj 1001 531 d0_safe;
#X obj 616 357 list store \$5;
#X obj 744 397 list store \$6;
#X obj 872 437 list store \$7;
#X obj 1001 478 list store \$8;
#X obj 1129 559 outlet;
#X obj 1250 559 outlet;
#X obj 1378 559 outlet;
#X obj 1507 559 outlet;
#X obj 1129 531 d0_safe;
#X obj 1250 531 d0_safe;
#X obj 1378 531 d0_safe;
#X obj 1507 531 d0_safe;
#X obj 1129 357 list store \$9;
#X obj 1250 397 list store \$10;
#X obj 1378 437 list store \$11;
#X obj 1507 478 list store \$12;
#X obj 75 99 t b f f f f f f f f f f f f, f 193;
#X obj 75 140 t b b b b b b b b b b b b, f 155;
#X connect 0 0 37 0;
#X connect 1 0 9 0;
#X connect 2 0 10 0;
#X connect 3 0 11 0;
#X connect 4 0 12 0;
#X connect 9 0 5 0;
#X connect 10 0 6 0;
#X connect 11 0 7 0;
#X connect 12 0 8 0;
#X connect 17 0 13 0;
#X connect 18 0 14 0;
#X connect 19 0 15 0;
#X connect 20 0 16 0;
#X connect 21 0 17 0;
#X connect 22 0 18 0;
#X connect 23 0 19 0;
#X connect 24 0 20 0;
#X connect 29 0 25 0;
#X connect 30 0 26 0;
#X connect 31 0 27 0;
#X connect 32 0 28 0;
#X connect 33 0 29 0;
#X connect 34 0 30 0;
#X connect 35 0 31 0;
#X connect 36 0 32 0;
#X connect 37 0 38 0;
#X connect 37 1 1 1;
#X connect 37 2 2 1;
#X connect 37 3 3 1;
#X connect 37 4 4 1;
#X connect 37 5 21 1;
#X connect 37 6 22 1;
#X connect 37 7 23 1;
#X connect 37 8 24 1;
#X connect 37 9 33 1;
#X connect 37 10 34 1;
#X connect 37 11 35 1;
#X connect 37 12 36 1;
#X connect 38 0 1 0;
#X connect 38 1 2 0;
#X connect 38 2 3 0;
#X connect 38 3 4 0;
#X connect 38 4 21 0;
#X connect 38 5 22 0;
#X connect 38 6 23 0;
#X connect 38 7 24 0;
#X connect 38 8 33 0;
#X connect 38 9 34 0;
#X connect 38 10 35 0;
#X connect 38 11 36 0;
#X restore 547 196 pd dollar_zero_args;
#X f 262;
#X text 32 28 //layer shape (1 \, 2) \; args \; \$1: symbol dz (1 \, m) \; \$2: symbol da (1 \, m) \; \$3: symbol z (1 \, m) \; \$4: symbol a (1 \, m) \; \$5: symbol dw (1 \, 2) \; \$6: symbol a_prev_0 (1 \, m) \; \$7: symbo a_prev_1 (1 \, m) \; \$8: symbol db (1 \, 1) \; \$9: symbol da_prev_0 (1 \, m) \; \$10: symbol da_prev_1 (1 \, m) \; \$11: symbol w (1 \, 2) \; \$12: symbol activation \; inlets \; 1: bang \; 2: float \$0_ns \;;
#X obj 470 229 list store;
#X obj 660 229 list store;
#X obj 850 229 list store;
#X obj 1040 229 list store;
#X obj 1231 229 list store;
#X obj 1421 229 list store;
#X obj 1611 229 list store;
#X obj 1801 229 list store;
#X obj 1992 229 list store;
#X obj 2182 229 list store;
#X obj 2372 229 list store;
#X obj 470 372 nn.bp.dz_1, f 76;
#X obj 470 257 t s s s;
#X obj 660 257 t s s s;
#X obj 850 257 t s s s;
#X obj 1040 257 t s s s;
#X obj 1231 257 t s s s;
#X obj 1421 257 t s s s;
#X obj 1611 257 t s s s;
#X text 556 229 // dz;
#X text 752 223 // da;
#X text 936 229 // z;
#X text 1130 228 // a;
#X text 1321 225 // dw;
#X text 1512 227 // a_prev_0;
#X text 1702 227 // a_prev_1;
#X text 1887 227 // db;
#X text 2076 228 // da_prev_0;
#X text 2266 230 // da_prev_1;
#X text 2458 229 // w;
#X text 2702 228 // activation;
#X obj 2563 390 s \$0_nn.bp_1x2_activation;
#X obj 1075 344 r \$0_nn.bp_1x2_activation;
#X obj 321 107 t b b b b b b b b b b b b b, f 277;
#X obj 321 135 t b b;
#X obj 321 660 outlet done;
#X connect 0 0 10 0;
#X connect 1 0 3 0;
#X connect 1 1 4 0;
#X connect 1 2 5 0;
#X connect 1 3 6 0;
#X connect 1 4 7 0;
#X connect 2 0 1 0;
#X connect 3 0 8 1;
#X connect 4 0 8 1;
#X connect 5 0 8 1;
#X connect 6 0 8 1;
#X connect 7 0 8 1;
#X connect 8 0 43 0;
#X connect 9 0 45 0;
#X connect 10 0 12 1;
#X connect 10 1 13 1;
#X connect 10 2 14 1;
#X connect 10 3 15 1;
#X connect 10 4 16 1;
#X connect 10 5 17 1;
#X connect 10 6 18 1;
#X connect 10 7 19 1;
#X connect 10 8 20 1;
#X connect 10 9 21 1;
#X connect 10 10 22 1;
#X connect 10 11 2 0;
#X connect 12 0 24 0;
#X connect 13 0 25 0;
#X connect 14 0 26 0;
#X connect 15 0 27 0;
#X connect 16 0 28 0;
#X connect 17 0 29 0;
#X connect 18 0 30 0;
#X connect 24 2 23 1;
#X connect 25 2 23 2;
#X connect 26 2 23 3;
#X connect 27 2 23 4;
#X connect 44 0 23 5;
#X connect 45 0 46 0;
#X connect 45 1 12 0;
#X connect 45 2 13 0;
#X connect 45 3 14 0;
#X connect 45 4 15 0;
#X connect 45 5 16 0;
#X connect 45 6 17 0;
#X connect 45 7 18 0;
#X connect 45 8 19 0;
#X connect 45 9 20 0;
#X connect 45 10 21 0;
#X connect 45 11 22 0;
#X connect 45 12 8 0;
#X connect 46 0 47 0;
#X connect 46 1 23 0;
