#N canvas 1584 231 1835 1003 16;
#X obj 1207 50 inlet dollar_zero;
#X obj 389 92 select relu tanh sigmoid linear;
#X msg 389 125 1;
#X msg 450 125 2;
#X msg 511 125 3;
#X msg 570 125 4;
#X msg 634 125 0;
#X obj 51 30 inlet bang;
#N canvas 469 586 1782 732 dollar_zero_args 0;
#X obj 75 28 inlet dollar_zero;
#X obj 102 357 list store \$1;
#X obj 230 397 list store \$2;
#X obj 359 437 list store \$3;
#X obj 487 478 list store \$4;
#X obj 102 559 outlet;
#X obj 230 559 outlet;
#X obj 359 559 outlet;
#X obj 487 559 outlet;
#X obj 102 531 d0_safe;
#X obj 230 531 d0_safe;
#X obj 359 531 d0_safe;
#X obj 487 531 d0_safe;
#X obj 616 559 outlet;
#X obj 744 559 outlet;
#X obj 872 559 outlet;
#X obj 1001 559 outlet;
#X obj 616 531 d0_safe;
#X obj 744 531 d0_safe;
#X obj 872 531 d0_safe;
#X obj 1001 531 d0_safe;
#X obj 616 357 list store \$5;
#X obj 744 397 list store \$6;
#X obj 872 437 list store \$7;
#X obj 1001 478 list store \$8;
#X obj 1129 559 outlet;
#X obj 1250 559 outlet;
#X obj 1378 559 outlet;
#X obj 1129 531 d0_safe;
#X obj 1250 531 d0_safe;
#X obj 1378 531 d0_safe;
#X obj 1129 357 list store \$9;
#X obj 1250 397 list store \$10;
#X obj 1378 437 list store \$11;
#X obj 75 99 t b f f f f f f f f f f f, f 193;
#X obj 75 140 t b b b b b b b b b b b, f 155;
#X connect 0 0 34 0;
#X connect 1 0 9 0;
#X connect 2 0 10 0;
#X connect 3 0 11 0;
#X connect 4 0 12 0;
#X connect 9 0 5 0;
#X connect 10 0 6 0;
#X connect 11 0 7 0;
#X connect 12 0 8 0;
#X connect 17 0 13 0;
#X connect 18 0 14 0;
#X connect 19 0 15 0;
#X connect 20 0 16 0;
#X connect 21 0 17 0;
#X connect 22 0 18 0;
#X connect 23 0 19 0;
#X connect 24 0 20 0;
#X connect 28 0 25 0;
#X connect 29 0 26 0;
#X connect 30 0 27 0;
#X connect 31 0 28 0;
#X connect 32 0 29 0;
#X connect 33 0 30 0;
#X connect 34 0 35 0;
#X connect 34 1 9 1;
#X connect 34 2 10 1;
#X connect 34 3 11 1;
#X connect 34 4 12 1;
#X connect 34 5 17 1;
#X connect 34 6 18 1;
#X connect 34 7 19 1;
#X connect 34 8 20 1;
#X connect 34 9 28 1;
#X connect 34 10 29 1;
#X connect 34 11 30 1;
#X connect 35 0 1 0;
#X connect 35 1 2 0;
#X connect 35 2 3 0;
#X connect 35 3 4 0;
#X connect 35 4 21 0;
#X connect 35 5 22 0;
#X connect 35 6 23 0;
#X connect 35 7 24 0;
#X connect 35 8 31 0;
#X connect 35 9 32 0;
#X connect 35 10 33 0;
#X restore 1207 83 pd dollar_zero_args;
#X f 47;
#X obj 151 410 nn.bp.dz_1, f 48;
#X obj 521 204 s \$0_nn.bp_1x2_activation;
#X obj 532 382 r \$0_nn.bp_1x2_activation;
#X obj 51 880 outlet done;
#X obj 1207 446 s \$0_nn.bp_1x2_dz;
#X obj 1244 413 s \$0_nn.bp_1x2_da;
#X obj 1281 380 s \$0_nn.bp_1x2_z;
#X obj 1318 347 s \$0_nn.bp_1x2_a;
#X obj 1356 314 s \$0_nn.bp_1x2_dw;
#X obj 1393 281 s \$0_nn.bp_1x2_a_prev_0;
#X obj 1468 215 s \$0_nn.bp_1x2_db;
#X obj 1505 182 s \$0_nn.bp_1x2_da_prev_0;
#X obj 1542 149 s \$0_nn.bp_1x2_da_prev_1;
#X obj 1580 116 s \$0_nn.bp_1x2_w;
#X obj 405 324 r \$0_nn.bp_1x2_dz;
#X obj 214 240 r \$0_nn.bp_1x2_da;
#X obj 278 268 r \$0_nn.bp_1x2_z;
#X obj 341 296 r \$0_nn.bp_1x2_a;
#X obj 389 62 list store \$12;
#X obj 151 555 nn.bp.dw_1x2, f 48;
#X obj 246 443 r \$0_nn.bp_1x2_dz;
#X obj 341 471 r \$0_nn.bp_1x2_a_prev_0;
#X obj 532 527 r \$0_nn.bp_1x2_dw;
#X obj 151 644 nn.bp.db_1, f 26;
#X obj 253 588 r \$0_nn.bp_1x2_dz;
#X obj 356 616 r \$0_nn.bp_1x2_db;
#X obj 151 820 nn.bp.da_1x2, f 55;
#X obj 369 736 r \$0_nn.bp_1x2_dz;
#X obj 436 499 r \$0_nn.bp_1x2_a_prev_1;
#X obj 260 708 r \$0_nn.bp_1x2_w;
#X obj 478 764 r \$0_nn.bp_1x2_da_prev_0;
#X obj 588 792 r \$0_nn.bp_1x2_da_prev_1;
#X obj 1430 248 s \$0_nn.bp_1x2_a_prev_1;
#X text 787 44 //layer shape (1 \, 2) \; args \; \$1: symbol dz (1 \, m) \; \$2: symbol da (1 \, m) \; \$3: symbol z (1 \, m) \; \$4: symbol a (1 \, m) \; \$5: symbol dw (1 \, 2) \; \$6: symbol a_prev_0 (1 \, m) \; \$7: symbo a_prev_1 (1 \, m) \; \$8: symbol db (1 \, 1) \; \$9: symbol da_prev_0 (1 \, m) \; \$10: symbol da_prev_1 (1 \, m) \; \$11: symbol w (1 \, 2) \; \$12: symbol activation \; \$13: float negative slope (for ReLU derivatives) \; inlets \; 1: bang \; 2: float \$0_ns \;;
#X obj 51 62 t b b b b, f 38;
#X obj 251 151 f \$13;
#X obj 251 179 s \$0_nn.bp_negative_slope;
#X obj 468 353 r \$0_nn.bp_negative_slope;
#X connect 0 0 8 0;
#X connect 1 0 2 0;
#X connect 1 1 3 0;
#X connect 1 2 4 0;
#X connect 1 3 5 0;
#X connect 1 4 6 0;
#X connect 2 0 10 0;
#X connect 3 0 10 0;
#X connect 4 0 10 0;
#X connect 5 0 10 0;
#X connect 6 0 10 0;
#X connect 7 0 43 0;
#X connect 8 0 13 0;
#X connect 8 1 14 0;
#X connect 8 2 15 0;
#X connect 8 3 16 0;
#X connect 8 4 17 0;
#X connect 8 5 18 0;
#X connect 8 6 41 0;
#X connect 8 7 19 0;
#X connect 8 8 20 0;
#X connect 8 9 21 0;
#X connect 8 10 22 0;
#X connect 9 0 28 0;
#X connect 11 0 9 6;
#X connect 23 0 9 4;
#X connect 24 0 9 1;
#X connect 25 0 9 2;
#X connect 26 0 9 3;
#X connect 27 0 1 0;
#X connect 28 0 32 0;
#X connect 29 0 28 1;
#X connect 30 0 28 2;
#X connect 31 0 28 4;
#X connect 32 0 35 0;
#X connect 33 0 32 1;
#X connect 34 0 32 2;
#X connect 36 0 35 2;
#X connect 37 0 28 3;
#X connect 38 0 35 1;
#X connect 39 0 35 3;
#X connect 40 0 35 4;
#X connect 43 0 12 0;
#X connect 43 1 9 0;
#X connect 43 2 44 0;
#X connect 43 3 27 0;
#X connect 44 0 45 0;
#X connect 46 0 9 5;
