#N canvas 187 246 1480 941 16;
#X obj 46 179 inlet bang;
#X obj 851 179 inlet dz;
#X obj 304 179 inlet da;
#X obj 589 179 inlet z;
#X obj 736 179 inlet a;
#X obj 1256 179 inlet activation_number;
#X text 25 12 // dZ^[l] = dA^[l] x g^[l]'(Z^[l]) \; activation number codes \; 1: relu \; 2: tanh \; 3: sigmoid \; 4: linear \;;
#X obj 46 843 outlet done;
#X obj 304 207 t b b s s, f 14;
#X obj 304 245 array size;
#X obj 431 568 array get;
#X obj 283 319 f 1;
#X obj 283 347 until;
#X obj 283 385 f;
#X obj 321 396 + 1;
#X obj 431 843 array set, f 109;
#X obj 527 568 array get, f 16;
#X obj 431 810 *;
#X msg 465 532 1;
#X obj 589 208 t b s, f 9;
#X msg 589 537 1;
#X obj 736 210 t b s, f 9;
#X obj 283 453 t f f f f, f 73;
#X obj 670 568 array get, f 17;
#X msg 736 538 1;
#X msg 336 347 0;
#X obj 219 274 t b b, f 15;
#X text 338 36 // TODO: this shouldn't get called for linear activations \; For tanh and sigmoid \, it's iterating through the z array when it doesn't need to. For ReLU activations \, it's iterating through the a array when it doesn't need to.;
#X obj 46 212 t b b, f 22;
#X obj 527 750 nn.activation_function_derivatives;
#X obj 1081 179 inlet negative_slope;
#X connect 0 0 28 0;
#X connect 1 0 15 2;
#X connect 2 0 8 0;
#X connect 3 0 19 0;
#X connect 4 0 21 0;
#X connect 5 0 29 3;
#X connect 8 0 9 0;
#X connect 8 1 18 0;
#X connect 8 2 9 1;
#X connect 8 3 10 2;
#X connect 9 0 11 1;
#X connect 10 0 17 0;
#X connect 11 0 12 0;
#X connect 12 0 13 0;
#X connect 13 0 14 0;
#X connect 13 0 22 0;
#X connect 14 0 13 1;
#X connect 16 0 29 0;
#X connect 17 0 15 0;
#X connect 18 0 10 1;
#X connect 19 0 20 0;
#X connect 19 1 16 2;
#X connect 20 0 16 1;
#X connect 21 0 24 0;
#X connect 21 1 23 2;
#X connect 22 0 10 0;
#X connect 22 1 16 0;
#X connect 22 2 23 0;
#X connect 22 3 15 1;
#X connect 23 0 29 1;
#X connect 24 0 23 1;
#X connect 25 0 13 1;
#X connect 26 0 11 0;
#X connect 26 1 25 0;
#X connect 28 0 7 0;
#X connect 28 1 26 0;
#X connect 29 0 17 1;
#X connect 30 0 29 2;
