#N canvas 8 70 1701 1576 16;
#X obj 1670 10 inlet dollar_zero;
#X obj 285 40 select relu tanh sigmoid linear;
#X msg 285 73 1;
#X msg 346 73 2;
#X msg 407 73 3;
#X msg 466 73 4;
#X msg 530 73 0;
#X obj 31 10 inlet bang;
#N canvas 276 168 3112 952 dollar_zero_args 0;
#X obj 35 18 inlet dollar_zero;
#X obj 3139 366 list store \$1;
#X obj 3139 754 outlet;
#X obj 3139 422 d0_safe;
#X obj 88 74 s \$0_nn.bp_2x2_d0_f;
#X obj 3192 394 r \$0_nn.bp_2x2_d0_f;
#X obj 35 46 t b f, f 7;
#X obj 3006 754 outlet;
#X obj 3006 519 d0_safe;
#X obj 3059 492 r \$0_nn.bp_2x2_d0_f;
#X obj 3006 463 list store \$2;
#X obj 2879 754 outlet;
#X obj 2879 611 d0_safe;
#X obj 2932 583 r \$0_nn.bp_2x2_d0_f;
#X obj 2801 754 outlet;
#X obj 2801 431 d0_safe;
#X obj 2854 403 r \$0_nn.bp_2x2_d0_f;
#X obj 2879 555 list store \$3;
#X obj 2801 375 list store \$4;
#X obj 2672 772 outlet;
#X obj 2672 524 d0_safe;
#X obj 2725 496 r \$0_nn.bp_2x2_d0_f;
#X obj 2539 754 outlet;
#X obj 2539 620 d0_safe;
#X obj 2592 592 r \$0_nn.bp_2x2_d0_f;
#X obj 2412 754 outlet;
#X obj 2412 457 d0_safe;
#X obj 2465 429 r \$0_nn.bp_2x2_d0_f;
#X obj 2283 754 outlet;
#X obj 2283 550 d0_safe;
#X obj 2336 522 r \$0_nn.bp_2x2_d0_f;
#X obj 2672 468 list store \$5;
#X obj 2539 564 list store \$6;
#X obj 2412 401 list store \$7;
#X obj 2283 494 list store \$8;
#X obj 2159 754 outlet;
#X obj 2159 638 d0_safe;
#X obj 2212 610 r \$0_nn.bp_2x2_d0_f;
#X obj 2159 582 list store \$9;
#X obj 2068 754 outlet;
#X obj 2068 447 d0_safe;
#X obj 2121 419 r \$0_nn.bp_2x2_d0_f;
#X obj 1940 754 outlet;
#X obj 1940 539 d0_safe;
#X obj 1993 511 r \$0_nn.bp_2x2_d0_f;
#X obj 1813 754 outlet;
#X obj 1813 627 d0_safe;
#X obj 1866 599 r \$0_nn.bp_2x2_d0_f;
#X obj 1722 754 outlet;
#X obj 1722 449 d0_safe;
#X obj 1775 421 r \$0_nn.bp_2x2_d0_f;
#X obj 1577 754 outlet;
#X obj 1577 539 d0_safe;
#X obj 1630 511 r \$0_nn.bp_2x2_d0_f;
#X obj 1445 754 outlet;
#X obj 1445 629 d0_safe;
#X obj 1498 601 r \$0_nn.bp_2x2_d0_f;
#X obj 1378 754 outlet;
#X obj 1378 421 d0_safe;
#X obj 1431 393 r \$0_nn.bp_2x2_d0_f;
#X obj 1230 754 outlet;
#X obj 1230 513 d0_safe;
#X obj 1283 485 r \$0_nn.bp_2x2_d0_f;
#X obj 1101 754 outlet;
#X obj 1101 606 d0_safe;
#X obj 1154 578 r \$0_nn.bp_2x2_d0_f;
#X obj 2068 391 list store \$10;
#X obj 1940 483 list store \$11;
#X obj 1813 571 list store \$12;
#X obj 1722 393 list store \$13;
#X obj 1577 483 list store \$14;
#X obj 1445 573 list store \$15;
#X obj 1378 365 list store \$16;
#X obj 1230 457 list store \$17;
#X obj 1101 550 list store \$18;
#X obj 980 754 outlet;
#X obj 980 513 d0_safe;
#X obj 1033 485 r \$0_nn.bp_2x2_d0_f;
#X obj 851 754 outlet;
#X obj 851 606 d0_safe;
#X obj 904 578 r \$0_nn.bp_2x2_d0_f;
#X obj 980 457 list store \$19;
#X obj 851 550 list store \$20;
#X obj 35 111 t b b b b b b b b b b b b b b b b b b b b b b b b b b b, f 383;
#X obj 778 754 outlet;
#X obj 778 421 d0_safe;
#X obj 831 393 r \$0_nn.bp_2x2_d0_f;
#X obj 630 754 outlet;
#X obj 630 513 d0_safe;
#X obj 683 485 r \$0_nn.bp_2x2_d0_f;
#X obj 501 754 outlet;
#X obj 501 606 d0_safe;
#X obj 554 578 r \$0_nn.bp_2x2_d0_f;
#X obj 380 754 outlet;
#X obj 380 513 d0_safe;
#X obj 433 485 r \$0_nn.bp_2x2_d0_f;
#X obj 251 754 outlet;
#X obj 251 606 d0_safe;
#X obj 304 578 r \$0_nn.bp_2x2_d0_f;
#X obj 150 754 outlet;
#X obj 150 513 d0_safe;
#X obj 203 485 r \$0_nn.bp_2x2_d0_f;
#X obj 21 754 outlet;
#X obj 21 606 d0_safe;
#X obj 74 578 r \$0_nn.bp_2x2_d0_f;
#X obj 778 365 list store \$21;
#X obj 630 457 list store \$22;
#X obj 501 550 list store \$23;
#X obj 380 457 list store \$24;
#X obj 251 550 list store \$25;
#X obj 150 457 list store \$26;
#X obj 21 550 list store \$27;
#X connect 0 0 6 0;
#X connect 1 0 3 0;
#X connect 3 0 2 0;
#X connect 5 0 3 1;
#X connect 6 0 83 0;
#X connect 6 1 4 0;
#X connect 8 0 7 0;
#X connect 9 0 8 1;
#X connect 10 0 8 0;
#X connect 12 0 11 0;
#X connect 13 0 12 1;
#X connect 15 0 14 0;
#X connect 16 0 15 1;
#X connect 17 0 12 0;
#X connect 18 0 15 0;
#X connect 20 0 19 0;
#X connect 21 0 20 1;
#X connect 23 0 22 0;
#X connect 24 0 23 1;
#X connect 26 0 25 0;
#X connect 27 0 26 1;
#X connect 29 0 28 0;
#X connect 30 0 29 1;
#X connect 31 0 20 0;
#X connect 32 0 23 0;
#X connect 33 0 26 0;
#X connect 34 0 29 0;
#X connect 36 0 35 0;
#X connect 37 0 36 1;
#X connect 38 0 36 0;
#X connect 40 0 39 0;
#X connect 41 0 40 1;
#X connect 43 0 42 0;
#X connect 44 0 43 1;
#X connect 46 0 45 0;
#X connect 47 0 46 1;
#X connect 49 0 48 0;
#X connect 50 0 49 1;
#X connect 52 0 51 0;
#X connect 53 0 52 1;
#X connect 55 0 54 0;
#X connect 56 0 55 1;
#X connect 58 0 57 0;
#X connect 59 0 58 1;
#X connect 61 0 60 0;
#X connect 62 0 61 1;
#X connect 64 0 63 0;
#X connect 65 0 64 1;
#X connect 66 0 40 0;
#X connect 67 0 43 0;
#X connect 68 0 46 0;
#X connect 69 0 49 0;
#X connect 70 0 52 0;
#X connect 71 0 55 0;
#X connect 72 0 58 0;
#X connect 73 0 61 0;
#X connect 74 0 64 0;
#X connect 76 0 75 0;
#X connect 77 0 76 1;
#X connect 79 0 78 0;
#X connect 80 0 79 1;
#X connect 81 0 76 0;
#X connect 82 0 79 0;
#X connect 83 0 111 0;
#X connect 83 1 110 0;
#X connect 83 2 109 0;
#X connect 83 3 108 0;
#X connect 83 4 107 0;
#X connect 83 5 106 0;
#X connect 83 6 105 0;
#X connect 83 7 82 0;
#X connect 83 8 81 0;
#X connect 83 9 74 0;
#X connect 83 10 73 0;
#X connect 83 11 72 0;
#X connect 83 12 71 0;
#X connect 83 13 70 0;
#X connect 83 14 69 0;
#X connect 83 15 68 0;
#X connect 83 16 67 0;
#X connect 83 17 66 0;
#X connect 83 18 38 0;
#X connect 83 19 34 0;
#X connect 83 20 33 0;
#X connect 83 21 32 0;
#X connect 83 22 31 0;
#X connect 83 23 18 0;
#X connect 83 24 17 0;
#X connect 83 25 10 0;
#X connect 83 26 1 0;
#X connect 85 0 84 0;
#X connect 86 0 85 1;
#X connect 88 0 87 0;
#X connect 89 0 88 1;
#X connect 91 0 90 0;
#X connect 92 0 91 1;
#X connect 94 0 93 0;
#X connect 95 0 94 1;
#X connect 97 0 96 0;
#X connect 98 0 97 1;
#X connect 100 0 99 0;
#X connect 101 0 100 1;
#X connect 103 0 102 0;
#X connect 104 0 103 1;
#X connect 105 0 85 0;
#X connect 106 0 88 0;
#X connect 107 0 91 0;
#X connect 108 0 94 0;
#X connect 109 0 97 0;
#X connect 110 0 100 0;
#X connect 111 0 103 0;
#X restore 1670 43 pd dollar_zero_args;
#X f 47;
#X obj 129 324 nn.bp.dz_1, f 48;
#X obj 31 1295 outlet done;
#X obj 812 324 nn.bp.db_1, f 26;
#X obj 31 42 t b b b, f 25;
#X obj 129 497 nn.bp.dz_1, f 48;
#X obj 812 413 nn.bp.db_1, f 26;
#X obj 129 844 nn.bp.dw_1x3, f 48;
#X obj 129 1017 nn.bp.dw_1x3, f 48;
#X obj 417 152 s \$0_nn.bp_activation;
#X obj 205 184 r \$0_nn.bp_da_0;
#X obj 281 212 r \$0_nn.bp_z_0;
#X obj 357 240 r \$0_nn.bp_a_0;
#X obj 433 268 r \$0_nn.bp_dz_0;
#X obj 510 296 r \$0_nn.bp_activation;
#X obj 205 356 r \$0_nn.bp_da_1;
#X obj 281 385 r \$0_nn.bp_z_1;
#X obj 357 412 r \$0_nn.bp_a_1;
#X obj 433 441 r \$0_nn.bp_dz_1;
#X obj 510 469 r \$0_nn.bp_activation;
#X obj 204 704 r \$0_nn.bp_dz_0;
#X obj 280 732 r \$0_nn.bp_a_prev_0;
#X obj 356 760 r \$0_nn.bp_a_prev_1;
#X obj 433 788 r \$0_nn.bp_a_prev_2;
#X obj 510 816 r \$0_nn.bp_dw_0;
#X obj 205 877 r \$0_nn.bp_dz_1;
#X obj 281 905 r \$0_nn.bp_a_prev_0;
#X obj 357 933 r \$0_nn.bp_a_prev_1;
#X obj 433 961 r \$0_nn.bp_a_prev_2;
#X obj 509 989 r \$0_nn.bp_dw_1;
#X obj 914 268 r \$0_nn.bp_dz_0;
#X obj 1017 296 r \$0_nn.bp_db_0;
#X obj 914 356 r \$0_nn.bp_dz_1;
#X obj 1017 385 r \$0_nn.bp_db_1;
#X obj 2043 76 s \$0_nn.bp_dz_0;
#X obj 2028 106 s \$0_nn.bp_dz_1;
#X obj 1999 166 s \$0_nn.bp_da_0;
#X obj 1985 196 s \$0_nn.bp_da_1;
#X obj 1956 253 s \$0_nn.bp_z_0;
#X obj 1942 283 s \$0_nn.bp_z_1;
#X obj 1913 341 s \$0_nn.bp_a_0;
#X obj 1899 371 s \$0_nn.bp_a_1;
#X obj 1870 431 s \$0_nn.bp_dw_0;
#X obj 1856 461 s \$0_nn.bp_dw_1;
#X obj 1827 521 s \$0_nn.bp_a_prev_0;
#X obj 1813 551 s \$0_nn.bp_a_prev_1;
#X obj 1784 609 s \$0_nn.bp_db_0;
#X obj 1770 639 s \$0_nn.bp_db_1;
#X obj 1741 696 s \$0_nn.bp_da_prev_0;
#X obj 1727 726 s \$0_nn.bp_da_prev_1;
#X obj 1713 756 s \$0_nn.bp_da_prev_2;
#X obj 1698 786 s \$0_nn.bp_w_0;
#X obj 1684 816 s \$0_nn.bp_w_1;
#X text 1394 62 //layer shape (3 \, 3) \; args \; \$1: symbol dz_0 (1 \, m) \; \$2: symbol dz_1 (1 \, m) \; \$3: symbol dz_2 (1 \, m) \; \$4: symbol da_0 (1 \, m) \; \$5: symbol da_1 (1 \, m) \; \$6: symbol da_2 (1 \, m) \; \$7: symbol z_0 (1 \, m) \; \$8: symbol z_1 (1 \, m) \; \$9: symbol z_2 (1 \, m) \; \$10: symbol a_0 (1 \, m) \; \$11: symbol a_1 (1 \, m) \; \$12: symbol a_2 (1 \, m) \; \$13: symbol dw_0 (1 \, 3) \; \$14: symbol dw_1 (1 \, 3) \; \$15: symbol dw_2 (1 \, 3) \; \$16: symbol a_prev_0 (1 \, m) \; \$17: symbol a_prev_1 (1 \, m) \; \$18: symbol a_prev_2 (1 \, m) \; \$19: symbol db_0 (1 \, 1) \; \$20: symbol db_1 (1 \, 1) \; \$21: symbol db_2 (1 \, 1) \; \$22: symbol da_prev_0 (1 \, m) \; \$23: symbol da_prev_1 (1 \, m) \; \$24: symbol da_prev_2 (1 \, m) \; \$25: symbol w_0 (1 \, 3) \; \$26: symbol w_1 (1 \, 3) \; \$27: symbol w_2 (1 \, 3) \; \$28: symbol activation \; inlets \; 1: bang \; 2: float \$0_ns \;;
#X obj 285 10 list store \$28;
#X obj 2014 136 s \$0_nn.bp_dz_2;
#X obj 1971 225 s \$0_nn.bp_da_2;
#X obj 1928 313 s \$0_nn.bp_z_2;
#X obj 1885 401 s \$0_nn.bp_a_2;
#X obj 1842 491 s \$0_nn.bp_dw_2;
#X obj 1799 580 s \$0_nn.bp_a_prev_2;
#X obj 1756 669 s \$0_nn.bp_db_2;
#X obj 1669 846 s \$0_nn.bp_w_2;
#X obj 129 671 nn.bp.dz_1, f 48;
#X obj 510 643 r \$0_nn.bp_activation;
#X obj 205 530 r \$0_nn.bp_da_2;
#X obj 281 559 r \$0_nn.bp_z_2;
#X obj 357 586 r \$0_nn.bp_a_2;
#X obj 433 615 r \$0_nn.bp_dz_2;
#X obj 129 1190 nn.bp.dw_1x3, f 48;
#X obj 281 1078 r \$0_nn.bp_a_prev_0;
#X obj 357 1106 r \$0_nn.bp_a_prev_1;
#X obj 433 1134 r \$0_nn.bp_a_prev_2;
#X obj 205 1050 r \$0_nn.bp_dz_2;
#X obj 509 1162 r \$0_nn.bp_dw_2;
#X obj 812 503 nn.bp.db_1, f 26;
#X obj 914 446 r \$0_nn.bp_dz_2;
#X obj 1017 475 r \$0_nn.bp_db_2;
#X obj 812 788 nn.bp.da_3x3, f 54;
#X obj 859 536 r \$0_nn.bp_w_0;
#X obj 907 564 r \$0_nn.bp_w_1;
#X obj 955 592 r \$0_nn.bp_w_2;
#X obj 1002 620 r \$0_nn.bp_dz_0;
#X obj 1050 648 r \$0_nn.bp_dz_1;
#X obj 1098 676 r \$0_nn.bp_dz_2;
#X obj 1145 704 r \$0_nn.bp_da_prev_0;
#X obj 1193 732 r \$0_nn.bp_da_prev_1;
#X obj 1241 760 r \$0_nn.bp_da_prev_2;
#X connect 0 0 8 0;
#X connect 1 0 2 0;
#X connect 1 1 3 0;
#X connect 1 2 4 0;
#X connect 1 3 5 0;
#X connect 1 4 6 0;
#X connect 2 0 17 0;
#X connect 3 0 17 0;
#X connect 4 0 17 0;
#X connect 5 0 17 0;
#X connect 6 0 17 0;
#X connect 7 0 12 0;
#X connect 8 0 70 0;
#X connect 8 1 60 0;
#X connect 8 2 59 0;
#X connect 8 3 58 0;
#X connect 8 4 57 0;
#X connect 8 5 56 0;
#X connect 8 6 69 0;
#X connect 8 7 55 0;
#X connect 8 8 54 0;
#X connect 8 9 68 0;
#X connect 8 10 53 0;
#X connect 8 11 52 0;
#X connect 8 12 67 0;
#X connect 8 13 51 0;
#X connect 8 14 50 0;
#X connect 8 15 66 0;
#X connect 8 16 49 0;
#X connect 8 17 48 0;
#X connect 8 18 65 0;
#X connect 8 19 47 0;
#X connect 8 20 46 0;
#X connect 8 21 64 0;
#X connect 8 22 45 0;
#X connect 8 23 44 0;
#X connect 8 24 63 0;
#X connect 8 25 43 0;
#X connect 8 26 42 0;
#X connect 9 0 13 0;
#X connect 11 0 14 0;
#X connect 12 0 10 0;
#X connect 12 1 9 0;
#X connect 12 2 62 0;
#X connect 13 0 71 0;
#X connect 14 0 83 0;
#X connect 15 0 16 0;
#X connect 16 0 77 0;
#X connect 18 0 9 1;
#X connect 19 0 9 2;
#X connect 20 0 9 3;
#X connect 21 0 9 4;
#X connect 22 0 9 5;
#X connect 23 0 13 1;
#X connect 24 0 13 2;
#X connect 25 0 13 3;
#X connect 26 0 13 4;
#X connect 27 0 13 5;
#X connect 28 0 15 1;
#X connect 29 0 15 2;
#X connect 30 0 15 3;
#X connect 31 0 15 4;
#X connect 32 0 15 5;
#X connect 33 0 16 1;
#X connect 34 0 16 2;
#X connect 35 0 16 3;
#X connect 36 0 16 4;
#X connect 37 0 16 5;
#X connect 38 0 11 1;
#X connect 39 0 11 2;
#X connect 40 0 14 1;
#X connect 41 0 14 2;
#X connect 62 0 1 0;
#X connect 71 0 15 0;
#X connect 72 0 71 5;
#X connect 73 0 71 1;
#X connect 74 0 71 2;
#X connect 75 0 71 3;
#X connect 76 0 71 4;
#X connect 77 0 11 0;
#X connect 78 0 77 2;
#X connect 79 0 77 3;
#X connect 80 0 77 4;
#X connect 81 0 77 1;
#X connect 82 0 77 5;
#X connect 83 0 86 0;
#X connect 84 0 83 1;
#X connect 85 0 83 2;
#X connect 87 0 86 1;
#X connect 88 0 86 2;
#X connect 89 0 86 3;
#X connect 90 0 86 4;
#X connect 91 0 86 5;
#X connect 92 0 86 6;
#X connect 93 0 86 7;
#X connect 94 0 86 8;
#X connect 95 0 86 9;
