#N canvas 1116 152 1128 898 16;
#X obj 34 63 inlet bang;
#X obj 551 810 array set, f 11;
#X obj 34 827 outlet done;
#X obj 312 639 array get;
#X obj 690 690 list store;
#X obj 872 690 list store;
#X obj 478 193 array size;
#X obj 457 235 f;
#X obj 457 263 until;
#X obj 457 301 f;
#X obj 457 329 t f f;
#X msg 513 271 0;
#X obj 524 337 + 1;
#X obj 224 162 array size;
#X obj 203 199 f;
#X obj 203 227 until;
#X obj 203 271 f;
#X obj 203 299 t f f;
#X obj 270 307 + 1;
#X msg 257 235 0;
#X obj 203 357 sel 0 1, f 22;
#X obj 537 639 array get;
#X obj 446 741 *;
#X obj 203 425 t b b b b;
#X obj 289 425 t b b b b;
#X msg 312 526 1;
#X obj 505 143 t b s b s, f 13;
#X msg 571 606 1;
#X msg 226 526 0;
#X obj 457 377 t f f, f 31;
#X obj 224 121 t b s b s, f 21;
#X msg 346 606 1;
#X obj 34 91 t b b b, f 10;
#X text 14 6 // dA^[l-1] = W^[l]T . dZ^[l] \; layer shape (1 \, 2);
#X obj 224 63 inlet w;
#X obj 505 63 inlet dz;
#X obj 767 63 inlet da_prev_0;
#X obj 949 63 inlet da_prev_1;
#X connect 0 0 32 0;
#X connect 3 0 22 1;
#X connect 4 0 1 2;
#X connect 5 0 1 2;
#X connect 6 0 7 1;
#X connect 7 0 8 0;
#X connect 8 0 9 0;
#X connect 9 0 10 0;
#X connect 10 0 29 0;
#X connect 10 1 12 0;
#X connect 11 0 9 1;
#X connect 12 0 9 1;
#X connect 13 0 14 1;
#X connect 14 0 15 0;
#X connect 15 0 16 0;
#X connect 16 0 17 0;
#X connect 17 0 20 0;
#X connect 17 1 18 0;
#X connect 18 0 16 1;
#X connect 19 0 16 1;
#X connect 20 0 23 0;
#X connect 20 1 24 0;
#X connect 21 0 22 0;
#X connect 22 0 1 0;
#X connect 23 0 7 0;
#X connect 23 1 28 0;
#X connect 23 2 11 0;
#X connect 23 3 4 0;
#X connect 24 0 7 0;
#X connect 24 1 25 0;
#X connect 24 2 11 0;
#X connect 24 3 5 0;
#X connect 25 0 3 0;
#X connect 26 0 6 0;
#X connect 26 1 6 1;
#X connect 26 2 27 0;
#X connect 26 3 21 2;
#X connect 27 0 21 1;
#X connect 28 0 3 0;
#X connect 29 0 21 0;
#X connect 29 1 1 1;
#X connect 30 0 13 0;
#X connect 30 1 13 1;
#X connect 30 2 31 0;
#X connect 30 3 3 2;
#X connect 31 0 3 1;
#X connect 32 0 2 0;
#X connect 32 1 14 0;
#X connect 32 2 19 0;
#X connect 34 0 30 0;
#X connect 35 0 26 0;
#X connect 36 0 4 1;
#X connect 37 0 5 1;
