#N canvas 1640 256 443 675 16;
#X obj 28 52 inlet bang;
#X obj 187 199 t b s s;
#X obj 192 252 array size;
#X obj 65 292 array sum;
#X obj 217 493 array set;
#X obj 86 359 /;
#X obj 28 598 outlet done;
#X obj 28 80 t b b;
#X obj 187 52 inlet dz;
#X obj 286 52 inlet db;
#X text 20 10 // db^[l] = 1/m x sum(dZ^[l]) \;;
#X connect 0 0 7 0;
#X connect 1 0 2 0;
#X connect 1 1 3 2;
#X connect 1 2 2 1;
#X connect 2 0 5 1;
#X connect 3 0 5 0;
#X connect 5 0 4 0;
#X connect 7 0 6 0;
#X connect 7 1 3 0;
#X connect 8 0 1 0;
#X connect 9 0 4 2;
