#N canvas 1708 668 971 441 16;
#X obj 60 42 inlet index;
#X obj 414 320 array set;
#X obj 721 309 array set;
#X obj 203 45 inlet a;
#X obj 325 45 inlet z;
#X obj 202 166 f;
#X obj 400 164 f;
#X obj 59 99 t b f b f, f 72;
#X obj 506 44 inlet s_a;
#X obj 798 45 inlet s_z;
#X connect 0 0 7 0;
#X connect 3 0 5 1;
#X connect 4 0 6 1;
#X connect 5 0 1 0;
#X connect 6 0 2 0;
#X connect 7 0 5 0;
#X connect 7 1 1 1;
#X connect 7 2 6 0;
#X connect 7 3 2 1;
#X connect 8 0 1 2;
#X connect 9 0 2 2;
