#N canvas 72 135 1362 1153 16;
#X text 23 6 // dA^[l] = W^[l]T . dZ^[l];
#X obj 40 75 inlet bang;
#X obj 502 82 inlet s_dZ1;
#X obj 623 82 inlet s_dZ2;
#X obj 735 82 inlet s_dZ3;
#X obj 844 82 inlet s_dZ4;
#X obj 1207 82 inlet s_dA_row;
#X text 18 26 // working around lack of matrix multiplication;
#X obj 502 110 t b b s s;
#X obj 377 186 array size;
#X obj 502 486 array get;
#X msg 536 450 1;
#X obj 623 110 t b s;
#X obj 591 486 array get;
#X msg 625 451 1;
#X obj 703 486 array get;
#X msg 737 451 1;
#X obj 812 486 array get;
#X msg 846 453 1;
#X obj 735 110 t b s;
#X obj 844 110 t b s;
#X obj 356 256 f 1;
#X obj 356 304 until;
#X obj 356 352 f;
#X obj 399 366 + 1;
#X obj 377 214 t f f, f 8;
#X obj 311 806 *;
#X obj 430 806 *;
#X obj 542 806 *;
#X obj 661 806 *;
#X msg 408 327 0;
#X obj 356 400 t f f f f f, f 87;
#X obj 1014 1060 array set;
#X obj 178 400 unpack f f f f;
#X obj 376 889 expr $f1 + $f2 + $f3 + $f4;
#X obj 178 75 inlet weights_list;
#X obj 40 103 t b b b, f 12;
#X obj 40 1061 outlet done;
#X connect 1 0 36 0;
#X connect 2 0 8 0;
#X connect 3 0 12 0;
#X connect 4 0 19 0;
#X connect 5 0 20 0;
#X connect 6 0 32 2;
#X connect 8 0 9 0;
#X connect 8 1 11 0;
#X connect 8 2 9 1;
#X connect 8 3 10 2;
#X connect 9 0 25 0;
#X connect 10 0 26 0;
#X connect 11 0 10 1;
#X connect 12 0 14 0;
#X connect 12 1 13 2;
#X connect 13 0 27 0;
#X connect 14 0 13 1;
#X connect 15 0 28 0;
#X connect 16 0 15 1;
#X connect 17 0 29 0;
#X connect 18 0 17 1;
#X connect 19 0 16 0;
#X connect 19 1 15 2;
#X connect 20 0 18 0;
#X connect 20 1 17 2;
#X connect 21 0 22 0;
#X connect 22 0 23 0;
#X connect 23 0 24 0;
#X connect 23 0 31 0;
#X connect 24 0 23 1;
#X connect 25 0 21 1;
#X connect 26 0 34 0;
#X connect 27 0 34 1;
#X connect 28 0 34 2;
#X connect 29 0 34 3;
#X connect 30 0 23 1;
#X connect 31 0 10 0;
#X connect 31 1 13 0;
#X connect 31 2 15 0;
#X connect 31 3 17 0;
#X connect 31 4 32 1;
#X connect 33 0 26 1;
#X connect 33 1 27 1;
#X connect 33 2 28 1;
#X connect 33 3 29 1;
#X connect 34 0 32 0;
#X connect 35 0 33 0;
#X connect 36 0 37 0;
#X connect 36 1 21 0;
#X connect 36 2 30 0;
