#N canvas 357 144 1117 1149 16;
#X obj 37 244 inlet bang;
#X obj 325 387 array size;
#X obj 304 422 f 1;
#X obj 304 469 until;
#X obj 304 525 f;
#X obj 348 534 + 1;
#X msg 138 413 0;
#X obj 304 918 array get, f 33;
#X msg 104 525 1;
#X obj 707 918 array get, f 29;
#X obj 931 1088 array set;
#X obj 501 991 -;
#X obj 325 317 t b s s, f 29;
#X obj 104 553 t f f;
#X obj 37 290 t b b b b, f 13;
#X obj 37 1088 outlet done;
#X obj 304 726 t f f f, f 83;
#X floatatom 492 1052 5 0 0 0 - - - 0;
#N canvas 564 506 499 409 dollar_zero_args 0;
#X obj 96 22 inlet dollar_zero;
#X obj 170 285 d_0;
#X obj 244 285 d_0;
#X obj 317 285 d_0;
#X obj 170 111 list store \$1;
#X obj 244 151 list store \$2;
#X obj 317 191 list store \$3;
#X obj 170 313 outlet;
#X obj 244 313 outlet;
#X obj 317 313 outlet;
#X obj 96 63 t b f f f, f 37;
#X obj 34 245 t b b b;
#X connect 0 0 10 0;
#X connect 1 0 7 0;
#X connect 2 0 8 0;
#X connect 3 0 9 0;
#X connect 4 0 1 0;
#X connect 5 0 2 0;
#X connect 6 0 3 0;
#X connect 10 0 11 0;
#X connect 10 1 1 1;
#X connect 10 2 2 1;
#X connect 10 3 3 1;
#X connect 11 0 4 0;
#X connect 11 1 5 0;
#X connect 11 2 6 0;
#X restore 643 197 pd dollar_zero_args;
#X f 45;
#X obj 643 153 inlet dollar_zero;
#X text 23 16 // MSE Loss: L = 1/2(A - Y)^2 \; dL/dA = (A - Y) \; g'(Z) = 1 \; Therefore: dZ = dA x g'(Z) = (A - Y) x 1 = (A - Y) \; Args \; \$1: symbol y_hat array (1 \, m) \; \$2: symbol Y array (1 \, m) \; \$3: symbol dZ array (1 \, m) \; inlets \; 1: symbol bang \; 2: float patch \$0 value;
#X text 638 224 // y_hat;
#X text 834 226 // Y;
#X text 1005 221 // dZ;
#X connect 0 0 14 0;
#X connect 1 0 2 1;
#X connect 2 0 3 0;
#X connect 3 0 4 0;
#X connect 4 0 5 0;
#X connect 4 0 16 0;
#X connect 5 0 4 1;
#X connect 6 0 4 1;
#X connect 7 0 11 0;
#X connect 8 0 13 0;
#X connect 9 0 11 1;
#X connect 11 0 10 0;
#X connect 11 0 17 0;
#X connect 12 0 1 0;
#X connect 12 1 1 1;
#X connect 12 2 7 2;
#X connect 13 0 7 1;
#X connect 13 1 9 1;
#X connect 14 0 15 0;
#X connect 14 1 2 0;
#X connect 14 2 8 0;
#X connect 14 3 6 0;
#X connect 16 0 7 0;
#X connect 16 1 9 0;
#X connect 16 2 10 1;
#X connect 18 0 12 0;
#X connect 18 1 9 2;
#X connect 18 2 10 2;
#X connect 19 0 18 0;
