#N canvas 1685 200 1147 1100 16;
#X text 23 16 // MSE Loss: L = 1/2(A - Y)^2 \; dL/dA = (A - Y) \; g'(Z) = 1 \; Therefore: dZ = dA x g'(Z) = (A - Y) x 1 = (A - Y) \; Args: \$1 symbol y_hat arr \; \$2 symbol Y arr \; \$3 symbol dZ arr \;;
#X obj 37 164 inlet bang;
#X obj 325 307 array size;
#X obj 304 342 f 1;
#X obj 304 389 until;
#X obj 304 445 f;
#X obj 348 454 + 1;
#X msg 138 333 0;
#X obj 304 838 array get, f 33;
#X msg 104 445 1;
#X obj 707 838 array get, f 29;
#X obj 931 1008 array set;
#X obj 501 911 -;
#X obj 325 237 t b s s, f 29;
#X obj 104 473 t f f;
#X obj 37 210 t b b b b, f 13;
#X obj 37 1008 outlet done;
#X obj 304 646 t f f f, f 83;
#X floatatom 492 972 5 0 0 0 - - - 0;
#N canvas 564 506 499 409 dollar_zero_args 0;
#X obj 96 22 inlet dollar_zero;
#X obj 170 285 d_0;
#X obj 244 285 d_0;
#X obj 317 285 d_0;
#X obj 170 111 list store \$1;
#X obj 244 151 list store \$2;
#X obj 317 191 list store \$3;
#X obj 170 313 outlet;
#X obj 244 313 outlet;
#X obj 317 313 outlet;
#X obj 96 63 t b f f f, f 37;
#X obj 34 245 t b b b;
#X connect 0 0 10 0;
#X connect 1 0 7 0;
#X connect 2 0 8 0;
#X connect 3 0 9 0;
#X connect 4 0 1 0;
#X connect 5 0 2 0;
#X connect 6 0 3 0;
#X connect 10 0 11 0;
#X connect 10 1 1 1;
#X connect 10 2 2 1;
#X connect 10 3 3 1;
#X connect 11 0 4 0;
#X connect 11 1 5 0;
#X connect 11 2 6 0;
#X restore 643 117 pd dollar_zero_args;
#X f 45;
#X obj 643 73 inlet dollar_zero;
#X connect 1 0 15 0;
#X connect 2 0 3 1;
#X connect 3 0 4 0;
#X connect 4 0 5 0;
#X connect 5 0 6 0;
#X connect 5 0 17 0;
#X connect 6 0 5 1;
#X connect 7 0 5 1;
#X connect 8 0 12 0;
#X connect 9 0 14 0;
#X connect 10 0 12 1;
#X connect 12 0 11 0;
#X connect 12 0 18 0;
#X connect 13 0 2 0;
#X connect 13 1 2 1;
#X connect 13 2 8 2;
#X connect 14 0 8 1;
#X connect 14 1 10 1;
#X connect 15 0 16 0;
#X connect 15 1 3 0;
#X connect 15 2 9 0;
#X connect 15 3 7 0;
#X connect 17 0 8 0;
#X connect 17 1 10 0;
#X connect 17 2 11 1;
#X connect 19 0 13 0;
#X connect 19 1 10 2;
#X connect 19 2 11 2;
#X connect 20 0 19 0;
