#N canvas 119 185 1326 1148 16;
#X obj 34 223 inlet bang;
#X obj 506 466 array size;
#X obj 521 768 array get, f 13;
#X obj 485 511 f 1;
#X obj 485 561 until;
#X msg 111 416 0;
#X obj 485 607 f;
#X obj 541 615 + 1;
#X obj 521 894 *;
#X obj 521 970 array set, f 11;
#X obj 34 987 outlet done;
#X obj 240 670 array get;
#X msg 224 319 1;
#X obj 506 286 t b b s s, f 25;
#X msg 571 319 1;
#X obj 485 679 t f f, f 10;
#N canvas 564 506 499 409 dollar_zero_args 0;
#X obj 96 22 inlet dollar_zero;
#X obj 170 285 d_0;
#X obj 244 285 d_0;
#X obj 317 285 d_0;
#X obj 170 111 list store \$1;
#X obj 244 151 list store \$2;
#X obj 317 191 list store \$3;
#X obj 170 313 outlet;
#X obj 244 313 outlet;
#X obj 317 313 outlet;
#X obj 96 63 t b f f f, f 37;
#X obj 34 245 t b b b;
#X connect 0 0 10 0;
#X connect 1 0 7 0;
#X connect 2 0 8 0;
#X connect 3 0 9 0;
#X connect 4 0 1 0;
#X connect 5 0 2 0;
#X connect 6 0 3 0;
#X connect 10 0 11 0;
#X connect 10 1 1 1;
#X connect 10 2 2 1;
#X connect 10 3 3 1;
#X connect 11 0 4 0;
#X connect 11 1 5 0;
#X connect 11 2 6 0;
#X restore 224 253 pd dollar_zero_args;
#X f 71;
#X obj 224 223 inlet dollar_zero;
#X obj 240 634 f \$4;
#X obj 224 286 t b s, f 11;
#X text 14 6 // dA^[l-1] = W^[l]T . dZ^[l] \; generates 1 da row for the previous layer \; args: \; \$1: symbol weights array \; \$2: symbol dZ array \; \$3: symbol dA_prev (row) array \; \$4: float weights index for prev layer dA \; inlets \; 1: symbol bang \; 2: float \$0;
#X text 322 284 // weights;
#X text 717 286 // dz;
#X text 319 635 // da_prev index;
#X text 791 288 // da_prev;
#X obj 34 251 t b b b b, f 10;
#X text 459 56 // FULL in the name is hopeful. the objects are always going to have to deal with a set number of arrays.;
#X connect 0 0 25 0;
#X connect 1 0 3 1;
#X connect 2 0 8 0;
#X connect 3 0 4 0;
#X connect 4 0 6 0;
#X connect 5 0 6 1;
#X connect 6 0 7 0;
#X connect 6 0 15 0;
#X connect 7 0 6 1;
#X connect 8 0 9 0;
#X connect 11 0 8 1;
#X connect 12 0 11 1;
#X connect 13 0 1 0;
#X connect 13 1 14 0;
#X connect 13 2 1 1;
#X connect 13 3 2 2;
#X connect 14 0 2 1;
#X connect 15 0 2 0;
#X connect 15 1 9 1;
#X connect 16 0 19 0;
#X connect 16 1 13 0;
#X connect 16 2 9 2;
#X connect 17 0 16 0;
#X connect 18 0 11 0;
#X connect 19 0 12 0;
#X connect 19 1 11 2;
#X connect 25 0 10 0;
#X connect 25 1 3 0;
#X connect 25 2 5 0;
#X connect 25 3 18 0;
