#N canvas 717 395 551 750 16;
#X obj 28 162 inlet bang;
#X obj 197 309 t b s s;
#X obj 202 362 array size;
#X obj 65 452 array sum;
#X obj 213 623 array set;
#X obj 86 519 /;
#X obj 28 708 outlet done;
#X obj 28 190 t b b;
#N canvas 1018 625 499 409 dollar_zero_args 0;
#X obj 96 22 inlet dollar_zero;
#X obj 170 285 d_0;
#X obj 244 285 d_0;
#X obj 170 111 list store \$1;
#X obj 244 151 list store \$2;
#X obj 170 313 outlet;
#X obj 244 313 outlet;
#X obj 96 63 t b f f, f 37;
#X obj 34 245 t b b;
#X connect 0 0 7 0;
#X connect 1 0 5 0;
#X connect 2 0 6 0;
#X connect 3 0 1 0;
#X connect 4 0 2 0;
#X connect 7 0 8 0;
#X connect 7 1 1 1;
#X connect 7 2 2 1;
#X connect 8 0 3 0;
#X connect 8 1 4 0;
#X restore 197 206 pd dollar_zero_args;
#X f 27;
#X obj 197 162 inlet dollar_zero;
#X text 20 11 // db^[l] = 1/m x sum(dZ^[l]) \; args \; \$1: symbol dZ array \; \$2: symbol db array \; inlets \; 1: symbol bang \; 2: float \, the current \$0 value;
#X text 203 233 // dZ;
#X text 415 233 // db;
#X connect 0 0 7 0;
#X connect 1 0 2 0;
#X connect 1 1 3 2;
#X connect 1 2 2 1;
#X connect 2 0 5 1;
#X connect 3 0 5 0;
#X connect 5 0 4 0;
#X connect 7 0 6 0;
#X connect 7 1 3 0;
#X connect 8 0 1 0;
#X connect 8 1 4 2;
#X connect 9 0 8 0;
