#N canvas 1874 150 591 571 16;
#X obj 39 52 inlet bang;
#X obj 208 79 t b s s;
#X obj 213 132 array size;
#X obj 76 222 array sum;
#X obj 224 393 array set;
#X obj 97 289 /;
#X obj 39 478 outlet done;
#X obj 39 80 t b b;
#X obj 208 51 inlet s_dZ;
#X obj 415 48 inlet s_db;
#X connect 0 0 7 0;
#X connect 1 0 2 0;
#X connect 1 1 3 2;
#X connect 1 2 2 1;
#X connect 2 0 5 1;
#X connect 3 0 5 0;
#X connect 5 0 4 0;
#X connect 7 0 6 0;
#X connect 7 1 3 0;
#X connect 8 0 1 0;
#X connect 9 0 4 2;
