#N canvas 775 316 894 884 16;
#X obj 29 173 inlet bang;
#X obj 258 737 array set;
#X obj 29 737 outlet done;
#X obj 106 457 /;
#X obj 317 325 t b s s;
#X obj 317 375 array size;
#X obj 292 671 loadbang;
#X obj 29 201 t b b, f 10;
#X obj 106 424 nn.element_wise_product, f 30;
#N canvas 564 506 499 409 dollar_zero_args 0;
#X obj 96 22 inlet dollar_zero;
#X obj 170 285 d_0;
#X obj 244 285 d_0;
#X obj 317 285 d_0;
#X obj 170 111 list store \$1;
#X obj 244 151 list store \$2;
#X obj 317 191 list store \$3;
#X obj 170 313 outlet;
#X obj 244 313 outlet;
#X obj 317 313 outlet;
#X obj 96 63 t b f f f, f 37;
#X obj 34 245 t b b b;
#X connect 0 0 10 0;
#X connect 1 0 7 0;
#X connect 2 0 8 0;
#X connect 3 0 9 0;
#X connect 4 0 1 0;
#X connect 5 0 2 0;
#X connect 6 0 3 0;
#X connect 10 0 11 0;
#X connect 10 1 1 1;
#X connect 10 2 2 1;
#X connect 10 3 3 1;
#X connect 11 0 4 0;
#X connect 11 1 5 0;
#X connect 11 2 6 0;
#X restore 224 217 pd dollar_zero_args;
#X f 45;
#X obj 224 173 inlet dollar_zero;
#X text 16 7 // calculates dw for 1 node \, 1 feature \; dW^[l] = 1/m . dZ^[l]A^[l-1]T \; args: \$1 symbol dz array \; \$2 symbol symbol a_prev array \; \$3 symbol dw array \; \$4 float w[index] \;;
#X obj 292 704 f \$4;
#X text 397 705 // NOTE: w[index] is passed as an argument;
#X connect 0 0 7 0;
#X connect 3 0 1 0;
#X connect 4 0 5 0;
#X connect 4 1 8 2;
#X connect 4 2 5 1;
#X connect 5 0 3 1;
#X connect 6 0 12 0;
#X connect 7 0 2 0;
#X connect 7 1 8 0;
#X connect 8 0 3 0;
#X connect 9 0 8 1;
#X connect 9 1 4 0;
#X connect 9 2 1 2;
#X connect 10 0 9 0;
#X connect 12 0 1 1;
