#N canvas 895 198 1458 962 16;
#X obj 1063 101 loadbang;
#X obj 1063 138 list store \$1;
#X msg 1063 227 1;
#X msg 1124 227 2;
#X msg 1185 227 3;
#X obj 1063 178 select relu tanh sigmoid linear;
#X msg 1246 227 4;
#X msg 1308 227 0;
#X obj 34 102 inlet bang;
#X text 18 9 // dZ^[l] = dA^[l] x g^[l]'(Z^[l]);
#X obj 255 127 t b b s s;
#X obj 224 165 array size;
#X obj 345 508 array get;
#X msg 111 227 0;
#X obj 203 239 f 1;
#X obj 203 267 until;
#X obj 203 305 f;
#X obj 241 316 + 1;
#X obj 553 779 array set, f 18;
#X obj 678 508 array get, f 16;
#X obj 553 710 *;
#X obj 35 844 outlet done;
#X obj 255 99 inlet s_dA;
#X obj 416 100 inlet s_Z;
#X obj 698 100 inlet s_dZ;
#X msg 379 472 1;
#X obj 416 128 t b s, f 10;
#X msg 740 477 1;
#X obj 34 130 t b b b, f 10;
#X obj 525 102 inlet s_A;
#X obj 525 130 t b s, f 15;
#X obj 203 353 t f f f f, f 72;
#X obj 916 508 array get, f 17;
#X msg 982 478 1;
#X text 314 11 // TODO: both A and Z are being accessed regardless of the activation function. maybe use a spigot?;
#X obj 708 590 expr if($f3 == 1 \, if($f1 >= 0 \, 1 \, 0) \, if($f3 == 2 \, 1 - $f2 * $f2 \, if($f3 == 3 \, $f2 * (1 - $f2) \, $f1)));
#X connect 0 0 1 0;
#X connect 1 0 5 0;
#X connect 2 0 35 2;
#X connect 3 0 35 2;
#X connect 4 0 35 2;
#X connect 5 0 2 0;
#X connect 5 1 3 0;
#X connect 5 2 4 0;
#X connect 5 3 6 0;
#X connect 5 4 7 0;
#X connect 6 0 35 2;
#X connect 7 0 35 2;
#X connect 8 0 28 0;
#X connect 10 0 11 0;
#X connect 10 1 25 0;
#X connect 10 2 11 1;
#X connect 10 3 12 2;
#X connect 11 0 14 1;
#X connect 12 0 20 0;
#X connect 13 0 16 1;
#X connect 14 0 15 0;
#X connect 15 0 16 0;
#X connect 16 0 17 0;
#X connect 16 0 31 0;
#X connect 17 0 16 1;
#X connect 19 0 35 0;
#X connect 20 0 18 0;
#X connect 22 0 10 0;
#X connect 23 0 26 0;
#X connect 24 0 18 2;
#X connect 25 0 12 1;
#X connect 26 0 27 0;
#X connect 26 1 19 2;
#X connect 27 0 19 1;
#X connect 28 0 21 0;
#X connect 28 1 14 0;
#X connect 28 2 13 0;
#X connect 29 0 30 0;
#X connect 30 0 33 0;
#X connect 30 1 32 2;
#X connect 31 0 12 0;
#X connect 31 1 19 0;
#X connect 31 2 18 1;
#X connect 31 3 32 0;
#X connect 32 0 35 1;
#X connect 33 0 32 1;
#X connect 35 0 20 1;
