#N canvas 1306 86 1598 1316 16;
#X text 26 15 // dA^[l-1] = W^[l]T . dZ^[l] \; args \; \$1: symbol weights array 1 \; \$2: symbol weights array 2 \; \$3: symbol dz array 1 \; \$4: symbol dz array 2 \; \$5: symbol da_prev array 1 \; \$6: symbol da_prev array 2 \; inlets \; 1: symbol bang \; 2: float \$0 \;;
#X obj 59 296 inlet bang;
#N canvas 1732 142 910 620 dollar_zero_args 0;
#X obj 156 105 inlet dollar_zero;
#X obj 235 471 d_0;
#X obj 336 471 d_0;
#X obj 437 471 d_0;
#X obj 235 184 list store \$1;
#X obj 336 224 list store \$2;
#X obj 437 264 list store \$3;
#X obj 235 499 outlet;
#X obj 337 499 outlet;
#X obj 437 499 outlet;
#X obj 538 471 d_0;
#X obj 538 499 outlet;
#X obj 538 304 list store \$4;
#X obj 156 146 t b f f f f f f, f 76;
#X obj 34 468 t b b b b b b, f 16;
#X obj 639 471 d_0;
#X obj 639 499 outlet;
#X obj 740 471 d_0;
#X obj 740 499 outlet;
#X obj 639 337 list store \$5;
#X obj 740 377 list store \$6;
#X connect 0 0 13 0;
#X connect 1 0 7 0;
#X connect 2 0 8 0;
#X connect 3 0 9 0;
#X connect 4 0 1 0;
#X connect 5 0 2 0;
#X connect 6 0 3 0;
#X connect 10 0 11 0;
#X connect 12 0 10 0;
#X connect 13 0 14 0;
#X connect 13 1 1 1;
#X connect 13 2 2 1;
#X connect 13 3 3 1;
#X connect 13 4 10 1;
#X connect 13 5 15 1;
#X connect 13 6 17 1;
#X connect 14 0 4 0;
#X connect 14 1 5 0;
#X connect 14 2 6 0;
#X connect 14 3 12 0;
#X connect 14 4 19 0;
#X connect 14 5 20 0;
#X connect 15 0 16 0;
#X connect 17 0 18 0;
#X connect 19 0 15 0;
#X connect 20 0 17 0;
#X restore 249 326 pd dollar_zero_args;
#X f 134;
#X obj 249 296 inlet dollar_zero;
#X obj 59 324 t b b b, f 10;
#X text 253 265 // s w_1;
#X text 460 297 // s w_2;
#X text 672 298 // s dz_1;
#X text 873 296 // s dz_2;
#X text 1091 293 // s da_prev_1;
#X text 1307 292 // s da_prev_2;
#X obj 295 396 array size;
#X obj 274 440 f;
#X obj 274 468 until;
#X obj 274 516 f;
#X obj 274 544 t f f;
#X obj 335 554 + 1;
#X msg 342 467 0;
#N canvas 1476 693 543 343 array_slice 0;
#X obj 67 81 inlet index;
#X obj 218 84 inlet s_w_1;
#X obj 367 86 inlet s_w_2;
#X obj 186 210 array get;
#X obj 335 210 array get;
#X obj 218 112 t b s;
#X msg 218 140 1;
#X obj 367 114 t b s;
#X msg 367 142 1;
#X obj 67 109 t f f;
#X obj 335 258 outlet w_2;
#X obj 186 258 outlet w_1;
#X connect 0 0 9 0;
#X connect 1 0 5 0;
#X connect 2 0 7 0;
#X connect 3 0 11 0;
#X connect 4 0 10 0;
#X connect 5 0 6 0;
#X connect 5 1 3 2;
#X connect 6 0 3 1;
#X connect 7 0 8 0;
#X connect 7 1 4 2;
#X connect 8 0 4 1;
#X connect 9 0 3 0;
#X connect 9 1 4 0;
#X restore 374 768 pd array_slice;
#X obj 353 811 *;
#X obj 462 811 *;
#X obj 249 354 t b s b s s, f 23;
#X msg 756 545 1;
#X obj 724 593 array get;
#X obj 676 367 t b s b s, f 15;
#X obj 638 424 array size;
#X obj 617 459 f;
#X obj 617 498 until;
#X obj 617 546 f;
#X obj 617 574 t f f;
#X obj 678 584 + 1;
#X msg 685 497 0;
#X msg 970 545 1;
#X obj 938 593 array get;
#X obj 890 367 t b s b s, f 15;
#X obj 852 424 array size;
#X obj 831 459 f;
#X obj 831 498 until;
#X obj 831 546 f;
#X obj 831 574 t f f;
#X obj 892 584 + 1;
#X msg 899 497 0;
#X obj 274 602 sel 0 1;
#X connect 1 0 4 0;
#X connect 2 0 21 0;
#X connect 2 1 18 2;
#X connect 2 2 24 0;
#X connect 2 3 34 0;
#X connect 3 0 2 0;
#X connect 11 0 12 1;
#X connect 12 0 13 0;
#X connect 13 0 14 0;
#X connect 14 0 15 0;
#X connect 15 0 42 0;
#X connect 15 1 16 0;
#X connect 16 0 14 1;
#X connect 17 0 14 1;
#X connect 18 0 19 1;
#X connect 18 1 20 1;
#X connect 21 2 11 0;
#X connect 21 3 11 1;
#X connect 21 4 18 1;
#X connect 22 0 23 1;
#X connect 24 0 25 0;
#X connect 24 1 25 1;
#X connect 24 2 22 0;
#X connect 24 3 23 2;
#X connect 25 0 26 1;
#X connect 26 0 27 0;
#X connect 27 0 28 0;
#X connect 28 0 29 0;
#X connect 29 1 30 0;
#X connect 30 0 28 1;
#X connect 31 0 28 1;
#X connect 32 0 33 1;
#X connect 34 0 35 0;
#X connect 34 1 35 1;
#X connect 34 2 32 0;
#X connect 34 3 33 2;
#X connect 35 0 36 1;
#X connect 36 0 37 0;
#X connect 37 0 38 0;
#X connect 38 0 39 0;
#X connect 39 1 40 0;
#X connect 40 0 38 1;
#X connect 41 0 38 1;
