#N canvas 92 107 1190 1229 16;
#X obj 29 193 inlet bang;
#X obj 414 1132 array set;
#X obj 29 977 outlet done;
#N canvas 1804 307 578 471 dollar_zero_args 0;
#X obj 96 22 inlet dollar_zero;
#X obj 155 325 d_0;
#X obj 237 325 d_0;
#X obj 317 325 d_0;
#X obj 155 111 list store \$1;
#X obj 237 151 list store \$2;
#X obj 317 191 list store \$3;
#X obj 155 353 outlet;
#X obj 237 353 outlet;
#X obj 317 353 outlet;
#X obj 96 63 t b f f f f, f 41;
#X obj 401 325 d_0;
#X obj 401 353 outlet;
#X obj 34 245 t b b b b;
#X obj 401 231 list store \$4;
#X connect 0 0 10 0;
#X connect 1 0 7 0;
#X connect 2 0 8 0;
#X connect 3 0 9 0;
#X connect 4 0 1 0;
#X connect 5 0 2 0;
#X connect 6 0 3 0;
#X connect 10 0 13 0;
#X connect 10 1 1 1;
#X connect 10 2 2 1;
#X connect 10 3 3 1;
#X connect 10 4 11 1;
#X connect 11 0 12 0;
#X connect 13 0 4 0;
#X connect 13 1 5 0;
#X connect 13 2 6 0;
#X connect 13 3 14 0;
#X connect 14 0 11 0;
#X restore 224 267 pd dollar_zero_args;
#X f 90;
#X obj 224 193 inlet dollar_zero;
#X text 16 7 // calculates dw for 1 node \, 1 feature \; dW^[l] = 1/m . dZ^[l]A^[l-1]T \; args \; \$1: symbol dz array \; \$2: symbol a_prev_1 array \; \$3: symbol a_prev_2 array \; \$4: symbol dw array \; inlets: 1: symbol bang \; 2: float \$0 \, the current \$0 value;
#X obj 414 987 /;
#X obj 625 775 t b s s;
#X obj 625 825 array size;
#X obj 414 894 nn.element_wise_product, f 30;
#X obj 386 667 list store;
#X obj 625 667 list store;
#N canvas 1771 624 560 588 dw_iterator 0;
#X obj 147 26 inlet init;
#X obj 263 26 inlet symbol;
#X obj 263 146 array size;
#X obj 242 221 f;
#X obj 242 249 until;
#X obj 242 307 f;
#X obj 242 335 t f f;
#X obj 309 334 + 1;
#X msg 302 248 0;
#X obj 242 443 outlet index;
#X obj 263 110 t b s;
#X obj 147 54 t b b;
#X connect 0 0 11 0;
#X connect 1 0 10 0;
#X connect 2 0 3 1;
#X connect 3 0 4 0;
#X connect 4 0 5 0;
#X connect 5 0 6 0;
#X connect 6 0 9 0;
#X connect 6 1 7 0;
#X connect 7 0 5 1;
#X connect 8 0 5 1;
#X connect 10 0 2 0;
#X connect 10 1 2 1;
#X connect 11 0 3 0;
#X connect 11 1 8 0;
#X restore 890 341 pd dw_iterator;
#X obj 29 231 t b b, f 108;
#X obj 890 369 sel 0 1, f 31;
#X msg 943 783 0;
#X msg 1065 781 1;
#X obj 944 299 t s s;
#X text 959 268 // s dw;
#X text 708 299 // s a_prev_2;
#X text 475 293 // s s_prev_1;
#X text 241 295 // s dz;
#X obj 890 407 t b b b;
#X obj 1012 407 t b b b;
#X connect 0 0 13 0;
#X connect 3 0 9 1;
#X connect 3 1 10 1;
#X connect 3 2 11 1;
#X connect 3 3 17 0;
#X connect 4 0 3 0;
#X connect 6 0 1 0;
#X connect 7 0 8 0;
#X connect 7 1 9 2;
#X connect 7 2 8 1;
#X connect 8 0 6 1;
#X connect 9 0 6 0;
#X connect 10 0 7 0;
#X connect 11 0 7 0;
#X connect 12 0 14 0;
#X connect 13 0 2 0;
#X connect 13 1 12 0;
#X connect 14 0 22 0;
#X connect 14 1 23 0;
#X connect 15 0 1 1;
#X connect 16 0 1 1;
#X connect 17 0 1 2;
#X connect 17 1 12 1;
#X connect 22 0 9 0;
#X connect 22 1 10 0;
#X connect 22 2 15 0;
#X connect 23 0 9 0;
#X connect 23 1 11 0;
#X connect 23 2 16 0;
