#N canvas 1572 233 1308 986 16;
#X obj 68 34 inlet bang;
#X obj 344 33 inlet s_A;
#X obj 990 32 inlet s_Y;
#X obj 1157 32 inlet s_dA;
#X obj 344 177 array size;
#X obj 323 262 f 1;
#X obj 323 309 until;
#X obj 323 365 f;
#X obj 387 374 + 1;
#X msg 168 113 0;
#X obj 312 658 array get, f 33;
#X obj 67 80 t b b b, f 13;
#X msg 117 295 1;
#X obj 726 708 array get, f 33;
#X obj 948 878 array set;
#X obj 520 781 -;
#X obj 344 107 t b s s, f 29;
#X obj 323 516 t f f f f, f 76;
#X obj 344 219 t f f f, f 23;
#X obj 99 664 - 1;
#X obj 100 720 sel;
#X obj 100 772 outlet done;
#X obj 117 323 t f f;
#X obj 323 453 mod, f 26;
#X connect 0 0 11 0;
#X connect 1 0 16 0;
#X connect 2 0 13 2;
#X connect 3 0 14 2;
#X connect 4 0 18 0;
#X connect 5 0 6 0;
#X connect 6 0 7 0;
#X connect 7 0 8 0;
#X connect 7 0 23 0;
#X connect 8 0 7 1;
#X connect 9 0 7 1;
#X connect 10 0 15 0;
#X connect 11 0 5 0;
#X connect 11 1 12 0;
#X connect 11 2 9 0;
#X connect 12 0 22 0;
#X connect 13 0 15 1;
#X connect 15 0 14 0;
#X connect 16 0 4 0;
#X connect 16 1 4 1;
#X connect 16 2 10 2;
#X connect 17 0 20 0;
#X connect 17 1 10 0;
#X connect 17 2 13 0;
#X connect 17 3 14 1;
#X connect 18 0 19 0;
#X connect 18 1 5 1;
#X connect 18 2 23 1;
#X connect 19 0 20 1;
#X connect 20 0 21 0;
#X connect 22 0 10 1;
#X connect 22 1 13 1;
#X connect 23 0 17 0;
