#N canvas 814 70 1478 1310 16;
#X text 26 15 // dA^[l-1] = W^[l]T . dZ^[l] \; args \; \$1: symbol weights array 1 \; \$2: symbol weights array 2 \; \$3: symbol dz array 1 \; \$4: symbol dz array 2 \; \$5: symbol da_prev array 1 \; \$6: symbol da_prev array 2 \; inlets \; 1: symbol bang \; 2: float \$0 \;;
#X obj 59 296 inlet bang;
#N canvas 1732 142 910 620 dollar_zero_args 0;
#X obj 156 105 inlet dollar_zero;
#X obj 235 471 d_0;
#X obj 336 471 d_0;
#X obj 437 471 d_0;
#X obj 235 184 list store \$1;
#X obj 336 224 list store \$2;
#X obj 437 264 list store \$3;
#X obj 235 499 outlet;
#X obj 337 499 outlet;
#X obj 437 499 outlet;
#X obj 538 471 d_0;
#X obj 538 499 outlet;
#X obj 538 304 list store \$4;
#X obj 156 146 t b f f f f f f, f 76;
#X obj 34 468 t b b b b b b, f 16;
#X obj 639 471 d_0;
#X obj 639 499 outlet;
#X obj 740 471 d_0;
#X obj 740 499 outlet;
#X obj 639 337 list store \$5;
#X obj 740 377 list store \$6;
#X connect 0 0 13 0;
#X connect 1 0 7 0;
#X connect 2 0 8 0;
#X connect 3 0 9 0;
#X connect 4 0 1 0;
#X connect 5 0 2 0;
#X connect 6 0 3 0;
#X connect 10 0 11 0;
#X connect 12 0 10 0;
#X connect 13 0 14 0;
#X connect 13 1 1 1;
#X connect 13 2 2 1;
#X connect 13 3 3 1;
#X connect 13 4 10 1;
#X connect 13 5 15 1;
#X connect 13 6 17 1;
#X connect 14 0 4 0;
#X connect 14 1 5 0;
#X connect 14 2 6 0;
#X connect 14 3 12 0;
#X connect 14 4 19 0;
#X connect 14 5 20 0;
#X connect 15 0 16 0;
#X connect 17 0 18 0;
#X connect 19 0 15 0;
#X connect 20 0 17 0;
#X restore 249 326 pd dollar_zero_args;
#X f 134;
#X obj 249 296 inlet dollar_zero;
#X text 253 265 // s w_1;
#X text 460 297 // s w_2;
#X text 672 298 // s dz_1;
#X text 873 296 // s dz_2;
#X text 1091 293 // s da_prev_1;
#X text 1307 292 // s da_prev_2;
#N canvas 1476 693 543 343 array_slice 0;
#X obj 67 81 inlet index;
#X obj 218 84 inlet s_w_1;
#X obj 367 86 inlet s_w_2;
#X obj 186 210 array get;
#X obj 335 210 array get;
#X obj 218 112 t b s;
#X msg 218 140 1;
#X obj 367 114 t b s;
#X msg 367 142 1;
#X obj 67 109 t f f;
#X obj 335 258 outlet w_2;
#X obj 186 258 outlet w_1;
#X connect 0 0 9 0;
#X connect 1 0 5 0;
#X connect 2 0 7 0;
#X connect 3 0 11 0;
#X connect 4 0 10 0;
#X connect 5 0 6 0;
#X connect 5 1 3 2;
#X connect 6 0 3 1;
#X connect 7 0 8 0;
#X connect 7 1 4 2;
#X connect 8 0 4 1;
#X connect 9 0 3 0;
#X connect 9 1 4 0;
#X restore 353 802 pd array_slice;
#X obj 332 967 *;
#X obj 441 967 *;
#X msg 710 600 1;
#X obj 676 633 array get;
#X msg 924 600 1;
#X obj 890 633 array get;
#X obj 148 442 sel 0 1, f 31;
#X obj 270 490 t b b b, f 13;
#X msg 202 647 0;
#X msg 320 647 1;
#X obj 264 704 f;
#X obj 379 1020 +;
#X obj 835 1249 array set;
#X obj 1029 1052 list store;
#X obj 1242 1052 list store;
#X obj 63 1160 outlet bang;
#X obj 890 367 t b s, f 9;
#X obj 249 354 t s s, f 20;
#N canvas 2640 646 563 442 dz_iterator 0;
#X obj 52 47 inlet trigger;
#X obj 266 75 t b s;
#X obj 266 113 array size;
#X obj 245 201 f;
#X obj 52 75 t b b, f 19;
#X obj 245 229 until;
#X obj 245 267 f;
#X obj 245 295 t f f;
#X obj 245 343 outlet;
#X obj 305 295 + 1;
#X msg 305 229 0;
#X obj 266 47 inlet s_dz_array;
#X connect 0 0 4 0;
#X connect 1 0 2 0;
#X connect 1 1 2 1;
#X connect 2 0 3 1;
#X connect 3 0 5 0;
#X connect 4 0 3 0;
#X connect 4 1 10 0;
#X connect 5 0 6 0;
#X connect 6 0 7 0;
#X connect 7 0 8 0;
#X connect 7 1 9 0;
#X connect 9 0 6 1;
#X connect 10 0 6 1;
#X connect 11 0 1 0;
#X restore 567 501 pd dz_iterator;
#X obj 676 367 t s b s, f 9;
#N canvas 2815 619 555 431 w_iterator 0;
#X obj 82 47 inlet trigger;
#X obj 296 47 inlet s_w_array;
#X obj 296 75 t b s;
#X obj 296 113 array size;
#X obj 275 201 f;
#X obj 82 75 t b b, f 19;
#X obj 275 229 until;
#X obj 275 267 f;
#X obj 275 295 t f f;
#X obj 275 343 outlet;
#X obj 335 295 + 1;
#X msg 335 229 0;
#X connect 0 0 5 0;
#X connect 1 0 2 0;
#X connect 2 0 3 0;
#X connect 2 1 3 1;
#X connect 3 0 4 1;
#X connect 4 0 6 0;
#X connect 5 0 4 0;
#X connect 5 1 11 0;
#X connect 6 0 7 0;
#X connect 7 0 8 0;
#X connect 8 0 9 0;
#X connect 8 1 10 0;
#X connect 10 0 7 1;
#X connect 11 0 7 1;
#X restore 148 409 pd w_iterator;
#X obj 148 490 t b b b, f 14;
#X obj 211 592 b;
#X obj 567 552 t f f f, f 38;
#X obj 59 324 t b b, f 10;
#X connect 1 0 35 0;
#X connect 2 0 28 0;
#X connect 2 1 10 2;
#X connect 2 2 30 0;
#X connect 2 3 27 0;
#X connect 2 4 24 1;
#X connect 2 5 25 1;
#X connect 3 0 2 0;
#X connect 10 0 11 1;
#X connect 10 1 12 1;
#X connect 11 0 22 0;
#X connect 12 0 22 1;
#X connect 13 0 14 1;
#X connect 14 0 11 0;
#X connect 15 0 16 1;
#X connect 16 0 12 0;
#X connect 17 0 32 0;
#X connect 17 1 18 0;
#X connect 18 0 33 0;
#X connect 18 1 20 0;
#X connect 18 2 25 0;
#X connect 19 0 21 0;
#X connect 20 0 21 0;
#X connect 21 0 10 0;
#X connect 22 0 23 0;
#X connect 24 0 23 2;
#X connect 25 0 23 2;
#X connect 27 0 15 0;
#X connect 27 1 16 2;
#X connect 28 0 31 1;
#X connect 28 1 10 1;
#X connect 29 0 34 0;
#X connect 30 0 29 1;
#X connect 30 1 13 0;
#X connect 30 2 14 2;
#X connect 31 0 17 0;
#X connect 32 0 33 0;
#X connect 32 1 19 0;
#X connect 32 2 24 0;
#X connect 33 0 29 0;
#X connect 34 0 14 0;
#X connect 34 1 16 0;
#X connect 34 2 23 1;
#X connect 35 0 26 0;
#X connect 35 1 31 0;
