#N canvas 1604 96 1096 1258 16;
#X obj 67 282 inlet bang;
#X obj 553 402 array size;
#X obj 532 447 f 1;
#X obj 532 478 until;
#X obj 532 511 f;
#X obj 576 520 + 1;
#X msg 168 395 0;
#X obj 532 837 array get;
#X msg 134 563 1;
#X obj 661 837 array get;
#X obj 842 1177 array set;
#X obj 640 960 -;
#X obj 553 342 t b s s, f 14;
#X obj 134 591 t f f;
#X obj 67 310 t b b b b, f 13;
#X obj 67 1177 outlet done;
#X obj 532 553 t f f f;
#N canvas 564 506 499 409 dollar_zero_args 0;
#X obj 96 22 inlet dollar_zero;
#X obj 170 285 d_0;
#X obj 244 285 d_0;
#X obj 317 285 d_0;
#X obj 170 111 list store \$1;
#X obj 244 151 list store \$2;
#X obj 317 191 list store \$3;
#X obj 170 313 outlet;
#X obj 244 313 outlet;
#X obj 317 313 outlet;
#X obj 96 63 t b f f f, f 37;
#X obj 34 245 t b b b;
#X connect 0 0 10 0;
#X connect 1 0 7 0;
#X connect 2 0 8 0;
#X connect 3 0 9 0;
#X connect 4 0 1 0;
#X connect 5 0 2 0;
#X connect 6 0 3 0;
#X connect 10 0 11 0;
#X connect 10 1 1 1;
#X connect 10 2 2 1;
#X connect 10 3 3 1;
#X connect 11 0 4 0;
#X connect 11 1 5 0;
#X connect 11 2 6 0;
#X restore 553 309 pd dollar_zero_args;
#X f 45;
#X obj 553 281 inlet dollar_zero;
#X obj 207 282 inlet y_scale;
#X obj 367 281 inlet y_offset;
#X obj 661 926 nn.scale_input;
#X obj 207 310 s \$0_nn.y_scale;
#X obj 367 309 s \$0_nn.y_offset;
#X obj 715 870 r \$0_nn.y_scale;
#X obj 770 898 r \$0_nn.y_offset;
#X text 23 15 // MSE Loss: L = 1/2(A - Y)^2 \; dL/dA = (A - Y) \; g'(Z) = 1 \; Therefore: dZ = dA x g'(Z) = (A - Y) x 1 = (A - Y) \; Args \; \$1: symbol y_hat array (1 \, m) \; \$2: symbol Y array (1 \, m) \; \$3: symbol da array (1 \, m) \; inlets \; 1: symbol bang \; 2: float y_scale (defaults to 1) \; 3: float y_offset (defaults to 0) \; 4: float patch \$0 value;
#X connect 0 0 14 0;
#X connect 1 0 2 1;
#X connect 2 0 3 0;
#X connect 3 0 4 0;
#X connect 4 0 5 0;
#X connect 4 0 16 0;
#X connect 5 0 4 1;
#X connect 6 0 4 1;
#X connect 7 0 11 0;
#X connect 8 0 13 0;
#X connect 9 0 21 0;
#X connect 11 0 10 0;
#X connect 12 0 1 0;
#X connect 12 1 1 1;
#X connect 12 2 7 2;
#X connect 13 0 7 1;
#X connect 13 1 9 1;
#X connect 14 0 15 0;
#X connect 14 1 2 0;
#X connect 14 2 8 0;
#X connect 14 3 6 0;
#X connect 16 0 7 0;
#X connect 16 1 9 0;
#X connect 16 2 10 1;
#X connect 17 0 12 0;
#X connect 17 1 9 2;
#X connect 17 2 10 2;
#X connect 18 0 17 0;
#X connect 19 0 22 0;
#X connect 20 0 23 0;
#X connect 21 0 11 1;
#X connect 24 0 21 1;
#X connect 25 0 21 2;
