#N canvas 380 276 1318 1036 16;
#X text 17 7 // dZ^[l] = dA^[l] x g^[l]'(Z^[l]) \; args: \; \$1: symbol dA array \; \$2: symbol Z array \; \$3: symbol A array \; \$4: symbol dZ array \; \$5: symbol activation type;
#X msg 1003 468 1;
#X msg 1064 468 2;
#X msg 1125 468 3;
#X obj 1003 419 select relu tanh sigmoid linear;
#X msg 1186 468 4;
#X msg 1248 468 0;
#X obj 125 152 inlet bang;
#X obj 346 337 t b b s s, f 14;
#X obj 315 375 array size;
#X obj 435 758 array get;
#X msg 464 226 0;
#X obj 294 449 f 1;
#X obj 294 477 until;
#X obj 294 515 f;
#X obj 332 526 + 1;
#X obj 435 939 array set, f 18;
#X obj 648 758 array get, f 16;
#X obj 435 870 *;
#X obj 125 974 outlet done;
#X msg 469 722 1;
#X obj 491 338 t b s, f 9;
#X msg 710 727 1;
#X obj 637 340 t b s, f 9;
#X obj 294 563 t f f f f, f 72;
#X obj 886 758 array get, f 17;
#X msg 952 728 1;
#X obj 648 800 expr if($f3 == 1 \, if($f1 >= 0 \, 1 \, 0) \, if($f3 == 2 \, 1 - $f2 * $f2 \, if($f3 == 3 \, $f2 * (1 - $f2) \, $f1)));
#X obj 345 62 inlet dollar_zero;
#N canvas 500 374 557 464 dollar_zero_args 0;
#X obj 96 22 inlet dollar_zero;
#X obj 147 345 d_0;
#X obj 221 345 d_0;
#X obj 294 345 d_0;
#X obj 368 345 d_0;
#X obj 147 171 list store \$1;
#X obj 221 211 list store \$2;
#X obj 294 251 list store \$3;
#X obj 368 292 list store \$4;
#X obj 34 305 t b b b b;
#X obj 96 93 t b f f f f, f 37;
#X obj 147 373 outlet;
#X obj 221 373 outlet;
#X obj 294 373 outlet;
#X obj 368 373 outlet;
#X connect 0 0 10 0;
#X connect 1 0 11 0;
#X connect 2 0 12 0;
#X connect 3 0 13 0;
#X connect 4 0 14 0;
#X connect 5 0 1 0;
#X connect 6 0 2 0;
#X connect 7 0 3 0;
#X connect 8 0 4 0;
#X connect 9 0 5 0;
#X connect 9 1 6 0;
#X connect 9 2 7 0;
#X connect 9 3 8 0;
#X connect 10 0 9 0;
#X connect 10 1 1 1;
#X connect 10 2 2 1;
#X connect 10 3 3 1;
#X connect 10 4 4 1;
#X restore 345 97 pd dollar_zero_args;
#X f 55;
#X obj 1003 376 list store \$5;
#X obj 125 180 t b b b b, f 64;
#X text 356 126 // da;
#X text 497 121 // z;
#X text 647 124 // a;
#X text 793 121 // dz;
#X connect 1 0 27 2;
#X connect 2 0 27 2;
#X connect 3 0 27 2;
#X connect 4 0 1 0;
#X connect 4 1 2 0;
#X connect 4 2 3 0;
#X connect 4 3 5 0;
#X connect 4 4 6 0;
#X connect 5 0 27 2;
#X connect 6 0 27 2;
#X connect 7 0 31 0;
#X connect 8 0 9 0;
#X connect 8 1 20 0;
#X connect 8 2 9 1;
#X connect 8 3 10 2;
#X connect 9 0 12 1;
#X connect 10 0 18 0;
#X connect 11 0 14 1;
#X connect 12 0 13 0;
#X connect 13 0 14 0;
#X connect 14 0 15 0;
#X connect 14 0 24 0;
#X connect 15 0 14 1;
#X connect 17 0 27 0;
#X connect 18 0 16 0;
#X connect 20 0 10 1;
#X connect 21 0 22 0;
#X connect 21 1 17 2;
#X connect 22 0 17 1;
#X connect 23 0 26 0;
#X connect 23 1 25 2;
#X connect 24 0 10 0;
#X connect 24 1 17 0;
#X connect 24 2 16 1;
#X connect 24 3 25 0;
#X connect 25 0 27 1;
#X connect 26 0 25 1;
#X connect 27 0 18 1;
#X connect 28 0 29 0;
#X connect 29 0 8 0;
#X connect 29 1 21 0;
#X connect 29 2 23 0;
#X connect 29 3 16 2;
#X connect 30 0 4 0;
#X connect 31 0 19 0;
#X connect 31 1 12 0;
#X connect 31 2 11 0;
#X connect 31 3 30 0;
