#N canvas 577 319 894 884 16;
#X obj 29 223 inlet bang;
#X obj 258 787 array set;
#X obj 29 787 outlet done;
#X obj 106 507 /;
#X obj 317 375 t b s s;
#X obj 317 425 array size;
#X obj 106 474 nn.element_wise_product, f 30;
#N canvas 564 506 499 409 dollar_zero_args 0;
#X obj 96 22 inlet dollar_zero;
#X obj 170 285 d_0;
#X obj 244 285 d_0;
#X obj 317 285 d_0;
#X obj 170 111 list store \$1;
#X obj 244 151 list store \$2;
#X obj 317 191 list store \$3;
#X obj 170 313 outlet;
#X obj 244 313 outlet;
#X obj 317 313 outlet;
#X obj 96 63 t b f f f, f 37;
#X obj 34 245 t b b b;
#X connect 0 0 10 0;
#X connect 1 0 7 0;
#X connect 2 0 8 0;
#X connect 3 0 9 0;
#X connect 4 0 1 0;
#X connect 5 0 2 0;
#X connect 6 0 3 0;
#X connect 10 0 11 0;
#X connect 10 1 1 1;
#X connect 10 2 2 1;
#X connect 10 3 3 1;
#X connect 11 0 4 0;
#X connect 11 1 5 0;
#X connect 11 2 6 0;
#X restore 224 267 pd dollar_zero_args;
#X f 45;
#X obj 224 223 inlet dollar_zero;
#X obj 292 754 f \$4;
#X text 397 755 // NOTE: w[index] is passed as an argument;
#X text 16 7 // calculates dw for 1 node \, 1 feature \; dW^[l] = 1/m . dZ^[l]A^[l-1]T \; args \; \$1: symbol dz array \; \$2: symbol a_prev array \; \$3: symbol dw array \; \$4: float w[index] \; inlets: 1: symbol bang \; 2: float \$0 \, the current \$0 value;
#X text 227 291 // dZ;
#X text 406 290 // a_prev;
#X text 580 290 // dW;
#X obj 29 251 t b b b, f 10;
#X connect 0 0 15 0;
#X connect 3 0 1 0;
#X connect 4 0 5 0;
#X connect 4 1 6 2;
#X connect 4 2 5 1;
#X connect 5 0 3 1;
#X connect 6 0 3 0;
#X connect 7 0 6 1;
#X connect 7 1 4 0;
#X connect 7 2 1 2;
#X connect 8 0 7 0;
#X connect 9 0 1 1;
#X connect 15 0 2 0;
#X connect 15 1 6 0;
#X connect 15 2 9 0;
