#N canvas 1166 150 1288 1110 16;
#X text 23 6 // dA^[l] = W^[l]T . dZ^[l];
#X obj 30 75 inlet bang;
#X obj 168 75 inlet s_W_row;
#X text 18 26 // working around lack of matrix multiplication;
#X obj 168 372 array get;
#X obj 492 110 t b b s s;
#X obj 367 186 array size;
#X obj 492 376 array get;
#X msg 526 340 1;
#X obj 346 256 f 1;
#X obj 346 304 until;
#X obj 346 352 f;
#X obj 389 366 + 1;
#X obj 367 214 t f f, f 8;
#X obj 147 856 *;
#X obj 266 856 *;
#X obj 378 856 *;
#X obj 497 856 *;
#X msg 398 327 0;
#X obj 728 1020 array set;
#X obj 168 400 unpack f f f f;
#X obj 168 103 t b s;
#X obj 797 82 inlet s_dA1;
#X obj 914 80 inlet s_dA2;
#X obj 1034 78 inlet s_dA3;
#X obj 1161 74 inlet s_dA4;
#X obj 346 440 t f f f f f;
#X obj 845 1020 array set;
#X obj 965 1020 array set;
#X obj 1092 1020 array set;
#X obj 492 744 t f f f f;
#X obj 492 82 inlet s_dZ;
#X obj 30 103 t b b b, f 12;
#X obj 30 1001 outlet done;
#X connect 1 0 32 0;
#X connect 2 0 21 0;
#X connect 4 0 20 0;
#X connect 5 0 6 0;
#X connect 5 1 8 0;
#X connect 5 2 6 1;
#X connect 5 3 7 2;
#X connect 6 0 13 0;
#X connect 7 0 30 0;
#X connect 8 0 7 1;
#X connect 9 0 10 0;
#X connect 10 0 11 0;
#X connect 11 0 12 0;
#X connect 11 0 26 0;
#X connect 12 0 11 1;
#X connect 13 0 9 1;
#X connect 14 0 19 0;
#X connect 15 0 27 0;
#X connect 16 0 28 0;
#X connect 17 0 29 0;
#X connect 18 0 11 1;
#X connect 20 0 14 1;
#X connect 20 1 15 1;
#X connect 20 2 16 1;
#X connect 20 3 17 1;
#X connect 21 0 4 0;
#X connect 21 1 4 2;
#X connect 22 0 19 2;
#X connect 23 0 27 2;
#X connect 24 0 28 2;
#X connect 25 0 29 2;
#X connect 26 0 7 0;
#X connect 26 1 19 1;
#X connect 26 2 27 1;
#X connect 26 3 28 1;
#X connect 26 4 29 1;
#X connect 30 0 14 0;
#X connect 30 1 15 0;
#X connect 30 2 16 0;
#X connect 30 3 17 0;
#X connect 31 0 5 0;
#X connect 32 0 33 0;
#X connect 32 1 9 0;
#X connect 32 2 18 0;
