#N canvas 934 230 920 953 16;
#X obj 29 67 inlet bang;
#X obj 258 797 array set;
#X obj 29 797 outlet done;
#X obj 106 517 /;
#X obj 164 67 inlet s_dZ;
#X obj 285 67 inlet s_A_prev;
#X obj 285 105 t b s s;
#X obj 285 155 array size;
#X obj 732 70 inlet s_dw;
#X obj 292 731 loadbang;
#X obj 292 764 f \$1;
#X obj 29 95 t b b, f 10;
#X text 397 765 // NOTE: W[index] is passed as an argument;
#X obj 106 474 nn.element_wise;
#X text 16 8 // calculates dw for one feature of one node. dW^[l] = 1/m . dZ^[l]A^[l-1]T;
#X connect 0 0 11 0;
#X connect 3 0 1 0;
#X connect 4 0 13 1;
#X connect 5 0 6 0;
#X connect 6 0 7 0;
#X connect 6 1 13 2;
#X connect 6 2 7 1;
#X connect 7 0 3 1;
#X connect 8 0 1 2;
#X connect 9 0 10 0;
#X connect 10 0 1 1;
#X connect 11 0 2 0;
#X connect 11 1 13 0;
#X connect 13 0 3 0;
