#N canvas 1227 288 1339 1067 16;
#X obj 27 114 inlet bang;
#X obj 315 113 inlet s_A;
#X obj 915 112 inlet s_Y;
#X obj 315 257 array size;
#X obj 294 292 f 1;
#X obj 294 339 until;
#X obj 294 395 f;
#X obj 338 404 + 1;
#X msg 128 283 0;
#X obj 283 788 array get, f 33;
#X msg 94 395 1;
#X obj 686 788 array get, f 29;
#X obj 910 958 array set;
#X obj 480 861 -;
#X obj 315 187 t b s s, f 29;
#X obj 94 423 t f f;
#X obj 1117 112 inlet s_dZ;
#X obj 27 160 t b b b b, f 13;
#X obj 27 958 outlet done;
#X text 23 16 // MSE Loss: L = 1/2(A - Y)^2 \; dL/dA = (A - Y) \; g'(Z) = 1 \; Therefore: dZ = dA x g'(Z) = (A - Y) x 1 = (A - Y);
#X obj 283 596 t f f f, f 83;
#X connect 0 0 17 0;
#X connect 1 0 14 0;
#X connect 2 0 11 2;
#X connect 3 0 4 1;
#X connect 4 0 5 0;
#X connect 5 0 6 0;
#X connect 6 0 7 0;
#X connect 6 0 20 0;
#X connect 7 0 6 1;
#X connect 8 0 6 1;
#X connect 9 0 13 0;
#X connect 10 0 15 0;
#X connect 11 0 13 1;
#X connect 13 0 12 0;
#X connect 14 0 3 0;
#X connect 14 1 3 1;
#X connect 14 2 9 2;
#X connect 15 0 9 1;
#X connect 15 1 11 1;
#X connect 16 0 12 2;
#X connect 17 0 18 0;
#X connect 17 1 4 0;
#X connect 17 2 10 0;
#X connect 17 3 8 0;
#X connect 20 0 9 0;
#X connect 20 1 11 0;
#X connect 20 2 12 1;
