#N canvas 358 152 912 627 16;
#X obj 29 67 inlet bang;
#X obj 258 517 array set;
#X obj 29 517 outlet done;
#X obj 106 237 /;
#X obj 317 105 t b s s;
#X obj 317 155 array size;
#X obj 732 70 inlet s_dw;
#X obj 292 451 loadbang;
#X obj 292 484 f \$1;
#X obj 29 95 t b b, f 10;
#X text 397 485 // NOTE: W[index] is passed as an argument;
#X text 16 8 // calculates dw for one feature of one node. dW^[l] = 1/m . dZ^[l]A^[l-1]T;
#X obj 224 67 inlet s_dz;
#X obj 317 67 inlet s_a_prev;
#X obj 106 204 nn.element_wise_product, f 30;
#X connect 0 0 9 0;
#X connect 3 0 1 0;
#X connect 4 0 5 0;
#X connect 4 1 14 2;
#X connect 4 2 5 1;
#X connect 5 0 3 1;
#X connect 6 0 1 2;
#X connect 7 0 8 0;
#X connect 8 0 1 1;
#X connect 9 0 2 0;
#X connect 9 1 14 0;
#X connect 12 0 14 1;
#X connect 13 0 4 0;
#X connect 14 0 3 0;
