#N canvas 1750 91 1243 981 16;
#X obj 34 103 inlet bang;
#X obj 399 313 array size;
#X obj 414 615 array get, f 13;
#X obj 378 358 f 1;
#X obj 378 408 until;
#X msg 111 286 0;
#X obj 378 454 f;
#X obj 434 462 + 1;
#X obj 414 741 *;
#X obj 414 817 array set, f 12;
#X obj 34 817 outlet done;
#X obj 217 615 array get;
#X obj 399 103 inlet s_dZ;
#X msg 243 174 1;
#X obj 399 133 t b b s s, f 25;
#X msg 464 166 1;
#X obj 378 526 t f f, f 10;
#X obj 34 131 t b b b, f 10;
#X obj 201 103 inlet s_W;
#X obj 634 103 inlet s_dA_prev;
#X text 14 7 // dA^[l-1] = W^[l]T . dZ^[l];
#X text 16 45 // handles the case of a layer with a single neuron and a single input;
#X obj 201 131 t b b s, f 11;
#X msg 201 175 0;
#X connect 0 0 17 0;
#X connect 1 0 3 1;
#X connect 2 0 8 0;
#X connect 3 0 4 0;
#X connect 4 0 6 0;
#X connect 5 0 6 1;
#X connect 6 0 7 0;
#X connect 6 0 16 0;
#X connect 7 0 6 1;
#X connect 8 0 9 0;
#X connect 11 0 8 1;
#X connect 12 0 14 0;
#X connect 13 0 11 1;
#X connect 14 0 1 0;
#X connect 14 1 15 0;
#X connect 14 2 1 1;
#X connect 14 3 2 2;
#X connect 15 0 2 1;
#X connect 16 0 2 0;
#X connect 16 1 9 1;
#X connect 17 0 10 0;
#X connect 17 1 3 0;
#X connect 17 2 5 0;
#X connect 18 0 22 0;
#X connect 19 0 9 2;
#X connect 22 0 23 0;
#X connect 22 1 13 0;
#X connect 22 2 11 2;
#X connect 23 0 11 0;
