#N canvas 451 205 1158 1089 16;
#X obj 34 223 inlet bang;
#X obj 551 970 array set, f 11;
#X obj 34 987 outlet done;
#X obj 321 799 array get;
#N canvas 1728 106 685 637 dollar_zero_args 0;
#X obj 106 125 inlet dollar_zero;
#X obj 186 418 d_0;
#X obj 287 418 d_0;
#X obj 388 418 d_0;
#X obj 186 204 list store \$1;
#X obj 287 244 list store \$2;
#X obj 388 284 list store \$3;
#X obj 186 446 outlet;
#X obj 288 446 outlet;
#X obj 388 446 outlet;
#X obj 106 166 t b f f f f, f 51;
#X obj 44 348 t b b b b;
#X obj 490 418 d_0;
#X obj 490 446 outlet;
#X obj 490 324 list store \$4;
#X connect 0 0 10 0;
#X connect 1 0 7 0;
#X connect 2 0 8 0;
#X connect 3 0 9 0;
#X connect 4 0 1 0;
#X connect 5 0 2 0;
#X connect 6 0 3 0;
#X connect 10 0 11 0;
#X connect 10 1 1 1;
#X connect 10 2 2 1;
#X connect 10 3 3 1;
#X connect 10 4 12 1;
#X connect 11 0 4 0;
#X connect 11 1 5 0;
#X connect 11 2 6 0;
#X connect 11 3 14 0;
#X connect 12 0 13 0;
#X connect 14 0 12 0;
#X restore 224 253 pd dollar_zero_args;
#X f 106;
#X obj 224 223 inlet dollar_zero;
#X text 14 6 // dA^[l-1] = W^[l]T . dZ^[l] \; handles the case of a (1 \, 2) weight "matrix" \; args: \; \$1: symbol weights array \; \$2: symbol dz array \; \$3: symbol da_prev_1 array \; \$4: symbol da_prev_2 array \; 1: symbol bang \; 2: float \$0;
#X obj 710 850 list store;
#X obj 992 850 list store;
#X obj 478 353 array size;
#X obj 457 395 f;
#X obj 457 423 until;
#X obj 457 461 f;
#X obj 457 489 t f f;
#X msg 513 431 0;
#X obj 524 497 + 1;
#X obj 224 322 array size;
#X obj 203 359 f;
#X obj 203 387 until;
#X obj 203 431 f;
#X obj 203 459 t f f;
#X obj 270 467 + 1;
#X msg 257 395 0;
#X obj 203 517 sel 0 1, f 22;
#X obj 537 799 array get;
#X obj 446 901 *;
#X obj 203 585 t b b b b;
#X obj 289 585 t b b b b;
#X msg 312 686 1;
#X obj 505 303 t b s b s, f 13;
#X msg 571 766 1;
#X msg 226 686 0;
#X text 227 195 // s w;
#X text 496 227 // s dz;
#X text 774 228 // s da_prev_1;
#X text 1014 228 // s da_prev_2;
#X obj 457 537 t f f, f 31;
#X obj 224 281 t b s b s, f 21;
#X msg 355 766 1;
#X obj 34 251 t b b b, f 10;
#X connect 0 0 39 0;
#X connect 3 0 25 1;
#X connect 4 0 37 0;
#X connect 4 1 29 0;
#X connect 4 2 7 1;
#X connect 4 3 8 1;
#X connect 5 0 4 0;
#X connect 7 0 1 2;
#X connect 8 0 1 2;
#X connect 9 0 10 1;
#X connect 10 0 11 0;
#X connect 11 0 12 0;
#X connect 12 0 13 0;
#X connect 13 0 36 0;
#X connect 13 1 15 0;
#X connect 14 0 12 1;
#X connect 15 0 12 1;
#X connect 16 0 17 1;
#X connect 17 0 18 0;
#X connect 18 0 19 0;
#X connect 19 0 20 0;
#X connect 20 0 23 0;
#X connect 20 1 21 0;
#X connect 21 0 19 1;
#X connect 22 0 19 1;
#X connect 23 0 26 0;
#X connect 23 1 27 0;
#X connect 24 0 25 0;
#X connect 25 0 1 0;
#X connect 26 0 10 0;
#X connect 26 1 31 0;
#X connect 26 2 14 0;
#X connect 26 3 7 0;
#X connect 27 0 10 0;
#X connect 27 1 28 0;
#X connect 27 2 14 0;
#X connect 27 3 8 0;
#X connect 28 0 3 0;
#X connect 29 0 9 0;
#X connect 29 1 9 1;
#X connect 29 2 30 0;
#X connect 29 3 24 2;
#X connect 30 0 24 1;
#X connect 31 0 3 0;
#X connect 36 0 24 0;
#X connect 36 1 1 1;
#X connect 37 0 16 0;
#X connect 37 1 16 1;
#X connect 37 2 38 0;
#X connect 37 3 3 2;
#X connect 38 0 3 1;
#X connect 39 0 2 0;
#X connect 39 1 17 0;
#X connect 39 2 22 0;
