#N canvas 1946 267 930 1100 16;
#X obj 34 173 inlet bang;
#X obj 506 416 array size;
#X obj 521 718 array get, f 13;
#X obj 485 461 f 1;
#X obj 485 511 until;
#X msg 111 366 0;
#X obj 485 557 f;
#X obj 541 565 + 1;
#X obj 521 844 *;
#X obj 521 920 array set, f 12;
#X obj 34 1017 outlet done;
#X obj 240 620 array get;
#X msg 224 269 1;
#X obj 506 236 t b b s s, f 25;
#X msg 571 269 1;
#X obj 485 629 t f f, f 10;
#X obj 34 201 t b b b, f 10;
#X text 14 7 // dA^[l-1] = W^[l]T . dZ^[l] \; generates 1 da row for the previous layer \; args: \; \$1: symbol weights array \; \$2: symbol dZ array \; \$3: symbol dA_prev (row) array \; \$4: float weights index for prev layer dA;
#N canvas 564 506 499 409 dollar_zero_args 0;
#X obj 96 22 inlet dollar_zero;
#X obj 170 285 d_0;
#X obj 244 285 d_0;
#X obj 317 285 d_0;
#X obj 170 111 list store \$1;
#X obj 244 151 list store \$2;
#X obj 317 191 list store \$3;
#X obj 170 313 outlet;
#X obj 244 313 outlet;
#X obj 317 313 outlet;
#X obj 96 63 t b f f f, f 37;
#X obj 34 245 t b b b;
#X connect 0 0 10 0;
#X connect 1 0 7 0;
#X connect 2 0 8 0;
#X connect 3 0 9 0;
#X connect 4 0 1 0;
#X connect 5 0 2 0;
#X connect 6 0 3 0;
#X connect 10 0 11 0;
#X connect 10 1 1 1;
#X connect 10 2 2 1;
#X connect 10 3 3 1;
#X connect 11 0 4 0;
#X connect 11 1 5 0;
#X connect 11 2 6 0;
#X restore 224 203 pd dollar_zero_args;
#X f 71;
#X obj 224 173 inlet dollar_zero;
#X obj 240 551 loadbang;
#X obj 240 584 f \$4;
#X obj 224 236 t b s, f 11;
#X connect 0 0 16 0;
#X connect 1 0 3 1;
#X connect 2 0 8 0;
#X connect 3 0 4 0;
#X connect 4 0 6 0;
#X connect 5 0 6 1;
#X connect 6 0 7 0;
#X connect 6 0 15 0;
#X connect 7 0 6 1;
#X connect 8 0 9 0;
#X connect 11 0 8 1;
#X connect 12 0 11 1;
#X connect 13 0 1 0;
#X connect 13 1 14 0;
#X connect 13 2 1 1;
#X connect 13 3 2 2;
#X connect 14 0 2 1;
#X connect 15 0 2 0;
#X connect 15 1 9 1;
#X connect 16 0 10 0;
#X connect 16 1 3 0;
#X connect 16 2 5 0;
#X connect 18 0 22 0;
#X connect 18 1 13 0;
#X connect 18 2 9 2;
#X connect 19 0 18 0;
#X connect 20 0 21 0;
#X connect 21 0 11 0;
#X connect 22 0 12 0;
#X connect 22 1 11 2;
