#N canvas 720 218 822 924 16;
#X obj 34 64 inlet bang;
#X obj 399 263 array size;
#X obj 414 565 array get, f 13;
#X obj 378 308 f 1;
#X obj 378 358 until;
#X msg 111 247 0;
#X obj 378 404 f;
#X obj 434 412 + 1;
#X obj 414 691 *;
#X obj 414 767 array set, f 12;
#X obj 34 767 outlet done;
#X text 14 7 // dA^[l-1] = W^[l]T . dZ^[l;
#X obj 193 498 loadbang;
#X obj 193 531 f \$1;
#X obj 193 565 array get;
#X obj 202 81 t b s, f 8;
#X obj 399 53 inlet s_dZ;
#X msg 202 114 1;
#X obj 399 83 t b b s s, f 25;
#X msg 464 116 1;
#X obj 378 476 t f f, f 10;
#X obj 34 92 t b b b, f 10;
#X obj 202 53 inlet s_W;
#X obj 634 53 inlet s_dA_prev;
#X connect 0 0 21 0;
#X connect 1 0 3 1;
#X connect 2 0 8 0;
#X connect 3 0 4 0;
#X connect 4 0 6 0;
#X connect 5 0 6 1;
#X connect 6 0 7 0;
#X connect 6 0 20 0;
#X connect 7 0 6 1;
#X connect 8 0 9 0;
#X connect 12 0 13 0;
#X connect 13 0 14 0;
#X connect 14 0 8 1;
#X connect 15 0 17 0;
#X connect 15 1 14 2;
#X connect 16 0 18 0;
#X connect 17 0 14 1;
#X connect 18 0 1 0;
#X connect 18 1 19 0;
#X connect 18 2 1 1;
#X connect 18 3 2 2;
#X connect 19 0 2 1;
#X connect 20 0 2 0;
#X connect 20 1 9 1;
#X connect 21 0 10 0;
#X connect 21 1 3 0;
#X connect 21 2 5 0;
#X connect 22 0 15 0;
#X connect 23 0 9 2;
