#N canvas 409 139 951 1112 16;
#X obj 282 51 inlet arr_one_name;
#X obj 688 51 inlet arr_two_name;
#X obj 69 51 inlet bang;
#X obj 215 660 array get;
#X obj 354 218 array size;
#X obj 333 287 f 1;
#X obj 333 349 until;
#X obj 333 430 f 0;
#X obj 384 433 + 1;
#X msg 95 279 1;
#X obj 333 493 t f f f;
#X obj 619 654 array get;
#X obj 392 740 *;
#X obj 395 804 +;
#X obj 395 873 f;
#X obj 395 937 f;
#X obj 204 783 sel \$1;
#X obj 354 255 t f f;
#X obj 161 712 - 1;
#X obj 395 1000 outlet;
#X obj 69 145 t b b b;
#X msg 122 200 0;
#X obj 282 119 t s b s, f 28;
#X obj 122 228 t f f f;
#X connect 0 0 22 0;
#X connect 1 0 11 2;
#X connect 2 0 20 0;
#X connect 3 0 12 0;
#X connect 4 0 17 0;
#X connect 5 0 6 0;
#X connect 6 0 7 0;
#X connect 7 0 8 0;
#X connect 7 0 10 0;
#X connect 8 0 7 1;
#X connect 9 0 3 1;
#X connect 9 0 11 1;
#X connect 10 0 16 0;
#X connect 10 1 3 0;
#X connect 10 2 11 0;
#X connect 11 0 12 1;
#X connect 12 0 13 0;
#X connect 13 0 14 0;
#X connect 14 0 13 1;
#X connect 14 0 15 1;
#X connect 15 0 19 0;
#X connect 16 0 15 0;
#X connect 17 0 5 1;
#X connect 17 1 18 0;
#X connect 18 0 16 1;
#X connect 20 0 5 0;
#X connect 20 1 9 0;
#X connect 20 2 21 0;
#X connect 21 0 23 0;
#X connect 22 0 3 2;
#X connect 22 1 4 0;
#X connect 22 2 4 1;
#X connect 23 0 14 1;
#X connect 23 1 13 1;
#X connect 23 2 7 1;
