#N canvas 1508 212 1042 1098 16;
#X obj 282 51 inlet arr_one_name;
#X obj 683 51 inlet arr_two_name;
#X obj 69 51 inlet bang;
#X obj 215 660 array get;
#X obj 354 218 array size;
#X obj 333 419 until;
#X obj 333 500 f 0;
#X obj 384 503 + 1;
#X msg 115 429 1;
#X obj 614 654 array get;
#X obj 392 740 *;
#X obj 392 804 +;
#X obj 392 873 f;
#X obj 371 937 f;
#X obj 371 1000 outlet;
#X msg 138 180 0;
#X obj 282 119 t s b s, f 19;
#X obj 138 208 t f f f;
#X obj 333 387 f;
#X obj 333 534 t f f;
#X obj 69 145 t b b b b;
#X obj 115 457 t f f, f 67;
#X connect 0 0 16 0;
#X connect 1 0 9 2;
#X connect 2 0 20 0;
#X connect 3 0 10 0;
#X connect 4 0 18 1;
#X connect 5 0 6 0;
#X connect 6 0 7 0;
#X connect 6 0 19 0;
#X connect 7 0 6 1;
#X connect 8 0 21 0;
#X connect 9 0 10 1;
#X connect 10 0 11 0;
#X connect 11 0 12 0;
#X connect 12 0 11 1;
#X connect 12 0 13 1;
#X connect 13 0 14 0;
#X connect 15 0 17 0;
#X connect 16 0 3 2;
#X connect 16 1 4 0;
#X connect 16 2 4 1;
#X connect 17 0 12 1;
#X connect 17 1 11 1;
#X connect 17 2 6 1;
#X connect 18 0 5 0;
#X connect 19 0 3 0;
#X connect 19 1 9 0;
#X connect 20 0 13 0;
#X connect 20 1 18 0;
#X connect 20 2 8 0;
#X connect 20 3 15 0;
#X connect 21 0 3 1;
#X connect 21 1 9 1;
