#N canvas 1696 176 972 1077 16;
#X obj 379 249 array size;
#X obj 168 473 random 100000;
#X obj 262 407 until;
#X obj 262 435 t b b;
#X obj 434 993 array set;
#X obj 168 903 - 0.5;
#X obj 229 724 * 100000;
#X obj 168 759 / 100000;
#X obj 205 856 expr 0.5 / $f1;
#N canvas 568 542 352 303 dollar_zero_args 0;
#X obj 96 22 inlet dollar_zero;
#X obj 96 185 d_0;
#X obj 96 101 list store \$1;
#X obj 96 213 outlet;
#X obj 96 63 t b f, f 23;
#X connect 0 0 4 0;
#X connect 1 0 3 0;
#X connect 2 0 1 0;
#X connect 4 0 2 0;
#X connect 4 1 1 1;
#X restore 379 97 pd dollar_zero_args;
#X obj 379 53 inlet dollar_zero;
#X obj 696 445 f \$2;
#X obj 43 63 inlet bang;
#X obj 43 161 t b b, f 82;
#X obj 696 511 t f f;
#X obj 358 278 f;
#X obj 299 472 f;
#X obj 299 500 t f f;
#X obj 353 500 + 1;
#X obj 299 528 mod, f 11;
#X obj 379 216 t b s s, f 16;
#X obj 696 478 expr if($f1 > 0 \, $f1 \, 1);
#X obj 358 306 t f f f;
#X obj 299 556 t f f;
#X obj 336 595 sel, f 10;
#X obj 411 335 - 1;
#X msg 434 595 0;
#X connect 0 0 15 1;
#X connect 1 0 7 0;
#X connect 2 0 3 0;
#X connect 3 0 1 0;
#X connect 3 1 16 0;
#X connect 5 0 4 0;
#X connect 6 0 7 1;
#X connect 7 0 5 0;
#X connect 8 0 5 1;
#X connect 9 0 20 0;
#X connect 10 0 9 0;
#X connect 11 0 21 0;
#X connect 12 0 13 0;
#X connect 13 0 15 0;
#X connect 13 1 11 0;
#X connect 14 0 6 0;
#X connect 14 1 8 0;
#X connect 15 0 22 0;
#X connect 16 0 17 0;
#X connect 17 0 19 0;
#X connect 17 1 18 0;
#X connect 18 0 16 1;
#X connect 19 0 23 0;
#X connect 20 0 0 0;
#X connect 20 1 0 1;
#X connect 20 2 4 2;
#X connect 21 0 14 0;
#X connect 22 0 2 0;
#X connect 22 1 19 1;
#X connect 22 2 25 0;
#X connect 23 0 4 1;
#X connect 23 1 24 0;
#X connect 24 0 26 0;
#X connect 25 0 24 1;
#X connect 26 0 16 1;
