#N canvas 529 466 575 659 16;
#X obj 19 191 inlet bang;
#N canvas 989 558 726 597 dollar_zero_args 0;
#X obj 96 22 inlet dollar_zero;
#X obj 147 345 d_0;
#X obj 147 171 list store \$1;
#X obj 147 373 outlet;
#X obj 96 93 t b f, f 37;
#X connect 0 0 4 0;
#X connect 1 0 3 0;
#X connect 2 0 1 0;
#X connect 4 0 2 0;
#X connect 4 1 1 1;
#X restore 351 219 pd dollar_zero_args;
#X obj 351 191 inlet dollar_zero;
#X obj 425 280 array size;
#X obj 250 470 nn.read_array;
#X obj 351 247 t s b s, f 19;
#X obj 19 219 f, f 20;
#X obj 19 247 t f f;
#X obj 56 280 + 1;
#X obj 19 373 mod;
#X obj 19 401 t f f f, f 12;
#X obj 65 570 outlet index;
#X obj 250 570 outlet value;
#X msg 19 510 0;
#X obj 425 308 t f f;
#X obj 462 341 - 1;
#X obj 19 482 sel;
#X obj 199 191 inlet reset_bang;
#X msg 199 219 0;
#X text 20 11 // NOTE: renamed to nn.array_cycle \; repeatedly cycles through an array \, outputting array value and index for each bang \; args: \; \$1: symbol array to read \; inlets: \; 1: bang \, increments iterator and reads array at new index \; 2: bang \, resets iterator to 0 \; 3: float \, current \$0 value;
#X connect 0 0 6 0;
#X connect 1 0 5 0;
#X connect 2 0 1 0;
#X connect 3 0 14 0;
#X connect 4 0 12 0;
#X connect 5 0 4 1;
#X connect 5 1 3 0;
#X connect 5 2 3 1;
#X connect 6 0 7 0;
#X connect 7 0 9 0;
#X connect 7 1 8 0;
#X connect 8 0 6 1;
#X connect 9 0 10 0;
#X connect 10 0 16 0;
#X connect 10 1 11 0;
#X connect 10 2 4 0;
#X connect 13 0 6 1;
#X connect 14 0 9 1;
#X connect 14 1 15 0;
#X connect 15 0 16 1;
#X connect 16 0 13 0;
#X connect 17 0 18 0;
#X connect 18 0 6 1;
