#N canvas 170 535 407 373 16;
#X obj 23 66 inlet index;
#X obj 60 209 nn.read_array;
#X obj 23 144 t f f;
#X obj 23 286 outlet index;
#X obj 138 286 outlet value;
#X text 28 23 // \$1 symbol input arr;
#N canvas 989 558 726 597 dollar_zero_args 1;
#X obj 96 22 inlet dollar_zero;
#X obj 147 345 d_0;
#X obj 147 171 list store \$1;
#X obj 147 373 outlet;
#X obj 96 93 t b f, f 37;
#X connect 0 0 4 0;
#X connect 1 0 3 0;
#X connect 2 0 1 0;
#X connect 4 0 2 0;
#X connect 4 1 1 1;
#X restore 161 115 pd dollar_zero_args;
#X obj 161 66 inlet dollar_zero;
#X connect 0 0 2 0;
#X connect 1 0 4 0;
#X connect 2 0 3 0;
#X connect 2 1 1 0;
#X connect 6 0 1 1;
#X connect 7 0 6 0;
