#N canvas 860 70 1490 1266 16;
#X obj 29 29 inlet index;
#X obj 29 1159 outlet index;
#X msg 1186 151 1;
#X msg 1247 151 2;
#X msg 1308 151 3;
#X obj 1186 102 select relu tanh sigmoid linear;
#X msg 1369 151 4;
#X msg 1431 151 0;
#X obj 599 517 nn.read_array;
#X obj 714 597 nn.read_array;
#X msg 714 565 0;
#X msg 599 473 1;
#X obj 749 845 +;
#X obj 578 629 *;
#X obj 350 629 *;
#X obj 466 699 +;
#X obj 749 991 expr if($f2 == 1 \, if($f1 > 0 \, $f1 \, 0) \, if($f2 == 2 \, tanh($f1) \, if($f2 == 3 \, 1 / (1 + exp(-1 * $f1)) \, $f1)));
#X obj 786 1159 outlet activation;
#X obj 1250 1159 outlet z;
#X obj 572 1104 nn.cache_model_forward, f 66;
#X obj 749 901 t f f f, f 63;
#X obj 749 1037 t f f;
#X obj 278 29 inlet a_prev_1;
#X obj 506 29 inlet a_prev_2;
#X obj 485 479 f;
#X obj 257 505 f;
#X obj 371 517 nn.read_array;
#X msg 371 483 0;
#X obj 766 152 t s s;
#X obj 766 29 inlet dollar_zero;
#X obj 1186 62 list store \$5;
#X obj 1186 29 loadbang;
#N canvas 500 374 557 464 dollar_zero_args 0;
#X obj 96 22 inlet dollar_zero;
#X obj 147 345 d_0;
#X obj 221 345 d_0;
#X obj 294 345 d_0;
#X obj 368 345 d_0;
#X obj 147 171 list store \$1;
#X obj 221 211 list store \$2;
#X obj 294 251 list store \$3;
#X obj 368 292 list store \$4;
#X obj 34 305 t b b b b;
#X obj 96 93 t b f f f f, f 37;
#X obj 147 373 outlet;
#X obj 221 373 outlet;
#X obj 294 373 outlet;
#X obj 368 373 outlet;
#X connect 0 0 10 0;
#X connect 1 0 11 0;
#X connect 2 0 12 0;
#X connect 3 0 13 0;
#X connect 4 0 14 0;
#X connect 5 0 1 0;
#X connect 6 0 2 0;
#X connect 7 0 3 0;
#X connect 8 0 4 0;
#X connect 9 0 5 0;
#X connect 9 1 6 0;
#X connect 9 2 7 0;
#X connect 9 3 8 0;
#X connect 10 0 9 0;
#X connect 10 1 1 1;
#X connect 10 2 2 1;
#X connect 10 3 3 1;
#X connect 10 4 4 1;
#X restore 766 94 pd dollar_zero_args;
#X obj 29 429 t f f b b b b b, f 86;
#X text 45 81 // \$1 symbol weight arr \; \$2 symbol bias arr \; \$3 symbol activation arr \; \$4 symbol linear arr \; \$5 symbol activation type;
#X connect 0 0 33 0;
#X connect 2 0 16 1;
#X connect 3 0 16 1;
#X connect 4 0 16 1;
#X connect 5 0 2 0;
#X connect 5 1 3 0;
#X connect 5 2 4 0;
#X connect 5 3 6 0;
#X connect 5 4 7 0;
#X connect 6 0 16 1;
#X connect 7 0 16 1;
#X connect 8 0 13 1;
#X connect 9 0 12 1;
#X connect 10 0 9 0;
#X connect 11 0 8 0;
#X connect 12 0 20 0;
#X connect 13 0 15 1;
#X connect 14 0 15 0;
#X connect 15 0 12 0;
#X connect 16 0 21 0;
#X connect 20 0 16 0;
#X connect 20 1 19 2;
#X connect 20 2 18 0;
#X connect 21 0 19 1;
#X connect 21 1 17 0;
#X connect 22 0 25 1;
#X connect 23 0 24 1;
#X connect 24 0 13 0;
#X connect 25 0 14 0;
#X connect 26 0 14 1;
#X connect 27 0 26 0;
#X connect 28 0 26 1;
#X connect 28 1 8 1;
#X connect 29 0 32 0;
#X connect 30 0 5 0;
#X connect 31 0 30 0;
#X connect 32 0 28 0;
#X connect 32 1 9 1;
#X connect 32 2 19 3;
#X connect 32 3 19 4;
#X connect 33 0 1 0;
#X connect 33 1 19 0;
#X connect 33 2 25 0;
#X connect 33 3 27 0;
#X connect 33 4 24 0;
#X connect 33 5 11 0;
#X connect 33 6 10 0;
