#N canvas 364 142 1372 1205 16;
#X obj 29 29 inlet index;
#X obj 29 949 outlet index;
#X msg 993 551 1;
#X msg 1054 551 2;
#X msg 1115 551 3;
#X obj 993 502 select relu tanh sigmoid linear;
#X msg 1176 551 4;
#X msg 1238 551 0;
#X obj 499 501 nn.read_array;
#X msg 499 469 0;
#X obj 323 469 *;
#X obj 478 639 +;
#X obj 478 781 expr if($f2 == 1 \, if($f1 > 0 \, $f1 \, 0) \, if($f2 == 2 \, tanh($f1) \, if($f2 == 3 \, 1 / (1 + exp(-1 * $f1)) \, $f1)));
#X obj 515 949 outlet activation;
#X obj 979 949 outlet z;
#X obj 298 894 nn.cache_model_forward, f 66;
#X obj 478 691 t f f f, f 63;
#X obj 478 827 t f f;
#X obj 323 372 f;
#X obj 382 406 nn.read_array;
#X msg 382 372 0;
#X obj 670 29 inlet dollar_zero;
#X obj 993 472 list store \$5;
#N canvas 500 374 557 464 dollar_zero_args 0;
#X obj 96 22 inlet dollar_zero;
#X obj 147 345 d_0;
#X obj 221 345 d_0;
#X obj 294 345 d_0;
#X obj 368 345 d_0;
#X obj 147 171 list store \$1;
#X obj 221 211 list store \$2;
#X obj 294 251 list store \$3;
#X obj 368 292 list store \$4;
#X obj 34 305 t b b b b;
#X obj 96 93 t b f f f f, f 37;
#X obj 147 373 outlet;
#X obj 221 373 outlet;
#X obj 294 373 outlet;
#X obj 368 373 outlet;
#X connect 0 0 10 0;
#X connect 1 0 11 0;
#X connect 2 0 12 0;
#X connect 3 0 13 0;
#X connect 4 0 14 0;
#X connect 5 0 1 0;
#X connect 6 0 2 0;
#X connect 7 0 3 0;
#X connect 8 0 4 0;
#X connect 9 0 5 0;
#X connect 9 1 6 0;
#X connect 9 2 7 0;
#X connect 9 3 8 0;
#X connect 10 0 9 0;
#X connect 10 1 1 1;
#X connect 10 2 2 1;
#X connect 10 3 3 1;
#X connect 10 4 4 1;
#X restore 670 94 pd dollar_zero_args;
#X obj 344 29 inlet a_prev;
#X obj 29 309 t f f b b b b, f 74;
#X text 45 81 // args \; \$1: symbol weight arr \; \$2: symbol bias arr \; \$3: symbol activation arr \; \$4: symbol linear arr \; \$5: symbol activation type \; inlets \; 1: float index \; 2: float a_prev \; 3: float \$0 \;;
#X connect 0 0 25 0;
#X connect 2 0 12 1;
#X connect 3 0 12 1;
#X connect 4 0 12 1;
#X connect 5 0 2 0;
#X connect 5 1 3 0;
#X connect 5 2 4 0;
#X connect 5 3 6 0;
#X connect 5 4 7 0;
#X connect 6 0 12 1;
#X connect 7 0 12 1;
#X connect 8 0 11 1;
#X connect 9 0 8 0;
#X connect 10 0 11 0;
#X connect 11 0 16 0;
#X connect 12 0 17 0;
#X connect 16 0 12 0;
#X connect 16 1 15 2;
#X connect 16 2 14 0;
#X connect 17 0 15 1;
#X connect 17 1 13 0;
#X connect 18 0 10 0;
#X connect 19 0 10 1;
#X connect 20 0 19 0;
#X connect 21 0 23 0;
#X connect 22 0 5 0;
#X connect 23 0 19 1;
#X connect 23 1 8 1;
#X connect 23 2 15 3;
#X connect 23 3 15 4;
#X connect 24 0 18 1;
#X connect 25 0 1 0;
#X connect 25 1 15 0;
#X connect 25 2 18 0;
#X connect 25 3 20 0;
#X connect 25 4 9 0;
#X connect 25 5 22 0;
