#N canvas 372 214 1334 1154 16;
#X obj 29 28 inlet index;
#X obj 29 948 outlet index;
#X msg 976 387 1;
#X msg 1037 387 2;
#X msg 1098 387 3;
#X obj 976 338 select relu tanh sigmoid linear;
#X msg 1159 387 4;
#X msg 1221 387 0;
#X obj 560 500 nn.read_array;
#X msg 560 468 0;
#X obj 294 468 *;
#X obj 539 638 +;
#X obj 577 948 outlet activation;
#X obj 1041 948 outlet z;
#X obj 360 893 nn.cache_model_forward, f 66;
#X obj 540 690 t f f f, f 21;
#X obj 294 371 f;
#X obj 427 375 nn.read_array;
#X msg 427 341 0;
#X obj 528 28 inlet dollar_zero;
#X obj 976 308 list store \$5;
#N canvas 504 410 576 464 dollar_zero_args 0;
#X obj 96 22 inlet dollar_zero;
#X obj 147 345 d_0;
#X obj 221 345 d_0;
#X obj 294 345 d_0;
#X obj 368 345 d_0;
#X obj 147 171 list store \$1;
#X obj 221 211 list store \$2;
#X obj 294 251 list store \$3;
#X obj 368 292 list store \$4;
#X obj 34 305 t b b b b;
#X obj 96 93 t b f f f f, f 37;
#X obj 147 373 outlet;
#X obj 221 373 outlet;
#X obj 294 373 outlet;
#X obj 368 373 outlet;
#X connect 0 0 10 0;
#X connect 1 0 11 0;
#X connect 2 0 12 0;
#X connect 3 0 13 0;
#X connect 4 0 14 0;
#X connect 5 0 1 0;
#X connect 6 0 2 0;
#X connect 7 0 3 0;
#X connect 8 0 4 0;
#X connect 9 0 5 0;
#X connect 9 1 6 0;
#X connect 9 2 7 0;
#X connect 9 3 8 0;
#X connect 10 0 9 0;
#X connect 10 1 1 1;
#X connect 10 2 2 1;
#X connect 10 3 3 1;
#X connect 10 4 4 1;
#X restore 528 93 pd dollar_zero_args;
#X f 45;
#X obj 315 28 inlet a_prev;
#X text 45 79 // args \; \$1: symbol weight arr \; \$2: symbol bias arr \; \$3: symbol activation arr \; \$4: symbol linear arr \; \$5: symbol activation type \; \$6: float negative_slope (for Leaky Relu) \; inlets \; 1: float index \; 2: float a_prev \; 3: float \$0 \;;
#X obj 540 778 nn.activation_functions;
#X obj 540 806 t f f;
#X obj 29 308 t f f b b b b b, f 100;
#X obj 693 633 f \$6;
#X connect 0 0 26 0;
#X connect 2 0 24 2;
#X connect 3 0 24 2;
#X connect 4 0 24 2;
#X connect 5 0 2 0;
#X connect 5 1 3 0;
#X connect 5 2 4 0;
#X connect 5 3 6 0;
#X connect 5 4 7 0;
#X connect 6 0 24 2;
#X connect 7 0 24 2;
#X connect 8 0 11 1;
#X connect 9 0 8 0;
#X connect 10 0 11 0;
#X connect 11 0 15 0;
#X connect 15 0 24 0;
#X connect 15 1 14 2;
#X connect 15 2 13 0;
#X connect 16 0 10 0;
#X connect 17 0 10 1;
#X connect 18 0 17 0;
#X connect 19 0 21 0;
#X connect 20 0 5 0;
#X connect 21 0 17 1;
#X connect 21 1 8 1;
#X connect 21 2 14 3;
#X connect 21 3 14 4;
#X connect 22 0 16 1;
#X connect 24 0 25 0;
#X connect 25 0 14 1;
#X connect 25 1 12 0;
#X connect 26 0 1 0;
#X connect 26 1 14 0;
#X connect 26 2 16 0;
#X connect 26 3 18 0;
#X connect 26 4 9 0;
#X connect 26 5 27 0;
#X connect 26 6 20 0;
#X connect 27 0 24 1;
