#N canvas 1290 132 1466 1159 16;
#X obj 29 29 inlet index;
#X obj 29 1039 outlet index;
#X msg 1131 531 1;
#X msg 1192 531 2;
#X msg 1253 531 3;
#X obj 1131 482 select relu tanh sigmoid linear;
#X msg 1314 531 4;
#X msg 1376 531 0;
#X obj 598 397 nn.read_array;
#X obj 712 477 nn.read_array;
#X msg 712 445 0;
#X msg 598 353 1;
#X obj 691 725 +;
#X obj 577 509 *;
#X obj 349 509 *;
#X obj 466 579 +;
#X obj 691 871 expr if($f2 == 1 \, if($f1 > 0 \, $f1 \, 0) \, if($f2 == 2 \, tanh($f1) \, if($f2 == 3 \, 1 / (1 + exp(-1 * $f1)) \, $f1)));
#X obj 728 1039 outlet activation;
#X obj 1192 1039 outlet z;
#X obj 514 984 nn.cache_model_forward, f 66;
#X obj 691 781 t f f f, f 63;
#X obj 691 917 t f f;
#X obj 277 29 inlet a_prev_1;
#X obj 506 29 inlet a_prev_2;
#X obj 484 359 f;
#X obj 256 385 f;
#X obj 370 397 nn.read_array;
#X msg 370 363 0;
#X obj 766 152 t s s;
#X obj 766 29 inlet dollar_zero;
#X obj 1131 442 list store \$5;
#N canvas 500 374 557 464 dollar_zero_args 0;
#X obj 96 22 inlet dollar_zero;
#X obj 147 345 d_0;
#X obj 221 345 d_0;
#X obj 294 345 d_0;
#X obj 368 345 d_0;
#X obj 147 171 list store \$1;
#X obj 221 211 list store \$2;
#X obj 294 251 list store \$3;
#X obj 368 292 list store \$4;
#X obj 34 305 t b b b b;
#X obj 96 93 t b f f f f, f 37;
#X obj 147 373 outlet;
#X obj 221 373 outlet;
#X obj 294 373 outlet;
#X obj 368 373 outlet;
#X connect 0 0 10 0;
#X connect 1 0 11 0;
#X connect 2 0 12 0;
#X connect 3 0 13 0;
#X connect 4 0 14 0;
#X connect 5 0 1 0;
#X connect 6 0 2 0;
#X connect 7 0 3 0;
#X connect 8 0 4 0;
#X connect 9 0 5 0;
#X connect 9 1 6 0;
#X connect 9 2 7 0;
#X connect 9 3 8 0;
#X connect 10 0 9 0;
#X connect 10 1 1 1;
#X connect 10 2 2 1;
#X connect 10 3 3 1;
#X connect 10 4 4 1;
#X restore 766 64 pd dollar_zero_args;
#X f 35;
#X text 45 81 // args \; \$1: symbol weight array (1 \, 2) \; \$2: symbol bias array (1 \, 1) \; \$3: symbol activation arr (1 \, m) \; \$4: symbol linear arr (1 \, m) \; \$5: symbol activation type \; // inlets \; 1: float \, index \; 2: float \, previous layer activation 1 \; 3: float \, previous layer activation 2 \; 4: float \, \$0 val for patch;
#X obj 29 309 t f f b b b b b b, f 100;
#X connect 0 0 33 0;
#X connect 2 0 16 1;
#X connect 3 0 16 1;
#X connect 4 0 16 1;
#X connect 5 0 2 0;
#X connect 5 1 3 0;
#X connect 5 2 4 0;
#X connect 5 3 6 0;
#X connect 5 4 7 0;
#X connect 6 0 16 1;
#X connect 7 0 16 1;
#X connect 8 0 13 1;
#X connect 9 0 12 1;
#X connect 10 0 9 0;
#X connect 11 0 8 0;
#X connect 12 0 20 0;
#X connect 13 0 15 1;
#X connect 14 0 15 0;
#X connect 15 0 12 0;
#X connect 16 0 21 0;
#X connect 20 0 16 0;
#X connect 20 1 19 2;
#X connect 20 2 18 0;
#X connect 21 0 19 1;
#X connect 21 1 17 0;
#X connect 22 0 25 1;
#X connect 23 0 24 1;
#X connect 24 0 13 0;
#X connect 25 0 14 0;
#X connect 26 0 14 1;
#X connect 27 0 26 0;
#X connect 28 0 26 1;
#X connect 28 1 8 1;
#X connect 29 0 31 0;
#X connect 30 0 5 0;
#X connect 31 0 28 0;
#X connect 31 1 9 1;
#X connect 31 2 19 3;
#X connect 31 3 19 4;
#X connect 33 0 1 0;
#X connect 33 1 19 0;
#X connect 33 2 25 0;
#X connect 33 3 27 0;
#X connect 33 4 24 0;
#X connect 33 5 11 0;
#X connect 33 6 10 0;
#X connect 33 7 30 0;
