#N canvas 166 205 1480 1167 16;
#X obj 29 37 inlet index;
#X obj 29 1047 outlet index;
#X msg 1070 430 1;
#X msg 1131 430 2;
#X msg 1192 430 3;
#X obj 1070 391 select relu tanh sigmoid linear;
#X msg 1253 430 4;
#X msg 1315 430 0;
#X obj 657 405 nn.read_array;
#X obj 782 485 nn.read_array;
#X msg 782 453 0;
#X msg 657 346 1;
#X obj 761 733 +;
#X obj 636 517 *;
#X obj 384 517 *;
#X obj 469 607 +;
#X obj 798 1047 outlet activation;
#X obj 1262 1047 outlet z;
#X obj 690 992 nn.cache_model_forward, f 36;
#X obj 761 789 t f f f, f 63;
#X obj 301 37 inlet a_prev_1;
#X obj 552 37 inlet a_prev_2;
#X obj 531 345 f;
#X obj 280 345 f;
#X obj 405 405 nn.read_array;
#X msg 405 345 0;
#X obj 728 100 t s s;
#X obj 728 37 inlet dollar_zero;
#X obj 1070 361 list store \$5;
#N canvas 500 374 557 464 dollar_zero_args 0;
#X obj 96 22 inlet dollar_zero;
#X obj 147 345 d_0;
#X obj 221 345 d_0;
#X obj 294 345 d_0;
#X obj 368 345 d_0;
#X obj 147 171 list store \$1;
#X obj 221 211 list store \$2;
#X obj 294 251 list store \$3;
#X obj 368 292 list store \$4;
#X obj 34 305 t b b b b;
#X obj 96 93 t b f f f f, f 37;
#X obj 147 373 outlet;
#X obj 221 373 outlet;
#X obj 294 373 outlet;
#X obj 368 373 outlet;
#X connect 0 0 10 0;
#X connect 1 0 11 0;
#X connect 2 0 12 0;
#X connect 3 0 13 0;
#X connect 4 0 14 0;
#X connect 5 0 1 0;
#X connect 6 0 2 0;
#X connect 7 0 3 0;
#X connect 8 0 4 0;
#X connect 9 0 5 0;
#X connect 9 1 6 0;
#X connect 9 2 7 0;
#X connect 9 3 8 0;
#X connect 10 0 9 0;
#X connect 10 1 1 1;
#X connect 10 2 2 1;
#X connect 10 3 3 1;
#X connect 10 4 4 1;
#X restore 728 72 pd dollar_zero_args;
#X f 31;
#X text 45 89 // args \; \$1: symbol weight array (1 \, 2) \; \$2: symbol bias array (1 \, 1) \; \$3: symbol activation arr (1 \, m) \; \$4: symbol linear arr (1 \, m) \; \$5: symbol activation type \; \$6: float negative_slope (for Leaky ReLU) // inlets \; 1: float \, index \; 2: float \, previous layer activation 1 \; 3: float \, previous layer activation 2 \; 4: float \, \$0 val for patch;
#X obj 29 317 t f f b b b b b b b, f 126;
#X obj 761 832 nn.activation_functions;
#X obj 761 860 t f f;
#X obj 908 345 f \$6;
#X connect 0 0 31 0;
#X connect 2 0 32 2;
#X connect 3 0 32 2;
#X connect 4 0 32 2;
#X connect 5 0 2 0;
#X connect 5 1 3 0;
#X connect 5 2 4 0;
#X connect 5 3 6 0;
#X connect 5 4 7 0;
#X connect 6 0 32 2;
#X connect 7 0 32 2;
#X connect 8 0 13 1;
#X connect 9 0 12 1;
#X connect 10 0 9 0;
#X connect 11 0 8 0;
#X connect 12 0 19 0;
#X connect 13 0 15 1;
#X connect 14 0 15 0;
#X connect 15 0 12 0;
#X connect 19 0 32 0;
#X connect 19 1 18 2;
#X connect 19 2 17 0;
#X connect 20 0 23 1;
#X connect 21 0 22 1;
#X connect 22 0 13 0;
#X connect 23 0 14 0;
#X connect 24 0 14 1;
#X connect 25 0 24 0;
#X connect 26 0 24 1;
#X connect 26 1 8 1;
#X connect 27 0 29 0;
#X connect 28 0 5 0;
#X connect 29 0 26 0;
#X connect 29 1 9 1;
#X connect 29 2 18 3;
#X connect 29 3 18 4;
#X connect 31 0 1 0;
#X connect 31 1 18 0;
#X connect 31 2 23 0;
#X connect 31 3 25 0;
#X connect 31 4 22 0;
#X connect 31 5 11 0;
#X connect 31 6 10 0;
#X connect 31 7 34 0;
#X connect 31 8 28 0;
#X connect 32 0 33 0;
#X connect 33 0 18 1;
#X connect 33 1 16 0;
#X connect 34 0 32 1;
#X coords 0 1167 1 1166 85 23 0;
