#N canvas 1721 332 1169 844 16;
#X obj 363 29 inlet symbol;
#X obj 369 116 array size;
#X obj 119 324 random 100000;
#X obj 213 258 until;
#X obj 213 218 f 1;
#X obj 250 323 f;
#X obj 369 159 t f f;
#X obj 213 286 t b b;
#X obj 418 754 array set;
#X obj 293 328 + 1;
#X obj 119 664 - 0.5;
#X obj 293 363 mod;
#X obj 591 28 inlet scale;
#X obj 637 116 f 1;
#X obj 363 57 t b b b s s, f 16;
#X obj 180 485 * 100000;
#X obj 119 520 / 100000;
#X obj 156 617 expr 0.5 / $f1;
#X obj 637 144 t f f;
#X obj 591 66 t b b b f;
#X text 682 67 // allows process to be triggered by sending new scale;
#X connect 0 0 14 0;
#X connect 1 0 6 0;
#X connect 2 0 16 0;
#X connect 3 0 7 0;
#X connect 4 0 3 0;
#X connect 5 0 9 0;
#X connect 5 0 11 0;
#X connect 6 0 4 1;
#X connect 6 1 11 1;
#X connect 7 0 2 0;
#X connect 7 1 5 0;
#X connect 9 0 5 1;
#X connect 10 0 8 0;
#X connect 11 0 8 1;
#X connect 12 0 19 0;
#X connect 13 0 18 0;
#X connect 14 0 4 0;
#X connect 14 1 1 0;
#X connect 14 2 13 0;
#X connect 14 3 1 1;
#X connect 14 4 8 2;
#X connect 15 0 16 1;
#X connect 16 0 10 0;
#X connect 17 0 10 1;
#X connect 18 0 17 0;
#X connect 18 1 15 0;
#X connect 19 0 4 0;
#X connect 19 1 1 0;
#X connect 19 2 13 0;
#X connect 19 3 13 1;
