#N canvas 1841 480 288 436 16;
#X obj 71 149 > 0;
#X obj 71 182 sel 1;
#X obj 71 215 f;
#X obj 71 116 t f f, f 20;
#X obj 71 248 until;
#X obj 71 281 f, f 8;
#X obj 108 345 + 1;
#X obj 71 314 t f f;
#X msg 132 248 0;
#X obj 71 378 outlet;
#X obj 71 50 inlet float;
#X obj 71 83 t f b, f 8;
#X connect 0 0 1 0;
#X connect 1 0 2 0;
#X connect 2 0 4 0;
#X connect 3 0 0 0;
#X connect 3 1 2 1;
#X connect 4 0 5 0;
#X connect 5 0 7 0;
#X connect 6 0 5 1;
#X connect 7 0 9 0;
#X connect 7 1 6 0;
#X connect 8 0 5 1;
#X connect 10 0 11 0;
#X connect 11 0 3 0;
#X connect 11 1 8 0;
