#N canvas 1303 317 505 301 16;
#X obj 39 30 inlet unscaled_value;
#X obj 213 30 inlet scale;
#X obj 315 30 inlet offset;
#X obj 39 108 * 1;
#X obj 39 146 + 0;
#X obj 39 174 outlet scaled_value;
#X connect 0 0 3 0;
#X connect 1 0 3 1;
#X connect 2 0 4 1;
#X connect 3 0 4 0;
#X connect 4 0 5 0;
