#N canvas 476 195 1583 1059 16;
#X obj 29 24 inlet index;
#X obj 29 959 outlet index;
#X obj 871 24 inlet s_b;
#X obj 1186 24 loadbang;
#X obj 1186 61 list store \$1;
#X msg 1186 150 1;
#X msg 1247 150 2;
#X msg 1308 150 3;
#X obj 1186 101 select relu tanh sigmoid linear;
#X msg 1369 150 4;
#X msg 1431 150 0;
#X obj 584 137 nn.read_array;
#X obj 770 137 nn.read_array;
#X msg 770 105 0;
#X msg 584 104 0;
#X obj 749 495 +;
#X obj 563 259 *;
#X obj 749 791 expr if($f2 == 1 \, if($f1 > 0 \, $f1 \, 0) \, if($f2 == 2 \, tanh($f1) \, if($f2 == 3 \, 1 / (1 + exp(-1 * $f1)) \, $f1)));
#X obj 786 959 outlet activation;
#X obj 1370 959 outlet z;
#X obj 965 24 inlet s_a;
#X obj 1097 24 inlet s_z;
#X obj 572 904 nn.cache_model_forward, f 66;
#X obj 749 701 t f f f, f 63;
#X obj 749 837 t f f;
#X obj 399 137 f;
#X obj 420 24 inlet a_prev;
#X obj 685 24 inlet s_w;
#X text 1277 699 // z;
#X text 1203 797 // a;
#X obj 29 59 t f f b b b, f 93;
#X connect 0 0 30 0;
#X connect 2 0 12 1;
#X connect 3 0 4 0;
#X connect 4 0 8 0;
#X connect 5 0 17 1;
#X connect 6 0 17 1;
#X connect 7 0 17 1;
#X connect 8 0 5 0;
#X connect 8 1 6 0;
#X connect 8 2 7 0;
#X connect 8 3 9 0;
#X connect 8 4 10 0;
#X connect 9 0 17 1;
#X connect 10 0 17 1;
#X connect 11 0 16 1;
#X connect 12 0 15 1;
#X connect 13 0 12 0;
#X connect 14 0 11 0;
#X connect 15 0 23 0;
#X connect 16 0 15 0;
#X connect 17 0 24 0;
#X connect 20 0 22 3;
#X connect 21 0 22 4;
#X connect 23 0 17 0;
#X connect 23 1 22 2;
#X connect 23 2 19 0;
#X connect 24 0 22 1;
#X connect 24 1 18 0;
#X connect 25 0 16 0;
#X connect 26 0 25 1;
#X connect 27 0 11 1;
#X connect 30 0 1 0;
#X connect 30 1 22 0;
#X connect 30 2 25 0;
#X connect 30 3 14 0;
#X connect 30 4 13 0;
