#N canvas 253 206 1602 1152 16;
#X obj 29 24 inlet index;
#X obj 29 959 outlet index;
#X obj 310 24 inlet s_a_prev_1;
#X obj 470 24 inlet s_w_1;
#X obj 590 24 inlet s_a_prev_2;
#X obj 750 24 inlet s_w_2;
#X obj 869 24 inlet s_b;
#X obj 1185 24 loadbang;
#X obj 1185 61 list store \$1;
#X msg 1185 150 1;
#X msg 1246 150 2;
#X msg 1307 150 3;
#X obj 1185 101 select relu tanh sigmoid linear;
#X msg 1368 150 4;
#X msg 1430 150 0;
#X obj 209 137 nn.read_array;
#X obj 369 137 nn.read_array;
#X obj 489 137 nn.read_array;
#X obj 649 137 nn.read_array;
#X obj 768 137 nn.read_array;
#X msg 768 105 0;
#X msg 649 103 1;
#X msg 369 104 0;
#X obj 747 495 +;
#X obj 628 259 *;
#X obj 348 259 *;
#X obj 484 359 +;
#X obj 747 791 expr if($f2 == 1 \, if($f1 > 0 \, $f1 \, 0) \, if($f2 == 2 \, tanh($f1) \, if($f2 == 3 \, 1 / (1 + exp(-1 * $f1)) \, $f1)));
#X obj 784 959 outlet activation;
#X obj 1368 959 outlet z;
#X obj 963 24 inlet s_a;
#X obj 1095 24 inlet s_z;
#X obj 29 59 t f f f b f b b, f 89;
#X obj 570 904 nn.cache_model_forward, f 66;
#X obj 747 701 t f f f, f 63;
#X obj 747 837 t f f;
#X connect 0 0 32 0;
#X connect 2 0 15 1;
#X connect 3 0 16 1;
#X connect 4 0 17 1;
#X connect 5 0 18 1;
#X connect 6 0 19 1;
#X connect 7 0 8 0;
#X connect 8 0 12 0;
#X connect 9 0 27 1;
#X connect 10 0 27 1;
#X connect 11 0 27 1;
#X connect 12 0 9 0;
#X connect 12 1 10 0;
#X connect 12 2 11 0;
#X connect 12 3 13 0;
#X connect 12 4 14 0;
#X connect 13 0 27 1;
#X connect 14 0 27 1;
#X connect 15 0 25 0;
#X connect 16 0 25 1;
#X connect 17 0 24 0;
#X connect 18 0 24 1;
#X connect 19 0 23 1;
#X connect 20 0 19 0;
#X connect 21 0 18 0;
#X connect 22 0 16 0;
#X connect 23 0 34 0;
#X connect 24 0 26 1;
#X connect 25 0 26 0;
#X connect 26 0 23 0;
#X connect 27 0 35 0;
#X connect 30 0 33 3;
#X connect 31 0 33 4;
#X connect 32 0 1 0;
#X connect 32 1 33 0;
#X connect 32 2 15 0;
#X connect 32 3 22 0;
#X connect 32 4 17 0;
#X connect 32 5 21 0;
#X connect 32 6 20 0;
#X connect 34 0 27 0;
#X connect 34 1 33 2;
#X connect 34 2 29 0;
#X connect 35 0 33 1;
#X connect 35 1 28 0;
