#N canvas 1559 233 946 924 16;
#X obj 41 94 inlet bang;
#X obj 337 700 expr $f1 - ($f2 * $f3), f 57;
#X obj 358 216 array size;
#X obj 337 313 f 1;
#X obj 41 182 t b b b b, f 30;
#X msg 278 217 0;
#X obj 337 360 until;
#X msg 199 216 1;
#X obj 337 410 f;
#X obj 391 421 + 1;
#X obj 563 627 array get, f 10;
#X obj 337 627 array get, f 24;
#X obj 337 803 array set;
#X obj 337 452 t f f f;
#X obj 41 851 outlet done;
#X obj 199 414 t f f;
#X obj 497 99 inlet alpha;
#X obj 358 183 t b s s, f 10;
#X floatatom 240 754 5 0 0 0 - - - 0;
#N canvas 568 542 499 409 dollar_zero_args 0;
#X obj 96 22 inlet dollar_zero;
#X obj 170 285 d_0;
#X obj 244 285 d_0;
#X obj 170 111 list store \$1;
#X obj 244 151 list store \$2;
#X obj 170 313 outlet;
#X obj 244 313 outlet;
#X obj 96 63 t b f f, f 37;
#X obj 34 245 t b b;
#X connect 0 0 7 0;
#X connect 1 0 5 0;
#X connect 2 0 6 0;
#X connect 3 0 1 0;
#X connect 4 0 2 0;
#X connect 7 0 8 0;
#X connect 7 1 1 1;
#X connect 7 2 2 1;
#X connect 8 0 3 0;
#X connect 8 1 4 0;
#X restore 653 128 pd dollar_zero_args;
#X f 25;
#X obj 653 94 inlet dollar_zero;
#X text 24 11 // args: \; \$1: symbol param array \; \$2: symbol param derivative;
#X connect 0 0 4 0;
#X connect 1 0 12 0;
#X connect 1 0 18 0;
#X connect 2 0 3 1;
#X connect 3 0 6 0;
#X connect 4 0 14 0;
#X connect 4 1 3 0;
#X connect 4 2 7 0;
#X connect 4 3 5 0;
#X connect 5 0 8 1;
#X connect 6 0 8 0;
#X connect 7 0 15 0;
#X connect 8 0 9 0;
#X connect 8 0 13 0;
#X connect 9 0 8 1;
#X connect 10 0 1 1;
#X connect 11 0 1 0;
#X connect 13 0 11 0;
#X connect 13 1 10 0;
#X connect 13 2 12 1;
#X connect 15 0 11 1;
#X connect 15 1 10 1;
#X connect 16 0 1 2;
#X connect 17 0 2 0;
#X connect 17 1 12 2;
#X connect 17 2 11 2;
#X connect 19 0 17 0;
#X connect 19 1 10 2;
#X connect 20 0 19 0;
