#N canvas 4 112 2174 1096 16;
#X obj 18 10 inlet index;
#X obj 316 10 inlet a_prev_1;
#X obj 594 10 inlet a_prev_2;
#X obj 478 10 inlet s_w_1;
#X obj 758 10 inlet s_w_2;
#X obj 872 10 inlet a_prev_3;
#X obj 1041 12 inlet s_w_3;
#X obj 1150 13 inlet a_prev_4;
#X obj 1369 13 inlet s_w_4;
#X obj 1508 10 inlet s_b;
#X obj 1599 10 inlet s_a;
#X obj 1730 10 inlet s_z;
#X obj 18 1023 outlet index;
#X obj 1824 10 loadbang;
#X obj 1824 47 list store \$1;
#X msg 1824 136 1;
#X msg 1885 136 2;
#X msg 1946 136 3;
#X obj 1824 87 select relu tanh sigmoid linear;
#X msg 2007 136 4;
#X msg 2069 136 0;
#X obj 1386 691 +;
#X obj 1386 847 expr if($f2 == 1 \, if($f1 > 0 \, $f1 \, 0) \, if($f2 == 2 \, tanh($f1) \, if($f2 == 3 \, 1 / (1 + exp(-1 * $f1)) \, $f1)));
#X obj 1423 1015 outlet activation;
#X obj 2007 1015 outlet z;
#X obj 1209 960 nn.cache_model_forward, f 66;
#X obj 1386 757 t f f f, f 63;
#X obj 1386 893 t f f;
#X obj 1407 131 nn.read_array;
#X msg 1407 92 0;
#X obj 1268 131 nn.read_array;
#X msg 1268 92 3;
#X obj 1129 123 f;
#X obj 990 123 nn.read_array;
#X msg 990 91 2;
#X obj 851 124 f;
#X obj 712 124 nn.read_array;
#X msg 712 91 1;
#X obj 573 123 f;
#X obj 434 123 nn.read_array;
#X msg 434 90 0;
#X obj 295 123 f;
#X obj 18 58 t f f b b b b b b b b b, f 174;
#X obj 783 600 +;
#X obj 1192 225 *;
#X obj 912 225 *;
#X obj 632 225 *;
#X obj 352 225 *;
#X obj 1052 347 +;
#X obj 462 347 +;
#X connect 0 0 42 0;
#X connect 1 0 41 1;
#X connect 2 0 38 1;
#X connect 3 0 39 1;
#X connect 4 0 36 1;
#X connect 5 0 35 1;
#X connect 6 0 33 1;
#X connect 7 0 32 1;
#X connect 8 0 30 1;
#X connect 9 0 28 1;
#X connect 10 0 25 3;
#X connect 11 0 25 4;
#X connect 13 0 14 0;
#X connect 14 0 18 0;
#X connect 15 0 22 1;
#X connect 16 0 22 1;
#X connect 17 0 22 1;
#X connect 18 0 15 0;
#X connect 18 1 16 0;
#X connect 18 2 17 0;
#X connect 18 3 19 0;
#X connect 18 4 20 0;
#X connect 19 0 22 1;
#X connect 20 0 22 1;
#X connect 21 0 26 0;
#X connect 22 0 27 0;
#X connect 26 0 22 0;
#X connect 26 1 25 2;
#X connect 26 2 24 0;
#X connect 27 0 25 1;
#X connect 27 1 23 0;
#X connect 28 0 21 1;
#X connect 29 0 28 0;
#X connect 30 0 44 1;
#X connect 31 0 30 0;
#X connect 32 0 44 0;
#X connect 33 0 45 1;
#X connect 34 0 33 0;
#X connect 35 0 45 0;
#X connect 36 0 46 1;
#X connect 37 0 36 0;
#X connect 38 0 46 0;
#X connect 39 0 47 1;
#X connect 40 0 39 0;
#X connect 41 0 47 0;
#X connect 42 0 12 0;
#X connect 42 2 41 0;
#X connect 42 3 40 0;
#X connect 42 4 38 0;
#X connect 42 5 37 0;
#X connect 42 6 35 0;
#X connect 42 7 34 0;
#X connect 42 8 32 0;
#X connect 42 9 31 0;
#X connect 42 10 29 0;
#X connect 43 0 21 0;
#X connect 44 0 48 1;
#X connect 45 0 48 0;
#X connect 46 0 49 1;
#X connect 47 0 49 0;
#X connect 48 0 43 1;
#X connect 49 0 43 0;
