#N canvas 897 417 1009 906 16;
#X obj 61 58 inlet bang;
#X obj 357 650 expr $f1 - ($f2 * $f3), f 57;
#X obj 378 166 array size;
#X obj 357 263 f 1;
#X obj 61 132 t b b b b, f 30;
#X msg 298 167 0;
#X obj 357 310 until;
#X msg 219 166 1;
#X obj 357 360 f;
#X obj 411 371 + 1;
#X obj 583 577 array get, f 10;
#X obj 357 577 array get, f 24;
#X obj 357 753 array set;
#X obj 357 402 t f f f;
#X obj 61 801 outlet done;
#X obj 219 364 t f f;
#X obj 378 58 inlet s_param;
#X obj 660 58 inlet s_dparam;
#X obj 810 58 inlet alpha;
#X obj 378 133 t b s s, f 10;
#X connect 0 0 4 0;
#X connect 1 0 12 0;
#X connect 2 0 3 1;
#X connect 3 0 6 0;
#X connect 4 0 14 0;
#X connect 4 1 3 0;
#X connect 4 2 7 0;
#X connect 4 3 5 0;
#X connect 5 0 8 1;
#X connect 6 0 8 0;
#X connect 7 0 15 0;
#X connect 8 0 9 0;
#X connect 8 0 13 0;
#X connect 9 0 8 1;
#X connect 10 0 1 1;
#X connect 11 0 1 0;
#X connect 13 0 11 0;
#X connect 13 1 10 0;
#X connect 13 2 12 1;
#X connect 15 0 11 1;
#X connect 15 1 10 1;
#X connect 16 0 19 0;
#X connect 17 0 10 2;
#X connect 18 0 1 2;
#X connect 19 0 2 0;
#X connect 19 1 12 2;
#X connect 19 2 11 2;
