#N canvas 253 206 2313 1152 16;
#X obj 29 23 inlet index;
#X obj 29 819 outlet index;
#X obj 280 24 inlet s_a_prev_1;
#X obj 440 24 inlet s_w_1;
#X obj 560 24 inlet s_a_prev_2;
#X obj 720 24 inlet s_w_2;
#X obj 840 24 inlet s_b;
#X obj 1155 24 loadbang;
#X obj 1155 61 list store \$1;
#X msg 1155 150 1;
#X msg 1216 150 2;
#X msg 1277 150 3;
#X obj 1155 101 select relu tanh sigmoid linear;
#X msg 1338 150 4;
#X msg 1400 150 0;
#X obj 29 51 t f f b f b b;
#X obj 179 297 nn.read_array;
#X obj 339 297 nn.read_array;
#X obj 459 297 nn.read_array;
#X obj 619 297 nn.read_array;
#X obj 739 297 nn.read_array;
#X msg 739 265 0;
#X msg 619 263 1;
#X msg 339 264 0;
#X obj 718 655 +;
#X obj 598 419 *;
#X obj 318 419 *;
#X obj 454 519 +;
#X obj 718 751 expr if($f2 == 1 \, if($f1 > 0 \, $f1 \, 0) \, if($f2 == 2 \, tanh($f1) \, if($f2 == 3 \, 1 / (1 + exp(-1 * $f1)) \, $f1)));
#X obj 718 701 t f f, f 53;
#X obj 718 819 outlet activation;
#X obj 1337 819 outlet z;
#X connect 0 0 15 0;
#X connect 2 0 16 1;
#X connect 3 0 17 1;
#X connect 4 0 18 1;
#X connect 5 0 19 1;
#X connect 6 0 20 1;
#X connect 8 0 12 0;
#X connect 9 0 28 1;
#X connect 10 0 28 1;
#X connect 11 0 28 1;
#X connect 12 0 9 0;
#X connect 12 1 10 0;
#X connect 12 2 11 0;
#X connect 12 3 13 0;
#X connect 12 4 14 0;
#X connect 13 0 28 1;
#X connect 14 0 28 1;
#X connect 15 0 1 0;
#X connect 15 1 16 0;
#X connect 15 2 23 0;
#X connect 15 3 18 0;
#X connect 15 4 22 0;
#X connect 15 5 21 0;
#X connect 16 0 26 0;
#X connect 17 0 26 1;
#X connect 18 0 25 0;
#X connect 19 0 25 1;
#X connect 20 0 24 1;
#X connect 21 0 20 0;
#X connect 22 0 19 0;
#X connect 23 0 17 0;
#X connect 24 0 29 0;
#X connect 25 0 27 1;
#X connect 26 0 27 0;
#X connect 27 0 24 0;
#X connect 28 0 30 0;
#X connect 29 0 28 0;
#X connect 29 1 31 0;
