#N canvas 1202 693 450 300 16;
#X obj 35 22 inlet bang;
#X obj 35 136 float \$1;
#X obj 35 50 t b b;
#X obj 216 136 list store \$1;
#X obj 35 164 print arg as float;
#X obj 216 164 print arg as list;
#X connect 0 0 2 0;
#X connect 1 0 4 0;
#X connect 2 0 1 0;
#X connect 2 1 3 0;
#X connect 3 0 5 0;
